<?xml version="1.0" encoding="UTF-8"?>
<svg width="512px" height="512px" viewBox="0 0 512 512" version="1.1" xmlns="http://www.w3.org/2000/svg" xmlns:xlink="http://www.w3.org/1999/xlink">
    <!-- Generator: Sketch 53.2 (72643) - https://sketchapp.com -->
    <title>ic_equipment_leg_base</title>
    <desc>Created with Sketch.</desc>
    <g id="ic_equipment_leg_base" stroke="none" stroke-width="1" fill="none" fill-rule="evenodd">
        <g id="leg" transform="translate(56.000000, 56.000000)">
            <path d="M368.067021,217.87933 L399.128723,259.823464 L399.128723,341.115084 C399.06383,357.934078 391.853191,374.578771 379.56383,385.316201 C372.18617,391.756425 363.392553,396.50838 354.117021,398.865922 L351.874468,399.411173 L90.4212766,399.411173 L90.4212766,389.681564 L29.6978723,389.681564 L0.873404255,371.532961 L0.873404255,221.917318 L74.1361702,203.814525 L90.4212766,212.36648 L90.4212766,204.907263 L167.618085,204.907263 L167.618085,68.6111732 L155.267021,68.6111732 L155.267021,0.589944134 L346.634043,0.589944134 L346.634043,68.6122905 L334.282979,68.6122905 L334.282979,217.87933 L368.067021,217.87933 Z" id="Shape" fill="#222222"></path>
            <path d="M186.105319,277.15075 L204.63724,277.15075 C210.807447,277.15075 210.807447,286.303732 210.807447,292.42905 L210.807447,379.993296 L186.105319,379.993296 L186.105319,277.15075 Z M173.754255,379.994413 L108.908511,379.994413 L108.908511,224.324022 L173.754255,224.324022 L173.754255,379.994413 L173.754255,379.994413 Z M359.026596,237.296089 L380.641489,266.484916 L380.641489,341.077095 C380.641489,372.791061 349.811702,379.982123 349.762766,379.993296 L291.092553,379.993296 L291.092553,321.617877 C292.939362,299.521788 334.323404,276.213408 334.323404,276.213408 L334.323404,237.297207 L359.025532,237.297207 L359.026596,237.296089 Z M275.654255,379.994413 L226.247872,379.994413 L226.247872,285.943017 C226.247872,285.943017 225.623404,265.900559 207.720213,263.241341 L186.106383,263.241341 L186.106383,224.324022 L315.797872,224.324022 L315.797872,266.484916 C315.797872,266.484916 282.234043,282.658101 275.654255,308.644693 L275.654255,379.994413 L275.654255,379.994413 Z M96.5574468,370.264804 L34.8148936,370.264804 L19.3617021,360.535196 L19.3617021,342.437672 L59.5031915,342.437672 L59.5031915,327.348501 L19.3617021,327.348501 L19.3617021,310.260648 L59.5031915,310.260648 L59.5031915,292.42905 L19.3617021,292.42905 L19.3617021,276.399748 L59.5031915,276.399748 L59.5031915,260.119017 L19.3617021,260.119017 L19.3617021,237.297207 L71.8553191,224.324022 L96.5574468,237.296089 L96.5574468,370.264804 Z M149.051064,334.589944 L133.611702,334.589944 L133.611702,363.778771 L149.051064,363.778771 L149.051064,334.589944 Z M149.051064,292.42905 L133.611702,292.42905 L133.611702,321.617877 L149.051064,321.617877 L149.051064,292.42905 Z M149.051064,250.269274 L133.611702,250.269274 L133.611702,279.456983 L149.051064,279.456983 L149.051064,250.269274 Z M186.105319,130.272626 L315.796809,130.272626 L315.796809,198.378771 L186.105319,198.378771 L186.105319,130.272626 Z M186.105319,117.300559 L186.105319,62.1675978 L315.796809,62.1675978 L315.796809,117.300559 L186.105319,117.300559 Z M301.901064,75.1396648 L278.736702,75.1396648 L278.736702,91.3553073 L301.901064,91.3553073 L301.901064,75.1396648 L301.901064,75.1396648 Z M225.611702,75.1396648 L198.456383,75.1396648 L198.456383,91.3553073 L225.611702,91.3553073 L225.611702,75.1396648 L225.611702,75.1396648 Z M266.236702,75.1396648 L238.111702,75.1396648 L238.111702,91.3553073 L266.236702,91.3553073 L266.236702,75.1396648 L266.236702,75.1396648 Z M173.754255,20.0067039 L328.147872,20.0067039 L328.147872,49.1944134 L173.754255,49.1944134 L173.754255,20.0067039 L173.754255,20.0067039 Z" id="Shape" fill="#FFFFFF"></path>
        </g>
    </g>
</svg>