<?xml version="1.0" encoding="UTF-8"?>
<svg width="512px" height="512px" viewBox="0 0 512 512" version="1.1" xmlns="http://www.w3.org/2000/svg" xmlns:xlink="http://www.w3.org/1999/xlink">
    <!-- Generator: Sketch 53.2 (72643) - https://sketchapp.com -->
    <title>ic_equipment_charm_empty</title>
    <desc>Created with Sketch.</desc>
    <g id="ic_equipment_charm_empty" stroke="none" stroke-width="1" fill="none" fill-rule="evenodd">
        <g id="charm" transform="translate(61.000000, 56.000000)" fill="#E2E2E2">
            <path d="M100.289161,95.715888 L100.289161,28.0882882 C100.289161,12.6945323 112.768266,0.215427525 128.162022,0.215427525 L360.763071,0.215427525 C376.156826,0.215427525 388.635931,12.6945323 388.635931,28.0882882 L388.635931,216.313274 C388.635931,231.70703 376.156826,244.186135 360.763071,244.186135 L285.720508,244.186135 C270.326752,244.186135 257.847647,231.70703 257.847647,216.313274 L257.847647,103.375163 L183.029802,103.375163 C184.800577,106.317228 185.819071,109.763389 185.819071,113.447433 L185.819071,140.965038 C219.01191,158.376103 241.654463,193.152038 241.654463,233.215174 C241.654463,290.12011 195.973485,336.358203 139.263122,337.31972 L201.622491,397.942708 L202.591253,329.328025 L274.522005,329.328025 L274.522005,343.461023 L218.920784,399.178613 L56.1535456,399.181044 L0.720416471,343.747915 L0.720416471,330.193007 L72.7704409,330.193007 L73.7315944,398.2688 L136.415944,337.329872 C79.3549172,336.769973 33.2660143,290.373621 33.2660143,233.215174 C33.2660143,193.193834 55.8613485,158.44867 88.9975429,141.019594 L88.997555,113.447433 C88.997555,105.599727 93.6191778,98.8314596 100.28916,95.715893 L100.289161,95.715888 Z M313.593368,75.5023019 C313.593368,67.8904866 310.542168,60.9913172 305.596122,55.9611488 L332.89021,55.9611488 L332.89021,188.440414 L313.593368,188.440414 L313.593368,75.5023019 Z M137.844759,352.30853 L174.04601,387.501771 L101.643508,387.501771 L137.844759,352.30853 Z M61.1967375,341.76671 L61.8535076,388.283879 L14.6795688,341.10994 L61.1967375,341.76671 Z M219.959583,201.016285 C212.078975,192.455926 202.768593,188.070353 192.025752,188.070353 C185.390343,188.070353 179.851791,190.238672 175.02413,194.353553 C171.468143,197.384516 168.852887,200.736497 164.646836,207.053535 C164.416309,207.399762 163.235883,209.179226 162.902734,209.678798 C158.73464,215.929041 156.082295,219.234248 152.710289,221.933461 C148.576212,225.242693 143.858797,226.933373 137.734752,226.933373 C131.602601,226.933373 126.830844,225.237841 122.556053,221.897758 C119.103065,219.199787 116.479193,216.084295 111.760886,209.533819 C111.582861,209.286665 110.931108,208.380676 110.789687,208.184288 C105.819149,201.281818 103.02783,197.926791 99.0493106,194.724626 C93.6265019,190.360005 87.4543669,188.070353 80.0358064,188.070353 C71.2215117,188.070353 63.6569526,190.563882 57.367233,195.441541 C62.8523938,183.851055 70.7834921,173.642231 80.4948928,165.480146 C83.1871608,163.21739 86.0162541,161.111938 88.9679906,159.177957 L185.831975,159.099137 C201.164867,169.109712 213.201116,183.741919 219.959583,201.016285 Z M225.957679,230.247958 C225.990169,231.23304 226.006542,232.222196 226.006542,233.215174 C226.006542,282.076854 186.363011,321.687071 137.460239,321.687071 C88.5574661,321.687071 48.9139361,282.076854 48.9139361,233.215174 C48.9139361,231.407459 48.968198,229.612407 49.0751833,227.831555 C54.7771918,207.426858 65.0016668,197.850304 80.0358064,197.850304 C85.1646471,197.850304 89.1902988,199.343684 92.9172565,202.343376 C95.9920815,204.81819 98.3855212,207.694987 102.853335,213.899335 C102.992798,214.093004 103.64503,214.999659 103.825249,215.249858 C109.066518,222.526368 112.127228,226.160546 116.534634,229.604246 C122.503263,234.267798 129.385735,236.713325 137.734752,236.713325 C146.103761,236.713325 152.970917,234.252196 158.821995,229.568543 C163.198295,226.065417 166.345604,222.143414 171.039385,215.104879 C171.380777,214.592946 172.563846,212.809497 172.787403,212.473739 C180.146434,201.421263 184.335955,197.850304 192.025752,197.850304 C205.972763,197.850304 217.288057,208.284713 225.957683,230.247967 Z M98.8326153,233.740831 C96.0172127,242.940749 93.1883317,248.961888 90.3459723,251.804247 C87.5036129,254.646606 81.5121682,257.445794 72.3716381,260.201808 C81.6552547,263.817815 87.6466994,266.975454 90.3459723,269.674727 C93.0452452,272.374 95.8741262,278.036686 98.8326153,286.662786 C101.564076,278.250582 104.38639,272.587895 107.299558,269.674727 C110.212727,266.761559 116.210738,263.603919 125.293593,260.201808 C116.252145,257.558009 110.254133,254.758822 107.299558,251.804247 C104.344983,248.849672 101.522669,242.828534 98.8326153,233.740831 Z M214.164957,340.901728 L261.114962,340.238847 L213.502075,387.851734 L214.164957,340.901728 Z M108.557457,109.535452 L166.259169,109.535452 C168.419696,109.535452 170.171149,111.286906 170.171149,113.447433 L170.171149,145.721271 C170.171149,147.881799 168.419696,149.633252 166.259169,149.633252 L108.557457,149.633252 C106.39693,149.633252 104.645477,147.881799 104.645477,145.721271 L104.645477,113.447433 C104.645477,111.286906 106.39693,109.535452 108.557457,109.535452 Z M145.351663,64.98679 C147.220825,63.8786127 149.370985,63.277363 151.586564,63.277363 L156.479218,63.277363 L156.479218,88.220852 L155.725563,89.0364798 L137.189783,73.1486691 L145.351663,64.98679 Z M140.386961,56.1205523 L115.937083,80.5704301 L115.937083,49.8777506 L140.386961,49.8777506 L140.386961,56.1205523 Z M150.611247,40.313227 L150.611247,15.8633493 L169.193154,15.8633493 L169.193154,40.313227 L150.611247,40.313227 Z M178.973105,40.313227 L178.973105,15.8633493 L197.555012,15.8633493 L197.555012,40.313227 L178.973105,40.313227 Z M207.334963,40.313227 L207.334963,15.8633493 L225.91687,15.8633493 L225.91687,40.313227 L207.334963,40.313227 Z M235.696822,40.313227 L235.696822,15.8633493 L254.278729,15.8633493 L254.278729,40.313227 L235.696822,40.313227 Z M264.05868,40.313227 L264.05868,15.8633493 L282.640587,15.8633493 L282.640587,40.313227 L264.05868,40.313227 Z M292.420538,40.313227 L292.420538,15.8633493 L311.002445,15.8633493 L311.002445,40.313227 L292.420538,40.313227 Z M320.782396,40.313227 L320.782396,15.8633493 L338.386308,15.8633493 L338.386308,40.313227 L320.782396,40.313227 Z M348.538132,49.8777506 L372.988009,49.8777506 L372.988009,64.5476773 L348.538132,64.5476773 L348.538132,49.8777506 Z M348.538132,74.3276284 L372.988009,74.3276284 L372.988009,90.9535452 L348.538132,90.9535452 L348.538132,74.3276284 Z M348.538132,100.733496 L372.988009,100.733496 L372.988009,117.359413 L348.538132,117.359413 L348.538132,100.733496 Z M348.538132,127.139364 L372.988009,127.139364 L372.988009,143.765281 L348.538132,143.765281 L348.538132,127.139364 Z M348.538132,153.545232 L372.988009,153.545232 L372.988009,168.215159 L348.538132,168.215159 L348.538132,153.545232 Z M348.538132,177.99511 L372.988009,177.99511 L372.988009,194.621027 L348.538132,194.621027 L348.538132,177.99511 Z M337.408313,204.088335 L337.408313,228.538213 L310.02445,228.538213 L310.02445,204.088335 L337.408313,204.088335 Z M297.945446,194.621027 L273.495569,194.621027 L273.495569,177.017115 L297.945446,177.017115 L297.945446,194.621027 Z M297.945446,167.237164 L273.495569,167.237164 L273.495569,149.633252 L297.945446,149.633252 L297.945446,167.237164 Z M297.945446,139.853301 L273.495569,139.853301 L273.495569,124.205379 L297.945446,124.205379 L297.945446,139.853301 Z M297.945446,114.425428 L273.495569,114.425428 L273.495569,97.799511 L297.945446,97.799511 L297.945446,114.425428 Z M297.945446,88.0195599 L273.838631,88.0195599 L273.838631,63.277363 L285.720508,63.277363 C292.472155,63.277363 297.945446,68.7506546 297.945446,75.5023019 L297.945446,88.0195599 Z M264.05868,63.277363 L264.05868,87.7272408 L249.388753,87.7272408 L249.388753,63.277363 L264.05868,63.277363 Z M239.608802,63.277363 L239.608802,87.7272408 L222.982885,87.7272408 L222.982885,63.277363 L239.608802,63.277363 Z M213.202934,63.277363 L213.202934,87.7272408 L194.621027,87.7272408 L194.621027,63.277363 L213.202934,63.277363 Z M184.841076,63.277363 L184.841076,87.7272408 L166.259169,87.7272408 L166.259169,63.277363 L184.841076,63.277363 Z M146.431075,93.950732 L116.311122,94.0273308 L130.253884,80.0845687 L146.431075,93.950732 Z M273.495569,204.400978 L300.244499,204.400978 L300.244499,228.538213 L285.720508,228.538213 C278.96886,228.538213 273.495569,223.064921 273.495569,216.313274 L273.495569,204.400978 Z M347.188264,228.538213 L347.188264,204.400978 L372.988009,204.400978 L372.988009,216.313274 C372.988009,223.064921 367.514718,228.538213 360.763071,228.538213 L347.188264,228.538213 Z M372.988009,40.0977995 L348.166259,40.0977995 L348.166259,15.8633493 L360.763071,15.8633493 C367.514718,15.8633493 372.988009,21.3366409 372.988009,28.0882882 L372.988009,40.0977995 Z M140.831296,15.8633493 L140.831296,40.0977995 L115.937083,40.0977995 L115.937083,28.0882882 C115.937083,21.3366409 121.410375,15.8633493 128.162022,15.8633493 L140.831296,15.8633493 Z" id="background"></path>
        </g>
    </g>
</svg>