<?xml version="1.0" encoding="UTF-8"?>
<svg width="512px" height="512px" viewBox="0 0 512 512" version="1.1" xmlns="http://www.w3.org/2000/svg" xmlns:xlink="http://www.w3.org/1999/xlink">
    <!-- Generator: Sketch 53.2 (72643) - https://sketchapp.com -->
    <title>ic_equipment_longsword_base</title>
    <desc>Created with Sketch.</desc>
    <g id="ic_equipment_longsword_base" stroke="none" stroke-width="1" fill="none" fill-rule="evenodd">
        <g id="Group" transform="translate(56.000000, 63.000000)" fill-rule="nonzero">
            <path d="M191.041013,105.977674 L182.15566,120.566319 C179.599491,124.76323 175.040706,127.324437 170.126639,127.324437 L147.942228,127.324437 C103.637185,128.442237 73.189851,127.753663 55.9732867,125.146222 C55.3671974,125.05443 54.7677472,124.923168 54.1787603,124.753272 C38.1535654,120.130752 32.306121,105.592551 39.4061782,92.3413612 C43.0093354,85.6166094 49.6271234,79.8763037 56.9152614,77.0871093 C54.8706301,75.8908223 52.9803304,74.6651657 51.2252888,73.3949981 C43.5406191,67.8334103 38.941541,61.0738131 39.6132575,52.5371548 C40.2734148,44.1473998 45.6218238,38.4876215 53.220282,34.7156013 C58.9698225,31.8614193 65.0840168,31.2808739 72.2908955,32.3936962 C73.0363346,32.5088003 73.7954141,32.6409668 74.5774876,32.7922703 C71.6737625,28.1531554 70.1644431,23.3187913 70.9255863,17.8863417 C71.9323439,10.7008869 76.6542429,5.45797221 83.2813262,2.49979348 C90.0320927,-0.513594562 96.7104175,0.52453491 103.907063,3.61695023 C108.042211,5.3938331 112.281251,7.92854109 115.795397,10.5297074 C123.623572,16.3241113 136.063692,27.457688 153.451036,44.1711734 L170.126639,44.1711734 C173.824554,44.1711734 177.37413,45.6254869 180.008987,48.2201173 L186.256251,54.372003 C221.114478,47.8842185 260.208458,47.9945306 303.525753,54.6120372 C305.901002,54.9748998 307.997089,55.8815661 309.744513,57.1664417 L328.658121,30.4396489 C334.525504,22.1484582 345.921922,20.0251721 354.381479,25.6470862 L390.89342,49.9115939 C399.531442,55.6521091 401.880335,67.3082165 396.13982,75.9462384 C396.040898,76.0935747 378.936916,100.316658 344.827873,148.61549 L354.234417,155.285901 C362.694693,161.28529 364.689635,173.007165 358.690246,181.467441 C358.5982,181.597243 354.564966,186.85598 346.590544,197.243651 C340.57666,205.073724 329.526677,206.909948 321.303615,201.445691 L311.949019,195.229525 C241.754153,285.629135 181.49674,340.546113 132.311845,367.681833 C77.1465412,398.116995 35.8790131,389.175777 3.16579256,345.64502 C-3.66207471,336.559329 4.51573654,323.622035 15.8420181,324.178816 C47.7017214,325.744984 67.4025474,322.674399 88.3424112,312.074454 C111.054139,300.577576 136.52991,279.270013 175.283569,239.431598 C190.85854,223.420668 215.432553,195.048953 248.864607,154.454659 L235.873026,144.788661 C227.551967,138.597626 225.825242,126.833249 232.016277,118.51219 C232.057513,118.456979 236.037002,113.22888 243.954745,102.827892 C249.799518,95.1501763 260.511635,93.1514348 268.731862,98.2048054 L277.073989,103.333114 L284.163932,93.314324 C247.313974,93.7479323 216.259482,98.0024252 191.041013,105.977674 Z" id="background" fill="#000000"></path>
            <path d="M293.711559,79.2020426 C248.800287,78.9491432 211.464522,83.9587653 181.704264,94.2309088 L170.126639,113.23993 L147.764273,113.23993 C104.15564,114.344006 74.2616587,113.670868 58.0823285,111.220516 C41.9646942,106.571331 55.134261,90.5302898 65.1881577,89.4205761 C71.1092139,88.7249741 97.0429495,91.8895162 142.989365,98.9142023 C144.40018,95.3348161 144.40018,93.3230002 142.989365,92.8787545 C103.121549,80.324949 74.1659269,72.6115996 59.4828995,61.9851251 C50.9384296,55.8012783 52.4846076,50.8052715 59.4828995,47.3311853 C65.1881577,44.4989859 72.5255559,46.1163812 88.5084644,51.3286359 C98.7921903,54.6823058 115.710103,63.0855788 140.906546,72.1766068 C142.217503,72.6496081 142.55585,70.5272885 141.921586,65.8096481 C109.865735,46.2088992 91.4966312,32.8665832 86.8142753,25.7827002 C83.9693265,21.4786095 83.7487361,17.7151512 89.0223362,15.3611365 C93.8378092,13.2116192 102.940233,18.5374862 107.415874,21.8503492 C115.195364,27.6087168 128.644831,39.7438272 147.764273,58.2556805 L170.126639,58.2556805 L181.704264,69.6565477 C216.642525,62.0559695 256.540692,61.6821247 301.398765,68.5350131 L293.711559,79.2020426 Z M15.150483,338.246336 C77.4735719,341.310032 108.225919,328.565456 185.379319,249.252452 C202.730489,231.415605 230.645488,198.989141 269.124315,151.973061 L244.280422,133.488704 C242.200157,131.940945 241.768476,128.999851 243.347313,126.878292 L255.161467,111.359171 C256.62266,109.439742 259.30069,108.940057 261.355747,110.2034 L280.944701,122.245676 L340.155048,38.5756185 C341.621894,36.5028209 344.470998,35.9719993 346.585888,37.3774779 L383.097828,61.6419855 C385.257333,63.0771144 385.844557,65.9911412 384.3342,68.260438 L325.213858,151.973061 L346.087276,166.774914 C348.202345,168.274762 348.70108,171.20523 347.094925,173.464314 L335.420453,188.664466 C333.916982,190.621985 331.154487,191.081041 329.098721,189.714976 L308.809072,176.232425 C163.545912,366.058608 66.9953491,410.469965 15.150483,338.246336 Z" id="main" fill="#FFFFFF"></path>
            <polygon id="Path-101" fill-opacity="0.500254755" fill="#000000" points="172.895821 118.90055 50.058152 118.90055 43.0985995 104.782377 61.6276242 77.6087728 46.3902797 53.7832778 56.6854015 39.0428202 81.8228662 36.4235832 81.8228662 11.4444327 107.99721 11.4444327 148.343021 49.4022081 187.278896 59.267844 314.519579 59.267844 341.412606 28.7806153 393.692326 62.545417 335.275974 148.798411 280.104278 112.804672 295.926288 86.8223425 191.982864 96.8306178"></polygon>
            <polygon id="Line" fill="#000000" points="137.973005 45.2347418 147.973005 45.2347418 147.973005 118.14554 137.973005 118.14554"></polygon>
            <polygon id="Line-Copy" fill="#000000" points="180.211268 60.7276995 190.211268 60.7276995 190.211268 102.652582 180.211268 102.652582"></polygon>
            <polygon id="Line-Copy-2" fill="#000000" points="248.798076 155.339785 256.866788 142.69479 318.807557 182.2189 310.738846 194.863895"></polygon>
            <polygon id="Line-Copy-3" fill="#000000" points="274.58508 119.026932 282.851003 106.509962 345.13323 147.639735 336.867307 160.156704"></polygon>
            <path d="M282.83807,172.310437 C166.697662,327.474041 76.5198696,382.117378 12.3046913,336.240447 C97.3148593,336.240447 153.595597,278.660414 189.11754,235.257807 C212.798836,206.322736 235.642699,179.366992 257.649128,154.390573 L282.83807,172.310437 Z" id="Path-100" fill-opacity="0.301573822" fill="#000000"></path>
            <polygon id="Line-3" fill-opacity="0.346071105" fill="#000000" points="288.074004 91.0263477 298.521585 73.9720802 366.38609 115.546422 355.938509 132.60069"></polygon>
            <path d="M345.034368,62.9333249 L362.238895,37.1478612 L377.860276,47.5707286 L361.059792,72.7506287 L385.265142,87.5790207 L375.455206,103.592417 L308.631572,62.6557211 L318.441507,46.6423244 L345.034368,62.9333249 Z" id="Combined-Shape" fill-opacity="0.346071105" fill="#000000"></path>
        </g>
    </g>
</svg>