<?xml version="1.0" encoding="UTF-8"?>
<svg width="512px" height="512px" viewBox="0 0 512 512" version="1.1" xmlns="http://www.w3.org/2000/svg" xmlns:xlink="http://www.w3.org/1999/xlink">
    <!-- Generator: Sketch 53.2 (72643) - https://sketchapp.com -->
    <title>ic_equipment_hammer_base</title>
    <desc>Created with Sketch.</desc>
    <g id="ic_equipment_hammer_base" stroke="none" stroke-width="1" fill="none" fill-rule="evenodd">
        <path d="M383.800655,145.280029 L437.893694,195.102564 L383.800655,244.9251 L383.800655,252.597687 C384.131656,269.301883 371.041882,281.740624 355.659447,281.740624 L296.426869,281.740624 L296.426869,430.831642 C296.426869,444.224019 285.85456,455.430966 272.04537,455.430966 L245.457669,455.430966 C232.052297,455.430966 221.053615,444.777915 221.053615,430.831642 L221.053615,281.740624 L155.181217,281.740624 C146.766413,281.740624 138.947075,278.103671 133.853886,271.174495 C129.869372,265.753646 128.303078,259.52882 128.303078,252.853292 L128.303078,245.587445 L73.4909214,195.102564 L128.303078,144.617683 L128.303078,140.236786 C128.303078,126.489496 139.416427,111.392532 155.181217,111.392532 L207.689137,111.392532 L258.25641,56.4909214 L308.823683,111.392532 L355.659447,111.392532 C371.404723,111.392532 383.836821,125.22993 383.800655,140.236786 L383.800655,145.280029 Z" id="Path" fill="#000000"></path>
        <path d="M155.181217,259.945752 C150.87067,259.945752 148.815898,256.864908 148.815898,251.57124 L148.815898,138.954735 C148.815898,135.571946 152.226462,130.623302 155.181217,130.623302 L355.659447,130.623302 C359.621097,130.623302 363.297651,134.874699 363.287835,138.954735 L363.287835,251.57124 C363.471632,257.050764 359.359557,259.945752 355.659447,259.945752 L155.181217,259.945752 Z M225.564103,153.435897 C215.651299,153.435897 207.615385,161.471812 207.615385,171.384615 L207.615385,220.102564 C207.615385,230.015367 215.651299,238.051282 225.564103,238.051282 L292.230769,238.051282 C302.143572,238.051282 310.179487,230.015367 310.179487,220.102564 L310.179487,171.384615 C310.179487,161.471812 302.143572,153.435897 292.230769,153.435897 L225.564103,153.435897 Z M225.564103,166.25641 L292.230769,166.25641 C295.062999,166.25641 297.358974,168.552386 297.358974,171.384615 L297.358974,220.102564 C297.358974,222.934794 295.062999,225.230769 292.230769,225.230769 L225.564103,225.230769 C222.731873,225.230769 220.435897,222.934794 220.435897,220.102564 L220.435897,171.384615 C220.435897,168.552386 222.731873,166.25641 225.564103,166.25641 Z M248.641026,184.205128 C245.808796,184.205128 243.512821,186.501104 243.512821,189.333333 L243.512821,202.153846 C243.512821,204.986076 245.808796,207.282051 248.641026,207.282051 L269.153846,207.282051 C271.986076,207.282051 274.282051,204.986076 274.282051,202.153846 L274.282051,189.333333 C274.282051,186.501104 271.986076,184.205128 269.153846,184.205128 L248.641026,184.205128 Z M275.914048,354.717949 L275.914048,376.512821 L241.566436,376.512821 L241.566436,354.717949 L275.914048,354.717949 Z M275.914048,344.461538 L241.566436,344.461538 L241.566436,323.948718 L275.914048,323.948718 L275.914048,344.461538 Z M275.914048,397.025641 L275.914048,430.831642 C275.914048,433.146635 274.256445,434.918146 272.04537,434.918146 L245.457669,434.918146 C243.401168,434.918146 241.566436,433.458623 241.566436,430.831642 L241.566436,397.025641 L275.914048,397.025641 Z M275.914048,303.435897 L241.566436,303.435897 L241.566436,291.897436 L275.914048,291.897436 L275.914048,303.435897 Z M258.25641,86.7692308 L280.692308,111.128205 L235.820513,111.128205 L258.25641,86.7692308 Z M103.769231,195.102564 L128.128205,172.666667 L128.128205,217.538462 L103.769231,195.102564 Z M407.615385,195.102564 L383.25641,217.538462 L383.25641,172.666667 L407.615385,195.102564 Z" id="Path-53" fill="#FFFFFF" fill-rule="nonzero"></path>
        <rect id="Rectangle-5" fill-opacity="0.2" fill="#000000" x="239.666667" y="320.102564" width="38.4615385" height="62.8205128"></rect>
        <rect id="Rectangle-5" fill-opacity="0.2" fill="#000000" x="239.666667" y="320.102564" width="38.4615385" height="28.2051282"></rect>
        <path d="M144.794872,127.794872 L366.589744,127.794872 L366.589744,264.974359 L144.794872,264.974359 L144.794872,127.794872 Z M225.564103,153.435897 C215.651299,153.435897 207.615385,161.471812 207.615385,171.384615 L207.615385,220.102564 C207.615385,230.015367 215.651299,238.051282 225.564103,238.051282 L292.230769,238.051282 C302.143572,238.051282 310.179487,230.015367 310.179487,220.102564 L310.179487,171.384615 C310.179487,161.471812 302.143572,153.435897 292.230769,153.435897 L225.564103,153.435897 Z" id="Rectangle-6" fill-opacity="0.4" fill="#000000"></path>
    </g>
</svg>