<?xml version="1.0" encoding="UTF-8"?>
<svg width="512px" height="512px" viewBox="0 0 512 512" version="1.1" xmlns="http://www.w3.org/2000/svg" xmlns:xlink="http://www.w3.org/1999/xlink">
    <!-- Generator: Sketch 53.2 (72643) - https://sketchapp.com -->
    <title>ic_equipment_greatsword_base</title>
    <desc>Created with Sketch.</desc>
    <g id="ic_equipment_greatsword_base" stroke="none" stroke-width="1" fill="none" fill-rule="evenodd">
        <g id="greatsword" transform="translate(107.000000, 56.000000)">
            <path d="M219.192933,197.358031 C219.750938,211.700823 220.868137,224.322974 222.41336,233.558485 C223.000074,237.065164 223.624688,239.925952 224.216958,241.978707 L233.968868,269.656645 L214.144386,282.155715 C215.455704,287.839611 216.933677,292.722846 218.552813,296.784571 C219.873286,300.097078 221.226208,302.704654 222.536402,304.610146 C223.435731,305.918092 224.161398,306.688686 224.652755,307.047896 C229.395292,310.514966 240.167113,313.293901 256.702644,314.039399 L279.674486,315.075075 L282.632509,391.988757 L261.573514,396.061393 C240.336273,400.168501 217.617116,399.575383 193.545852,394.452338 C154.084786,386.05391 128.665611,360.820595 118.299706,322.132294 L0.149205723,376.911259 L0.149205723,153.547299 L0.264445452,152.351246 C3.7966652,115.690937 23.2183145,80.8128921 57.3103065,47.8021798 C104.611542,4.93672277 171.835091,-8.0588228 257.646864,6.56252277 L297.5,17.5 L272.47059,47.4285714 C244.401203,80.3460196 227.519706,106.106907 221.881618,123.297201 C219.24963,140.011732 218.126521,169.947275 219.192933,197.358031 Z" id="Path-52" fill="#000000" fill-rule="nonzero"></path>
            <path d="M245.221134,41.4427428 C219.289352,72.9848059 203.425288,98.3917537 197.628943,117.663586 C191.216174,154.888688 192.713033,248.794006 205.289955,258.823373 L196.510625,262.98043 L114.337536,297.531679 L114.337536,140.365978 C114.337536,139.927668 114.493451,139.112747 114.858879,138.007286 C115.316676,136.622397 116.044644,134.962024 117.035994,133.077777 C119.189243,128.985122 122.459563,124.066603 126.692116,118.613493 C135.973941,106.655032 149.211904,92.9433262 164.984034,79.2354397 C184.385856,62.3729126 211.109657,49.7414514 245.221134,41.4427428 Z M234.747913,28.6444721 C201.673969,37.4899382 175.116339,50.5565082 155.129079,67.9278519 C121.77103,96.9200263 99.3263136,125.837213 99.3263136,140.365978 L99.3263136,304.809142 L25.1492057,337.786938 L25.1492057,154.888688 C28.0563799,124.757435 44.5859565,95.1142062 74.7379357,65.9590022 C111.76359,32.4665913 165.100249,20.0284146 234.747913,28.6444721 Z M199.152131,314.033223 C201.186414,317.773991 203.406973,320.928032 205.813806,323.495348 L176.184915,362.049188 C166.839716,357.132406 159.168234,350.481086 153.196696,341.966032 L199.152131,314.033223 L199.152131,314.033223 Z M193.276753,300.055534 L145.952467,328.820363 C143.811092,323.79344 142.078983,318.306618 140.759205,312.3448 L190.775295,291.403636 C191.554196,294.460584 192.388015,297.34455 193.276753,300.055534 L193.276753,300.055534 Z M218.272931,331.905366 C220.031297,332.674014 221.906513,333.382425 223.898578,334.030599 L223.898582,373.489577 C215.822982,372.993277 207.483414,371.830857 198.879878,370.002319 C196.027914,369.396182 193.273713,368.693053 190.617651,367.891079 L218.272931,331.905366 Z M238.909804,337.459307 C244.03604,338.235896 249.649127,338.761507 255.749065,339.036139 L257,371.517531 C251.139206,372.64939 245.109141,373.354096 238.909804,373.631649 L238.909804,337.459307 L238.909804,337.459307 Z M160.726355,171.379257 C152.781322,171.379257 146.340601,164.947461 146.340601,157.013438 C146.340601,149.079415 152.781322,142.647619 160.726355,142.647619 C168.671388,142.647619 175.11211,149.079415 175.11211,157.013438 C175.11211,164.947461 168.671388,171.379257 160.726355,171.379257 Z M160.875673,182.150206 C174.347685,182.150206 185.268909,171.244117 185.268909,157.790774 C185.268909,144.337431 174.347685,133.431342 160.875673,133.431342 C147.40366,133.431342 136.482437,144.337431 136.482437,157.790774 C136.482437,171.244117 147.40366,182.150206 160.875673,182.150206 Z M160.726355,242.583751 C152.781322,242.583751 146.340601,236.151955 146.340601,228.217932 C146.340601,220.283909 152.781322,213.852113 160.726355,213.852113 C168.671388,213.852113 175.11211,220.283909 175.11211,228.217932 C175.11211,236.151955 168.671388,242.583751 160.726355,242.583751 Z M160.875673,253.3547 C174.347685,253.3547 185.268909,242.448611 185.268909,228.995268 C185.268909,215.541925 174.347685,204.635836 160.875673,204.635836 C147.40366,204.635836 136.482437,215.541925 136.482437,228.995268 C136.482437,242.448611 147.40366,253.3547 160.875673,253.3547 Z" id="Path" fill="#FFFFFF"></path>
            <path d="M245.056611,41.2304447 C219.144216,72.792666 203.292012,98.2158511 197.5,117.5 C191.092025,154.748892 192.587765,248.714224 205.155284,258.75 L196.382518,262.909715 L114.27086,297.483044 L114.27086,140.2169 C114.27086,139.77831 114.426659,138.962868 114.791813,137.856701 C115.249269,136.470927 115.976692,134.809493 116.967301,132.924042 C119.11894,128.828771 122.386816,123.907109 126.616204,118.450514 C135.89109,106.48441 149.119156,92.7639415 164.879495,79.0472945 C184.266813,62.1739907 210.970636,49.5344569 245.056611,41.2304447 Z M160.625,178.75 C172.706229,178.75 182.5,168.956229 182.5,156.875 C182.5,144.793771 172.706229,135 160.625,135 C148.543771,135 138.75,144.793771 138.75,156.875 C138.75,168.956229 148.543771,178.75 160.625,178.75 Z M160.625,250 C172.706229,250 182.5,240.206229 182.5,228.125 C182.5,216.043771 172.706229,206.25 160.625,206.25 C148.543771,206.25 138.75,216.043771 138.75,228.125 C138.75,240.206229 148.543771,250 160.625,250 Z" id="Path" fill-opacity="0.5" fill="#000000"></path>
        </g>
    </g>
</svg>