<?xml version="1.0" encoding="UTF-8"?>
<svg width="512px" height="512px" viewBox="0 0 512 512" version="1.1" xmlns="http://www.w3.org/2000/svg" xmlns:xlink="http://www.w3.org/1999/xlink">
    <!-- Generator: Sketch 53.2 (72643) - https://sketchapp.com -->
    <title>ic_equipment_bow_base</title>
    <desc>Created with Sketch.</desc>
    <g id="ic_equipment_bow_base" stroke="none" stroke-width="1" fill="none" fill-rule="evenodd">
        <g id="Group" transform="translate(56.000000, 65.000000)" fill-rule="nonzero">
            <path d="M0.345119382,180.572054 L44.1966885,153.849302 L71.6265276,153.849302 L71.6265276,137.035333 C71.6265276,128.563408 78.4943793,121.695557 86.9663036,121.695557 L96.4625172,121.695557 C93.8943379,119.065525 91.65611,116.318142 89.6656364,113.269253 C84.9771085,106.087644 82.2873608,97.9542752 81.9301938,88.821787 C81.6611323,81.942091 82.0998088,75.6129742 83.2244185,69.9029175 L56.6612278,43.3397241 L55.6360093,41.5334274 C49.3817591,30.5142833 49.3817591,18.7283965 57.4247853,9.52243054 C65.918716,-0.199636243 78.2529708,-1.1390194 89.7441262,5.12261229 L91.6867927,6.18118841 L123.79234,38.2867352 L171.611814,38.2867352 C177.243051,38.2867352 182.315606,39.9129889 186.71492,42.8829297 C189.645362,44.8612477 191.604647,46.8095886 194.287292,49.928745 C194.399321,50.0590029 194.877196,50.6171952 195.116789,50.8962046 L211.05612,50.8962046 C211.056121,45.9336591 210.699997,42.6765491 209.950844,40.7592729 C207.412463,40.942589 205.047585,40.8468146 202.748336,40.3745571 C197.8373,39.3658477 193.383111,36.7623708 190.635368,31.6168935 C187.589093,25.9123812 188.293493,20.0060453 191.011509,15.224231 C192.443589,12.7047679 194.335833,10.6659174 196.581343,8.87616285 C203.340165,3.48913018 214.02365,0 224.765614,0 C238.285706,0 249.294375,7.10322407 256.185129,18.6645649 C261.562055,27.6859987 264.266949,39.143197 264.266949,50.8874894 C264.266949,62.2651117 261.496565,72.9579082 256.238977,81.277317 C249.973875,91.1909764 240.342833,97.4261799 229.071702,97.4261799 L146.02789,97.4261799 C145.758,97.783094 145.516118,98.1260607 145.301959,98.454266 C145.651846,98.8379582 146.052529,99.2671687 146.514886,99.7540775 C146.90468,100.16457 149.451465,102.809208 150.251641,103.656594 C154.092584,107.724155 156.793976,111.004077 159.12279,114.808135 C160.555484,117.148403 161.733035,119.543456 162.619677,122.007065 C163.618046,121.802817 164.65174,121.695557 165.710487,121.695557 L192.299432,121.695557 C200.771357,121.695557 207.639208,128.563408 207.639208,137.035333 L207.639208,165.669581 L228.909081,165.669581 L283.011527,111.469039 L399.848625,111.469039 L399.848625,128.132636 L348.765148,181.519398 L348.765148,200.756618 L399.848625,255.014827 L399.848625,270.806977 L283.011527,270.806977 L228.909081,216.606435 L207.639208,216.606435 L207.639208,245.240684 C207.639208,253.712608 200.771357,260.58046 192.299432,260.58046 L165.710487,260.58046 C164.65174,260.58046 163.618046,260.473199 162.619677,260.268951 C161.733035,262.73256 160.555484,265.127613 159.12279,267.467881 C156.793976,271.271939 154.092584,274.551861 150.251641,278.619422 C149.451465,279.466808 146.90468,282.111447 146.514886,282.521939 C146.052529,283.008848 145.651846,283.438058 145.301959,283.82175 C145.516118,284.149956 145.758,284.492922 146.02789,284.849836 L229.071702,284.849836 C240.342833,284.849836 249.973875,291.08504 256.238977,300.998699 C261.496565,309.318108 264.266949,320.010905 264.266949,331.388527 C264.266949,343.132819 261.562055,354.590018 256.185129,363.611451 C249.294375,375.172792 238.285706,382.276016 224.765614,382.276016 C214.02365,382.276016 203.340165,378.786886 196.581343,373.399853 C194.335833,371.610099 192.443589,369.571248 191.011509,367.051785 C188.293493,362.269971 187.589093,356.363635 190.635368,350.659123 C193.383111,345.513645 197.8373,342.910169 202.748336,341.901459 C205.047585,341.429202 207.412463,341.333427 209.950844,341.516743 C210.699997,339.599467 211.056121,336.342357 211.05612,331.379812 L195.116789,331.379812 C194.877196,331.658821 194.399321,332.217013 194.287292,332.347271 C191.604647,335.466428 189.645362,337.414769 186.71492,339.393087 C182.315606,342.363027 177.243051,343.989281 171.611814,343.989281 L123.79234,343.989281 L91.6867927,376.094828 L89.7441262,377.153404 C78.2529708,383.415036 65.918716,382.475653 57.4247853,372.753586 C49.3817591,363.54762 49.3817591,351.761733 55.6360093,340.742589 L56.6612278,338.936292 L83.2244185,312.373099 C82.0998088,306.663042 81.6611323,300.333925 81.9301938,293.454229 C82.2873608,284.321741 84.9771085,276.188372 89.6656364,269.006764 C91.65611,265.957875 93.8943379,263.210492 96.4625172,260.58046 L86.9663036,260.58046 C78.4943793,260.58046 71.6265276,253.712608 71.6265276,245.240684 L71.6265276,225.358759 L44.1966885,225.358759 L0.345119382,200.756618 L0.345119382,180.572054 Z" id="background" fill="#000000"></path>
            <path d="M360.959233,126.808815 L379.914677,126.808815 L338.786909,169.760188 L318.085596,169.760188 L360.959233,126.808815 Z M325.166422,126.808815 L344.121866,126.808815 L302.994098,169.760188 L282.292785,169.760188 L325.166422,126.808815 Z M289.373611,126.808815 L308.329055,126.808815 L267.201287,169.760188 L246.499974,169.760188 L289.373611,126.808815 Z M70.6354712,169.189078 L70.6354712,209.447873 L48.5024037,209.447873 L13.7135889,190.389069 L48.5024037,169.189078 L70.6354712,169.189078 Z M86.9663036,137.035333 L111.509945,137.035333 L111.509945,169.760188 L86.9663036,169.760188 L86.9663036,137.035333 Z M165.710487,137.035333 L192.299432,137.035333 L192.299432,169.760188 L165.710487,169.760188 L165.710487,137.035333 Z M129.001971,170.064724 L129.001971,132.818647 C129.001971,121.090136 98.3323795,115.686939 97.2582518,88.2223143 C96.2880524,63.4150579 106.311985,53.6265113 113.741009,53.6265113 L171.611814,53.6265113 C182.353773,53.6265113 183.464667,66.2359806 192.190583,66.2359806 L220.382936,66.2359806 C223.339562,66.2359806 226.395897,60.4454964 226.395897,50.8874894 C226.395897,41.3294825 225.571799,25.3937976 209.58627,25.3937976 C196.595024,26.7405878 208.333915,15.339776 224.765614,15.339776 C241.197314,15.339776 248.927172,33.2996382 248.927172,50.8874894 C248.927172,68.4753407 240.464233,82.0864039 229.071702,82.0864039 L139.330746,82.0864039 C132.444896,88.6141283 129.001971,94.6291696 129.001971,100.131528 C129.001971,108.385065 149.195114,118.467048 149.195114,132.818647 L149.195114,170.064724 L129.001971,170.064724 Z M86.9663036,181.009357 L333.425372,181.009357 L333.425372,200.43974 L86.9663036,200.43974 L86.9663036,181.009357 Z M68.976723,33.9614999 C65.6860186,28.1637232 65.6860186,23.3815814 68.976723,19.6150746 C72.2674274,15.8485678 76.743289,15.5076839 82.4043079,18.5924228 L104.0655,40.2536146 C98.1232288,42.7418139 92.9333436,47.4716412 89.1799781,53.7564954 C89.1290986,53.841691 89.0784788,53.9271579 89.0281187,54.0128956 L68.976723,33.9614999 Z M360.959233,255.467201 L318.085596,212.515828 L338.786909,212.515828 L379.914677,255.467201 L360.959233,255.467201 Z M325.166422,255.467201 L282.292785,212.515828 L302.994098,212.515828 L344.121866,255.467201 L325.166422,255.467201 Z M289.373611,255.467201 L246.499974,212.515828 L267.201287,212.515828 L308.329055,255.467201 L289.373611,255.467201 Z M86.9663036,245.240684 L86.9663036,212.515828 L111.509945,212.515828 L111.509945,245.240684 L86.9663036,245.240684 Z M165.710487,245.240684 L165.710487,212.515828 L192.299432,212.515828 L192.299432,245.240684 L165.710487,245.240684 Z M129.001971,212.211292 L149.195114,212.211292 L149.195114,249.457369 C149.195114,263.808968 129.001971,273.890951 129.001971,282.144489 C129.001971,287.646847 132.444896,293.661888 139.330746,300.189612 L229.071702,300.189612 C240.464233,300.189612 248.927172,313.800676 248.927172,331.388527 C248.927172,348.976378 241.197314,366.93624 224.765614,366.93624 C208.333915,366.93624 196.595024,355.535428 209.58627,356.882219 C225.571799,356.882219 226.395897,340.946534 226.395897,331.388527 C226.395897,321.83052 223.339562,316.040036 220.382936,316.040036 L192.190583,316.040036 C183.464667,316.040036 182.353773,328.649505 171.611814,328.649505 L113.741009,328.649505 C106.311985,328.649505 96.2880524,318.860958 97.2582518,294.053702 C98.3323795,266.589078 129.001971,261.18588 129.001971,249.457369 L129.001971,212.211292 Z M89.1799781,328.519521 C92.9333436,334.804375 98.1232288,339.534202 104.0655,342.022402 L82.4043079,363.683593 C76.743289,366.768332 72.2674274,366.427448 68.976723,362.660942 C65.6860186,358.894435 65.6860186,354.112293 68.976723,348.314516 L89.0281187,328.263121 C89.0784788,328.348858 89.1290986,328.434325 89.1799781,328.519521 Z" id="main" fill="#FFFFFF"></path>
            <path d="M341.108419,176.006915 L341.108419,205.522159 L80.3579632,205.522159 L80.3579632,176.006915 L341.108419,176.006915 Z M5.99810339,190.479502 L48.1005036,161.761967 L77.2694717,161.761967 L77.2694717,218.120016 L48.1005036,218.120016 L5.99810339,190.479502 Z M197.323069,24.4760148 L218.072932,6.91138749 L254.418993,24.4760148 L254.418993,75.6460249 L230.190577,90.0689557 L138.570365,93.5635489 L158.382989,133.736475 L158.382989,174.326461 L118.824195,174.326461 L118.824195,133.736475 L89.3252453,97.4110386 L101.00979,48.3011198 L181.795618,48.3011198 L205.231162,61.7845206 L218.072932,48.3011198 L214.378975,35.1981141 L197.323069,24.4760148 Z M197.009431,357.448749 L214.065337,346.72665 L217.759294,333.623644 L204.917523,320.140243 L181.48198,333.623644 L100.696152,333.623644 L89.0116071,284.513725 L118.510557,248.188288 L118.510557,207.598302 L158.069351,207.598302 L158.069351,248.188288 L138.256727,288.361215 L229.876939,291.855808 L254.105355,306.278739 L254.105355,357.448749 L217.759294,375.013376 L197.009431,357.448749 Z M322.376799,119.900178 L356.765888,119.900178 L306.611028,175.119333 L271.244212,175.119333 L322.376799,119.900178 Z M322.176203,262.817458 L271.043616,207.598302 L306.410432,207.598302 L356.565291,262.817458 L322.176203,262.817458 Z" id="Path-122" fill-opacity="0.3" fill="#000000"></path>
        </g>
    </g>
</svg>