<?xml version="1.0" encoding="UTF-8"?>
<svg width="512px" height="512px" viewBox="0 0 512 512" version="1.1" xmlns="http://www.w3.org/2000/svg" xmlns:xlink="http://www.w3.org/1999/xlink">
    <!-- Generator: Sketch 53.2 (72643) - https://sketchapp.com -->
    <title>ic_equipment_armor_set_base</title>
    <desc>Created with Sketch.</desc>
    <g id="ic_equipment_armor_set_base" stroke="none" stroke-width="1" fill="none" fill-rule="evenodd">
        <g id="armor-bonusskill" transform="translate(56.000000, 68.000000)">
            <path d="M200.000379,255.741775 L233.986884,230.27031 L338.738941,262.979845 L338.738941,376.216216 L61.262272,376.216216 L61.262272,262.982117 L166.011534,230.27027 L200.000379,255.741775 Z M234.234068,277.69254 L234.234068,315.126078 L200.001278,327.688589 L165.765932,315.128162 L165.765932,277.692229 L200.00087,258.847461 L234.234068,277.69254 Z M0,204.947673 L86.4865935,204.947673 L86.4865935,293.575619 L28.9245478,293.575619 L0,272.351257 L0,204.947673 Z M365.766539,293.575619 L313.513406,293.575619 L313.513406,204.947673 L400,204.947673 L400,272.35093 L375.359255,290.433124 L365.766539,293.575619 Z M309.911349,280.353078 L90.0898642,280.353078 L90.0898642,204.947673 L309.911349,204.947673 L309.911349,280.353078 Z M61.262272,204.947673 L108.108501,204.947673 L108.108501,265.477862 L61.262272,265.477862 L61.262272,204.947673 Z M338.738941,265.477862 L291.891499,265.477862 L291.891499,204.947673 L338.738941,204.947673 L338.738941,265.477862 Z M0,135.529617 L86.4865935,135.529617 L86.4865935,224.157564 L0,224.157564 L0,135.529617 Z M400,224.157564 L313.513406,224.157564 L313.513406,135.529617 L400,135.529617 L400,224.157564 Z M201.983281,122.270237 L273.115257,126.940542 L311.276837,159.396811 L342.702703,159.396811 L342.702703,205.687623 L287.808759,249.261646 L116.156216,249.261646 L61.262272,205.687623 L61.262272,159.396811 L92.6865844,159.396811 L131.441505,126.435908 L138.535657,126.435908 L201.983281,122.270237 Z M99.0991823,109.08568 L140.540755,109.08568 L140.540755,171.267398 L82.8829661,171.267398 L82.8829661,125.30075 L99.0991823,125.30075 L99.0991823,109.08568 Z M317.117034,171.267398 L259.459245,171.267398 L259.459245,109.084534 L317.117034,109.084534 L317.117034,171.267398 Z M0,109.084534 L86.4865935,109.084534 L86.4865935,154.739508 L0,154.739508 L0,109.084534 Z M400,154.739508 L313.513406,154.739508 L313.513406,109.084534 L400,109.084534 L400,154.739508 Z M163.96369,26.4450826 L248.649077,26.4450826 L295.495127,69.4180556 L295.495127,120.29361 L266.574341,141.515821 L133.426707,141.515821 L104.50366,120.291132 L104.50366,69.415765 L163.96369,26.4450826 Z M116.171792,128.294425 L14.415009,128.294425 L14.415009,52.8901653 L64.8658994,52.8901653 L64.8658994,90.6419272 L116.171792,128.294425 Z M329.896941,140.176539 L301.796693,140.176539 L230.63044,60.6543168 L230.63044,0 L324.231191,0 L353.152737,25.8555722 L353.152737,107.694276 L329.896941,140.176539 Z M335.134101,52.88902 L385.583778,52.88902 L385.583778,112.078209 L369.369988,112.078209 L369.369988,128.294425 L283.824308,128.294425 L335.134101,90.6416 L335.134101,52.88902 Z M169.36956,58.643596 L98.2033066,135.529617 L70.1046801,135.529617 L46.847263,104.124611 L46.847263,24.9980618 L75.7703097,0 L169.36956,0 L169.36956,58.643596 Z" id="Shape" fill="#000000" fill-rule="nonzero"></path>
            <path d="M322.522725,360 L77.4784882,360 L77.4784882,320.332376 L163.96369,303.804486 L200.000606,320.331231 L236.035097,303.804486 L322.522725,320.331231 L322.522725,360 Z M218.017852,287.276595 L218.017852,303.80334 L200.000606,310.415184 L181.982148,303.804486 L181.982148,287.276595 L200.000606,277.358258 L218.017852,287.276595 L218.017852,287.276595 Z M16.2162162,221.163889 L70.2703773,221.163889 L70.2703773,277.359403 L34.2358871,277.359403 L16.2162162,264.136862 L16.2162162,221.163889 Z M365.766539,277.359403 L329.729623,277.359403 L329.729623,221.163889 L383.783784,221.163889 L383.783784,264.136862 L365.765326,277.359403 L365.766539,277.359403 Z M293.695132,264.136862 L106.30608,264.136862 L106.30608,221.163889 L293.695132,221.163889 L293.695132,264.136862 L293.695132,264.136862 Z M77.4784882,221.163889 L91.8922843,221.163889 L91.8922843,249.261646 L77.4784882,249.261646 L77.4784882,221.163889 Z M322.522725,249.261646 L308.107716,249.261646 L308.107716,221.163889 L322.522725,221.163889 L322.522725,249.261646 Z M16.2162162,151.745833 L70.2703773,151.745833 L70.2703773,207.941347 L16.2162162,207.941347 L16.2162162,151.745833 L16.2162162,151.745833 Z M383.783784,207.941347 L329.729623,207.941347 L329.729623,151.745833 L383.783784,151.745833 L383.783784,207.941347 L383.783784,207.941347 Z M150.990789,141.828641 L200.000606,138.523292 L249.009211,141.828641 L279.278911,168.273723 L293.69392,168.273723 L293.69392,181.496265 L261.261666,207.941347 L138.738334,207.941347 L106.30608,181.496265 L106.30608,168.273723 L120.719876,168.273723 L150.989576,141.828641 L150.990789,141.828641 Z M99.0991823,125.301896 L124.324538,125.301896 L124.324538,155.051182 L99.0991823,155.051182 L99.0991823,125.30075 L99.0991823,125.301896 Z M300.900818,155.051182 L275.675462,155.051182 L275.675462,125.30075 L300.900818,125.30075 L300.900818,155.051182 Z M16.2162162,125.30075 L70.2703773,125.30075 L70.2703773,138.523292 L16.2162162,138.523292 L16.2162162,125.30075 Z M383.783784,138.523292 L329.729623,138.523292 L329.729623,125.30075 L383.783784,125.30075 L383.783784,138.523292 L383.783784,138.523292 Z M167.568352,42.6612989 L232.432861,42.6612989 L232.432861,83.1352173 L257.658217,93.633079 L264.865115,85.6342718 L279.278911,85.6342718 L279.278911,112.079354 L261.262878,125.299605 L138.738334,125.299605 L120.719876,112.077064 L120.719876,85.6319812 L135.133673,85.6319812 L142.341783,93.6319337 L167.567139,83.1340719 L167.567139,42.6590083 L167.568352,42.6612989 Z M48.6496832,98.8556679 L66.6669283,112.078209 L30.6312252,112.078209 L30.6312252,69.1063815 L48.6496832,69.1063815 L48.6496832,98.8556679 L48.6496832,98.8556679 Z M369.369988,112.078209 L333.331859,112.078209 L351.350317,98.8556679 L351.350317,69.1052362 L369.367562,69.1052362 L369.367562,112.078209 L369.369988,112.078209 Z M322.522725,98.8556679 L308.107716,98.8556679 L246.846657,42.6612989 L246.846657,16.2162162 L318.919276,16.2162162 L336.936521,29.4387575 L336.936521,82.3289228 L322.522725,98.8556679 Z M153.153343,42.6612989 L91.8922843,98.8556679 L77.4784882,98.8556679 L63.0634792,82.3289228 L63.0634792,29.4387575 L81.0819372,16.2162162 L153.153343,16.2162162 L153.153343,42.6612989 L153.153343,42.6612989 Z" id="Shape" fill="#FFFFFF"></path>
        </g>
    </g>
</svg>