<?xml version="1.0" encoding="UTF-8"?>
<svg width="512px" height="512px" viewBox="0 0 512 512" version="1.1" xmlns="http://www.w3.org/2000/svg" xmlns:xlink="http://www.w3.org/1999/xlink">
    <!-- Generator: Sketch 53.2 (72643) - https://sketchapp.com -->
    <title>ic_equipment_mantle_base</title>
    <desc>Created with Sketch.</desc>
    <g id="ic_equipment_mantle_base" stroke="none" stroke-width="1" fill="none" fill-rule="evenodd">
        <g id="mantle" transform="translate(56.000000, 59.000000)">
            <path d="M244.281549,147.087377 L308.49831,239.132384 L288.822086,258.765441 C313.198975,289.281366 350.046689,334.22668 399.365229,393.601383 L0.632075546,393.601383 L59.4031419,252.358103 C52.3971771,242.578724 49.1547747,229.300564 49.1547747,213.041532 C49.1547747,197.123311 56.1275184,181.325853 69.5608384,165.394203 L69.5608384,0.642359377 L222.593397,0.642359377 L328.075134,81.0717601 L244.281549,147.087377 Z" id="Path-57" fill="#000000" fill-rule="nonzero"></path>
            <path d="M99.7091816,149.628846 L84.7546184,149.628846 L84.7546184,15.8361394 L164.436585,15.8361394 L164.436585,149.628846 L131.995964,149.628846 L131.995964,32.2867826 L99.7091816,32.2867826 L99.7091816,149.628846 L99.7091816,149.628846 Z M173.932698,15.8361394 L217.232386,15.8361394 L303.695767,80.9360893 L216.50409,149.628846 L173.932698,149.628846 L173.932698,15.8361394 Z M94.9390083,161.024181 L235.47873,161.024181 L288.7472,237.37647 L268.464159,257.615013 L255.176439,270.915983 L216.830904,232.592527 L177.318194,271.144805 L135.948309,232.949952 L94.7990517,270.61331 L77.210971,249.110742 C68.6360268,242.650741 64.3485548,230.627671 64.3485548,213.041532 C64.3485548,196.977202 74.5453699,179.638087 94.9390003,161.024188 L94.9390083,161.024181 Z M364.746556,378.407603 L23.4107872,378.407603 L70.5574439,265.101025 L93.2567928,292.622156 L135.903756,253.587968 L177.607072,292.090662 L216.702631,253.945393 L255.098831,292.319484 L278.089193,269.673222 C302.156227,299.794012 331.042015,336.038806 364.746556,378.407603 Z" fill="#FFFFFF"></path>
            <path d="M220.867746,12.7316982 L127.423995,155.4539 L86.5270385,155.4539 L61.7542707,194.662993 L61.7542707,231.974961 L67.36029,250.483636 L14.3536708,382.679407 L20.4277761,382.679407 L107.849737,308.702531 L127.423995,382.679407 L160.997212,382.679407 L160.997212,276.87176 C168.136505,281.233876 173.043048,285.334744 175.716841,289.174363 C178.390634,293.013983 198.044488,324.182331 234.678404,382.679407 L276.22323,313.904014 L312.647357,382.679407 L378.635955,382.679407 L276.22323,260.58769 L298.580225,231.974961 L240.52643,155.4539 L220.867746,155.4539 L193.898085,197.705553 L174.198094,155.4539 L140.08612,197.705553 L127.423995,179.85608 L91.7767719,221.500939 L82.1003605,171.254798 L91.7767719,158.535168 L160.997212,158.535168 L171.424664,152.212906 L225.847644,152.212906 L312.647357,82.6887698 L220.867746,12.7316982 Z" id="alpha" fill-opacity="0.15" fill="#000000"></path>
        </g>
    </g>
</svg>