<?xml version="1.0" encoding="UTF-8"?>
<svg width="512px" height="512px" viewBox="0 0 512 512" version="1.1" xmlns="http://www.w3.org/2000/svg" xmlns:xlink="http://www.w3.org/1999/xlink">
    <!-- Generator: Sketch 53.2 (72643) - https://sketchapp.com -->
    <title>ic_equipment_weapon_empty</title>
    <desc>Created with Sketch.</desc>
    <g id="ic_equipment_weapon_empty" stroke="none" stroke-width="1" fill="none" fill-rule="evenodd">
        <g id="greatsword" transform="translate(107.000000, 56.000000)" fill="#E2E2E2">
            <path d="M245.056611,41.2304447 C219.144216,72.792666 203.292012,98.2158511 197.5,117.5 C191.092025,154.748892 192.587765,248.714224 205.155284,258.75 L196.382518,262.909715 L114.27086,297.483044 L114.27086,140.2169 C114.27086,139.77831 114.426659,138.962868 114.791813,137.856701 C115.249269,136.470927 115.976692,134.809493 116.967301,132.924042 C119.11894,128.828771 122.386816,123.907109 126.616204,118.450514 C135.89109,106.48441 149.119156,92.7639415 164.879495,79.0472945 C184.266813,62.1739907 210.970636,49.5344569 245.056611,41.2304447 Z M234.591221,28.4239948 C201.542002,37.2751139 175.004226,50.3500346 155.031908,67.7324801 C121.698797,96.7431831 99.27086,125.678851 99.27086,140.2169 L99.27086,304.765158 L25.1492057,337.76403 L25.1492057,154.748892 C28.0542065,124.598382 44.5714259,94.936209 74.700864,65.7623722 C111.698838,32.2485567 164.995624,19.8024309 234.591221,28.4239948 Z M199.022049,313.995134 C201.054812,317.738293 203.27371,320.89435 205.678744,323.463307 L176.072003,362.041786 C166.73379,357.121862 159.068044,350.466291 153.10097,341.945795 L199.022049,313.995134 L199.022049,313.995134 Z M193.151064,300.008512 L145.862157,328.791725 C143.722382,323.761589 141.991568,318.271261 140.672777,312.305632 L190.651475,291.351085 C191.429794,294.409986 192.26299,297.295795 193.151064,300.008512 L193.151064,300.008512 Z M218.128555,331.878699 C219.885607,332.647839 221.759421,333.356703 223.749996,334.005291 L223.75,373.489487 C215.680437,372.992869 207.347104,371.829706 198.75,370 C195.900168,369.393475 193.148025,368.689897 190.49395,367.88741 L218.128555,331.878699 Z M238.75,337.43619 C243.872404,338.213275 249.481294,338.739222 255.576672,339.01403 L256.826672,371.51618 C250.970259,372.648762 244.944702,373.353918 238.75,373.631649 L238.75,337.43619 L238.75,337.43619 Z M160.625,171.25 C152.685907,171.25 146.25,164.814093 146.25,156.875 C146.25,148.935907 152.685907,142.5 160.625,142.5 C168.564093,142.5 175,148.935907 175,156.875 C175,164.814093 168.564093,171.25 160.625,171.25 Z M160.774206,182.027833 C174.236146,182.027833 185.149206,171.114773 185.149206,157.652833 C185.149206,144.190892 174.236146,133.277833 160.774206,133.277833 C147.312265,133.277833 136.399206,144.190892 136.399206,157.652833 C136.399206,171.114773 147.312265,182.027833 160.774206,182.027833 Z M160.625,242.5 C152.685907,242.5 146.25,236.064093 146.25,228.125 C146.25,220.185907 152.685907,213.75 160.625,213.75 C168.564093,213.75 175,220.185907 175,228.125 C175,236.064093 168.564093,242.5 160.625,242.5 Z M219.192933,197.358031 C219.750938,211.700823 220.868137,224.322974 222.41336,233.558485 C223.000074,237.065164 223.624688,239.925952 224.216958,241.978707 L233.968868,269.656645 L214.144386,282.155715 C215.455704,287.839611 216.933677,292.722846 218.552813,296.784571 C219.873286,300.097078 221.226208,302.704654 222.536402,304.610146 C223.435731,305.918092 224.161398,306.688686 224.652755,307.047896 C229.395292,310.514966 240.167113,313.293901 256.702644,314.039399 L279.674486,315.075075 L282.632509,391.988757 L261.573514,396.061393 C240.336273,400.168501 217.617116,399.575383 193.545852,394.452338 C154.084786,386.05391 128.665611,360.820595 118.299706,322.132294 L0.149205723,376.911259 L0.149205723,153.547299 L0.264445452,152.351246 C3.7966652,115.690937 23.2183145,80.8128921 57.3103065,47.8021798 C104.611542,4.93672277 171.835091,-8.0588228 257.646864,6.56252277 L297.5,17.5 L272.47059,47.4285714 C244.401203,80.3460196 227.519706,106.106907 221.881618,123.297201 C219.24963,140.011732 218.126521,169.947275 219.192933,197.358031 Z" id="Path"></path>
        </g>
    </g>
</svg>