<?xml version="1.0" encoding="UTF-8"?>
<svg width="512px" height="512px" viewBox="0 0 512 512" version="1.1" xmlns="http://www.w3.org/2000/svg" xmlns:xlink="http://www.w3.org/1999/xlink">
    <!-- Generator: Sketch 53.2 (72643) - https://sketchapp.com -->
    <title>ic_equipment_chest_empty</title>
    <desc>Created with Sketch.</desc>
    <g id="ic_equipment_chest_empty" stroke="none" stroke-width="1" fill="none" fill-rule="evenodd">
        <g id="chest" transform="translate(56.000000, 56.000000)" fill="#E2E2E2">
            <path d="M360.247917,382.324623 L39.7520833,382.324623 L39.7520833,347.318593 L360.247917,347.318593 L360.247917,382.323618 L360.247917,382.324623 Z M326.988542,309.394975 C353.559375,309.394975 354.201042,335.609045 354.201042,335.649246 L45.7989583,335.649246 C45.7989583,335.649246 46.41875,309.394975 73.0114583,309.394975 L326.988542,309.394975 L326.988542,309.394975 Z M85.1052083,297.726633 L85.1052083,253.967839 C78.6708333,237.040201 60.9177083,236.465327 60.9177083,236.465327 L60.9177083,213.128643 L88.1291667,213.128643 C101.504167,213.128643 109.28125,195.654271 109.29375,195.624121 L290.70625,195.624121 C290.730208,195.680402 298.507292,213.127638 311.870833,213.127638 L339.083333,213.127638 L339.083333,236.464322 C339.083333,236.464322 321.329167,237.040201 314.894792,253.968844 L314.894792,297.725628 L85.1041667,297.725628 L85.1052083,297.726633 Z M215.117708,286.058291 L215.117708,262.719598 L184.882292,262.719598 L184.882292,286.057286 L215.117708,286.057286 L215.117708,286.058291 Z M163.717708,262.719598 L139.529167,262.719598 L139.529167,286.057286 L163.716667,286.057286 L163.716667,262.720603 L163.717708,262.719598 Z M118.363542,262.719598 L94.1760417,262.719598 L94.1760417,286.057286 L118.363542,286.057286 L118.363542,262.720603 L118.363542,262.719598 Z M260.470833,286.057286 L260.470833,262.720603 L236.283333,262.720603 L236.283333,286.057286 L260.470833,286.057286 L260.470833,286.057286 Z M305.823958,286.057286 L305.823958,262.720603 L281.636458,262.720603 L281.636458,286.057286 L305.823958,286.057286 L305.823958,286.057286 Z M85.1052083,201.459296 L60.9177083,201.459296 L60.9177083,166.452261 L85.1052083,178.120603 L85.1052083,201.459296 Z M339.083333,201.459296 L314.894792,201.459296 L314.894792,178.120603 L339.082292,166.452261 L339.082292,201.457286 L339.083333,201.459296 Z M239.30625,67.2683417 L239.30625,116.860302 L302.8,116.860302 C321.186458,136.78995 339.083333,134.363819 339.083333,134.363819 L339.083333,151.866332 C290.9875,151.866332 290.70625,178.080402 290.70625,178.121608 L109.29375,178.121608 C109.29375,178.121608 109.048958,151.866332 60.9166667,151.866332 L60.9166667,134.363819 C60.9166667,134.363819 78.8125,136.790955 97.2,116.860302 L160.69375,116.860302 L160.69375,67.2683417 L239.30625,67.2683417 Z M18.5875,116.860302 L18.5875,43.9306533 C21.7989583,28.4492462 45.7604167,17.6934673 45.7989583,17.6763819 L121.3875,17.6763819 L121.3875,67.2683417 L69.9875,116.860302 L18.5875,116.860302 Z M354.201042,17.6763819 C354.266667,17.7055276 378.204167,28.4582915 381.4125,43.9306533 L381.4125,116.860302 L330.0125,116.860302 L278.6125,67.2683417 L278.6125,17.6763819 L354.201042,17.6763819 Z M60.9166667,81.8542714 L36.7291667,81.8542714 L36.7291667,105.190955 L60.9166667,105.190955 L60.9166667,81.8542714 Z M363.270833,105.190955 L363.270833,81.8542714 L339.083333,81.8542714 L339.083333,105.190955 L363.270833,105.190955 Z M60.9166667,43.9306533 L36.7291667,43.9306533 L36.7291667,67.2683417 L60.9166667,67.2683417 L60.9166667,43.9316583 L60.9166667,43.9306533 Z M287.583333,99.3949749 L260.510417,74.8150754 L260.510417,0.211055276 L358.252083,0.211055276 L362.05625,1.94070352 C378.491667,9.5638191 393.938542,21.0864322 398.658333,38.4090452 C398.815625,38.9859296 398.955208,39.5668342 399.088542,40.1507538 L399.514583,42.1547739 L399.514583,134.325628 L357.184375,134.325628 L357.184375,253.175879 L340.080208,253.905528 C337.340625,254.211055 334.626042,255.521608 333.063542,257.720603 L332.996875,292.251256 C344.963542,293.856281 355.153125,299.083417 361.995833,307.481407 C367.195833,313.865327 370.367708,321.686432 371.715625,329.652261 L378.35,329.853266 L378.35,399.790955 L21.65,399.790955 L21.65,329.854271 L28.2510417,329.854271 C31.246875,311.39196 45.4333333,295.247236 65.4520833,292.444221 C66.1322917,292.347739 67.0041667,292.251256 67.0041667,292.251256 L67.0041667,257.819095 C65.4677083,255.553769 62.8166667,254.258291 59.93125,253.905528 L42.815625,253.175879 L42.815625,134.325628 L0.485416667,134.325628 L0.485416667,42.1577889 L0.9125,40.1507538 C4.89166667,22.3698492 22.0583333,9.49949749 37.4,2.19497487 L41.7479167,0.211055276 L139.489583,0.211055276 L139.489583,74.8150754 L112.416667,99.3949749 L142.591667,99.3949749 L142.591667,49.8030151 L257.408333,49.8030151 L257.408333,99.3949749 L287.583333,99.3949749 Z" id="Shape"></path>
        </g>
    </g>
</svg>