<?xml version="1.0" encoding="UTF-8"?>
<svg width="512px" height="512px" viewBox="0 0 512 512" version="1.1" xmlns="http://www.w3.org/2000/svg" xmlns:xlink="http://www.w3.org/1999/xlink">
    <!-- Generator: Sketch 53.2 (72643) - https://sketchapp.com -->
    <title>ic_equipment_sword_and_shield_base</title>
    <desc>Created with Sketch.</desc>
    <g id="ic_equipment_sword_and_shield_base" stroke="none" stroke-width="1" fill="none" fill-rule="evenodd">
        <g id="Group" transform="translate(56.000000, 65.000000)" fill-rule="nonzero">
            <path d="M0.949114504,295.712679 L0.949114504,270.225757 C0.949114504,259.816201 9.38772655,251.377589 19.797282,251.377589 L155.506422,251.377589 C165.915978,251.377589 174.35459,259.816201 174.35459,270.225757 L174.35459,295.712679 C174.35459,306.122235 165.915978,314.560847 155.506422,314.560847 L19.797282,314.560847 C9.38772655,314.560847 0.949114504,306.122235 0.949114504,295.712679 Z M58.3189914,299.47644 L130.980571,299.47644 L130.980571,380.254536 L58.3189914,380.254536 L58.3189914,299.47644 Z M58.7141522,262.515603 L58.7141522,45.0427208 C58.7141522,28.632893 66.4206855,15.9243456 79.680796,8.49771017 C89.4272848,3.0389609 101.442637,0.735498271 114.878604,0.735498271 L130.585411,0.735498271 L130.585411,262.515603 L58.7141522,262.515603 Z M297.382199,325.65445 C240.707952,325.65445 194.764398,279.710896 194.764398,223.036649 C194.764398,166.362403 240.707952,120.418848 297.382199,120.418848 C354.056446,120.418848 400,166.362403 400,223.036649 C400,279.710896 354.056446,325.65445 297.382199,325.65445 Z" id="background" fill="#000000"></path>
            <path d="M115.273765,332.984293 L74.0257977,332.984293 L74.0257977,315.183246 L115.273765,315.183246 L115.273765,332.984293 Z M115.273765,348.691099 L115.273765,364.54773 L74.0257977,364.54773 L74.0257977,348.691099 L115.273765,348.691099 Z M117.801047,267.084395 L117.801047,298.854041 L19.797282,298.854041 C18.0623561,298.854041 16.6559208,297.447605 16.6559208,295.712679 L16.6559208,270.225757 C16.6559208,268.490831 18.0623561,267.084395 19.797282,267.084395 L117.801047,267.084395 Z M128.272251,267.084395 L155.506422,267.084395 C157.241348,267.084395 158.647783,268.490831 158.647783,270.225757 L158.647783,295.712679 C158.647783,297.447605 157.241348,298.854041 155.506422,298.854041 L128.272251,298.854041 L128.272251,267.084395 Z M74.4209585,246.808797 L74.4209585,45.0427208 C74.4209585,22.2668582 95.4284149,16.4423046 114.878604,16.4423046 L114.878604,246.808797 L74.4209585,246.808797 Z M383.536656,234.554974 C378.354753,273.689706 347.13303,304.606453 307.853403,309.323297 L307.853403,289.005236 L286.910995,289.005236 L286.910995,309.323297 C247.631368,304.606453 216.409645,273.689706 211.227741,234.554974 L231.413613,234.554974 L231.413613,213.612565 L210.976232,213.612565 C215.30242,173.490798 246.933275,141.550675 286.910995,136.750001 L286.910995,157.068063 L307.853403,157.068063 L307.853403,136.750001 C347.831123,141.550675 379.461978,173.490798 383.788165,213.612565 L363.350785,213.612565 L363.350785,234.554974 L383.536656,234.554974 Z M272.251309,176.963351 C260.685136,176.963351 251.308901,186.339586 251.308901,197.905759 L251.308901,248.167539 C251.308901,259.733712 260.685136,269.109948 272.251309,269.109948 L322.513089,269.109948 C334.079262,269.109948 343.455497,259.733712 343.455497,248.167539 L343.455497,197.905759 C343.455497,186.339586 334.079262,176.963351 322.513089,176.963351 L272.251309,176.963351 Z M272.251309,187.434555 L322.513089,187.434555 C328.296175,187.434555 332.984293,192.122673 332.984293,197.905759 L332.984293,248.167539 C332.984293,253.950626 328.296175,258.638743 322.513089,258.638743 L272.251309,258.638743 C266.468223,258.638743 261.780105,253.950626 261.780105,248.167539 L261.780105,197.905759 C261.780105,192.122673 266.468223,187.434555 272.251309,187.434555 Z" id="main" fill="#FFFFFF"></path>
            <polygon id="Path-98" fill-opacity="0.5" fill="#000000" points="67.0114816 308.194879 121.736113 308.194879 121.736113 371.991647 67.0114816 371.991647"></polygon>
            <polygon id="Path-99" fill-opacity="0.54576" fill="#000000" points="258.213772 261.236283 336.103306 261.236283 336.103306 185.120976 258.213772 185.120976"></polygon>
        </g>
    </g>
</svg>