<?xml version="1.0" encoding="UTF-8"?>
<svg width="512px" height="512px" viewBox="0 0 512 512" version="1.1" xmlns="http://www.w3.org/2000/svg" xmlns:xlink="http://www.w3.org/1999/xlink">
    <!-- Generator: Sketch 53.2 (72643) - https://sketchapp.com -->
    <title>ic_equipment_light_bowgun_base</title>
    <desc>Created with Sketch.</desc>
    <g id="ic_equipment_light_bowgun_base" stroke="none" stroke-width="1" fill="none" fill-rule="evenodd">
        <g id="Group" transform="translate(61.000000, 56.000000)" fill-rule="nonzero">
            <path d="M231.314075,265.92805 C234.98262,265.366335 238.929805,265.236076 243.14728,265.480206 L243.153059,255.062677 L295.977867,255.062677 L295.977867,330.736057 L242.419023,330.736057 L242.419023,373.354277 C242.419023,389.080464 231.489556,399.334309 215.781411,399.334309 L172.500579,399.334309 C156.748696,399.334309 145.957303,390.340696 145.957303,373.354277 L145.957303,330.198647 C145.957303,321.274016 150.80732,314.199316 158.387645,309.173583 C160.898897,307.50863 163.776273,306.019308 167.043854,304.668594 L167.043854,278.213665 C164.9576,276.292468 162.98622,274.131129 161.139119,271.741706 C153.8416,262.301583 149.409463,249.228258 145.302252,232.423151 C137.775035,201.624716 135.784657,164.84276 136.883157,105.837444 L134.689398,108.024582 L121.07175,120.539663 L121.07175,208.270401 C121.07175,225.296738 111.408517,239.429127 95.5759155,247.216292 C85.7391019,252.054467 73.7272017,254.396331 60.1297893,254.396331 C46.1815346,254.396331 33.2509249,251.097356 22.9042315,244.716309 C8.950821,236.110915 0.5320194,222.406327 0.5320194,206.840871 C0.5320194,188.410705 8.41180904,172.087132 22.9783295,160.030569 C34.7357128,150.299101 51.8279727,151.282844 62.4050833,161.864608 L62.4050833,108.024582 C62.4050833,100.029815 65.6682724,92.3814259 71.4396479,86.8490194 L116.634295,43.5256975 C122.095462,38.2906549 129.368012,35.3679263 136.933064,35.3679263 L170.545912,35.3679263 L170.545912,0 L218.787421,0 L218.787421,35.3679263 L257.96408,35.3679263 C265.371819,35.3679263 272.505253,38.1706483 277.931768,43.2132196 L324.553754,86.5365416 C330.526198,92.0864155 333.919399,99.8715946 333.919399,108.024582 L333.919399,158.132823 C345.898074,150.21577 362.184839,152.100819 371.99701,163.149051 C382.906702,175.433062 388.700889,188.617775 388.700889,202.574205 C388.700889,230.58548 361.596436,254.396331 330.702402,254.396331 C316.645527,254.396331 304.618981,251.334404 294.979446,244.921311 C282.45168,236.586705 275.252732,223.241863 275.252732,208.270401 L275.252732,120.809628 L255.849662,102.779391 C255.939783,159.537744 252.231367,202.691994 244.543928,232.606775 C241.071733,246.118418 236.731135,257.209244 231.314075,265.92805 Z" id="background" fill="#000000"></path>
            <path d="M105.07175,208.270401 L105.07175,113.713255 L142.291531,78.0345929 L252.725421,78.0345929 L291.252732,113.835966 L291.252732,208.270401 C291.252732,217.869673 295.75858,226.222258 303.841955,231.600052 C310.624563,236.112458 319.595091,238.396331 330.702402,238.396331 C353.187898,238.396331 372.700889,221.254464 372.700889,202.574205 C372.700889,192.858792 368.505823,183.312889 360.033903,173.773742 C355.144024,168.267874 346.716605,167.768516 341.210737,172.658395 C335.704869,177.548274 335.205511,185.975692 340.09539,191.48156 C342.189551,193.839528 343.694611,195.972926 344.654936,198.154329 L347.01069,203.505491 L342.627589,207.374978 C339.42926,210.198525 335.226462,211.729665 330.702402,211.729665 C328.531685,211.729665 326.536886,211.598676 324.754998,211.33653 L317.919399,210.330899 L317.919399,108.024582 C317.919399,104.318678 316.377035,100.779961 313.662287,98.2572907 L267.040302,54.9339687 C264.573704,52.6418908 261.331234,51.3679263 257.96408,51.3679263 L136.933064,51.3679263 C133.494404,51.3679263 130.1887,52.6964393 127.706351,55.0760041 L82.5117036,98.3993261 C79.8883511,100.914056 78.4050833,104.390597 78.4050833,108.024582 L78.4050833,208.991806 L72.2952871,210.477466 C68.9441285,211.292335 64.7282901,211.729665 60.1297893,211.729665 C56.3098708,211.729665 52.755855,211.254546 49.7879336,210.357095 L40.5463839,207.562603 L45.0095628,199.001327 C46.1937451,196.729826 47.8844391,194.801748 50.1832423,192.899052 C55.8559803,188.203784 56.6483762,179.798854 51.9531079,174.126116 C47.2578396,168.453378 38.8529098,167.660982 33.1801718,172.35625 C22.241727,181.409891 16.5320194,193.237977 16.5320194,206.840871 C16.5320194,216.584566 21.876268,225.284228 31.3030097,231.097919 C38.9892569,235.838207 49.0160372,238.396331 60.1297893,238.396331 C71.4397006,238.396331 81.0753305,236.517749 88.5143338,232.858923 C99.0957701,227.65451 105.07175,218.914694 105.07175,208.270401 Z M183.043854,270.933333 L204.265353,270.933333 L204.265353,224 L182.932019,224 L182.932019,270.126576 C159.619047,256.845526 149.696532,198.569354 151.752894,95.2980624 L239.815948,95.2980624 C240.585125,200.135642 228.757725,258.602893 204.333749,270.699816 L204.333749,309.455593 C204.333749,322.799057 211.695507,329.470789 226.419023,329.470789 L226.419023,373.217569 C226.419023,379.962062 222.873152,383.334309 215.781411,383.334309 L172.500579,383.334309 C165.721859,383.334309 161.957303,381.363475 161.957303,373.217569 L161.957303,329.470789 C161.957303,323.801328 168.986154,319.077386 183.043854,315.298962 L183.043854,270.933333 Z M185.414493,14.9333333 L203.918841,14.9333333 L203.918841,35.2 L185.414493,35.2 L185.414493,14.9333333 Z M242.222661,281.453467 L242.222661,292.899367 L259.153059,292.899367 L259.153059,271.062677 L279.977867,271.062677 L279.977867,314.736057 L233.335471,314.736057 C224.868732,314.736057 220.630036,310.574465 220.630036,296.425864 C220.630036,285.611001 227.827578,280.620202 242.222661,281.453467 Z" id="main" fill="#FFFFFF"></path>
            <polygon id="alpha" fill-opacity="0.4" fill="#000000" points="287.151809 265.846245 252.442116 265.846245 220.824575 277.535655 207.338284 271.69095 203.029703 270.56614 179.189639 270.56614 173.374568 313.874755 154.112 323.936137 154.112 386.410062 230.191595 386.410062 230.191595 323.936137 287.151809 323.936137"></polygon>
        </g>
    </g>
</svg>