<?xml version="1.0" encoding="UTF-8"?>
<svg width="512px" height="512px" viewBox="0 0 512 512" version="1.1" xmlns="http://www.w3.org/2000/svg" xmlns:xlink="http://www.w3.org/1999/xlink">
    <!-- Generator: Sketch 53.2 (72643) - https://sketchapp.com -->
    <title>ic_equipment_switch_axe_base</title>
    <desc>Created with Sketch.</desc>
    <g id="ic_equipment_switch_axe_base" stroke="none" stroke-width="1" fill="none" fill-rule="evenodd">
        <g id="Group" transform="translate(66.000000, 56.000000)" fill-rule="nonzero">
            <path d="M100.859242,43.8347351 L100.859242,23.2290715 L259.658917,23.2290715 L259.658917,51.7742486 L274.218159,51.7742486 L274.218159,0.448022478 L379.302546,0.448022478 L379.302546,158.432785 L274.218159,254.393736 L274.218159,199.480745 L259.658917,199.480745 L259.658917,283.504689 L219.505743,283.504689 L219.505743,323.033238 L234.046071,323.033238 L234.046071,399.134796 L153.457231,399.134796 L153.457231,360.162164 L132.867014,360.162164 L132.867014,283.504689 L122.882498,283.504689 L122.882498,313.274375 L108.09964,314.072288 C77.857134,315.704644 51.4283822,309.497603 31.641701,297.144436 C12.7115875,285.32604 0.873889097,268.251471 0.873889097,251.129541 L0.873889097,43.8347351 L100.859242,43.8347351 Z M259.375,94.7916667 L259.375,158.333333 L274.144517,158.333333 L274.144517,94.7916667 L259.375,94.7916667 Z M122.744392,232.086677 L138.417158,232.086677 L138.417158,199.480745 L116.632498,199.480745 L116.632498,211.404271 L84.367719,211.404271 C86.4112292,248.790341 96.1086984,267.854365 111.10467,271.663938 L122.744392,274.620891 L122.744392,232.086677 Z" id="background" fill="#000000"></path>
            <path d="M244.033917,197.558848 L154.042158,197.558848 L154.042158,183.855745 L116.212942,183.855745 L116.212942,144.08514 L82.6544574,144.08514 L82.6544574,112.074536 L116.212942,112.074536 L116.484242,38.8540715 L244.033917,38.8540715 L244.033917,197.558848 Z M244.033917,197.558848 L154.042158,197.558848 L154.042158,183.855745 L116.212942,183.855745 L116.212942,144.08514 L82.6544574,144.08514 L82.6544574,112.074536 L116.212942,112.074536 L116.484242,38.8540715 L244.033917,38.8540715 L244.033917,197.558848 Z M201.041667,179.166667 C213.698192,179.166667 223.958333,168.906526 223.958333,156.25 C223.958333,143.593474 213.698192,133.333333 201.041667,133.333333 C188.385141,133.333333 178.125,143.593474 178.125,156.25 C178.125,168.906526 188.385141,179.166667 201.041667,179.166667 Z M201.041667,107.291667 C213.698192,107.291667 223.958333,97.0315255 223.958333,84.375 C223.958333,71.7184745 213.698192,61.4583333 201.041667,61.4583333 C188.385141,61.4583333 178.125,71.7184745 178.125,84.375 C178.125,97.0315255 188.385141,107.291667 201.041667,107.291667 Z M289.843159,16.0730225 L363.677546,16.0730225 L363.677546,151.541616 L289.843159,218.965695 L289.843159,16.0730225 Z M184.374746,344.207831 L183.888023,283.854167 L203.880743,283.854167 L203.880743,344.270542 L218.421071,344.270542 L218.421071,383.509796 L169.082231,383.509796 L169.082231,344.331158 L184.374746,344.207831 Z M148.492014,344.270542 L148.492014,283.854167 L168.262515,283.854167 L168.749744,344.270542 L148.492014,344.270542 Z M138.369392,267.879689 L138.369392,247.711677 L154.042158,247.711677 L154.042158,213.183848 L244.033917,213.183848 L244.033917,267.879689 L138.369392,267.879689 Z M67.0294574,96.4495357 L67.0294574,159.71014 L100.587942,159.71014 L101.007498,195.779271 L66.9207072,195.779271 C66.9207072,249.873793 81.3118082,280.216673 107.257498,286.80791 L107.257498,298.469999 C48.6927843,301.631061 16.4988891,272.210152 16.4988891,251.129541 L16.4988891,59.4597351 L101.007498,59.4597351 L101.007498,96.4495357 L67.0294574,96.4495357 Z" id="main" fill="#FFFFFF"></path>
            <path d="M201.041667,107.291667 C188.385141,107.291667 178.125,97.0315255 178.125,84.375 C178.125,71.7184745 188.385141,61.4583333 201.041667,61.4583333 C213.698192,61.4583333 223.958333,71.7184745 223.958333,84.375 C223.958333,97.0315255 213.698192,107.291667 201.041667,107.291667 Z M201.5625,96.875 C208.178411,96.875 213.541667,91.5117444 213.541667,84.8958333 C213.541667,78.2799223 208.178411,72.9166667 201.5625,72.9166667 C194.946589,72.9166667 189.583333,78.2799223 189.583333,84.8958333 C189.583333,91.5117444 194.946589,96.875 201.5625,96.875 Z" id="Oval" fill-opacity="0.653136322" fill="#000000"></path>
            <path d="M201.041667,179.166667 C188.385141,179.166667 178.125,168.906526 178.125,156.25 C178.125,143.593474 188.385141,133.333333 201.041667,133.333333 C213.698192,133.333333 223.958333,143.593474 223.958333,156.25 C223.958333,168.906526 213.698192,179.166667 201.041667,179.166667 Z M201.5625,168.75 C208.178411,168.75 213.541667,163.386744 213.541667,156.770833 C213.541667,150.154922 208.178411,144.791667 201.5625,144.791667 C194.946589,144.791667 189.583333,150.154922 189.583333,156.770833 C189.583333,163.386744 194.946589,168.75 201.5625,168.75 Z" id="Oval-Copy" fill-opacity="0.653136322" fill="#000000"></path>
            <path d="M189.622802,212.5 C189.596649,212.843793 189.583333,213.191175 189.583333,213.541667 C189.583333,221.020523 193.562811,225 201.041667,225 C208.520523,225 212.5,221.020523 212.5,213.541667 C212.5,213.191175 212.486684,212.843793 212.460532,212.5 L223.935081,212.5 C223.950527,212.845289 223.958333,213.192566 223.958333,213.541667 C223.958333,226.198192 213.698192,236.458333 201.041667,236.458333 C188.385141,236.458333 178.125,226.198192 178.125,213.541667 C178.125,213.192566 178.132806,212.845289 178.148253,212.5 L189.622802,212.5 Z" id="Oval-Copy-2" fill-opacity="0.653136322" fill="#000000"></path>
            <path d="M178.127737,213.183848 C178.125914,213.302903 178.125,213.422178 178.125,213.541667 C178.125,226.198192 188.385141,236.458333 201.041667,236.458333 C213.698192,236.458333 223.958333,226.198192 223.958333,213.541667 C223.958333,213.422178 223.957419,213.302903 223.955596,213.183848 L244.033917,213.183848 L244.033917,267.879689 L138.369392,267.879689 L138.369392,247.711677 L154.042158,247.711677 L154.042158,213.183848 L178.127737,213.183848 Z" id="Path" fill-opacity="0.3" fill="#000000"></path>
            <polygon id="Path-110" fill-opacity="0.3" fill="#000000" points="337.851476 10.6228648 306.273359 42.2009817 337.851476 73.7790986 306.273359 105.357216 337.851476 136.935332 306.273359 168.513449 329.817134 192.057225 287.497911 228.886439 287.497911 10.6228648"></polygon>
            <path d="M66.9699035,51.8870618 C66.9699035,51.8870618 66.9699035,101.295066 66.9699035,200.111075 L110.189646,200.111075 L110.189646,153.842891 L76.6639086,153.842891 L76.6639086,105.783156 L110.189646,105.783156 L110.189646,51.8870618 C81.3764844,51.8870618 66.9699035,51.8870618 66.9699035,51.8870618 Z" id="Path-111" fill-opacity="0.3" fill="#000000"></path>
            <path d="M244.033917,197.558848 L154.042158,197.558848 L154.042158,183.855745 L116.212942,183.855745 L116.212942,144.08514 L82.6544574,144.08514 L82.6544574,112.074536 L116.212942,112.074536 L116.484242,38.8540715 L244.033917,38.8540715 L244.033917,197.558848 Z M201.041667,179.166667 C213.698192,179.166667 223.958333,168.906526 223.958333,156.25 C223.958333,143.593474 213.698192,133.333333 201.041667,133.333333 C188.385141,133.333333 178.125,143.593474 178.125,156.25 C178.125,168.906526 188.385141,179.166667 201.041667,179.166667 Z M201.041667,107.291667 C213.698192,107.291667 223.958333,97.0315255 223.958333,84.375 C223.958333,71.7184745 213.698192,61.4583333 201.041667,61.4583333 C188.385141,61.4583333 178.125,71.7184745 178.125,84.375 C178.125,97.0315255 188.385141,107.291667 201.041667,107.291667 Z" id="Path" fill-opacity="0.45" fill="#000000"></path>
            <path d="M183.333333,302.083333 L204.166667,302.083333 L204.166667,322.916667 L183.333333,322.916667 L183.333333,302.083333 Z M183.333333,343.75 L204.166667,343.75 L204.166667,364.583333 L183.333333,364.583333 L183.333333,343.75 Z" id="Rectangle-9" fill-opacity="0.45" fill="#000000"></path>
            <polygon id="Path-109" fill-opacity="0.45" fill="#000000" points="145.489636 280.281443 145.489636 347.023298 167.282435 347.023298 170.2608 342.083798 170.2608 280.281443"></polygon>
        </g>
    </g>
</svg>