<?xml version="1.0" encoding="UTF-8"?>
<svg width="512px" height="512px" viewBox="0 0 512 512" version="1.1" xmlns="http://www.w3.org/2000/svg" xmlns:xlink="http://www.w3.org/1999/xlink">
    <!-- Generator: Sketch 53.2 (72643) - https://sketchapp.com -->
    <title>ic_equipment_heavy_bowgun_base</title>
    <desc>Created with Sketch.</desc>
    <g id="ic_equipment_heavy_bowgun_base" stroke="none" stroke-width="1" fill="none" fill-rule="evenodd">
        <g id="Group" transform="translate(56.000000, 60.000000)" fill-rule="nonzero">
            <path d="M306.703753,38.290098 C328.123005,39.2266938 342.913779,41.1579998 354.481736,44.9125567 C368.54974,49.4785418 378.509256,57.1186582 384.548509,68.6805008 C389.743093,78.6252664 391.667096,90.49706 391.667096,107.07881 C391.667096,131.014519 388.01427,145.596426 380.423857,158.152 C379.342719,159.940349 376.247763,164.647971 376.289228,164.582615 C374.313083,167.697385 373.845671,169.098265 373.845671,172.807532 C373.845671,177.09884 375.631152,179.999012 381.315131,185.077892 C380.91872,184.723682 387.0857,190.081507 388.855795,191.78351 C395.640544,198.30726 399.578111,204.873168 399.578111,213.848191 C399.578111,220.454483 396.59982,226.190047 391.816297,230.289045 C388.562614,233.077124 384.681194,234.976235 380.297702,236.268759 C373.624366,238.236469 365.498281,238.811194 357.379923,238.083557 C349.43582,237.371539 341.812127,235.452702 335.499728,232.308738 L335.499728,260.137238 L367.495636,260.137238 L367.495636,312.846195 L292.202768,312.846195 L292.202768,392.331937 L111.48364,392.331937 L111.48364,241.556266 L133.927415,241.556266 L133.927415,156.074866 L155.716914,156.074866 L155.716914,146.361645 L140.377135,146.361645 L140.377135,132.487607 C127.13883,130.647845 116.901542,126.338622 107.101622,119.562319 C105.398053,118.384361 100.41124,114.716765 99.5420822,114.115773 C96.3543365,111.911558 94.8900332,111.349889 92.4377497,111.349889 C90.6291618,111.349889 89.3084013,111.547034 88.451228,111.84402 C87.8266359,112.310185 87.7115425,112.560579 87.592126,112.907621 C87.2211479,113.985741 86.9625444,115.540871 86.8961541,117.578314 L86.8961541,207.02344 C86.8961541,218.627419 79.7783359,227.067786 69.3267047,232.072222 C62.4466979,235.366498 53.9251735,237.251587 44.9303025,237.823805 C36.557421,238.356454 28.130755,237.707444 21.2962387,235.884232 C16.9430842,234.722961 13.1105309,233.081282 9.84081823,230.689788 C4.49743223,226.781593 0.910941106,221.0131 0.910941106,213.848191 C0.910941106,205.477855 4.76310168,199.369617 11.0631435,193.769291 C13.4223424,191.672117 21.7337841,185.436809 21.5219952,185.603999 C27.725812,180.706594 29.8295681,177.519846 29.8295681,172.807532 C29.8295681,172.489999 29.7632393,172.074818 29.5778601,171.456478 C29.1932724,170.173669 28.4241095,168.46525 27.0158471,165.828501 C26.7945829,165.414219 22.9159173,158.398401 21.6137856,155.885508 C13.8299224,140.863975 9.7713895,126.328777 9.7713895,107.07881 C9.7713895,90.1203011 11.1183141,79.1911013 15.3228626,69.6477549 C20.6022454,57.6647847 30.0082943,49.6842388 43.7534654,44.990401 C54.9850036,41.1549436 69.5784359,39.2241554 91.3017385,38.2896041 C105.907078,37.6612724 119.574542,37.4826869 152.482412,37.4467929 L152.482412,0.613509974 L248.587469,0.613509974 L248.587469,37.4478246 C279.298063,37.4861306 292.473683,37.6678623 306.703753,38.290098 Z M318.069197,118.146192 C317.856314,116.233349 317.501989,114.721726 317.059295,113.604883 C316.757662,112.843913 316.488858,112.424707 316.264922,112.202654 C316.132619,112.071464 315.952087,111.960065 315.553748,111.820041 C314.743879,111.535356 313.53512,111.349889 311.88813,111.349889 C309.894771,111.349889 308.826225,111.771199 306.120761,113.71649 C305.403865,114.231955 300.352599,118.10802 298.487034,119.435888 C288.811662,126.322603 278.384728,130.693277 264.700195,132.525164 L264.700195,146.361645 L248.587469,146.361645 L248.587469,156.074866 L268.335686,156.074866 L268.335686,168.438718 L318.069197,168.438718 L318.069197,118.146192 Z M281.334499,223.195946 L268.335686,223.195946 L268.335686,241.556266 L281.334499,241.556266 L281.334499,223.195946 Z" id="Path-115" fill="#000000"></path>
            <path d="M156.06469,53.6137647 C160.134424,53.6117427 243.729066,53.6117427 249.056604,53.6174789 L249.056604,130.189138 L156.06469,130.189138 L156.06469,53.6137647 Z M92.4377497,95.1773823 C78.3507631,95.1773823 71.112729,102.565906 70.7236474,117.342952 L70.7236474,207.02344 C70.7236474,225.433294 17.0834478,225.433294 17.0834478,213.848191 C17.0834478,202.263088 46.0020749,197.645976 46.0020749,172.807532 C46.0020749,157.12326 25.9438962,145.434232 25.9438962,107.07881 C25.9438962,57.8881975 37.6745344,53.9537863 139.892183,53.6391004 L139.892183,115.99627 C113.092748,111.191731 110.398503,95.1773823 92.4377497,95.1773823 Z M265.229111,53.661648 C357.865543,54.122396 375.494589,58.8369824 375.494589,107.07881 C375.494589,156.451053 357.673164,149.680449 357.673164,172.807532 C357.673164,195.934615 383.405604,200.880046 383.405604,213.848191 C383.405604,226.816335 334.241704,224.82811 334.241704,207.02344 L334.241704,117.342952 C332.906912,102.565906 325.455721,95.1773823 311.88813,95.1773823 C294.523215,95.1773823 292.759948,111.314883 265.229111,116.051088 L265.229111,53.661648 Z M228.571429,241.239892 L228.571429,208.712191 L201.617251,187.103408 L174.663073,208.712191 L174.663073,241.239892 L150.099922,241.239892 L150.099922,172.247373 L252.163179,172.247373 L252.163179,241.239892 L228.571429,241.239892 Z M174.663073,257.728773 L174.663073,317.298322 L228.571429,317.298322 L228.571429,257.728773 L276.030262,257.728773 L276.030262,376.15943 L127.656147,376.15943 L127.656147,257.728773 L174.663073,257.728773 Z M268.463612,207.02344 L268.463612,184.611224 L319.327221,184.611224 L319.327221,276.309744 L351.32313,276.309744 L351.32313,296.673688 L297.507006,296.673688 L297.507006,207.02344 L268.463612,207.02344 Z M171.88942,156.06469 L171.88942,146.361186 L232.414963,146.361186 L232.414963,156.06469 L171.88942,156.06469 Z M212.398922,241.509434 L190.83558,241.509434 L190.83558,216.474878 L201.617251,207.831365 L212.398922,216.474878 L212.398922,241.509434 L212.398922,241.509434 Z M212.398922,257.681941 L212.398922,301.125815 L190.83558,301.125815 L190.83558,257.681941 L212.398922,257.681941 L212.398922,257.681941 Z M232.414963,36.6576819 L168.654919,36.6576819 L168.654919,16.7860167 L232.414963,16.7860167 L232.414963,36.6576819 Z" id="Path" fill="#FFFFFF"></path>
            <polygon id="Path-116" fill-opacity="0.2" fill="#000000" points="160.891323 8.63476903 160.891323 45.2962513 148.243352 45.2962513 148.243352 137.672927 160.891323 137.672927 160.891323 165.322129 142.63913 165.322129 142.63913 250.39857 119.407902 250.39857 119.407902 382.19716 284.036713 382.19716 284.036713 250.39857 258.615734 250.39857 258.615734 165.322129 240.071789 165.322129 240.071789 137.672927 258.615734 137.672927 258.615734 45.2962513 240.071789 45.2962513 240.071789 8.63476903"></polygon>
            <polygon id="Path-117" fill-opacity="0.35" fill="#000000" points="184.241176 213.08946 184.241176 306.915282 219.966484 306.915282 219.966484 213.08946 202.10383 199.338599"></polygon>
            <polygon id="Path-118" fill-opacity="0.5" fill="#000000" points="262.421346 178.415745 262.421346 217.324687 289.676201 217.324687 289.676201 306.081702 357.907916 306.081702 357.907916 269.862659 328.315832 269.862659 328.315832 178.415745"></polygon>
        </g>
    </g>
</svg>