<?xml version="1.0" encoding="UTF-8"?>
<svg width="512px" height="512px" viewBox="0 0 512 512" version="1.1" xmlns="http://www.w3.org/2000/svg" xmlns:xlink="http://www.w3.org/1999/xlink">
    <!-- Generator: Sketch 53.2 (72643) - https://sketchapp.com -->
    <title>ic_equipment_waist_empty</title>
    <desc>Created with Sketch.</desc>
    <g id="ic_equipment_waist_empty" stroke="none" stroke-width="1" fill="none" fill-rule="evenodd">
        <g id="waist" transform="translate(56.000000, 72.000000)" fill="#E2E2E2">
            <path d="M161.954205,223.091226 L238.045795,223.091226 L238.045795,353.125 L161.954205,353.125 L161.954205,223.089093 L161.954205,223.091226 Z M384.375,353.125 L325.843318,353.125 L287.797523,312.875841 L287.797523,210.705228 L311.209389,210.705228 L311.209389,300.491977 L337.549251,328.356205 L384.375,328.356205 L384.375,353.125 L384.375,353.125 Z M112.202477,210.705228 L112.202477,312.875841 L74.156682,353.125 L15.625,353.125 L15.625,328.357272 L62.4507489,328.357272 L88.7896025,300.493044 L88.7896025,210.705228 L112.202477,210.705228 Z M211.705933,340.741136 L211.705933,325.259706 L188.294067,325.259706 L188.294067,340.740069 L211.705933,340.740069 L211.705933,340.741136 Z M384.375,315.972341 L346.329205,315.972341 L322.917339,291.203546 L322.917339,275.723182 L384.375,275.723182 L384.375,315.972341 L384.375,315.972341 Z M77.0826612,275.724249 L77.0826612,291.204612 L53.6697867,315.972341 L15.625,315.972341 L15.625,275.724249 L77.0836694,275.724249 L77.0826612,275.724249 Z M211.705933,301.73143 L211.705933,286.251067 L188.294067,286.251067 L188.294067,301.73143 L211.705933,301.73143 Z M211.705933,264.577704 L211.705933,249.097341 L188.294067,249.097341 L188.294067,264.577704 L211.705933,264.577704 Z M384.373992,263.340385 L322.915322,263.340385 L322.915322,223.091226 L384.373992,223.091226 L384.373992,263.339318 L384.373992,263.340385 Z M77.0826612,223.090159 L77.0826612,263.338251 L15.625,263.338251 L15.625,223.090159 L77.0836694,223.090159 L77.0826612,223.090159 Z M358.035138,204.513296 L322.915322,204.513296 L322.915322,173.553636 L358.03413,173.553636 L358.03413,204.514363 L358.035138,204.513296 Z M273.163594,204.513296 L238.044787,204.513296 L238.044787,173.553636 L273.163594,173.553636 L273.163594,204.514363 L273.163594,204.513296 Z M77.0836694,173.553636 L77.0836694,204.514363 L41.9648619,204.514363 L41.9648619,173.553636 L77.0826612,173.553636 L77.0836694,173.553636 Z M161.954205,173.553636 L161.954205,204.514363 L126.835397,204.514363 L126.835397,173.553636 L161.954205,173.553636 Z M182.440092,158.073272 L217.559908,158.073272 L217.559908,189.033999 L182.440092,189.033999 L182.440092,158.073272 L182.440092,158.073272 Z M311.211406,185.9375 L287.798531,185.9375 L287.798531,173.553636 L311.210397,173.553636 L311.210397,185.9375 L311.211406,185.9375 Z M112.203485,173.553636 L112.203485,185.9375 L88.791619,185.9375 L88.791619,173.553636 L112.203485,173.553636 Z M211.706941,80.6714543 L287.798531,80.6714543 L287.798531,130.948236 C287.798531,140.311334 282.785448,148.757108 275.088368,152.358135 L260.101547,159.373525 C255.354214,161.606305 249.965095,161.763501 245.108677,159.810853 C240.10366,157.801275 233.36443,155.098372 227.247299,152.646132 C217.928932,148.905373 211.706941,138.992948 211.706941,127.877337 L211.706941,80.6714543 L211.706941,80.6714543 Z M188.295075,80.6714543 L188.295075,127.877337 C188.295075,138.991881 182.073084,148.905373 172.754718,152.645065 L154.893339,159.809787 C150.037054,161.762772 144.647937,161.60596 139.900469,159.373525 L124.913648,152.358135 C117.216569,148.757108 112.203485,140.311334 112.203485,130.948236 L112.203485,80.6714543 L188.295075,80.6714543 L188.295075,80.6714543 Z M346.330213,102.34375 L319.99136,102.34375 L319.99136,127.112545 L346.330213,127.112545 L346.330213,160.024184 C341.97035,161.620664 337.218768,161.545153 332.9062,159.810853 C327.901183,157.801275 321.161953,155.098372 315.044822,152.646132 C305.726455,148.905373 299.504464,138.992948 299.504464,127.877337 L299.504464,80.6714543 L346.330213,80.6714543 L346.330213,102.34375 Z M100.497552,80.6714543 L100.497552,127.877337 C100.497552,138.991881 94.2755613,148.905373 84.957195,152.645065 L67.0958164,159.809787 C62.7832485,161.544086 58.0316664,161.619597 53.6718032,160.023118 L53.6718032,127.112545 L80.0106568,127.112545 L80.0106568,102.344817 L53.670795,102.344817 L53.670795,80.6714543 L100.496544,80.6714543 L100.497552,80.6714543 Z M267.311636,102.34375 L232.192828,102.34375 L232.192828,127.112545 L267.310628,127.112545 L267.310628,102.344817 L267.311636,102.34375 Z M167.807172,127.112545 L167.807172,102.344817 L132.689372,102.344817 L132.689372,127.112545 L167.807172,127.112545 L167.807172,127.112545 Z M53.670795,55.9026593 L77.0826612,55.9026593 L77.0826612,31.1349309 L53.670795,31.1349309 L53.670795,18.75 L346.329205,18.75 L346.329205,31.1338642 L322.917339,31.1338642 L322.917339,55.9026593 L346.329205,55.9026593 L346.329205,68.2865235 L53.670795,68.2865235 L53.670795,55.9026593 Z M223.411866,31.1349309 L211.705933,31.1349309 L211.705933,55.9026593 L223.411866,55.9026593 L223.411866,31.1349309 Z M273.164603,31.1349309 L246.825749,31.1349309 L246.825749,55.9026593 L273.164603,55.9026593 L273.164603,31.1349309 Z M311.210397,31.1349309 L284.870536,31.1349309 L284.870536,55.9026593 L311.211406,55.9026593 L311.211406,31.1349309 L311.210397,31.1349309 Z M188.293059,55.9026593 L188.293059,31.1349309 L176.587126,31.1349309 L176.587126,55.9026593 L188.293059,55.9026593 L188.293059,55.9026593 Z M153.175259,55.9026593 L153.175259,31.1349309 L126.835397,31.1349309 L126.835397,55.9026593 L153.174251,55.9026593 L153.175259,55.9026593 Z M362.051261,154.905313 L373.727642,154.905313 L373.727642,204.47544 L400,204.47544 L400,368.75 L318.860723,368.75 L271.485394,318.471149 L271.485394,220.040686 L254.040219,220.040686 L254.040219,368.75 L145.959781,368.75 L145.959781,220.040686 L128.514606,220.040686 L128.514606,318.471149 L81.1392768,368.75 L0,368.75 L0,204.47544 L26.2723584,204.47544 L26.2723584,154.90638 L37.9487386,154.90638 L37.9487386,0 L362.051261,0 L362.051261,154.905313 Z" id="Shape"></path>
        </g>
    </g>
</svg>