<?xml version="1.0" encoding="UTF-8"?>
<svg width="512px" height="512px" viewBox="0 0 512 512" version="1.1" xmlns="http://www.w3.org/2000/svg" xmlns:xlink="http://www.w3.org/1999/xlink">
    <!-- Generator: Sketch 53.2 (72643) - https://sketchapp.com -->
    <title>ic_equipment_head_base</title>
    <desc>Created with Sketch.</desc>
    <g id="ic_equipment_head_base" stroke="none" stroke-width="1" fill="none" fill-rule="evenodd">
        <g id="head" transform="translate(90.000000, 56.000000)">
            <path d="M51.3754457,328.400456 L87.6166458,319.705663 L87.6166458,296.288418 C87.1581462,296.110789 86.7005861,295.934062 86.2430261,295.753729 C56.6256421,284.029327 30.4573402,264.00326 15.1163941,236.696215 C4.93168951,218.563653 0.158783678,197.882974 0.0375819357,177.270821 L0,159.406054 L175.436234,159.406054 C175.843755,155.442274 176.508049,151.506689 177.425258,147.622143 L34.7097363,147.622143 L29.3439754,142.429431 L29.1541866,142.244589 C12.0130657,125.040745 6.7234083,97.6119759 21.3493581,75.8952792 C27.8848567,66.1906162 37.2183305,58.4930684 47.2123067,52.2408958 L51.9946081,49.2707983 L64.2275281,49.2707983 L65.7796621,46.4675095 C77.0035072,26.4207037 95.3481895,9.83269994 117.819368,1.92686655 C119.152167,1.45214398 120.503624,1.02713936 121.870701,0.652808323 L124.363323,0 L234.658788,0 C256.674286,5.18459648 277.260731,15.9018337 292.99065,31.5088216 C308.143686,46.5450531 319.868311,65.1365652 325.412586,85.3609999 L331.25,107.200324 C331.25,107.200324 324.336803,117.963546 322.759301,121.728014 L326.001683,121.728014 L326.001683,207.050242 L250.500513,279.507457 L250.500513,321.969753 L277.681648,333.562511 L277.681648,396.875 L51.3754457,396.875 L51.3754457,328.400456 Z" id="Shape" fill="#222222"></path>
            <path d="M106.497178,334.849783 L233.580725,334.849783 L260.812511,346.449387 L260.812511,381.25 L245.683427,381.25 L245.683427,358.049892 L225.637768,358.049892 L225.637768,381.25 L207.483245,381.25 L207.483245,358.049892 L179.116213,358.049892 L179.116213,381.25 L151.883487,381.25 L151.883487,358.049892 L127.678083,358.049892 L127.678083,381.25 L109.523559,381.25 L109.523559,358.049892 L88.3435954,358.049892 L88.3435954,381.25 L70.1881305,381.25 L70.1881305,343.548809 L106.497178,334.849783 Z M233.580725,285.549892 L233.580725,323.249278 L106.497178,323.249278 L106.497178,308.750902 C135.397944,308.750902 157.908951,285.578762 157.93625,285.550794 L233.580725,285.549892 Z M133.729904,285.549892 L106.497178,285.549892 C106.497178,285.549892 18.75,264.493414 18.75,178.249278 L194.245297,178.249278 C194.245297,178.249278 187.608908,120.249459 236.605224,120.249459 C236.605224,120.249459 257.515967,120.121346 267.604219,137.10258 C275.329728,150.218784 272.867205,166.677643 261.606053,177.185583 C254.100815,184.195687 241.715714,190.304493 221.477082,189.849783 L133.729904,285.549892 Z M171.551672,273.950289 C171.551672,273.950289 204.379674,218.605648 253.247969,201.449387 C253.247969,201.449387 284.630086,193.08598 285.017914,175.349603 L285.017914,140.549892 L309.225201,140.549892 L309.225201,201.449387 L233.579784,273.950289 L171.551672,273.950289 Z M253.7224,155.04917 L236.606165,138.644442 L219.489931,155.04917 L236.606165,171.4548 L253.7224,155.04917 Z M182.141653,131.849964 L42.9563452,131.849964 C42.9563452,131.849964 8.33134052,98.8023277 58.0854286,68.0498917 L245.683427,68.0498917 C245.683427,68.0498917 289.728338,78.5027968 309.225201,102.849603 C309.225201,102.849603 312.800379,129.615211 285.018856,128.950289 C285.018856,128.950289 233.752048,69.802869 182.141653,131.849964 Z M309.225201,91.25 C275.756152,55.6852219 233.631557,56.4493865 233.579784,56.4493865 L82.2927151,56.4493865 C99.0954863,25.958589 127.644195,18.7572176 127.679024,18.75 L233.581667,18.75 C293.889025,32.8279502 309.225201,91.25 309.225201,91.25 Z" id="Shape" fill="#FFFFFF"></path>
        </g>
    </g>
</svg>