<?xml version="1.0" encoding="UTF-8"?>
<svg width="512px" height="512px" viewBox="0 0 512 512" version="1.1" xmlns="http://www.w3.org/2000/svg" xmlns:xlink="http://www.w3.org/1999/xlink">
    <!-- Generator: Sketch 53.2 (72643) - https://sketchapp.com -->
    <title>ic_equipment_armor_set_empty</title>
    <desc>Created with Sketch.</desc>
    <g id="ic_equipment_armor_set_empty" stroke="none" stroke-width="1" fill="none" fill-rule="evenodd">
        <g id="armor-bonusskill" transform="translate(56.000000, 68.000000)" fill="#E2E2E2">
            <path d="M322.522725,360 L77.4784882,360 L77.4784882,320.332376 L163.96369,303.804486 L200.000606,320.331231 L236.035097,303.804486 L322.522725,320.331231 L322.522725,360 Z M218.017852,287.276595 L218.017852,303.80334 L200.000606,310.415184 L181.982148,303.804486 L181.982148,287.276595 L200.000606,277.358258 L218.017852,287.276595 L218.017852,287.276595 Z M16.2162162,221.163889 L70.2703773,221.163889 L70.2703773,277.359403 L34.2358871,277.359403 L16.2162162,264.136862 L16.2162162,221.163889 Z M365.766539,277.359403 L329.729623,277.359403 L329.729623,221.163889 L383.783784,221.163889 L383.783784,264.136862 L365.765326,277.359403 L365.766539,277.359403 Z M293.695132,264.136862 L106.30608,264.136862 L106.30608,221.163889 L293.695132,221.163889 L293.695132,264.136862 L293.695132,264.136862 Z M77.4784882,221.163889 L91.8922843,221.163889 L91.8922843,249.261646 L77.4784882,249.261646 L77.4784882,221.163889 Z M322.522725,249.261646 L308.107716,249.261646 L308.107716,221.163889 L322.522725,221.163889 L322.522725,249.261646 Z M16.2162162,151.745833 L70.2703773,151.745833 L70.2703773,207.941347 L16.2162162,207.941347 L16.2162162,151.745833 L16.2162162,151.745833 Z M383.783784,207.941347 L329.729623,207.941347 L329.729623,151.745833 L383.783784,151.745833 L383.783784,207.941347 L383.783784,207.941347 Z M150.990789,141.828641 L200.000606,138.523292 L249.009211,141.828641 L279.278911,168.273723 L293.69392,168.273723 L293.69392,181.496265 L261.261666,207.941347 L138.738334,207.941347 L106.30608,181.496265 L106.30608,168.273723 L120.719876,168.273723 L150.989576,141.828641 L150.990789,141.828641 Z M99.0991823,125.301896 L124.324538,125.301896 L124.324538,155.051182 L99.0991823,155.051182 L99.0991823,125.30075 L99.0991823,125.301896 Z M300.900818,155.051182 L275.675462,155.051182 L275.675462,125.30075 L300.900818,125.30075 L300.900818,155.051182 Z M16.2162162,125.30075 L70.2703773,125.30075 L70.2703773,138.523292 L16.2162162,138.523292 L16.2162162,125.30075 Z M383.783784,138.523292 L329.729623,138.523292 L329.729623,125.30075 L383.783784,125.30075 L383.783784,138.523292 L383.783784,138.523292 Z M167.568352,42.6612989 L232.432861,42.6612989 L232.432861,83.1352173 L257.658217,93.633079 L264.865115,85.6342718 L279.278911,85.6342718 L279.278911,112.079354 L261.262878,125.299605 L138.738334,125.299605 L120.719876,112.077064 L120.719876,85.6319812 L135.133673,85.6319812 L142.341783,93.6319337 L167.567139,83.1340719 L167.567139,42.6590083 L167.568352,42.6612989 Z M48.6496832,98.8556679 L66.6669283,112.078209 L30.6312252,112.078209 L30.6312252,69.1063815 L48.6496832,69.1063815 L48.6496832,98.8556679 L48.6496832,98.8556679 Z M369.369988,112.078209 L333.331859,112.078209 L351.350317,98.8556679 L351.350317,69.1052362 L369.367562,69.1052362 L369.367562,112.078209 L369.369988,112.078209 Z M322.522725,98.8556679 L308.107716,98.8556679 L246.846657,42.6612989 L246.846657,16.2162162 L318.919276,16.2162162 L336.936521,29.4387575 L336.936521,82.3289228 L322.522725,98.8556679 Z M46.847263,52.8901653 L46.847263,24.9980618 L75.7703097,-4.26325641e-14 L169.36956,-4.26325641e-14 L169.36956,26.4450826 L230.63044,26.4450826 L230.63044,-4.26325641e-14 L324.231191,-4.26325641e-14 L353.152737,25.8555722 L353.152737,52.88902 L385.583778,52.88902 L385.583778,109.084534 L400,109.084534 L400,272.35093 L375.359255,290.433124 L365.766539,293.575619 L338.738941,293.575619 L338.738941,376.216216 L61.262272,376.216216 L61.262272,293.575619 L28.9245478,293.575619 L4.22772928e-13,272.351257 L4.22772928e-13,109.084534 L14.415009,109.084534 L14.415009,52.8901653 L46.847263,52.8901653 Z M153.153343,42.6612989 L153.153343,16.2162162 L81.0819372,16.2162162 L63.0634792,29.4387575 L63.0634792,82.3289228 L77.4784882,98.8556679 L91.8922843,98.8556679 L153.153343,42.6612989 Z" id="Shape"></path>
        </g>
    </g>
</svg>