<?xml version="1.0" encoding="UTF-8"?>
<svg width="512px" height="512px" viewBox="0 0 512 512" version="1.1" xmlns="http://www.w3.org/2000/svg" xmlns:xlink="http://www.w3.org/1999/xlink">
    <!-- Generator: Sketch 53.2 (72643) - https://sketchapp.com -->
    <title>ic_equipment_lance_base</title>
    <desc>Created with Sketch.</desc>
    <g id="ic_equipment_lance_base" stroke="none" stroke-width="1" fill="none" fill-rule="evenodd">
        <g id="equipment_lance_base" transform="translate(56.000000, 58.000000)">
            <path d="M194.80152,289.965513 L193.171289,288.256152 C190.55819,285.516213 189.100622,281.877137 189.100622,278.093012 L189.100622,177.445062 L170.631304,158.818873 C167.895413,156.059744 166.360611,152.333393 166.360611,148.450043 L166.360611,111.56696 C166.360611,106.363095 169.108728,101.545125 173.59048,98.8916314 L238.981758,60.1756688 C241.258764,58.8275307 243.856982,58.1161642 246.503959,58.1161642 L323.910684,58.1161642 C326.700452,58.1161642 329.433037,58.906293 331.791374,60.3948711 L393.12862,99.1108338 C397.406347,101.810927 400,106.512585 400,111.56696 L400,148.450043 C400,152.202368 398.566769,155.813336 395.992667,158.546358 L378.400367,177.224776 L378.400367,278.093012 C378.400367,281.435728 377.262454,284.679107 375.173459,287.290629 L327.401106,347.01243 C324.601743,350.512007 320.360601,352.549646 315.875945,352.549646 L260.809808,352.549646 C256.773077,352.549646 252.912684,350.897378 250.128407,347.977953 L204.74298,300.389529 C208.335063,309.316664 202.225468,320.63704 190.990912,320.63704 L130.151044,320.63704 L130.151044,381.333963 C130.151044,389.471787 123.546318,396.068796 115.398975,396.068796 L83.7751017,396.068796 C75.627759,396.068796 69.0230327,389.471787 69.0230327,381.333963 L69.0230327,320.63704 L14.781682,320.63704 C1.16712135,320.63704 -5.18066632,303.787028 5.05672473,294.822433 C40.0799884,264.153547 67.6027107,169.505306 84.7861026,13.127286 C86.7212554,-4.48363515 112.413194,-4.32680225 114.1327,13.3064283 C128.720108,162.897718 156.498101,255.540108 194.80152,289.965513 Z" id="background" fill="#000000" fill-rule="nonzero"></path>
            <path d="M319.145659,136.609337 L302.702703,154.022625 L313.346,164.127764 L329.238329,147.297596 L345.130658,164.127764 L355.773956,154.022625 L339.331,136.609337 L355.773956,119.196048 L345.130658,109.090909 L329.238329,125.921077 L313.346,109.090909 L302.702703,119.196048 L319.145659,136.609337 Z M278.132678,338.083538 L260.429951,338.083538 L241.769042,318.566058 L241.769042,75.2654154 L246.066778,72.7272727 L278.132678,72.7272727 L278.132678,338.083538 Z M289.92629,338.083538 L289.92629,72.7272727 L323.709423,72.7272727 L385.257985,111.500579 L385.257985,148.438292 L363.583938,171.405415 L363.583938,278.27328 L315.647003,338.083538 L289.92629,338.083538 Z M229.97543,305.651106 L203.497458,277.852622 L203.497458,171.373396 L180.835381,148.489795 L180.835381,111.686411 L229.97543,82.5552826 L229.97543,305.651106 Z M190.663391,306.633907 L14.7420147,306.633907 C26.0327694,296.630658 36.4242804,281.233443 45.9165477,260.44226 L154.852314,260.44226 C165.528865,281.233443 177.46589,296.630658 190.663391,306.633907 Z M150.36855,250.614251 L50.1228501,250.614251 C71.249908,199.844544 87.6719466,121.220465 99.3889658,14.7420147 C109.787109,121.220465 126.780304,199.844544 150.36855,250.614251 L150.36855,250.614251 Z M114.987715,381.326781 L83.5380835,381.326781 L83.5380835,315.479115 L114.987715,315.479115 L114.987715,381.326781 Z" id="base" fill="#FFFFFF"></path>
            <polygon id="alpha" fill-opacity="0.2" fill="#000000" points="236.855037 66.8304668 236.855037 324.474772 257.256176 344.963145 284.029484 344.963145 284.029484 66.8304668"></polygon>
        </g>
    </g>
</svg>