<?xml version="1.0" encoding="UTF-8"?>
<svg width="512px" height="512px" viewBox="0 0 512 512" version="1.1" xmlns="http://www.w3.org/2000/svg" xmlns:xlink="http://www.w3.org/1999/xlink">
    <!-- Generator: Sketch 53.2 (72643) - https://sketchapp.com -->
    <title>ic_equipment_dual_blades_base</title>
    <desc>Created with Sketch.</desc>
    <g id="ic_equipment_dual_blades_base" stroke="none" stroke-width="1" fill="none" fill-rule="evenodd">
        <g id="Group-2" transform="translate(75.000000, 56.000000)" fill-rule="nonzero">
            <path d="M283.321487,316.924201 C280.355069,323.758893 277.099377,330.573977 273.555191,337.369257 C276.922682,343.421521 278.766258,350.315917 278.766258,357.493188 C278.766258,380.367107 260.223283,398.910082 237.349364,398.910082 C214.475446,398.910082 195.932471,380.367107 195.932471,357.493188 C195.932471,349.990266 197.945505,342.750262 201.684698,336.428475 C203.301567,332.79215 205.799728,329.305034 209.189939,325.501726 C217.936429,315.689476 224.445454,303.002067 228.629737,287.266044 L191.408783,267.081923 C183.205559,262.633492 180.383737,252.232433 185.213912,244.248021 L200.668228,218.701618 C205.353178,210.957268 215.438729,208.493178 223.1669,213.204768 C229.377953,216.991426 234.607511,220.111676 238.830025,222.552787 C265.006229,176.641668 277.864272,137.933549 277.793908,106.772985 C277.721969,74.9151265 264.168333,50.7566772 235.999118,32.6202393 C220.180992,22.435914 231.256294,-2.01709126 249.344369,3.15544394 C308.550494,20.0862544 344.010588,52.7984857 352.84684,100.705551 C360.68498,143.201197 347.056552,195.900666 312.834065,259.315353 L353.8932,281.046834 C361.932847,285.302001 364.953307,295.301088 360.613968,303.295618 L345.117944,331.844539 C340.811817,339.777881 330.89095,342.720096 322.955911,338.417096 L283.321487,316.924201 Z" id="background" fill="#000000"></path>
            <path d="M79.3684772,314.744365 L39.7340523,336.237259 C31.7990141,340.540259 21.8781466,337.598044 17.5720201,329.664702 L2.07599585,301.115782 C-2.26334282,293.121252 0.757116566,283.122164 8.79676408,278.866998 L49.8558991,257.135516 C15.633412,193.72083 2.00498396,141.021361 9.84312345,98.525714 C18.6793757,50.6186492 54.1394694,17.9064179 113.345595,0.975607423 C131.43367,-4.19692777 142.508971,20.2560775 126.690846,30.4404028 C98.5216307,48.5768407 84.9679949,72.73529 84.8960562,104.593148 C84.8256921,135.753712 97.6837343,174.461832 123.859939,220.37295 C128.082452,217.931839 133.312011,214.811589 139.523064,211.024932 C147.251235,206.313341 157.336786,208.777431 162.021736,216.521782 L177.476051,242.068185 C182.306227,250.052597 179.484405,260.453655 171.281181,264.902087 L134.060227,285.086208 C138.24451,300.822231 144.753535,313.509639 153.500025,323.321889 C156.890235,327.125197 159.388397,330.612314 161.005266,334.248639 C164.744458,340.570425 166.757493,347.810429 166.757493,355.313351 C166.757493,378.18727 148.214518,396.730245 125.340599,396.730245 C102.466681,396.730245 83.9237057,378.18727 83.9237057,355.313351 C83.9237057,348.13608 85.7672813,341.241685 89.1347725,335.189421 C85.5905866,328.394141 82.3348944,321.579056 79.3684772,314.744365 Z" id="background" fill="#000000"></path>
            <path d="M31.9406099,321.865598 L19.0923821,298.194814 C17.6566066,295.54963 18.6370261,292.241358 21.2822105,290.805583 C21.3114748,290.789698 21.3408842,290.774083 21.3704347,290.758737 L143.50204,227.33712 C146.050967,226.013489 149.189662,226.895316 150.676288,229.352749 L160.530738,245.642423 C162.088594,248.217601 161.263891,251.568086 158.688714,253.125941 C158.615418,253.170282 158.541086,253.212888 158.465781,253.253724 L31.9406099,321.865598 Z M119.255093,292.840992 C124.109757,309.375807 131.456705,323.162286 141.295935,334.200428 C144.012946,337.248506 145.706745,339.73991 146.377332,341.674639 C148.927441,345.599939 150.408719,350.28366 150.408719,355.313351 C150.408719,369.158092 139.18534,380.381471 125.340599,380.381471 C111.495859,380.381471 100.27248,369.158092 100.27248,355.313351 C100.27248,347.927657 103.466493,341.287964 108.548589,336.700203 C102.985967,326.816823 98.0766365,316.907178 93.8205968,306.971267 L119.255093,292.840992 Z M117.840575,16.6943084 C56.1494843,56.4134354 52.3633588,125.12262 106.482198,222.821862 L61.7468874,244.692459 C-3.03464666,121.912711 15.6632492,45.9133279 117.840575,16.6943084 Z M331.889253,324.045434 L205.364081,255.433561 C205.288776,255.392724 205.214445,255.350118 205.141149,255.305778 C202.565971,253.747922 201.741269,250.397437 203.299124,247.82226 L213.153575,231.532585 C214.6402,229.075153 217.778895,228.193326 220.327823,229.516956 L342.459428,292.938574 C342.488979,292.953919 342.518388,292.969535 342.547652,292.985419 C345.192837,294.421195 346.173256,297.729466 344.737481,300.374651 L331.889253,324.045434 Z M244.57477,295.020828 L270.009266,309.151104 C265.753226,319.087015 260.843895,328.99666 255.281273,338.88004 C260.36337,343.4678 263.557383,350.107493 263.557383,357.493188 C263.557383,371.337928 252.334004,382.561308 238.489263,382.561308 C224.644523,382.561308 213.421143,371.337928 213.421143,357.493188 C213.421143,352.463496 214.902422,347.779776 217.45253,343.854475 C218.123118,341.919746 219.816917,339.428343 222.533928,336.380264 C232.373158,325.342123 239.720106,311.555644 244.57477,295.020828 Z M245.989288,18.8741449 C348.166613,48.0931644 366.864509,124.092548 302.082975,246.872295 L257.347664,225.001699 C311.466504,127.302456 307.680378,58.5932719 245.989288,18.8741449 Z" id="main" fill="#FFFFFF"></path>
            <polygon id="Path-103" fill-opacity="0.499377264" fill="#000000" points="82.2446155 305.251996 122.579255 283.824438 158.604127 350.476428 141.396697 384.421996 99.1585181 381.108819 90.6620196 348.017471 94.2265415 331.708201"></polygon>
            <polygon id="Path-103" fill-opacity="0.499377264" fill="#000000" points="281.057676 309.431832 269.07575 335.888037 272.640272 352.197307 264.143773 385.288655 221.905595 388.601833 204.698164 354.656265 240.723036 288.004275"></polygon>
        </g>
    </g>
</svg>