<?xml version="1.0" encoding="UTF-8"?>
<svg width="512px" height="512px" viewBox="0 0 512 512" version="1.1" xmlns="http://www.w3.org/2000/svg" xmlns:xlink="http://www.w3.org/1999/xlink">
    <!-- Generator: Sketch 53.2 (72643) - https://sketchapp.com -->
    <title>ic_equipment_gunlance_base</title>
    <desc>Created with Sketch.</desc>
    <g id="ic_equipment_gunlance_base" stroke="none" stroke-width="1" fill="none" fill-rule="evenodd">
        <g id="Group" transform="translate(58.000000, 56.000000)" fill-rule="nonzero">
            <path d="M194.924407,187.875707 C182.154128,168.080922 175.354279,143.581052 174.464698,114.726917 L174.005222,99.8235575 L188.915663,99.8235575 C200.871667,99.8235575 207.920692,97.1057483 220.393841,89.0165208 C221.245219,88.4643755 224.420684,86.3868288 225.11184,85.9375701 C234.362297,79.9246827 240.796061,76.3890072 249.092014,73.3378952 C259.783206,69.4058547 271.53731,67.3799646 285.301205,67.3799646 C299.090097,67.3799646 310.738502,69.4136255 321.25588,73.3787762 C329.37542,76.4399192 335.447624,79.8826474 344.664944,86.0336188 C345.204741,86.3938401 347.365375,87.8411813 347.906152,88.2019551 C361.120427,97.0177245 368.24867,99.8235575 381.686747,99.8235575 L396.144578,99.8235575 L396.144578,114.281389 C396.144578,153.816734 383.958379,185.298854 359.518072,207.654738 L359.518072,297.73402 C359.518072,313.985489 353.301645,329.440705 341.261297,340.81127 C328.081589,353.257815 309.031655,359.901145 285.301205,359.901145 C261.570755,359.901145 242.520821,353.257815 229.341112,340.81127 C222.84866,334.679981 218.049589,327.361024 215.00544,319.369979 L156.10099,319.369979 L156.10099,356.089401 C156.10099,366.007087 154.43451,375.243485 151.118577,382.538806 C146.537885,392.616697 138.606996,399.466453 127.877597,399.466453 L40.8815972,399.466453 L46.018313,381.112115 C49.7723359,367.698369 57.8491295,356.089836 69.8601234,346.401687 L69.8601234,319.369979 L0.179933657,319.369979 L52.783557,258.297107 L17.2565,258.297107 L17.2565,187.875707 L69.8601234,187.875707 L69.8601234,152.674304 L16.9737692,152.674304 L16.9737692,61.7285052 C16.9737692,30.0544664 29.9870547,10.0143521 66.67468,3.51839967 L83.6532232,0.512159573 L83.6532232,47.2706738 L170.242496,47.2706738 L170.242496,97.8231948 L156.10099,97.8231948 L156.10099,187.875707 L194.924407,187.875707 Z M203.508644,199.426623 L203.508644,258.297107 L171.168507,258.297107 L212.687883,311.78441 C211.622182,307.22563 211.084337,302.514271 211.084337,297.73402 L211.084337,207.450427 C208.412694,204.893498 205.88754,202.21845 203.508644,199.426623 L203.508644,199.426623 Z" id="background" fill="#000000"></path>
            <path d="M31.7143313,304.912148 L72.058697,258.072289 L152.691498,258.072289 L189.050813,304.912148 L31.7143313,304.912148 Z M84.3179547,319.759036 L141.643159,319.759036 L141.643159,356.089401 C141.643159,372.108823 136.400773,385.008622 127.877597,385.008622 L59.9411764,385.008622 C63.3438724,372.850224 71.4694652,362.406058 84.3179547,353.676121 L84.3179547,319.759036 Z M189.050813,202.333538 L189.050813,243.839276 L31.7143313,243.839276 L31.7143313,202.333538 L59.7590361,202.333538 L59.7590361,232.289157 L92.5301205,232.289157 L92.5301205,202.409639 L130.120482,202.409639 L130.120482,232.289157 L162.891566,232.289157 L162.891566,202.333538 L189.050813,202.333538 Z M83.5399892,97.8313253 L141.643159,97.8313253 L141.643159,187.951807 L83.3540993,187.951807 L83.5399892,97.8313253 Z M83.5698111,83.373494 L83.6144578,61.7285052 L155.784665,61.7285052 L155.784665,83.3653635 L83.5698111,83.373494 Z M188.915663,114.281389 C227.911213,114.281389 232.91658,84.9089218 278.072289,82.0593997 L278.072289,199.518072 L223.810183,199.518072 C201.694974,179.923372 190.063467,151.511144 188.915663,114.281389 Z M278.072289,213.975904 L278.072289,345.201425 C240.345695,342.608715 225.542169,319.616913 225.542169,297.73402 L225.542169,213.975904 L278.072289,213.975904 Z M292.53012,199.518072 L292.53012,82.0605046 C337.447421,84.9165044 340.231661,114.281389 381.686747,114.281389 C381.686747,151.511144 370.084098,179.923372 346.8788,199.518072 L292.53012,199.518072 Z M345.060241,297.73402 C345.060241,319.616913 330.256715,342.608715 292.53012,345.201425 L292.53012,213.975904 L345.060241,213.975904 L345.060241,297.73402 Z M69.1566265,138.216473 L30.4677451,138.216473 L30.4677451,61.7285052 C30.4677451,37.7805573 38.8789687,23.1226533 69.1953919,17.7547931 L69.1566265,138.216473 Z M241.927711,141.686747 L241.927711,184.096386 L263.13253,184.096386 L263.13253,141.686747 L241.927711,141.686747 Z M241.927711,228.433735 L241.927711,270.843373 L263.13253,270.843373 L263.13253,228.433735 L241.927711,228.433735 Z M306.506024,141.686747 L306.506024,184.096386 L327.710843,184.096386 L327.710843,141.686747 L306.506024,141.686747 Z M306.506024,228.433735 L306.506024,270.843373 L327.710843,270.843373 L327.710843,228.433735 L306.506024,228.433735 Z" id="main" fill="#FFFFFF"></path>
            <path d="M77.0616061,56.522737 L163.013985,56.522737 L163.013985,91.1549204 L148.262458,91.1549204 L148.262458,197.517099 L196.39001,197.517099 L196.39001,250.687072 L24.5452805,250.687072 L24.5452805,194.446736 L77.0616061,194.446736 L77.0616061,56.522737 Z M77.7930684,315.231394 L150.73031,315.231394 L142.773156,389.109087 L51.089136,389.109087 L77.7930684,350.912971 L77.7930684,315.231394 Z M284.292214,75.3962431 L288.754357,206.26506 L353.323136,206.26506 L353.323136,305.066514 L332.73325,339.260709 L288.754357,352.640467 L281.266317,209.820784 L222.787128,206.26506 L194.927085,171.649123 L180.824759,110.01064 L236.099443,88.8782718 L284.292214,75.3962431 Z" id="alpha" fill-opacity="0.3" fill="#000000"></path>
        </g>
    </g>
</svg>