<?xml version="1.0" encoding="UTF-8"?>
<svg width="512px" height="512px" viewBox="0 0 512 512" version="1.1" xmlns="http://www.w3.org/2000/svg" xmlns:xlink="http://www.w3.org/1999/xlink">
    <!-- Generator: Sketch 53.2 (72643) - https://sketchapp.com -->
    <title>ic_equipment_charge_blade_base</title>
    <desc>Created with Sketch.</desc>
    <g id="ic_equipment_charge_blade_base" stroke="none" stroke-width="1" fill="none" fill-rule="evenodd">
        <g id="Group" transform="translate(66.000000, 56.000000)" fill-rule="nonzero">
            <polygon id="background" fill="#000000" points="162.888552 208.877285 137.859008 190.298328 137.859008 260.961154 80.9032124 260.961154 17.7545692 193.044539 17.7545692 49.7170457 0.888209922 0.93281059 154.975644 2.87008783 191 38.8944443 226.129765 3.76467902 380.237399 5.70221022 362.402089 50.1134869 362.402089 193.044539 299.253446 260.961154 242.29765 260.961154 242.29765 190.298328 217.268106 208.877285 223.498695 208.877285 223.498695 226.631854 241.253264 226.631854 241.253264 346.736292 223.498695 346.736292 223.498695 400 156.657963 400 156.657963 350.913838 174.412533 350.913838 174.412533 346.736292 138.903394 346.736292 138.903394 262.140992 156.657963 262.140992 156.657963 208.877285"></polygon>
            <path d="M122.193211,173.927922 L122.193211,245.295357 L87.7284595,245.295357 L33.4203655,186.886788 L33.4203655,47.0853709 L22.9765013,18.9663248 L133.681462,19.6662662 L133.681462,51.8430891 L105.483029,51.8430891 L105.483029,173.927922 L122.193211,173.927922 Z M257.963446,173.927922 L274.673629,173.927922 L274.673629,51.8430891 L246.475196,51.8430891 L246.475196,20.3794141 L357.180157,21.0793555 L346.736292,47.0853709 L346.736292,186.886788 L292.428198,245.295357 L257.963446,245.295357 L257.963446,173.927922 Z M121.148825,157.757848 L121.148825,67.5088855 L259.007833,67.5088855 L259.007833,157.757848 L190.078329,209.65241 L121.148825,157.757848 Z M207.832898,384.334204 L207.832898,366.579634 L172.32376,366.579634 L172.32376,384.334204 L207.832898,384.334204 Z M207.832898,277.806789 L207.832898,260.052219 L190.078329,260.052219 L190.078329,313.315927 L207.832898,313.315927 L207.832898,295.561358 L225.587467,295.561358 L225.587467,277.806789 L207.832898,277.806789 Z M172.32376,260.052219 L190.078329,260.052219 L190.078329,242.29765 L207.832898,242.29765 L207.832898,224.543081 L172.32376,224.543081 L172.32376,260.052219 Z M154.569191,277.806789 L154.569191,295.561358 L172.32376,295.561358 L172.32376,277.806789 L154.569191,277.806789 Z M154.569191,313.315927 L154.569191,331.070496 L172.32376,331.070496 L172.32376,313.315927 L154.569191,313.315927 Z M207.832898,313.315927 L207.832898,331.070496 L225.587467,331.070496 L225.587467,313.315927 L207.832898,313.315927 Z M190.078329,331.070496 L190.078329,348.825065 L207.832898,348.825065 L207.832898,331.070496 L190.078329,331.070496 Z M207.832898,242.29765 L207.832898,260.052219 L225.587467,260.052219 L225.587467,242.29765 L207.832898,242.29765 Z" id="main" fill="#FFFFFF"></path>
            <path d="M207.832898,384.334204 L172.32376,384.334204 L172.32376,366.579634 L207.832898,366.579634 L207.832898,384.334204 Z M172.32376,260.052219 L172.32376,224.543081 L207.832898,224.543081 L207.832898,242.29765 L190.078329,242.29765 L190.078329,260.052219 L172.32376,260.052219 Z M154.569191,277.806789 L172.32376,277.806789 L172.32376,295.561358 L154.569191,295.561358 L154.569191,277.806789 Z M154.569191,313.315927 L172.32376,313.315927 L172.32376,331.070496 L154.569191,331.070496 L154.569191,313.315927 Z M190.078329,331.070496 L207.832898,331.070496 L207.832898,348.825065 L190.078329,348.825065 L190.078329,331.070496 Z" id="Path" fill-opacity="0.25" fill="#000000"></path>
            <path d="M135.770235,88.9632117 L244.386423,88.9632117 L244.386423,143.461656 L190.078329,183.193149 L135.770235,143.461656 L135.770235,88.9632117 Z M152.389872,100.248413 L152.389872,138.068968 L190.078329,165.641629 L227.766786,138.068968 L227.766786,100.248413 L152.389872,100.248413 Z" id="Path-112" fill-opacity="0.65" fill="#000000"></path>
            <polygon id="Path" fill-opacity="0.25" fill="#000000" points="152.389872 100.248413 152.389872 138.068968 190.078329 165.641629 227.766786 138.068968 227.766786 100.248413"></polygon>
            <path d="M52.8880359,17.6088894 L139.283757,17.6088894 L139.283757,60.8359791 L112.685819,60.8359791 L112.685819,155.333598 L123.826828,169.191534 L123.826828,230.434311 C76.0681055,209.105341 52.1887441,189.719977 52.1887441,172.27822 C52.1887441,146.115585 84.8784352,151.919198 84.8784352,137.418203 C84.8784352,122.917207 52.1887441,127.361739 52.1887441,101.591122 C52.1887441,75.8205061 91.4376439,75.8205061 91.4376439,63.7421141 C91.4376439,51.6637222 57.0655816,49.842132 54.8797015,28.7905843 C54.5119133,25.2485281 53.8480248,21.5212965 52.8880359,17.6088894 Z M330.797926,17.7545692 C330.797926,49.2052556 295.918122,43.9086699 295.918122,61.5000619 C295.918122,79.0914539 330.797926,67.6623048 330.797926,97.7896505 C330.797926,127.916996 297.554214,112.316616 297.554214,134.849674 C297.554214,157.382732 329.066612,139.17796 329.066612,170.305758 C329.066612,191.057624 304.071008,211.154475 254.079802,230.596313 L254.079802,170.305758 L267.08321,160.236928 L267.08321,63.3587516 L240.004215,63.3587516 L240.004215,17.7545692 C294.584229,17.7545692 324.8488,17.7545692 330.797926,17.7545692 Z" id="Path-113" fill-opacity="0.6" fill="#000000"></path>
        </g>
        <path d="M371.5,-0.5 L373,1" id="Line" stroke="#979797" stroke-linecap="square" fill-rule="nonzero"></path>
    </g>
</svg>