<?xml version="1.0" encoding="UTF-8"?>
<svg width="512px" height="512px" viewBox="0 0 512 512" version="1.1" xmlns="http://www.w3.org/2000/svg" xmlns:xlink="http://www.w3.org/1999/xlink">
    <!-- Generator: Sketch 53.2 (72643) - https://sketchapp.com -->
    <title>ic_equipment_hunting_horn_base</title>
    <desc>Created with Sketch.</desc>
    <g id="ic_equipment_hunting_horn_base" stroke="none" stroke-width="1" fill="none" fill-rule="evenodd">
        <g id="Group" transform="translate(58.000000, 56.000000)" fill-rule="nonzero">
            <path d="M335.470562,289.056545 L334.516203,289.90024 L334.516203,354.229047 L261.749699,354.229047 L238.19437,375.052999 L174.489265,375.052999 L151.416926,399.966161 L108.124003,399.966161 L108.124003,375.052999 L100.433087,375.052999 L100.501485,375.124761 L12.3411665,375.124761 L12.3411665,302.709564 L0.455081355,290.665 L0.455081355,240.160352 L67.9262759,174.136959 L282.433572,174.136959 L281.617371,63.2354926 L260.277073,41.0639797 L260.277073,0.120193021 L301.10848,0.120193021 L313.531867,9.95284279 L324.342682,0.120193021 L367.539603,0.120193021 L367.539603,41.4088165 L344.440389,63.5357294 L344.440389,210.390855 L395.666962,225.598987 L348.866718,289.056545 L335.470562,289.056545 Z M74.533001,34.6564381 L89.0257546,34.6564381 C102.914739,34.6564381 121.673834,42.418361 140.529829,54.1731525 C148.507793,59.1465994 155.845439,64.498845 161.364457,69.3914138 C164.420505,72.1005774 166.946942,74.686865 168.89218,77.1814089 C172.089425,81.2815069 174.049333,85.2635911 174.049333,90.3906793 C174.049333,95.6655533 171.999543,100.194984 168.618737,104.550034 C166.288459,107.551826 163.184233,110.59704 159.251673,113.850843 C152.220011,119.668845 142.115928,126.477089 128.810573,134.420606 L127.530578,135.184784 L127.530578,141.546828 C127.530578,152.253386 120.781226,160.037083 110.376295,164.605592 C102.973854,167.855794 93.0487971,169.850847 80.2700054,170.898476 C66.5333257,173.115652 47.2367251,169.37777 40.9070008,166.712843 C28.4700071,161.476645 21.1861299,151.289867 21.1861299,138.179076 C21.1861299,124.360578 29.8860074,114.25837 44.0367149,109.081937 C52.0121019,106.164482 62.1235137,104.569368 74.533001,104.154617 L74.533001,34.6564381 Z" id="background" fill="#000000"></path>
            <path d="M296.505532,116.908213 L296.213989,77.294686 L329.947636,77.294686 L329.947636,116.908213 L296.505532,116.908213 Z M296.612195,131.400966 L329.947636,131.400966 L329.947636,206.08825 L312.087499,200.785937 L312.087499,277.294686 L257.971014,277.294686 L257.971014,338.225495 L232.706723,360.560246 L184.669192,360.560246 L184.669192,332.176547 L108.124003,332.176547 L108.124003,360.560246 L89.7921229,360.560246 L14.947835,284.71805 L14.947835,246.255726 L73.8375063,188.629713 L282.528953,188.629713 L282.528953,218.771366 L199.434851,299.787796 L107.381324,299.787796 L77.3361966,270.167653 L117.876764,227.71305 L144.754538,257.003446 L109.286452,257.003446 L120.880655,271.4962 L177.723394,271.4962 L118.087444,206.507163 L57.0040334,270.474495 L101.438609,314.28055 L205.330751,314.28055 L297.021706,224.88222 L297.021706,188.629713 L297.033381,188.629713 L297.021706,187.043421 L297.021706,184.746473 L297.004801,184.746473 L296.612195,131.400966 Z M296.071773,57.9710145 L296.067197,57.3493232 L274.769826,35.2224102 L274.769826,14.6129466 L296.067197,14.6129466 L314.183154,28.9510539 L329.947636,14.6129466 L353.046849,14.6129466 L353.046849,35.2224102 L329.947636,57.3493232 L329.947636,57.9710145 L296.071773,57.9710145 Z M26.8339201,318.84058 L66.6666667,360.632007 L26.8339201,360.632007 L26.8339201,318.84058 Z M122.616757,346.669301 L170.176438,346.669301 L170.176438,358.38077 L145.085664,385.473407 L122.616757,385.473407 L122.616757,346.669301 Z M272.463768,339.736293 L272.463768,291.78744 L320.023449,291.78744 L320.023449,339.736293 L272.463768,339.736293 Z M326.580252,220.206489 L371.74685,233.615537 L341.547322,274.563791 L326.580252,274.563791 L326.580252,220.206489 Z M89.0257546,118.6644 L89.0257546,49.1491917 C111.883597,49.1491917 159.556579,81.5957297 159.556579,90.3906793 C159.556579,96.253979 146.831529,106.782693 121.381429,121.976823 C130.439559,110.495034 134.968624,102.232256 134.968624,97.1884861 C134.968624,92.1447166 127.658357,85.9407566 113.037824,78.5766062 L113.037824,141.546828 C113.037824,149.629432 101.720495,154.59855 79.0858354,156.454181 C50.1478675,158.414498 35.6788835,152.322796 35.6788835,138.179076 C35.6788835,124.035356 53.4611739,117.530464 89.0257546,118.6644 Z" id="main" fill="#FFFFFF"></path>
            <polygon id="Path-104" fill-opacity="0.247990263" fill="#000000" points="269.011954 9.32092861 269.011954 38.1250936 296.83706 66.0282712 335.341082 66.0282712 360.68056 38.1250936 360.68056 9.32092861 327.398889 9.32092861 314.846257 16.7503818 296.83706 9.32092861"></polygon>
            <polygon id="Path-105" fill-opacity="0.15" fill="#000000" points="319.713975 214.542475 319.713975 283.02217 265.55476 283.02217 265.55476 348.279501 323.541969 348.279501 323.541969 283.02217 345.285895 281.410988 380.333249 233.8741"></polygon>
            <polygon id="Path-106" fill-opacity="0.15" fill="#000000" points="19.7687059 307.284879 19.7687059 366.950971 110.130711 366.950971 118.513349 392.618687 147.878575 392.618687 177.427464 357.03319 177.427464 340.191675 118.513349 340.191675 118.513349 366.950971 77.6832987 362.065932"></polygon>
        </g>
    </g>
</svg>