<?xml version="1.0" encoding="UTF-8"?>
<svg width="512px" height="512px" viewBox="0 0 512 512" version="1.1" xmlns="http://www.w3.org/2000/svg" xmlns:xlink="http://www.w3.org/1999/xlink">
    <!-- Generator: Sketch 53.2 (72643) - https://sketchapp.com -->
    <title>ic_equipment_insect_glaive_base</title>
    <desc>Created with Sketch.</desc>
    <g id="ic_equipment_insect_glaive_base" stroke="none" stroke-width="1" fill="none" fill-rule="evenodd">
        <g id="insect-glaive" transform="translate(65.000000, 56.000000)">
            <path d="M295.087199,238.835422 C252.325062,286.444348 220.949768,320.952534 200.751979,342.57674 C200.650707,347.137204 198.859964,351.667123 195.379748,355.147338 L191.862314,358.664772 C188.619806,361.90728 184.466093,363.683225 180.225437,363.992606 C179.243511,364.963769 178.365152,365.815452 177.590163,366.547856 C164.973981,378.470803 148.746447,388.152454 130.403562,393.900272 C108.931384,400.628666 85.4151331,401.758955 60.7568045,396.394404 L58.7247452,395.804105 C36.6394733,387.712125 20.9393734,375.738243 11.2403226,360.977322 C3.77765384,349.619936 0.468533759,337.525537 0.468533759,326.761994 C0.468533759,320.205704 2.33953597,312.497963 6.15095117,305.370592 C9.89353379,298.371938 15.2890271,292.253521 22.3199743,287.446593 C23.0579118,284.618351 24.0827587,282.030009 25.4521232,279.663768 C29.081296,273.392612 34.9697238,269.192981 42.1932409,268.232918 C48.6910873,267.369302 54.9511109,269.189333 60.1385676,273.211536 C61.3243158,274.130931 62.437239,275.14764 63.4853244,276.259225 C66.4952061,276.054476 69.4420502,276.079091 72.6205016,276.335789 C73.8457721,275.049147 75.1327508,273.894529 76.4954906,272.87283 C81.9314316,268.797295 88.4300909,267.037356 95.1145197,268.417498 C102.050427,269.849564 107.423039,274.32654 110.606982,280.575954 C111.594992,282.515212 112.366078,284.592002 112.949722,286.819165 C116.774093,289.332321 120.055528,292.50552 122.895705,296.204169 C124.686695,298.536505 126.018352,300.650288 127.642861,303.513492 C128.281552,304.447994 128.453444,304.509636 128.656105,304.572472 C130.093155,305.018041 132.249408,305.265659 135.102104,305.194252 C135.1244,305.193694 135.146724,305.193117 135.169076,305.192521 C135.631449,304.599554 136.135305,304.028441 136.680644,303.483102 L140.198078,299.965668 C146.385097,293.778649 155.889664,292.931142 162.985567,297.423148 C199.895896,254.64377 230.191061,221.569716 254.006367,198.097628 C250.572661,191.224138 251.721736,182.644908 257.45359,176.913054 L260.971025,173.395619 C267.119933,167.246711 276.545645,166.371737 283.627115,170.770698 C303.384833,150.605413 315.085433,102.862685 316.468866,28.0875658 L316.983433,0.275012736 L340.330069,15.3990821 C383.17329,43.153138 392.953789,89.2056315 370.83005,148.67647 C363.438656,171.806677 347.327306,192.593818 322.939494,211.132348 C325.927083,217.869606 324.659185,226.037011 319.135801,231.560395 L315.618366,235.07783 C310.066773,240.629423 301.844083,241.881952 295.087205,238.835415 L295.087199,238.835422 Z M33.0596382,85.9751287 C26.88433,76.3252104 29.3704763,63.434098 38.8430524,56.8013288 L54.0459913,46.1561164 C60.8456773,41.394925 69.4444145,41.1195245 76.3285024,44.7103546 L76.3285024,33.8164251 C76.3285024,19.4089969 88.0080307,7.7294686 102.415459,7.7294686 C116.822887,7.7294686 128.502415,19.4089969 128.502415,33.8164251 L128.502415,44.5299351 C135.325554,41.130228 143.747409,41.4761599 150.43108,46.1561164 L165.634019,56.8013288 C175.35611,63.6088103 177.718868,77.0086763 170.911386,86.7307673 C170.839848,86.8329348 170.765144,86.9532674 170.68716,87.0885813 C183.589632,104.278411 191.304348,126.324456 191.304348,150.241546 C191.304348,204.588996 151.469644,249.275362 101.449275,249.275362 C51.4289064,249.275362 11.5942029,204.588996 11.5942029,150.241546 C11.5942029,125.804852 19.6477676,103.321383 33.0596382,85.9751287 L33.0596382,85.9751287 Z" id="outline" fill="#000000" fill-rule="nonzero"></path>
            <path d="M193.682344,327.488525 L174.238804,308.044985 C210.836204,265.612304 240.84576,232.826757 264.267472,209.688344 L283.348765,228.769637 C243.631162,272.986529 213.742355,305.892825 193.682344,327.488525 L193.682344,327.488525 Z M164.660865,357.424731 C144.475685,375.271289 109.411087,391.158857 64.0431071,381.288811 C21.8418989,365.82641 15.927471,338.125232 15.927471,326.761994 C15.927471,320.441896 19.3933873,305.355271 36.3749161,297.130476 C37.0327875,288.69012 39.6511315,284.165662 44.2299482,283.5571 C48.8087649,282.948538 52.8113905,286.052058 56.2378248,292.867658 C64.4027754,291.242098 69.481276,291.066798 79.5702217,292.867658 C83.6955021,285.803009 87.8349708,282.699489 91.9886278,283.5571 C96.1422848,284.414711 98.4473997,288.939169 98.9039725,297.130476 C110.594501,300.773187 114.139605,312.250646 116.436907,314.741111 C119.715205,318.295056 124.827808,320.249955 131.774716,320.605807 C132.521565,323.844952 134.156874,326.920741 136.680644,329.44451 L164.660865,357.424731 L164.660865,357.424731 Z M60.3864734,351.690821 C67.0565791,351.690821 72.4637681,346.283632 72.4637681,339.613527 C72.4637681,332.943421 67.0565791,327.536232 60.3864734,327.536232 C53.7163678,327.536232 48.3091787,332.943421 48.3091787,339.613527 C48.3091787,346.283632 53.7163678,351.690821 60.3864734,351.690821 Z M126.086957,361.352657 C131.156237,361.352657 135.2657,357.243193 135.2657,352.173913 C135.2657,347.104633 131.156237,342.995169 126.086957,342.995169 C121.017676,342.995169 116.908213,347.104633 116.908213,352.173913 C116.908213,357.243193 121.017676,361.352657 126.086957,361.352657 Z M92.2705314,367.149758 C97.3398117,367.149758 101.449275,363.040295 101.449275,357.971014 C101.449275,352.901734 97.3398117,348.792271 92.2705314,348.792271 C87.2012511,348.792271 83.0917874,352.901734 83.0917874,357.971014 C83.0917874,363.040295 87.2012511,367.149758 92.2705314,367.149758 Z M294.892098,181.355285 C318.138419,157.328979 330.482772,106.33506 331.925158,28.3735266 C368.087445,51.7996399 376.182833,90.2200394 356.211322,143.634725 C349.85631,163.818701 335.415524,182.391176 312.888965,199.352151 L294.892098,181.355285 L294.892098,181.355285 Z M265.65193,185.111393 L269.169364,181.593959 C271.810591,178.952732 276.092867,178.952732 278.734094,181.593959 L310.937461,213.797326 C313.578688,216.438553 313.578688,220.720829 310.937461,223.362056 L307.420027,226.87949 C304.7788,229.520717 300.496524,229.520717 297.855297,226.87949 L265.65193,194.676123 C263.010703,192.034896 263.010703,187.75262 265.65193,185.111393 Z M144.878983,311.681442 L148.396417,308.164007 C151.037644,305.52278 155.31992,305.52278 157.961147,308.164007 L187.181409,337.384269 C189.822636,340.025496 189.822636,344.307771 187.181409,346.948998 L183.663974,350.466433 C181.022747,353.10766 176.740472,353.10766 174.099245,350.466433 L144.878983,321.246171 C142.237756,318.604944 142.237756,314.322669 144.878983,311.681442 Z M34.5777581,111.219574 L97.5845411,160.880073 L97.5845411,234.673365 C57.7590668,232.416617 26.0869565,195.478274 26.0869565,150.241546 C26.0869565,136.16585 29.153396,122.893589 34.5777581,111.219574 Z M48.8226435,110.144915 L154.093499,110.144915 L102.363472,152.344567 L48.8226435,110.144915 Z M168.249271,111.066035 C173.71819,122.777152 176.811594,136.104099 176.811594,150.241546 C176.811594,194.744155 146.159117,231.215532 107.246377,234.536206 L107.246377,160.830173 L168.249273,111.066033 L168.249271,111.066035 Z M82.179771,68.4892607 C85.0423755,67.6424206 87.9716422,66.9797699 90.9568889,66.5132921 C90.8675852,65.9333517 90.821256,65.339236 90.821256,64.7342995 L90.821256,33.8164251 C90.821256,27.4131237 96.0121575,22.2222222 102.415459,22.2222222 C108.81876,22.2222222 114.009662,27.4131237 114.009662,33.8164251 L114.009662,64.7342995 C114.009662,65.4512507 113.944587,66.1530027 113.820021,66.8339713 C116.76435,67.3794134 119.65111,68.1163049 122.469802,69.0328661 C123.554203,72.256562 125.64146,75.174588 128.641323,77.2751147 L143.844262,87.9203271 C147.242002,90.2994504 151.224812,91.219749 155.049002,90.8123555 C157.701493,93.8226708 160.153925,97.0552999 162.382093,100.483092 L40.5164578,100.483092 C42.7962033,96.9759538 45.3107146,93.6731184 48.0340688,90.603666 C52.2697549,91.4229532 56.8197108,90.5902876 60.6328095,87.9203271 L75.8357485,77.2751147 C79.0033699,75.0571223 81.1534616,71.9276414 82.179771,68.4892607 L82.179771,68.4892607 Z M132.503962,59.837599 C134.669979,56.7442064 138.933572,55.9924198 142.026965,58.1584366 L157.229904,68.8036491 C160.323296,70.9696659 161.075083,75.2332596 158.909066,78.3266522 C156.743049,81.4200448 152.479456,82.1718314 149.386063,80.0058146 L134.183124,69.3606021 C131.089732,67.1945853 130.337945,62.9309916 132.503962,59.837599 Z M71.9731095,59.837599 C74.1391263,62.9309916 73.3873397,67.1945853 70.2939471,69.3606021 L55.0910082,80.0058146 C51.9976156,82.1718314 47.7340219,81.4200448 45.5680051,78.3266522 C43.4019882,75.2332596 44.1537749,70.9696659 47.2471675,68.8036491 L62.4501064,58.1584366 C65.543499,55.9924198 69.8070927,56.7442064 71.9731095,59.837599 Z" fill="#FFFFFF"></path>
            <path d="M55.9245064,385.531018 C44.4859842,378.095889 27.5866638,367.492175 20.5413454,356.040186 C14.6964121,346.539392 11.5242079,342.765319 12.714324,338.375829 C20.5413454,309.507524 49.7380322,298.395817 67.9142233,298.395817 C84.5844449,298.395817 101.608708,304.466971 118.987012,316.609278 L154.6824,299.508062 L176.468729,318.130484 L271.201347,213.365257 L260.942083,182.798361 L269.83421,176.082516 L283.996075,176.082516 L302.880936,195.387675 C329.667141,165.05863 345.244836,137.509599 349.614023,112.740582 C353.98321,87.9715651 346.7135,56.7912411 327.804893,19.1996098 L360.938885,42.0470154 L376.685768,112.740582 L342.652412,182.798361 L316.98225,209.10431 L316.98225,224.017723 L302.880936,234.359518 L283.996075,238.300691 L197.71947,331.218342 L191.347343,350.822694 L158.432404,372.245365 L90.1794601,393.530905 L55.9245064,385.531018 Z M138.223885,78.272082 L147.724305,83.7128539 L164.155065,88.7878532 L179.137143,124.54834 L179.137143,179.73147 L145.530437,228.504741 L93.9040496,242.564383 L56.4316929,228.504741 L29.4407843,186.724822 C29.0784463,154.501348 40.6272318,127.291775 64.0871409,105.096104 C87.54705,82.900433 112.259298,73.9590922 138.223885,78.272082 Z" id="alpha" fill-opacity="0.2" fill="#000000"></path>
        </g>
    </g>
</svg>