<?xml version="1.0" encoding="UTF-8"?>
<svg width="512px" height="512px" viewBox="0 0 512 512" version="1.1" xmlns="http://www.w3.org/2000/svg" xmlns:xlink="http://www.w3.org/1999/xlink">
    <!-- Generator: Sketch 53.2 (72643) - https://sketchapp.com -->
    <title>ic_equipment_arm_empty</title>
    <desc>Created with Sketch.</desc>
    <g id="ic_equipment_arm_empty" stroke="none" stroke-width="1" fill="none" fill-rule="evenodd">
        <g id="arm" transform="translate(117.000000, 56.000000)" fill="#E2E2E2">
            <path d="M264.75,356.488512 L264.75,384.375 L44.5630895,384.375 L44.5630895,365.541446 L71.0320907,356.487543 L264.75,356.487543 L264.75,356.488512 Z M241.39727,340.994942 L71.2522223,340.994942 L71.2522223,263.532905 L241.39727,263.532905 L241.39727,340.994942 Z M125.881378,291.109328 L125.881378,317.446459 C125.881378,317.446459 133.665969,317.446459 149.235152,317.446459 L149.235152,291.110297 L125.881378,291.109328 Z M87.9331911,291.109328 L87.9331911,317.446459 C87.9331911,317.446459 95.7177823,317.446459 111.286965,317.446459 L111.286965,291.110297 L87.9331911,291.109328 Z M201.696376,291.109328 L201.696376,317.446459 C201.696376,317.446459 209.480967,317.446459 225.05015,317.446459 L225.05015,291.110297 L201.696376,291.109328 Z M163.636571,291.109328 L163.636571,317.446459 C163.636571,317.446459 171.421162,317.446459 186.990345,317.446459 L186.990345,291.110297 L163.636571,291.109328 Z M241.396226,241.842875 L71.2532656,241.842875 L71.2532656,223.252529 L87.9342344,213.956387 L241.398313,213.956387 L241.398313,241.842875 L241.396226,241.842875 Z M71.2522223,189.168613 L71.2522223,108.607862 L241.39727,108.607862 L241.39727,189.168613 L71.2522223,189.168613 Z M47.9005352,46.6374573 L47.9005352,167.479553 L17.875,148.888237 L17.875,46.6374573 L47.9005352,46.6374573 Z M202.25,137.5 L225.603774,137.5 L225.603774,163.837131 C225.603774,163.837131 217.819182,163.837131 202.25,163.837131 L202.25,137.5 Z M86.625,137.5 L109.978774,137.5 L109.978774,163.837131 C109.978774,163.837131 102.194182,163.837131 86.625,163.837131 L86.625,137.5 Z M127.25,137.5 L150.603774,137.5 L150.603774,163.837131 C150.603774,163.837131 142.819182,163.837131 127.25,163.837131 L127.25,137.5 Z M164.75,137.5 L188.103774,137.5 L188.103774,163.837131 C188.103774,163.837131 180.319182,163.837131 164.75,163.837131 L164.75,137.5 Z M195.314646,18.75 L195.314646,83.8191187 L163.41434,83.8191187 L163.41434,18.75 L195.314646,18.75 Z M103.152528,18.75 L103.152528,83.8191187 L71.2522223,83.8191187 L71.2522223,18.75 L103.152528,18.75 Z M149.235152,18.75 L149.235152,83.8191187 L117.331716,83.8191187 L117.331716,18.75 L149.235152,18.75 Z M277.25,337.738546 L277.25,400 L26.4410886,400 L26.4410886,351.994845 L55.6997211,340.78449 L55.6997211,208.610705 L62.8117972,204.196824 L62.8117972,193.948279 L0,156.52473 L0,27.8866511 L48.8832108,27.8866511 L48.8832108,0 L208.459966,0 L208.459966,12.3939595 L235.105704,12.3939595 L254.114306,39.3726957 L254.114306,337.738546 L277.25,337.738546 Z M241.39727,46.09775 L230.761052,31.1448561 L209.496964,31.1448561 L209.496964,83.8191187 L241.39727,83.8191187 L241.39727,46.09775 Z" id="Shape"></path>
        </g>
    </g>
</svg>