<?xml version="1.0" encoding="UTF-8"?>
<svg width="512px" height="512px" viewBox="0 0 512 512" version="1.1" xmlns="http://www.w3.org/2000/svg" xmlns:xlink="http://www.w3.org/1999/xlink">
    <!-- Generator: Sketch 53.2 (72643) - https://sketchapp.com -->
    <title>ic_location_ancient_forest</title>
    <desc>Created with Sketch.</desc>
    <g id="ic_location_ancient_forest" stroke="none" stroke-width="1" fill="none" fill-rule="evenodd">
        <g id="outlines" transform="translate(56.000000, 56.000000)" fill="#5B9547" fill-rule="nonzero">
            <path d="M262.129014,34.7216517 C269.918614,38.6363421 273.000448,46.1777146 273.222117,60.2977733 C273.382404,70.5078684 268.221072,78.2228992 258.132232,83.0572667 C257.73355,83.2483069 257.297091,83.3474792 256.855001,83.3474792 L176.918008,83.3474792 C155.240161,86.9656418 144.871378,98.1115934 144.96971,117.402887 C145.029988,129.228768 149.627766,136.82855 158.001366,141.325114 C164.597003,144.866924 173.065094,146.305297 183.110086,146.312167 C187.823366,146.317241 189.582948,146.304949 191.748529,146.238085 C208.896251,145.70864 216.60661,141.475703 216.774954,129.026252 C216.727676,115.436283 215.425013,113.37385 205.776417,113.253468 L181.586686,113.152029 C176.480242,113.124748 174.643317,116.156847 174.657491,121.549386 C174.667416,125.325521 175.219758,126.506874 177.265261,126.477593 C178.430526,126.460913 178.611171,126.294327 179.365149,124.699906 C179.902426,123.561074 180.154329,123.079934 180.553337,122.499036 C183.564056,118.11586 187.686867,116.483224 194.853363,116.531245 C200.930833,116.571968 203.595678,116.768067 206.494549,117.731902 C210.965844,119.218548 213.550927,122.454686 213.507336,127.396822 C213.453996,133.444189 208.456659,137.033685 200.335509,138.857382 C194.72527,140.117225 187.723223,140.52467 180.205813,140.322658 C173.373063,140.139044 166.112438,138.357436 160.533858,135.167762 C153.499189,131.145538 149.385089,125.112019 149.447296,117.394131 C149.520143,108.356134 152.891344,100.982735 158.642458,95.7935014 C163.41171,91.4902022 169.59775,89.010563 174.869465,88.9832717 L272.833367,88.9833505 C288.068086,89.0946015 294.825166,103.745832 294.552336,127.624983 C330.950375,127.996657 346.223922,142.355691 345.866667,174.315908 C345.634192,195.113139 334.58753,208.285477 313.457356,215.395653 C305.008418,218.238669 295.212372,220.143872 283.124585,221.324009 L288.112927,221.324009 C289.745296,221.324009 291.068592,222.647305 291.068592,224.279674 L291.068592,249.412405 C291.068592,251.044773 289.745296,252.36807 288.112927,252.36807 L281.026309,252.36807 C279.393941,252.36807 278.070644,251.044773 278.070644,249.412405 L274.815218,252.667114 L322.816363,252.667114 C339.333565,253.463488 354.062227,270.673174 354.202433,292.226384 C354.269212,302.491985 348.47966,313.397802 339.055037,322.619533 C330.44671,331.04254 319.810876,336.966342 311.430507,337.813964 L97.0531657,348.45666 C76.7832474,347.947404 61.4230694,342.627736 51.226379,333.40557 C42.2021451,325.243806 37.7005532,314.341202 38.0374868,303.066862 C38.4023278,290.858694 47.0287022,280.559025 60.9078447,272.789531 C71.5794554,266.815602 84.9635951,262.834247 92.9130758,262.788348 C109.620568,262.691882 120.507732,259.053692 126.778926,252.38567 C132.003494,246.830502 134.182915,239.084207 134.10161,228.499989 C134.02561,218.606397 132.861401,212.476847 128.726621,206.769548 C122.88554,198.707017 111.696602,194.091829 93.2589066,194.027947 C79.2695536,193.979477 69.3476818,196.67571 63.2160163,201.479864 C58.2960831,205.334626 55.9730303,210.473101 55.9985715,216.220673 C56.0265028,222.506082 57.2722615,226.839557 60.2770544,229.932429 C64.0062044,233.770891 70.7195113,235.899281 81.343197,235.931874 C95.219749,235.974446 102.809716,233.514148 102.986632,228.296738 C103.098495,224.997803 102.5351,222.43743 101.529383,220.764952 C100.850339,219.635722 100.112241,219.129663 99.6031138,219.10987 C98.6502854,219.072828 97.8487709,219.495424 96.9909776,220.631365 C93.2341959,226.411216 87.2326955,229.568734 79.288944,230.076924 C69.9626692,230.67356 60.0945484,224.488712 60.2864129,216.16569 C60.4388745,209.551958 64.8616876,205.074184 72.0111141,202.524232 C76.9452617,200.764393 82.9763234,199.985033 88.8354662,199.962175 C94.569374,199.939806 102.215898,200.561635 111.803957,201.822953 C122.485008,203.683642 127.430161,212.988413 126.981309,228.562434 C126.502492,245.176164 118.816235,255.155583 104.324278,257.613891 C104.215402,257.63236 84.2403141,257.646175 44.3990154,257.655336 C33.9301574,257.538506 24.8513099,254.495419 17.2668772,248.530181 C9.65325924,242.541989 4.8215352,234.617573 2.8286931,224.871804 C2.80212971,224.741899 2.7821563,203.796083 2.76877286,162.034357 C4.17234409,155.026825 7.65678808,149.379363 13.200048,144.541369 C18.2836183,140.104579 24.987215,137.962456 33.190333,138.04968 L33.190333,87.195217 C32.3216358,77.9170924 36.6216154,68.9793735 45.8001823,60.4882733 C54.6873671,52.2667311 70.6170758,48.2652778 93.6273113,48.2068169 C92.4640834,16.719104 116.236644,0.617122093 163.288074,0.096680053 C190.935408,-0.209130728 209.210134,4.57067272 219.807943,13.2899712 C226.353182,18.6750363 229.281455,24.7094634 230.033745,31.0356037 C249.499391,31.0483915 256.060265,31.6717806 262.129014,34.7216517 Z M240.616085,222.905723 C240.734283,226.875265 240.682023,232.648757 240.462841,240.26499 C240.031615,255.249458 228.333493,262.44787 212.657553,262.00297 L177.82513,262.00297 L177.82513,271.925599 L227.707222,271.925874 C242.186346,272.129178 249.647823,281.465283 250.304694,296.511125 L250.307507,323.093671 C266.329846,323.127624 279.758728,323.125429 290.59353,323.087089 C298.788553,323.058091 310.30921,319.345961 319.603998,313.586472 C329.812571,307.26076 335.889308,299.507759 335.961568,291.996984 C336.06867,280.864638 331.083866,274.134172 320.521423,271.152051 C285.907904,270.817462 265.132096,270.818698 258.333292,271.152382 C249.477268,271.587033 245.279968,266.725707 247.421454,258.317792 C247.537409,257.862527 247.760218,257.441462 248.071408,257.089507 L278.812042,222.321876 C279.0672,222.033291 279.37309,221.800798 279.710466,221.633069 C268.723866,222.552559 255.905186,222.928856 240.616085,222.905723 Z M99.6271263,331.23581 L99.1167543,306.448587 C92.1443095,306.410877 79.7270995,307.599161 79.621189,319.616799 C79.5152784,331.634438 93.0590673,331.166808 99.6271263,331.23581 Z M98.1832973,287.015834 C98.250396,281.465468 93.1407574,278.744833 85.8636859,278.679182 C72.2797897,278.556634 51.6626565,290.287258 51.547768,306.319503 C51.4711758,317.007667 56.732364,323.685496 67.3313327,326.352991 C67.5920039,303.242556 77.2625011,294.811834 92.6310004,294.925275 C94.4192733,294.938474 98.1161986,292.5662 98.1832973,287.015834 Z M174.953357,312.523202 L174.953357,328.287856 L205.951356,327.375655 L206.021758,318.192554 C206.125237,312.639188 201.871617,312.518319 197.188952,312.530202 L174.953357,312.523202 Z M213.149812,327.522101 L236.965835,326.599177 L236.965835,297.113268 C236.704447,290.029122 232.873084,287.593055 225.057823,287.747502 L174.869053,287.747502 L174.869053,303.202921 L201.213277,303.202921 C208.215177,303.263766 213.248334,306.794596 213.149812,313.156916 L213.149812,327.522101 Z" id="Path-68"></path>
            <path d="M0.444906068,324.167267 C4.77584896,312.515486 8.31713816,303.750541 11.0817231,297.848811 C14.513552,290.522675 16.5230394,287.476395 19.4382055,287.359877 C23.9660008,287.178904 28.6725278,295.779179 37.4547514,316.897466 C38.7459512,320.002366 34.6766236,322.509116 32.484422,319.959243 C28.9577504,315.857172 26.0022086,312.818186 23.6494657,310.859455 C22.5489352,309.943229 21.6056012,309.285325 20.8445189,308.887248 C20.2961111,308.600408 19.9473658,308.499503 19.8510491,308.50337 C18.9534779,308.539409 17.2013402,309.787953 14.9369779,312.481396 C12.3293218,315.583184 9.27394607,320.304759 5.80611377,326.619733 C4.04312929,329.830155 -0.831187791,327.600414 0.444906068,324.167267 Z M23.2134219,382.482415 C27.9726805,367.592442 31.9879574,356.411538 35.2753474,348.909752 C39.131973,340.108978 41.881763,336.04373 45.4948154,336.087782 C51.1588536,336.15684 60.1427458,349.619246 75.9956946,379.505219 C77.6506375,382.625117 73.4293238,385.495309 71.1365311,382.809103 C64.2406445,374.729973 58.5684797,368.695998 54.1467186,364.7251 C52.0030638,362.800022 50.1761505,361.38132 48.6929503,360.475941 C47.465373,359.726601 46.5925376,359.40412 46.2070262,359.408578 C45.3844774,359.418088 43.231535,361.208644 40.4016631,364.991695 C37.1577757,369.328214 33.2310104,375.922141 28.6521124,384.743913 C26.9842149,387.957309 22.1111534,385.931009 23.2134219,382.482415 Z M87.8797051,392.927472 C98.2816085,366.247981 104.878399,354.190342 110.793126,354.277304 C117.015033,354.368781 125.365625,366.850735 138.549368,393.51562 C140.17587,396.805314 135.540006,399.523904 133.463083,396.498348 C122.976189,381.221573 115.210292,373.403415 111.384211,373.231342 C108.486528,373.101023 101.894615,380.589048 93.1853462,395.492394 C91.3473424,398.637596 86.5564252,396.321508 87.8797051,392.927472 Z M156.127542,393.806421 C165.638092,365.44266 171.611132,352.835673 177.382876,352.74551 C182.719145,352.66215 191.222146,365.327357 206.79689,394.166027 C208.440567,397.209509 204.415563,400.11502 202.044371,397.596705 C189.482633,384.255562 180.865353,377.494186 177.565973,377.574197 C176.986948,377.588239 175.111492,378.928353 172.540885,381.715278 C169.562616,384.94417 165.831021,389.848998 161.374529,396.407262 C159.443344,399.249233 155.035192,397.064189 156.127542,393.806421 Z M238.088587,378.30938 C234.867962,382.241662 230.850648,388.176036 226.063364,396.088069 C224.231782,399.115159 219.594515,396.951708 220.737338,393.603286 C225.369334,380.031738 229.217729,369.828638 232.296926,362.96723 C235.981371,354.757139 238.401449,351.102816 241.639525,351.0352 C247.721085,350.826967 257.651662,363.426894 274.488502,390.796805 C276.33725,393.802124 272.315253,396.935359 269.853553,394.407546 C256.227926,380.415975 246.995058,373.214229 243.601595,373.157193 C242.898676,373.256646 240.839865,374.950155 238.088587,378.30938 Z M327.727536,377.178062 C329.431195,380.141005 325.583338,383.150535 323.118072,380.78327 C313.145132,371.206777 306.046929,366.642761 302.684968,366.960614 C299.363961,367.274594 293.837025,373.216281 286.993812,384.825828 C285.222759,387.830428 280.620702,385.826008 281.614412,382.482838 C289.005366,357.617227 294.111337,346.222991 299.745648,345.799239 C306.587354,345.168388 315.247064,355.472465 327.727536,377.178062 Z M336.999152,361.431894 C343.752576,339.580147 348.330375,329.699716 353.528414,329.368758 C358.178537,329.072687 364.874667,336.881951 376.50127,354.384507 C378.382164,357.215984 374.780346,360.463124 372.158301,358.299814 C367.207088,354.214831 363.176815,351.192778 360.093277,349.245147 C357.408659,347.549482 355.560913,346.775765 355.035137,346.81703 C354.301618,346.874599 352.73707,348.053873 350.708096,350.550563 C348.347749,353.455012 345.576066,357.848413 342.426034,363.704748 C340.731834,366.854494 335.943102,364.848906 336.999152,361.431894 Z M376.408797,299.23331 C375.724333,299.689169 374.867795,300.469087 373.874726,301.567407 C371.724747,303.945254 369.070731,307.657757 365.94834,312.677816 C364.166066,315.543285 359.746602,313.66489 360.572844,310.39308 C365.963417,289.047106 370.805771,278.67514 377.207233,278.413673 C382.591521,278.193752 388.520859,288.211171 398.086119,310.685118 C399.413975,313.804969 395.299325,316.340184 393.109762,313.751267 C384.953198,304.107029 379.18053,299.053722 376.980005,298.880517 C376.885004,298.94738 376.672347,299.057782 376.408797,299.23331 Z M12.650515,324.330359 C14.6199473,317.404256 15.8384334,314.698967 18.6637211,314.339151 C21.6157715,313.96319 23.2887577,316.297398 26.1342718,322.173563 C26.9717229,323.902952 25.9623279,325.959096 24.0819095,326.354238 L16.1012954,328.031247 C13.9250696,328.488549 12.0423025,326.469321 12.650515,324.330359 Z M37.5103503,382.35156 C41.0806651,371.964105 43.376155,367.580643 46.9767976,367.515403 C50.2227001,367.45659 53.4003127,371.407233 59.006351,380.686393 C60.1505982,382.58036 58.8843792,385.013836 56.6766739,385.163671 L40.505651,386.261179 C38.3962847,386.404339 36.8231248,384.350971 37.5103503,382.35156 Z M101.018873,394.110453 C105.305323,383.892788 107.851764,379.642793 111.327066,379.642793 C114.710614,379.642793 117.576963,384.01704 122.799342,394.75703 C123.781419,396.776703 122.24115,399.110578 119.998004,399.001727 L103.601157,398.206047 C101.552497,398.106633 100.225414,396.001832 101.018873,394.110453 Z M166.809889,394.776503 C171.937533,388.053776 175.084415,384.927443 177.901273,384.763476 C180.750991,384.597596 184.462482,387.618724 191.084453,394.523105 C192.886625,396.402135 191.554882,399.52466 188.951312,399.52466 L169.15998,399.52466 C166.713337,399.52466 165.326098,396.721864 166.809889,394.776503 Z M232.759283,394.120762 C237.233979,384.476084 240.424703,379.894738 244.140708,379.711755 C247.648921,379.539003 252.000185,383.722903 259.192132,392.937652 C260.683005,394.847847 259.368206,397.641846 256.946055,397.710651 L235.524363,398.31917 C233.329159,398.381528 231.835027,396.112887 232.759283,394.120762 Z M293.211192,381.90092 C296.480205,375.097366 298.906989,371.762907 301.971771,371.443219 C304.853502,371.142625 308.162696,373.624703 313.334876,379.030769 C315.002801,380.774117 313.992053,383.673505 311.601817,384.002148 L296.277886,386.109098 C293.943786,386.430023 292.190813,384.024559 293.211192,381.90092 Z M347.458647,359.024706 C350.28322,353.695452 351.944185,351.366408 354.203194,350.93935 C356.558086,350.494166 358.990559,352.254258 363.988776,356.906342 C365.837839,358.627355 364.81563,361.7247 362.30541,362.00703 L350.400525,363.345998 C348.039492,363.611548 346.345997,361.123994 347.458647,359.024706 Z M370.424606,311.333076 C372.74017,305.33627 374.379844,302.606177 377.164258,302.314235 C379.848989,302.032744 382.334402,304.469627 387.09131,310.58257 C388.602008,312.523917 387.218578,315.353407 384.758693,315.353407 L373.181858,315.353407 C371.105971,315.353407 369.676846,313.26961 370.424606,311.333076 Z" id="Path-69"></path>
        </g>
    </g>
</svg>