<?xml version="1.0" encoding="UTF-8"?>
<svg width="512px" height="512px" viewBox="0 0 512 512" version="1.1" xmlns="http://www.w3.org/2000/svg" xmlns:xlink="http://www.w3.org/1999/xlink">
    <!-- Generator: Sketch 53.2 (72643) - https://sketchapp.com -->
    <title>ic_locations_wildspire_waste</title>
    <desc>Created with Sketch.</desc>
    <g id="ic_locations_wildspire_waste" stroke="none" stroke-width="1" fill="none" fill-rule="evenodd">
        <g id="outlines" transform="translate(56.000000, 84.000000)" fill="#877743" fill-rule="nonzero">
            <path d="M19.3877488,261.027521 L23.4184362,201.684018 L187.045997,0.313398005 L197.476956,94.9231914 L288.706093,28.8339742 L279.984912,113.289003 L369.510266,42.6955933 L343.765964,144.89652 L399.934489,119.761513 L359.968305,230.618271 L376.723976,231.514161 L376.723976,286.53454 L395.581098,310.173762 C397.615617,313.306198 397.529287,316.056315 395.23531,318.07734 C392.845921,320.182424 389.283,320.356608 386.807812,317.975201 L365.176985,290.890553 L365.108968,244.524703 L322.115295,243.551295 C322.028438,243.995456 322.236456,244.828218 322.724247,245.972005 C323.968268,248.889023 326.800542,253.36738 331.201543,259.344812 L332.313074,303.831584 L351.823638,332.806809 C353.589418,336.249992 353.175229,339.777883 350.809537,341.53499 C348.284307,343.410594 344.324123,343.507358 342.349714,341.162308 L320.46789,309.097791 L319.68063,265.597645 L70.242699,258.963195 L67.354316,287.810903 L34.9014453,321.937332 C32.5181136,323.990575 28.6872265,323.213182 26.8365727,321.033468 C24.5589488,318.350864 24.9075355,315.21263 27.4674107,312.600364 L55.891913,283.90586 L60.6880136,237.789366 C61.1153571,234.595112 62.9267635,232.396714 65.7571312,231.125169 C67.7736997,230.219224 70.0548669,229.837115 73.03235,229.695461 C133.403229,230.835148 165.46766,231.373661 169.115701,231.306813 C172.47448,231.245265 173.90485,228.745406 173.980013,225.271281 C174.048834,222.090296 172.801926,220.306751 169.10525,220.199187 L50.9727649,217.268474 C46.0909425,215.636915 43.6081334,213.263986 43.835601,209.997177 C44.0678105,206.662266 47.0717357,204.76832 52.2680601,204.073663 L117.43496,205.679346 C124.648626,206.023999 129.01051,202.700345 129.096774,195.339936 C129.201977,186.363487 122.919452,181.633193 107.649042,181.148245 C97.7669247,180.834415 91.8782063,181.915495 91.9554033,183.649515 C92.066732,186.150205 94.1878982,186.856301 106.52411,187.603747 C106.398558,187.596168 108.32123,187.699288 109.018795,187.747589 C110.2388,187.832066 111.341339,187.942363 112.395207,188.097708 C117.446171,188.842245 120.542976,190.43905 120.413583,193.841852 C120.249736,198.15071 113.808974,199.368459 100.953633,198.75504 C72.83983,197.668831 56.634395,197.228742 52.5108971,197.434803 C44.6598837,197.827136 36.0052413,203.029791 36.1390676,207.90485 C36.2638819,212.451614 34.9255877,231.14174 32.1139557,264.226506 L10.7085545,290.475181 C8.18886124,292.678152 4.03722611,291.901749 2.16204966,289.527988 C-0.156676292,286.592742 -0.137180553,283.849348 2.41978105,280.834168 L19.3877488,261.027521 Z M340.990623,193.065151 C340.495002,186.430209 336.935596,182.882564 330.001881,182.047965 L158.78678,174.661635 C153.871253,174.493148 150.831881,177.348669 149.510389,183.721276 L340.990623,193.065151 Z M307.18268,241.759651 C307.004872,234.95342 314.40456,228.144295 323.222029,228.048256 L341.121479,228.78651 L341.121479,204.630837 L148.517517,195.81484 L147.854339,210.785701 L173.009851,211.755133 C176.437279,212.00734 179.368706,212.822829 181.792979,214.646671 C185.121013,217.150435 186.81092,221.191239 186.465262,226.863865 C185.951332,235.29803 180.443638,239.984504 170.510469,240.676092 L77.1500011,239.407323 C73.7021554,239.371641 71.8597539,241.737564 71.6015788,247.200284 L314.775535,254.813734 C309.810469,249.354034 307.26913,245.068825 307.18268,241.759651 Z" id="Path-78"></path>
            <path d="M3.6499108,281.877354 L20.960691,261.670575 L24.9929491,202.303948 L185.865482,4.32384282 L196.177641,97.8561135 L286.731209,32.2562994 L277.988787,116.917024 L366.78906,46.8953625 L341.389704,147.72691 L397.130557,122.783283 L357.714906,232.112994 L375.111073,233.04313 L375.111073,287.099048 L394.320221,311.179569 C395.874227,313.583398 395.788526,315.440375 394.16909,316.86712 C392.591453,318.25704 389.935621,318.746307 387.926075,316.8129 L366.78906,290.324854 L366.71956,242.947851 L322.071812,241.938978 C318.353268,242.039265 320.963567,248.159973 329.902711,260.301103 L330.709163,304.337351 L350.432211,333.628136 C351.901842,336.493846 351.405996,339.082843 349.847817,340.240173 C348.129903,341.516146 345.046618,341.861227 343.583538,340.123493 L322.071812,308.586909 L321.26536,264.026321 L68.7871569,257.311007 L65.8045198,287.100078 L33.7326518,320.825856 C32.074005,322.247089 29.225829,321.355509 28.0660925,319.989562 C26.2995606,317.908927 26.6929644,315.695101 28.6132838,313.735455 L57.4374231,284.637518 L62.2866736,238.003242 C63.0476177,232.315431 68.9354065,231.505101 73.1089972,231.306542 C133.452071,232.449265 165.464156,232.986899 169.145252,232.919445 C174.666895,232.818264 175.542179,227.633879 175.592539,225.306168 C175.652374,222.540504 174.751942,218.749897 169.145252,218.58678 L51.2545921,215.662066 C47.217455,214.31281 45.2807938,212.461859 45.4446084,210.109212 C45.608423,207.756565 47.9541454,206.277609 52.4817756,205.672345 L117.357987,207.290412 C124.331575,207.623594 130.60121,204.604259 130.709566,195.358837 C130.817922,186.113415 124.797991,180.079134 107.700237,179.536155 C98.8400232,179.254777 90.1716355,179.847397 90.3440961,183.721249 C90.5165567,187.595101 93.4307717,188.426288 106.426564,189.213698 C109.450639,189.396926 118.961695,189.576815 118.801844,193.780564 C118.695278,196.583064 112.76663,197.703989 101.015903,197.143339 C72.8217606,196.054026 56.626592,195.614216 52.4303971,195.82391 C45.0549123,196.19248 34.3433946,201.268999 34.5267718,207.949109 C34.6490232,212.402516 33.3090478,231.116123 30.5068454,264.08993 L9.54975393,289.345889 C7.72379966,290.942324 4.61738339,290.034199 3.42769027,288.528182 C1.66746182,286.299932 1.50596757,284.405501 3.6499108,281.877354 Z M318.64654,256.548623 C312.165539,249.978821 308.881703,245.035124 308.795033,241.71753 C308.657706,236.460864 314.602604,229.755137 323.239596,229.661063 L342.734382,230.467515 L342.734382,203.090072 L146.977677,194.129766 L146.171226,212.334939 L172.891486,213.363688 C177.40006,213.695451 185.546517,215.422874 184.855345,226.765766 C184.394564,234.327694 179.575596,238.428133 170.398443,239.067084 L77.1666923,237.794506 C72.3269135,237.744419 69.9238444,241.400418 69.9574851,248.762503 L318.64654,256.548623 Z M147.606717,185.243202 L342.663835,194.761622 C342.669742,186.198597 338.492535,181.42445 330.132189,180.439183 L158.842032,173.049678 C152.571232,172.834737 148.826127,176.899245 147.606717,185.243202 Z" id="Path"></path>
            <path d="M44.3548387,252.419355 C40.7917113,252.419355 37.9032258,249.530869 37.9032258,245.967742 C37.9032258,242.404615 40.7917113,239.516129 44.3548387,239.516129 C47.9179661,239.516129 50.8064516,242.404615 50.8064516,245.967742 C50.8064516,249.530869 47.9179661,252.419355 44.3548387,252.419355 Z M90.7258065,282.258065 C87.8307654,282.258065 85.483871,279.91117 85.483871,277.016129 C85.483871,274.121088 87.8307654,271.774194 90.7258065,271.774194 C93.6208475,271.774194 95.9677419,274.121088 95.9677419,277.016129 C95.9677419,279.91117 93.6208475,282.258065 90.7258065,282.258065 Z M37.5,294.354839 C35.0503499,294.354839 33.0645161,292.369005 33.0645161,289.919355 C33.0645161,287.469705 35.0503499,285.483871 37.5,285.483871 C39.9496501,285.483871 41.9354839,287.469705 41.9354839,289.919355 C41.9354839,292.369005 39.9496501,294.354839 37.5,294.354839 Z M94.3548387,322.580645 C92.1278841,322.580645 90.3225806,320.775342 90.3225806,318.548387 C90.3225806,316.321432 92.1278841,314.516129 94.3548387,314.516129 C96.5817933,314.516129 98.3870968,316.321432 98.3870968,318.548387 C98.3870968,320.775342 96.5817933,322.580645 94.3548387,322.580645 Z M119.758065,293.548387 C117.753805,293.548387 116.129032,291.923614 116.129032,289.919355 C116.129032,287.915096 117.753805,286.290323 119.758065,286.290323 C121.762324,286.290323 123.387097,287.915096 123.387097,289.919355 C123.387097,291.923614 121.762324,293.548387 119.758065,293.548387 Z M171.774194,305.645161 C169.101848,305.645161 166.935484,303.478797 166.935484,300.806452 C166.935484,298.134106 169.101848,295.967742 171.774194,295.967742 C174.446539,295.967742 176.612903,298.134106 176.612903,300.806452 C176.612903,303.478797 174.446539,305.645161 171.774194,305.645161 Z M227.419355,288.709677 C224.747009,288.709677 222.580645,286.543313 222.580645,283.870968 C222.580645,281.198622 224.747009,279.032258 227.419355,279.032258 C230.0917,279.032258 232.258065,281.198622 232.258065,283.870968 C232.258065,286.543313 230.0917,288.709677 227.419355,288.709677 Z M239.112903,316.935484 C236.663253,316.935484 234.677419,314.94965 234.677419,312.5 C234.677419,310.05035 236.663253,308.064516 239.112903,308.064516 C241.562553,308.064516 243.548387,310.05035 243.548387,312.5 C243.548387,314.94965 241.562553,316.935484 239.112903,316.935484 Z M288.306452,295.967742 C284.96602,295.967742 282.258065,293.259787 282.258065,289.919355 C282.258065,286.578923 284.96602,283.870968 288.306452,283.870968 C291.646884,283.870968 294.354839,286.578923 294.354839,289.919355 C294.354839,293.259787 291.646884,295.967742 288.306452,295.967742 Z M295.564516,333.870968 C293.114866,333.870968 291.129032,331.885134 291.129032,329.435484 C291.129032,326.985834 293.114866,325 295.564516,325 C298.014166,325 300,326.985834 300,329.435484 C300,331.885134 298.014166,333.870968 295.564516,333.870968 Z M345.564516,261.290323 C343.114866,261.290323 341.129032,259.304489 341.129032,256.854839 C341.129032,254.405189 343.114866,252.419355 345.564516,252.419355 C348.014166,252.419355 350,254.405189 350,256.854839 C350,259.304489 348.014166,261.290323 345.564516,261.290323 Z M312.903226,221.774194 C310.23088,221.774194 308.064516,219.607829 308.064516,216.935484 C308.064516,214.263138 310.23088,212.096774 312.903226,212.096774 C315.575571,212.096774 317.741935,214.263138 317.741935,216.935484 C317.741935,219.607829 315.575571,221.774194 312.903226,221.774194 Z M240.322581,236.290323 C236.314062,236.290323 233.064516,233.040776 233.064516,229.032258 C233.064516,225.02374 236.314062,221.774194 240.322581,221.774194 C244.331099,221.774194 247.580645,225.02374 247.580645,229.032258 C247.580645,233.040776 244.331099,236.290323 240.322581,236.290323 Z M277.822581,225 C275.818321,225 274.193548,223.375227 274.193548,221.370968 C274.193548,219.366709 275.818321,217.741935 277.822581,217.741935 C279.82684,217.741935 281.451613,219.366709 281.451613,221.370968 C281.451613,223.375227 279.82684,225 277.822581,225 Z M205.241935,214.516129 C202.792285,214.516129 200.806452,212.530295 200.806452,210.080645 C200.806452,207.630995 202.792285,205.645161 205.241935,205.645161 C207.691586,205.645161 209.677419,207.630995 209.677419,210.080645 C209.677419,212.530295 207.691586,214.516129 205.241935,214.516129 Z M194.354839,186.290323 C192.573275,186.290323 191.129032,184.84608 191.129032,183.064516 C191.129032,181.282952 192.573275,179.83871 194.354839,179.83871 C196.136402,179.83871 197.580645,181.282952 197.580645,183.064516 C197.580645,184.84608 196.136402,186.290323 194.354839,186.290323 Z M282.66129,191.935484 C280.657031,191.935484 279.032258,190.310711 279.032258,188.306452 C279.032258,186.302192 280.657031,184.677419 282.66129,184.677419 C284.665549,184.677419 286.290323,186.302192 286.290323,188.306452 C286.290323,190.310711 284.665549,191.935484 282.66129,191.935484 Z" id="Oval-5"></path>
            <path d="M44.3548387,250.806452 C41.6824931,250.806452 39.516129,248.640087 39.516129,245.967742 C39.516129,243.295396 41.6824931,241.129032 44.3548387,241.129032 C47.0271843,241.129032 49.1935484,243.295396 49.1935484,245.967742 C49.1935484,248.640087 47.0271843,250.806452 44.3548387,250.806452 Z M90.7258065,280.645161 C88.7215473,280.645161 87.0967742,279.020388 87.0967742,277.016129 C87.0967742,275.01187 88.7215473,273.387097 90.7258065,273.387097 C92.7300656,273.387097 94.3548387,275.01187 94.3548387,277.016129 C94.3548387,279.020388 92.7300656,280.645161 90.7258065,280.645161 Z M37.5,292.741935 C35.9411318,292.741935 34.6774194,291.478223 34.6774194,289.919355 C34.6774194,288.360487 35.9411318,287.096774 37.5,287.096774 C39.0588682,287.096774 40.3225806,288.360487 40.3225806,289.919355 C40.3225806,291.478223 39.0588682,292.741935 37.5,292.741935 Z M94.3548387,320.967742 C93.0186659,320.967742 91.9354839,319.88456 91.9354839,318.548387 C91.9354839,317.212214 93.0186659,316.129032 94.3548387,316.129032 C95.6910115,316.129032 96.7741935,317.212214 96.7741935,318.548387 C96.7741935,319.88456 95.6910115,320.967742 94.3548387,320.967742 Z M119.758065,291.935484 C118.644587,291.935484 117.741935,291.032832 117.741935,289.919355 C117.741935,288.805878 118.644587,287.903226 119.758065,287.903226 C120.871542,287.903226 121.774194,288.805878 121.774194,289.919355 C121.774194,291.032832 120.871542,291.935484 119.758065,291.935484 Z M171.774194,304.032258 C169.99263,304.032258 168.548387,302.588015 168.548387,300.806452 C168.548387,299.024888 169.99263,297.580645 171.774194,297.580645 C173.555757,297.580645 175,299.024888 175,300.806452 C175,302.588015 173.555757,304.032258 171.774194,304.032258 Z M227.419355,287.096774 C225.637791,287.096774 224.193548,285.652531 224.193548,283.870968 C224.193548,282.089404 225.637791,280.645161 227.419355,280.645161 C229.200919,280.645161 230.645161,282.089404 230.645161,283.870968 C230.645161,285.652531 229.200919,287.096774 227.419355,287.096774 Z M239.112903,315.322581 C237.554035,315.322581 236.290323,314.058868 236.290323,312.5 C236.290323,310.941132 237.554035,309.677419 239.112903,309.677419 C240.671771,309.677419 241.935484,310.941132 241.935484,312.5 C241.935484,314.058868 240.671771,315.322581 239.112903,315.322581 Z M288.306452,294.354839 C285.856802,294.354839 283.870968,292.369005 283.870968,289.919355 C283.870968,287.469705 285.856802,285.483871 288.306452,285.483871 C290.756102,285.483871 292.741935,287.469705 292.741935,289.919355 C292.741935,292.369005 290.756102,294.354839 288.306452,294.354839 Z M295.564516,332.258065 C294.005648,332.258065 292.741935,330.994352 292.741935,329.435484 C292.741935,327.876616 294.005648,326.612903 295.564516,326.612903 C297.123384,326.612903 298.387097,327.876616 298.387097,329.435484 C298.387097,330.994352 297.123384,332.258065 295.564516,332.258065 Z M345.564516,259.677419 C344.005648,259.677419 342.741935,258.413707 342.741935,256.854839 C342.741935,255.29597 344.005648,254.032258 345.564516,254.032258 C347.123384,254.032258 348.387097,255.29597 348.387097,256.854839 C348.387097,258.413707 347.123384,259.677419 345.564516,259.677419 Z M312.903226,220.16129 C311.121662,220.16129 309.677419,218.717048 309.677419,216.935484 C309.677419,215.15392 311.121662,213.709677 312.903226,213.709677 C314.68479,213.709677 316.129032,215.15392 316.129032,216.935484 C316.129032,218.717048 314.68479,220.16129 312.903226,220.16129 Z M240.322581,234.677419 C237.204844,234.677419 234.677419,232.149995 234.677419,229.032258 C234.677419,225.914522 237.204844,223.387097 240.322581,223.387097 C243.440317,223.387097 245.967742,225.914522 245.967742,229.032258 C245.967742,232.149995 243.440317,234.677419 240.322581,234.677419 Z M277.822581,223.387097 C276.709103,223.387097 275.806452,222.484445 275.806452,221.370968 C275.806452,220.25749 276.709103,219.354839 277.822581,219.354839 C278.936058,219.354839 279.83871,220.25749 279.83871,221.370968 C279.83871,222.484445 278.936058,223.387097 277.822581,223.387097 Z M205.241935,212.903226 C203.683067,212.903226 202.419355,211.639513 202.419355,210.080645 C202.419355,208.521777 203.683067,207.258065 205.241935,207.258065 C206.800804,207.258065 208.064516,208.521777 208.064516,210.080645 C208.064516,211.639513 206.800804,212.903226 205.241935,212.903226 Z M194.354839,184.677419 C193.464057,184.677419 192.741935,183.955298 192.741935,183.064516 C192.741935,182.173734 193.464057,181.451613 194.354839,181.451613 C195.245621,181.451613 195.967742,182.173734 195.967742,183.064516 C195.967742,183.955298 195.245621,184.677419 194.354839,184.677419 Z M282.66129,190.322581 C281.547813,190.322581 280.645161,189.419929 280.645161,188.306452 C280.645161,187.192974 281.547813,186.290323 282.66129,186.290323 C283.774768,186.290323 284.677419,187.192974 284.677419,188.306452 C284.677419,189.419929 283.774768,190.322581 282.66129,190.322581 Z" id="Path"></path>
        </g>
    </g>
</svg>