<?xml version="1.0" encoding="UTF-8"?>
<svg width="512px" height="512px" viewBox="0 0 512 512" version="1.1" xmlns="http://www.w3.org/2000/svg" xmlns:xlink="http://www.w3.org/1999/xlink">
    <!-- Generator: Sketch 53.2 (72643) - https://sketchapp.com -->
    <title>ic_locations_rotten_vale</title>
    <desc>Created with Sketch.</desc>
    <g id="ic_locations_rotten_vale" stroke="none" stroke-width="1" fill="none" fill-rule="evenodd">
        <path d="M407.666988,283.744536 L407.666988,250.094767 L454.042276,250.094767 L454.042276,285.176116 L410.474491,285.176116 L454.159515,307.451639 C455.288967,308.02756 456,309.18826 456,310.456072 L456,409.49673 C456,410.238012 455.760838,410.923434 455.355466,411.480045 C454.446241,418.201912 450.146312,423.540762 442.455677,427.496593 L72.0506438,427.496593 C61.3502146,424.77439 56,418.509439 56,408.701737 C56,398.894036 61.3502146,392.553867 72.0506438,389.681231 L106.856084,389.681231 C106.856084,377.979654 117.087791,372.128865 137.551206,372.128865 L137.868381,372.128865 L137.868381,236.197347 C138.565832,228.832125 143.116391,224.801148 150.478673,224.801148 L171.038842,224.801148 L149.483842,177.586392 L196.311326,177.586392 L174.756325,224.801148 L196.239982,224.801148 L196.239982,252.963838 C196.239982,256.230151 194.019367,258.278235 190.470716,259.683623 C188.394852,260.505737 186.394938,261.001013 181.91385,261.937304 C181.787064,261.963792 181.787064,261.963792 181.660537,261.990223 C177.628531,262.832576 175.888928,263.260199 174.350402,263.860386 C173.699829,264.114178 173.229939,264.358284 172.953163,264.559301 L172.953163,372.128865 L198.573067,372.128865 L198.573067,180.687805 C198.573067,168.395719 204.768161,161.567099 216.232729,161.567099 L261.160272,161.567099 L261.160272,189.729789 C261.160272,193.184769 258.721583,195.11447 255.013162,196.09726 C252.91087,196.654401 250.906215,196.888204 246.406383,197.238849 C242.147699,197.570527 240.434711,197.765537 238.911377,198.157188 C238.465606,198.271796 238.117132,198.390383 237.873453,198.496147 L237.873453,372.128865 L268.320883,372.128865 L263.493357,367.907473 L263.493357,142.747376 C263.493357,130.45529 269.68845,123.62667 281.153019,123.62667 L351.511354,123.62667 L351.511354,159.862657 L308.696364,159.862657 C304.415405,159.862657 302.793743,161.569858 302.793743,166.254516 L302.793743,299.152669 L326.943488,246.524698 C327.7431,244.782156 329.832648,244.055865 331.54066,244.926801 L407.666988,283.744536 L407.666988,283.744536 Z M166.208198,264.139712 C166.208198,260.924564 168.40072,258.94136 171.899076,257.576633 C173.92308,256.787058 175.845606,256.31447 180.281182,255.387805 C180.407867,255.36134 180.407867,255.36134 180.53433,255.334919 C184.604225,254.484544 186.408663,254.037678 187.987152,253.412541 C188.70615,253.127793 189.213414,252.85278 189.495017,252.627816 L189.495017,231.546113 L150.478673,231.546113 C146.610431,231.546113 144.993277,232.931995 144.613346,236.524659 L144.613346,372.684236 L166.208198,395.018985 L166.208198,264.139712 Z M367.474788,150.425247 L383.356132,150.425247 L398.75143,114.145829 L367.474788,112.280907 L367.474788,150.425247 Z M408.694323,107.981746 L387.821026,157.170212 L360.729823,157.170212 L360.729823,105.121782 L408.694323,107.981746 Z M402.638652,161.390764 L410.095683,180.259175 L442.301918,173.635894 L427.623796,140.384588 L402.638652,161.390764 Z M451.847958,178.558851 L405.905136,188.00709 L394.580803,159.353302 L430.164026,129.436827 L451.847958,178.558851 Z M414.35577,202.251569 L414.35577,232.274194 L447.241128,232.274194 L447.241128,202.251569 L414.35577,202.251569 Z M453.986094,239.019159 L407.610805,239.019159 L407.610805,195.506604 L453.986094,195.506604 L453.986094,239.019159 Z M414.411953,256.839733 L414.411953,278.431151 L447.297311,278.431151 L447.297311,256.839733 L414.411953,256.839733 Z M231.128488,197.854657 C231.128488,194.435422 233.553266,192.570441 237.231861,191.624671 C239.288047,191.096023 241.18379,190.880208 245.700778,190.528415 C245.791639,190.521339 245.791639,190.521339 245.882376,190.51427 C249.933528,190.198587 251.733224,189.988689 253.285286,189.577367 C253.783291,189.445388 254.162893,189.308128 254.415307,189.18748 L254.415307,168.312065 L216.232729,168.312065 C208.647725,168.312065 205.318033,171.982261 205.318033,180.687805 L205.318033,373.276733 L231.128488,395.846374 L231.128488,197.854657 Z M296.048777,166.254516 C296.048777,157.920051 300.610517,153.117692 308.696364,153.117692 L344.766389,153.117692 L344.766389,130.371636 L281.153019,130.371636 C273.568015,130.371636 270.238322,134.041831 270.238322,142.747376 L270.238322,364.845527 L296.048777,387.415168 L296.048777,166.254516 Z M246.186604,138.056093 L259.106442,109.756069 L233.266766,109.756069 L246.186604,138.056093 Z M269.600346,103.011104 L246.186604,154.297307 L222.772862,103.011104 L269.600346,103.011104 Z M172.897584,212.631381 L185.817422,184.331357 L159.977745,184.331357 L172.897584,212.631381 Z M393.579939,382.53249 C392.270063,383.848077 390.143236,383.857619 388.82161,382.553837 L364.226571,358.290883 L343.685809,382.34312 C342.48784,383.745884 340.38511,383.925855 338.966188,382.747069 L305.552884,354.988582 L297.920144,406.124248 L449.255035,406.124248 L449.255035,312.522021 L331.607926,252.532336 L296.777591,328.435821 L336.739489,307.469658 C338.985088,306.291496 341.678805,307.920174 341.678805,310.456072 L341.678805,339.24942 L374.489196,319.377709 C376.114582,318.393289 378.231961,318.945453 379.169619,320.598257 L403.490101,363.467781 L421.760791,347.230383 C423.42794,345.748766 426.048415,346.264581 427.029665,348.26751 L439.165278,373.038717 C439.391555,373.500595 439.509193,374.008109 439.509193,374.522436 L439.509193,393.829476 C439.509193,395.692047 437.999282,397.201959 436.136711,397.201959 L402.683808,397.201959 C399.794141,397.201959 398.242724,393.805254 400.134847,391.62121 L416.861298,372.314171 C418.08089,370.906419 420.210773,370.753884 421.618525,371.973475 C423.026277,373.193067 423.178812,375.32295 421.95922,376.730702 L410.067592,390.456993 L432.764228,390.456993 L432.764228,375.304155 L422.924687,355.219685 L404.924116,371.217025 C404.849866,371.283011 401.068474,375.054833 393.579939,382.53249 Z M394.765047,301.417463 L433.668298,318.126626 C423.933187,328.197943 414.675981,331.53323 405.896679,328.132487 C397.117376,324.731744 393.406832,315.826736 394.765047,301.417463 Z M98.6632707,417.875776 C104.018161,417.875776 108.359158,413.534779 108.359158,408.179889 C108.359158,402.824998 104.018161,398.484001 98.6632707,398.484001 C93.3083799,398.484001 88.9673833,402.824998 88.9673833,408.179889 C88.9673833,413.534779 93.3083799,417.875776 98.6632707,417.875776 Z M131.123416,415.346414 C133.451629,415.346414 135.339019,413.459024 135.339019,411.130811 C135.339019,408.802598 133.451629,406.915208 131.123416,406.915208 C128.795202,406.915208 126.907812,408.802598 126.907812,411.130811 C126.907812,413.459024 128.795202,415.346414 131.123416,415.346414 Z M199.837748,399.327122 C202.864426,399.327122 205.318033,396.873515 205.318033,393.846838 C205.318033,390.82016 202.864426,388.366553 199.837748,388.366553 C196.811071,388.366553 194.357464,390.82016 194.357464,393.846838 C194.357464,396.873515 196.811071,399.327122 199.837748,399.327122 Z M262.650236,400.170242 C268.703591,400.170242 273.610805,395.263029 273.610805,389.209674 C273.610805,383.156319 268.703591,378.249106 262.650236,378.249106 C256.596882,378.249106 251.689668,383.156319 251.689668,389.209674 C251.689668,395.263029 256.596882,400.170242 262.650236,400.170242 Z M89.3889436,336.093073 C82.1714821,336.093073 76.3205736,330.242165 76.3205736,323.024703 C76.3205736,315.807242 82.1714821,309.956333 89.3889436,309.956333 C96.6064051,309.956333 102.457314,315.807242 102.457314,323.024703 C102.457314,330.242165 96.6064051,336.093073 89.3889436,336.093073 Z M73.3696513,360.543572 C69.4116886,360.543572 66.2031258,357.335009 66.2031258,353.377047 C66.2031258,349.419084 69.4116886,346.210521 73.3696513,346.210521 C77.3276141,346.210521 80.5361768,349.419084 80.5361768,353.377047 C80.5361768,357.335009 77.3276141,360.543572 73.3696513,360.543572 Z M92.7614262,137.116601 C78.0936819,137.116601 66.2031258,125.226045 66.2031258,110.5583 C66.2031258,95.8905561 78.0936819,84 92.7614262,84 C107.42917,84 119.319727,95.8905561 119.319727,110.5583 C119.319727,125.226045 107.42917,137.116601 92.7614262,137.116601 Z M122.270649,148.92029 C115.984473,148.92029 110.88852,143.824337 110.88852,137.538161 C110.88852,131.251985 115.984473,126.156032 122.270649,126.156032 C128.556825,126.156032 133.652778,131.251985 133.652778,137.538161 C133.652778,143.824337 128.556825,148.92029 122.270649,148.92029 Z" id="Path-86" fill="#645062" fill-rule="nonzero"></path>
    </g>
</svg>