<?xml version="1.0" encoding="UTF-8"?>
<svg width="512px" height="512px" viewBox="0 0 512 512" version="1.1" xmlns="http://www.w3.org/2000/svg" xmlns:xlink="http://www.w3.org/1999/xlink">
    <!-- Generator: Sketch 53.2 (72643) - https://sketchapp.com -->
    <title>ic_locations_elders_recess</title>
    <desc>Created with Sketch.</desc>
    <g id="ic_locations_elders_recess" stroke="none" stroke-width="1" fill="none" fill-rule="evenodd">
        <path d="M206.854847,417.160646 L102.010437,437.904718 L64,419.613867 L89.2426705,391.440646 L123.324857,391.440646 L72.464821,333.830633 L72.464821,317.233294 L93.0607287,317.233294 L126.60412,346.5853 L149.859814,336.393327 L89.2426705,265.76075 L97.4039066,225.915789 L121.28865,237.930639 L149.859814,282.481033 L157.716098,250.875388 L184.289345,260.391816 L209.369283,301.303294 L209.369283,265.76075 L157.716098,190.253509 L162.646909,169.435055 L190.915635,169.435055 L213.552061,217.613736 L200.788244,122.454383 L249.409477,70.2322987 L295.008881,113.470777 L286.704699,225.915789 L313.707181,184.01197 L346.038804,229.366703 L310.33053,282.481033 L324.223147,291.717764 L396.956628,202.88768 L415.219199,247.384604 L379.237986,282.481033 L401.761336,299.876703 L401.761336,321.553941 L332.392808,366.534357 L423.773901,377.370052 L448.315053,412.473961 L411.175797,427.227311 L358.762655,419.613867 L374.933341,445.450891 L349.419354,456 L249.409477,417.160646 L200.788244,456 L188.171619,439.646055 L206.854847,417.160646 Z M275.254549,391.607757 L350.00945,421.288704 L337.340578,391.607757 L275.254549,391.607757 Z M372.480703,287.026671 L333.557265,333.554067 L386.862816,299.924684 L372.480703,287.026671 Z M313.25288,210.996721 L278.236425,252.096963 L283.205297,159.982862 L255.713231,190.233784 L249.806934,83.4543191 L208.712724,126.913633 L233.769896,307.490356 L260.631268,286.457737 L255.713231,355.152277 L336.425724,230.744689 L313.25288,210.996721 Z M171.466887,284.759759 L157.903699,321.967625 L184.09273,363.105765 L229.023191,388.102559 L171.466887,284.759759 Z M156.679485,352.324464 L132.517714,360.024218 L144.5986,369.868174 L156.679485,352.324464 Z M239.454477,70.3787611 C235.483891,70.3787611 232.265096,67.1599658 232.265096,63.1893805 C232.265096,59.2187953 235.483891,56 239.454477,56 C243.425062,56 246.643857,59.2187953 246.643857,63.1893805 C246.643857,67.1599658 243.425062,70.3787611 239.454477,70.3787611 Z" id="Path-87" fill="#7F4334" fill-rule="nonzero"></path>
    </g>
</svg>