<?xml version="1.0" encoding="UTF-8"?>
<svg width="512px" height="512px" viewBox="0 0 512 512" version="1.1" xmlns="http://www.w3.org/2000/svg" xmlns:xlink="http://www.w3.org/1999/xlink">
    <!-- Generator: Sketch 53.2 (72643) - https://sketchapp.com -->
    <title>ic_locations_coral_highlands</title>
    <desc>Created with Sketch.</desc>
    <g id="ic_locations_coral_highlands" stroke="none" stroke-width="1" fill="none" fill-rule="evenodd">
        <path d="M262.660802,113.919785 C265.327868,115.50461 268.514996,117.305988 271.596789,118.956534 C275.203117,120.88801 278.494162,122.523625 281.158919,123.687451 C283.797055,124.839649 285.75249,125.465387 286.159166,125.455617 C295.441825,125.232597 303.860752,124.252358 319.055025,121.921693 C319.179843,121.873844 319.344886,121.800696 319.527809,121.709583 C319.989781,121.479474 320.464822,121.186388 320.846071,120.890393 C320.228776,119.576254 319.849885,119.565959 317.810309,119.454708 C314.795835,119.29028 313.199706,119.048204 310.900722,118.122956 C310.181893,117.833656 309.447434,117.53367 308.680991,117.216697 C307.376501,116.677205 299.704476,113.41929 297.613175,112.574483 C293.725038,111.00382 290.659474,109.9356 287.755063,109.185377 C278.599997,106.820579 270.655783,107.696667 261.127327,112.996713 C261.595679,113.282808 262.110403,113.592727 262.660802,113.919785 Z M289.865579,101.014735 C293.183045,101.871653 296.572587,103.052765 300.773986,104.749974 C302.949155,105.628661 310.66595,108.905588 311.906068,109.418457 C312.648667,109.72557 313.358494,110.015495 314.051413,110.294367 C315.259519,110.780581 316.120613,110.911178 318.269932,111.028415 C323.78446,111.329213 326.722038,113.008301 329.156824,118.857634 C330.600339,122.325535 328.959549,125.260182 326.056252,127.528803 C324.349397,128.86253 322.074184,129.995813 320.532132,130.23262 C304.874294,132.637125 296.148954,133.656862 286.361853,133.892001 C282.918832,133.974721 276.659776,131.241095 267.612577,126.3956 C260.975947,122.841157 254.16534,118.794157 253.029579,117.658174 C250.082394,114.710414 250.082394,110.166801 253.565789,107.686048 C266.585056,99.517002 277.567221,97.8380098 289.865579,101.014735 Z M158.839315,144.450427 C163.322319,140.893921 168.083236,138.949666 173.41951,138.236315 C177.313368,137.715786 180.279526,137.803938 187.005728,138.361575 C193.877695,138.931296 196.939065,138.974953 200.626581,138.296408 C203.635307,137.742769 206.261457,137.103614 208.879488,136.323882 C210.672313,135.789922 216.117311,133.954241 217.135064,133.644451 C223.164383,131.809211 228.422074,131.345001 236.793055,132.275718 C238.912417,132.511356 242.669979,133.468514 248.56305,135.162885 C248.934074,135.269562 249.314473,135.379447 249.70688,135.493272 C248.946861,135.272815 258.419419,138.055605 259.598817,138.363922 C260.182761,138.516576 269.283418,140.230327 272.670427,141.096574 C277.359657,142.295871 281.146673,143.730442 284.11885,145.646578 C288.244395,148.306281 290.691813,151.891535 290.691813,156.38351 C290.691813,160.984471 288.344748,164.562098 284.37021,166.867221 C281.468956,168.549869 277.805763,169.531073 273.454603,170.032694 C269.985713,170.432603 266.806274,170.494035 262.422119,170.395617 C262.513256,170.397663 261.41098,170.37223 261.161771,170.367228 C254.157279,170.226628 248.503934,170.296648 236.091071,170.588067 C216.005621,171.059618 207.262887,171.020633 196.239657,170.02605 C181.570902,168.702545 168.671005,165.665642 156.379956,160.244028 L156.047457,160.097361 L155.744933,159.896002 C152.660197,157.842808 151.770481,154.612408 152.81804,151.543262 C153.128568,150.633475 153.575944,149.81609 154.110833,149.065051 C154.440962,148.601515 154.755508,148.230094 155.032278,147.940457 C156.273574,146.641455 157.541242,145.480229 158.839315,144.450427 Z M206.641582,192.175221 C208.160535,193.275633 209.243885,194.012733 210.267364,194.628926 C213.776878,196.741852 217.144969,197.658222 223.680428,198.036645 C227.034327,198.230847 230.543262,198.138591 235.620956,197.796848 C236.493477,197.738125 237.233141,197.685451 238.752233,197.575159 C243.436683,197.235049 245.436118,197.110606 247.988518,197.034926 C251.316918,196.936237 254.037536,197.277077 256.565295,198.38385 C262.653115,201.049387 266.051689,202.658823 271.350822,205.281445 C274.411073,206.796009 275.166916,207.117843 276.016828,207.28113 C276.88753,207.448411 277.292124,207.453815 282.05151,207.386872 C287.598309,207.308853 292.778834,207.361031 300.331037,207.662075 L300.738176,207.678305 L301.134687,207.772142 C314.83288,211.013908 326.636687,212.030078 336.567214,210.856411 C344.102159,210.039784 345.61977,207.53838 343.594928,202.738012 C341.334911,197.380104 335.026793,191.63101 329.555259,189.968347 C326.866945,189.151435 324.915706,188.804584 323.193143,188.902206 C316.113946,189.303406 309.611097,189.500383 299.383641,189.684294 C298.457056,189.700956 297.672727,189.714672 296.072407,189.742373 C285.936844,189.917816 281.453996,190.020973 275.621031,190.251773 C270.15488,190.468059 264.273997,190.51848 256.660251,190.455732 C254.372833,190.43688 252.435231,190.414322 248.515717,190.363911 C243.036145,190.293436 240.85961,190.269378 238.0412,190.255018 C226.388442,190.195644 216.010679,190.419362 206.125602,190.995317 C205.785668,191.015123 205.456807,191.031894 205.102056,191.047989 C205.854763,191.59963 206.475109,192.054619 206.641582,192.175221 Z M282.170195,215.824856 C276.479313,215.904901 276.153564,215.90055 274.424658,215.568389 C272.531813,215.20473 271.418127,214.730529 267.607665,212.844673 C262.416712,210.275591 259.128543,208.71844 253.180602,206.114148 C252.014772,205.603692 250.429421,205.405079 248.238625,205.470038 C245.848538,205.540905 243.92524,205.660609 239.363317,205.991823 C237.829757,206.103166 237.079608,206.156586 236.18763,206.216619 C230.787628,206.580054 226.97416,206.680316 223.192611,206.461353 C215.374111,206.008637 210.691897,204.734729 205.914699,201.858585 C204.647592,201.095715 203.386775,200.237867 201.690714,199.009149 C201.243625,198.685253 198.070165,196.352274 197.010421,195.588924 L196.731076,195.387707 L196.488045,195.143869 C194.262118,192.91056 194.262118,189.899759 195.83582,187.213311 L195.930021,187.052501 L196.038034,186.900623 C196.921961,185.657719 197.437475,185.020093 198.166248,184.39766 C199.75297,183.042468 200.964733,182.778361 203.680127,182.66189 C203.74748,182.659001 204.385014,182.632666 204.589368,182.623663 C204.961929,182.607249 205.293616,182.590662 205.634746,182.570786 C215.713537,181.983544 226.264812,181.756086 238.084197,181.816309 C240.932321,181.830821 243.121967,181.855024 248.624243,181.925791 C252.531087,181.976038 254.459425,181.998489 256.729796,182.0172 C264.220649,182.078935 269.980014,182.029556 275.287383,181.819553 C281.203087,181.585479 285.728992,181.481331 295.926355,181.304818 C297.52483,181.277149 298.307816,181.263457 299.231918,181.24684 C309.359201,181.06473 315.769911,180.870543 322.715656,180.476907 C325.629404,180.311777 328.454092,180.813892 332.008826,181.894088 C339.895444,184.290635 348.14313,191.807411 351.370336,199.45827 C355.614286,209.519565 350.574399,217.826566 337.517164,219.241492 C326.655026,220.525483 314.019318,219.457978 299.590992,216.078247 C292.418451,215.797724 287.473395,215.750263 282.170195,215.824856 Z M120.080321,213.532657 C119.048077,214.238096 118.088604,214.866776 116.179131,216.102214 C112.130446,218.72173 110.398634,219.914991 108.435686,221.537508 C108.051088,221.855406 107.702463,222.408189 107.545204,222.976846 C106.513374,226.707993 107.500312,229.106375 110.58997,231.204703 C113.714588,233.326774 118.724173,234.855017 125.170197,235.799823 C128.156373,236.237512 131.337014,236.537461 134.827125,236.74288 C136.1883,236.822996 137.552093,236.886574 139.087248,236.945208 C139.927682,236.977308 142.432099,237.063176 142.631162,237.070451 C144.357618,237.13355 145.297354,237.18649 146.038569,237.281636 C148.162647,237.554291 150.074212,238.050512 152.637266,238.903456 C152.924473,238.999034 153.220679,239.099137 153.582506,239.222572 C153.766461,239.285328 154.398009,239.501541 154.504036,239.53776 C157.952985,240.715926 159.823157,241.208189 162.211658,241.436834 C172.165916,242.38973 181.428009,242.222105 191.355301,241.058068 C199.11274,240.14846 205.250722,239.025894 219.656348,236.073035 C225.939326,234.785153 231.396075,234.71378 240.914631,235.336723 C241.355309,235.365563 241.699571,235.38848 242.500953,235.442119 C253.814192,236.199343 258.795809,236.121388 265.064759,234.540423 C266.047039,234.292702 266.210775,234.029793 266.106741,233.127381 C265.957941,231.836671 265.032453,230.404948 264.120595,229.921655 C263.715647,229.707028 263.31595,229.471423 262.9009,229.206352 C262.511634,228.957748 259.643906,226.926824 258.700184,226.364054 C254.515286,223.868469 248.757329,222.504689 238.54993,222.504689 C230.606615,222.504689 226.701378,221.905382 222.022831,220.318402 C221.702053,220.209594 220.459571,219.779604 220.149858,219.674445 C219.438419,219.432885 218.839174,219.240104 218.21779,219.056228 C211.306057,217.010952 200.131048,215.954619 176.878849,215.954619 L176.191145,215.954619 L175.539032,215.736248 C157.795957,209.794671 137.445104,208.303481 123.744314,211.983147 L120.080321,213.532657 Z M220.612313,210.964262 C221.352247,211.183218 222.05369,211.408877 222.863025,211.683676 C223.2043,211.799552 224.445189,212.22899 224.733603,212.326821 C228.506782,213.606697 231.498875,214.06587 238.54993,214.06587 C250.189282,214.06587 257.428933,215.780592 263.022352,219.116121 C264.315737,219.887407 267.32865,222.021151 267.443049,222.094212 C267.675891,222.242916 267.881989,222.364402 268.072497,222.465373 C271.513771,224.289282 274.031594,228.184336 274.490033,232.160913 C275.060141,237.106115 272.388101,241.396587 267.128332,242.723046 C259.729736,244.588896 254.109936,244.676838 241.937383,243.862098 C241.140194,243.80874 240.798638,243.786003 240.36353,243.757528 C231.54975,243.180708 226.696707,243.244185 221.3509,244.339966 C206.709408,247.341173 200.414273,248.492481 192.338072,249.439466 C181.836855,250.670799 171.978759,250.84921 161.407508,249.837251 C158.201339,249.530332 155.802399,248.898889 151.776097,247.523498 C151.665766,247.485809 151.036461,247.270363 150.857839,247.209427 C150.514365,247.092253 150.236966,246.998505 149.972638,246.910541 C147.882091,246.214841 146.445599,245.841943 144.964142,245.651777 C144.575457,245.601884 143.770926,245.55656 142.322944,245.503639 C142.139732,245.496943 139.625718,245.410746 138.765169,245.377878 C137.1762,245.317189 135.756514,245.251005 134.331294,245.16712 C130.615149,244.948396 127.20027,244.626358 123.94638,244.149429 C116.349905,243.036 110.250901,241.175415 105.848816,238.185757 C99.8682348,234.12407 97.3794753,228.076078 99.4116702,220.727559 C100.020823,218.52483 101.312294,216.477064 103.059285,215.033051 C105.359352,213.13188 107.27103,211.814687 111.595005,209.017057 C113.653837,207.684984 114.556548,207.091592 115.650251,206.338004 L116.004532,206.093896 L120.975403,203.991705 C136.529061,199.71252 158.37393,201.221297 177.560782,207.516106 C201.099922,207.537287 212.828218,208.660842 220.612313,210.964262 Z M247.063033,314.663385 C244.773446,311.681931 243.549571,310.757774 239.624812,309.777635 C232.634385,308.031902 224.383286,306.962009 213.031365,306.124386 C209.854245,305.889956 208.422968,305.798123 201.273368,305.355397 C180.473764,304.067418 172.214557,302.992368 165.583726,299.68307 C163.007725,298.397447 160.992906,295.880078 160.22711,293.095106 C157.104973,281.740812 157.814187,273.734257 162.922925,267.997802 C167.379648,262.993476 174.508055,260.2946 186.607529,258.171307 C203.283507,255.845908 224.858943,257.004052 242.857064,262.357992 C246.451999,263.427385 256.6074,263.234589 269.727737,262.320987 C271.721625,262.182148 273.413324,262.184201 276.618262,262.272389 C280.551936,262.381385 282.122752,262.377307 283.992571,262.201397 C286.081157,262.004905 287.829888,261.802273 291.474702,261.351664 C294.468828,260.981499 295.641804,260.840806 297.241369,260.668107 C306.066249,259.71532 312.537512,259.727288 319.31698,261.122777 C328.66327,263.046623 334.276383,265.283585 340.77673,269.238601 C341.905604,269.925444 346.708417,272.979764 348.101577,273.830238 C351.23606,275.743728 354.24625,277.409965 357.786067,279.13595 C361.343599,280.870573 364.492489,281.587734 368.595043,281.798669 C369.770688,281.859116 370.742573,281.877549 372.960596,281.895527 C379.619437,281.949502 382.988024,282.204675 387.863059,283.368494 C396.043509,285.321416 397.962295,297.341787 392.790744,303.006116 C392.296599,303.547346 391.752173,304.157129 390.971221,305.041264 C391.129749,304.86179 389.359966,306.868734 388.842066,307.452624 C386.942603,309.59411 385.407295,311.272731 383.814486,312.922873 C376.469027,320.532729 369.948775,325.322019 363.221049,326.859995 C362.120579,327.111565 361.025378,327.268226 359.936521,327.324842 C351.230714,327.777513 344.966137,327.572051 337.499896,326.758911 C335.413787,326.531716 328.034503,325.617604 327.001575,325.496712 C320.100729,324.689054 313.836964,324.169252 305.848939,323.839045 C300.600461,323.622085 296.356994,323.688426 286.750262,324.020856 C284.837007,324.087062 283.984636,324.115932 282.917943,324.149712 C278.14069,324.301 274.592375,324.357463 271.087471,324.310236 C267.733384,324.26504 264.932159,323.942607 262.292051,323.170483 C254.288959,321.891412 250.889141,319.646451 247.063033,314.663385 Z M290.904409,370.694029 C285.428856,371.526413 279.094191,372.522001 277.963941,372.680155 C271.779359,373.545553 267.500199,373.790659 263.190214,373.383917 C256.083427,372.713235 249.151507,370.196042 239.188217,364.732288 C238.132414,364.153297 228.756672,363.357676 214.752256,362.892947 C202.043404,362.471211 185.430554,362.23864 164.529774,362.13848 C153.225453,362.084308 143.998944,362.072894 125.191239,362.072894 C112.028281,362.072894 101.697622,364.285528 91.0900361,368.385815 C75.2738525,374.499448 64.0435973,382.758636 64.7188301,388.377855 C65.9926646,398.978579 67.7652769,401.218262 76.8184967,402.399112 C82.9484004,403.198661 86.3659262,403.492855 96.5676422,404.222487 C101.265796,404.558502 103.964136,404.782213 106.891858,405.105953 C112.459951,405.72166 117.391689,406.592212 122.557512,407.945512 C127.888409,409.342057 144.523666,414.244479 148.061696,414.998845 C156.818048,416.865844 165.848134,416.807151 188.850587,414.557333 C189.181642,414.524953 189.498304,414.494057 190.143888,414.431099 C195.938657,413.865803 198.703247,413.566326 201.973548,413.111987 C214.858606,411.321879 224.636682,408.123337 234.802845,401.611321 C239.548835,398.57124 246.055324,398.29316 261.153844,399.127086 C261.581582,399.150711 261.982106,399.173079 262.651602,399.210644 C265.845929,399.389872 267.076248,399.455513 268.694995,399.526893 C275.377821,399.821579 280.780068,399.674696 293.008785,399.051939 C295.066895,398.947128 295.983862,398.901033 297.130842,398.845636 C304.982393,398.466415 310.376617,398.340228 315.850995,398.492612 C321.032159,398.636835 324.986754,398.99212 328.80493,399.564467 C329.079317,399.605598 333.858983,400.400744 334.930843,400.510704 C338.857245,400.913507 343.229206,400.0819 355.733077,396.216355 C356.350285,396.025547 356.875768,395.892495 357.861505,395.662231 C359.331944,395.315403 359.932198,395.134821 360.293957,394.999617 C360.268087,394.930766 360.239152,394.857569 360.207017,394.780342 C359.769877,393.72982 358.916993,392.353107 357.750795,390.808994 C356.736515,389.466029 355.538235,388.06398 354.307537,386.748082 C353.401392,385.779205 352.531383,384.922096 352.242281,384.678661 C341.946512,376.009225 327.223375,370.348734 313.336234,369.113177 C312.806306,374.912889 307.929448,379.455696 301.991561,379.455696 C296.605178,379.455696 292.091884,375.717563 290.904409,370.694029 L290.904409,370.694029 Z M180.548471,353.806284 C179.693972,352.282616 179.206751,350.525211 179.206751,348.654008 C179.206751,342.82822 183.929486,338.105485 189.755274,338.105485 C195.581063,338.105485 200.303797,342.82822 200.303797,348.654008 C200.303797,350.620863 199.765492,352.46199 198.828173,354.038097 C225.492708,354.503254 239.815178,355.451671 243.245885,357.333031 C252.286661,362.29089 258.194277,364.436126 263.983081,364.982428 C267.519027,365.316122 271.203728,365.105066 276.794506,364.322758 C278.034484,364.14925 286.470213,362.819277 292.385262,361.936441 C294.40892,358.770139 297.955087,356.670886 301.991561,356.670886 C305.369604,356.670886 308.404252,358.141134 310.490507,360.476633 C327.141988,361.141865 345.146021,367.671282 357.677774,378.223503 C359.167432,379.477853 362.288385,382.814868 364.48483,385.723089 C366.042844,387.78599 367.242851,389.723023 367.998216,391.538294 C368.39895,392.501326 368.684827,393.444598 368.826913,394.362704 C369.990543,394.221039 371.295519,394.05233 372.821723,393.849206 C380.736444,392.795827 383.700591,392.49211 387.913638,392.49211 C390.225085,392.49211 392.091828,392.509739 395.942342,392.559296 C399.510752,392.605223 400.949842,392.620164 402.840288,392.624837 C405.920526,392.632452 408.578811,392.594334 411.165878,392.495204 C429.038797,391.810354 450.216974,400.53155 453.952954,411.561165 C454.248033,412.432315 454.406897,412.927056 454.614929,413.673629 C455.150601,415.596023 455.479328,417.468251 455.507201,419.324974 C455.549266,422.12715 454.89399,424.651352 453.253323,426.705281 C450.176026,430.557708 434.158321,438.649619 425.441276,441.552149 C423.19844,442.29895 421.458804,442.551916 417.661881,442.87929 C414.896184,443.117981 413.697201,443.27728 412.427887,443.620194 C392.847841,448.909868 379.577731,450.170442 363.042321,447.253621 C358.143645,446.389502 344.028892,443.675691 341.292337,443.28982 C336.604873,442.628857 331.886934,442.394872 320.033332,442.230804 C315.718703,442.171084 312.306787,442.200053 305.029505,442.320339 C301.586163,442.377254 300.180154,442.398324 298.326508,442.417049 C289.81693,442.50301 283.419138,442.339091 276.721596,441.75213 C260.313318,440.314136 248.868215,433.602522 246.811918,424.144627 C245.375333,417.537082 248.744863,411.554143 255.585863,407.310855 C246.311649,406.957783 241.491118,407.348754 239.354633,408.717296 C228.057055,415.954049 217.141967,419.524524 203.134791,421.470526 C199.714895,421.945648 196.869868,422.253839 190.963229,422.830048 C190.317466,422.893023 190.001943,422.923808 189.672049,422.956075 C165.863632,425.284723 156.131551,425.347977 146.301956,423.252146 C142.38706,422.417426 125.474106,417.433166 120.418946,416.108857 C115.676259,414.866407 111.144442,414.066448 105.964366,413.493648 C103.174045,413.185101 100.561641,412.968514 95.9656307,412.639805 C85.5997564,411.898432 82.0742496,411.594943 75.7270316,410.767048 C62.4138968,409.03056 58.03641,403.499635 56.3402861,389.384662 C55.5596602,382.888371 59.6589965,376.962239 67.1176102,371.47687 C72.6890255,367.379424 80.1492813,363.567561 88.0474644,360.514575 C99.5664402,356.061997 110.902263,353.634075 125.191239,353.634075 C144.012218,353.634075 153.24809,353.645501 164.570214,353.699758 C170.212744,353.726798 175.536949,353.761724 180.548471,353.806284 L180.548471,353.806284 Z M265.2827,294.223629 C270.409394,294.223629 274.565401,290.067622 274.565401,284.940928 C274.565401,279.814234 270.409394,275.658228 265.2827,275.658228 C260.156007,275.658228 256,279.814234 256,284.940928 C256,290.067622 260.156007,294.223629 265.2827,294.223629 Z M302.413502,311.101266 C305.675944,311.101266 308.320675,308.456534 308.320675,305.194093 C308.320675,301.931651 305.675944,299.28692 302.413502,299.28692 C299.151061,299.28692 296.506329,301.931651 296.506329,305.194093 C296.506329,308.456534 299.151061,311.101266 302.413502,311.101266 Z M409.164557,435.151899 C413.592156,435.151899 417.181435,431.56262 417.181435,427.135021 C417.181435,422.707422 413.592156,419.118143 409.164557,419.118143 C404.736958,419.118143 401.147679,422.707422 401.147679,427.135021 C401.147679,431.56262 404.736958,435.151899 409.164557,435.151899 Z M381.316456,415.742616 C384.345866,415.742616 386.801688,413.286794 386.801688,410.257384 C386.801688,407.227974 384.345866,404.772152 381.316456,404.772152 C378.287046,404.772152 375.831224,407.227974 375.831224,410.257384 C375.831224,413.286794 378.287046,415.742616 381.316456,415.742616 Z M250.514768,79.0337553 C246.087169,79.0337553 242.49789,75.4444769 242.49789,71.0168776 C242.49789,66.5892784 246.087169,63 250.514768,63 C254.942367,63 258.531646,66.5892784 258.531646,71.0168776 C258.531646,75.4444769 254.942367,79.0337553 250.514768,79.0337553 Z M310.852321,149.919831 C308.522005,149.919831 306.632911,148.030737 306.632911,145.700422 C306.632911,143.370107 308.522005,141.481013 310.852321,141.481013 C313.182636,141.481013 315.07173,143.370107 315.07173,145.700422 C315.07173,148.030737 313.182636,149.919831 310.852321,149.919831 Z M310.852321,178.611814 C308.055942,178.611814 305.78903,176.344902 305.78903,173.548523 C305.78903,170.752145 308.055942,168.485232 310.852321,168.485232 C313.648699,168.485232 315.915612,170.752145 315.915612,173.548523 C315.915612,176.344902 313.648699,178.611814 310.852321,178.611814 Z M288.153011,206.814346 C284.89057,206.814346 282.245838,204.169615 282.245838,200.907173 C282.245838,197.644731 284.89057,195 288.153011,195 C291.415453,195 294.060184,197.644731 294.060184,200.907173 C294.060184,204.169615 291.415453,206.814346 288.153011,206.814346 Z M168.658228,185.362869 C166.094881,185.362869 164.016878,183.284866 164.016878,180.721519 C164.016878,178.158172 166.094881,176.080169 168.658228,176.080169 C171.221575,176.080169 173.299578,178.158172 173.299578,180.721519 C173.299578,183.284866 171.221575,185.362869 168.658228,185.362869 Z M140.810127,271.438819 C136.84859,271.438819 133.637131,268.227359 133.637131,264.265823 C133.637131,260.304287 136.84859,257.092827 140.810127,257.092827 C144.771663,257.092827 147.983122,260.304287 147.983122,264.265823 C147.983122,268.227359 144.771663,271.438819 140.810127,271.438819 Z M137.85654,320.383966 C130.399531,320.383966 124.35443,314.338866 124.35443,306.881857 C124.35443,299.424847 130.399531,293.379747 137.85654,293.379747 C145.313549,293.379747 151.35865,299.424847 151.35865,306.881857 C151.35865,314.338866 145.313549,320.383966 137.85654,320.383966 Z M315.915612,249.49789 C312.187107,249.49789 309.164557,246.47534 309.164557,242.746835 C309.164557,239.018331 312.187107,235.995781 315.915612,235.995781 C319.644116,235.995781 322.666667,239.018331 322.666667,242.746835 C322.666667,246.47534 319.644116,249.49789 315.915612,249.49789 Z M189.755274,314.476793 C187.191927,314.476793 185.113924,312.39879 185.113924,309.835443 C185.113924,307.272096 187.191927,305.194093 189.755274,305.194093 C192.318621,305.194093 194.396624,307.272096 194.396624,309.835443 C194.396624,312.39879 192.318621,314.476793 189.755274,314.476793 Z M369.080169,365.953586 C362.089223,365.953586 356.421941,360.286305 356.421941,353.295359 C356.421941,346.304412 362.089223,340.637131 369.080169,340.637131 C376.071115,340.637131 381.738397,346.304412 381.738397,353.295359 C381.738397,360.286305 376.071115,365.953586 369.080169,365.953586 Z M118.869198,402.240506 C113.509473,402.240506 109.164557,397.89559 109.164557,392.535865 C109.164557,387.17614 113.509473,382.831224 118.869198,382.831224 C124.228924,382.831224 128.57384,387.17614 128.57384,392.535865 C128.57384,397.89559 124.228924,402.240506 118.869198,402.240506 Z" id="Path-85" fill="#455880" fill-rule="nonzero"></path>
    </g>
</svg>