<?xml version="1.0" encoding="UTF-8"?>
<svg width="100px" height="100px" viewBox="0 0 100 100" version="1.1" xmlns="http://www.w3.org/2000/svg" xmlns:xlink="http://www.w3.org/1999/xlink">
    <!-- Generator: Sketch 50.2 (55047) - http://www.bohemiancoding.com/sketch -->
    <title>armor/*/icons/arm</title>
    <desc>Created with Sketch.</desc>
    <defs></defs>
    <g id="*/icons/arm" stroke="none" stroke-width="1" fill="none" fill-rule="evenodd">
        <g id="arm" transform="translate(14.843750, 0.000000)">
            <polygon id="Shape" fill="#000000" points="70.3125 84.4346364 70.3125 100 6.61027215 100 6.61027215 87.9987113 13.9249303 85.1961224 13.9249303 52.1526761 15.7029493 51.049206 15.7029493 48.4870696 0 39.1311826 0 6.97166278 13.2208027 6.97166278 13.2208027 0 53.1149915 0 53.1149915 3.09848988 59.7764259 3.09848988 64.5285765 9.84317392 64.5285765 84.4346364"></polygon>
            <path d="M67.1875,89.1221279 L67.1875,96.09375 L12.1407724,96.09375 L12.1407724,91.3853616 L18.7580227,89.1218857 L67.1875,89.1218857 L67.1875,89.1221279 Z M61.3493174,85.2487354 L18.8130556,85.2487354 L18.8130556,65.8832262 L61.3493174,65.8832262 L61.3493174,85.2487354 Z M32.4703445,72.7773319 L32.4703445,79.3616148 C32.4703445,79.3616148 34.4164923,79.3616148 38.3087879,79.3616148 L38.3087879,72.7775742 L32.4703445,72.7773319 Z M22.9832978,72.7773319 L22.9832978,79.3616148 C22.9832978,79.3616148 24.9294456,79.3616148 28.8217412,79.3616148 L28.8217412,72.7775742 L22.9832978,72.7773319 Z M51.424094,72.7773319 L51.424094,79.3616148 C51.424094,79.3616148 53.3702418,79.3616148 57.2625374,79.3616148 L57.2625374,72.7775742 L51.424094,72.7773319 Z M41.9091428,72.7773319 L41.9091428,79.3616148 C41.9091428,79.3616148 43.8552906,79.3616148 47.7475862,79.3616148 L47.7475862,72.7775742 L41.9091428,72.7773319 Z M61.3490566,60.4607189 L18.8133164,60.4607189 L18.8133164,55.8131323 L22.9835586,53.4890968 L61.3495782,53.4890968 L61.3495782,60.4607189 L61.3490566,60.4607189 Z M18.8130556,47.2921532 L18.8130556,27.1519655 L61.3493174,27.1519655 L61.3493174,47.2921532 L18.8130556,47.2921532 Z M12.9751338,11.6593643 L12.9751338,41.8698881 L5.46875,37.2220593 L5.46875,11.6593643 L12.9751338,11.6593643 Z M51.5625,34.375 L57.4009434,34.375 L57.4009434,40.9592828 C57.4009434,40.9592828 55.4547956,40.9592828 51.5625,40.9592828 L51.5625,34.375 Z M22.65625,34.375 L28.4946934,34.375 L28.4946934,40.9592828 C28.4946934,40.9592828 26.5485456,40.9592828 22.65625,40.9592828 L22.65625,34.375 Z M32.8125,34.375 L38.6509434,34.375 L38.6509434,40.9592828 C38.6509434,40.9592828 36.7047956,40.9592828 32.8125,40.9592828 L32.8125,34.375 Z M42.1875,34.375 L48.0259434,34.375 L48.0259434,40.9592828 C48.0259434,40.9592828 46.0797956,40.9592828 42.1875,40.9592828 L42.1875,34.375 Z M49.8286614,4.6875 L49.8286614,20.9547797 L41.8535851,20.9547797 L41.8535851,4.6875 L49.8286614,4.6875 Z M26.7881319,4.6875 L26.7881319,20.9547797 L18.8130556,20.9547797 L18.8130556,4.6875 L26.7881319,4.6875 Z M38.3087879,4.6875 L38.3087879,20.9547797 L30.3329291,20.9547797 L30.3329291,4.6875 L38.3087879,4.6875 Z M58.6902631,7.78597179 L61.3493174,11.5244375 L61.3493174,20.9547797 L53.374241,20.9547797 L53.374241,7.78621402 L58.6902631,7.78621402 L58.6902631,7.78597179 Z" id="Shape" fill="#CAC8C6"></path>
        </g>
    </g>
</svg>