<?xml version="1.0" encoding="UTF-8"?>
<svg width="100px" height="100px" viewBox="0 0 100 100" version="1.1" xmlns="http://www.w3.org/2000/svg" xmlns:xlink="http://www.w3.org/1999/xlink">
    <!-- Generator: Sketch 50.2 (55047) - http://www.bohemiancoding.com/sketch -->
    <title>armor/*/icons/armor-skill</title>
    <desc>Created with Sketch.</desc>
    <defs></defs>
    <g id="*/icons/armor-skill" stroke="none" stroke-width="1" fill="none" fill-rule="evenodd">
        <g id="armor-skill">
            <polygon id="Shape" fill="#CAC8C6" points="50.0001059 0 100 24.9999003 100 74.9997009 50.0001059 100 0 74.9999003 0 25.0000997"></polygon>
            <path d="M93.75,28.1111503 L93.75,71.8890497 L50,93.75 L6.25,71.8890497 L6.25,28.1111503 L50,6.25 L93.75,28.1111503 Z M7.09710342,28.5899404 L7.09710342,71.4100596 L50,92.8480186 L92.9031092,71.4098596 L92.9031092,28.5899404 L50,7.15218144 L7.09710342,28.5899404 Z" id="Shape" fill-opacity="0.621" fill="#111111"></path>
            <g id="Group" transform="translate(22.656250, 17.968750)" fill="#111111">
                <path d="M11.9778442,56.2953223 L46.2948914,56.2953223 L46.2948914,63.975415 L42.1973877,63.975415 L42.1973877,60.1352686 L32.9778442,60.1352686 L32.9778442,63.975415 L28.880127,63.975415 L28.880127,60.1352686 L16.0751343,60.1352686 L16.0751343,63.975415 L11.9778442,63.975415 L11.9778442,56.2953223 Z M36.0510254,27.4952246 L36.0510254,19.8151318 L46.2948914,19.8151318 L46.2948914,27.4952246 L38.0996704,32.2951074 L20.6851196,48.6152295 C20.6851196,48.6152295 4.27416992,48.6104248 0.197174072,27.4952246 L36.0510254,27.4952246 Z M3.27035522,20.2952002 C3.27035522,20.2952002 7.62399292,0.0870849609 32.5168457,0.0870849609 C32.5168457,0.0870849609 42.6071167,0.135131836 47.3192139,7.33515625 C47.3192139,7.33515625 36.0426941,11.2229492 33.4898987,20.2952002 L3.27035522,20.2952002 Z" id="Shape"></path>
                <path d="M40.1483154,15.9751855 C40.1483154,15.9751855 48.0466003,8.29509277 54.4901123,8.29509277 L54.4901123,32.2951074 C54.4901123,32.2951074 42.1973877,38.8961475 42.1973877,43.8153467 L32.9778442,43.8153467 C32.9778442,43.8153467 33.8075562,36.5922998 50.392395,28.4551611 L50.392395,15.9749854 L40.1485291,15.9749854 L40.1483154,15.9751855 Z M24.7824097,48.1351611 L42.1969604,48.1351611 L42.1969604,52.3953174 L24.7824097,52.3953174 L24.7824097,48.1351611 Z" id="Shape"></path>
            </g>
        </g>
    </g>
</svg>