<?xml version="1.0" encoding="UTF-8"?>
<svg width="100px" height="100px" viewBox="0 0 100 100" version="1.1" xmlns="http://www.w3.org/2000/svg" xmlns:xlink="http://www.w3.org/1999/xlink">
    <!-- Generator: Sketch 50.2 (55047) - http://www.bohemiancoding.com/sketch -->
    <title>mdpi/*/icons/svg/armorset_empty</title>
    <desc>Created with Sketch.</desc>
    <defs></defs>
    <g id="*/icons/svg/armorset_empty" stroke="none" stroke-width="1" fill="none" fill-rule="evenodd">
        <g id="Group-11" transform="translate(0.000000, 5.000000)">
            <path d="M53.5,91 C28.9233286,91 9,71.0766714 9,46.5 C9,21.9233286 28.9233286,2 53.5,2 C78.0766714,2 98,21.9233286 98,46.5 C98,71.0766714 78.0766714,91 53.5,91 Z" id="Oval-2" fill="#000000" fill-rule="nonzero"></path>
            <path d="M53,86 C74.5391052,86 92,68.3152476 92,46.5 C92,24.6847524 74.5391052,7 53,7 C31.4608948,7 14,24.6847524 14,46.5 C14,68.3152476 31.4608948,86 53,86 Z" id="Path" fill="#747474"></path>
            <circle id="Path" fill="#000000" cx="53.5" cy="46.5" r="30.5"></circle>
            <path d="M11.3173024,9.65763884 L19.5451516,9.99045616 L20.5543214,0 L99.0996855,71.9199146 L99.4648786,72.9354692 C100.58364,76.0465982 99.9288081,78.6230048 97.6821508,81.5050796 C95.1844509,84.7091989 92.2299936,86.6416183 88.7347468,85.8048584 L87.851148,85.5933254 L0,19.4840981 L10.7339971,16.2516516 L11.3173024,9.65763884 Z" id="Path-43" fill="#000000" fill-rule="nonzero"></path>
            <path d="M90.1825033,81.9474504 C91.557573,82.2786238 93.2224649,81.0063196 94.617459,79.2060048 C96.0124531,77.4056901 96.285592,76.3321211 95.7325246,74.7848501 L23.6115166,8 L23.6115166,13.1456218 L14.8792408,13.1456218 L14.8792408,19.0943935 L8,20.4022938 L90.1825033,81.9474504 Z" id="Path" fill="#A8A8A8"></path>
        </g>
    </g>
</svg>