<?xml version="1.0" encoding="UTF-8"?>
<svg width="100px" height="100px" viewBox="0 0 100 100" version="1.1" xmlns="http://www.w3.org/2000/svg" xmlns:xlink="http://www.w3.org/1999/xlink">
    <!-- Generator: Sketch 50.2 (55047) - http://www.bohemiancoding.com/sketch -->
    <title>armor/*/icons/armor-bonusskill</title>
    <desc>Created with Sketch.</desc>
    <defs></defs>
    <g id="*/icons/armor-bonusskill" stroke="none" stroke-width="1" fill="none" fill-rule="evenodd">
        <g id="armor-bonusskill">
            <polygon id="Shape" fill="#CAC8C6" points="50 0.0498007968 99.7896624 25.0249004 99.7896624 74.9750996 50 99.9505976 0.210126582 74.9752988 0.210126582 25.0250996"></polygon>
            <path d="M93.4092827,28.1976096 L93.4092827,71.801992 L50,93.5762948 L6.5907173,71.801992 L6.5907173,28.1976096 L50,6.42310757 L93.4092827,28.1976096 Z M7.43122363,28.674502 L7.43122363,71.3249004 L50,92.6778884 L92.5689873,71.3247012 L92.5689873,28.674502 L50,7.32171315 L7.43122363,28.674502 Z" id="Shape" fill-opacity="0.75" fill="#111111"></path>
            <path d="M71.3118143,79.8972112 L28.6881857,79.8972112 L28.6881857,72.9978088 L43.7316456,70.1231076 L50,72.9976096 L56.2679325,70.1231076 L71.3118143,72.9976096 L71.3118143,79.8972112 Z M53.1339662,67.2484064 L53.1339662,70.1229084 L50,71.2729084 L46.8658228,70.1231076 L46.8658228,67.2484064 L50,65.5233068 L53.1339662,67.2484064 Z M18.0320675,55.7494024 L27.4343882,55.7494024 L27.4343882,65.523506 L21.1664557,65.523506 L18.0320675,63.2237052 L18.0320675,55.7494024 Z M78.8337553,65.523506 L72.5654008,65.523506 L72.5654008,55.7494024 L81.9677215,55.7494024 L81.9677215,63.2237052 L78.8335443,65.523506 L78.8337553,65.523506 Z M66.2974684,63.2237052 L33.7025316,63.2237052 L33.7025316,55.7494024 L66.2974684,55.7494024 L66.2974684,63.2237052 Z M28.6881857,55.7494024 L31.1953586,55.7494024 L31.1953586,60.6364542 L28.6881857,60.6364542 L28.6881857,55.7494024 Z M71.3118143,60.6364542 L68.8044304,60.6364542 L68.8044304,55.7494024 L71.3118143,55.7494024 L71.3118143,60.6364542 Z M18.0320675,43.675498 L27.4343882,43.675498 L27.4343882,53.4496016 L18.0320675,53.4496016 L18.0320675,43.675498 Z M81.9677215,53.4496016 L72.5654008,53.4496016 L72.5654008,43.675498 L81.9677215,43.675498 L81.9677215,53.4496016 Z M41.4751055,41.9505976 L50,41.3756972 L58.5246835,41.9505976 L63.7898734,46.5501992 L66.2972574,46.5501992 L66.2972574,48.85 L60.6559072,53.4496016 L39.3438819,53.4496016 L33.7025316,48.85 L33.7025316,46.5501992 L36.2097046,46.5501992 L41.4748945,41.9505976 L41.4751055,41.9505976 Z M32.4489451,39.0760956 L36.8367089,39.0760956 L36.8367089,44.2503984 L32.4489451,44.2503984 L32.4489451,39.0758964 L32.4489451,39.0760956 Z M67.5508439,44.2503984 L63.1630802,44.2503984 L63.1630802,39.0758964 L67.5508439,39.0758964 L67.5508439,44.2503984 Z M18.0320675,39.0758964 L27.4343882,39.0758964 L27.4343882,41.3756972 L18.0320675,41.3756972 L18.0320675,39.0758964 Z M81.9677215,41.3756972 L72.5654008,41.3756972 L72.5654008,39.0758964 L81.9677215,39.0758964 L81.9677215,41.3756972 Z M44.3586498,24.7023904 L55.6413502,24.7023904 L55.6413502,31.7420319 L60.0291139,33.5679283 L61.2827004,32.1766932 L63.7898734,32.1766932 L63.7898734,36.7762948 L60.6561181,39.0756972 L39.3438819,39.0756972 L36.2097046,36.7758964 L36.2097046,32.1762948 L38.7168776,32.1762948 L39.9706751,33.5677291 L44.3584388,31.7418327 L44.3584388,24.701992 L44.3586498,24.7023904 Z M23.6736287,34.4762948 L26.8075949,36.7760956 L20.5394515,36.7760956 L20.5394515,29.301992 L23.6736287,29.301992 L23.6736287,34.4762948 Z M79.4605485,36.7760956 L73.1919831,36.7760956 L76.3261603,34.4762948 L76.3261603,29.3017928 L79.4601266,29.3017928 L79.4601266,36.7760956 L79.4605485,36.7760956 Z M71.3118143,34.4762948 L68.8044304,34.4762948 L58.1485232,24.7023904 L58.1485232,20.1027888 L70.6850211,20.1027888 L73.8189873,22.4025896 L73.8189873,31.6017928 L71.3118143,34.4762948 Z M41.8512658,24.7023904 L31.1953586,34.4762948 L28.6881857,34.4762948 L26.1808017,31.6017928 L26.1808017,22.4025896 L29.3149789,20.1027888 L41.8512658,20.1027888 L41.8512658,24.7023904 Z" id="Shape" fill="#111111"></path>
        </g>
    </g>
</svg>