<?xml version="1.0" encoding="UTF-8"?>
<svg width="100px" height="100px" viewBox="0 0 100 100" version="1.1" xmlns="http://www.w3.org/2000/svg" xmlns:xlink="http://www.w3.org/1999/xlink">
    <!-- Generator: Sketch 50.2 (55047) - http://www.bohemiancoding.com/sketch -->
    <title>armor/*/icons/chest</title>
    <desc>Created with Sketch.</desc>
    <defs></defs>
    <g id="*/icons/chest" stroke="none" stroke-width="1" fill="none" fill-rule="evenodd">
        <g id="chest">
            <path d="M71.8958333,24.8487437 L65.1276042,18.7037688 L65.1276042,0.0527638191 L89.5630208,0.0527638191 L90.5140625,0.485175879 C94.6229167,2.39095477 98.4846354,5.27160804 99.6645833,9.60226131 C99.7039063,9.74648241 99.7388021,9.89170854 99.7721354,10.0376884 L99.8786458,10.5386935 L99.8786458,33.581407 L89.2960937,33.581407 L89.2960937,63.2939698 L85.0200521,63.4763819 C84.3351562,63.5527638 83.6565104,63.880402 83.2658854,64.4301508 L83.2492187,73.0628141 C83.4106771,73.080402 83.5278646,73.0964824 83.5278646,73.0964824 C86.2408854,73.4640704 88.7882812,74.7708543 90.4989583,76.8703518 C91.7989583,78.4663317 92.5919271,80.421608 92.9289062,82.4130653 L94.5875,82.4633166 L94.5875,99.9477387 L5.4125,99.9477387 L5.4125,82.4635678 L7.06276042,82.4635678 C7.81171875,77.8479899 11.3583333,73.811809 16.3630208,73.1110553 C16.5330729,73.0869347 16.7510417,73.0628141 16.7510417,73.0628141 L16.7510417,64.4547739 C16.3669271,63.8884422 15.7041667,63.5645729 14.9828125,63.4763819 L10.7039062,63.2939698 L10.7039062,33.581407 L0.121354167,33.581407 L0.121354167,10.5394472 L0.228125,10.0376884 C1.22291667,5.59246231 5.51458333,2.37487437 9.35,0.548743719 L9.48671875,0.484422111 L10.4369792,0.0527638191 L34.8723958,0.0527638191 L34.8723958,18.7037688 L28.1041667,24.8487437 L35.6479167,24.8487437 L35.6479167,12.4507538 L64.3520833,12.4507538 L64.3520833,24.8487437 L71.8958333,24.8487437 Z" id="Shape" fill="#222222"></path>
            <path d="M90.0619792,95.5811558 L9.93802083,95.5811558 L9.93802083,86.8296482 L90.0619792,86.8296482 L90.0619792,95.5809045 L90.0619792,95.5811558 Z M81.7471354,77.3487437 C88.3898437,77.3487437 88.5502604,83.9022613 88.5502604,83.9123116 L11.4497396,83.9123116 C11.4497396,83.9123116 11.6046875,77.3487437 18.2528646,77.3487437 L81.7471354,77.3487437 Z M21.2763021,74.4316583 L21.2763021,63.4919598 C19.6677083,59.2600503 15.2294271,59.1163317 15.2294271,59.1163317 L15.2294271,53.2821608 L22.0322917,53.2821608 C25.3760417,53.2821608 27.3203125,48.9135678 27.3234375,48.9060302 L72.6765625,48.9060302 C72.6825521,48.9201005 74.6268229,53.2819095 77.9677083,53.2819095 L84.7708333,53.2819095 L84.7708333,59.1160804 C84.7708333,59.1160804 80.3322917,59.2600503 78.7236979,63.4922111 L78.7236979,74.431407 L21.2760417,74.431407 L21.2763021,74.4316583 Z M53.7794271,71.5145729 L53.7794271,65.6798995 L46.2205729,65.6798995 L46.2205729,71.5143216 L53.7794271,71.5143216 L53.7794271,71.5145729 Z M40.9294271,65.6798995 L34.8822917,65.6798995 L34.8822917,71.5143216 L40.9291667,71.5143216 L40.9291667,65.6801508 L40.9294271,65.6798995 Z M29.5908854,65.6798995 L23.5440104,65.6798995 L23.5440104,71.5143216 L29.5908854,71.5143216 L29.5908854,65.6801508 L29.5908854,65.6798995 Z M65.1177083,71.5143216 L65.1177083,65.6801508 L59.0708333,65.6801508 L59.0708333,71.5143216 L65.1177083,71.5143216 Z M76.4559896,71.5143216 L76.4559896,65.6801508 L70.4091146,65.6801508 L70.4091146,71.5143216 L76.4559896,71.5143216 Z M21.2763021,50.3648241 L15.2294271,50.3648241 L15.2294271,41.6130653 L21.2763021,44.5301508 L21.2763021,50.3648241 Z M84.7708333,50.3648241 L78.7236979,50.3648241 L78.7236979,44.5301508 L84.7705729,41.6130653 L84.7705729,50.3643216 L84.7708333,50.3648241 Z M59.8265625,16.8170854 L59.8265625,29.2150754 L75.7,29.2150754 C80.2966146,34.1974874 84.7708333,33.5909548 84.7708333,33.5909548 L84.7708333,37.9665829 C72.746875,37.9665829 72.6765625,44.5201005 72.6765625,44.530402 L27.3234375,44.530402 C27.3234375,44.530402 27.2622396,37.9665829 15.2291667,37.9665829 L15.2291667,33.5909548 C15.2291667,33.5909548 19.703125,34.1977387 24.3,29.2150754 L40.1734375,29.2150754 L40.1734375,16.8170854 L59.8265625,16.8170854 Z M4.646875,29.2150754 L4.646875,10.9826633 C5.44973958,7.11231156 11.4401042,4.42336683 11.4497396,4.41909548 L30.346875,4.41909548 L30.346875,16.8170854 L17.496875,29.2150754 L4.646875,29.2150754 Z M88.5502604,4.41909548 C88.5666667,4.42638191 94.5510417,7.11457286 95.353125,10.9826633 L95.353125,29.2150754 L82.503125,29.2150754 L69.653125,16.8170854 L69.653125,4.41909548 L88.5502604,4.41909548 Z M15.2291667,20.4635678 L9.18229167,20.4635678 L9.18229167,26.2977387 L15.2291667,26.2977387 L15.2291667,20.4635678 Z M90.8177083,26.2977387 L90.8177083,20.4635678 L84.7708333,20.4635678 L84.7708333,26.2977387 L90.8177083,26.2977387 Z M15.2291667,10.9826633 L9.18229167,10.9826633 L9.18229167,16.8170854 L15.2291667,16.8170854 L15.2291667,10.9829146 L15.2291667,10.9826633 Z M90.8177083,16.8170854 L90.8177083,10.9829146 L84.7708333,10.9829146 L84.7708333,16.8170854 L90.8177083,16.8170854 Z" id="Shape" fill="#CAC8C6"></path>
        </g>
    </g>
</svg>