<?xml version="1.0" encoding="UTF-8"?>
<svg width="100px" height="100px" viewBox="0 0 100 100" version="1.1" xmlns="http://www.w3.org/2000/svg" xmlns:xlink="http://www.w3.org/1999/xlink">
    <!-- Generator: Sketch 50.2 (55047) - http://www.bohemiancoding.com/sketch -->
    <title>armor/*/icons/head</title>
    <desc>Created with Sketch.</desc>
    <defs></defs>
    <g id="*/icons/head" stroke="none" stroke-width="1" fill="none" fill-rule="evenodd">
        <g id="head" transform="translate(8.593750, 0.000000)">
            <path d="M12.8438614,82.1001141 L21.9041615,79.9264156 L21.9041615,74.0721045 C21.7895366,74.0276974 21.6751465,73.9835156 21.5607565,73.9384321 C14.1564105,71.0073318 7.61433506,66.0008149 3.77909852,59.1740538 C1.23292238,54.6409132 0.0396959196,49.4707434 0.00939548393,44.3177053 L0,39.8515136 L43.8590585,39.8515136 C43.9609389,38.8605685 44.1270122,37.8766724 44.3563145,36.9055357 L8.67743407,36.9055357 L7.33599385,35.6073578 L7.28854666,35.5611473 C3.00326644,31.2601864 1.68085207,24.402994 5.33733953,18.9738198 C6.97121419,16.5476541 9.30458262,14.6232671 11.8030767,13.060224 L12.998652,12.3176996 L16.056882,12.3176996 L16.4449155,11.6168774 C19.2508768,6.60517592 23.8370474,2.45817499 29.4548421,0.481716639 C29.7880416,0.363035995 30.1259059,0.256784841 30.4676753,0.163202081 L31.0908308,0 L58.664697,0 C64.1685715,1.29614912 69.3151827,3.97545842 73.2476625,7.8772054 C77.0359216,11.6362633 79.9670777,16.2841413 81.3531465,21.34025 L82.8125,26.8000809 C82.8125,26.8000809 81.0842007,29.4908865 80.6898253,30.4320034 L81.5004207,30.4320034 L81.5004207,51.7625605 L62.6251283,69.8768643 L62.6251283,80.4924383 L69.4204121,83.3906278 L69.4204121,99.21875 L12.8438614,99.21875 L12.8438614,82.1001141 Z" id="Shape" fill="#222222"></path>
            <path d="M26.6242944,83.7124459 L58.3951813,83.7124459 L65.2031276,86.6123466 L65.2031276,95.3125 L61.4208568,95.3125 L61.4208568,89.5124729 L56.409442,89.5124729 L56.409442,95.3125 L51.8708112,95.3125 L51.8708112,89.5124729 L44.7790533,89.5124729 L44.7790533,95.3125 L37.9708716,95.3125 L37.9708716,89.5124729 L31.9195207,89.5124729 L31.9195207,95.3125 L27.3808898,95.3125 L27.3808898,89.5124729 L22.0858989,89.5124729 L22.0858989,95.3125 L17.5470326,95.3125 L17.5470326,85.8872023 L26.6242944,83.7124459 Z M58.3951813,71.3874729 L58.3951813,80.8123196 L26.6242944,80.8123196 L26.6242944,77.1877256 C33.849486,77.1877256 39.4772377,71.3946905 39.4840624,71.3876985 L58.3951813,71.3874729 Z M33.4324761,71.3874729 L26.6242944,71.3874729 C26.6242944,71.3874729 4.6875,66.1233535 4.6875,44.5623196 L48.5613242,44.5623196 C48.5613242,44.5623196 46.902227,30.0623647 59.151306,30.0623647 C59.151306,30.0623647 64.3789917,30.0303365 66.9010547,34.2756451 C68.8324321,37.554696 68.2168011,41.6694109 65.4015133,44.2963957 C63.5252039,46.0489219 60.4289285,47.5761232 55.3692705,47.4624459 L33.4324761,71.3874729 Z M42.8879179,68.4875722 C42.8879179,68.4875722 51.0949185,54.6514119 63.3119922,50.3623466 C63.3119922,50.3623466 71.1575214,48.2714949 71.2544786,43.8374008 L71.2544786,35.1374729 L77.3063002,35.1374729 L77.3063002,50.3623466 L58.394946,68.4875722 L42.8879179,68.4875722 Z M63.4306,38.7622925 L59.1515413,34.6611106 L54.8724827,38.7622925 L59.1515413,42.8636999 L63.4306,38.7622925 Z M45.5354133,32.962491 L10.7390863,32.962491 C10.7390863,32.962491 2.08283513,24.7005819 14.5213572,17.0124729 L61.4208568,17.0124729 C61.4208568,17.0124729 72.4320846,19.6256992 77.3063002,25.7124008 C77.3063002,25.7124008 78.2000947,32.4038028 71.2547139,32.2375722 C71.2547139,32.2375722 58.4380119,17.4507173 45.5354133,32.962491 Z M77.3063002,22.8125 C68.9390379,13.9213055 58.4078893,14.1123466 58.394946,14.1123466 L20.5731788,14.1123466 C24.7738716,6.48964724 31.9110487,4.6893044 31.919756,4.6875 L58.3954166,4.6875 C73.4722561,8.20698755 77.3063002,22.8125 77.3063002,22.8125 Z" id="Shape" fill="#CAC8C6"></path>
        </g>
    </g>
</svg>