<?xml version="1.0" encoding="UTF-8"?>
<svg width="100px" height="100px" viewBox="0 0 100 100" version="1.1" xmlns="http://www.w3.org/2000/svg" xmlns:xlink="http://www.w3.org/1999/xlink">
    <!-- Generator: Sketch 50.2 (55047) - http://www.bohemiancoding.com/sketch -->
    <title>armor/*/icons/leg</title>
    <desc>Created with Sketch.</desc>
    <defs></defs>
    <g id="*/icons/leg" stroke="none" stroke-width="1" fill="none" fill-rule="evenodd">
        <g id="leg">
            <path d="M92.0167553,54.4698324 L99.7821809,64.9558659 L99.7821809,85.2787709 C99.7659574,89.4835196 97.9632979,93.6446927 94.8909574,96.3290503 C93.0465426,97.9391061 90.8481383,99.127095 88.5292553,99.7164804 L87.968617,99.8527933 L22.6053191,99.8527933 L22.6053191,97.4203911 L7.42446809,97.4203911 L0.218351064,92.8832402 L0.218351064,55.4793296 L18.5340426,50.9536313 L22.6053191,53.0916201 L22.6053191,51.2268156 L41.9045213,51.2268156 L41.9045213,17.1527933 L38.8167553,17.1527933 L38.8167553,0.147486034 L86.6585106,0.147486034 L86.6585106,17.1530726 L83.5707447,17.1530726 L83.5707447,54.4698324 L92.0167553,54.4698324 Z" id="Shape" fill="#222222"></path>
            <path d="M46.5263298,69.2876876 L51.15931,69.2876876 C52.7018617,69.2876876 52.7018617,71.5759329 52.7018617,73.1072626 L52.7018617,94.998324 L46.5263298,94.998324 L46.5263298,69.2876876 Z M43.4385638,94.9986034 L27.2271277,94.9986034 L27.2271277,56.0810056 L43.4385638,56.0810056 L43.4385638,94.9986034 Z M89.7566489,59.3240223 L95.1603723,66.6212291 L95.1603723,85.2692737 C95.1603723,93.1977654 87.4529255,94.9955307 87.4406915,94.998324 L72.7731383,94.998324 L72.7731383,80.4044693 C73.2348404,74.8804469 83.5808511,69.053352 83.5808511,69.053352 L83.5808511,59.3243017 L89.756383,59.3243017 L89.7566489,59.3240223 Z M68.9135638,94.9986034 L56.5619681,94.9986034 L56.5619681,71.4857542 C56.5619681,71.4857542 56.4058511,66.4751397 51.9300532,65.8103352 L46.5265957,65.8103352 L46.5265957,56.0810056 L78.9494681,56.0810056 L78.9494681,66.6212291 C78.9494681,66.6212291 70.5585106,70.6645251 68.9135638,77.1611732 L68.9135638,94.9986034 Z M24.1393617,92.5662011 L8.7037234,92.5662011 L4.84042553,90.1337989 L4.84042553,85.609418 L14.8757979,85.609418 L14.8757979,81.8371253 L4.84042553,81.8371253 L4.84042553,77.5651619 L14.8757979,77.5651619 L14.8757979,73.1072626 L4.84042553,73.1072626 L4.84042553,69.099937 L14.8757979,69.099937 L14.8757979,65.0297542 L4.84042553,65.0297542 L4.84042553,59.3243017 L17.9638298,56.0810056 L24.1393617,59.3240223 L24.1393617,92.5662011 Z M37.262766,83.647486 L33.4029255,83.647486 L33.4029255,90.9446927 L37.262766,90.9446927 L37.262766,83.647486 Z M37.262766,73.1072626 L33.4029255,73.1072626 L33.4029255,80.4044693 L37.262766,80.4044693 L37.262766,73.1072626 Z M37.262766,62.5673184 L33.4029255,62.5673184 L33.4029255,69.8642458 L37.262766,69.8642458 L37.262766,62.5673184 Z M46.5263298,32.5681564 L78.9492021,32.5681564 L78.9492021,49.5946927 L46.5263298,49.5946927 L46.5263298,32.5681564 Z M46.5263298,29.3251397 L46.5263298,15.5418994 L78.9492021,15.5418994 L78.9492021,29.3251397 L46.5263298,29.3251397 Z M75.475266,18.7849162 L69.6841755,18.7849162 L69.6841755,22.8388268 L75.475266,22.8388268 L75.475266,18.7849162 Z M56.4029255,18.7849162 L49.6140957,18.7849162 L49.6140957,22.8388268 L56.4029255,22.8388268 L56.4029255,18.7849162 Z M66.5591755,18.7849162 L59.5279255,18.7849162 L59.5279255,22.8388268 L66.5591755,22.8388268 L66.5591755,18.7849162 Z M43.4385638,5.00167598 L82.0369681,5.00167598 L82.0369681,12.2986034 L43.4385638,12.2986034 L43.4385638,5.00167598 Z" id="Shape" fill="#CAC8C6"></path>
        </g>
    </g>
</svg>