<?xml version="1.0" encoding="UTF-8"?>
<svg width="100px" height="100px" viewBox="0 0 100 100" version="1.1" xmlns="http://www.w3.org/2000/svg" xmlns:xlink="http://www.w3.org/1999/xlink">
    <!-- Generator: Sketch 50.2 (55047) - http://www.bohemiancoding.com/sketch -->
    <title>armor/*/icons/waist</title>
    <desc>Created with Sketch.</desc>
    <defs></defs>
    <g id="*/icons/waist" stroke="none" stroke-width="1" fill="none" fill-rule="evenodd">
        <g id="waist" transform="translate(0.000000, 3.906250)">
            <polygon id="Shape" fill="#111111" points="90.5128154 38.7263282 93.4319104 38.7263282 93.4319104 51.11886 100 51.11886 100 92.1875 79.7151808 92.1875 67.8713486 79.6177872 67.8713486 55.0101715 63.5100547 55.0101715 63.5100547 92.1875 36.4899453 92.1875 36.4899453 55.0101715 32.1286514 55.0101715 32.1286514 79.6177872 20.2848192 92.1875 0 92.1875 0 51.11886 6.56808959 51.11886 6.56808959 38.7265951 9.48718464 38.7265951 9.48718464 0 90.5128154 0"></polygon>
            <path d="M40.4885513,55.7728065 L59.5114487,55.7728065 L59.5114487,88.28125 L40.4885513,88.28125 L40.4885513,55.7722732 L40.4885513,55.7728065 Z M96.09375,88.28125 L81.4608295,88.28125 L71.9493808,78.2189603 L71.9493808,52.6763071 L77.8023473,52.6763071 L77.8023473,75.1229943 L84.3873128,82.0890512 L96.09375,82.0890512 L96.09375,88.28125 Z M28.0506192,52.6763071 L28.0506192,78.2189603 L18.5391705,88.28125 L3.90625,88.28125 L3.90625,82.0893179 L15.6126872,82.0893179 L22.1974006,75.123261 L22.1974006,52.6763071 L28.0506192,52.6763071 Z M52.9264833,85.1852839 L52.9264833,81.3149264 L47.0735167,81.3149264 L47.0735167,85.1850173 L52.9264833,85.1850173 L52.9264833,85.1852839 Z M96.09375,78.9930852 L86.5823013,78.9930852 L80.7293347,72.8008864 L80.7293347,68.9307955 L96.09375,68.9307955 L96.09375,78.9930852 Z M19.2706653,68.9310622 L19.2706653,72.8011531 L13.4174467,78.9930852 L3.90625,78.9930852 L3.90625,68.9310622 L19.2709174,68.9310622 L19.2706653,68.9310622 Z M52.9264833,75.4328576 L52.9264833,71.5627667 L47.0735167,71.5627667 L47.0735167,75.4328576 L52.9264833,75.4328576 Z M52.9264833,66.1444261 L52.9264833,62.2743352 L47.0735167,62.2743352 L47.0735167,66.1444261 L52.9264833,66.1444261 Z M96.0934979,65.8350961 L80.7288306,65.8350961 L80.7288306,55.7728065 L96.0934979,55.7728065 L96.0934979,65.8348295 L96.0934979,65.8350961 Z M19.2706653,55.7725398 L19.2706653,65.8345628 L3.90625,65.8345628 L3.90625,55.7725398 L19.2709174,55.7725398 L19.2706653,55.7725398 Z M89.5087845,51.1283241 L80.7288306,51.1283241 L80.7288306,43.3884089 L89.5085325,43.3884089 L89.5085325,51.1285907 L89.5087845,51.1283241 Z M68.2908986,51.1283241 L59.5111967,51.1283241 L59.5111967,43.3884089 L68.2908986,43.3884089 L68.2908986,51.1285907 L68.2908986,51.1283241 Z M19.2709174,43.3884089 L19.2709174,51.1285907 L10.4912155,51.1285907 L10.4912155,43.3884089 L19.2706653,43.3884089 L19.2709174,43.3884089 Z M40.4885513,43.3884089 L40.4885513,51.1285907 L31.7088494,51.1285907 L31.7088494,43.3884089 L40.4885513,43.3884089 Z M45.610023,39.5183181 L54.389977,39.5183181 L54.389977,47.2584998 L45.610023,47.2584998 L45.610023,39.5183181 Z M77.8028514,46.484375 L71.9496328,46.484375 L71.9496328,43.3884089 L77.8025994,43.3884089 L77.8025994,46.484375 L77.8028514,46.484375 Z M28.0508713,43.3884089 L28.0508713,46.484375 L22.1979048,46.484375 L22.1979048,43.3884089 L28.0508713,43.3884089 Z M52.9267353,20.1678636 L71.9496328,20.1678636 L71.9496328,32.7370591 C71.9496328,35.0778334 70.6963619,37.1892769 68.7720921,38.0895337 L65.0253869,39.8433812 C63.8385534,40.4015763 62.4912738,40.4408753 61.2771693,39.9527133 C60.0259149,39.4503188 58.3411075,38.7745929 56.8118246,38.1615329 C54.482233,37.2263432 52.9267353,34.748237 52.9267353,31.9693342 L52.9267353,20.1678636 Z M47.0737688,20.1678636 L47.0737688,31.9693342 C47.0737688,34.7479704 45.5182711,37.2263432 43.1886795,38.1612663 L38.7233349,39.9524466 C37.5092634,40.440693 36.1619842,40.4014899 34.9751173,39.8433812 L31.2284121,38.0895337 C29.3041422,37.1892769 28.0508713,35.0778334 28.0508713,32.7370591 L28.0508713,20.1678636 L47.0737688,20.1678636 Z M86.5825533,25.5859375 L79.9978399,25.5859375 L79.9978399,31.7781363 L86.5825533,31.7781363 L86.5825533,40.006046 C85.4925875,40.4051659 84.304692,40.3862881 83.22655,39.9527133 C81.9752957,39.4503188 80.2904883,38.7745929 78.7612054,38.1615329 C76.4316138,37.2263432 74.8761161,34.748237 74.8761161,31.9693342 L74.8761161,20.1678636 L86.5825533,20.1678636 L86.5825533,25.5859375 Z M25.124388,20.1678636 L25.124388,31.9693342 C25.124388,34.7479704 23.5688903,37.2263432 21.2392987,38.1612663 L16.7739541,39.9524466 C15.6958121,40.3860215 14.5079166,40.4048992 13.4179508,40.0057794 L13.4179508,31.7781363 L20.0026642,31.7781363 L20.0026642,25.5862042 L13.4176987,25.5862042 L13.4176987,20.1678636 L25.124136,20.1678636 L25.124388,20.1678636 Z M66.827909,25.5859375 L58.0482071,25.5859375 L58.0482071,31.7781363 L66.8276569,31.7781363 L66.8276569,25.5862042 L66.827909,25.5859375 Z M41.9517929,31.7781363 L41.9517929,25.5862042 L33.1723431,25.5862042 L33.1723431,31.7781363 L41.9517929,31.7781363 Z M13.4176987,13.9756648 L19.2706653,13.9756648 L19.2706653,7.78373271 L13.4176987,7.78373271 L13.4176987,4.6875 L86.5823013,4.6875 L86.5823013,7.78346605 L80.7293347,7.78346605 L80.7293347,13.9756648 L86.5823013,13.9756648 L86.5823013,17.0716309 L13.4176987,17.0716309 L13.4176987,13.9756648 Z M55.8529665,7.78373271 L52.9264833,7.78373271 L52.9264833,13.9756648 L55.8529665,13.9756648 L55.8529665,7.78373271 Z M68.2911506,7.78373271 L61.7064372,7.78373271 L61.7064372,13.9756648 L68.2911506,13.9756648 L68.2911506,7.78373271 Z M77.8025994,7.78373271 L71.2176339,7.78373271 L71.2176339,13.9756648 L77.8028514,13.9756648 L77.8028514,7.78373271 L77.8025994,7.78373271 Z M47.0732647,13.9756648 L47.0732647,7.78373271 L44.1467814,7.78373271 L44.1467814,13.9756648 L47.0732647,13.9756648 Z M38.2938148,13.9756648 L38.2938148,7.78373271 L31.7088494,7.78373271 L31.7088494,13.9756648 L38.2935628,13.9756648 L38.2938148,13.9756648 Z M28.7823661,13.9756648 L28.7823661,7.78373271 L22.1971486,7.78373271 L22.1971486,13.9756648 L28.782114,13.9756648 L28.7823661,13.9756648 Z" id="Shape" fill="#CAC8C6"></path>
        </g>
    </g>
</svg>