<?xml version="1.0" encoding="UTF-8"?>
<svg width="512px" height="512px" viewBox="0 0 512 512" version="1.1" xmlns="http://www.w3.org/2000/svg" xmlns:xlink="http://www.w3.org/1999/xlink">
    <!-- Generator: Sketch 53.2 (72643) - https://sketchapp.com -->
    <title>ic_element_dragon</title>
    <desc>Created with Sketch.</desc>
    <g id="ic_element_dragon" stroke="none" stroke-width="1" fill="none" fill-rule="evenodd">
        <g id="Group" transform="translate(93.000000, 59.000000)">
            <path d="M215.825777,385.937023 C215.825777,390.783701 211.842183,394.704681 206.947124,394.676124 L123.408945,394.188774 C118.625456,394.160868 114.734974,390.365346 114.636189,385.630147 L113.739372,342.64196 C37.7187512,294.926449 -0.421958993,242.213564 0.644280265,184.466991 C1.37286397,145.007544 12.9103928,108.325358 31.556709,79.3575749 C48.0265854,53.7709763 68.6677616,36.7903695 84.6429548,36.6706552 C89.490119,36.6343317 93.4599227,40.4749648 93.5353363,45.2736938 C94.3669651,98.1920045 97.4390088,139.725213 102.872157,168.336122 C105.640524,182.914315 108.955886,193.516235 112.281231,200.259704 C113.539512,150.647236 118.383386,104.188786 125.866222,68.4893711 C135.031356,24.7639795 146.732656,0.133494109 164.238683,0.6800658 C181.272058,1.21188038 193.766029,28.2224868 204.005309,73.9749769 C212.07997,110.055233 217.366348,154.075807 218.636698,197.380652 C226.404583,173.851553 231.368203,125.918258 231.950567,47.2099437 C231.98424,42.6588772 235.540046,38.8952511 240.124157,38.5586456 C254.252673,37.5212063 275.377587,55.3033417 292.24754,81.2082098 C312.166425,111.794903 324.131352,149.856922 323.895499,190.821681 C323.548962,251.011064 287.1097,301.809646 215.825777,342.888092 L215.825777,385.937023 Z" id="Path-10" fill="#000000" fill-rule="nonzero"></path>
            <path d="M129.603534,155.699684 L200.095801,156.353003 C204.191237,185.802557 207.396117,214.049364 208.467339,229.451653 C219.258408,228.637706 226.787429,223.933495 232.840062,209.699185 C236.93007,200.080489 240.348697,186.013465 243.012557,166.865338 L304.875417,166.979188 C305.820062,174.741033 306.288858,182.669423 306.242495,190.722048 C305.929171,245.142624 271.843514,291.523807 202.65809,330.215878 C199.886459,331.765917 198.172486,334.673466 198.172486,337.825162 L198.172486,377.146125 L132.108212,376.760715 L131.290509,337.564795 C131.228795,334.6066 129.659494,331.880215 127.120371,330.319914 C53.1516956,284.865858 17.3426958,236.34195 18.294622,184.786468 C18.405697,178.770745 18.790009,172.827722 19.4314211,166.978658 L84.4603853,166.853995 C88.3693093,189.274723 93.7456591,205.471437 100.921026,215.308366 C106.446023,222.882752 112.547502,228.32815 123.654177,229.856874 C125.343498,200.194295 127.343209,176.164859 129.603534,155.699684 Z" id="Combined-Shape" fill="#7077B9"></path>
            <path d="M21.8646666,150.973964 C26.3784382,127.849429 34.9389304,106.624434 46.4436698,88.75137 C56.2206672,73.5624213 67.448365,62.3291149 76.103174,57.2136864 C76.9214941,94.4882704 78.7949657,125.748006 82.0516165,150.858583 L21.8646666,150.973964 L21.8646666,150.973964 Z M131.636484,138.728918 C135.031658,112.539371 138.916439,92.2444512 143.15121,72.0410319 C147.007699,53.6423394 151.448137,39.0008302 156.082775,29.2452151 C159.819039,21.3806196 162.979468,18.1279447 163.682278,18.1498878 C164.449644,18.1738465 168.235923,22.4942739 172.447452,31.5991425 C177.497904,42.5176694 182.445692,58.4334738 186.770059,77.7561759 C190.400128,93.9765224 194.223701,116.354746 197.650195,139.359958 C167.232112,138.860639 145.227541,138.650292 131.636484,138.728918 L131.636484,138.728918 Z M245.029702,149.976364 C247.446832,126.303792 248.961888,96.5357424 249.470683,59.8815809 C250.965681,60.9114584 252.592273,62.1444037 254.296681,63.5791084 C261.956671,70.0269918 270.083348,79.4278115 277.410958,90.6798155 C288.746186,108.085767 297.267484,128.209983 302.006283,150.009976 L245.029702,149.976364 L245.029702,149.976364 Z" id="Path" fill="#534079"></path>
        </g>
    </g>
</svg>