<?xml version="1.0" encoding="UTF-8"?>
<svg width="512px" height="512px" viewBox="0 0 512 512" version="1.1" xmlns="http://www.w3.org/2000/svg" xmlns:xlink="http://www.w3.org/1999/xlink">
    <!-- Generator: Sketch 53.2 (72643) - https://sketchapp.com -->
    <title>ic_element_water</title>
    <desc>Created with Sketch.</desc>
    <g id="ic_element_water" stroke="none" stroke-width="1" fill="none" fill-rule="evenodd">
        <g id="Group" transform="translate(106.000000, 56.000000)">
            <path d="M149.821276,0.00560074756 C161.378701,0.217143393 170.050275,6.6450568 175.945117,17.0537692 C179.693545,23.6724895 182.106672,30.9896178 185.022928,42.6764434 C185.27147,43.6724719 185.51875,44.677264 185.850928,46.0370982 C186.252658,47.6839309 186.458689,48.5280659 186.645557,49.2892059 C187.894536,54.3764881 188.719024,57.454477 189.602505,60.1847306 L189.988236,61.6635787 C192.943339,76.4434332 197.854916,91.8326294 204.557235,108.562523 C207.907073,116.924171 209.743937,121.127536 216.308515,135.793567 C219.073871,141.971696 222.04392,147.628883 225.241892,152.911136 C232.229338,164.452652 253.291245,189.396384 254.36743,191.027117 C255.489872,192.727942 269.351739,207.491848 274.03008,213.326858 C290.397072,233.740408 299.517974,256.038225 299.175411,284.012145 C298.250571,359.53527 233.94838,399.553849 149.959824,399.165585 C66.1846312,398.778306 1.19826541,357.725884 0.0115461678,282.449216 C-0.483564118,251.043091 14.9834822,219.990428 38.8784806,194.925047 C62.249311,170.409508 77.5232033,148.809625 85.6380202,129.363129 C86.728933,126.748846 91.2179298,116.21121 92.0247046,114.298986 C94.8620432,107.573905 97.1938699,101.869186 99.4296276,96.1104619 C104.45045,83.178141 108.447571,71.2948218 111.43944,59.9144242 C111.233769,60.6967504 114.59974,43.0336908 116.679499,35.5160204 C122.766859,13.512138 132.072103,-0.319273247 149.821276,0.00560074756 Z" id="Path-5" fill="#000000" fill-rule="nonzero"></path>
            <path d="M162.643626,57.2831961 C162.451755,56.5016777 162.240575,55.6364457 161.841686,54.0012347 C161.518986,52.6801987 161.281063,51.7134289 161.045093,50.7677837 C158.683938,41.3055093 156.832394,35.6912233 154.615294,31.7764192 C152.938751,28.8160923 152.053033,28.1595431 151.025008,28.1407266 C150.340688,28.128201 146.915725,33.2191009 143.862348,44.2560952 C142.152566,50.4364167 138.82913,67.8762718 138.710611,68.3270943 C135.436728,80.7802074 131.13284,93.5755372 125.776878,107.371088 C123.436578,113.399086 121.013376,119.32735 118.084817,126.268643 C117.243734,128.262185 112.783891,138.731383 111.738292,141.237076 C102.227087,164.029902 85.1457449,188.185827 59.712832,214.86445 C40.1849829,235.348777 27.7788634,260.256122 28.1487525,283.719142 C29.0597251,341.504489 80.6130568,374.071153 151.76994,374.400099 C223.041903,374.729577 273.704457,343.19965 274.412564,285.37513 C274.672735,264.129331 267.882293,247.528777 255.079693,231.560875 C251.668462,227.306254 236.596261,211.253253 233.977008,207.284326 C234.157345,207.557589 212.645804,182.081353 204.301024,168.297858 C200.542457,162.089643 197.065521,155.466965 193.851996,148.287575 C187.134256,133.279362 185.219171,128.897001 181.689634,120.086798 C174.539408,102.23887 169.210048,85.6081947 165.885537,69.2740595 C164.853135,66.0025791 163.937467,62.5532088 162.643626,57.2831961 Z" id="Path" fill="#9FDCF3"></path>
            <path d="M48.241206,277.386935 C55.0266301,324.33448 90.5739639,347.257415 154.883207,346.15574 C219.192451,345.054065 252.213473,322.209902 253.946274,277.623251 C229.30023,310.615926 196.305074,326.728949 154.960807,325.962321 C113.61654,325.195693 78.0433396,309.003897 48.241206,277.386935 Z" id="Path-4" fill="#4B92A5"></path>
        </g>
    </g>
</svg>