<?xml version="1.0" encoding="UTF-8"?>
<svg width="512px" height="512px" viewBox="0 0 512 512" version="1.1" xmlns="http://www.w3.org/2000/svg" xmlns:xlink="http://www.w3.org/1999/xlink">
    <!-- Generator: Sketch 53.2 (72643) - https://sketchapp.com -->
    <title>ic_element_fire</title>
    <desc>Created with Sketch.</desc>
    <g id="ic_element_fire" stroke="none" stroke-width="1" fill="none" fill-rule="evenodd">
        <g id="Group-2" transform="translate(86.000000, 56.000000)">
            <path d="M324.961451,253.281866 C324.476336,286.351713 319.690255,311.344634 302.906483,337.009461 C278.259961,374.697575 233.518499,397.188144 165.395831,399.852161 C76.1909306,403.340623 -3.49320866,344.847176 0.118196076,250.428623 C3.56692144,160.263248 46.5621298,95.1348136 104.365732,57.0720788 C163.190986,18.3366028 258.062431,-5.93415373 339.393939,7.97501972 C278.184626,63.1839954 261.076081,101.476116 257.312463,133.688063 C303.10133,151.501355 325.854993,192.369975 324.961451,253.281866 Z" id="Path-3" fill="#000000" fill-rule="nonzero"></path>
            <path d="M106.215934,87.1117017 C57.668565,124.153386 31.4886795,171.202492 28.3858572,252.797331 C25.4782776,329.257879 90.0914605,376.964766 164.485433,374.038541 C223.80467,371.705268 260.054151,353.3772 279.46815,323.517298 C292.661455,303.2252 296.594207,282.568635 297.007488,254.231349 C297.793918,200.308579 278.662965,169.313319 238.865651,157.537863 L229.073762,154.640583 L229.264385,144.420413 C229.945682,107.89293 262.121993,57.4205488 293.010254,26.8431586 C224.890059,22.5674094 140.764639,60.7510107 106.215934,87.1117017 Z" id="Mask" fill="#EF4E25"></path>
            <path d="M58.6467148,334.955183 C54.0633061,330.186769 49.9136461,325.024189 46.2579035,319.490243 C92.8163262,335.99339 123.659408,344.381785 138.787145,344.655423 C218.396681,346.09544 225.688273,295.448075 225.02752,277.358539 C223.852507,245.190028 195.710915,239.953987 179.578708,239.509962 C149.516691,238.682532 138.740951,262.113226 138.884008,270.463048 C139.359973,298.243831 174.838574,301.18509 183.7905,271.17574 C184.967807,267.229079 198.75302,267.362584 196.154443,283.983205 C195.662283,307.014039 178.784429,322.468499 154.741095,321.448392 C114.22466,319.729367 97.9069569,289.870588 98.263214,267.869804 C98.9630212,224.652967 134.069357,200.327218 168.340299,199.997008 C209.754444,199.597971 258.327549,213.552222 259.256724,271.866578 C259.764961,303.763129 242.952865,361.237035 150.943491,361.096826 C108.766615,361.032554 80.5710626,344.750552 58.6467148,334.955183 Z" id="Mask" fill="#AA391C"></path>
        </g>
    </g>
</svg>