<?xml version="1.0" encoding="UTF-8"?>
<svg width="512px" height="512px" viewBox="0 0 512 512" version="1.1" xmlns="http://www.w3.org/2000/svg" xmlns:xlink="http://www.w3.org/1999/xlink">
    <!-- Generator: Sketch 53.2 (72643) - https://sketchapp.com -->
    <title>ic_status_stun</title>
    <desc>Created with Sketch.</desc>
    <g id="ic_status_stun" stroke="none" stroke-width="1" fill="none" fill-rule="evenodd">
        <g id="Group-18" transform="translate(58.000000, 56.000000)">
            <path d="M247.428874,84.6011272 C263.615686,84.6011272 271.715641,104.242319 260.261032,115.717212 L202.20392,173.877127 L220.096656,212.080695 L224.488082,212.080695 L245.733407,144.181013 C251.015847,127.298429 274.764465,127.116324 280.303477,143.915929 L302.778143,212.080695 L375.670414,212.080695 C391.949216,212.080695 400.006787,231.91275 388.367128,243.331048 L330.443629,300.152969 L351.311362,373.291282 C355.814491,389.074082 338.851138,402.313764 324.711595,394.052063 L263.176559,358.097291 L203.332996,393.950623 C189.288144,402.365141 172.183923,389.321295 176.505773,373.491922 L196.544641,300.09681 L125.937013,236.739939 L72.2548984,266.74577 C58.0502913,274.772609 41.3150019,261.411411 45.9209157,245.721122 L66.8161875,174.540272 L8.78765871,115.63139 C-2.54985236,104.121877 5.57623445,84.6011272 21.704919,84.6011272 L94.6732788,84.6011272 L116.168681,16.3711893 C121.459657,-0.423239183 145.061714,-0.66172502 150.688742,16.0223831 L173.818207,84.6011272 L247.428874,84.6011272 Z" id="Path-49" fill="#000000" fill-rule="nonzero"></path>
            <polygon id="Path" fill="#EAD75A" points="133.485587 17.7813527 107.979751 102.822702 21.704919 102.822702 87.2645961 169.376987 63.3424091 250.869183 133.485587 212.279916 152.875359 230.30227 216.842872 294.720941 194.021861 378.306039 263.061025 336.94346 333.851286 378.306039 310.002889 294.720941 375.670414 230.30227 289.656685 230.30227 263.061025 149.638692 237.821969 230.30227 207.653165 230.30227 180.99223 169.376987 247.428874 102.822702 160.790767 102.822702"></polygon>
            <polygon id="Path-50" fill="#000000" points="133.470559 212.276552 215.931086 212.276552 210.334476 230.320044 145.382835 230.320044"></polygon>
        </g>
    </g>
</svg>