<?xml version="1.0" encoding="UTF-8"?>
<svg width="512px" height="512px" viewBox="0 0 512 512" version="1.1" xmlns="http://www.w3.org/2000/svg" xmlns:xlink="http://www.w3.org/1999/xlink">
    <!-- Generator: Sketch 53.2 (72643) - https://sketchapp.com -->
    <title>ic_status_blast</title>
    <desc>Created with Sketch.</desc>
    <g id="ic_status_blast" stroke="none" stroke-width="1" fill="none" fill-rule="evenodd">
        <g id="Group-10" transform="translate(56.000000, 60.000000)">
            <polygon id="Path-41" fill="#000000" fill-rule="nonzero" points="0 197.064523 96.9980413 208.80081 65.2984463 0 187.057606 137.19883 247.733215 2.59010342 279.214285 157.652185 383.299866 98.3771506 337.149303 228.357375 400 220.380378 342.472128 317.847475 383.78762 315.015174 313.196174 392 102.5467 392 9.64103933 318.425148 75.3447345 317.546187"></polygon>
            <polygon id="Path" fill="#C48156" points="306.056089 376 345.403221 336.487971 306.056089 346.426245 368 243.894046 306.056089 256.542406 350.716075 138.402916 265.828564 193.113973 241.303303 62.5516403 193.506675 177.020656 89.0828024 56 122.072804 236.082625 36 222.613852 116.005327 346.426245 55.8984284 336.487971 109.023154 376"></polygon>
            <polygon id="Path-42" fill="#B0612D" fill-rule="nonzero" points="152.687755 168 209.354988 276.187854 265.844573 201.380307 254.951964 300.269689 316 282.037035 260.090066 375.919771 156.136286 375.756455 92 267.475867 160.213892 307.825755"></polygon>
            <polygon id="Path" fill="#F79750" points="173.165007 376 240.757779 376 276 317.25561 233.929966 329.713933 240.757779 268.251754 205.916918 314 173.165007 252 178.089295 342.712468 140 320.372581"></polygon>
        </g>
    </g>
</svg>