<?xml version="1.0" encoding="UTF-8"?>
<svg width="512px" height="512px" viewBox="0 0 512 512" version="1.1" xmlns="http://www.w3.org/2000/svg" xmlns:xlink="http://www.w3.org/1999/xlink">
    <!-- Generator: Sketch 53.2 (72643) - https://sketchapp.com -->
    <title>ic_status_sleep</title>
    <desc>Created with Sketch.</desc>
    <g id="ic_status_sleep" stroke="none" stroke-width="1" fill="none" fill-rule="evenodd">
        <g id="Group-17" transform="translate(82.000000, 56.000000)">
            <g id="Group-16" transform="translate(36.000000, 256.000000)">
                <polygon id="Path-48" fill="#000000" fill-rule="nonzero" points="156.625316 92.2882444 156.625316 140.294705 0.86953047 140.294705 0.86953047 101.319686 55.2412206 50.7406323 0.86953047 50.7406323 0.86953047 0.543285037 156.625316 0.543285037 156.625316 41.6860064 102.493862 92.2882444"></polygon>
                <polygon id="Path" fill="#5B88D9" points="16.8695305 16.543285 16.8695305 34.7406323 95.9320614 34.7406323 16.8695305 108.288244 16.8695305 124.294705 140.625316 124.294705 140.625316 108.288244 61.9481802 108.288244 140.625316 34.7406323 140.625316 16.543285"></polygon>
            </g>
            <g id="Group-14">
                <polygon id="Path-46" fill="#000000" fill-rule="nonzero" points="212.723281 135.809032 212.723281 212.867415 0.865886857 212.867415 0.865886857 144.644071 81.9722063 74.6817782 0.865886857 74.6817782 0.865886857 1.95476459 212.723281 1.95476459 212.723281 65.2762969 140.038357 135.809032"></polygon>
                <polygon id="Path" fill="#5B88D9" points="17.1677736 18.2566514 17.1677736 58.3798914 125.828859 58.3798914 17.1677736 152.110919 17.1677736 196.565528 196.421394 196.565528 196.421394 152.110919 99.8303212 152.110919 196.421394 58.3798914 196.421394 18.2566514"></polygon>
            </g>
            <g id="Group-15" transform="translate(164.000000, 92.000000)">
                <polygon id="Path-47" fill="#000000" fill-rule="nonzero" points="183.532588 122.717639 183.532588 195.417584 27.1653748 195.025212 18.0974631 184.960066 16.9398874 173.129923 1.6066476 164.536069 1.6066476 131.23948 72.2660243 73.4462144 42.1161751 73.4462144 34.1102427 57.5590607 18.4221471 48.7543703 18.4221471 0.95708232 183.532588 0.95708232 183.532588 64.9347661 112.732702 122.717639"></polygon>
                <polygon id="Path" fill="#5B88D9" points="34.7777026 16.9570823 34.7777026 57.4462144 117.326518 57.4462144 17.9622032 138.717639 17.9622032 179.417584 167.177033 179.417584 167.177033 138.717639 67.5972207 138.717639 167.177033 57.4462144 167.177033 16.9570823"></polygon>
            </g>
        </g>
    </g>
</svg>