<svg width="512" height="512" viewBox="0 0 512 512" fill="none" xmlns="http://www.w3.org/2000/svg">
<rect width="512" height="512" fill="white"/>
<path d="M317.913 401.307L341.435 422.396C345.522 426.06 351.798 425.745 355.497 421.691L410.85 361.03C410.851 361.029 410.851 361.028 410.85 361.027C410.85 361.026 410.85 361.024 410.851 361.024L448.018 328.228C452.344 324.412 452.552 317.738 448.473 313.659L418.487 283.673C418.083 283.268 418.099 282.607 418.524 282.224L439.328 263.433C441.427 261.537 442.625 258.841 442.625 256.012V126.089C442.625 123.128 441.313 120.32 439.042 118.42L403.535 88.7098C399.165 85.0535 392.628 85.7817 389.17 90.3101L373.54 110.778C373.175 111.256 372.475 111.306 372.046 110.885L348.433 87.7464C346.564 85.9148 344.052 84.8888 341.435 84.8886L338.633 84.8884C329.12 84.8877 326.229 84.8878 320.092 84.8879H320.086L278.201 84.8879C277.376 84.8879 276.906 85.8317 277.403 86.4905L297.518 113.131C301.842 117.86 305.456 130.307 302.692 142.99C302.165 145.41 301.464 147.624 300.582 149.617C300.523 149.752 300.328 149.739 300.284 149.598C293.676 128.28 271.696 121.525 256 121.525C240.304 121.525 218.324 128.28 211.716 149.598L211.667 149.757C211.651 149.81 211.634 149.863 211.618 149.917C211.609 149.947 211.567 149.95 211.554 149.921C210.608 147.85 209.862 145.534 209.308 142.99C206.544 130.307 210.158 117.86 214.482 113.131L234.597 86.4905C235.094 85.8317 234.624 84.8879 233.799 84.8879L193.242 84.8877C189.607 84.8876 185.635 84.8874 175.616 84.8875L172.966 84.8876C170.482 84.8876 168.086 85.8125 166.246 87.482L140.131 111.179C139.697 111.573 139.02 111.511 138.664 111.046L122.83 90.31C119.372 85.7817 112.835 85.0535 108.465 88.7098L72.9577 118.42C70.687 120.32 69.3749 123.128 69.3749 126.089V256.012C69.3749 258.841 70.5729 261.537 72.6721 263.433L93.476 282.224C93.9007 282.607 93.9175 283.268 93.5128 283.673L63.5268 313.659C59.4481 317.738 59.6564 324.412 63.9817 328.228L101.149 361.024C101.15 361.024 101.15 361.026 101.15 361.027C101.149 361.028 101.149 361.029 101.15 361.03L156.503 421.691C160.202 425.745 166.478 426.06 170.565 422.396L194.087 401.307C194.458 400.975 195.016 400.966 195.397 401.286L201.243 406.188C201.423 406.339 201.65 406.422 201.885 406.422H310.115C310.35 406.422 310.577 406.339 310.757 406.188L316.603 401.286C316.984 400.966 317.542 400.975 317.913 401.307Z" fill="black"/>
<path d="M339.194 360.328L304.343 389.558H207.657L172.805 360.328L163.249 370.446L180.675 390.682L164.373 405.298L123.339 360.328L153.131 323.228H134.019L109.285 345.713L80.6172 320.417L113.782 287.252H206.532V301.867C206.532 316.147 218.109 327.724 232.39 327.724H279.608C293.889 327.724 305.466 316.147 305.466 301.867V287.252H398.217L431.382 320.417L402.714 345.713L377.981 323.228H358.869L388.661 360.328L347.626 405.298L331.325 390.682L348.75 370.446L339.194 360.328ZM305.466 268.702H408.335L425.761 252.962V129.295L398.217 106.248L374.608 137.165L394.282 154.591V227.105H366.738V129.295L338.631 101.752L330.165 101.751C326.471 101.751 323.905 101.751 320.071 101.751L309.964 101.751C313.871 106.024 316.796 111.941 318.562 118.615C323.512 137.32 319.354 161.971 302.157 173.047C297.238 176.215 291.252 178.273 284.106 178.762C285.449 173.006 286.007 167.118 285.532 161.726L285.524 161.637C284.589 151.272 279.828 142.753 269.491 140.538C270.99 145.285 270.379 153.364 268.399 160.874C265.923 170.262 261.308 178.762 255.999 178.762C250.691 178.762 246.076 170.262 243.601 160.875C241.62 153.364 241.009 145.285 242.509 140.538C232.171 142.753 227.411 151.272 226.476 161.637L226.468 161.727C225.993 167.119 226.55 173.006 227.893 178.762C220.748 178.273 214.762 176.215 209.842 173.047C192.646 161.971 188.488 137.32 193.437 118.615C195.203 111.941 198.129 106.024 202.036 101.751L193.195 101.751L193.192 101.751C190.439 101.751 187.48 101.751 181.835 101.751L175.616 101.751L145.261 129.295V227.105H117.717V154.591L137.392 137.165L113.782 106.248L86.2384 129.295V252.962L103.664 268.702H206.532V254.648C206.532 240.368 218.109 228.791 232.39 228.791H279.608C293.889 228.791 305.466 240.368 305.466 254.648V268.702ZM244.957 252.962C249.717 244.717 261.616 244.717 266.376 252.962L290.717 295.121C295.477 303.366 289.527 313.671 280.007 313.671H231.326C221.806 313.671 215.856 303.366 220.616 295.121L244.957 252.962Z" fill="#FEFEFE"/>
<path d="M339.194 360.328L304.343 389.558H207.657L172.805 360.328L163.249 370.446L180.675 390.682L164.373 405.298L123.339 360.328L153.131 323.228H134.019L109.285 345.713L80.6172 320.417L113.782 287.252H206.532V301.867C206.532 316.147 218.109 327.724 232.39 327.724H279.608C293.889 327.724 305.466 316.147 305.466 301.867V287.252H398.217L431.382 320.417L402.714 345.713L377.981 323.228H358.869L388.661 360.328L347.626 405.298L331.325 390.682L348.75 370.446L339.194 360.328ZM305.466 268.702H408.335L425.761 252.962V129.295L398.217 106.248L374.608 137.165L394.282 154.591V227.105H366.738V129.295L338.631 101.752L330.165 101.751C326.471 101.751 323.905 101.751 320.071 101.751L309.964 101.751C313.871 106.024 316.796 111.941 318.562 118.615C323.512 137.32 319.354 161.971 302.157 173.047C297.238 176.215 291.252 178.273 284.106 178.762C285.449 173.006 286.007 167.118 285.532 161.726L285.524 161.637C284.589 151.272 279.828 142.753 269.491 140.538C270.99 145.285 270.379 153.364 268.399 160.874C265.923 170.262 261.308 178.762 255.999 178.762C250.691 178.762 246.076 170.262 243.601 160.875C241.62 153.364 241.009 145.285 242.509 140.538C232.171 142.753 227.411 151.272 226.476 161.637L226.468 161.727C225.993 167.119 226.55 173.006 227.893 178.762C220.748 178.273 214.762 176.215 209.842 173.047C192.646 161.971 188.488 137.32 193.437 118.615C195.203 111.941 198.129 106.024 202.036 101.751L193.195 101.751L193.192 101.751C190.439 101.751 187.48 101.751 181.835 101.751L175.616 101.751L145.261 129.295V227.105H117.717V154.591L137.392 137.165L113.782 106.248L86.2384 129.295V252.962L103.664 268.702H206.532V254.648C206.532 240.368 218.109 228.791 232.39 228.791H279.608C293.889 228.791 305.466 240.368 305.466 254.648V268.702ZM244.957 252.962C249.717 244.717 261.616 244.717 266.376 252.962L290.717 295.121C295.477 303.366 289.527 313.671 280.007 313.671H231.326C221.806 313.671 215.856 303.366 220.616 295.121L244.957 252.962Z" stroke="black"/>
<path d="M173.929 285.565L144.136 225.98L140.763 134.917L115.468 97.8164L77.2435 124.236V250.152L103.101 282.193L70.498 318.731L161 421.599L189.668 397.428L173.929 364.825V285.565Z" fill="black" fill-opacity="0.5"/>
<path d="M338.068 285.565L367.861 225.98L371.234 134.917L396.529 97.8164L434.754 124.236V250.152L408.896 282.193L441.499 318.731L350.997 421.599L322.329 397.428L338.068 364.825V285.565Z" fill="black" fill-opacity="0.5"/>
<path d="M173.929 285.565L167.746 271.512L223.958 178.2V146.159L257.124 126.484L286.916 146.159V178.2L344.253 271.512L338.069 285.565V364.824L322.33 397.428H189.669L173.929 364.824V285.565Z" fill="black" fill-opacity="0.1"/>
</svg>
