<?xml version="1.0" encoding="UTF-8"?>
<svg width="512px" height="512px" viewBox="0 0 512 512" version="1.1" xmlns="http://www.w3.org/2000/svg" xmlns:xlink="http://www.w3.org/1999/xlink">
    <!-- Generator: Sketch 53.2 (72643) - https://sketchapp.com -->
    <title>ic_ui_armor_skill_base</title>
    <desc>Created with Sketch.</desc>
    <g id="ic_ui_armor_skill_base" stroke="none" stroke-width="1" fill="none" fill-rule="evenodd">
        <g id="armor-skill" transform="translate(56.000000, 56.000000)">
            <polygon id="base" fill="#FFFFFF" points="200.000424 0 400 99.9996012 400 299.998804 200.000424 400 0 299.999601 0 100.000399"></polygon>
            <polygon id="alpha" fill-opacity="0.154749774" fill="#000000" points="200.000424 0 400 99.9996012 400 299.998804 200.000424 400 0 299.999601 0 100.000399"></polygon>
            <path d="M375,112.444601 L375,287.556199 L200,375 L25,287.556199 L25,112.444601 L200,25 L375,112.444601 Z M28.3884137,114.359762 L28.3884137,285.640238 L200,371.392074 L371.612437,285.639438 L371.612437,114.359762 L200,28.6087258 L28.3884137,114.359762 Z M138.536377,297.056289 L275.804565,297.056289 L275.804565,327.77666 L259.414551,327.77666 L259.414551,312.416074 L222.536377,312.416074 L222.536377,327.77666 L206.145508,327.77666 L206.145508,312.416074 L154.925537,312.416074 L154.925537,327.77666 L138.536377,327.77666 L138.536377,297.056289 Z M234.829102,181.855898 L234.829102,151.135527 L275.804565,151.135527 L275.804565,181.855898 L243.023682,201.05543 L173.365479,266.335918 C173.365479,266.335918 107.72168,266.316699 91.4136963,181.855898 L234.829102,181.855898 Z M103.706421,153.055801 C103.706421,153.055801 121.120972,72.2233398 220.692383,72.2233398 C220.692383,72.2233398 261.053467,72.4155273 279.901855,101.215625 C279.901855,101.215625 234.795776,116.766797 224.584595,153.055801 L103.706421,153.055801 L103.706421,153.055801 Z M251.218262,135.775742 C251.218262,135.775742 282.811401,105.055371 308.585449,105.055371 L308.585449,201.05543 C308.585449,201.05543 259.414551,227.45959 259.414551,247.136387 L222.536377,247.136387 C222.536377,247.136387 225.855225,218.244199 292.19458,185.695645 L292.19458,135.774941 L251.219116,135.774941 L251.218262,135.775742 Z M189.754639,264.415645 L259.412842,264.415645 L259.412842,281.45627 L189.754639,281.45627 L189.754639,264.415645 Z" id="Shape" fill-opacity="0.85" fill="#000000"></path>
        </g>
    </g>
</svg>