<?xml version="1.0" encoding="UTF-8"?>
<svg width="512px" height="512px" viewBox="0 0 512 512" version="1.1" xmlns="http://www.w3.org/2000/svg" xmlns:xlink="http://www.w3.org/1999/xlink">
    <!-- Generator: Sketch 53.2 (72643) - https://sketchapp.com -->
    <title>ic_ui_hunter_rank</title>
    <desc>Created with Sketch.</desc>
    <g id="ic_ui_hunter_rank" stroke="none" stroke-width="1" fill="none" fill-rule="evenodd">
        <g id="hunterrank" transform="translate(57.000000, 56.000000)" fill-rule="nonzero">
            <path d="M103.294903,148.387697 L69.635923,148.387697 L69.635923,71.206848 L146.816772,71.206848 L146.816772,103.494877 C148.516199,111.202017 151.604335,118.510695 155.698416,125.282788 C157.994588,129.080929 160.453316,132.455957 162.89265,135.346671 C163.726786,136.335157 164.489285,137.183723 165.156815,137.885311 C165.375122,138.114756 165.561179,138.305147 165.712054,138.455632 C165.757075,138.500536 176.866361,149.608127 199.039913,171.778407 L232.188864,138.629456 C232.518647,138.305147 232.704704,138.114756 232.923011,137.885311 C233.590541,137.183723 234.353039,136.335157 235.187175,135.346671 C237.62651,132.455957 240.085237,129.080929 242.38141,125.282788 C246.469188,118.521121 249.554116,111.224519 251.255195,103.530469 L251.255195,71.206848 L328.436044,71.206848 L328.436044,148.387697 L294.777635,148.387697 C282.702783,151.269566 272.121507,157.318288 263.858712,164.365083 L227.739444,200.477938 L263.227429,235.965924 C271.51864,243.026133 282.082551,249.066119 294.148946,251.945961 L327.807359,251.945961 L327.807359,329.12681 L250.62651,329.12681 L250.62651,296.803189 C248.925431,289.109139 245.840503,281.812537 241.752725,275.050869 C239.456552,271.252729 236.997824,267.877701 234.55849,264.986987 C233.724354,263.998501 232.961856,263.149935 232.294326,262.448347 C232.076019,262.218901 231.889962,262.028511 231.739086,261.878026 C231.694066,261.833122 220.794342,250.935092 199.039913,229.183936 L166.519647,261.704202 C166.189864,262.028511 166.003807,262.218901 165.7855,262.448347 C165.11797,263.149935 164.355472,263.998501 163.521335,264.986987 C161.082001,267.877701 158.623273,271.252729 156.327101,275.050869 C152.23302,281.822963 149.144885,289.131641 147.445457,296.838781 L147.445457,329.12681 L70.2646081,329.12681 L70.2646081,251.945961 L103.923592,251.945961 C115.995619,249.066208 126.560122,243.026935 134.85203,235.966236 L170.333925,200.477948 L134.220753,164.364776 C125.957257,157.317484 115.375389,151.269476 103.294903,148.387697 Z M198.63839,250.696567 L273.139105,325.197282 L198.63839,399.697996 L124.137675,325.197282 L198.63839,250.696567 Z M74.5279084,124.73851 L149.028623,199.239225 L74.5279084,273.73994 L0.0271937658,199.239225 L74.5279084,124.73851 Z M323.026754,124.73851 L397.527468,199.239225 L323.026754,273.73994 L248.526039,199.239225 L323.026754,124.73851 Z M198.63839,0.350146567 L273.139105,74.8508612 L198.63839,149.351576 L124.137675,74.8508612 L198.63839,0.350146567 Z" id="Shape" fill="#000000"></path>
            <path d="M141.75884,156.225668 C135.79419,151.086168 122.521075,141.262963 104.548539,137.302246 L80.7213734,137.302246 L80.7213734,82.2922983 L135.731321,82.2922983 L135.770614,104.846377 C141.004418,130.268832 158.151804,146.567493 158.151804,146.567493 L199.039913,187.455602 L239.928021,146.567493 C239.928021,146.567493 257.075408,130.268832 262.340646,104.909245 L262.340646,82.2922983 L317.350594,82.2922983 L317.350594,137.302246 L293.523428,137.302246 C275.55875,141.262963 262.285636,151.086168 256.320986,156.225668 L212.061553,200.477242 L255.692301,244.10799 C261.656951,249.239632 274.930065,259.070695 292.894743,263.031412 L316.721909,263.031412 L316.721909,318.04136 L261.711961,318.04136 L261.680526,295.487281 C256.446723,270.064826 239.299336,253.766165 239.299336,253.766165 L199.039913,213.506741 L158.78049,253.766165 C158.78049,253.766165 141.633103,270.064826 136.360006,295.424412 L136.360006,318.04136 L81.3500585,318.04136 L81.3500585,263.031412 L105.177225,263.031412 C123.14976,259.070695 136.422875,249.239632 142.387525,244.10799 L186.010414,200.477242 L141.75884,156.225668 Z M198.63839,266.373761 L257.461911,325.197282 L198.63839,384.020802 L139.81487,325.197282 L198.63839,266.373761 Z M74.5279084,140.415704 L133.351429,199.239225 L74.5279084,258.062745 L15.704388,199.239225 L74.5279084,140.415704 Z M323.026754,140.415704 L381.850274,199.239225 L323.026754,258.062745 L264.203233,199.239225 L323.026754,140.415704 Z M198.63839,16.0273408 L257.461911,74.8508612 L198.63839,133.674382 L139.81487,74.8508612 L198.63839,16.0273408 Z" id="Path" fill="#891109"></path>
        </g>
    </g>
</svg>