<?xml version="1.0" encoding="UTF-8"?>
<svg width="512px" height="512px" viewBox="0 0 512 512" version="1.1" xmlns="http://www.w3.org/2000/svg" xmlns:xlink="http://www.w3.org/1999/xlink">
    <!-- Generator: Sketch 53.2 (72643) - https://sketchapp.com -->
    <title>ic_ui_set_bonus_2</title>
    <desc>Created with Sketch.</desc>
    <g id="ic_ui_set_bonus_2" stroke="none" stroke-width="1" fill="none" fill-rule="evenodd">
        <path d="M40,0 L472,0 C494.09139,-4.33003142e-14 512,17.90861 512,40 L512,472 C512,494.09139 494.09139,512 472,512 L40,512 C17.90861,512 2.705415e-15,494.09139 0,472 L0,40 C-2.705415e-15,17.90861 17.90861,4.05812251e-15 40,0 Z" id="Rectangle" fill="#6F6F6F" fill-rule="nonzero"></path>
        <path d="M40,15 C26.1928813,15 15,26.1928813 15,40 L15,472 C15,485.807119 26.1928813,497 40,497 L472,497 C485.807119,497 497,485.807119 497,472 L497,40 C497,26.1928813 485.807119,15 472,15 L40,15 Z" id="Path" fill="#3D3D3D" fill-rule="nonzero"></path>
        <path d="M392.1432,378.402344 L392.1432,456 L121.67445,456 L121.67445,395.366296 L126.808568,389.661721 L243.227428,260.307541 C263.108035,238.097176 276.396687,220.710871 282.902088,208.7009 C288.755921,197.893823 291.596325,187.156469 291.596325,176.234375 C291.596325,163.116306 288.027362,152.802844 280.872267,144.408284 C274.41616,136.833796 266.301693,133.246094 254.9557,133.246094 C235.520794,133.246094 222.744713,137.696189 215.334116,145.728655 C207.404101,154.324126 203.178357,167.178662 203.178357,185.267578 L203.178357,205.267578 L122.620594,205.267578 L116.633614,187.306638 L116.554567,184.334461 C115.59465,148.241602 127.889885,117.159249 153.03299,92.4029605 C178.200319,67.6228214 212.564919,55.4042969 254.9557,55.4042969 C291.861056,55.4042969 322.360461,66.5792788 345.268813,89.0943547 C368.146164,111.578961 379.692029,140.4684 379.692029,174.525391 C379.692029,197.623241 372.929485,220.500783 359.705815,242.915372 C347.442589,263.701975 330.513659,285.688156 308.992221,308.903882 L245.1603,378.402344 L392.1432,378.402344 Z" id="2" fill="#000000" fill-rule="nonzero"></path>
        <path d="M372.1432,436 L372.1432,398.402344 L201.244763,398.402344 L200.756482,397.181641 L294.262341,295.375 C314.933017,273.076711 331.005448,252.202897 342.480115,232.75293 C353.954781,213.302963 359.692029,193.893977 359.692029,174.525391 C359.692029,145.716653 350.211329,121.994559 331.249646,103.358398 C312.287962,84.7222375 286.856902,75.4042969 254.9557,75.4042969 C217.520617,75.4042969 188.224035,85.8208594 167.065075,106.654297 C145.906115,127.487734 135.733691,153.203623 136.547497,183.802734 L137.035779,185.267578 L183.178357,185.267578 C183.178357,162.481006 188.996983,144.780988 200.634411,132.166992 C212.271839,119.552997 230.378755,113.246094 254.9557,113.246094 C272.04563,113.246094 285.758058,119.308859 296.093396,131.43457 C306.428734,143.560282 311.596325,158.493401 311.596325,176.234375 C311.596325,190.557363 307.893563,204.554619 300.487927,218.226562 C293.082291,231.898506 278.962966,250.371628 258.129529,273.646484 L141.67445,403.041016 L141.67445,436 L372.1432,436 Z" id="Path" fill="#B0B0B0" fill-rule="nonzero"></path>
    </g>
</svg>