<svg width="512" height="512" viewBox="0 0 512 512" fill="none" xmlns="http://www.w3.org/2000/svg">
<rect width="512" height="512" fill="white"/>
<path d="M133.542 339.322C131.754 339.322 126.199 339.322 114.939 334.034C110.159 331.79 104.351 328.592 97.3672 324.037C98.4705 331.139 100.031 338.005 101.939 344.578C114.129 386.571 140.499 416.594 152.394 419.825H307.795V339.322H133.542Z" fill="#8F8F8F"/>
<path fill-rule="evenodd" clip-rule="evenodd" d="M117.641 320.274C118.673 326.922 120.136 333.361 121.929 339.539C127.794 359.741 134.991 374.726 141.835 384.827C148.177 394.188 153.412 398.199 156.148 399.444H309.833V419.825H153.073L151.761 419.468C142.186 416.868 132.9 407.974 124.962 396.259C116.683 384.039 108.683 367.012 102.357 345.22C100.334 338.253 98.6759 330.96 97.502 323.403L117.641 320.274Z" fill="#C3C3C3"/>
<path fill-rule="evenodd" clip-rule="evenodd" d="M304.737 435.11V456H368.935V417.278H435.681V336.266H368.935V291.429H304.737V324.037H133.542L133.531 324.038C133.384 324.047 131.844 324.138 128.074 322.895C123.832 321.497 116.623 318.347 105.717 311.234L77 292.506L82.2625 326.384C86.7182 355.067 97.9519 380.096 109.97 398.551C115.983 407.785 122.356 415.626 128.449 421.587C134.024 427.042 141.008 432.572 148.387 434.576L150.355 435.11H304.737ZM133.542 339.323C131.753 339.323 126.199 339.323 114.938 334.034C110.159 331.79 104.351 328.592 97.3667 324.037C98.47 331.14 100.031 338.006 101.938 344.578C114.128 386.572 140.499 416.594 152.394 419.825H307.794V339.323H133.542ZM320.022 440.715H353.65V306.714H320.022V440.715ZM365.878 351.551V401.992H420.396V351.551H365.878Z" fill="black"/>
<path d="M365.879 401.992V351.551H420.396V401.992H365.879Z" fill="#A38B6E"/>
<path d="M320.021 440.715V306.714H353.649V440.715H320.021Z" fill="#A38B6E"/>
<path d="M112.651 151.822C105.722 184.023 102.122 257.121 103.99 303.656C103.99 303.656 119.733 317.922 132.014 317.922H303.718V294.994C303.718 294.994 282.423 277.612 275.186 264.424C264.486 244.926 260.41 168.127 260.41 168.127C260.41 168.127 251.748 174.75 247.163 187.488C242.577 200.226 234.425 205.321 234.425 205.321C234.425 205.321 230.349 172.712 225.254 162.012C218.084 146.956 212.007 97.3047 212.007 97.3047C212.007 97.3047 198.759 116.157 195.702 131.951C189.406 164.481 183.474 183.921 183.474 183.921C183.474 183.921 176.625 165.436 175.322 151.822C173.88 136.757 171.246 112.08 171.246 112.08C171.246 112.08 162.075 122.78 159.527 131.951C155.181 147.598 151.884 168.127 151.884 185.45C151.884 198.555 139.147 218.568 139.147 218.568C139.147 218.568 127.125 199.134 125.39 178.317C123.861 159.974 112.651 151.822 112.651 151.822Z" fill="#E7D394"/>
<path fill-rule="evenodd" clip-rule="evenodd" d="M88.9749 310.677L88.7176 304.27C86.827 257.175 90.3897 182.619 97.7087 148.607L102.649 125.649L121.642 139.461L112.652 151.823C111.352 157.865 110.169 165.348 109.117 173.825C104.564 210.522 102.473 265.854 103.991 303.657L93.7267 314.983L88.9749 310.677ZM303.719 294.995V317.923H132.014C119.734 317.923 103.991 303.657 103.991 303.657C93.7267 314.983 93.7289 314.985 93.7311 314.987L93.736 314.992L93.7729 315.025L93.8428 315.088C93.8972 315.136 93.967 315.199 94.0518 315.274C94.2212 315.423 94.4507 315.624 94.7354 315.868C95.3039 316.356 96.0983 317.023 97.0797 317.81C99.0261 319.371 101.79 321.469 105.05 323.594C110.766 327.321 121.052 333.208 132.014 333.208H319.004V291.394L313.388 286.214L313.387 286.213L313.385 286.211L313.362 286.192C313.335 286.17 313.288 286.131 313.223 286.078C313.093 285.97 312.89 285.801 312.622 285.576C312.086 285.126 311.294 284.453 310.313 283.599C308.343 281.885 304.633 278.457 301.747 275.68C295.566 269.732 290.925 261.332 288.587 257.071C287.202 254.547 285.275 248.28 283.381 238.302C281.601 228.92 280.139 217.937 278.982 207.309C277.829 196.723 277 186.703 276.459 179.316C276.189 175.628 275.992 172.609 275.863 170.521C275.798 169.477 275.751 168.666 275.72 168.121C275.704 167.848 275.692 167.643 275.685 167.507L275.675 167.323L275.675 167.317L274.139 138.387L251.126 155.985L260.411 168.127C251.126 155.985 251.122 155.988 251.118 155.991L251.092 156.011L251.055 156.039L250.972 156.104C250.912 156.151 250.843 156.205 250.767 156.267C250.613 156.389 250.427 156.541 250.212 156.721C249.781 157.082 249.231 157.561 248.589 158.157C247.308 159.345 245.641 161.019 243.821 163.178C243.371 163.712 242.91 164.278 242.44 164.876C241.508 161.572 240.392 158.248 239.055 155.441C238.028 153.285 236.602 148.758 235.046 142.082C233.567 135.734 232.195 128.455 231.014 121.466C229.838 114.505 228.876 107.98 228.208 103.188C227.874 100.796 227.615 98.8449 227.44 97.4991C227.353 96.8263 227.287 96.3053 227.243 95.9566C227.221 95.7822 227.204 95.6509 227.194 95.5653L227.18 95.4509L227.179 95.4482L222.351 56L199.501 88.5171L212.007 97.3053C199.501 88.5171 199.5 88.5189 199.498 88.5208L199.489 88.5345L199.472 88.559L199.423 88.6287C199.384 88.6843 199.333 88.7582 199.27 88.8496C199.144 89.0323 198.971 89.2854 198.757 89.6036C198.328 90.2393 197.733 91.1378 197.017 92.2552C195.591 94.4818 193.662 97.6206 191.622 101.315C190.024 104.208 188.237 107.653 186.548 111.42L186.446 110.46C186.446 110.46 186.445 110.459 171.247 112.081L186.445 110.459L182.687 75.2466L159.641 102.134L171.247 112.081C159.641 102.134 159.64 102.135 159.638 102.137L159.612 102.168L159.569 102.218C159.536 102.256 159.495 102.306 159.445 102.365C159.345 102.484 159.212 102.643 159.049 102.84C158.725 103.235 158.28 103.783 157.749 104.46C156.692 105.806 155.258 107.706 153.722 109.953C150.883 114.109 146.77 120.771 144.8 127.861C141.875 138.393 139.385 150.969 137.941 163.56C136.082 157.838 133.551 153.16 131.022 149.5C128.897 146.426 126.791 144.094 125.113 142.454C124.272 141.632 123.532 140.976 122.94 140.481C122.644 140.234 122.384 140.026 122.166 139.856C122.057 139.771 121.958 139.696 121.87 139.63C121.827 139.597 121.786 139.566 121.748 139.538L121.692 139.498L121.667 139.479L121.654 139.47C121.648 139.465 121.642 139.461 112.652 151.823C112.652 151.823 121.668 158.379 124.631 172.962C124.972 174.64 125.233 176.425 125.391 178.317C126.092 186.731 128.473 194.919 131.062 201.689C134.879 211.669 139.147 218.569 139.147 218.569C139.147 218.569 144.022 210.911 147.74 201.967C150.032 196.452 151.885 190.449 151.885 185.45C151.885 169.658 154.625 151.203 158.402 136.209C158.768 134.756 159.144 133.335 159.528 131.952C162.075 122.781 171.247 112.081 171.247 112.081C171.247 112.081 172.489 123.725 173.735 135.898C173.786 136.395 173.837 136.893 173.887 137.391C174.404 142.453 174.912 147.528 175.323 151.823C175.377 152.392 175.441 152.969 175.514 153.554C177.186 166.95 183.475 183.922 183.475 183.922C183.475 183.922 186.768 173.13 191.051 154.173C192.517 147.686 194.098 140.245 195.703 131.952C196.494 127.867 197.966 123.577 199.715 119.461C204.727 107.666 212.007 97.3053 212.007 97.3053C212.007 97.3053 213.358 108.34 215.537 121.584C217.98 136.431 221.465 154.055 225.255 162.013C227.616 166.972 229.759 176.637 231.378 185.581C233.252 195.934 234.426 205.321 234.426 205.321C234.426 205.321 241.893 200.654 246.554 189.087C246.763 188.568 246.967 188.036 247.164 187.488C247.178 187.449 247.192 187.41 247.206 187.372C251.802 174.71 260.411 168.127 260.411 168.127C260.411 168.127 260.928 177.868 262.077 191.292C264.154 215.561 268.297 251.87 275.187 264.424C282.424 277.613 303.719 294.995 303.719 294.995Z" fill="black"/>
</svg>
