<?xml version="1.0" encoding="UTF-8"?>
<svg width="512px" height="512px" viewBox="0 0 512 512" version="1.1" xmlns="http://www.w3.org/2000/svg" xmlns:xlink="http://www.w3.org/1999/xlink">
    <!-- Generator: Sketch 53.2 (72643) - https://sketchapp.com -->
    <title>ic_ui_buildable</title>
    <desc>Created with Sketch.</desc>
    <g id="ic_ui_buildable" stroke="none" stroke-width="1" fill="none" fill-rule="evenodd">
        <g id="Group" transform="translate(56.000000, 57.000000)" fill-rule="nonzero">
            <path d="M94.319287,142.242287 C87.006141,128.122098 89.2714035,110.327167 101.115075,98.4834957 C112.958746,86.6398246 130.753677,84.374562 144.873866,91.687708 L236.184211,0.377363901 L360.148952,124.342105 L270.077822,214.413235 L387.731439,332.066851 C402.3761,346.711512 402.3761,370.455199 387.731439,385.09986 C373.086778,399.744521 349.343091,399.744521 334.69843,385.09986 L217.044814,267.446243 L125,359.491057 L1.03525864,235.526316 L94.319287,142.242287 L94.319287,142.242287 Z" id="Line" fill="#000000"></path>
            <path d="M256.121767,228.36929 L231.000869,253.490189 L348.654485,371.143805 C355.59143,378.08075 366.838439,378.08075 373.775384,371.143805 C380.712328,364.20686 380.712328,352.959851 373.775384,346.022906 L256.121767,228.36929 Z" id="Path" fill="#C6CFE7"></path>
            <path d="M256.121767,228.36929 L246.790342,237.700715 L364.443959,355.354331 C371.380903,362.291276 373.775384,364.189865 377.064545,366.67354 C381.168223,361.223766 379.698746,351.946268 373.775384,346.022906 L256.121767,228.36929 Z" id="Path" fill="#8F97A7"></path>
            <path d="M115.07113,112.439551 C130.233699,97.2769807 145.04573,112.287175 148.375062,116.098622 L236.184211,28.2894737 L332.236842,124.342105 L125,331.578947 L28.9473684,235.526316 L116.837026,147.636658 C115.436211,146.257612 98.5467499,128.96393 115.07113,112.439551 Z" id="Path" fill="#DBE5FE"></path>
            <polygon id="Path" fill="#95A8C2" points="255.901073 48.0263158 332.236842 124.362085 125.019979 332.894737 50 256.558968"></polygon>
            <polygon id="Path" fill="#546F8C" points="283.532652 75.6578947 332.236842 124.362085 125.019979 332.894737 77.6315789 285.506336"></polygon>
            <polygon id="Path" fill="#233C55" points="309.848442 101.973684 332.236842 124.362085 125.019979 332.894737 102.631579 310.506336"></polygon>
        </g>
    </g>
</svg>