<?xml version="1.0" encoding="UTF-8"?>
<svg width="512px" height="512px" viewBox="0 0 512 512" version="1.1" xmlns="http://www.w3.org/2000/svg" xmlns:xlink="http://www.w3.org/1999/xlink">
    <!-- Generator: Sketch 53.2 (72643) - https://sketchapp.com -->
    <title>ic_ui_set_bonus_5</title>
    <desc>Created with Sketch.</desc>
    <g id="ic_ui_set_bonus_5" stroke="none" stroke-width="1" fill="none" fill-rule="evenodd">
        <path d="M40,0 L472,0 C494.09139,-4.33003142e-14 512,17.90861 512,40 L512,472 C512,494.09139 494.09139,512 472,512 L40,512 C17.90861,512 2.705415e-15,494.09139 0,472 L0,40 C-2.705415e-15,17.90861 17.90861,4.05812251e-15 40,0 Z" id="Rectangle" fill="#6F6F6F" fill-rule="nonzero"></path>
        <path d="M40,15 C26.1928813,15 15,26.1928813 15,40 L15,472 C15,485.807119 26.1928813,497 40,497 L472,497 C485.807119,497 497,485.807119 497,472 L497,40 C497,26.1928813 485.807119,15 472,15 L40,15 Z" id="Path" fill="#3D3D3D" fill-rule="nonzero"></path>
        <path d="M234.659836,143.255859 L229.362332,188.395006 C239.148625,185.319907 249.871079,183.655457 261.495435,183.341285 C300.207549,182.953176 331.608744,195.950194 354.406949,222.202673 C376.600366,247.758729 387.504529,281.556914 387.504529,322.71875 C387.504529,362.991916 376.364657,396.364127 353.806537,421.897998 C330.601624,448.163986 297.219546,461.126953 255.199841,461.126953 C220.634565,461.126953 191.066648,451.430981 167.31242,431.925476 C142.211163,411.313875 130.239844,381.182674 131.202439,343.448946 L131.278545,340.4656 L137.269032,322.494141 L215.141247,322.494141 L215.141247,342.494141 C215.141247,356.708049 218.76258,366.461857 225.686937,373.082958 C232.959851,380.037349 242.422762,383.529297 255.199841,383.529297 C269.588484,383.529297 279.514779,379.026648 286.824351,369.704295 C295.02932,359.239987 299.408825,343.943452 299.408825,323.207031 C299.408825,304.649201 295.028974,290.258261 286.531937,279.3335 C279.014866,269.668694 269.179023,265.082031 255.199841,265.082031 C239.933154,265.082031 229.867961,267.178946 225.351743,270.218708 C220.758636,273.310222 217.177219,278.35248 214.603195,286.074555 L209.528735,301.297935 L133.605931,293.427889 L158.090684,60.53125 L374.076794,60.53125 L374.076794,143.255859 L234.659836,143.255859 Z" id="5" fill="#000000" fill-rule="nonzero"></path>
        <path d="M155.590466,275.599609 L195.629529,279.75 C199.535798,268.031191 205.720632,259.323596 214.184216,253.626953 C222.6478,247.93031 236.319538,245.082031 255.199841,245.082031 C275.219472,245.082031 290.925696,252.406177 302.318982,267.054688 C313.712268,281.703198 319.408825,300.420459 319.408825,323.207031 C319.408825,348.1095 313.793647,367.721934 302.563122,382.044922 C291.332597,396.36791 275.544995,403.529297 255.199841,403.529297 C237.458867,403.529297 223.014024,398.198947 211.86488,387.538086 C200.715736,376.877225 195.141247,361.862727 195.141247,342.494141 L151.684216,342.494141 L151.195935,343.958984 C150.382129,375.860186 159.984897,400.029866 180.004529,416.46875 C200.02416,432.907634 225.089013,441.126953 255.199841,441.126953 C291.821118,441.126953 319.693561,430.303494 338.818005,408.65625 C357.94245,387.009006 367.504529,358.363459 367.504529,322.71875 C367.504529,286.097473 358.105208,256.96365 339.306286,235.316406 C320.507364,213.669163 294.750786,203.008462 262.035779,203.333984 C249.991448,203.659507 239.371437,205.653302 230.175427,209.31543 C220.979417,212.977557 212.63803,217.575493 205.151013,223.109375 L216.869763,123.255859 L354.076794,123.255859 L354.076794,80.53125 L176.098279,80.53125 L155.590466,275.599609 Z" id="Path" fill="#B2B2B2" fill-rule="nonzero"></path>
    </g>
</svg>