<?xml version="1.0" encoding="UTF-8"?>
<svg width="512px" height="512px" viewBox="0 0 512 512" version="1.1" xmlns="http://www.w3.org/2000/svg" xmlns:xlink="http://www.w3.org/1999/xlink">
    <!-- Generator: Sketch 53.2 (72643) - https://sketchapp.com -->
    <title>ic_ui_decoration_3_base</title>
    <desc>Created with Sketch.</desc>
    <g id="ic_ui_decoration_3_base" stroke="none" stroke-width="1" fill="none" fill-rule="evenodd">
        <g id="ic_ui_decoration_3_flat" transform="translate(56.000000, 68.000000)" fill-rule="nonzero">
            <path d="M73.6350242,0.155150177 L325.82237,0.155150177 C330.39371,0.155150177 334.752715,2.08459743 337.826231,5.46847725 L394.973822,68.3868211 C397.684424,71.3711393 399.186177,75.258145 399.186177,79.2897103 L399.186177,124.278832 C399.186177,127.62983 398.148049,130.898537 396.21455,133.635463 L303.044795,265.520017 C300.005859,269.821722 295.067065,272.379603 289.800207,272.379603 L110.194595,272.379603 C105.187912,272.379603 100.461958,270.066923 97.3898963,266.113531 L4.22232874,146.217521 C2.01116111,143.372001 0.810810811,139.87102 0.810810811,136.267376 L0.810810811,79.2897103 C0.810810811,75.2845364 2.29300887,71.4210512 4.97184492,68.4435933 L61.5798421,5.52524946 C64.6551842,2.10708515 69.0370272,0.155150177 73.6350242,0.155150177 Z M64.8648649,274.594595 L124.324324,358.918919 L5.40540541,358.918919 L64.8648649,274.594595 Z M200,290.810811 L259.459459,375.135135 L140.540541,375.135135 L200,290.810811 Z M336.216216,275.675676 L395.675676,360 L276.756757,360 L336.216216,275.675676 Z" id="Path-11" fill="#CFCFCF"></path>
            <path d="M73.6350242,16.3713664 L325.82237,16.3713664 L382.969961,79.2897103 L382.969961,124.278832 L289.800207,256.163386 L110.194595,256.163386 L17.027027,136.267376 L17.027027,79.2897103 L73.6350242,16.3713664 Z M274.639118,108.608749 L125.361129,108.608749 L198.149426,243.190413 L201.85229,243.190413 L274.639118,108.608749 Z M286.810811,108.608749 L286.810811,237.911174 L369.996988,120.158669 L369.996988,108.608749 L286.810811,108.608749 Z M30,108.608749 L30,131.819448 L113.187732,238.872551 L113.187732,108.608749 L30,108.608749 Z M184.506755,243.190413 L125.187732,133.512716 L125.187732,243.190413 L184.506755,243.190413 Z M215.494899,243.190413 L274.810811,243.190413 L274.810811,133.516255 L215.494899,243.190413 Z M213.745764,29.3443394 L190.583557,29.3443394 L131.236025,92.3925332 L273.093296,92.3925332 L213.745764,29.3443394 Z M326.019504,35.8835245 L291.377508,92.3925332 L369.996988,92.3925332 L369.996988,84.301847 L326.019504,35.8835245 L326.019504,35.8835245 Z M314.906716,29.1891892 L231.41598,29.1891892 L281.977778,82.9038081 L314.906716,29.1891892 Z M112.951813,92.3925332 L76.3730578,32.7242273 L30,84.2666972 L30,92.3925332 L112.951813,92.3925332 Z M122.351543,82.9038081 L172.913341,29.1891892 L89.4226052,29.1891892 L122.351543,82.9038081 Z" id="Path" fill="#000000"></path>
        </g>
    </g>
</svg>