<svg width="512" height="512" viewBox="0 0 512 512" fill="none" xmlns="http://www.w3.org/2000/svg">
<rect width="512" height="512" fill="white"/>
<path fill-rule="evenodd" clip-rule="evenodd" d="M167.98 101.223C174.298 106.797 176.073 115.924 172.305 123.459L153.214 161.642V196.785L173.028 182.89V153.542C173.028 148.907 174.76 144.439 177.886 141.017L229.898 84.0507C233.417 80.1961 238.396 78 243.616 78H272.099C277.243 78 282.156 80.133 285.669 83.8907L338.92 140.857C342.136 144.297 343.925 148.832 343.925 153.542V183.263L360.644 195.802V158.177L342.388 123.88C338.395 116.378 340.002 107.123 346.291 101.407L366.724 82.8309C370.436 79.4564 375.355 77.7267 380.362 78.0352C385.369 78.3437 390.038 80.6642 393.308 84.4688L427.363 124.097C430.259 127.466 431.851 131.762 431.851 136.204V225.987C431.851 231.104 429.741 235.993 426.018 239.503L388.507 274.87V279.859C391.398 279.858 394.288 279.857 397.176 279.857C401.682 279.857 406.035 281.495 409.423 284.467L449.671 319.761C456.825 326.034 458.082 336.7 452.582 344.464L431.529 374.186C428.451 378.532 423.655 381.347 418.36 381.918C414.166 382.369 409.978 381.378 406.464 379.162V391.312C406.464 396.839 404.003 402.078 399.75 405.607L370.648 429.756C367.314 432.522 363.118 434.037 358.786 434.037H341.449C332.107 434.037 324.376 427.142 323.068 418.163C320.368 419.629 317.324 420.414 314.204 420.414H203.987C201.928 420.414 199.904 420.072 197.992 419.42C196.178 427.777 188.739 434.037 179.839 434.037H159.405C155.139 434.037 151.003 432.568 147.692 429.878L117.97 405.729C113.629 402.202 111.108 396.906 111.108 391.312V379.536C108.404 381.097 105.32 381.969 102.13 382.022C96.8159 382.11 91.7185 379.918 88.1272 376.001L60.8826 346.279C54.0375 338.812 54.4375 327.237 61.7818 320.26L98.9334 284.966C102.382 281.689 106.957 279.861 111.714 279.857L125.35 279.847V274.949L87.3156 239.593C83.5349 236.078 81.387 231.149 81.387 225.987V136.204C81.387 131.705 83.0202 127.358 85.9831 123.972L120.658 84.3436C123.911 80.6259 128.511 78.357 133.441 78.0387C138.37 77.7203 143.224 79.3786 146.928 82.647L167.98 101.223Z" fill="black"/>
<path d="M134.638 96.5762L155.691 115.152L134.638 157.257V214.842L143.926 225.988L191.604 192.551V153.542L243.616 96.5762H272.099L325.35 153.542V192.551L369.932 225.988L379.22 214.842V153.542L358.786 115.152L379.22 96.5762L413.275 136.205V225.988L369.932 266.855V282.941C365.817 279.69 361.32 276.918 356.656 274.531C347.272 269.728 335.219 265.616 322.874 265.616C306.5 265.616 295.614 275.466 286.993 283.042L286.917 283.109C277.995 290.95 268.55 299.053 256.001 299.053C236.256 299.053 223.023 281.554 207.303 272.156C201.261 268.545 194.209 265.616 186.032 265.616C174.502 265.616 163.133 269.842 154.326 274.644C150.623 276.663 147.064 278.955 143.926 281.336V266.855L99.9631 225.988V136.205L134.638 96.5762Z" fill="#FEFEFE"/>
<path d="M111.728 298.433L74.5762 333.728L101.821 363.449L124.112 337.443H151.975L129.684 363.449V391.313L159.406 415.461H179.839V401.839L159.406 391.313L173.028 370.26L203.988 401.839H314.204L348.26 370.26L358.786 391.313L341.449 401.839V415.461H358.786L387.888 391.313V370.26L363.74 337.443H387.888L416.371 363.449L437.424 333.728L397.176 298.433C385.374 298.433 373.424 298.444 361.71 298.441C357.107 298.441 352.156 293.094 348.194 291.067C340.437 287.097 331.334 284.192 322.874 284.192C314.009 284.192 307.746 289.611 297.395 298.626C287.832 306.955 275.266 317.628 256.001 317.628C238.117 317.628 223.741 307.776 210.261 297.174L210.249 297.164C205.644 293.543 201.745 290.476 197.772 288.101C193.326 285.443 189.619 284.192 186.032 284.192C178.738 284.192 170.5 286.983 163.218 290.953C155.694 295.056 154.244 296.693 153.088 298.403L111.728 298.433Z" fill="#FEFEFE"/>
<path fill-rule="evenodd" clip-rule="evenodd" d="M144.545 225.554L143.926 225.988L134.638 214.842V157.257L155.691 115.152L134.638 96.5762L99.9631 136.205V225.988L143.926 266.855V298.433H111.728L74.5762 333.728L101.821 363.449L124.112 337.443H151.975L129.684 363.449V391.313L159.406 415.461H179.839V401.839L159.406 391.313L172.45 371.153L153.213 297.814H144.545V225.554ZM348.157 370.356L348.26 370.26L358.786 391.313L341.449 401.839V415.461H358.786L387.888 391.313V370.26L363.74 337.443H387.888L416.371 363.449L437.424 333.728L397.176 298.433H369.932V297.814H360.643L348.157 370.356ZM370.551 266.271V226.607L368.144 224.647L369.932 225.988L379.22 214.842V153.542L358.786 115.152L379.22 96.5762L413.275 136.205V225.988L370.551 266.271Z" fill="#474747" fill-opacity="0.5"/>
<path d="M270.86 94.7178H245.473L152.594 297.813L173.027 373.355L202.129 403.696H315.442L347.64 373.355L361.262 297.813L270.86 94.7178Z" fill="black" fill-opacity="0.1"/>
</svg>
