<svg width="512" height="512" viewBox="0 0 512 512" fill="none" xmlns="http://www.w3.org/2000/svg">
<rect width="512" height="512" fill="white"/>
<path d="M172.507 342.661L97.8113 374.062L129.212 315.067L83.0625 243.226H144.912L140.63 125.236L207.238 202.31L254.339 90.9805L301.916 202.31L375.184 135.703L364.717 243.226H427.994L375.184 319.349L410.866 374.062L330.462 342.661L337.598 248.46L290.021 292.706L254.339 196.125L219.608 292.706L167.273 258.451L172.507 342.661Z" fill="#CA8362"/>
<path fill-rule="evenodd" clip-rule="evenodd" d="M129.212 315.067L83.0623 243.227H144.912L140.63 125.236L207.238 202.31L254.339 90.9809L301.915 202.31L375.184 135.703L364.717 243.227H427.994L375.184 319.349L410.866 374.063L330.461 342.662L337.598 248.46L290.021 292.706L254.339 196.125L219.608 292.706L167.273 258.451L172.507 342.662L97.8111 374.063L129.212 315.067ZM182.629 284.862L186.771 351.514L67.6536 401.589L113.36 315.717L58 229.538H130.718L125.54 86.8397L203.206 176.71L254.275 56L306.943 179.241L392.247 101.691L379.802 229.538H454.15L391.68 319.585L445.652 402.342L316.047 351.728L321.307 282.304L284.3 316.719L254.512 236.093L226.62 313.656L182.629 284.862Z" fill="black"/>
<path d="M172.981 342.662L98.2852 374.062L145.386 315.067L113.51 258.451H155.853V176.143L211.994 223.244L254.813 149.024L297.156 223.244L351.869 187.086V258.451H391.358L365.191 319.349L411.34 374.062L330.935 342.662L338.072 248.46L290.495 292.706L254.813 196.125L220.082 292.706L167.747 258.451L172.981 342.662Z" fill="#E7D485"/>
<path fill-rule="evenodd" clip-rule="evenodd" d="M318.317 347.462C321.663 347.462 324.375 350.174 324.375 353.52V376.942C324.375 380.288 321.663 383 318.317 383H299.337C295.991 383 293.279 380.288 293.279 376.942C293.279 373.597 295.991 370.885 299.337 370.885H312.26V353.52C312.26 350.174 314.972 347.462 318.317 347.462Z" fill="#CB8564"/>
<path fill-rule="evenodd" clip-rule="evenodd" d="M318.317 338.578C326.57 338.578 333.259 345.268 333.259 353.52V376.943C333.259 385.195 326.57 391.885 318.317 391.885H299.337C291.084 391.885 284.395 385.195 284.395 376.943C284.395 368.691 291.084 362.001 299.337 362.001H303.375V353.52C303.375 345.268 310.065 338.578 318.317 338.578ZM324.375 353.52C324.375 350.175 321.663 347.463 318.317 347.463C314.972 347.463 312.26 350.175 312.26 353.52V370.885H299.337C295.991 370.885 293.279 373.598 293.279 376.943C293.279 380.289 295.991 383.001 299.337 383.001H318.317C321.663 383.001 324.375 380.289 324.375 376.943V353.52Z" fill="black"/>
<path fill-rule="evenodd" clip-rule="evenodd" d="M190.302 347.866C186.956 347.866 184.244 350.578 184.244 353.924V377.347C184.244 380.692 186.956 383.404 190.302 383.404H209.282C212.628 383.404 215.34 380.692 215.34 377.347C215.34 374.001 212.628 371.289 209.282 371.289H196.359V353.924C196.359 350.578 193.647 347.866 190.302 347.866Z" fill="#CB8564"/>
<path fill-rule="evenodd" clip-rule="evenodd" d="M190.3 338.981C182.048 338.981 175.358 345.671 175.358 353.924V377.346C175.358 385.599 182.048 392.288 190.3 392.288H209.281C217.533 392.288 224.223 385.599 224.223 377.346C224.223 369.094 217.533 362.404 209.281 362.404H205.242V353.924C205.242 345.671 198.552 338.981 190.3 338.981ZM184.242 353.924C184.242 350.578 186.954 347.866 190.3 347.866C193.646 347.866 196.358 350.578 196.358 353.924V371.289H209.281C212.626 371.289 215.338 374.001 215.338 377.346C215.338 380.692 212.626 383.404 209.281 383.404H190.3C186.954 383.404 184.242 380.692 184.242 377.346V353.924Z" fill="black"/>
<path fill-rule="evenodd" clip-rule="evenodd" d="M318.317 441.962C321.663 441.962 324.375 439.25 324.375 435.904V412.482C324.375 409.136 321.663 406.424 318.317 406.424H299.337C295.991 406.424 293.279 409.136 293.279 412.482C293.279 415.827 295.991 418.539 299.337 418.539H312.26V435.904C312.26 439.25 314.972 441.962 318.317 441.962Z" fill="#CB8564"/>
<path fill-rule="evenodd" clip-rule="evenodd" d="M318.317 450.848C326.57 450.848 333.259 444.158 333.259 435.906V412.483C333.259 404.23 326.57 397.541 318.317 397.541H299.337C291.084 397.541 284.395 404.23 284.395 412.483C284.395 420.735 291.084 427.425 299.337 427.425H303.375V435.906C303.375 444.158 310.065 450.848 318.317 450.848ZM324.375 435.906C324.375 439.251 321.663 441.963 318.317 441.963C314.972 441.963 312.26 439.251 312.26 435.906V418.54H299.337C295.991 418.54 293.279 415.828 293.279 412.483C293.279 409.137 295.991 406.425 299.337 406.425H318.317C321.663 406.425 324.375 409.137 324.375 412.483V435.906Z" fill="black"/>
<path fill-rule="evenodd" clip-rule="evenodd" d="M190.302 441.558C186.956 441.558 184.244 438.846 184.244 435.5V412.077C184.244 408.732 186.956 406.02 190.302 406.02H209.282C212.628 406.02 215.34 408.732 215.34 412.077C215.34 415.423 212.628 418.135 209.282 418.135H196.359V435.5C196.359 438.846 193.647 441.558 190.302 441.558Z" fill="#CB8564"/>
<path fill-rule="evenodd" clip-rule="evenodd" d="M190.3 450.442C182.048 450.442 175.358 443.753 175.358 435.5V412.077C175.358 403.825 182.048 397.135 190.3 397.135H209.281C217.533 397.135 224.223 403.825 224.223 412.077C224.223 420.33 217.533 427.02 209.281 427.02H205.242V435.5C205.242 443.753 198.552 450.442 190.3 450.442ZM184.242 435.5C184.242 438.846 186.954 441.558 190.3 441.558C193.646 441.558 196.358 438.846 196.358 435.5V418.135H209.281C212.626 418.135 215.338 415.423 215.338 412.077C215.338 408.732 212.626 406.02 209.281 406.02H190.3C186.954 406.02 184.242 408.732 184.242 412.077V435.5Z" fill="black"/>
<path fill-rule="evenodd" clip-rule="evenodd" d="M214.933 325.251C214.933 321.905 217.645 319.193 220.991 319.193C224.336 319.193 227.048 321.905 227.048 325.251V342.616H248.165C249.979 342.35 251.827 342.212 253.702 342.212C256.365 342.212 258.973 342.489 261.507 343.02H280.759V325.655C280.759 322.309 283.471 319.597 286.817 319.597C290.162 319.597 292.874 322.309 292.874 325.655V349.078C292.874 352.423 290.162 355.135 286.817 355.135H282.891C289.846 362.306 294.893 371.995 297.015 383H210.389C212.55 371.787 217.75 361.94 224.909 354.731H220.991C217.645 354.731 214.933 352.019 214.933 348.674V325.251ZM258.144 391.885H298.061C298.103 392.821 298.124 393.763 298.124 394.712C298.124 421.934 280.592 444.318 258.144 446.952L258.144 391.885ZM249.26 391.885H209.343C209.301 392.821 209.279 393.763 209.279 394.712C209.279 421.934 226.811 444.318 249.26 446.952L249.26 391.885Z" fill="#CB8564"/>
<path fill-rule="evenodd" clip-rule="evenodd" d="M212.83 374.116C214.221 370.264 215.992 366.648 218.085 363.334C218.995 361.894 219.965 360.512 220.992 359.192C222.22 357.613 223.529 356.123 224.911 354.732H220.992C218.718 354.732 216.737 353.479 215.701 351.626C215.213 350.752 214.935 349.746 214.935 348.674V325.252C214.935 321.906 217.647 319.194 220.992 319.194C224.338 319.194 227.05 321.906 227.05 325.252V342.617C244.986 342.617 262.848 343.021 280.761 343.021V325.656C280.761 322.31 283.473 319.598 286.819 319.598C290.164 319.598 292.876 322.31 292.876 325.656V349.078C292.876 350.168 292.588 351.19 292.085 352.074C291.042 353.903 289.075 355.136 286.819 355.136H282.892C284.28 356.566 285.591 358.097 286.819 359.718C287.797 361.01 288.723 362.361 289.59 363.764C291.567 366.96 293.246 370.43 294.577 374.116C295.604 376.958 296.424 379.928 297.017 383.001H210.39C210.983 379.928 211.803 376.958 212.83 374.116ZM201.667 381.319C203.225 373.234 206.177 365.689 210.268 359.079C207.657 356.388 206.05 352.719 206.05 348.674V325.252C206.05 316.999 212.74 310.31 220.992 310.31C229.245 310.31 235.935 316.999 235.935 325.252V333.732C247.963 333.732 259.872 334.136 271.876 334.136V325.656C271.876 317.403 278.566 310.713 286.819 310.713C295.071 310.713 301.761 317.403 301.761 325.656V349.078C301.761 353.173 300.114 356.882 297.447 359.581C301.378 366.07 304.221 373.437 305.741 381.319C306.347 384.463 306.795 388.288 306.938 391.487C306.986 392.556 307.011 393.631 307.011 394.712C307.011 425.282 287.168 452.493 259.181 455.777C256.637 456.075 250.77 456.075 248.226 455.777C220.239 452.493 200.396 425.282 200.396 394.712C200.396 393.631 200.421 392.556 200.469 391.487C200.612 388.288 201.06 384.463 201.667 381.319ZM249.261 391.885H209.344C209.302 392.822 209.281 393.764 209.281 394.712C209.281 395.661 209.302 396.603 209.344 397.539C209.393 398.625 209.47 399.703 209.574 400.77C211.597 421.588 223.925 438.702 240.377 444.808C243.225 445.866 246.198 446.593 249.261 446.953L249.261 391.885ZM258.146 391.885H298.063C298.105 392.822 298.126 393.764 298.126 394.712C298.126 395.661 298.105 396.603 298.063 397.539C298.014 398.625 297.937 399.703 297.834 400.77C295.81 421.588 283.482 438.702 267.03 444.808C264.182 445.866 261.21 446.593 258.146 446.953V391.885Z" fill="black"/>
</svg>
