<svg width="512" height="512" viewBox="0 0 512 512" fill="none" xmlns="http://www.w3.org/2000/svg">
<rect width="512" height="512" fill="white"/>
<path fill-rule="evenodd" clip-rule="evenodd" d="M323.382 94.6592C326.863 94.6592 329.685 97.4813 329.685 100.962V125.335C329.685 128.816 326.863 131.638 323.382 131.638H303.631C300.15 131.638 297.328 128.816 297.328 125.335C297.328 121.854 300.15 119.032 303.631 119.032H317.078V100.962C317.078 97.4813 319.9 94.6592 323.382 94.6592Z" fill="#78C1A7"/>
<path fill-rule="evenodd" clip-rule="evenodd" d="M323.382 85.415C331.969 85.415 338.93 92.3762 338.93 100.963V125.336C338.93 133.923 331.969 140.884 323.382 140.884H303.632C295.045 140.884 288.084 133.923 288.084 125.336C288.084 116.749 295.045 109.788 303.632 109.788H307.834V100.963C307.834 92.3762 314.795 85.415 323.382 85.415ZM329.686 100.963C329.686 97.4819 326.864 94.6599 323.382 94.6599C319.901 94.6599 317.079 97.4819 317.079 100.963V119.033H303.632C300.151 119.033 297.329 121.855 297.329 125.336C297.329 128.817 300.151 131.639 303.632 131.639H323.382C326.864 131.639 329.686 128.817 329.686 125.336V100.963Z" fill="black"/>
<path fill-rule="evenodd" clip-rule="evenodd" d="M190.175 95.0791C186.694 95.0791 183.872 97.9012 183.872 101.382V125.755C183.872 129.236 186.694 132.058 190.175 132.058H209.925C213.406 132.058 216.229 129.236 216.229 125.755C216.229 122.274 213.406 119.452 209.925 119.452H196.478V101.382C196.478 97.9012 193.656 95.0791 190.175 95.0791Z" fill="#78C1A7"/>
<path fill-rule="evenodd" clip-rule="evenodd" d="M190.172 85.835C181.585 85.835 174.624 92.7961 174.624 101.383V125.756C174.624 134.343 181.585 141.304 190.172 141.304H209.923C218.51 141.304 225.471 134.343 225.471 125.756C225.471 117.169 218.51 110.208 209.923 110.208H205.72V101.383C205.72 92.7961 198.759 85.835 190.172 85.835ZM183.869 101.383C183.869 97.9019 186.691 95.0798 190.172 95.0798C193.654 95.0798 196.476 97.9019 196.476 101.383V119.452H209.923C213.404 119.452 216.226 122.275 216.226 125.756C216.226 129.237 213.404 132.059 209.923 132.059H190.172C186.691 132.059 183.869 129.237 183.869 125.756V101.383Z" fill="black"/>
<path fill-rule="evenodd" clip-rule="evenodd" d="M323.382 192.991C326.863 192.991 329.685 190.169 329.685 186.688V162.315C329.685 158.834 326.863 156.012 323.382 156.012H303.631C300.15 156.012 297.328 158.834 297.328 162.315C297.328 165.796 300.15 168.619 303.631 168.619H317.078V186.688C317.078 190.169 319.9 192.991 323.382 192.991Z" fill="#78C1A7"/>
<path fill-rule="evenodd" clip-rule="evenodd" d="M323.382 202.236C331.969 202.236 338.93 195.275 338.93 186.688V162.316C338.93 153.729 331.969 146.767 323.382 146.767H303.632C295.045 146.767 288.084 153.729 288.084 162.316C288.084 170.903 295.045 177.864 303.632 177.864H307.834V186.688C307.834 195.275 314.795 202.236 323.382 202.236ZM329.686 186.688C329.686 190.169 326.864 192.992 323.382 192.992C319.901 192.992 317.079 190.169 317.079 186.688V168.619H303.632C300.151 168.619 297.329 165.797 297.329 162.316C297.329 158.834 300.151 156.012 303.632 156.012H323.382C326.864 156.012 329.686 158.834 329.686 162.316V186.688Z" fill="black"/>
<path fill-rule="evenodd" clip-rule="evenodd" d="M190.175 192.571C186.694 192.571 183.872 189.749 183.872 186.268V161.895C183.872 158.414 186.694 155.592 190.175 155.592H209.925C213.406 155.592 216.229 158.414 216.229 161.895C216.229 165.377 213.406 168.199 209.925 168.199H196.478V186.268C196.478 189.749 193.656 192.571 190.175 192.571Z" fill="#78C1A7"/>
<path fill-rule="evenodd" clip-rule="evenodd" d="M190.172 201.816C181.585 201.816 174.624 194.855 174.624 186.268V161.896C174.624 153.309 181.585 146.347 190.172 146.347H209.923C218.51 146.347 225.471 153.309 225.471 161.896C225.471 170.483 218.51 177.444 209.923 177.444H205.72V186.268C205.72 194.855 198.759 201.816 190.172 201.816ZM183.869 186.268C183.869 189.75 186.691 192.572 190.172 192.572C193.654 192.572 196.476 189.75 196.476 186.268V168.199H209.923C213.404 168.199 216.226 165.377 216.226 161.896C216.226 158.414 213.404 155.592 209.923 155.592H190.172C186.691 155.592 183.869 158.414 183.869 161.896V186.268Z" fill="black"/>
<path fill-rule="evenodd" clip-rule="evenodd" d="M215.805 71.5474C215.805 68.0662 218.627 65.2441 222.108 65.2441C225.589 65.2441 228.412 68.0662 228.412 71.5474V89.6168H250.384C252.272 89.3395 254.195 89.1966 256.146 89.1966C258.917 89.1966 261.631 89.4848 264.268 90.0371H284.301V71.9676C284.301 68.4864 287.123 65.6644 290.604 65.6644C294.085 65.6644 296.907 68.4864 296.907 71.9676V96.3403C296.907 99.8216 294.085 102.644 290.604 102.644H286.519C293.756 110.105 299.008 120.187 301.216 131.639H211.076C213.326 119.971 218.736 109.724 226.186 102.223H222.108C218.627 102.223 215.805 99.4013 215.805 95.9201V71.5474ZM260.768 140.884H302.304C302.348 141.858 302.37 142.838 302.37 143.825C302.37 172.152 284.127 195.443 260.768 198.184L260.768 140.884ZM251.524 140.884H209.988C209.944 141.858 209.922 142.838 209.922 143.825C209.922 172.152 228.165 195.443 251.524 198.184L251.524 140.884Z" fill="#78C1A7"/>
<path fill-rule="evenodd" clip-rule="evenodd" d="M213.615 122.395C215.063 118.386 216.905 114.623 219.084 111.175C220.03 109.677 221.04 108.238 222.109 106.864C223.387 105.222 224.749 103.672 226.186 102.224H222.109C219.743 102.224 217.681 100.92 216.603 98.9917C216.095 98.0831 215.806 97.0357 215.806 95.9208V71.5481C215.806 68.0669 218.628 65.2448 222.109 65.2448C225.59 65.2448 228.412 68.0669 228.412 71.5481V89.6175C247.076 89.6175 265.661 90.0377 284.301 90.0377V71.9683C284.301 68.4871 287.123 65.665 290.605 65.665C294.086 65.665 296.908 68.4871 296.908 71.9683V96.341C296.908 97.4748 296.609 98.5386 296.085 99.4578C295 101.361 292.952 102.644 290.605 102.644H286.519C287.963 104.133 289.327 105.725 290.605 107.412C291.623 108.757 292.586 110.162 293.489 111.622C295.546 114.948 297.292 118.558 298.678 122.395C299.746 125.351 300.6 128.442 301.216 131.639H211.077C211.693 128.442 212.547 125.351 213.615 122.395ZM201.999 129.889C203.621 121.476 206.693 113.625 210.949 106.747C208.233 103.948 206.561 100.129 206.561 95.9208V71.5481C206.561 62.9611 213.522 56 222.109 56C230.696 56 237.657 62.9611 237.657 71.5481V80.3727C250.173 80.3727 262.566 80.7929 275.056 80.7929V71.9683C275.056 63.3813 282.018 56.4202 290.605 56.4202C299.192 56.4202 306.153 63.3813 306.153 71.9683V96.341C306.153 100.601 304.439 104.461 301.664 107.27C305.754 114.022 308.713 121.687 310.294 129.889C310.925 133.161 311.391 137.14 311.54 140.47C311.59 141.582 311.616 142.701 311.616 143.826C311.616 175.636 290.969 203.949 261.846 207.366C259.199 207.677 253.094 207.677 250.447 207.366C221.325 203.949 200.678 175.636 200.678 143.826C200.678 142.701 200.703 141.582 200.753 140.47C200.902 137.141 201.369 133.161 201.999 129.889ZM251.524 140.884H209.988C209.945 141.858 209.923 142.839 209.923 143.826C209.923 144.813 209.945 145.793 209.988 146.767C210.039 147.897 210.119 149.018 210.227 150.129C212.333 171.791 225.16 189.599 242.279 195.953C245.243 197.054 248.336 197.81 251.524 198.184L251.524 140.884ZM260.769 140.884H302.305C302.349 141.858 302.371 142.839 302.371 143.826C302.371 144.813 302.349 145.793 302.305 146.767C302.254 147.897 302.174 149.018 302.066 150.129C299.96 171.791 287.133 189.599 270.014 195.953C267.05 197.054 263.957 197.81 260.769 198.184V140.884Z" fill="black"/>
<path d="M411.348 191.793L376.49 140.285L285.962 380.133L296.367 397.302L411.348 191.793Z" fill="#CCE6EC"/>
<path d="M319.259 431.12L310.935 414.992L414.99 295.328L436.322 336.43L319.259 431.12Z" fill="#CCE6EC"/>
<path d="M274.515 233.415H238.616L250.583 375.971H262.549L274.515 233.415Z" fill="#CCE6EC"/>
<path d="M100.743 191.793L135.601 140.285L226.13 380.133L215.724 397.302L100.743 191.793Z" fill="#CCE6EC"/>
<path d="M192.832 431.12L201.156 414.992L97.1009 295.328L75.7695 336.43L192.832 431.12Z" fill="#CCE6EC"/>
<path fill-rule="evenodd" clip-rule="evenodd" d="M372.482 106.582L429.623 191.015L329.76 369.504L418.226 267.767L456 340.55L314.132 455.306L274.602 391.579H237.398L197.868 455.306L56 340.55L93.7737 267.767L182.24 369.504L82.3768 191.015L139.518 106.582L233.066 354.429L221.597 217.806H291.443L280.272 350.884L372.482 106.582ZM376.444 140.285L285.916 380.133L296.321 397.302L411.303 191.792L376.444 140.285ZM319.214 431.12L436.276 336.43L414.945 295.328L310.889 414.991L319.214 431.12ZM238.571 233.415L250.537 375.971H262.503L274.47 233.415H238.571ZM100.697 191.792L135.556 140.285L226.084 380.133L215.678 397.302L100.697 191.792ZM192.786 431.12L75.7239 336.43L97.0553 295.328L201.111 414.991L192.786 431.12Z" fill="black"/>
</svg>
