<?xml version="1.0" encoding="UTF-8"?>
<svg width="512px" height="512px" viewBox="0 0 512 512" version="1.1" xmlns="http://www.w3.org/2000/svg" xmlns:xlink="http://www.w3.org/1999/xlink">
    <!-- Generator: Sketch 53.2 (72643) - https://sketchapp.com -->
    <title>ic_ui_elderseal</title>
    <desc>Created with Sketch.</desc>
    <g id="ic_ui_elderseal" stroke="none" stroke-width="1" fill="none" fill-rule="evenodd">
        <g id="Group" transform="translate(56.000000, 35.000000)" fill-rule="nonzero">
            <path d="M60.8024336,55.8519639 L80.3538998,30.7219161 L270.496731,30.7219161 L210.642388,86.4782064 L257.955688,123.198654 L203.307015,167.004897 L203.307015,207.286682 L295.102389,207.286682 L323.097494,183.891513 L394.239798,183.891513 L389.656952,200.949658 C374.633065,256.871167 375.404717,297.065986 390.602905,321.543157 L399.933271,336.570012 L382.993242,341.658973 C365.628403,346.875551 363.081467,347.741184 355.842508,351.500495 C338.127788,360.700043 325.954969,376.00585 319.096325,403.176871 L312.513606,429.254792 L295.481839,408.438715 C284.59419,395.131925 278.300031,389.020223 267.535383,382.969073 C252.499848,374.517123 232.414378,369.858119 204.673281,369.858119 L200.823714,369.858119 L197.549628,367.833388 C189.175985,362.655036 160.658192,346.06542 154.833926,342.153593 C146.133612,336.31009 139.648651,330.542445 133.39192,322.816358 C127.74986,315.849294 122.240609,307.201999 115.493955,294.883209 L113.829081,291.843296 L113.829081,234.078773 C102.38359,236.970495 88.8798201,238.973749 73.4757253,240.291288 C54.843829,241.884907 39.0439989,242.259076 13.7398929,242.259076 L0.195874855,242.259076 L0.195874855,55.8519639 L60.8024336,55.8519639 Z" id="Path-121" fill="#000000"></path>
            <path d="M13.7398929,69.395982 L67.4253716,69.395982 L86.9768378,44.2659342 L236.086722,44.2659342 L189.762997,87.4180076 L236.086722,123.370433 L189.762997,160.503418 L189.762997,220.8307 L300.016633,220.8307 L328.011739,197.435531 L376.576763,197.435531 C360.675647,256.62224 361.515564,300.372937 379.096514,328.687622 C356.190849,335.568722 320.094014,343.88581 305.964224,399.862001 C290.853725,381.394081 270.059602,356.3141 204.673281,356.3141 C157.665287,327.243845 150.06974,329.819388 127.373099,288.377337 L127.373099,215.170835 C98.4350479,228.715058 40.0610719,228.715058 13.7398929,228.715058 L13.7398929,172.134309 L38.419272,186.663278 L55.9589563,166.945917 L70.7751882,174.727829 L82.5435406,165.241318 L105.506259,177.695416 L124.430455,152.327162 L98.4350479,118.327409 L78.9412052,136.897882 L60.3175651,118.327409 L43.260724,136.897882 L13.7398929,136.897882 L13.7398929,69.395982 Z M107.082139,82.2272731 L107.082139,97.3506636 L162.896665,97.3506636 L162.896665,67.1038827 L147.871913,67.1038827 L138.493238,80.4730436 L107.082139,82.2272731 Z" id="Path" fill="#8A80A1"></path>
            <path d="M38.8876555,306.583416 L86.6012491,265.569814 L108.770066,289.467898 C206.744501,215.815796 283.250951,129.018084 336.415109,29.0105649 L353.747557,0.406361044 L360.607888,32.4849284 C360.782842,33.2879583 361.08796,34.7465852 361.495203,36.787737 C362.166373,40.1517239 362.883209,43.9506555 363.617643,48.11189 C365.714769,59.9940045 367.540975,72.4376596 368.870001,84.8737954 C372.828681,121.91649 371.80967,151.064472 362.939282,169.458858 C328.242148,230.961284 264.907094,293.571495 172.58963,358.444658 L193.949527,381.332064 L146.855764,423.056604 L116.318303,390.814142 L59.632331,441.335481 L8.30438805,388.382676 L68.5165114,337.771315 L38.8876555,306.583416 Z" id="Path-124" fill="#000000"></path>
            <path d="M58.5114304,307.575247 L85.5405521,284.341582 L174.564588,380.411688 L147.680195,404.230955 L58.5114304,307.575247 Z M77.9078759,347.570496 L108.038347,380.051106 L60.3172995,422.582461 L28.1487558,389.395575 L77.9078759,347.570496 L77.9078759,347.570496 Z" id="Path" fill="#978777"></path>
            <path d="M117.566124,299.799261 C216.77551,225.084242 293.378236,136.940519 347.374302,35.3680909 C347.374302,35.3680909 367.661483,128.485338 350.739687,163.575806 C317.354566,222.697141 254.746636,284.400626 162.915897,348.686259 L117.566124,299.799261 Z" id="Path" fill="#C9C3DC"></path>
        </g>
    </g>
</svg>