<?xml version="1.0" encoding="UTF-8"?>
<svg width="512px" height="512px" viewBox="0 0 512 512" version="1.1" xmlns="http://www.w3.org/2000/svg" xmlns:xlink="http://www.w3.org/1999/xlink">
    <!-- Generator: Sketch 53.2 (72643) - https://sketchapp.com -->
    <title>ic_ui_element</title>
    <desc>Created with Sketch.</desc>
    <g id="ic_ui_element" stroke="none" stroke-width="1" fill="none" fill-rule="evenodd">
        <g id="Group-4" transform="translate(62.000000, 56.000000)">
            <path d="M199.398311,148.172243 C206.221404,122.71412 231.592211,38.7072353 235.544594,0 C259.010584,30.8803594 267.804191,114.861581 272.866562,146.559861 C275.413592,143.011702 276.968051,140.841755 279.538482,136.370411 L307.421247,102.697711 L317.978803,142.244638 C321.011909,135.299192 324.332509,126.713048 327.893134,116.545107 L355.848702,64.3166403 L369.865961,152.803619 L386.767646,149.378696 L387.878788,184.53043 C385.392062,249.414802 378.090186,294.797103 365.061237,321.966387 C347.342085,358.916157 319.717795,377.043229 276.205172,390.006634 C222.684089,405.951788 150.636179,404.855854 112.599766,371.697472 L105.562965,365.563115 L105.050505,241.639348 L165.290073,32.0095964 L187.101371,104.594986 C187.892472,113.541834 191.991452,128.067586 199.398311,148.172243 Z" id="Path-24" fill="#000000" fill-rule="nonzero"></path>
            <path d="M125.252525,247.786699 L125.715778,360.840206 C163.993196,394.515249 241.873536,383.669581 270.369519,375.10198 C298.865503,366.534379 329.492427,353.572707 346.787868,317.175153 C358.318162,292.910117 365.281128,249.236605 367.676768,186.154618 L352.226373,200.894323 L347.80349,124.970616 C341.205915,143.984154 335.274579,158.111684 330.009481,167.353206 C324.744384,176.594728 318.859707,183.768941 312.35545,188.875846 C303.587045,184.394257 298.690673,170.957154 297.666333,148.564537 C286.207573,168.680533 273.971005,181.944709 260.956631,188.357065 C253.933043,177.89376 247.47509,136.656894 241.582769,64.6464646 C236.349772,112.932026 226.842182,155.575139 213.060001,192.575803 C211.453324,197.478151 206.832667,192.898531 199.198031,178.836943 C194.114023,193.179848 188.488411,205.92746 182.321196,217.079781 C179.586349,209.87599 175.079013,170.437439 168.799188,98.7641275 L125.252525,247.786699 Z" id="Path" fill="#D66B72"></path>
            <path d="M127.064683,252.94999 C183.968834,259.434834 226.420188,257.03042 258.033332,253.221292 C283.807522,250.11571 303.672233,239.068563 306.608768,233.095931 L333.633539,206.060606 C336.54588,240.759647 335.759784,267.11599 331.275251,285.129636 C324.548451,312.150104 306.443177,342.910914 255.520314,355.543102 C234.342009,360.796702 193.142505,360.868091 125.141262,356.191092 L105.050505,358.419347 L105.050505,251.791566 L127.064683,252.94999 Z" id="Path-25" fill="#000000" fill-rule="nonzero"></path>
            <path d="M125.252525,274.038029 L125.252525,340.048562 C191.532167,344.562937 233.86028,344.562937 252.236864,340.048562 C279.80174,333.277 319.164374,316.851026 323.232323,242.424242 C309.70379,269.673101 243.710524,280.21103 125.252525,274.038029 Z" id="Path" fill="#DBDBDB"></path>
            <polygon id="Path-26" fill="#000000" fill-rule="nonzero" points="60.8080808 234.545455 121.010101 234.545455 121.010101 367.474747 60.8080808 367.474747"></polygon>
            <polygon id="Path" fill="#C6A582" fill-rule="nonzero" points="101.010101 254.545455 80.8080808 254.545455 80.8080808 347.474747 101.010101 347.474747"></polygon>
            <polygon id="Path-27" fill="#000000" fill-rule="nonzero" points="0 270.707071 80.8080808 270.707071 80.8080808 331.313131 0 331.313131"></polygon>
            <polygon id="Path" fill="#C6A582" points="68.6868687 290.909091 20.2020202 290.909091 20.2020202 311.111111 68.6868687 311.111111"></polygon>
        </g>
    </g>
</svg>