<?xml version="1.0" encoding="UTF-8"?>
<svg width="512px" height="512px" viewBox="0 0 512 512" version="1.1" xmlns="http://www.w3.org/2000/svg" xmlns:xlink="http://www.w3.org/1999/xlink">
    <!-- Generator: Sketch 53.2 (72643) - https://sketchapp.com -->
    <title>ic_ui_shelling</title>
    <desc>Created with Sketch.</desc>
    <g id="ic_ui_shelling" stroke="none" stroke-width="1" fill="none" fill-rule="evenodd">
        <g id="Group" transform="translate(56.000000, 58.000000)" fill-rule="nonzero">
            <polygon id="Path-130" fill="#000000" points="53.1155506 191.345193 129.383829 141.914695 99.3158224 46.2266127 174.494584 104.25795 240.838845 0.714921512 240.838845 94.8812968 399.545663 6.74895963 302.2013 149.121824 385.413754 187.96737 293.427843 214.781749 357.383526 277.987736 272.479881 277.987736 272.479881 358.646436 198.572802 265.245245 138.140828 208.784234"></polygon>
            <polygon id="Path" fill="#E49A64" points="144.06333 197.320696 207.733341 256.806973 260.060157 322.93578 260.060157 265.568011 327.147874 265.568011 269.675261 208.7691 350.279911 185.272419 283.692346 154.187765 359.633028 43.1192661 228.419121 115.984367 228.419121 43.1192661 177.637647 122.373561 123.012054 80.2074481 144.06333 147.200789 85.3211009 185.272419"></polygon>
            <path d="M185.405308,214.239899 L189.578335,193.871673 L201.367277,212.385292 L220.86108,210.120324 L208.717411,223.928108 L214.141247,232.445823 L265.195676,224.057937 L156.396206,355.831098 L175.737576,261.427357 L113.764595,331.892845 L130.799641,350.484126 L94.224198,386.551465 L69.5798754,366.035356 L39.1344954,395.279978 L0.097662314,357.36207 L27.6633776,327.923129 L2.70960678,305.718919 L42.8811639,264.632484 L60.8908219,280.152656 L172.250773,168.23896 L170.729295,215.945091 L185.405308,214.239899 Z" id="Path-128" fill="#000000"></path>
            <path d="M38.2175415,336.723187 L59.6837805,356.495602 L39.1878271,376.147017 L19.3781508,356.905151 L39.1349727,335.805756 L38.2175415,336.723187 Z M71.3547196,289.146828 L157.383564,202.690198 L156.466133,231.456361 L186.877637,227.922876 L104.171075,321.963184 L71.3547196,289.146828 Z" id="Path" fill="#8A8A89"></path>
            <polygon id="Path" fill="#B1B1B1" points="22.6329754 305.026324 43.6867126 283.493104 113.526116 349.082683 92.5254096 369.829883"></polygon>
            <polygon id="Path" fill="#B1B1B1" points="195.317355 229.945946 180.052042 304.454765 230.309889 243.584658 206.493678 247.497495"></polygon>
        </g>
    </g>
</svg>