<?xml version="1.0" encoding="UTF-8"?>
<svg width="512px" height="512px" viewBox="0 0 512 512" version="1.1" xmlns="http://www.w3.org/2000/svg" xmlns:xlink="http://www.w3.org/1999/xlink">
    <!-- Generator: Sketch 53.2 (72643) - https://sketchapp.com -->
    <title>ic_ui_decoration_4_base</title>
    <desc>Created with Sketch.</desc>
    <g id="ic_ui_decoration_4_base" stroke="none" stroke-width="1" fill="none" fill-rule="evenodd">
        <path d="M129.635024,68.1551502 C208.477885,46.8218168 251.652812,36.1551502 259.159806,36.1551502 C266.666799,36.1551502 307.554321,46.8218168 381.82237,68.1551502 C386.39371,68.1551502 390.752715,70.0845974 393.826231,73.4684772 L450.973822,136.386821 C453.684424,139.371139 455.186177,143.258145 455.186177,147.28971 L455.186177,192.278832 C455.186177,195.62983 454.148049,198.898537 452.21455,201.635463 L359.044795,333.520017 C356.005859,337.821722 352.243207,339.801562 346.800207,342.379603 C293.364716,373.046269 263.484583,388.379603 257.159806,388.379603 C250.835029,388.379603 220.179959,373.046269 165.194595,342.379603 C159.906907,340.47384 156.461958,338.066923 153.389896,334.113531 L60.2223287,214.217521 C58.0111611,211.372001 56.8108108,207.87102 56.8108108,204.267376 L56.8108108,147.28971 C56.8108108,143.284536 58.2930089,139.421051 60.9718449,136.443593 L117.579842,73.5252495 C120.655184,70.1070852 125.037027,68.1551502 129.635024,68.1551502 Z M75.8648649,330.15515 L135.324324,414.479475 L16.4054054,414.479475 L75.8648649,330.15515 Z M181.024671,399.15515 L239.324324,483.479475 L120.405405,483.479475 L181.024671,399.15515 Z M337.024671,399.15515 L395.324324,483.479475 L276.405405,483.479475 L337.024671,399.15515 Z M435.864865,330.15515 L495.324324,414.479475 L376.405405,414.479475 L435.864865,330.15515 Z" id="Path-11" fill="#CFCFCF" fill-rule="nonzero"></path>
        <path d="M129.635024,84.3713664 L258.566447,52.3713664 L381.82237,84.3713664 L438.969961,147.28971 L438.969961,192.278832 L345.800207,324.163386 L256.216016,369.714854 L166.194595,324.163386 L73.027027,204.267376 L73.027027,147.28971 L129.635024,84.3713664 Z M330.639118,176.608749 L181.361129,176.608749 L255.149426,349.190413 L258.85229,349.190413 L330.639118,176.608749 Z M342.810811,176.608749 L342.810811,305.911174 L425.996988,188.158669 L425.996988,176.608749 L342.810811,176.608749 Z M86,176.608749 L86,199.819448 L169.187732,306.872551 L169.187732,176.608749 L86,176.608749 Z M241.506755,349.190413 L181.187732,201.512716 L181.187732,311.190413 L241.506755,349.190413 Z M272.494899,349.190413 L330.810811,311.190413 L330.810811,201.516255 L272.494899,349.190413 Z M257.948359,68.3443394 L187.236025,160.392533 L329.093296,160.392533 L257.948359,68.3443394 Z M347.377508,160.392533 L425.996988,160.392533 L425.996988,152.301847 L382.019504,103.883525 L347.377508,160.392533 Z M370.906716,97.1891892 L275.41598,69.1891892 L337.977778,150.903808 L370.906716,97.1891892 Z M168.951813,160.392533 L132.373058,100.724227 L86,152.266697 L86,160.392533 L168.951813,160.392533 Z M178.351543,150.903808 L240.913341,69.1891892 L145.422605,97.1891892 L178.351543,150.903808 Z" id="Path" fill="#000000" fill-rule="nonzero"></path>
        <polygon id="Line" fill-opacity="0.25" fill="#000000" fill-rule="nonzero" points="132 100 132 88 231.5 88 231.5 100"></polygon>
        <polygon id="Line-Copy-2" fill-opacity="0.25" fill="#000000" fill-rule="nonzero" points="172.411942 323.691162 169.862092 311.965196 230.119182 298.862092 232.669032 310.588058"></polygon>
        <polygon id="Line-Copy-4" fill-opacity="0.25" fill="#000000" fill-rule="nonzero" points="226 310.276627 226 298.276627 286.531124 298.276627 286.531124 310.276627"></polygon>
        <polygon id="Line-Copy" fill-opacity="0.25" fill="#000000" fill-rule="nonzero" points="283.5 100 283.5 88 385 88 385 100"></polygon>
        <polygon id="Line-Copy-3" fill-opacity="0.25" fill="#000000" fill-rule="nonzero" points="282.279001 310.456139 285.043861 298.779001 344.755411 312.917228 341.990551 324.594366"></polygon>
    </g>
</svg>