<?xml version="1.0" encoding="UTF-8"?>
<svg width="512px" height="512px" viewBox="0 0 512 512" version="1.1" xmlns="http://www.w3.org/2000/svg" xmlns:xlink="http://www.w3.org/1999/xlink">
    <!-- Generator: Sketch 53.2 (72643) - https://sketchapp.com -->
    <title>ic_ui_notes</title>
    <desc>Created with Sketch.</desc>
    <g id="ic_ui_notes" stroke="none" stroke-width="1" fill="none" fill-rule="evenodd">
        <g id="Group" transform="translate(56.000000, 68.000000)" fill-rule="nonzero">
            <polygon id="Line" fill="#000000" points="0.113943883 73.1092437 0.113943883 13.0608175 399.301279 13.0608175 399.301279 73.1092437"></polygon>
            <polygon id="Line-Copy-2" fill="#000000" points="0.113943883 375.744196 0.113943883 315.69577 399.301279 315.69577 399.301279 375.744196"></polygon>
            <polygon id="Line-Copy" fill="#000000" points="0.113943883 224.42672 0.113943883 164.378294 399.301279 164.378294 399.301279 224.42672"></polygon>
            <polygon id="Path" fill="#56606B" points="14.6417889 58.5813987 384.773434 58.5813987 384.773434 27.5886626 14.6417889 27.5886626"></polygon>
            <polygon id="Path" fill="#56606B" points="14.6417889 361.216351 384.773434 361.216351 384.773434 330.223615 14.6417889 330.223615"></polygon>
            <polygon id="Path" fill="#56606B" points="14.6417889 209.898875 384.773434 209.898875 384.773434 178.906139 14.6417889 178.906139"></polygon>
            <path d="M113.6245,57.4336768 L175.609973,57.4336768 L175.609973,343.218717 C175.609973,360.335533 161.734052,374.211453 144.617236,374.211453 L32.6087477,374.211453 C15.4919322,374.211453 1.61601162,360.335533 1.61601162,343.218717 L1.61601162,250.880204 C1.61601162,233.763389 15.4919322,219.887468 32.6087477,219.887468 L98.9042103,219.887468 C104.231835,219.887468 109.245492,221.231728 113.6245,223.599568 L113.6245,57.4336768 Z" id="Path-119" fill="#000000"></path>
            <path d="M127.297766,71.1069427 L127.297766,325.899247 L49.9282179,325.899247 L49.9282179,268.199674 L81.5847401,268.199674 L81.5847401,280.453325 L65.8554976,280.453325 L65.8554976,315.092266 L98.9042103,315.092266 C108.46949,315.092266 116.22368,307.338075 116.22368,297.772795 L116.22368,250.880204 C116.22368,241.314925 108.46949,233.560734 98.9042103,233.560734 L32.6087477,233.560734 C23.0434685,233.560734 15.2892775,241.314925 15.2892775,250.880204 L15.2892775,343.218717 C15.2892775,352.783996 23.0434685,360.538187 32.6087477,360.538187 L144.617236,360.538187 C154.182516,360.538187 161.936707,352.783996 161.936707,343.218717 L161.936707,71.1069427 L127.297766,71.1069427 Z" id="Path" fill="#9DB6D5"></path>
            <path d="M288.086553,0.492140646 C297.714377,0.492140646 304.734235,0.492140646 309.146127,0.492140646 C310.880922,3.43642692 313.028021,6.01706088 315.587424,8.23404254 C319.230912,10.8810645 325.06485,12.8004699 332.752166,13.7107475 C340.546175,14.633659 349.165392,14.4240486 357.411856,13.4981178 C358.962287,13.324032 360.358204,13.1388765 361.569227,12.956159 C362.254598,12.8527513 362.697651,12.7786236 362.86857,12.7474835 L387.977295,8.23404254 L377.279597,32.8259038 C365.788372,53.5661839 355.712216,65.7165241 342.854942,71.30186 C333.993502,75.1513627 324.924351,75.3327305 315.587424,72.1124107 L315.587424,226.802321 C315.587424,239.891651 304.976426,250.502649 291.887096,250.502649 L198.754549,250.502649 C185.665219,250.502649 175.054221,239.891651 175.054221,226.802321 L175.054221,150.102926 C175.054221,137.013596 185.665219,126.402598 198.754549,126.402598 L244.872212,126.402598 C249.407908,126.402598 253.646018,127.676715 257.248156,129.886563 L257.248156,0.492140646 L288.086553,0.492140646 Z" id="Path-120" fill="#000000"></path>
            <path d="M301.914158,14.1988959 C317.470627,35.5397447 365.319393,27.1108621 365.319393,27.1108621 C346.931048,60.299617 330.552955,73.4445966 301.914158,48.8481157 L301.914158,226.802321 C301.914158,232.340115 297.42489,236.829383 291.887096,236.829383 L198.754549,236.829383 C193.216755,236.829383 188.727487,232.340115 188.727487,226.802321 L188.727487,150.102926 C188.727487,144.565133 193.216755,140.075864 198.754549,140.075864 L244.872212,140.075864 C250.410005,140.075864 254.899274,144.565133 254.899274,150.102926 L254.899274,190.115368 C254.899274,195.653161 250.410005,200.14243 244.872212,200.14243 L222.781077,200.14243 L222.781077,180.088307 L234.845151,180.088307 L234.845151,160.129988 L208.78161,160.129988 L208.78161,216.77526 L270.921422,216.77526 L270.921422,14.1654066 L301.914158,14.1654066 L301.914158,14.1988959 Z" id="Path" fill="#907C6F"></path>
        </g>
    </g>
</svg>