<svg width="512" height="512" viewBox="0 0 512 512" fill="none" xmlns="http://www.w3.org/2000/svg">
<rect width="512" height="512" fill="white"/>
<path d="M392.431 199.1C392.461 204.9 392.51 210.42 392.581 216.67C392.921 247.47 392.921 246.98 392.601 252.71C392.341 257.48 391.811 260.87 390.491 264.11C387.801 270.71 381.901 275.2 374.491 275.36C367.911 275.5 339.671 275.49 330.731 275.25C328.126 275.184 325.572 274.518 323.267 273.304C320.962 272.09 318.968 270.36 317.441 268.25C315.842 266.078 314.655 263.63 313.941 261.03C312.934 257.362 312.433 253.573 312.451 249.77C312.39 246.102 312.783 242.441 313.621 238.87C314.183 236.464 315.136 234.167 316.441 232.07C319.291 227.59 323.851 224.22 330.281 224.11L334.461 224.06L334.561 199.1H301.701C276.37 199.1 262.101 169.99 277.631 149.98L339.051 70.7898C341.898 67.1204 345.546 64.1508 349.717 62.1079C353.888 60.065 358.471 59.0029 363.116 59.0029C367.76 59.0029 372.343 60.065 376.514 62.1079C380.685 64.1508 384.333 67.1204 387.181 70.7898L448.601 149.98C464.131 169.99 449.861 199.1 424.541 199.1H392.441H392.431ZM222.161 345.3V372.73H260.26C268.82 372.73 276.04 378.05 280.421 386.1C284.131 392.94 285.991 401.95 285.991 413C285.991 424.15 284.26 432.96 280.59 439.61C276.18 447.61 268.76 452.52 260.251 452.52H176.601C154.731 452.52 140.821 435.8 140.821 413V345.3H78.8805C60.4605 345.3 49.6205 324.6 60.1005 309.46L162.631 161.23C164.731 158.189 167.539 155.704 170.812 153.988C174.084 152.271 177.725 151.374 181.421 151.374C185.116 151.374 188.757 152.271 192.029 153.988C195.302 155.704 198.11 158.189 200.211 161.23L302.741 309.46C313.221 324.61 302.381 345.29 283.961 345.29H222.161V345.3Z" fill="black"/>
<path d="M156.041 345.92V413C156.041 427.74 163.641 437.3 176.591 437.3H260.251C264.921 437.3 270.761 431.96 270.761 413C270.761 394.05 264.331 387.96 260.261 387.96H206.941V345.92H156.041Z" fill="#93D052"/>
<path d="M349.8 199.2L349.62 239.24C340.47 239.24 334.12 239.28 330.54 239.34C326.77 239.4 326.48 259.9 331.14 260.03C345.476 260.243 359.814 260.276 374.15 260.13C378.72 260.03 377.54 250.25 377.2 199.21C368.18 199.11 359.04 199.11 349.8 199.21V199.2Z" fill="#93D052"/>
<path d="M269.421 288.05H93.4206L125.071 242.3L140.301 263.69L160.651 235.12L181.421 263.69L202.191 235.12L222.541 263.69L237.771 242.29L269.421 288.05ZM271.021 290.36L290.221 318.12C291.014 319.262 291.478 320.599 291.565 321.987C291.651 323.375 291.356 324.759 290.711 325.991C290.065 327.223 289.095 328.254 287.905 328.973C286.715 329.692 285.351 330.071 283.961 330.07H78.8806C77.4903 330.071 76.126 329.692 74.9361 328.973C73.7461 328.254 72.7758 327.223 72.1307 325.991C71.4855 324.759 71.19 323.375 71.2764 321.987C71.3628 320.599 71.8277 319.262 72.6206 318.12L90.8606 291.75L120.001 329.68L149.961 290.68L180.401 329.68L210.851 290.68L240.811 329.68L271.011 290.36H271.021ZM133.451 230.2L153.691 200.93L164.671 215.98L180.401 194.4L196.141 215.98L208.161 199.5L229.391 230.2H133.451ZM202.701 191.62H160.141L175.161 169.91C175.861 168.897 176.796 168.069 177.886 167.497C178.977 166.926 180.189 166.627 181.421 166.627C182.652 166.627 183.865 166.926 184.955 167.497C186.045 168.069 186.981 168.897 187.681 169.91L202.701 191.61V191.62Z" fill="#93D052"/>
<path d="M324.171 114.799L340.811 130.699L363.151 109.369H328.391L351.071 80.1193C352.494 78.2837 354.319 76.7981 356.405 75.776C358.491 74.754 360.783 74.2227 363.106 74.2227C365.429 74.2227 367.721 74.754 369.807 75.776C371.893 76.7981 373.717 78.2837 375.141 80.1193L397.831 109.369H363.151L385.481 130.689L402.081 114.849L421.451 139.829H304.761L324.171 114.809V114.799ZM392.851 183.869H332.431L362.631 144.469L392.851 183.869ZM395.371 183.869L425.321 144.809L436.561 159.309C444.321 169.309 437.191 183.869 424.531 183.869H395.371ZM329.911 183.869H301.691C289.021 183.869 281.891 169.319 289.651 159.309L300.431 145.419L329.911 183.869Z" fill="#93D052"/>
</svg>
