<?xml version="1.0" encoding="UTF-8"?>
<svg width="512px" height="512px" viewBox="0 0 512 512" version="1.1" xmlns="http://www.w3.org/2000/svg" xmlns:xlink="http://www.w3.org/1999/xlink">
    <!-- Generator: Sketch 53.2 (72643) - https://sketchapp.com -->
    <title>ic_ui_slot_1_empty</title>
    <desc>Created with Sketch.</desc>
    <g id="ic_ui_slot_1_empty" stroke="none" stroke-width="1" fill="none" fill-rule="evenodd">
        <path d="M122.258752,91.3972632 L389.613734,91.3972632 C392.759959,91.6095053 395.378696,92.3016611 397.469943,93.4737308 C399.561191,94.6458005 401.196915,96.3381182 402.377116,98.5506839 L459.875664,190.690207 C461.503118,192.816206 462.316845,195.252804 462.316845,198 C462.316845,200.747196 461.503118,203.503992 459.875664,206.270386 L385.980652,289.205749 L454.425807,403.646604 C455.600257,409.592717 455.238297,414.060144 453.339929,417.048887 C451.44156,420.03763 447.624614,422.149364 441.88909,423.38409 L71.3629388,423.38409 C66.2658192,423.38906 62.6591826,421.277326 60.5430289,417.048887 C58.4268752,412.820448 58.4268752,407.725503 60.5430289,401.764051 L127.558711,291.108102 L52.8484214,207.382162 C50.7086919,204.512281 49.6388272,201.568838 49.6388272,198.551832 C49.6388272,195.534826 50.7086919,192.514877 52.8484214,189.491986 L109.735518,98.5506839 C110.670693,96.3938957 112.213054,94.7015781 114.362602,93.4737308 C116.51215,92.2458836 119.1442,91.5537277 122.258752,91.3972632 Z" id="Background" fill="#9E9E9E"></path>
        <path d="M265.841998,306.875078 C266.365108,307.449783 266.843983,308.088413 267.268784,308.790968 L319.268784,394.790968 C324.104499,402.788497 318.345834,413 309,413 L205,413 C195.654166,413 189.895501,402.788497 194.731216,394.790968 L246.731216,308.790968 C246.867546,308.5655 247.009445,308.346615 247.156588,308.134314 C246.469174,307.378132 245.859899,306.511009 245.35169,305.532946 L192.35169,203.532946 C190.395593,199.768382 190.572618,195.250739 192.817296,191.650785 L245.817296,106.650785 C250.515203,99.1164052 261.484797,99.1164052 266.182704,106.650785 L319.182704,191.650785 C321.427382,195.250739 321.604407,199.768382 319.64831,203.532946 L266.64831,305.532946 C266.402347,306.006309 266.13271,306.453687 265.841998,306.875078 Z" id="Triangle" fill="#DCDCDC" fill-rule="nonzero"></path>
        <path d="M309,198 L256,113 L203,198 L256,300 L309,198 Z M257,315 L205,401 L309,401 L257,315 Z" id="Path" fill="#000000"></path>
    </g>
</svg>