<svg width="512" height="512" viewBox="0 0 512 512" fill="none" xmlns="http://www.w3.org/2000/svg">
<rect width="512" height="512" fill="white"/>
<path d="M182.09 358.33C198.582 368.035 216.833 374.377 235.79 376.99L238.32 377.34L240.58 378.52C247.66 382.2 253.15 386.99 256.93 392.65C260.381 387.243 264.976 382.659 270.39 379.22L273.15 377.42L276.42 376.96C296.209 374.203 315.213 367.384 332.24 356.93L256.66 302.53L182.09 358.33ZM154.84 337.64L179.08 251.69L113.28 201.74C111.126 211.828 110.043 222.115 110.05 232.43C110.042 252.081 114.006 271.53 121.705 289.61C129.404 307.69 140.678 324.027 154.85 337.64H154.84ZM125.24 167.53H199.14L232.98 88.29C185.63 95.79 145.86 126.06 125.24 167.53ZM255.53 57H256.47C366.73 57.26 456 146.72 456 257C456 355.77 383.95 439.33 287.37 454.55L284.83 454.95L282.3 454.47C270.9 452.29 262.27 446.17 256.98 436.97C251.24 446.91 241.77 453.17 229.31 454.71L227.28 454.96L225.26 454.65C128.39 439.7 56 356 56 257C56 146.72 145.27 57.26 255.53 57V57.01V57ZM401.95 232.42C401.95 222.12 400.88 212.07 398.85 202.37L334.16 251.47L360.37 334.44C387.043 307.183 401.971 270.557 401.95 232.42ZM279.3 88.33L310.7 167.53H386.75C366.17 126.15 326.53 95.92 279.3 88.33Z" fill="black"/>
<path d="M256.88 71.7398C358.8 72.2198 441.26 154.98 441.26 257C441.26 349.42 373.58 426.04 285.08 439.99C274.53 437.97 268.28 431.16 266.32 419.54C264.29 407.51 268.33 398.18 278.46 391.56C356.57 380.64 416.69 313.56 416.69 232.43C416.69 143.98 345.22 72.2198 256.89 71.7398L300.69 182.27H400.96L316.97 246.02L350.41 351.84L256.49 284.24L166.15 351.84L196 246.02L112.03 182.27H208.89L256.5 70.7598L256.9 71.7398H256.88ZM233.78 391.59C245.52 397.71 250.16 407.12 247.7 419.82C245.35 431.96 238.62 438.71 227.5 440.08C138.73 426.38 70.75 349.63 70.75 257C70.75 154.83 153.45 71.9798 255.57 71.7398C167.03 71.9798 95.32 143.83 95.32 232.43C95.32 313.63 155.56 380.77 233.78 391.59Z" fill="#FFDE0A"/>
</svg>
