<?xml version="1.0" encoding="UTF-8"?>
<svg width="512px" height="512px" viewBox="0 0 512 512" version="1.1" xmlns="http://www.w3.org/2000/svg" xmlns:xlink="http://www.w3.org/1999/xlink">
    <!-- Generator: Sketch 53.2 (72643) - https://sketchapp.com -->
    <title>ic_ui_bookmark</title>
    <desc>Created with Sketch.</desc>
    <g id="ic_ui_bookmark" stroke="none" stroke-width="1" fill="none" fill-rule="evenodd">
        <g id="Group" transform="translate(100.000000, 56.000000)" fill-rule="nonzero">
            <polygon id="Path" fill="#FFFFFF" points="295.202186 16 16 16 16 375.738173 155.601093 335.926642 295.202186 375.738173"></polygon>
            <path d="M295.202186,16 L16,16 L16,375.738173 L155.601093,335.926642 L295.202186,375.738173 L295.202186,16 Z M0,-1.09139364e-11 L311.202186,-1.09139364e-11 L311.202186,400 L155.601093,353.333333 L0,400 L0,-1.09139364e-11 Z" id="Shape" fill="#000000"></path>
            <polygon id="Path" fill-opacity="0.1" fill="#000000" points="295.202186 16 16 16 16 375.738173 155.601093 335.926642 295.202186 375.738173"></polygon>
            <path d="M156.628636,88 L195.627085,126.998449 L156.628636,165.996898 L117.630187,126.998449 L156.628636,88 Z M156.628636,291.996427 L117.630187,252.997978 L156.628636,213.999529 L195.627085,252.997978 L156.628636,291.996427 Z M219.001551,228.860456 L180.003102,189.862007 L219.001551,150.863558 L258,189.862007 L219.001551,228.860456 Z M92.998449,228.860456 L54,189.862007 L92.998449,150.863558 L131.996898,189.862007 L92.998449,228.860456 Z M156,195.420884 L91.6228648,259.798019 L86.2019809,254.377135 L150.580903,189.998213 L86.2019809,125.619292 L91.6228648,120.198408 L156,184.575543 L220.377135,120.198408 L225.798019,125.619292 L161.419097,189.998213 L225.798019,254.377135 L220.377135,259.798019 L156,195.420884 Z" id="Rectangle-3" fill-opacity="0.7" fill="#000000"></path>
            <path d="M258,310.5 L277,290 L277,331 L258,310.5 Z M54,69.5 L35,90 L35,49 L54,69.5 Z M54,230.833333 L35,251.333333 L35,210.333333 L54,230.833333 Z M54,150.166667 L35,170.666667 L35,129.666667 L54,150.166667 Z M54,311.5 L35,332 L35,291 L54,311.5 Z M258,68.5 L277,48 L277,89 L258,68.5 Z M258,229.5 L277,209 L277,250 L258,229.5 Z M258,149.5 L277,129 L277,170 L258,149.5 Z" id="Triangle-Copy-3" fill-opacity="0.3" fill="#000000"></path>
        </g>
    </g>
</svg>