<svg width="512" height="512" viewBox="0 0 512 512" fill="none" xmlns="http://www.w3.org/2000/svg">
<rect width="512" height="512" fill="white"/>
<path d="M455.37 270.85L380.07 345.39L438.55 443.13H80.72V321.43L56 347.25V181.12L67.74 178.53C212.31 146.69 322.54 113.48 398.24 79.07L424.8 67L419.12 95.6C411.32 134.9 394.84 172.73 369.77 209.05L455.38 270.85H455.37ZM161.07 382.35L204.15 312L245.83 357.89L260.98 335.79L220.72 282.05L181.54 327L128.47 271.54L93.53 308.04L161.07 382.34V382.35ZM168.92 222.91L159.15 209.29L132.4 213.22L153.5 238.42L168.92 222.91ZM262.24 214.48L276.18 192.1L248.95 196.1L262.24 214.48Z" fill="black"/>
<path d="M70.9609 193.14V310L136.541 241.49L103.751 202.32L305.961 172.62L263.161 241.31L232.091 198.33L176.171 207.36L188.471 224.49L145.481 267.69L181.021 304.84L221.601 258.27L263.161 313.75L300.321 267.69L378.481 407.19H263.161L300.321 336.84L323.721 376.94H297.021V391.79H348.891L300.321 304.84L247.481 381.97L206.491 336.84L163.411 407.19L95.6809 332.67V428.17H412.171L361.211 343.02L432.291 272.65L348.891 212.45C377.691 174.11 396.191 134.2 404.441 92.7002C327.621 127.62 216.461 161.1 70.9609 193.15V193.14Z" fill="#E99B9A"/>
</svg>
