<?xml version="1.0" encoding="UTF-8"?>
<svg width="512px" height="512px" viewBox="0 0 512 512" version="1.1" xmlns="http://www.w3.org/2000/svg" xmlns:xlink="http://www.w3.org/1999/xlink">
    <!-- Generator: Sketch 53.2 (72643) - https://sketchapp.com -->
    <title>ic_ui_defense</title>
    <desc>Created with Sketch.</desc>
    <g id="ic_ui_defense" stroke="none" stroke-width="1" fill="none" fill-rule="evenodd">
        <g id="defence" transform="translate(71.000000, 56.000000)">
            <path d="M361.713284,2.46853638 L364.573302,4.28199818 L366.973943,6.662041 L368.770143,9.51809238 L369.888361,12.7223445 L370.255055,16.0735253 L370.255055,273.485471 L369.81482,277.148624 L368.476989,280.590377 L366.369502,283.611471 L265.55565,395.032698 L263.209408,397.138004 L260.479345,398.694844 L257.472247,399.664976 L254.338216,399.995062 L116.865972,399.995062 L113.730933,399.664976 L110.724842,398.694844 L107.99478,397.138004 L105.647531,395.032698 L4.83468596,283.611471 L2.72619124,280.590377 L1.3883599,277.148624 L0.948124738,273.485471 L0.948124738,16.0735253 L1.31481947,12.7223445 L2.43303693,9.51809238 L4.22923669,6.662041 L6.63088572,4.28199818 L9.48989576,2.46853638 L12.6974673,1.35147612 L16.0521197,0.98516086 L355.152068,0.98516086 L358.50672,1.35147612 L361.713284,2.46853638 Z M19.7160564,19.7530925 L19.7160564,272.374015 L118.551147,381.721439 L253.325103,381.721439 L352.160194,272.374015 L352.160194,19.7530925 L19.7160564,19.7530925 L19.7160564,19.7530925 Z" id="Shape" fill="#010100"></path>
            <polygon id="Shape" fill="#BB9A73" points="118.557073 381.728352 19.7229698 272.380929 19.7229698 19.7600059 352.166119 19.7600059 352.166119 272.380929 253.332016 381.728352"></polygon>
            <path d="M354.329523,17.1916431 L354.329523,274.671034 L254.916639,386.304129 L118.099971,386.304129 L18.6859584,274.671034 L18.6859584,17.1916431 L354.329523,17.1916431 Z M40.4681366,39.9639203 L40.4681366,264.678258 L126.77855,361.746099 L243.268804,361.746099 L329.577047,264.678258 L329.577047,39.9639203 L40.4681366,39.9639203 L40.4681366,39.9639203 Z" id="Shape" fill="#826A51"></path>
            <polygon id="Shape" fill="#876C4E" points="95.7704748 164.916916 167.650181 164.916916 167.650181 75.0672823 203.590035 75.0672823 203.590035 164.916916 275.469741 164.916916 275.469741 200.856769 203.590035 200.856769 203.590035 326.646256 167.650181 326.646256 167.650181 200.856769 95.7704748 200.856769"></polygon>
        </g>
    </g>
</svg>