<?xml version="1.0" encoding="UTF-8"?>
<svg width="512px" height="512px" viewBox="0 0 512 512" version="1.1" xmlns="http://www.w3.org/2000/svg" xmlns:xlink="http://www.w3.org/1999/xlink">
    <!-- Generator: Sketch 53.2 (72643) - https://sketchapp.com -->
    <title>ic_ui_set_bonus_7</title>
    <desc>Created with Sketch.</desc>
    <g id="ic_ui_set_bonus_7" stroke="none" stroke-width="1" fill="none" fill-rule="evenodd">
        <path d="M40,0 L472,0 C494.09139,-4.33003142e-14 512,17.90861 512,40 L512,472 C512,494.09139 494.09139,512 472,512 L40,512 C17.90861,512 2.705415e-15,494.09139 0,472 L0,40 C-2.705415e-15,17.90861 17.90861,4.05812251e-15 40,0 Z" id="Rectangle" fill="#6F6F6F" fill-rule="nonzero"></path>
        <path d="M40,15 C26.1928813,15 15,26.1928813 15,40 L15,472 C15,485.807119 26.1928813,497 40,497 L472,497 C485.807119,497 497,485.807119 497,472 L497,40 C497,26.1928813 485.807119,15 472,15 L40,15 Z" id="Path" fill="#3D3D3D" fill-rule="nonzero"></path>
        <path d="M266.673418,456 L178.370535,456 L184.541856,395.443913 C191.634856,337.348866 205.410156,285.374573 225.951203,239.369417 C241.289938,205.015722 260.820053,171.349981 284.521252,138.373036 L111.664685,138.373047 L111.664685,60.53125 L392.1432,60.53125 L392.1432,125.663507 L387.451534,131.243747 C345.804495,180.778483 317.943699,224.26946 303.793769,261.365222 C289.386709,299.135081 278.886859,345.316444 272.394188,399.864937 L266.673418,456 Z" id="7" fill="#000000" fill-rule="nonzero"></path>
        <path d="M372.1432,118.373047 L372.1432,80.53125 L131.664685,80.53125 L131.664685,118.373047 L325.02406,118.373047 C290.844201,160.365444 263.907622,203.415144 244.213513,247.523438 C224.519404,291.631731 211.254563,341.680059 204.418591,397.669922 L200.512341,436 L248.608044,436 L252.514294,397.669922 C259.187505,341.517297 270.051654,293.706903 285.107068,254.237305 C300.162481,214.767706 329.174236,169.480073 372.1432,118.373047 Z" id="Path" fill="#B2B2B2" fill-rule="nonzero"></path>
    </g>
</svg>