<?xml version="1.0" encoding="UTF-8"?>
<svg width="512px" height="512px" viewBox="0 0 512 512" version="1.1" xmlns="http://www.w3.org/2000/svg" xmlns:xlink="http://www.w3.org/1999/xlink">
    <!-- Generator: Sketch 53.2 (72643) - https://sketchapp.com -->
    <title>ic_ui_settings</title>
    <desc>Created with Sketch.</desc>
    <g id="ic_ui_settings" stroke="none" stroke-width="1" fill="none" fill-rule="evenodd">
        <g id="Group" transform="translate(86.000000, 56.000000)" fill-rule="nonzero">
            <path d="M252.492245,206.034987 L206.034987,252.492245 L183.070099,229.527356 C177.960734,232.188213 172.638274,234.432809 167.149758,236.235144 L167.149758,268.599034 L101.449275,268.599034 L101.449275,236.547314 C95.8481078,234.767224 90.4151576,232.527967 85.1998585,229.856432 L62.5640464,252.492245 L16.1067892,206.034987 L38.7426014,183.399175 C36.0710669,178.183876 33.8318093,172.750926 32.0517199,167.149758 L0,167.149758 L0,101.449275 L32.3638897,101.449275 C34.166225,95.9607597 36.4108209,90.6382997 39.0716775,85.5289347 L16.1067892,62.5640464 L62.5640464,16.1067892 L85.8405771,39.38332 C90.8599746,36.8547736 96.0774034,34.7251153 101.449275,33.0178982 L101.449275,0 L167.149758,0 L167.149758,33.3300682 C172.410236,35.057519 177.518442,37.19134 182.432977,39.7087993 L206.034987,16.1067892 L252.492245,62.5640464 L228.890235,86.1660564 C231.407694,91.0805917 233.541515,96.188798 235.268966,101.449275 L268.599034,101.449275 L268.599034,167.149758 L235.581136,167.149758 C233.873918,172.52163 231.74426,177.739059 229.215714,182.758457 L252.492245,206.034987 Z" id="Path" fill="#000000"></path>
            <path d="M333.784736,334.502198 L304.683139,377.64709 L286.941083,365.679922 C285.951826,366.372222 284.944917,367.03987 283.921183,367.682178 L288.16345,389.506749 L236.948118,399.462001 L232.705851,377.637428 C231.276051,377.382618 229.855122,377.084789 228.444843,376.744517 L216.240191,394.838657 L173.095299,365.737061 L185.593506,347.207707 C185.049318,346.413017 184.520915,345.607224 184.008642,344.790748 L162.184072,349.033015 L152.22882,297.817684 L174.053391,293.575417 C174.265432,292.385614 174.507269,291.201919 174.778576,290.025356 L155.903732,277.294113 L185.005329,234.149221 L203.880173,246.880464 C204.86943,246.188165 205.876339,245.520517 206.900073,244.878208 L202.657806,223.053638 L253.873138,213.098386 L258.115404,234.922955 C259.064328,235.092069 260.00939,235.280141 260.95007,235.487007 L273.448276,216.957654 L316.593168,246.05925 L304.388516,264.153391 C305.23231,265.333511 306.040743,266.539405 306.812611,267.769639 L328.637184,263.527371 L338.592436,314.742703 L316.767865,318.98497 C316.555824,320.174772 316.313987,321.358467 316.04268,322.53503 L333.784736,334.502198 Z" id="Oval-Copy" fill="#000000"></path>
            <path d="M211.128755,185.167346 L231.996396,206.034987 L206.034987,231.996396 L185.362548,211.323956 C175.62212,217.896463 164.559419,222.65869 152.657005,225.12808 L152.657005,254.10628 L115.942029,254.10628 L115.942029,225.323128 C103.907958,222.960928 92.712603,218.259288 82.8490991,211.711343 L62.5640464,231.996396 L36.602638,206.034987 L56.8876907,185.749935 C50.3397457,175.886431 45.638106,164.691076 43.2759061,152.657005 L14.4927536,152.657005 L14.4927536,115.942029 L43.470954,115.942029 C45.9403433,104.039614 50.7025707,92.976914 57.2750777,83.2364861 L36.602638,62.5640464 L62.5640464,36.602638 L83.4316876,57.4702792 C93.1525997,51.1221846 104.144264,46.5579044 115.942029,44.2420897 L115.942029,14.4927536 L152.657005,14.4927536 L152.657005,44.4371375 C164.324293,46.8577453 175.184716,51.4814981 184.783751,57.8538743 L206.034987,36.602638 L231.996396,62.5640464 L210.74516,83.8152827 C217.117536,93.4143183 221.741288,104.274741 224.161896,115.942029 L254.10628,115.942029 L254.10628,152.657005 L224.356944,152.657005 C222.041129,164.45477 217.476849,175.446434 211.128755,185.167346 Z M133.816425,165.217391 C150.625091,165.217391 164.251208,151.591275 164.251208,134.782609 C164.251208,117.973942 150.625091,104.347826 133.816425,104.347826 C117.007759,104.347826 103.381643,117.973942 103.381643,134.782609 C103.381643,151.591275 117.007759,165.217391 133.816425,165.217391 Z" id="Path" fill="#7CA1C2"></path>
            <path d="M298.962751,328.495893 L313.665453,338.412991 L300.772346,357.527808 L286.069644,347.61071 C280.855903,352.749222 274.632149,356.939577 267.631936,359.835514 L271.171621,378.045616 L248.409252,382.470172 L244.869566,364.26007 C237.054054,364.195341 229.488704,362.543531 222.553769,359.561123 L212.329399,374.719375 L193.214582,361.826268 L203.593256,346.439251 C198.676658,341.329239 194.659243,335.279324 191.855307,328.501501 L173.645205,332.041186 L169.220649,309.278817 L187.430751,305.739132 C187.493491,298.16381 189.047261,290.823511 191.858505,284.064494 L176.023014,273.38332 L188.916121,254.268503 L204.751612,264.949677 C209.965353,259.811164 216.189107,255.62081 223.18932,252.724872 L219.649635,234.514771 L242.412004,230.090214 L245.95169,248.300316 C253.28635,248.361063 260.400684,249.819607 266.980395,252.463953 L277.359069,237.076936 L296.473886,249.970043 L286.249516,265.128294 C291.612629,270.441025 295.97819,276.836717 298.965949,284.058885 L317.176051,280.5192 L321.600607,303.28157 L303.390505,306.821255 C303.327765,314.396577 301.773995,321.736876 298.962751,328.495893 Z M249.282115,326.197267 C259.758206,324.160921 266.599972,314.017586 264.563626,303.541495 C262.52728,293.065404 252.383945,286.223638 241.907854,288.259984 C231.431763,290.29633 224.589997,300.439664 226.626343,310.915756 C228.662689,321.391847 238.806024,328.233612 249.282115,326.197267 Z" id="Path" fill="#4E6378"></path>
        </g>
    </g>
</svg>