<?xml version="1.0" encoding="UTF-8"?>
<svg width="512px" height="512px" viewBox="0 0 512 512" version="1.1" xmlns="http://www.w3.org/2000/svg" xmlns:xlink="http://www.w3.org/1999/xlink">
    <!-- Generator: Sketch 53.2 (72643) - https://sketchapp.com -->
    <title>ic_ui_note_2_base</title>
    <desc>Created with Sketch.</desc>
    <g id="ic_ui_note_2_base" stroke="none" stroke-width="1" fill="none" fill-rule="evenodd">
        <g id="Group" transform="translate(91.000000, 56.000000)" fill-rule="nonzero">
            <path d="M236.56477,362.416296 C236.56477,382.820905 220.023566,399.362109 199.618957,399.362109 L37.4384236,399.362109 C17.0338147,399.362109 0.492610837,382.820905 0.492610837,362.416296 L0.492610837,241.630691 C0.492610837,221.226082 17.0338147,204.684878 37.4384236,204.684878 L134.139853,204.684878 C145.631063,204.684878 155.896966,209.931046 162.673144,218.158964 L162.673144,0 L221.786444,0 C232.682327,0 241.736255,1.43818671 249.855464,4.31438899 C256.23002,6.57255357 260.860172,9.09203303 268.058424,13.7179613 C268.304699,13.876229 270.120113,15.0463988 270.641414,15.3804966 C279.219659,20.8782298 284.452855,23.2201192 293.453957,24.7842109 C306.271931,27.011548 324.272598,26.5048571 349.908316,22.4801252 L374.947352,18.5490706 L366.034942,42.2761745 C349.771836,85.5727015 329.009674,110.763614 301.523363,116.44356 C281.262547,120.630384 259.90898,113.664187 236.832844,96.3567498 L236.56477,362.416296 Z" id="Path-2-Copy" fill="#000000"></path>
            <path d="M352.200394,37.0796208 C252.453497,52.7395884 274.188539,14.7783251 221.786444,14.7783251 L177.451469,14.7783251 L177.451469,340.248809 L59.6059113,340.248809 L59.6059113,263.798179 L111.972365,263.798179 L111.972365,280.148324 L88.1549642,280.148324 L88.1549642,324.483299 L134.139853,324.483299 C146.382618,324.483299 156.30734,314.558577 156.30734,302.315811 L156.30734,241.630691 C156.30734,229.387926 146.382618,219.463204 134.139853,219.463204 L37.4384236,219.463204 C25.1956583,219.463204 15.270936,229.387926 15.270936,241.630691 L15.270936,362.416296 C15.270936,374.659062 25.1956583,384.583784 37.4384236,384.583784 L199.618957,384.583784 C211.861722,384.583784 221.786444,374.659062 221.786444,362.416296 L222.087454,63.6615998 C281.628642,123.601478 323.029179,114.740818 352.200394,37.0796208 Z" id="Path" fill="#FFFFFF"></path>
        </g>
    </g>
</svg>