<?xml version="1.0" encoding="UTF-8"?>
<svg width="512px" height="512px" viewBox="0 0 512 512" version="1.1" xmlns="http://www.w3.org/2000/svg" xmlns:xlink="http://www.w3.org/1999/xlink">
    <!-- Generator: Sketch 53.2 (72643) - https://sketchapp.com -->
    <title>ic_ui_set_bonus_3</title>
    <desc>Created with Sketch.</desc>
    <g id="ic_ui_set_bonus_3" stroke="none" stroke-width="1" fill="none" fill-rule="evenodd">
        <path d="M40,0 L472,0 C494.09139,-4.33003142e-14 512,17.90861 512,40 L512,472 C512,494.09139 494.09139,512 472,512 L40,512 C17.90861,512 2.705415e-15,494.09139 0,472 L0,40 C-2.705415e-15,17.90861 17.90861,4.05812251e-15 40,0 Z" id="Rectangle" fill="#6F6F6F" fill-rule="nonzero"></path>
        <path d="M40,15 C26.1928813,15 15,26.1928813 15,40 L15,472 C15,485.807119 26.1928813,497 40,497 L472,497 C485.807119,497 497,485.807119 497,472 L497,40 C497,26.1928813 485.807119,15 472,15 L40,15 Z" id="Path" fill="#3D3D3D" fill-rule="nonzero"></path>
        <path d="M365.546839,276.392453 C376.277232,294.506144 381.645154,314.795903 381.645154,336.878906 C381.645154,374.829614 368.714202,405.844081 342.942633,428.357176 C317.887823,450.244136 286.050809,461.126953 248.363904,461.126953 C211.522665,461.126953 180.196041,450.906583 155.20335,430.318733 C129.080926,408.800262 116.309976,379.137059 117.287299,343.171566 L117.407783,338.737756 L125.651661,322.25 L203.910779,322.25 L203.910779,342.25 C203.910779,355.762071 207.630468,365.417435 215.007293,372.53267 C222.493774,379.753673 233.237645,383.529297 248.363904,383.529297 C263.851165,383.529297 274.823634,379.722522 282.381778,372.483737 C289.621108,365.550294 293.54945,354.429211 293.54945,337.855469 C293.54945,320.690153 290.002086,309.484985 283.915542,303.30183 C277.927797,297.219041 266.819379,293.646484 249.584607,293.646484 L187.592419,293.646484 L187.592419,216.048828 L249.584607,216.048828 C265.496744,216.048828 274.975118,212.702017 279.498652,207.265476 C285.087534,200.548562 288.178357,190.198561 288.178357,175.501953 C288.178357,159.920292 284.74256,149.391237 278.569473,142.919453 C272.609126,136.670702 262.967537,133.246094 248.363904,133.246094 C234.62413,133.246094 224.640859,136.89851 217.254155,144.072647 C209.989045,151.128689 206.352185,160.521732 206.352185,173.548828 L206.352185,193.548828 L125.794422,193.548828 L119.819412,175.623797 L119.730502,172.689767 C118.740312,140.013492 130.829869,111.635913 155.293885,88.9403791 C179.442454,66.5374898 210.817816,55.4042969 248.363904,55.4042969 C285.89898,55.4042969 316.870912,65.7443051 340.322151,86.7527073 C364.367532,108.293361 376.27406,138.704618 376.27406,176.478516 C376.27406,194.954123 370.759096,213.118088 360.050524,230.703724 C355.328509,238.458226 349.621038,245.414018 342.971943,251.558629 C352.270012,258.476228 359.834365,266.749379 365.546839,276.392453 Z" id="3" fill="#000000" fill-rule="nonzero"></path>
        <path d="M207.592419,236.048828 L207.592419,273.646484 L249.584607,273.646484 C271.720134,273.646484 287.914634,278.854766 298.168591,289.271484 C308.422549,299.688203 313.54945,315.882703 313.54945,337.855469 C313.54945,359.502712 307.771513,375.859971 296.215466,386.927734 C284.659419,397.995498 268.709057,403.529297 248.363904,403.529297 C228.344272,403.529297 212.597359,397.995498 201.122693,386.927734 C189.648026,375.859971 183.910779,360.967542 183.910779,342.25 L138.012341,342.25 L137.279919,343.714844 C136.466113,373.66291 146.679227,397.385004 167.919568,414.881836 C189.159908,432.378668 215.974419,441.126953 248.363904,441.126953 C281.404433,441.126953 308.544461,431.849702 329.784802,413.294922 C351.025143,394.740142 361.645154,369.268391 361.645154,336.878906 C361.645154,318.324126 357.209977,301.559971 348.339489,286.585938 C339.469002,271.611904 324.373125,260.625686 303.051404,253.626953 C320.792378,245.977175 334.097909,234.868888 342.968396,220.301758 C351.838883,205.734628 356.27406,191.127026 356.27406,176.478516 C356.27406,144.089031 346.508532,119.146246 326.977185,101.649414 C307.445837,84.1525818 281.241672,75.4042969 248.363904,75.4042969 C215.648896,75.4042969 189.159903,84.8036169 168.89613,103.602539 C148.632357,122.401461 138.907519,145.228381 139.721325,172.083984 L140.209607,173.548828 L186.352185,173.548828 C186.352185,155.31957 192.008053,140.711969 203.319958,129.725586 C214.631864,118.739203 229.646362,113.246094 248.363904,113.246094 C268.058012,113.246094 282.950442,118.535754 293.041638,129.115234 C303.132834,139.694714 308.178357,155.156799 308.178357,175.501953 C308.178357,194.545017 303.74318,209.396757 294.872693,220.057617 C286.002206,230.718478 270.906328,236.048828 249.584607,236.048828 L207.592419,236.048828 Z" id="Path" fill="#B2B2B2" fill-rule="nonzero"></path>
    </g>
</svg>