<svg width="512" height="512" viewBox="0 0 512 512" fill="none" xmlns="http://www.w3.org/2000/svg">
<rect width="512" height="512" fill="#413A47"/>
<path d="M268.004 69.9534H381.45C386.587 69.9534 390.752 74.1182 390.752 79.2557V167.466C390.752 172.604 386.587 176.769 381.45 176.769H316.152C310.782 176.769 306.527 172.235 306.868 166.876L310.347 112.21H337.931V127.469H330.302V135.099H356.125V96.3638H295.675L281.002 243.675H345.561V267.738H275.72L257.272 433.771C256.749 438.482 252.767 442.046 248.027 442.046H131.255C126.118 442.046 121.953 437.882 121.953 432.744V345.12C121.953 339.983 126.118 335.818 131.255 335.818H196.105C201.423 335.818 205.659 340.269 205.396 345.58L202.945 395.095H170.666V381.596H179.469V369.271H154.819V409.767H218.791L232.29 267.738H164.21V243.675H236.398L258.785 78.0099C259.409 73.3958 263.348 69.9534 268.004 69.9534Z" fill="black" fill-opacity="0.5"/>
<path fill-rule="evenodd" clip-rule="evenodd" d="M179.469 369.271H154.82V409.767H218.792L232.29 267.738H164.21V243.675H236.398L258.786 78.0101C259.409 73.3959 263.348 69.9535 268.004 69.9535H381.45C386.588 69.9535 390.753 74.1183 390.753 79.2558V167.467C390.753 172.604 386.588 176.769 381.45 176.769H316.152C310.782 176.769 306.528 172.235 306.869 166.876L310.348 112.21H337.932V127.469H330.302V135.099H356.126V96.3639H295.675L281.003 243.675H345.561V267.738H275.721L257.272 433.771C256.749 438.482 252.767 442.047 248.027 442.047H131.256C126.118 442.047 121.953 437.882 121.953 432.744V345.12C121.953 339.983 126.118 335.818 131.256 335.818H196.106C201.424 335.818 205.66 340.269 205.397 345.58L202.945 395.095H170.666V381.596H179.469V369.271ZM212.488 328.614C208.293 324.449 202.514 321.865 196.106 321.865H131.256C118.412 321.865 108 332.277 108 345.12V432.744C108 445.588 118.412 456 131.256 456H248.027C259.877 456 269.832 447.09 271.141 435.312L288.21 281.691H345.561C353.268 281.691 359.515 275.444 359.515 267.738V243.675C359.515 235.969 353.268 229.722 345.561 229.722H296.415L300.87 184.997C304.946 188.555 310.283 190.722 316.152 190.722H381.45C394.294 190.722 404.706 180.31 404.706 167.467V79.2558C404.706 66.412 394.294 56 381.45 56H268.004C256.364 56 246.517 64.6061 244.958 76.1414L224.204 229.722H164.21C156.504 229.722 150.257 235.969 150.257 243.675V267.738C150.257 275.444 156.504 281.691 164.21 281.691H216.948L212.488 328.614Z" fill="white"/>
</svg>
