<?xml version="1.0" encoding="UTF-8"?>
<svg width="512px" height="512px" viewBox="0 0 512 512" version="1.1" xmlns="http://www.w3.org/2000/svg" xmlns:xlink="http://www.w3.org/1999/xlink">
    <!-- Generator: Sketch 53.2 (72643) - https://sketchapp.com -->
    <title>ic_ui_armor_missing</title>
    <desc>Created with Sketch.</desc>
    <g id="ic_ui_armor_missing" stroke="none" stroke-width="1" fill="none" fill-rule="evenodd">
        <g id="Group-11" transform="translate(56.000000, 74.000000)">
            <path d="M214,364 C115.693315,364 36,284.306685 36,186 C36,87.6933145 115.693315,8 214,8 C312.306685,8 392,87.6933145 392,186 C392,284.306685 312.306685,364 214,364 Z" id="Oval-2" fill="#000000" fill-rule="nonzero"></path>
            <path d="M212,344 C298.156421,344 368,273.26099 368,186 C368,98.7390095 298.156421,28 212,28 C125.843579,28 56,98.7390095 56,186 C56,273.26099 125.843579,344 212,344 Z" id="Path" fill="#747474"></path>
            <circle id="Path" fill="#000000" cx="214" cy="186" r="122"></circle>
            <path d="M45.2692096,38.6305553 L78.1806064,39.9618246 L82.2172855,0 L396.398742,287.679658 L397.859515,291.741877 C402.334559,304.186393 399.715232,314.492019 390.728603,326.020318 C380.737804,338.836796 368.919974,346.566473 354.938987,343.219434 L351.404592,342.373302 L0,77.9363922 L42.9359885,65.0066063 L45.2692096,38.6305553 Z" id="Path-43" fill="#000000" fill-rule="nonzero"></path>
            <path d="M360.730013,327.789802 C366.230292,329.114495 372.88986,324.025278 378.469836,316.824019 C384.049812,309.62276 385.142368,305.328484 382.930098,299.1394 L94.4460663,32 L94.4460663,52.5824871 L59.5169633,52.5824871 L59.5169633,76.377574 L32,81.6091753 L360.730013,327.789802 Z" id="Path" fill="#A8A8A8"></path>
        </g>
    </g>
</svg>