<?xml version="1.0" encoding="UTF-8"?>
<svg width="512px" height="512px" viewBox="0 0 512 512" version="1.1" xmlns="http://www.w3.org/2000/svg" xmlns:xlink="http://www.w3.org/1999/xlink">
    <!-- Generator: Sketch 53.2 (72643) - https://sketchapp.com -->
    <title>ic_ui_camp</title>
    <desc>Created with Sketch.</desc>
    <g id="ic_ui_camp" stroke="none" stroke-width="1" fill="none" fill-rule="evenodd">
        <g id="Group" transform="translate(69.000000, 56.000000)" fill-rule="nonzero">
            <path d="M216.787444,106.871213 L216.787444,122.80749 C262.907842,198.469292 313.169395,257.938258 367.487016,301.298433 C372.763055,305.510142 374.997081,312.476219 373.154572,318.970851 L361.482389,360.113942 C359.436938,367.323917 352.853405,372.299529 345.3589,372.299529 L281.603843,372.299529 L271.600679,390.653392 C268.664657,396.040422 263.019809,399.392679 256.884638,399.392679 L121.320429,399.392679 C115.607699,399.392679 110.288413,396.482813 107.207278,391.672211 L94.7993018,372.299529 L35.2313097,372.299529 C28.5965203,372.299529 22.5863172,368.385557 19.9031647,362.317516 L1.71060782,321.174424 C-1.33949682,314.276508 0.593681587,306.190923 6.43401379,301.418617 C61.9262332,256.074302 113.818175,196.463836 162.055138,122.528706 L162.055138,106.921326 C151.085561,106.282405 143.577745,95.2900986 147.21977,84.7275794 L174.40856,12.3561062 C179.529934,-2.49678928 200.43627,-2.77255629 205.947632,11.9400871 L230.823375,84.3115603 C234.730443,94.7415233 227.577337,105.830722 216.787444,106.871213 Z" id="Path-70" fill="#000000"></path>
            <path d="M178.814914,127.393299 L200.027667,127.393299 L200.027667,127.491584 C205.242524,136.137617 210.512077,144.582501 215.836327,152.826234 L161.937714,152.826234 C167.613727,144.567964 173.23946,136.123081 178.814914,127.491584 L178.814914,127.393299 Z M154.147023,163.999419 L184.357542,163.999419 L184.357542,227.590357 L90.1343528,355.539752 L35.2313097,355.539752 L17.0387528,314.396661 C65.5651581,274.744316 111.267915,224.611902 154.147023,163.999419 Z M223.168182,163.999419 C264.546652,226.056237 309.167618,276.188651 357.031083,314.396661 L345.3589,355.539752 L285.618463,355.539752 L195.530726,227.918267 L195.530726,163.999419 L223.168182,163.999419 Z" id="Path" fill="#FFEC59"></path>
            <polygon id="Path" fill="#43484E" points="265.687998 366.480447 256.884638 382.632903 121.320429 382.632903 110.97497 366.480447 265.687998 366.480447"></polygon>
            <polygon id="Path" fill="#43484E" points="189.944134 239.106145 271.50838 355.307263 103.910615 355.307263"></polygon>
            <path d="M135.005662,205.452125 C123.16359,221.632746 110.642299,236.328146 97.4417914,249.538326 L115.106408,249.538326 C128.372577,234.842925 138.294976,220.147525 144.873606,205.452125 L135.005662,205.452125 Z" id="Path-71" fill="#987C54"></path>
            <polygon id="Path" fill="#6B6D6F" points="178.814914 116.220115 178.814914 90.1908115 163.064113 90.1908115 190.252903 17.8193383 215.128646 90.1908115 200.027667 90.1908115 200.027667 116.220115"></polygon>
            <path d="M11.9222699,314.537594 L125.249272,314.537594 L91.4540277,363.55606 L33.0216401,363.55606 L11.9222699,314.537594 Z M363.240391,314.358503 L348.244829,361.255743 L284.811149,361.255743 L251.807895,314.358503 L363.240391,314.358503 Z" id="Path-72" fill-opacity="0.2" fill="#000000"></path>
            <path d="M129.247568,314.993228 L181.837616,314.993228 L181.837616,343.445107 L107.918194,343.445107 L129.247568,314.993228 Z M250.35541,315.083799 L271.684785,343.535678 L197.765363,343.535678 L197.765363,315.083799 L250.35541,315.083799 Z" id="Path-73" fill-opacity="0.3" fill="#000000"></path>
        </g>
    </g>
</svg>