<?xml version="1.0" encoding="UTF-8"?>
<svg width="512px" height="512px" viewBox="0 0 512 512" version="1.1" xmlns="http://www.w3.org/2000/svg" xmlns:xlink="http://www.w3.org/1999/xlink">
    <!-- Generator: Sketch 53.2 (72643) - https://sketchapp.com -->
    <title>ic_ui_note_3_base</title>
    <desc>Created with Sketch.</desc>
    <g id="ic_ui_note_3_base" stroke="none" stroke-width="1" fill="none" fill-rule="evenodd">
        <g id="Group" transform="translate(63.000000, 56.000000)" fill-rule="nonzero">
            <path d="M323.956891,211.674709 L323.956891,103.163017 L183.941606,103.163017 L183.941606,363.174181 C183.941606,382.742244 171.04495,400 152.732704,400 L31.2089022,400 C12.8966558,400 0,382.742244 0,363.174181 L0,242.062786 C0,222.494722 12.8966558,205.236966 31.2089022,205.236966 L103.668432,205.236966 C110.504711,205.236966 116.586242,207.642108 121.523801,211.674709 L121.523801,0 L386.374696,0 L386.374696,363.174181 C386.374696,382.742244 373.47804,400 355.165794,400 L233.641992,400 C215.329746,400 202.43309,382.742244 202.43309,363.174181 L202.43309,242.062786 C202.43309,222.494722 215.329746,205.236966 233.641992,205.236966 L306.101522,205.236966 C312.937801,205.236966 319.019332,207.642108 323.956891,211.674709 Z" id="Path-2-Copy-2" fill="#000000"></path>
            <path d="M371.776156,14.5985401 L136.122342,14.5985401 L136.122342,340.946902 L47.8192642,340.946902 L47.8192642,264.290065 L87.0580704,264.290065 L87.0580704,280.68431 L69.2114089,280.68431 L69.2114089,325.138868 L103.668432,325.138868 C112.842082,325.138868 120.278795,315.187376 120.278795,302.911589 L120.278795,242.062786 C120.278795,229.786998 112.842082,219.835506 103.668432,219.835506 L31.2089022,219.835506 C22.0352525,219.835506 14.5985401,229.786998 14.5985401,242.062786 L14.5985401,363.174181 C14.5985401,375.449968 22.0352525,385.40146 31.2089022,385.40146 L152.732704,385.40146 C161.906353,385.40146 169.343066,375.449968 169.343066,363.174181 L169.343066,88.5644769 L338.555432,88.5644769 L338.555432,340.946902 L250.252354,340.946902 L250.252354,264.290065 L289.49116,264.290065 L289.49116,280.68431 L271.644499,280.68431 L271.644499,325.138868 L306.101522,325.138868 C315.275172,325.138868 322.711885,315.187376 322.711885,302.911589 L322.711885,242.062786 C322.711885,229.786998 315.275172,219.835506 306.101522,219.835506 L233.641992,219.835506 C224.468343,219.835506 217.03163,229.786998 217.03163,242.062786 L217.03163,363.174181 C217.03163,375.449968 224.468343,385.40146 233.641992,385.40146 L355.165794,385.40146 C364.339443,385.40146 371.776156,375.449968 371.776156,363.174181 L371.776156,14.5985401 Z" id="Path" fill="#FFFFFF"></path>
        </g>
    </g>
</svg>