<?xml version="1.0" encoding="UTF-8"?>
<svg width="512px" height="512px" viewBox="0 0 512 512" version="1.1" xmlns="http://www.w3.org/2000/svg" xmlns:xlink="http://www.w3.org/1999/xlink">
    <!-- Generator: Sketch 53.2 (72643) - https://sketchapp.com -->
    <title>ic_ui_effective_star</title>
    <desc>Created with Sketch.</desc>
    <g id="ic_ui_effective_star" stroke="none" stroke-width="1" fill="none" fill-rule="evenodd">
        <g id="Group-3" transform="translate(68.000000, 68.000000)">
            <path d="M155.782118,19.0063814 C164.370376,-5.55617021 198.845066,-6.56387144 208.862512,17.4548322 L257.068155,133.036901 L349.524041,133.036901 C376.739635,133.036901 388.391181,167.491874 366.729294,183.914832 L289.32097,242.601946 L320.457411,341.026072 C328.68446,367.032262 298.913918,388.473955 276.726839,372.522224 L189.327272,309.685 L105.676726,372.210816 C83.9354381,388.461658 53.9072502,367.947201 61.268212,341.872105 L89.1810513,242.995083 L11.2683975,183.913079 C-10.3906371,167.4888 1.26183627,133.036901 28.4759631,133.036901 L115.911526,133.036901 L155.782118,19.0063814 Z" id="Path-38" fill="#000000" fill-rule="nonzero"></path>
            <polygon id="Path" fill="#EAD75A" points="25 159.674516 120.901841 232.359925 86.8275238 353 190 275.922519 297.262208 353 259.077812 232.359925 355 159.674516 240.473939 159.674516 183.441508 23 135.6285 159.674516"></polygon>
        </g>
    </g>
</svg>