<svg width="512" height="512" viewBox="0 0 512 512" fill="none" xmlns="http://www.w3.org/2000/svg">
<rect width="512" height="512" fill="white"/>
<path d="M114.35 454.85L61 401.5L136.52 325.98L70 259.48L119.12 210.36L158.79 250.03C225.53 156.56 260.46 95.72 262.11 73.36L265.7 57.16L279.55 56.72C315.45 55.76 365.97 55.76 431.18 56.72L450.91 57L431.02 240.8L420.06 244.44C365.79 262.42 314.02 299.29 264.76 355.41L264.49 355.72L296.96 388.19L247.85 437.31L189.87 379.33L114.35 454.85Z" fill="black"/>
<path d="M146.36 343.99V363.36H126V386.11H102.05V413.66H129.59V389.7H153.55V370.54H173.25L114.35 429.44L86.4102 401.5L145.11 342.79L146.36 343.99ZM227.53 320.17L245.51 301.55L213.63 270.77L196.43 288.57C188.157 280.022 179.94 271.418 171.78 262.76C241.94 164.7 278.02 102.02 280.04 74.6803C315.65 73.7303 365.94 73.7303 430.93 74.6803L414.4 227.38C356.89 246.45 302.5 285.18 251.26 343.57C243.299 335.822 235.389 328.022 227.53 320.17ZM184.4 301.04L161.1 325.16L95.4202 259.48L119.12 235.76L184.4 301.04ZM215.74 332.38L271.56 388.19L247.85 411.91L192.44 356.51L215.74 332.38Z" fill="#DBC8B8"/>
</svg>
