<?xml version="1.0" encoding="UTF-8"?>
<svg width="512px" height="512px" viewBox="0 0 512 512" version="1.1" xmlns="http://www.w3.org/2000/svg" xmlns:xlink="http://www.w3.org/1999/xlink">
    <!-- Generator: Sketch 53.2 (72643) - https://sketchapp.com -->
    <title>ic_ui_set_bonus_6</title>
    <desc>Created with Sketch.</desc>
    <g id="ic_ui_set_bonus_6" stroke="none" stroke-width="1" fill="none" fill-rule="evenodd">
        <path d="M40,0 L472,0 C494.09139,-4.33003142e-14 512,17.90861 512,40 L512,472 C512,494.09139 494.09139,512 472,512 L40,512 C17.90861,512 2.705415e-15,494.09139 0,472 L0,40 C-2.705415e-15,17.90861 17.90861,4.05812251e-15 40,0 Z" id="Rectangle" fill="#6F6F6F" fill-rule="nonzero"></path>
        <path d="M40,15 C26.1928813,15 15,26.1928813 15,40 L15,472 C15,485.807119 26.1928813,497 40,497 L472,497 C485.807119,497 497,485.807119 497,472 L497,40 C497,26.1928813 485.807119,15 472,15 L40,15 Z" id="Path" fill="#3D3D3D" fill-rule="nonzero"></path>
        <path d="M221.576552,188.922078 C237.326409,182.908496 254.188797,179.916016 272.045544,179.916016 C309.468397,179.916016 340.35868,193.324981 363.142536,219.840675 C385.27796,245.601729 396.293591,278.078848 396.293591,316.371094 C396.293591,357.751627 384.678081,392.410054 361.256006,419.435525 C337.255657,447.128235 304.886691,461.126953 265.697888,461.126953 C225.248365,461.126953 191.03525,446.146635 164.430054,416.690881 C138.014033,387.444573 125.092419,347.110677 125.092419,296.595703 L125.092419,228.724609 C125.092419,178.445017 139.429163,136.721417 168.286968,104.533865 C197.458914,71.9959255 234.360984,55.4042969 277.660779,55.4042969 C291.387056,55.4042969 304.983839,56.9608309 318.422532,60.0691001 C332.021042,63.2143337 343.56572,67.3001046 353.10441,72.466895 L367.118081,80.0576333 L346.035218,155.855545 L324.235434,144.733206 C317.39153,141.241418 310.230299,138.411859 302.734906,136.240296 C295.966345,134.279311 287.600616,133.246094 277.660779,133.246094 C258.517874,133.246094 243.921142,140.500931 232.15198,155.905594 C224.717655,165.636386 219.399643,177.31368 216.270992,191.066479 C218.017743,190.320441 219.786316,189.605622 221.576552,188.922078 Z M212.943982,301.234375 C212.943982,329.839226 218.69145,350.800581 229.467384,364.619132 C239.593925,377.604931 251.170896,383.529297 265.697888,383.529297 C278.635948,383.529297 287.712755,378.593633 295.014978,367.505071 C303.717005,354.290882 308.197888,337.396296 308.197888,316.371094 C308.197888,297.174437 303.62386,282.222097 294.724357,270.806183 C286.817644,260.663779 276.289613,255.804688 261.303357,255.804688 C248.206009,255.804688 237.645973,258.321905 229.312657,263.134102 C222.388184,267.132741 216.996462,272.04488 212.943982,277.996518 L212.943982,301.234375 Z" id="6" fill="#000000" fill-rule="nonzero"></path>
        <path d="M277.660779,75.4042969 C289.867871,75.4042969 301.952711,76.7877466 313.915661,79.5546875 C325.878612,82.3216284 335.766208,85.8209424 343.578747,90.0527344 L333.324841,126.917969 C325.349541,122.848938 317.008153,119.553073 308.300427,117.030273 C299.592701,114.507474 289.379587,113.246094 277.660779,113.246094 C252.270027,113.246094 231.803109,123.418518 216.259411,143.763672 C200.715714,164.108826 192.943982,190.638508 192.943982,223.353516 L192.943982,228.96875 C203.3607,219.854121 215.282782,212.733424 228.710583,207.606445 C242.138385,202.479467 256.583227,199.916016 272.045544,199.916016 C303.783984,199.916016 329.092976,210.902234 347.973279,232.875 C366.853581,254.847766 376.293591,282.679519 376.293591,316.371094 C376.293591,353.155132 366.243236,383.143439 346.142224,406.336914 C326.041212,429.530389 299.226701,441.126953 265.697888,441.126953 C230.866985,441.126953 202.058679,428.513147 179.272107,403.285156 C156.485534,378.057166 145.092419,342.49437 145.092419,296.595703 L145.092419,228.724609 C145.092419,183.151465 157.787605,146.20522 183.178357,117.884766 C208.569109,89.5643115 240.062934,75.4042969 277.660779,75.4042969 Z M261.303357,235.804688 C244.864472,235.804688 230.867217,239.141243 219.311169,245.814453 C207.755122,252.487664 198.966147,261.358018 192.943982,272.425781 L192.943982,301.234375 C192.943982,333.949382 199.86123,359.176995 213.695935,376.917969 C227.530639,394.658943 244.86445,403.529297 265.697888,403.529297 C285.391997,403.529297 300.732013,395.187909 311.718396,378.504883 C322.704779,361.821857 328.197888,341.110801 328.197888,316.371094 C328.197888,292.933477 322.297882,273.64656 310.497693,258.509766 C298.697503,243.372971 282.299555,235.804688 261.303357,235.804688 Z" id="Path" fill="#B2B2B2" fill-rule="nonzero"></path>
    </g>
</svg>