<svg width="512" height="512" viewBox="0 0 512 512" fill="none" xmlns="http://www.w3.org/2000/svg">
<rect width="512" height="512" fill="white"/>
<path d="M66.15 344.56C62.12 252.34 75.28 182.28 106.42 134.4C138.62 84.89 189.4 60 256.8 60C324.16 60 375.23 84.84 408.13 134.25C440.01 182.13 454.26 252.23 451.63 344.56H456V399.16H400.36V451.66H332.12V399.16H174.64V451.66H106.39V399.16H56V344.56H66.15Z" fill="black"/>
<path d="M347.86 399.16H384.61V435.9H347.86V399.16ZM71.75 360.3H440.25V383.4H71.75V360.3ZM122.15 399.15H158.89V435.89H122.14V399.15H122.15Z" fill="white"/>
<path d="M99.4703 184.67L135.66 247.49L184.96 239.83L125.23 134.9C142.8 111.23 165.63 94.66 193.7 85.2L270.64 201.5L220.31 257.86L239.43 306.26L297.32 241.83L346.96 316.87L389.46 301.6L328.48 207.13L391.13 137.4C423.67 182.14 438.59 251.23 435.87 344.68H81.9203C79.0103 279.49 84.8603 226.15 99.4703 184.67ZM243.9 76.08C248.12 75.86 252.42 75.75 256.8 75.75C297.25 75.75 330.86 85.19 357.63 104.09L302.11 166.26L243.91 76.08H243.9Z" fill="#BEB7D9"/>
<path d="M381.1 125L309.56 204.65L375.76 305.69L362.58 314.32L298.68 216.77L238.25 284.03L226.53 273.51L289.74 203.14L209.56 80.7402C215.121 79.471 220.737 78.4566 226.39 77.7002L300.63 191.02L369.93 113.87C373.83 117.34 377.55 121.05 381.11 125H381.1ZM115.52 149.64L163.95 234.74L150.76 243.36L106.9 166.26C109.494 160.579 112.37 155.032 115.52 149.64Z" fill="white"/>
<path d="M108.3 251.1L108.25 235.36C149.22 235.22 178.41 235.22 195.85 235.36C227.45 235.62 245.05 268.1 245.05 319.33H229.29C229.29 275.6 216.12 251.27 195.72 251.11C178.36 250.97 149.22 250.97 108.3 251.11V251.1Z" fill="black"/>
<path d="M382.63 316.73C376.77 320.5 368.71 322.2 358.36 322.2H225.35C215.54 322.2 206.55 331.4 198.81 351.85L184.08 346.27C193.88 320.39 207.49 306.45 225.35 306.45H358.36C365.96 306.45 371.24 305.34 374.12 303.48C376.09 302.22 376.85 300.67 376.74 297.77V247.98H392.48V297.32C392.76 305.59 389.37 312.4 382.63 316.73Z" fill="black"/>
<path d="M139.721 296.66V280.91H172.721V296.66H139.721Z" fill="black"/>
</svg>
