<?xml version="1.0" encoding="UTF-8"?>
<svg width="512px" height="512px" viewBox="0 0 512 512" version="1.1" xmlns="http://www.w3.org/2000/svg" xmlns:xlink="http://www.w3.org/1999/xlink">
    <!-- Generator: Sketch 53.2 (72643) - https://sketchapp.com -->
    <title>ic_ui_hunter_rank_on_dark</title>
    <desc>Created with Sketch.</desc>
    <g id="ic_ui_hunter_rank_on_dark" stroke="none" stroke-width="1" fill="none" fill-rule="evenodd">
        <g id="hunterrank" transform="translate(72.000000, 72.000000)" fill="#F1F1F1" fill-rule="nonzero">
            <path d="M126.75884,140.225668 C120.79419,135.086168 107.521075,125.262963 89.5485394,121.302246 L65.7213734,121.302246 L65.7213734,66.2922983 L120.731321,66.2922983 L120.770614,88.846377 C126.004418,114.268832 143.151804,130.567493 143.151804,130.567493 L184.039913,171.455602 L224.928021,130.567493 C224.928021,130.567493 242.075408,114.268832 247.340646,88.9092455 L247.340646,66.2922983 L302.350594,66.2922983 L302.350594,121.302246 L278.523428,121.302246 C260.55875,125.262963 247.285636,135.086168 241.320986,140.225668 L197.061553,184.477242 L240.692301,228.10799 C246.656951,233.239632 259.930065,243.070695 277.894743,247.031412 L301.721909,247.031412 L301.721909,302.04136 L246.711961,302.04136 L246.680526,279.487281 C241.446723,254.064826 224.299336,237.766165 224.299336,237.766165 L184.039913,197.506741 L143.78049,237.766165 C143.78049,237.766165 126.633103,254.064826 121.360006,279.424412 L121.360006,302.04136 L66.3500585,302.04136 L66.3500585,247.031412 L90.1772245,247.031412 C108.14976,243.070695 121.422875,233.239632 127.387525,228.10799 L171.010414,184.477242 L126.75884,140.225668 Z M183.63839,250.373761 L242.461911,309.197282 L183.63839,368.020802 L124.81487,309.197282 L183.63839,250.373761 Z M59.5279084,124.415704 L118.351429,183.239225 L59.5279084,242.062745 L0.704387991,183.239225 L59.5279084,124.415704 Z M308.026754,124.415704 L366.850274,183.239225 L308.026754,242.062745 L249.203233,183.239225 L308.026754,124.415704 Z M183.63839,0.0273407924 L242.461911,58.8508612 L183.63839,117.674382 L124.81487,58.8508612 L183.63839,0.0273407924 Z" id="Path"></path>
        </g>
    </g>
</svg>