<svg width="512" height="512" viewBox="0 0 512 512" fill="none" xmlns="http://www.w3.org/2000/svg">
<rect width="512" height="512" fill="white"/>
<path fill-rule="evenodd" clip-rule="evenodd" d="M251.497 56L447.752 347.708C450.748 352.162 445.577 357.564 440.996 354.766L251.801 239.188L70.2719 355.042C65.7484 357.929 60.4728 352.632 63.3782 348.12L251.497 56ZM251.869 93.0215L118.512 300.105L251.565 215.189L391.624 300.75L251.869 93.0215ZM251.477 281.12L369.339 439.369C372.453 443.551 367.89 449.11 363.182 446.871L251.795 393.904L145.458 447.073C140.805 449.399 136.135 443.956 139.142 439.71L251.477 281.12ZM251.89 315.755L191.193 401.445L251.571 371.256L316.07 401.927L251.89 315.755Z" fill="#7E5BCE"/>
<path d="M118.512 300.105L251.869 93.0215L391.624 300.75L251.565 215.189L118.512 300.105Z" fill="black"/>
<path d="M191.193 401.445L251.89 315.755L316.07 401.927L251.571 371.256L191.193 401.445Z" fill="black"/>
</svg>
