<?xml version="1.0" encoding="UTF-8"?>
<svg width="512px" height="512px" viewBox="0 0 512 512" version="1.1" xmlns="http://www.w3.org/2000/svg" xmlns:xlink="http://www.w3.org/1999/xlink">
    <!-- Generator: Sketch 53.2 (72643) - https://sketchapp.com -->
    <title>ic_ui_item_box_white</title>
    <desc>Created with Sketch.</desc>
    <g id="ic_ui_item_box_white" stroke="none" stroke-width="1" fill="none" fill-rule="evenodd">
        <g id="*/icons/svg/item_box" transform="translate(55.000000, 56.000000)">
            <polygon id="Path-54" fill="#000000" fill-rule="nonzero" points="0 167.179487 400 167.179487 400 397.948718 0 397.948718"></polygon>
            <path d="M246.153846,185.641026 L246.153846,379.487179 L149.74359,379.487179 L149.74359,185.641026 L246.153846,185.641026 Z M262.564103,185.641026 L381.538462,185.641026 L381.538462,379.487179 L262.564103,379.487179 L262.564103,185.641026 Z M133.333333,185.641026 L133.333333,379.487179 L18.4615385,379.487179 L18.4615385,185.641026 L133.333333,185.641026 Z M75.3846154,326.153846 L33.8461538,364.102564 L116.923077,364.102564 L75.3846154,326.153846 Z M323.589744,326.153846 L282.051282,364.102564 L365.128205,364.102564 L323.589744,326.153846 Z M199.487179,326.153846 L157.948718,364.102564 L241.025641,364.102564 L199.487179,326.153846 Z" id="Path" fill="#FFFFFF"></path>
            <polygon id="Path" fill="#000000" points="2.05128205 242.051282 397.948718 242.051282 397.948718 307.692308 2.05128205 307.692308"></polygon>
            <polygon id="Path" fill="#FFFFFF" points="18.4615385 258.461538 18.4615385 291.282051 381.538462 291.282051 381.538462 258.461538"></polygon>
            <polygon id="Path-55" fill="#000000" fill-rule="nonzero" points="0 131.33161 0 0 400 0 400 131.33161"></polygon>
            <polygon id="Path" fill="#FFFFFF" points="18.4615385 18.4615385 18.4615385 112.870072 381.538462 112.870072 381.538462 18.4615385"></polygon>
            <rect id="Rectangle" stroke="#000000" stroke-width="18" fill="#FFFFFF" x="62.7948718" y="9.46153846" width="53.8974359" height="135.948718"></rect>
            <rect id="Rectangle-Copy" stroke="#000000" stroke-width="18" fill="#FFFFFF" x="283.307692" y="9.46153846" width="53.8974359" height="135.948718"></rect>
        </g>
        <path d="M64.7617301,445.1538 L63.6111335,354.473496 L61.896897,232.006768 L446.712775,234.713226 L446.368142,306.030678 L69.890949,308.064739 L69.2983616,356.645745 L443.617354,354.473496 L444.767951,445.1538 L64.7617301,445.1538 Z M113.606924,178.111531 L63.6069239,178.111531 L63.6069239,67.099994 L121.588325,67.099994 L121.588325,195.314129 L167.859159,195.314129 L167.859159,67.099994 L337.961913,67.099994 L337.961913,195.314129 L386.492542,195.314129 L386.492542,67.099994 L441.036695,67.099994 L441.036695,178.111531 L395.833941,178.111531 L395.833941,201.897755 L333.219093,201.897755 L333.219093,178.111531 L176.173691,178.111531 L176.173691,201.897755 L113.606924,201.897755 L113.606924,178.111531 Z" id="Path-67" fill-opacity="0.25" fill="#000000" fill-rule="nonzero"></path>
    </g>
</svg>