<?xml version="1.0" encoding="UTF-8"?>
<svg width="512px" height="512px" viewBox="0 0 512 512" version="1.1" xmlns="http://www.w3.org/2000/svg" xmlns:xlink="http://www.w3.org/1999/xlink">
    <!-- Generator: Sketch 53.2 (72643) - https://sketchapp.com -->
    <title>ic_ui_special_ammo</title>
    <desc>Created with Sketch.</desc>
    <g id="ic_ui_special_ammo" stroke="none" stroke-width="1" fill="none" fill-rule="evenodd">
        <g id="Group" transform="translate(113.000000, 56.000000)" fill-rule="nonzero">
            <path d="M56.4535433,399.807096 L0,399.807096 L0,365.406153 L12.4188625,353.86416 L12.4188625,225.753633 L52.900232,157.354078 L73.7819026,192.636901 L94.6635731,157.354078 L135.39509,226.176296 L135.39509,354.244405 L147.404819,365.406153 L147.404819,399.807096 L90.9512761,399.807096 L56.4535433,399.807096 Z" id="Path-126" fill="#000000"></path>
            <path d="M121.473976,260.788863 L26.3399762,260.788863 L26.3399762,243.155452 L121.473976,243.155452 L121.473976,260.788863 Z M121.473976,273.781903 L121.473976,353.549441 L26.3399762,353.549441 L26.3399762,273.781903 L121.473976,273.781903 Z" id="Path" fill="#D0AF91"></path>
            <polygon id="Path" fill="#AB7451" points="121.473976 230.162413 26.3399762 230.162413 26.3399762 229.564449 52.900232 184.686775 73.7819026 219.969598 94.6635731 184.686775 121.473976 229.987111"></polygon>
            <polygon id="Path" fill="#AB7252" points="42.5324296 364.484766 25.4346695 364.484766 13.9211137 375.185374 13.9211137 385.885982 42.5324296 385.885982"></polygon>
            <polygon id="Path" fill="#AB7252" points="104.87239 364.484766 104.87239 385.885982 133.483706 385.885982 133.483706 375.185374 121.97015 364.484766"></polygon>
            <polygon id="Path" fill="#AB7252" points="88.0075689 364.484766 59.5912712 364.484766 59.3967517 385.885982 88.0075689 385.885982"></polygon>
            <polygon id="Path-127" fill="#BFB17C" points="183.499593 0.838903732 166.428949 108.645425 103.69155 69.4942106 144.007363 123.171941 35.8151795 140.137137 144.007363 155.609559 130.617476 192.186151 166.428949 177.800456 183.499593 306.311096 200.83975 177.800456 266.778993 220.461421 220.052076 155.609559 325.349629 140.137137 220.052076 123.171941 241.965002 84.9977805 200.83975 108.645425"></polygon>
        </g>
    </g>
</svg>