<svg width="512" height="512" viewBox="0 0 512 512" fill="none" xmlns="http://www.w3.org/2000/svg">
<rect width="512" height="512" fill="white"/>
<path d="M64 93H368.13V373.16H64V93Z" fill="black"/>
<path d="M78.0801 269.51V196.27H131.26V269.51H78.0801ZM78.0801 283.6H131.26V359.08H78.0801V283.6ZM78.0801 182.19V107.09H131.26V182.19H78.0801ZM145.35 107.09H354.05V359.08H145.34V107.08L145.35 107.09Z" fill="white"/>
<path d="M222.8 212.6C217.828 208.341 211.905 205.339 205.53 203.85H194.47V178.43H220L220.02 188.85C221.635 196.116 225.235 202.79 230.42 208.13L249.4 227.03L268.38 208.13C268.38 208.13 276.34 200.6 278.78 188.88V178.43H304.32V203.85H293.26C286.886 205.337 280.963 208.334 275.99 212.59L255.44 233.04L275.7 253.2C280.674 257.455 286.596 260.452 292.97 261.94H304.03V287.35H278.5L278.49 276.93C276.06 265.19 268.09 257.66 268.09 257.66L249.41 239.06L230.71 257.66C230.71 257.66 222.75 265.19 220.31 276.9V287.35H194.77V261.94H205.83C212.203 260.452 218.126 257.455 223.1 253.2L243.36 233.04L222.81 212.59L222.8 212.6ZM249.86 262.94L277.09 290.17L249.86 317.4L222.63 290.17L249.86 262.94ZM191.65 205.66L218.88 232.89L191.65 260.12L164.42 232.89L191.65 205.66ZM307.15 205.66L334.37 232.89L307.14 260.12L279.91 232.89L307.14 205.66H307.15ZM249.86 147.45L277.09 174.68L249.86 201.91L222.63 174.68L249.86 147.45Z" fill="black"/>
<path d="M341.57 385.72C341.058 386.339 340.548 386.959 340.04 387.58C327.18 403.28 324.36 406.85 320.27 412.93C317.249 417.371 314.632 422.073 312.45 426.98L306.58 441.26L245.26 441.41L298 361.43C305.73 321.67 329.57 277.98 369.35 229.67C390.96 203.42 416.69 193.87 443.43 203.9L447.7 205.5L450.84 208.95C463.67 223.05 467.84 239.23 460.13 254.25C456.84 260.65 451.73 265.87 444.89 270.18C445.01 279.93 440.7 290.09 432.69 299.69C424.101 310.113 415.775 320.75 407.72 331.59C397.17 357.09 372.1 376.47 342.26 384.89L341.57 385.72Z" fill="black"/>
<path d="M332.301 374.84C331.245 376.112 330.192 377.385 329.141 378.66C314.941 396 306.091 406.48 299.491 421.46L297.131 427.2L271.461 427.26L311.331 366.8C317.971 328.9 340.991 286.27 380.231 238.62C398.241 216.74 417.881 209.36 438.491 217.09L439.581 217.49L440.431 218.43C449.381 228.27 452.391 238.47 447.601 247.81C444.491 253.87 438.261 258.66 428.871 262.61C432.791 270.31 430.741 280.05 421.871 290.67C412.731 301.768 403.878 313.098 395.321 324.65C386.091 348.94 360.961 366.01 334.321 372.41L332.301 374.84ZM387.431 248.03C353.861 288.54 332.771 324.88 324.041 356.83C361.211 302.07 381.681 276.63 385.441 280.48C389.081 284.2 373.841 309.96 339.741 357.78C363.341 351.97 378.631 338.83 386.191 318.35L386.541 317.41L387.111 316.65C396.004 304.699 405.207 292.982 414.711 281.51C419.051 276.35 420.631 272.71 420.441 270.66C420.311 269.28 418.991 267.54 415.921 265.57L403.721 257.74L417.071 253.65C429.431 249.87 436.771 245.38 438.971 241.12C440.341 238.47 439.371 234.86 434.501 229.28C418.081 223.66 402.601 229.73 387.431 248.03Z" fill="white"/>
</svg>
