<?xml version="1.0" encoding="UTF-8"?>
<svg width="512px" height="512px" viewBox="0 0 512 512" version="1.1" xmlns="http://www.w3.org/2000/svg" xmlns:xlink="http://www.w3.org/1999/xlink">
    <!-- Generator: Sketch 53.2 (72643) - https://sketchapp.com -->
    <title>ic_ui_deviation</title>
    <desc>Created with Sketch.</desc>
    <g id="ic_ui_deviation" stroke="none" stroke-width="1" fill="none" fill-rule="evenodd">
        <rect fill="#FFFFFF" x="0" y="0" width="512" height="512"></rect>
        <g id="Group-2" transform="translate(56.000000, 62.000000)" fill-rule="nonzero">
            <polygon id="Triangle-2" fill="#000000" points="108.141962 319.786683 162.130579 387.473904 54.153346 387.473904"></polygon>
            <polygon id="Triangle-2-Copy" fill="#000000" points="291.858038 319.786683 345.846654 387.473904 237.869421 387.473904"></polygon>
            <polygon id="Triangle-2-Copy-2" fill="#000000" points="200 319.786683 253.988616 387.473904 146.011384 387.473904"></polygon>
            <polygon id="Path-123" fill="#000000" points="93.5281837 114.893518 201.04557 0 305.52647 114.999911 305.52647 329.355146 93.5281837 329.355146"></polygon>
            <polygon id="Path" fill="#5B6482" points="293.000374 192 106.05428 192 106.05428 151.983299 293.000374 151.983299 293.000374 192"></polygon>
            <polygon id="Path" fill="#91A6B7" points="293.000374 207.098121 293.000374 316.82905 106.05428 316.82905 106.05428 207.098121"></polygon>
            <polygon id="Path" fill="#91A6B7" points="293.000374 136.11691 106.05428 136.11691 106.05428 119.840375 200.909406 18.4777998 293.000374 119.840375"></polygon>
            <polygon id="Path" fill="#5B6482" points="108.141962 339.874739 80.1670146 374.947808 136.11691 374.947808"></polygon>
            <polygon id="Path" fill="#5B6482" points="291.858038 339.874739 263.88309 374.947808 319.832985 374.947808"></polygon>
            <polygon id="Path" fill="#5B6482" points="200 339.874739 172.025052 374.947808 227.974948 374.947808"></polygon>
            <path d="M34.3253038,79.1805442 L1.66770658,56.0909564 C-7.363201,49.7059204 -9.50810371,37.2088289 -3.12306771,28.1779213 C3.26196829,19.1470137 15.7590598,17.002111 24.7899674,23.387147 L80.5754749,62.8286396 C91.8620958,70.8085109 91.8620958,87.5525776 80.5754749,95.5324489 L47.9178777,118.622037 L80.5754749,141.711625 C91.8620958,149.691496 91.8620958,166.435563 80.5754749,174.415434 L47.9178777,197.505022 L80.5754749,220.59461 C91.8620958,228.574481 91.8620958,245.318548 80.5754749,253.298419 L47.9178777,276.388007 L80.5754749,299.477595 C91.8620958,307.457466 91.8620958,324.201533 80.5754749,332.181404 L24.7899674,371.622897 C15.7590598,378.007933 3.26196829,375.86303 -3.12306771,366.832122 C-9.50810371,357.801215 -7.363201,345.304123 1.66770658,338.919087 L34.3253038,315.8295 L1.66770658,292.739912 C-9.61891428,284.76004 -9.61891428,268.015974 1.66770658,260.036102 L34.3253038,236.946514 L1.66770658,213.856927 C-9.61891428,205.877055 -9.61891428,189.132989 1.66770658,181.153117 L34.3253038,158.063529 L1.66770658,134.973941 C-9.61891428,126.99407 -9.61891428,110.250003 1.66770658,102.270132 L34.3253038,79.1805442 Z" id="Path-125" stroke="#000000" stroke-width="15" fill="#5B6482"></path>
            <path d="M352.082122,276.732463 L319.424525,253.642875 C308.137904,245.663003 308.137904,228.918937 319.424525,220.939065 L352.082122,197.849477 L319.424525,174.75989 C308.137904,166.780018 308.137904,150.035952 319.424525,142.05608 L352.082122,118.966492 L319.424525,95.8769045 C308.137904,87.8970332 308.137904,71.1529665 319.424525,63.1730952 L375.210033,23.7316026 C384.24094,17.3465666 396.738032,19.4914693 403.123068,28.5223769 C409.508104,37.5532845 407.363201,50.050376 398.332293,56.435412 L365.674696,79.5249999 L398.332293,102.614588 C409.618914,110.594459 409.618914,127.338526 398.332293,135.318397 L365.674696,158.407985 L398.332293,181.497573 C409.618914,189.477444 409.618914,206.221511 398.332293,214.201382 L365.674696,237.29097 L398.332293,260.380558 C409.618914,268.360429 409.618914,285.104496 398.332293,293.084367 L365.674696,316.173955 L398.332293,339.263543 C407.363201,345.648579 409.508104,358.14567 403.123068,367.176578 C396.738032,376.207486 384.24094,378.352388 375.210033,371.967352 L319.424525,332.52586 C308.137904,324.545988 308.137904,307.801922 319.424525,299.82205 L352.082122,276.732463 Z" id="Path-125" stroke="#000000" stroke-width="15" fill="#5B6482"></path>
        </g>
    </g>
</svg>