<svg width="512" height="512" viewBox="0 0 512 512" fill="none" xmlns="http://www.w3.org/2000/svg">
<rect width="512" height="512" fill="white"/>
<path fill-rule="evenodd" clip-rule="evenodd" d="M231.649 333.273C235.432 333.273 238.499 336.34 238.499 340.123V366.608C238.499 370.391 235.432 373.457 231.649 373.457H210.187C206.405 373.457 203.338 370.391 203.338 366.608C203.338 362.825 206.405 359.758 210.187 359.758H224.8V340.123C224.8 336.34 227.866 333.273 231.649 333.273Z" fill="#C7B77B"/>
<path fill-rule="evenodd" clip-rule="evenodd" d="M231.65 323.227C240.982 323.227 248.546 330.791 248.546 340.122V366.607C248.546 375.938 240.982 383.503 231.65 383.503H210.189C200.857 383.503 193.293 375.938 193.293 366.607C193.293 357.276 200.857 349.711 210.189 349.711H214.755V340.122C214.755 330.791 222.319 323.227 231.65 323.227ZM238.5 340.122C238.5 336.339 235.433 333.273 231.65 333.273C227.868 333.273 224.801 336.339 224.801 340.122V359.757H210.189C206.406 359.757 203.339 362.824 203.339 366.607C203.339 370.39 206.406 373.457 210.189 373.457H231.65C235.433 373.457 238.5 370.39 238.5 366.607V340.122Z" fill="black"/>
<path fill-rule="evenodd" clip-rule="evenodd" d="M86.8975 333.73C83.1146 333.73 80.048 336.797 80.048 340.58V367.065C80.048 370.848 83.1146 373.914 86.8975 373.914H108.359C112.142 373.914 115.209 370.848 115.209 367.065C115.209 363.282 112.142 360.215 108.359 360.215H93.7471V340.58C93.7471 336.797 90.6804 333.73 86.8975 333.73Z" fill="#C7B77B"/>
<path fill-rule="evenodd" clip-rule="evenodd" d="M86.8964 323.684C77.5653 323.684 70.0009 331.248 70.0009 340.579V367.064C70.0009 376.395 77.5653 383.96 86.8964 383.96H108.358C117.69 383.96 125.254 376.395 125.254 367.064C125.254 357.733 117.69 350.169 108.358 350.169H103.792V340.579C103.792 331.248 96.2276 323.684 86.8964 323.684ZM80.0469 340.579C80.0469 336.796 83.1135 333.73 86.8964 333.73C90.6793 333.73 93.746 336.796 93.746 340.579V360.215H108.358C112.141 360.215 115.208 363.281 115.208 367.064C115.208 370.847 112.141 373.914 108.358 373.914H86.8964C83.1135 373.914 80.0469 370.847 80.0469 367.064V340.579Z" fill="black"/>
<path fill-rule="evenodd" clip-rule="evenodd" d="M231.649 440.129C235.432 440.129 238.499 437.062 238.499 433.279V406.794C238.499 403.012 235.432 399.945 231.649 399.945H210.187C206.405 399.945 203.338 403.012 203.338 406.794C203.338 410.577 206.405 413.644 210.187 413.644H224.8V433.279C224.8 437.062 227.866 440.129 231.649 440.129Z" fill="#C7B77B"/>
<path fill-rule="evenodd" clip-rule="evenodd" d="M231.65 450.174C240.982 450.174 248.546 442.609 248.546 433.278V406.793C248.546 397.462 240.982 389.898 231.65 389.898H210.189C200.857 389.898 193.293 397.462 193.293 406.793C193.293 416.125 200.857 423.689 210.189 423.689H214.755V433.278C214.755 442.609 222.319 450.174 231.65 450.174ZM238.5 433.278C238.5 437.061 235.433 440.128 231.65 440.128C227.868 440.128 224.801 437.061 224.801 433.278V413.643H210.189C206.406 413.643 203.339 410.576 203.339 406.793C203.339 403.01 206.406 399.944 210.189 399.944H231.65C235.433 399.944 238.5 403.01 238.5 406.793V433.278Z" fill="black"/>
<path fill-rule="evenodd" clip-rule="evenodd" d="M86.8975 439.67C83.1146 439.67 80.048 436.603 80.048 432.82V406.335C80.048 402.553 83.1146 399.486 86.8975 399.486H108.359C112.142 399.486 115.209 402.553 115.209 406.335C115.209 410.118 112.142 413.185 108.359 413.185H93.7471V432.82C93.7471 436.603 90.6804 439.67 86.8975 439.67Z" fill="#C7B77B"/>
<path fill-rule="evenodd" clip-rule="evenodd" d="M86.8964 449.717C77.5653 449.717 70.0009 442.152 70.0009 432.821V406.336C70.0009 397.005 77.5653 389.441 86.8964 389.441H108.358C117.69 389.441 125.254 397.005 125.254 406.336C125.254 415.667 117.69 423.232 108.358 423.232H103.792V432.821C103.792 442.152 96.2276 449.717 86.8964 449.717ZM80.0469 432.821C80.0469 436.604 83.1135 439.671 86.8964 439.671C90.6793 439.671 93.746 436.604 93.746 432.821V413.186H108.358C112.141 413.186 115.208 410.119 115.208 406.336C115.208 402.553 112.141 399.487 108.358 399.487H86.8964C83.1135 399.487 80.0469 402.553 80.0469 406.336V432.821Z" fill="black"/>
<path fill-rule="evenodd" clip-rule="evenodd" d="M114.75 308.158C114.75 304.375 117.817 301.309 121.6 301.309C125.383 301.309 128.449 304.375 128.449 308.158V327.794H152.327C154.378 327.492 156.467 327.337 158.587 327.337C161.598 327.337 164.548 327.65 167.413 328.25H189.182V308.615C189.182 304.832 192.249 301.765 196.032 301.765C199.815 301.765 202.881 304.832 202.881 308.615V335.1C202.881 338.883 199.815 341.949 196.032 341.949H191.592C199.457 350.057 205.164 361.013 207.563 373.457H109.612C112.056 360.778 117.935 349.644 126.031 341.493H121.6C117.817 341.493 114.75 338.426 114.75 334.643V308.158ZM163.61 383.503H208.746C208.793 384.562 208.817 385.627 208.817 386.7C208.817 417.481 188.993 442.791 163.61 445.769L163.61 383.503ZM153.564 383.503H108.429C108.381 384.562 108.357 385.627 108.357 386.7C108.357 417.481 128.182 442.791 153.564 445.769L153.564 383.503Z" fill="#C7B77B"/>
<path fill-rule="evenodd" clip-rule="evenodd" d="M112.369 363.412C113.943 359.056 115.945 354.967 118.312 351.22C119.34 349.592 120.438 348.029 121.599 346.536C122.988 344.751 124.467 343.067 126.03 341.494H121.599C119.028 341.494 116.787 340.077 115.616 337.981C115.064 336.994 114.749 335.856 114.749 334.644V308.159C114.749 304.376 117.816 301.31 121.599 301.31C125.382 301.31 128.449 304.376 128.449 308.159V327.795C148.73 327.795 168.926 328.251 189.181 328.251V308.616C189.181 304.833 192.248 301.766 196.031 301.766C199.814 301.766 202.88 304.833 202.88 308.616V335.101C202.88 336.333 202.555 337.489 201.986 338.488C200.807 340.556 198.582 341.95 196.031 341.95H191.591C193.16 343.568 194.643 345.298 196.031 347.131C197.137 348.593 198.184 350.12 199.165 351.706C201.4 355.32 203.298 359.244 204.804 363.412C205.965 366.625 206.892 369.984 207.562 373.458H109.611C110.281 369.984 111.209 366.625 112.369 363.412ZM99.7466 371.557C101.509 362.414 104.847 353.883 109.472 346.409C106.521 343.367 104.703 339.218 104.703 334.644V308.159C104.703 298.828 112.268 291.264 121.599 291.264C130.93 291.264 138.495 298.828 138.495 308.159V317.749C152.096 317.749 165.562 318.205 179.135 318.205V308.616C179.135 299.285 186.7 291.72 196.031 291.72C205.362 291.72 212.926 299.285 212.926 308.616V335.101C212.926 339.73 211.064 343.925 208.049 346.976C212.493 354.314 215.708 362.644 217.427 371.557C218.112 375.111 218.618 379.436 218.781 383.054C218.835 384.262 218.863 385.478 218.863 386.701C218.863 421.267 196.426 452.035 164.78 455.748C161.903 456.085 155.27 456.085 152.393 455.748C120.747 452.035 98.3105 421.267 98.3105 386.701C98.3105 385.478 98.338 384.262 98.3922 383.054C98.5546 379.436 99.0613 375.111 99.7466 371.557ZM153.564 383.504H108.428C108.381 384.563 108.357 385.628 108.357 386.701C108.357 387.773 108.381 388.839 108.428 389.897C108.483 391.125 108.57 392.343 108.687 393.55C110.976 417.09 124.915 436.441 143.518 443.346C146.739 444.541 150.099 445.364 153.564 445.77L153.564 383.504ZM163.61 383.504H208.745C208.793 384.563 208.817 385.628 208.817 386.701C208.817 387.773 208.793 388.839 208.745 389.897C208.69 391.125 208.603 392.343 208.486 393.55C206.197 417.09 192.258 436.441 173.656 443.346C170.435 444.541 167.074 445.364 163.61 445.77V383.504Z" fill="black"/>
<path d="M265.056 188.573L286.79 67.4102L307.436 188.573L442.726 213.566L307.436 240.19L286.79 413.512L265.056 240.19L84.127 213.566L265.056 188.573Z" fill="#EFDA85"/>
<path fill-rule="evenodd" clip-rule="evenodd" d="M286.842 55.4103C292.672 55.4356 297.64 59.6474 298.619 65.3944L317.858 178.295L444.906 201.766C450.57 202.813 454.692 207.736 454.726 213.497C454.759 219.257 450.695 224.228 445.043 225.341L318.319 250.278L298.705 414.932C297.988 420.954 292.891 425.494 286.827 425.512C280.762 425.531 275.637 421.023 274.883 415.005L254.285 250.734L82.38 225.439C76.4709 224.569 72.1007 219.486 72.1271 213.513C72.1534 207.541 76.5683 202.497 82.4849 201.679L254.783 177.878L274.978 65.2915C276.007 59.5532 281.012 55.3849 286.842 55.4103ZM265.056 188.573L84.127 213.566L265.056 240.19L286.79 413.512L307.436 240.19L442.726 213.566L307.436 188.573L286.79 67.4102L265.056 188.573Z" fill="black"/>
<path d="M205.291 169.556L234.088 126.633L250.931 173.903L205.291 169.556Z" fill="#EFDA85"/>
<path fill-rule="evenodd" clip-rule="evenodd" d="M235.328 116.71C239.075 117.179 242.24 119.719 243.507 123.277L260.351 170.546C261.498 173.767 260.921 177.35 258.82 180.048C256.719 182.745 253.386 184.182 249.983 183.858L204.343 179.511C200.835 179.177 197.763 177.022 196.254 173.838C194.745 170.654 195.024 166.911 196.987 163.985L225.783 121.062C227.888 117.925 231.58 116.242 235.328 116.71ZM205.291 169.556L250.931 173.903L234.088 126.633L205.291 169.556Z" fill="black"/>
<path d="M370.804 171.968L342.457 128.746L325.121 175.837L370.804 171.968Z" fill="#EFDA85"/>
<path fill-rule="evenodd" clip-rule="evenodd" d="M341.322 118.81C337.57 119.239 334.379 121.746 333.074 125.29L315.738 172.382C314.557 175.59 315.097 179.179 317.169 181.898C319.242 184.617 322.56 186.089 325.967 185.801L371.649 181.931C375.16 181.633 378.255 179.51 379.797 176.342C381.339 173.174 381.1 169.428 379.167 166.482L350.821 123.261C348.749 120.102 345.075 118.38 341.322 118.81ZM370.805 171.966L325.122 175.836L342.458 128.745L370.805 171.966Z" fill="black"/>
<path d="M206.082 269.346L243.287 305.227L249.777 255.467L206.082 269.346Z" fill="#EFDA85"/>
<path fill-rule="evenodd" clip-rule="evenodd" d="M246.592 314.664C250.156 313.416 252.713 310.265 253.202 306.52L259.692 256.76C260.134 253.37 258.814 249.989 256.191 247.796C253.569 245.603 250.008 244.901 246.749 245.936L203.054 259.815C199.696 260.881 197.147 263.636 196.344 267.067C195.541 270.498 196.603 274.098 199.139 276.544L236.344 312.425C239.063 315.047 243.027 315.913 246.592 314.664ZM206.081 269.346L249.776 255.467L243.286 305.227L206.081 269.346Z" fill="black"/>
<path d="M367.746 260.837L338.95 303.76L322.106 256.49L367.746 260.837Z" fill="#EFDA85"/>
<path fill-rule="evenodd" clip-rule="evenodd" d="M337.71 313.682C333.962 313.214 330.797 310.674 329.53 307.116L312.686 259.846C311.539 256.626 312.116 253.042 314.217 250.345C316.318 247.648 319.651 246.211 323.054 246.535L368.694 250.881C372.202 251.215 375.274 253.371 376.783 256.555C378.292 259.739 378.013 263.482 376.05 266.408L347.254 309.331C345.149 312.467 341.457 314.151 337.71 313.682ZM367.746 260.836L322.106 256.49L338.949 303.76L367.746 260.836Z" fill="black"/>
<path d="M143.35 98.9232L153.13 56L162.91 98.9232L202.03 108.703L162.91 117.94L153.13 165.753L143.35 117.94L98.2539 108.703L143.35 98.9232Z" fill="#EFDA85"/>
<path fill-rule="evenodd" clip-rule="evenodd" d="M153.13 46C157.797 46 161.844 49.2281 162.881 53.7785L171.296 90.7118L204.456 99.0017C208.931 100.121 212.06 104.156 212.03 108.769C212 113.382 208.818 117.376 204.328 118.436L171.427 126.204L162.928 167.757C161.976 172.411 157.881 175.753 153.13 175.753C148.38 175.753 144.285 172.411 143.333 167.757L134.876 126.412L96.2474 118.5C91.6158 117.551 88.2813 113.489 88.2541 108.761C88.2268 104.033 91.5141 99.9323 96.1345 98.9303L135.014 90.4987L143.38 53.7785C144.417 49.2281 148.463 46 153.13 46ZM143.35 98.9232L98.2539 108.703L143.35 117.94L153.13 165.753L162.91 117.94L202.03 108.703L162.91 98.9232L153.13 56L143.35 98.9232Z" fill="black"/>
</svg>
