<?xml version="1.0" encoding="UTF-8"?>
<svg width="512px" height="512px" viewBox="0 0 512 512" version="1.1" xmlns="http://www.w3.org/2000/svg" xmlns:xlink="http://www.w3.org/1999/xlink">
    <!-- Generator: Sketch 53.2 (72643) - https://sketchapp.com -->
    <title>ic_ui_slot_4_empty</title>
    <desc>Created with Sketch.</desc>
    <g id="ic_ui_slot_4_empty" stroke="none" stroke-width="1" fill="none" fill-rule="evenodd">
        <path d="M383.199881,403.31947 L391.844762,417.616775 C400.71024,432.278912 390.152688,451 373.018659,451 L136,451 C118.86597,451 108.308418,432.278912 117.173896,417.616775 L126.011946,403 L39,403 C21.8659705,403 11.3084181,384.278912 20.1738964,369.616775 L93.0261064,252.408282 L52.8484214,207.382162 C50.7086919,204.512281 49.6388272,201.568838 49.6388272,198.551832 C49.6388272,195.534826 50.7086919,192.514877 52.8484214,189.491986 L109.735518,98.5506839 C110.670693,96.3938957 112.213054,94.7015781 114.362602,93.4737308 C116.51215,92.2458836 119.1442,91.5537277 122.258752,91.3972632 C204.490342,72.0639299 249.015075,62.3972632 255.832952,62.3972632 C262.65083,62.3972632 307.244424,72.0639299 389.613734,91.3972632 C392.759959,91.6095053 395.378696,92.3016611 397.469943,93.4737308 C399.561191,94.6458005 401.196915,96.3381182 402.377116,98.5506839 L459.875664,190.690207 C461.503118,192.816206 462.316845,195.252804 462.316845,198 C462.316845,200.747196 461.503118,203.503992 459.875664,206.270386 L417.062822,254.320971 L487.844762,369.616775 C496.71024,384.278912 486.152688,403 469.018659,403 L454.039084,403 L383.199881,403.31947 Z" id="Background" fill="#9E9E9E"></path>
        <path d="M101.268784,288.790968 L153.268784,374.790968 C158.104499,382.788497 152.345834,393 143,393 L39,393 C29.6541657,393 23.8955008,382.788497 28.7312162,374.790968 L80.7312162,288.790968 C85.3999035,281.069677 96.6000965,281.069677 101.268784,288.790968 Z" id="Triangle" fill="#DCDCDC" fill-rule="nonzero"></path>
        <polygon id="Path" fill="#000000" points="91 295 39 381 143 381"></polygon>
        <path d="M198.268784,336.790968 L250.268784,422.790968 C255.104499,430.788497 249.345834,441 240,441 L136,441 C126.654166,441 120.895501,430.788497 125.731216,422.790968 L177.731216,336.790968 C182.399904,329.069677 193.600096,329.069677 198.268784,336.790968 Z" id="Triangle-Copy" fill="#DCDCDC" fill-rule="nonzero"></path>
        <polygon id="Path" fill="#000000" points="188 343 136 429 240 429"></polygon>
        <path d="M331.287442,336.790968 L383.287442,422.790968 C388.123158,430.788497 382.364493,441 373.018659,441 L269.018659,441 C259.672824,441 253.914159,430.788497 258.749875,422.790968 L310.749875,336.790968 C315.418562,329.069677 326.618755,329.069677 331.287442,336.790968 Z" id="Triangle-Copy-2" fill="#DCDCDC" fill-rule="nonzero"></path>
        <polygon id="Path" fill="#000000" points="321 343 269 429 373 429"></polygon>
        <path d="M427.287442,288.790968 L479.287442,374.790968 C484.123158,382.788497 478.364493,393 469.018659,393 L365.018659,393 C355.672824,393 349.914159,382.788497 354.749875,374.790968 L406.749875,288.790968 C411.418562,281.069677 422.618755,281.069677 427.287442,288.790968 Z" id="Triangle-Copy-3" fill="#DCDCDC" fill-rule="nonzero"></path>
        <polygon id="Path-Copy" fill="#000000" points="417 295 365 381 469 381"></polygon>
        <path d="M446.954367,205.9887 L355.954367,307.9887 C353.677567,310.540716 350.42003,312 347,312 C292.027319,328 261.700516,336 256.019591,336 C250.338666,336 219.998802,328 165,312 C161.57997,312 158.322433,310.540716 156.045633,307.9887 L65.0456335,205.9887 C61.4980475,202.012285 60.9977647,196.172674 63.8172959,191.650785 L116.817296,106.650785 C119.008832,103.136057 122.858003,101 127,101 C206.396292,82.3333333 249.503112,73 256.32046,73 C263.137809,73 306.030988,82.3333333 385,101 C389.141997,101 392.991168,103.136057 395.182704,106.650785 L448.182704,191.650785 C451.002235,196.172674 450.501952,202.012285 446.954367,205.9887 Z" id="Triangle" fill="#DCDCDC" fill-rule="nonzero"></path>
        <polygon id="Path" fill="#000000" points="438 198 385 113 256.465034 85 127 113 74 198 165 300 256.068433 324 347 300"></polygon>
        <path d="M394.130007,205.787359 L311.130007,307.787359 C308.85008,310.460378 305.513274,312 302,312 L214,312 C210.486726,312 207.14992,310.460378 204.869993,307.787359 L117.869993,205.787359 C114.703945,202.075441 114.100357,196.816189 116.343153,192.483515 L160.343153,107.483515 C162.404815,103.500759 166.515271,101 171,101 L341,101 C345.484729,101 349.595185,103.500759 351.656847,107.483515 L395.656847,192.483515 C397.899643,196.816189 397.296055,202.075441 394.130007,205.787359 Z" id="Triangle" fill="#FFFFFF" fill-rule="nonzero" opacity="0.25"></path>
        <polygon id="Path" fill="#000000" points="385 198 341 113 171 113 127 198 214 300 257 300 302 300"></polygon>
        <path d="M314.498689,210.035948 L269.625769,299.868255 L242.718002,299.763504 L192.35169,203.532946 C190.395593,199.768382 190.572618,195.250739 192.817296,191.650785 L240.667675,113.153787 L270.521269,113.238651 L319.182704,191.650785 C321.427382,195.250739 316.454786,206.271384 314.498689,210.035948 Z" id="Triangle" fill="#FFFFFF" fill-rule="nonzero" opacity="0.25"></path>
        <polygon id="Path" fill="#000000" points="309 198 256 113 203 198 256 300"></polygon>
    </g>
</svg>