<?xml version="1.0" encoding="UTF-8"?>
<svg width="512px" height="512px" viewBox="0 0 512 512" version="1.1" xmlns="http://www.w3.org/2000/svg" xmlns:xlink="http://www.w3.org/1999/xlink">
    <!-- Generator: Sketch 53.2 (72643) - https://sketchapp.com -->
    <title>ic_ui_buildable_white</title>
    <desc>Created with Sketch.</desc>
    <g id="ic_ui_buildable_white" stroke="none" stroke-width="1" fill="none" fill-rule="evenodd">
        <g id="Group" transform="translate(57.000000, 57.000000)" fill-rule="nonzero">
            <path d="M93.319287,142.242287 C86.006141,128.122098 88.2714035,110.327167 100.115075,98.4834957 C111.958746,86.6398246 129.753677,84.374562 143.873866,91.687708 L235.184211,0.377363901 L359.148952,124.342105 L269.077822,214.413235 L386.731439,332.066851 C401.3761,346.711512 401.3761,370.455199 386.731439,385.09986 C372.086778,399.744521 348.343091,399.744521 333.69843,385.09986 L216.044814,267.446243 L124,359.491057 L0.0352586374,235.526316 L93.319287,142.242287 L93.319287,142.242287 Z" id="Line" fill="#000000"></path>
            <path d="M255.121767,228.36929 L230.000869,253.490189 L347.654485,371.143805 C354.59143,378.08075 365.838439,378.08075 372.775384,371.143805 C379.712328,364.20686 379.712328,352.959851 372.775384,346.022906 L255.121767,228.36929 Z" id="Path" fill="#E8E8E8"></path>
            <path d="M255.121767,228.36929 L245.790342,237.700715 L363.443959,355.354331 C370.380903,362.291276 372.775384,364.189865 376.064545,366.67354 C380.168223,361.223766 378.698746,351.946268 372.775384,346.022906 L255.121767,228.36929 Z" id="Path" fill="#A5A5A5"></path>
            <path d="M114.07113,112.439551 C129.233699,97.2769807 144.04573,112.287175 147.375062,116.098622 L235.184211,28.2894737 L331.236842,124.342105 L124,331.578947 L27.9473684,235.526316 L115.837026,147.636658 C114.436211,146.257612 97.5467499,128.96393 114.07113,112.439551 Z" id="Path" fill="#F9F9F9"></path>
            <polygon id="Path" fill="#C2C2C2" points="254.901073 48.0263158 331.236842 124.362085 124.019979 332.894737 49 256.558968"></polygon>
            <polygon id="Path" fill="#8C8C8C" points="282.532652 75.6578947 331.236842 124.362085 124.019979 332.894737 76.6315789 285.506336"></polygon>
            <polygon id="Path" fill="#595959" points="308.848442 101.973684 331.236842 124.362085 124.019979 332.894737 101.631579 310.506336"></polygon>
        </g>
    </g>
</svg>