<?xml version="1.0" encoding="UTF-8"?>
<svg width="512px" height="512px" viewBox="0 0 512 512" version="1.1" xmlns="http://www.w3.org/2000/svg" xmlns:xlink="http://www.w3.org/1999/xlink">
    <!-- Generator: Sketch 53.2 (72643) - https://sketchapp.com -->
    <title>ic_ui_set_bonus_8</title>
    <desc>Created with Sketch.</desc>
    <g id="ic_ui_set_bonus_8" stroke="none" stroke-width="1" fill="none" fill-rule="evenodd">
        <path d="M40,0 L472,0 C494.09139,-4.33003142e-14 512,17.90861 512,40 L512,472 C512,494.09139 494.09139,512 472,512 L40,512 C17.90861,512 2.705415e-15,494.09139 0,472 L0,40 C-2.705415e-15,17.90861 17.90861,4.05812251e-15 40,0 Z" id="Rectangle" fill="#6F6F6F" fill-rule="nonzero"></path>
        <path d="M40,15 C26.1928813,15 15,26.1928813 15,40 L15,472 C15,485.807119 26.1928813,497 40,497 L472,497 C485.807119,497 497,485.807119 497,472 L497,40 C497,26.1928813 485.807119,15 472,15 L40,15 Z" id="Path" fill="#3D3D3D" fill-rule="nonzero"></path>
        <path d="M366.373967,274.305856 C381.530369,293.176079 389.213513,315.258757 389.213513,339.808594 C389.213513,378.440696 376.048502,409.325913 349.696385,430.668121 C324.502798,451.072053 292.261029,461.126953 253.734997,461.126953 C214.555027,461.126953 182.050863,451.078496 156.983204,430.620981 C130.823465,409.272229 117.7682,378.409783 117.7682,339.808594 C117.7682,315.334632 125.278365,293.311582 140.119849,274.458886 C146.870323,265.883959 154.706784,258.386565 163.583428,251.976286 C157.258072,246.593499 151.628674,240.515899 146.723601,233.751645 C134.103853,216.348605 127.777966,195.993535 127.777966,173.304688 C127.777966,136.599151 139.626854,106.951933 163.480385,85.9165415 C186.652491,65.4820682 216.885805,55.4042969 253.246716,55.4042969 C289.069149,55.4042969 319.22767,65.4571371 342.826305,85.7539052 C367.267363,106.775227 379.447888,136.499719 379.447888,173.304688 C379.447888,196.10689 372.887274,216.557554 359.834117,233.995756 C354.835512,240.673579 349.15301,246.679501 342.812139,252.005434 C351.680923,258.37192 359.549084,265.808652 366.373967,274.305856 Z M301.36195,338.832031 C301.36195,324.571697 297.015848,313.733948 288.115162,305.058596 C279.092756,296.264606 267.85352,291.9375 253.246716,291.9375 C238.379468,291.9375 227.285987,296.219194 218.728787,304.832323 C210.109918,313.507526 205.863904,324.441706 205.863904,338.832031 C205.863904,353.704134 209.954379,364.172523 218.020211,371.654643 C226.473914,379.496565 238.028691,383.529297 253.734997,383.529297 C268.934647,383.529297 280.343088,379.4793 289.005453,371.491925 C297.230306,363.907969 301.36195,353.498373 301.36195,338.832031 Z M291.352185,174.28125 C291.352185,161.700304 287.729405,152.093229 280.377802,144.360432 C273.22186,136.833441 264.607174,133.246094 253.246716,133.246094 C241.487641,133.246094 232.934792,136.692389 226.250728,143.736364 C219.388011,150.968612 215.873669,160.781736 215.873669,174.28125 C215.873669,187.346202 219.344994,196.779725 226.166199,203.757141 C232.92585,210.671593 241.690549,214.095703 253.734997,214.095703 C265.4492,214.095703 274.11908,210.67875 280.990839,203.702874 C287.863291,196.726294 291.352185,187.316853 291.352185,174.28125 Z" id="8" fill="#000000" fill-rule="nonzero"></path>
        <path d="M359.447888,173.304688 C359.447888,191.859468 354.239607,208.094657 343.822888,222.010742 C333.406169,235.926827 319.327534,246.3027 301.58656,253.138672 C322.094475,260.300166 338.492423,271.530522 350.780896,286.830078 C363.069369,302.129634 369.213513,319.788962 369.213513,339.808594 C369.213513,372.686362 358.512123,397.791906 337.109021,415.125977 C315.705919,432.460048 287.914856,441.126953 253.734997,441.126953 C218.904094,441.126953 190.868893,432.460048 169.628552,415.125977 C148.388211,397.791906 137.7682,372.686362 137.7682,339.808594 C137.7682,319.788962 143.790276,302.129634 155.834607,286.830078 C167.878938,271.530522 184.154817,260.300166 204.662732,253.138672 C186.921758,246.3027 173.005881,235.926827 162.914685,222.010742 C152.823489,208.094657 147.777966,191.859468 147.777966,173.304688 C147.777966,142.054531 157.421424,117.925541 176.70863,100.916992 C195.995836,83.9084436 221.508276,75.4042969 253.246716,75.4042969 C284.496872,75.4042969 310.009312,83.9084436 329.784802,100.916992 C349.560292,117.925541 359.447888,142.054531 359.447888,173.304688 Z M321.36195,338.832031 C321.36195,319.300684 314.932978,303.268943 302.074841,290.736328 C289.216704,278.203713 272.940825,271.9375 253.246716,271.9375 C233.227085,271.9375 216.991896,278.203713 204.540661,290.736328 C192.089427,303.268943 185.863904,319.300684 185.863904,338.832031 C185.863904,359.014424 192.048738,374.842716 204.418591,386.317383 C216.788445,397.79205 233.227082,403.529297 253.734997,403.529297 C273.754629,403.529297 290.030508,397.75136 302.563122,386.195312 C315.095737,374.639265 321.36195,358.851663 321.36195,338.832031 Z M311.352185,174.28125 C311.352185,156.703037 305.859076,142.136125 294.872693,130.580078 C283.88631,119.024031 270.011123,113.246094 253.246716,113.246094 C236.156787,113.246094 222.32229,118.820582 211.74281,129.969727 C201.16333,141.118871 195.873669,155.889231 195.873669,174.28125 C195.873669,192.347747 201.20402,206.833279 211.86488,217.738281 C222.525741,228.643284 236.482307,234.095703 253.734997,234.095703 C270.662165,234.095703 284.496662,228.643284 295.238904,217.738281 C305.981145,206.833279 311.352185,192.347747 311.352185,174.28125 Z" id="Path" fill="#B2B2B2" fill-rule="nonzero"></path>
    </g>
</svg>