<?xml version="1.0" encoding="UTF-8"?>
<svg width="512px" height="512px" viewBox="0 0 512 512" version="1.1" xmlns="http://www.w3.org/2000/svg" xmlns:xlink="http://www.w3.org/1999/xlink">
    <!-- Generator: Sketch 53.2 (72643) - https://sketchapp.com -->
    <title>ic_ui_note_1_base</title>
    <desc>Created with Sketch.</desc>
    <g id="ic_ui_note_1_base" stroke="none" stroke-width="1" fill="none" fill-rule="evenodd">
        <g id="Group" transform="translate(91.000000, 56.000000)" fill-rule="nonzero">
            <path d="M162.673144,0 L236.56477,0 L236.56477,362.416296 C236.56477,382.820905 220.023566,399.362109 199.618957,399.362109 L37.4384236,399.362109 C17.0338147,399.362109 0.492610837,382.820905 0.492610837,362.416296 L0.492610837,241.630691 C0.492610837,221.226082 17.0338147,204.684878 37.4384236,204.684878 L134.139853,204.684878 C145.631063,204.684878 155.896966,209.931046 162.673144,218.158964 L162.673144,0 Z" id="Path-2" fill="#000000"></path>
            <path d="M177.451469,340.248809 L59.6059113,340.248809 L59.6059113,263.798179 L111.972365,263.798179 L111.972365,280.148324 L88.1549642,280.148324 L88.1549642,324.483299 L134.139853,324.483299 C146.382618,324.483299 156.30734,314.558577 156.30734,302.315811 L156.30734,241.630691 C156.30734,229.387926 146.382618,219.463204 134.139853,219.463204 L37.4384236,219.463204 C25.1956583,219.463204 15.270936,229.387926 15.270936,241.630691 L15.270936,362.416296 C15.270936,374.659062 25.1956583,384.583784 37.4384236,384.583784 L199.618957,384.583784 C211.861722,384.583784 221.786444,374.659062 221.786444,362.416296 L221.786444,14.7783251 L177.451469,14.7783251 L177.451469,340.248809 Z" id="Path" fill="#FFFFFF"></path>
        </g>
    </g>
</svg>