<?xml version="1.0" encoding="UTF-8"?>
<svg width="512px" height="513px" viewBox="0 0 512 513" version="1.1" xmlns="http://www.w3.org/2000/svg" xmlns:xlink="http://www.w3.org/1999/xlink">
    <!-- Generator: Sketch 53.2 (72643) - https://sketchapp.com -->
    <title>ic_ui_kinsect_white</title>
    <desc>Created with Sketch.</desc>
    <g id="ic_ui_kinsect_white" stroke="none" stroke-width="1" fill="none" fill-rule="evenodd">
        <g id="insect-glaive" transform="translate(107.000000, 57.000000)">
            <path d="M36.3121617,130.000212 C26.1470453,114.115573 30.2394671,92.8956346 45.832185,81.977496 L70.8575989,64.4545126 C82.0504976,56.6171605 96.2047975,56.1638263 107.536629,62.0746578 L107.536629,44.1422636 C107.536629,20.4263323 126.76219,1.20077136 150.478122,1.20077136 C174.194053,1.20077136 193.419614,20.4263323 193.419614,44.1422636 L193.419614,61.777671 C204.651118,56.1814453 218.514254,56.7508805 229.516181,64.4545126 L254.541595,81.977496 C270.545037,93.1832268 274.43435,115.240619 263.22862,131.244061 C263.110861,131.412238 262.987892,131.610317 262.859523,131.833056 C284.09816,160.129072 296.79728,196.418858 296.79728,235.788553 C296.79728,325.249377 231.225752,398.807181 148.887696,398.807181 C66.5496401,398.807181 0.978111767,325.249377 0.978111767,235.788553 C0.978111767,195.563542 14.2350083,158.553717 36.3121617,130.000212 L36.3121617,130.000212 Z" id="outline" fill="#000000" fill-rule="nonzero"></path>
            <path d="M38.8111244,171.554855 L142.525994,253.300532 L142.525994,374.770971 C76.9696573,371.056159 24.8344963,310.252303 24.8344963,235.788553 C24.8344963,212.618683 29.8821334,190.77134 38.8111244,171.554855 Z M62.2594955,169.785869 L235.544855,169.785869 L150.392547,239.250316 L62.2594955,169.785869 Z M258.846537,171.302115 C267.848873,190.579674 272.940896,212.517035 272.940896,235.788553 C272.940896,309.043876 222.484143,369.079065 158.43025,374.545196 L158.43025,253.218392 L258.84654,171.302113 L258.846537,171.302115 Z M117.168347,101.21689 C121.880453,99.8229145 126.702292,98.7321316 131.616278,97.9642668 C131.469276,97.0096324 131.393014,96.0316642 131.393014,95.035884 L131.393014,44.1422636 C131.393014,33.6018497 139.937708,25.0571559 150.478122,25.0571559 C161.018536,25.0571559 169.563229,33.6018497 169.563229,44.1422636 L169.563229,95.035884 C169.563229,96.2160505 169.45611,97.3711979 169.251064,98.4921339 C174.097695,99.3899809 178.849564,100.602971 183.489386,102.111714 C185.274408,107.418209 188.710222,112.221544 193.648268,115.679201 L218.673682,133.202185 C224.26667,137.118437 230.822735,138.633332 237.117699,137.962725 C241.48394,142.917977 245.520864,148.239177 249.18863,153.881633 L48.5867619,153.881633 C52.3394294,148.108566 56.4785426,142.6718 60.9614301,137.619203 C67.9337529,138.967824 75.4233923,137.597181 81.700098,133.202185 L106.725512,115.679201 C111.939703,112.028185 115.478949,106.876776 117.168347,101.21689 L117.168347,101.21689 Z M200.006521,86.9754716 C203.571981,81.8834673 210.590242,80.6459585 215.682247,84.2114183 L240.707661,101.734402 C245.799665,105.299862 247.037174,112.318123 243.471714,117.410127 C239.906254,122.502131 232.887993,123.73964 227.795989,120.17418 L202.770575,102.651197 C197.67857,99.0857372 196.441062,92.0674759 200.006521,86.9754716 Z M100.367258,86.9754716 C103.932718,92.0674759 102.695209,99.0857372 97.6032052,102.651197 L72.5777913,120.17418 C67.485787,123.73964 60.4675257,122.502131 56.9020659,117.410127 C53.3366062,112.318123 54.574115,105.299862 59.6661193,101.734402 L84.6915332,84.2114183 C89.7835374,80.6459585 96.8017987,81.8834673 100.367258,86.9754716 Z" fill="#FFFFFF"></path>
            <path d="M209.422033,117.3203 L225.060584,126.276303 L252.107103,134.630211 L276.76896,193.49521 L276.76896,284.331637 L221.449279,364.616857 L136.467571,387.760301 L74.7846798,364.616857 L30.3552005,295.843329 C29.7587593,242.800573 48.7691058,198.011153 87.3862402,161.475068 C126.003375,124.938984 166.681972,110.220728 209.422033,117.3203 Z" id="alpha" fill-opacity="0.2" fill="#000000"></path>
        </g>
    </g>
</svg>