<svg width="512" height="512" viewBox="0 0 512 512" fill="none" xmlns="http://www.w3.org/2000/svg">
<rect width="512" height="512" fill="white"/>
<path d="M317.481 328.954C309.324 338.871 284.66 358.704 251.262 358.704C258.94 356.785 274.295 346.996 274.295 323.196C274.295 299.395 258.94 289.607 251.262 287.687H168.249C154.813 287.687 129.381 282.889 129.381 239.702C129.381 205.153 161.371 189.158 177.366 185.479C161.371 185.799 129.381 161.967 129.381 131.257C129.381 87.1105 177.686 72.5553 201.838 70.7959H354.91C380.182 66.6372 430.726 95.268 430.726 138.455C430.726 218.589 342.913 216.67 321.8 216.67C329.478 224.347 324.999 235.224 321.8 239.702C341.634 234.744 381.301 249.299 381.301 280.489C381.301 325.019 338.755 331.353 317.481 328.954Z" fill="#C7B569"/>
<path fill-rule="evenodd" clip-rule="evenodd" d="M251.261 373.1L247.77 344.739C250.011 344.179 259.899 339.44 259.899 323.196C259.899 309.013 252.36 303.601 248.956 302.083H168.248C160.169 302.083 146.449 300.709 134.641 291.016C122.306 280.89 114.984 264.175 114.984 239.702C114.984 217.41 125.491 201.072 137.876 190.197C139.691 188.603 141.556 187.117 143.448 185.734C141.347 184.048 139.295 182.235 137.319 180.307C125.535 168.805 114.984 151.683 114.984 131.257C114.984 102.849 130.93 84.1003 148.955 72.9032C166.526 61.9883 187.055 57.4393 200.791 56.4387L201.313 56.4006H353.856C362.907 55.1957 372.782 56.81 381.983 59.8884C391.814 63.1771 401.9 68.4723 411.019 75.421C429.04 89.1539 445.12 110.911 445.12 138.455C445.12 161.288 438.799 179.383 428.068 193.281C417.468 207.009 403.365 215.613 389.384 221.034C378.116 225.404 366.44 227.877 355.882 229.274C359.383 230.6 362.785 232.174 366.002 233.97C381.15 242.423 395.696 257.893 395.696 280.489C395.696 294.004 392.436 305.492 386.479 314.891C380.553 324.242 372.459 330.739 363.961 335.117C350.414 342.096 335.228 344.045 323.322 343.757C310.386 356.252 284.687 373.1 251.261 373.1ZM317.48 328.954C338.754 331.353 381.3 325.019 381.3 280.489C381.3 256.549 357.931 242.409 338.098 239.372C332.091 238.452 326.409 238.55 321.799 239.702C323.183 237.764 324.807 234.629 325.582 231.072C326.037 228.984 326.199 226.749 325.848 224.528C325.415 221.791 324.203 219.074 321.799 216.67C322.252 216.67 322.737 216.671 323.25 216.672C326.98 216.679 332.253 216.688 338.483 216.382C371.32 214.766 430.725 204.365 430.725 138.455C430.725 95.2682 380.181 66.6374 354.909 70.7961H201.837C177.685 72.5554 129.38 87.1107 129.38 131.257C129.38 151.241 142.927 168.313 156.797 177.713C164.241 182.757 171.778 185.591 177.365 185.48C171.714 186.779 164.067 189.616 156.54 194.265C142.76 202.775 129.38 217.359 129.38 239.702C129.38 282.889 154.812 287.687 168.248 287.687H251.261C258.939 289.607 274.294 299.396 274.294 323.196C274.294 330.656 272.786 336.739 270.478 341.635C265.423 352.359 256.533 357.387 251.261 358.705C261.892 358.705 271.638 356.695 280.248 353.635C298.688 347.083 311.92 335.714 317.48 328.954Z" fill="black"/>
<path fill-rule="evenodd" clip-rule="evenodd" d="M236.866 327.034C240.841 327.034 244.064 330.257 244.064 334.232V362.063C244.064 366.038 240.841 369.261 236.866 369.261H214.313C210.338 369.261 207.115 366.038 207.115 362.063C207.115 358.088 210.338 354.865 214.313 354.865H229.668V334.232C229.668 330.257 232.891 327.034 236.866 327.034Z" fill="#CAA071"/>
<path fill-rule="evenodd" clip-rule="evenodd" d="M236.866 316.478C246.671 316.478 254.62 324.426 254.62 334.232V362.063C254.62 371.869 246.671 379.818 236.866 379.818H214.313C204.508 379.818 196.559 371.869 196.559 362.063C196.559 352.258 204.508 344.309 214.313 344.309H219.111V334.232C219.111 324.426 227.06 316.478 236.866 316.478ZM244.064 334.232C244.064 330.257 240.841 327.034 236.866 327.034C232.891 327.034 229.668 330.257 229.668 334.232V354.865H214.313C210.338 354.865 207.115 358.088 207.115 362.063C207.115 366.038 210.338 369.261 214.313 369.261H236.866C240.841 369.261 244.064 366.038 244.064 362.063V334.232Z" fill="black"/>
<path fill-rule="evenodd" clip-rule="evenodd" d="M84.7553 327.515C80.7801 327.515 77.5575 330.737 77.5575 334.712V362.544C77.5575 366.519 80.7801 369.741 84.7553 369.741H107.308C111.283 369.741 114.506 366.519 114.506 362.544C114.506 358.568 111.283 355.346 107.308 355.346H91.953V334.712C91.953 330.737 88.7305 327.515 84.7553 327.515Z" fill="#CAA071"/>
<path fill-rule="evenodd" clip-rule="evenodd" d="M84.7552 316.958C74.9498 316.958 67.0008 324.907 67.0008 334.712V362.544C67.0008 372.349 74.9498 380.298 84.7552 380.298H107.308C117.114 380.298 125.062 372.349 125.062 362.544C125.062 352.738 117.114 344.789 107.308 344.789H102.51V334.712C102.51 324.907 94.5607 316.958 84.7552 316.958ZM77.5575 334.712C77.5575 330.737 80.78 327.515 84.7552 327.515C88.7304 327.515 91.953 330.737 91.953 334.712V355.346H107.308C111.283 355.346 114.506 358.568 114.506 362.544C114.506 366.519 111.283 369.741 107.308 369.741H84.7552C80.78 369.741 77.5575 366.519 77.5575 362.544V334.712Z" fill="black"/>
<path fill-rule="evenodd" clip-rule="evenodd" d="M236.866 439.319C240.841 439.319 244.064 436.097 244.064 432.122V404.29C244.064 400.315 240.841 397.093 236.866 397.093H214.313C210.338 397.093 207.115 400.315 207.115 404.29C207.115 408.266 210.338 411.488 214.313 411.488H229.668V432.122C229.668 436.097 232.891 439.319 236.866 439.319Z" fill="#CAA071"/>
<path fill-rule="evenodd" clip-rule="evenodd" d="M236.866 449.876C246.671 449.876 254.62 441.927 254.62 432.122V404.29C254.62 394.485 246.671 386.536 236.866 386.536H214.313C204.508 386.536 196.559 394.485 196.559 404.29C196.559 414.096 204.508 422.045 214.313 422.045H219.111V432.122C219.111 441.927 227.06 449.876 236.866 449.876ZM244.064 432.122C244.064 436.097 240.841 439.319 236.866 439.319C232.891 439.319 229.668 436.097 229.668 432.122V411.488H214.313C210.338 411.488 207.115 408.266 207.115 404.29C207.115 400.315 210.338 397.093 214.313 397.093H236.866C240.841 397.093 244.064 400.315 244.064 404.29V432.122Z" fill="black"/>
<path fill-rule="evenodd" clip-rule="evenodd" d="M84.7553 438.839C80.7801 438.839 77.5575 435.616 77.5575 431.641V403.81C77.5575 399.835 80.7801 396.612 84.7553 396.612H107.308C111.283 396.612 114.506 399.835 114.506 403.81C114.506 407.785 111.283 411.008 107.308 411.008H91.953V431.641C91.953 435.616 88.7305 438.839 84.7553 438.839Z" fill="#CAA071"/>
<path fill-rule="evenodd" clip-rule="evenodd" d="M84.7552 449.396C74.9498 449.396 67.0008 441.448 67.0008 431.642V403.811C67.0008 394.005 74.9498 386.056 84.7552 386.056H107.308C117.114 386.056 125.062 394.005 125.062 403.811C125.062 413.616 117.114 421.565 107.308 421.565H102.51V431.642C102.51 441.448 94.5607 449.396 84.7552 449.396ZM77.5575 431.642C77.5575 435.617 80.78 438.84 84.7552 438.84C88.7304 438.84 91.953 435.617 91.953 431.642V411.009H107.308C111.283 411.009 114.506 407.786 114.506 403.811C114.506 399.836 111.283 396.613 107.308 396.613H84.7552C80.78 396.613 77.5575 399.836 77.5575 403.811V431.642Z" fill="black"/>
<path fill-rule="evenodd" clip-rule="evenodd" d="M114.025 300.643C114.025 296.668 117.247 293.445 121.222 293.445C125.197 293.445 128.42 296.668 128.42 300.643V321.277H153.511C155.666 320.96 157.862 320.797 160.09 320.797C163.254 320.797 166.353 321.126 169.364 321.756H192.24V301.123C192.24 297.148 195.462 293.925 199.438 293.925C203.413 293.925 206.635 297.148 206.635 301.123V328.954C206.635 332.929 203.413 336.152 199.438 336.152H194.772C203.037 344.672 209.034 356.185 211.555 369.261H108.625C111.193 355.938 117.371 344.237 125.878 335.672H121.222C117.247 335.672 114.025 332.449 114.025 328.474V300.643ZM165.368 379.818H212.798C212.848 380.93 212.873 382.05 212.873 383.177C212.873 415.523 192.041 442.119 165.368 445.249L165.368 379.818ZM154.812 379.818H107.382C107.332 380.93 107.307 382.05 107.307 383.177C107.307 415.523 128.139 442.119 154.812 445.249L154.812 379.818Z" fill="#CAA071"/>
<path fill-rule="evenodd" clip-rule="evenodd" d="M111.523 358.705C113.177 354.127 115.28 349.831 117.768 345.893C118.849 344.182 120.002 342.54 121.222 340.971C122.681 339.095 124.237 337.325 125.878 335.672H121.222C118.52 335.672 116.166 334.183 114.935 331.981C114.355 330.943 114.025 329.747 114.025 328.474V300.643C114.025 296.668 117.247 293.445 121.222 293.445C125.197 293.445 128.42 296.668 128.42 300.643V321.277C149.732 321.277 170.955 321.756 192.24 321.756V301.123C192.24 297.148 195.462 293.925 199.438 293.925C203.413 293.925 206.635 297.148 206.635 301.123V328.954C206.635 330.249 206.293 331.464 205.695 332.513C204.456 334.686 202.118 336.152 199.438 336.152H194.772C196.421 337.851 197.979 339.67 199.438 341.596C200.6 343.132 201.7 344.736 202.731 346.404C205.08 350.201 207.074 354.324 208.657 358.705C209.876 362.081 210.851 365.61 211.555 369.261H108.625C109.329 365.61 110.304 362.081 111.523 358.705ZM98.2591 367.263C100.111 357.656 103.619 348.691 108.479 340.837C105.377 337.64 103.468 333.28 103.468 328.474V300.643C103.468 290.838 111.417 282.889 121.222 282.889C131.028 282.889 138.977 290.838 138.977 300.643V310.72C153.269 310.72 167.42 311.2 181.683 311.2V301.123C181.683 291.317 189.632 283.369 199.438 283.369C209.243 283.369 217.192 291.317 217.192 301.123V328.954C217.192 333.819 215.235 338.227 212.066 341.433C216.737 349.144 220.115 357.897 221.921 367.263C222.641 370.998 223.173 375.543 223.344 379.345C223.401 380.614 223.43 381.892 223.43 383.177C223.43 419.501 199.853 451.832 166.599 455.734C163.575 456.089 156.605 456.089 153.581 455.734C120.327 451.832 96.75 419.501 96.75 383.177C96.75 381.892 96.7788 380.614 96.8358 379.345C97.0065 375.543 97.5389 370.998 98.2591 367.263ZM154.812 379.818H107.382C107.332 380.93 107.307 382.05 107.307 383.177C107.307 384.304 107.332 385.424 107.382 386.536C107.44 387.826 107.531 389.106 107.654 390.375C110.059 415.111 124.707 435.445 144.255 442.701C147.64 443.958 151.171 444.822 154.812 445.249L154.812 379.818ZM165.368 379.818H212.798C212.848 380.93 212.873 382.05 212.873 383.177C212.873 384.304 212.848 385.424 212.798 386.536C212.74 387.826 212.649 389.106 212.526 390.375C210.121 415.111 195.473 435.445 175.925 442.701C172.54 443.958 169.009 444.822 165.368 445.249V379.818Z" fill="black"/>
<path d="M322.279 269.932C322.279 281.328 313.041 290.566 301.645 290.566C290.25 290.566 281.012 281.328 281.012 269.932C281.012 258.537 290.25 249.299 301.645 249.299C313.041 249.299 322.279 258.537 322.279 269.932Z" fill="#E9E3C8"/>
<path d="M225.35 233.464C225.35 248.04 213.534 259.856 198.958 259.856C184.382 259.856 172.566 248.04 172.566 233.464C172.566 218.888 184.382 207.072 198.958 207.072C213.534 207.072 225.35 218.888 225.35 233.464Z" fill="#E9E3C8"/>
<path d="M322.28 119.74C322.28 135.111 309.819 147.572 294.448 147.572C279.078 147.572 266.617 135.111 266.617 119.74C266.617 104.37 279.078 91.9092 294.448 91.9092C309.819 91.9092 322.28 104.37 322.28 119.74Z" fill="#E9E3C8"/>
<path d="M215.754 143.253C215.754 154.118 206.946 162.927 196.08 162.927C185.215 162.927 176.406 154.118 176.406 143.253C176.406 132.387 185.215 123.579 196.08 123.579C206.946 123.579 215.754 132.387 215.754 143.253Z" fill="#E9E3C8"/>
<path d="M381.78 166.286C381.78 179.801 370.824 190.758 357.308 190.758C343.793 190.758 332.836 179.801 332.836 166.286C332.836 152.77 343.793 141.813 357.308 141.813C370.824 141.813 381.78 152.77 381.78 166.286Z" fill="#E9E3C8"/>
<path d="M281.012 195.076C281.012 201.702 275.641 207.072 269.016 207.072C262.39 207.072 257.02 201.702 257.02 195.076C257.02 188.451 262.39 183.08 269.016 183.08C275.641 183.08 281.012 188.451 281.012 195.076Z" fill="#E9E3C8"/>
</svg>
