<?xml version="1.0" encoding="UTF-8"?>
<svg width="512px" height="512px" viewBox="0 0 512 512" version="1.1" xmlns="http://www.w3.org/2000/svg" xmlns:xlink="http://www.w3.org/1999/xlink">
    <!-- Generator: Sketch 53.2 (72643) - https://sketchapp.com -->
    <title>ic_ui_set_bonus_4</title>
    <desc>Created with Sketch.</desc>
    <g id="ic_ui_set_bonus_4" stroke="none" stroke-width="1" fill="none" fill-rule="evenodd">
        <path d="M40,0 L472,0 C494.09139,-4.33003142e-14 512,17.90861 512,40 L512,472 C512,494.09139 494.09139,512 472,512 L40,512 C17.90861,512 2.705415e-15,494.09139 0,472 L0,40 C-2.705415e-15,17.90861 17.90861,4.05812251e-15 40,0 Z" id="Rectangle" fill="#6F6F6F" fill-rule="nonzero"></path>
        <path d="M40,15 C26.1928813,15 15,26.1928813 15,40 L15,472 C15,485.807119 26.1928813,497 40,497 L472,497 C485.807119,497 497,485.807119 497,472 L497,40 C497,26.1928813 485.807119,15 472,15 L40,15 Z" id="Path" fill="#3D3D3D" fill-rule="nonzero"></path>
        <path d="M353.813122,296.371094 L402.885388,296.371094 L402.885388,373.96875 L353.813122,373.96875 L353.813122,456 L265.96156,456 L265.96156,373.96875 L106.293591,373.96875 L106.293591,321.045823 L272.05212,60.53125 L353.813122,60.53125 L353.813122,296.371094 Z M265.96156,296.371094 L265.96156,217.08394 L214.419105,296.371094 L265.96156,296.371094 Z" id="4" fill="#000000" fill-rule="nonzero"></path>
        <path d="M333.813122,316.371094 L382.885388,316.371094 L382.885388,353.96875 L333.813122,353.96875 L333.813122,436 L285.96156,436 L285.96156,353.96875 L126.293591,353.96875 L126.293591,326.869141 L283.031872,80.53125 L333.813122,80.53125 L333.813122,316.371094 Z M177.563122,316.371094 L285.96156,316.371094 L285.96156,149.623047 L177.563122,316.371094 Z" id="Path" fill="#B2B2B2" fill-rule="nonzero"></path>
    </g>
</svg>