<?xml version="1.0" encoding="UTF-8"?>
<svg width="512px" height="512px" viewBox="0 0 512 512" version="1.1" xmlns="http://www.w3.org/2000/svg" xmlns:xlink="http://www.w3.org/1999/xlink">
    <!-- Generator: Sketch 53.2 (72643) - https://sketchapp.com -->
    <title>ic_ui_set_bonus_9</title>
    <desc>Created with Sketch.</desc>
    <g id="ic_ui_set_bonus_9" stroke="none" stroke-width="1" fill="none" fill-rule="evenodd">
        <path d="M40,0 L472,0 C494.09139,-4.33003142e-14 512,17.90861 512,40 L512,472 C512,494.09139 494.09139,512 472,512 L40,512 C17.90861,512 2.705415e-15,494.09139 0,472 L0,40 C-2.705415e-15,17.90861 17.90861,4.05812251e-15 40,0 Z" id="Rectangle" fill="#6F6F6F" fill-rule="nonzero"></path>
        <path d="M40,15 C26.1928813,15 15,26.1928813 15,40 L15,472 C15,485.807119 26.1928813,497 40,497 L472,497 C485.807119,497 497,485.807119 497,472 L497,40 C497,26.1928813 485.807119,15 472,15 L40,15 Z" id="Path" fill="#3D3D3D" fill-rule="nonzero"></path>
        <path d="M245.190075,336.859375 C205.590547,336.859375 173.044457,324.180973 148.904364,298.775473 C124.928798,273.543123 113.129529,239.334756 113.129529,197.230469 C113.129529,156.67045 125.635065,122.529861 150.656272,95.8913133 C175.816901,69.104332 207.082338,55.4042969 243.23695,55.4042969 C285.695578,55.4042969 320.32709,69.1316694 345.703551,96.630876 C370.899946,123.934954 383.109997,162.886411 383.109997,212.611328 L383.109997,297.328125 C383.109997,348.438014 369.920428,388.886026 342.910702,417.696401 C315.830401,446.582055 280.281523,461.126953 237.621716,461.126953 C223.870605,461.126953 209.934595,459.835757 195.82511,457.262329 C181.210828,454.596831 167.933475,450.45057 156.024998,444.779867 L141.974523,438.089164 L157.548709,359.699097 L181.250446,372.152552 C189.154936,376.305759 197.293412,379.195748 205.71799,380.85413 C214.692932,382.620851 225.339922,383.529297 237.621716,383.529297 C255.015947,383.529297 267.983366,377.397199 278.229797,364.485511 C285.402886,355.446589 290.409671,342.775686 292.991101,326.356455 C278.46188,333.37314 262.453041,336.859375 245.190075,336.859375 Z M295.014294,207.728516 C295.014294,180.60031 290.074791,161.178319 281.069958,149.171875 C273.050517,138.479286 261.596233,133.246094 244.701794,133.246094 C233.496695,133.246094 224.202122,138.120693 215.492151,149.180064 C206.069667,161.144139 201.225232,176.920426 201.225232,197.230469 C201.225232,217.534733 205.733936,233.075373 214.375238,244.474538 C222.02794,254.569591 231.689687,259.261719 245.190075,259.261719 C259.276489,259.261719 270.281895,256.411834 278.622181,251.005028 C285.983271,246.23301 291.359561,240.584394 295.014294,233.890068 L295.014294,207.728516 Z" id="9" fill="#000000" fill-rule="nonzero"></path>
        <path d="M237.621716,403.529297 C261.059333,403.529297 279.817284,394.658943 293.89613,376.917969 C307.974977,359.176995 315.014294,332.810071 315.014294,297.816406 L315.014294,281.703125 C307.038994,293.259172 297.070018,302.007457 285.107068,307.948242 C273.144117,313.889027 259.838586,316.859375 245.190075,316.859375 C210.847456,316.859375 183.585359,306.239364 163.402966,284.999023 C143.220573,263.758683 133.129529,234.502791 133.129529,197.230469 C133.129529,161.585759 143.830919,132.370557 165.234021,109.583984 C186.637123,86.7974121 212.637839,75.4042969 243.23695,75.4042969 C280.346511,75.4042969 309.602403,87.0008606 331.005505,110.194336 C352.408607,133.387811 363.109997,167.526467 363.109997,212.611328 L363.109997,297.328125 C363.109997,343.715076 351.513434,379.277871 328.319958,404.017578 C305.126483,428.757285 274.894038,441.126953 237.621716,441.126953 C225.089101,441.126953 212.353226,439.946952 199.413708,437.586914 C186.47419,435.226876 174.877627,431.605493 164.623669,426.722656 L171.947888,389.857422 C181.550801,394.90302 191.519776,398.443024 201.855114,400.477539 C212.190453,402.512054 224.112534,403.529297 237.621716,403.529297 Z M245.190075,279.261719 C262.93105,279.261719 277.70141,275.436887 289.501599,267.787109 C301.301788,260.137332 309.805935,250.371804 315.014294,238.490234 L315.014294,207.728516 C315.014294,176.641121 309.032909,153.122476 297.069958,137.171875 C285.107008,121.221274 267.651128,113.246094 244.701794,113.246094 C227.123581,113.246094 212.149773,121.099205 199.779919,136.805664 C187.410066,152.512123 181.225232,172.653523 181.225232,197.230469 C181.225232,221.644653 186.962479,241.419846 198.437146,256.556641 C209.911812,271.693435 225.495967,279.261719 245.190075,279.261719 Z" id="Path" fill="#B2B2B2" fill-rule="nonzero"></path>
    </g>
</svg>