<?xml version="1.0" encoding="UTF-8"?>
<svg width="512px" height="512px" viewBox="0 0 512 512" version="1.1" xmlns="http://www.w3.org/2000/svg" xmlns:xlink="http://www.w3.org/1999/xlink">
    <!-- Generator: Sketch 53.2 (72643) - https://sketchapp.com -->
    <title>ic_ui_question_mark_white</title>
    <desc>Created with Sketch.</desc>
    <g id="ic_ui_question_mark_white" stroke="none" stroke-width="1" fill="none" fill-rule="evenodd">
        <path d="M335.54558,331.847374 L335.54558,456 L192.029953,456 L192.029953,331.847374 C192.029953,310.050831 197.777091,291.664776 208.822568,275.491075 C205.42723,275.833025 202.009978,276.008703 198.584712,276.008703 C171.504189,276.008703 146.71198,268.274813 127.227583,255.198868 C108.659261,242.737699 96,226.184043 96,210.232586 L96,100.869497 L96.6103842,98.4433822 C99.6970616,86.1746605 104.618615,76.2301897 111.869532,68.8428455 C120.157616,60.3988201 130.896977,56 142.869375,56 L372.378344,56 L375.132479,56.7981079 C399.956977,63.9918843 415.038395,80.1710381 415.038395,103.371217 L415.038395,216.365041 L404.054737,221.99555 C357.748801,245.733181 335.54558,281.436137 335.54558,331.847374 Z" id="Path-88" fill="#000000" fill-rule="nonzero"></path>
        <path d="M212.22717,331.847374 C212.22717,247.701614 315.348364,255.811487 315.348364,160.004779 C315.348364,132.070137 304.504219,116.786997 282.815931,114.155358 L207.208753,114.155358 C186.645365,116.053629 176.363671,131.336769 176.363671,160.004779 C176.363671,203.006793 207.999113,212.661791 218.151083,212.661791 C228.303054,212.661791 232.964505,206.982568 232.964505,196.853778 C232.964505,180.154365 207.208753,168.660104 207.208753,149.435193 C207.208753,138.865607 215.246923,134.318121 224.975039,134.318121 C246.020453,134.318121 280.213164,151.694916 280.213164,187.926303 C280.213164,224.648885 238.736178,255.811487 198.584712,255.811487 C148.16183,255.811487 116.197217,224.648885 116.197217,210.232586 L116.197217,103.371217 C120.755006,85.2552168 129.645726,76.1972168 142.869375,76.1972168 L369.510901,76.1972168 C386.397752,81.0907793 394.841178,90.1487794 394.841178,103.371217 L394.841178,204.022295 C341.845968,231.189022 315.348364,273.797382 315.348364,331.847374 L212.22717,331.847374 Z M212.22717,379.161287 L232.809317,379.161287 L232.809317,400.956127 L276.997593,400.956127 L276.997593,379.161287 L315.348364,379.161287 L315.348364,435.802783 L212.22717,435.802783 L212.22717,379.161287 Z" id="Path" fill="#FFFFFF" fill-rule="nonzero"></path>
        <path d="M212.22717,331.847374 C212.22717,247.701614 315.348364,255.811487 315.348364,160.004779 C315.348364,132.070137 304.504219,116.786997 282.815931,114.155358 L207.208753,114.155358 C186.645365,116.053629 176.363671,131.336769 176.363671,160.004779 C176.363671,203.006793 207.999113,212.661791 218.151083,212.661791 C228.303054,212.661791 232.964505,206.982568 232.964505,196.853778 C232.964505,180.154365 207.208753,168.660104 207.208753,149.435193 C207.208753,138.865607 215.246923,134.318121 224.975039,134.318121 C246.020453,134.318121 280.213164,151.694916 280.213164,187.926303 C280.213164,224.648885 238.736178,255.811487 198.584712,255.811487 C148.16183,255.811487 116.197217,224.648885 116.197217,210.232586 L116.197217,103.371217 C120.755006,85.2552168 129.645726,76.1972168 142.869375,76.1972168 L369.510901,76.1972168 C386.397752,81.0907793 394.841178,90.1487794 394.841178,103.371217 L394.841178,204.022295 C341.845968,231.189022 315.348364,273.797382 315.348364,331.847374 L212.22717,331.847374 Z M212.22717,379.161287 L232.809317,379.161287 L232.809317,400.956127 L276.997593,400.956127 L276.997593,379.161287 L315.348364,379.161287 L315.348364,435.802783 L212.22717,435.802783 L212.22717,379.161287 Z" id="Path" fill-opacity="0.1" fill="#000000" fill-rule="nonzero"></path>
    </g>
</svg>