<?xml version="1.0" encoding="UTF-8"?>
<svg width="512px" height="512px" viewBox="0 0 512 512" version="1.1" xmlns="http://www.w3.org/2000/svg" xmlns:xlink="http://www.w3.org/1999/xlink">
    <!-- Generator: Sketch 53.2 (72643) - https://sketchapp.com -->
    <title>ic_ui_set_bonus_base</title>
    <desc>Created with Sketch.</desc>
    <g id="ic_ui_set_bonus_base" stroke="none" stroke-width="1" fill="none" fill-rule="evenodd">
        <g id="armor-bonusskill" transform="translate(56.000000, 56.000000)">
            <polygon id="base" fill="#FFFFFF" points="200 0.199203187 399.15865 100.099602 399.15865 299.900398 200 399.80239 0.840506329 299.901195 0.840506329 100.100398"></polygon>
            <polygon id="alpha" fill-opacity="0.152740036" fill="#000000" points="200 0.199203187 399.15865 100.099602 399.15865 299.900398 200 399.80239 0.840506329 299.901195 0.840506329 100.100398"></polygon>
            <path d="M373.637131,112.790438 L373.637131,287.207968 L200,374.305179 L26.3628692,287.207968 L26.3628692,112.790438 L200,25.6924303 L373.637131,112.790438 Z M29.7248945,114.698008 L29.7248945,285.299602 L200,370.711554 L370.275949,285.298805 L370.275949,114.698008 L200,29.2868526 L29.7248945,114.698008 Z M285.247257,319.588845 L114.752743,319.588845 L114.752743,291.991235 L174.926582,280.49243 L200,291.990438 L225.07173,280.49243 L285.247257,291.990438 L285.247257,319.588845 Z M212.535865,268.993625 L212.535865,280.491633 L200,285.091633 L187.463291,280.49243 L187.463291,268.993625 L200,262.093227 L212.535865,268.993625 L212.535865,268.993625 Z M72.12827,222.99761 L109.737553,222.99761 L109.737553,262.094024 L84.6658228,262.094024 L72.12827,252.894821 L72.12827,222.99761 Z M315.335021,262.094024 L290.261603,262.094024 L290.261603,222.99761 L327.870886,222.99761 L327.870886,252.894821 L315.334177,262.094024 L315.335021,262.094024 Z M265.189873,252.894821 L134.810127,252.894821 L134.810127,222.99761 L265.189873,222.99761 L265.189873,252.894821 L265.189873,252.894821 Z M114.752743,222.99761 L124.781435,222.99761 L124.781435,242.545817 L114.752743,242.545817 L114.752743,222.99761 Z M285.247257,242.545817 L275.217722,242.545817 L275.217722,222.99761 L285.247257,222.99761 L285.247257,242.545817 Z M72.12827,174.701992 L109.737553,174.701992 L109.737553,213.798406 L72.12827,213.798406 L72.12827,174.701992 L72.12827,174.701992 Z M327.870886,213.798406 L290.261603,213.798406 L290.261603,174.701992 L327.870886,174.701992 L327.870886,213.798406 L327.870886,213.798406 Z M165.900422,167.80239 L200,165.502789 L234.098734,167.80239 L255.159494,186.200797 L265.18903,186.200797 L265.18903,195.4 L242.623629,213.798406 L157.375527,213.798406 L134.810127,195.4 L134.810127,186.200797 L144.838819,186.200797 L165.899578,167.80239 L165.900422,167.80239 Z M129.795781,156.304382 L147.346835,156.304382 L147.346835,177.001594 L129.795781,177.001594 L129.795781,156.303586 L129.795781,156.304382 Z M270.203376,177.001594 L252.652321,177.001594 L252.652321,156.303586 L270.203376,156.303586 L270.203376,177.001594 Z M72.12827,156.303586 L109.737553,156.303586 L109.737553,165.502789 L72.12827,165.502789 L72.12827,156.303586 Z M327.870886,165.502789 L290.261603,165.502789 L290.261603,156.303586 L327.870886,156.303586 L327.870886,165.502789 L327.870886,165.502789 Z M177.434599,98.8095618 L222.565401,98.8095618 L222.565401,126.968127 L240.116456,134.271713 L245.130802,128.706773 L255.159494,128.706773 L255.159494,147.105179 L242.624473,156.302789 L157.375527,156.302789 L144.838819,147.103586 L144.838819,128.705179 L154.867511,128.705179 L159.8827,134.270916 L177.433755,126.967331 L177.433755,98.8079681 L177.434599,98.8095618 Z M94.6945148,137.905179 L107.23038,147.104382 L82.1578059,147.104382 L82.1578059,117.207968 L94.6945148,117.207968 L94.6945148,137.905179 L94.6945148,137.905179 Z M317.842194,147.104382 L292.767932,147.104382 L305.304641,137.905179 L305.304641,117.207171 L317.840506,117.207171 L317.840506,147.104382 L317.842194,147.104382 Z M285.247257,137.905179 L275.217722,137.905179 L232.594093,98.8095618 L232.594093,80.4111554 L282.740084,80.4111554 L295.275949,89.6103586 L295.275949,126.407171 L285.247257,137.905179 Z M167.405063,98.8095618 L124.781435,137.905179 L114.752743,137.905179 L104.723207,126.407171 L104.723207,89.6103586 L117.259916,80.4111554 L167.405063,80.4111554 L167.405063,98.8095618 L167.405063,98.8095618 Z" id="Shape" fill-opacity="0.85" fill="#000000"></path>
        </g>
    </g>
</svg>