<?xml version="1.0" encoding="UTF-8"?>
<svg width="512px" height="512px" viewBox="0 0 512 512" version="1.1" xmlns="http://www.w3.org/2000/svg" xmlns:xlink="http://www.w3.org/1999/xlink">
    <!-- Generator: Sketch 53.2 (72643) - https://sketchapp.com -->
    <title>ic_ui_phials</title>
    <desc>Created with Sketch.</desc>
    <g id="ic_ui_phials" stroke="none" stroke-width="1" fill="none" fill-rule="evenodd">
        <g id="Group-2" transform="translate(61.000000, 56.000000)">
            <g id="Group">
                <path d="M165.274582,70.987814 C172.832252,109.711165 177.998679,157.11494 175.484799,255.993326 L174.979657,275.862069 L43.4918168,275.862069 L44.9859931,253.566243 C56.7058065,141.05562 43.4788221,56.5335394 5.30503979,0 C102.592856,8.51175016 155.916037,32.1743548 165.274582,70.987814 Z" id="Path-51" fill="#000000" fill-rule="nonzero"></path>
                <polygon id="Rectangle" fill="#000000" fill-rule="nonzero" points="0 252.519894 212.201592 252.519894 212.201592 324.668435 0 324.668435"></polygon>
                <path d="M32.8912467,20.1591512 C60.6460297,45.7978841 70.2656189,124.312473 61.7500142,255.702918 L156.094201,255.702918 C158.262253,167.526395 157.096832,116.857276 147.912251,82.2370551 C137.579578,54.6772381 99.2392437,33.9846034 32.8912467,20.1591512 Z" id="Path" fill="#D7D7D7"></path>
                <polygon id="Rectangle-2" fill="#000000" fill-rule="nonzero" points="78.5145889 307.692308 135.809019 307.692308 135.809019 400 78.5145889 400"></polygon>
                <polygon id="Path" fill="#C6A582" points="97.6127321 323.607427 97.6127321 379.840849 118.832891 379.840849 118.832891 323.607427"></polygon>
                <polygon id="Path" fill="#C6A582" points="14.8541114 271.618037 14.8541114 303.448276 196.286472 303.448276 196.286472 271.618037"></polygon>
            </g>
            <g id="Group" transform="translate(201.591512, 28.647215)" fill-rule="nonzero">
                <path d="M63.4860949,27.6967387 L63.4860949,0 L125.645146,0 L125.645146,27.6967387 L188.859416,27.6967387 L188.859416,80.6842256 L175.930361,80.6842256 C171.255672,80.6842256 168.590228,81.1074759 166.51389,81.7230145 L165.735992,99.5185633 C166.521381,100.099686 167.798185,100.882363 170.022039,102.145077 C170.135844,102.209696 170.602501,102.47445 170.721929,102.542262 C175.835209,105.445605 178.434704,107.150197 181.322795,109.971605 C186.078589,114.61759 188.859416,120.475351 188.859416,127.401489 L188.859416,306.581696 C188.859416,324.820202 172.499423,339.522546 152.806936,339.522546 L36.3243046,339.522546 C15.8109024,339.522546 0,325.647705 0,306.581696 L0,127.401489 C0,121.26658 2.54314798,116.076891 6.77889981,111.978742 C9.29810377,109.541378 11.8252077,107.877467 15.9793385,105.546138 C16.3919768,105.314562 17.9612225,104.441923 18.3296285,104.235171 C21.1985973,102.625085 22.6383373,101.651286 23.3940762,100.868201 C23.3943373,100.86793 23.3947284,103.692481 23.3952493,81.7556473 C21.2674303,81.1192397 17.7312238,80.6842256 12.9290553,80.6842256 L0,80.6842256 L0,27.6967387 L63.4860949,27.6967387 Z" id="background" fill="#000000"></path>
                <path d="M61.6300774,48.7532578 L61.6300774,106.199247 C61.6300774,115.569218 58.0073746,123.715635 51.8383115,130.065847 C48.1577812,133.854453 44.638861,136.237196 39.24428,139.256128 L39.24428,298.162109 C39.2700853,298.161966 44.1595832,298.161966 150.676144,298.162109 L150.676144,137.54253 C144.888977,134.27831 142.10197,132.476812 138.68775,129.232963 C132.410276,123.268739 128.550443,115.450201 128.550443,106.199247 L128.550443,48.7532578 L172.944297,48.7532578 L172.944297,61.2737229 C158.193829,61.2737229 150.818596,65.0006472 150.818596,72.4544958 L150.818596,106.199247 C150.818596,118.175676 172.944297,118.175676 172.944297,131.159989 L172.944297,301.480313 C172.944297,311.25043 163.574363,320.424403 150.818596,320.424403 L39.3619248,320.424403 C25.8903842,320.424403 16.9761273,312.081981 16.9761273,301.480313 L16.9761273,131.159989 C16.9761273,120.361506 39.3619248,120.361506 39.3619248,106.199247 L39.3619248,72.4544958 C39.3619248,65.0006472 31.8999923,61.2737229 16.9761273,61.2737229 L16.9761273,48.7532578 L61.6300774,48.7532578 Z M76.5167499,88.4121818 L113.663771,88.4121818 L113.663771,106.199247 C113.663771,119.298876 118.998628,131.057877 128.43258,140.02107 C130.865006,142.332116 133.03674,144.096068 135.789472,145.938557 L135.789472,283.279333 C84.6531677,283.279265 66.9630073,283.279245 55.0261788,283.279245 C54.7222519,283.279245 54.4238729,283.279245 54.1309524,283.279333 L54.1309524,147.560867 C57.232992,145.408148 59.8458627,143.184703 62.5173383,140.434782 C71.527678,131.159862 76.5167499,119.25367 76.5167499,106.199247 L76.5167499,88.4121818 Z M76.5167499,60.1349453 L113.663771,60.1349453 L113.663771,21.2201592 L76.5167499,21.2201592 L76.5167499,60.1349453 Z" id="foreground" fill="#8E655B"></path>
                <path d="M76.5079202,88.0636605 L113.672725,88.0636605 L113.672725,105.786585 C113.672725,118.838977 119.010136,130.555575 128.448605,139.486446 C130.882195,141.789159 133.054969,143.54675 135.809019,145.382595 L135.809019,282.228117 C84.6482334,282.228049 66.949604,282.228029 55.0070608,282.228029 C54.7029884,282.228029 54.4044666,282.228029 54.1114058,282.228117 L54.1114058,146.999055 C57.2149305,144.854098 59.8290521,142.638671 62.5018066,139.898666 C71.5164599,130.657192 76.5079202,118.793934 76.5079202,105.786585 L76.5079202,88.0636605 Z" id="Path" fill-opacity="0.1" fill="#000000"></path>
            </g>
        </g>
    </g>
</svg>