<?xml version="1.0" encoding="UTF-8"?>
<svg width="512px" height="512px" viewBox="0 0 512 512" version="1.1" xmlns="http://www.w3.org/2000/svg" xmlns:xlink="http://www.w3.org/1999/xlink">
    <!-- Generator: Sketch 53.2 (72643) - https://sketchapp.com -->
    <title>ic_ui_whetstone</title>
    <desc>Created with Sketch.</desc>
    <g id="ic_ui_whetstone" stroke="none" stroke-width="1" fill="none" fill-rule="evenodd">
        <g id="Whetstone" transform="translate(84.000000, 56.000000)">
            <polygon id="Path-18" fill="#000000" fill-rule="nonzero" points="61.3959145 399.021128 0.793449154 399.021128 0.793449154 0.952723911 117.66094 81.8018291 117.66094 322.08829 61.3959145 322.08829"></polygon>
            <polygon id="Path" fill="#F8D058" points="22.2411703 41.8701304 22.2411703 377.573406 39.9481933 377.573406 39.9481933 300.640569 96.2132186 300.640569 96.2132186 93.0441043"></polygon>
            <polygon id="Path-17" fill="#000000" fill-rule="nonzero" points="63.8552651 141.556954 90.5745519 172.111693 64.1668679 203.346972 89.5430758 236.333057 65.5430652 267.932459 101.820306 317.367129 5.19237726 317.367129 5.19237726 9.12307512 107.135801 79.7909017 107.836889 106.525097"></polygon>
            <polygon id="Path" fill="#917933" points="96.7171695 93.446236 22.3505542 41.8948277 22.3505542 300.208952 67.9463814 300.208952 44.1310609 267.756029 67.9463814 236.399798 42.1279254 202.838842 67.9463814 172.300508 39.1132056 139.328439"></polygon>
            <path d="M222.058523,112.342546 L225.223156,111.33875 L287.042477,111.33875 L288.918143,111.674687 C312.298267,115.862131 329.973077,133.1608 342.260392,160.800398 L344.109741,164.960399 L344.109741,322.576383 L311.19664,399.343564 L168.418394,399.343564 L168.418394,155.682186 L172.897425,149.88814 C187.628421,130.832215 203.935819,118.090922 222.058523,112.342546 Z" id="Path-19" fill="#000000" fill-rule="nonzero"></path>
            <path d="M228.543172,132.786471 C215.0151,137.077467 202.122747,147.150517 189.866116,163.00562 L189.866116,377.895843 L297.056276,377.895843 L322.66202,318.172489 L322.66202,169.512948 C312.99995,147.778687 300.491598,135.536528 285.136965,132.786471 L228.543172,132.786471 Z" id="Path" fill="#F8D058"></path>
            <path d="M185.28229,302.731338 C191.12114,301.015381 197.831563,301.015381 205.879968,302.274388 C210.009659,302.920393 213.794708,304.309222 218.602483,306.591877 C220.41025,307.450176 227.335263,310.956675 228.989845,311.753512 C235.386701,314.834199 240.528122,316.698764 245.938864,317.680398 C250.223661,318.45776 255.326051,318.856491 262.403862,319.043886 C264.408276,319.096956 265.970983,319.124599 269.74053,319.180684 C287.920764,319.45118 294.95114,320.027994 303.206915,323.230065 C308.800208,325.39947 313.318096,327.809982 316.897833,330.766242 C322.351073,335.269701 325.831225,341.220652 325.779836,348.467329 L325.757574,351.606648 L308.090083,394.032257 L173.793679,394.032257 L173.793679,306.10768 L185.28229,302.731338 Z" id="Path-20" fill="#000000" fill-rule="nonzero"></path>
            <path d="M189.793679,318.082148 L189.793679,378.032257 L297.421131,378.032257 L309.780238,348.353868 C309.805759,344.755127 305.686056,341.352946 297.421131,338.147326 C285.023743,333.338897 261.349316,336.737395 243.082716,333.42341 C224.816117,330.109425 212.291642,319.47194 203.40717,318.082148 C197.484188,317.15562 192.946358,317.15562 189.793679,318.082148 Z" id="Path" fill="#C4A445" fill-rule="nonzero"></path>
            <path d="M296.696762,277.34909 C295.392114,279.369495 294.589461,280.41746 291.245189,284.629114 C290.597861,285.444335 290.143809,286.02149 289.708384,286.585235 C288.200968,288.536888 287.18909,289.993976 286.516396,291.206165 C286.206741,291.76416 285.994829,292.226802 285.875708,292.577586 C285.704215,297.748765 285.704215,309.871256 285.814778,328.956697 L269.815047,329.049384 C269.703552,309.803038 269.703552,297.607193 269.816769,292.353186 C269.927762,287.202412 272.257765,283.003769 277.045691,276.804836 C277.533836,276.172834 278.02688,275.546116 278.715014,274.679505 C281.652751,270.979826 282.360115,270.056274 283.255534,268.669609 C283.691423,267.994583 283.986364,267.457364 284.143544,267.085087 L284.143544,185.694542 C284.116209,185.576126 284.061562,185.418028 283.974241,185.215364 C283.700097,184.579102 283.212311,183.756756 282.505468,182.769942 C281.651123,181.577199 280.600678,180.298524 278.956204,178.415718 C279.104449,178.585448 276.881186,176.054222 276.276941,175.351622 C275.206952,174.107468 274.366023,173.076988 273.619836,172.072313 C271.166825,168.769554 269.787402,165.911956 269.814912,162.478067 L269.814912,125.289364 L285.814912,125.289364 L285.814667,161.587659 C285.965786,161.83391 286.18247,162.152428 286.464607,162.5323 C286.94519,163.179362 287.565099,163.939003 288.407823,164.9189 C288.947909,165.546896 291.103714,168.001321 291.006884,167.890458 C292.963864,170.131062 294.288179,171.74311 295.512881,173.452902 C298.553956,177.698513 300.26128,181.622622 300.143544,185.97598 L300.143544,267.234458 C300.230523,270.72448 298.963919,273.838123 296.696762,277.34909 Z M285.627938,161.257007 C285.625915,161.251485 285.624769,161.2486 285.624583,161.248214 C285.624775,161.248611 285.625893,161.251542 285.627938,161.257007 Z" id="Path-23" fill="#000000" fill-rule="nonzero"></path>
            <polygon id="Path-21" fill="#F8D058" fill-rule="nonzero" points="191.115379 107.178751 175.115379 107.178751 175.115379 25.0931074 191.115379 25.0931074"></polygon>
            <polygon id="Path-22" fill="#F8D058" fill-rule="nonzero" points="141.844147 75.4074784 141.844147 59.4074784 223.886388 59.4074784 223.886388 75.4074784"></polygon>
        </g>
    </g>
</svg>