<?xml version="1.0" encoding="UTF-8"?>
<svg width="512px" height="512px" viewBox="0 0 512 512" version="1.1" xmlns="http://www.w3.org/2000/svg" xmlns:xlink="http://www.w3.org/1999/xlink">
    <!-- Generator: Sketch 53.2 (72643) - https://sketchapp.com -->
    <title>ic_ui_hunter_notes_base</title>
    <desc>Created with Sketch.</desc>
    <g id="ic_ui_hunter_notes_base" stroke="none" stroke-width="1" fill="none" fill-rule="evenodd">
        <g id="Group" transform="translate(56.000000, 56.000000)" fill-rule="nonzero">
            <polygon id="Path-66" fill="#000000" points="0.630877402 0.0573746785 399.905465 0.0573746785 399.905465 311.689212 324.578144 399.909594 0.630877402 399.909594"></polygon>
            <path d="M257.311128,15.4419901 L384.52085,15.4419901 L384.52085,276.410256 L286.666667,276.410256 L286.666667,384.524979 L257.311128,384.524979 L257.311128,336.410256 L280,336.410256 L280,299.487179 L257.311128,299.487179 L257.311128,249.230769 L280,249.230769 L280,212.307692 L257.311128,212.307692 L257.311128,162.051282 L280,162.051282 L280,125.128205 L257.311128,125.128205 L257.311128,74.8717949 L280,74.8717949 L280,37.9487179 L257.311128,37.9487179 L257.311128,15.4419901 Z M241.926513,15.4419901 L241.926513,37.9487179 L218.461538,37.9487179 L218.461538,74.8717949 L241.926513,74.8717949 L241.926513,125.128205 L218.461538,125.128205 L218.461538,162.051282 L241.926513,162.051282 L241.926513,212.307692 L218.461538,212.307692 L218.461538,249.230769 L241.926513,249.230769 L241.926513,299.487179 L218.461538,299.487179 L218.461538,336.410256 L241.926513,336.410256 L241.926513,384.524979 L16.0154928,384.524979 L16.0154928,15.4419901 L241.926513,15.4419901 Z M383.482053,302.051282 L312.399406,384.524979 L312.307692,384.524979 L312.307692,302.051282 L383.482053,302.051282 L383.482053,302.051282 Z" id="base" fill="#FFFFFF"></path>
            <path d="M159.866726,61.5384615 L212.041144,113.71288 L159.866726,165.887298 L107.692308,113.71288 L159.866726,61.5384615 Z M159.866726,334.456876 L107.692308,282.282458 L159.866726,230.10804 L212.041144,282.282458 L159.866726,334.456876 Z M243.31288,249.989862 L191.138462,197.815444 L243.31288,145.641026 L295.487298,197.815444 L243.31288,249.989862 Z M74.7385207,249.989862 L22.5641026,197.815444 L74.7385207,145.641026 L126.912939,197.815444 L74.7385207,249.989862 Z M159.0257,205.252436 L72.8981833,291.379953 L65.6458061,284.127576 L151.775713,197.997669 L65.6458061,111.867762 L72.8981833,104.615385 L159.0257,190.742901 L245.153217,104.615385 L252.405594,111.867762 L166.275687,197.997669 L252.405594,284.127576 L245.153217,291.379953 L159.0257,205.252436 Z" id="Rectangle-3" fill-opacity="0.8" fill="#000000"></path>
            <polygon id="alpha" fill-opacity="0.103533" fill="#000000" points="250.248269 7.26498953 250.248269 391.864953 294.557846 391.864953 294.557846 289.20354 389.70593 289.20354 389.70593 7.26498953"></polygon>
        </g>
    </g>
</svg>