<?xml version="1.0" encoding="UTF-8"?>
<svg width="512px" height="512px" viewBox="0 0 512 512" version="1.1" xmlns="http://www.w3.org/2000/svg" xmlns:xlink="http://www.w3.org/1999/xlink">
    <!-- Generator: Sketch 53.2 (72643) - https://sketchapp.com -->
    <title>ic_ui_affinity</title>
    <desc>Created with Sketch.</desc>
    <g id="ic_ui_affinity" stroke="none" stroke-width="1" fill="none" fill-rule="evenodd">
        <g id="Group-5" transform="translate(52.000000, 56.000000)">
            <polygon id="Path-28" fill="#000000" fill-rule="nonzero" points="406.692227 0 301.490719 207.330722 408.247423 400 203.759561 303.491131 0 399.656276 104.684374 207.661425 0.0362083043 10.8494712 198.465307 109.218048"></polygon>
            <polygon id="Path" fill="#996ECF" points="53.6082474 63.0547517 130.832078 208.590705 53.6082474 350.515464 204.123711 279.331869 354.639175 350.515464 276.162292 208.590705 354.639175 53.6082474 199.129402 135.344425"></polygon>
            <polygon id="Path-29" fill="#D7BF76" points="90.7216495 98.9690722 198.572818 151.945611 305.154639 98.9690722 245.765548 208.039269 302.273267 301.030928 201.874089 251.611289 106.779147 299.779247 151.283561 208.039269"></polygon>
            <polygon id="Path-30" fill="#000000" fill-rule="nonzero" points="76.8999986 223.323788 271.670103 17.5530941 271.670103 116.467115 121.871525 270.488686"></polygon>
            <polygon id="Path" fill="#FFFFFF" points="98.9690722 223.283443 121.985731 247.42268 255.670103 109.969593 255.670103 57.7319588"></polygon>
            <polygon id="Path-31" fill="#000000" fill-rule="nonzero" transform="translate(89.947379, 250.861106) rotate(2.000000) translate(-89.947379, -250.861106) " points="65.1415389 188.618371 151.312039 272.767919 115.243712 313.103841 28.5827186 228.84583"></polygon>
            <polygon id="Path" fill="#C6A582" points="67.2204192 210.311244 52.2200557 226.816878 115.828712 288.66176 130.570571 272.175648"></polygon>
            <polygon id="Rectangle-4" fill="#000000" fill-rule="nonzero" transform="translate(52.131994, 292.001914) rotate(46.000000) translate(-52.131994, -292.001914) " points="25.8897255 253.388512 78.3742615 253.388512 78.3742615 330.615316 25.8897255 330.615316"></polygon>
            <path d="M41.4675973,268.041237 L74.176364,268.041237 L74.2268041,302.002941 L57.8724208,302.002941 L57.8724208,317.525773 L24.742268,317.525773 L24.742268,284.558663 L41.5180374,284.558663 L41.4675973,268.041237 Z M41.7241596,284.978815 L41.7241596,301.916392 L57.8525249,301.916392 L57.8525249,284.978815 L41.7241596,284.978815 Z" id="Path-32" fill="#C6A582"></path>
        </g>
    </g>
</svg>