<?xml version="1.0" encoding="UTF-8"?>
<svg width="512px" height="512px" viewBox="0 0 512 512" version="1.1" xmlns="http://www.w3.org/2000/svg" xmlns:xlink="http://www.w3.org/1999/xlink">
    <!-- Generator: Sketch 53.2 (72643) - https://sketchapp.com -->
    <title>ic_ui_map</title>
    <desc>Created with Sketch.</desc>
    <g id="ic_ui_map" stroke="none" stroke-width="1" fill="none" fill-rule="evenodd">
        <g id="Group" transform="translate(70.000000, 56.000000)" fill-rule="nonzero">
            <path d="M370.781927,349.944138 L370.453838,351.524064 C365.513656,375.313732 355.264949,391.463826 338.560805,397.999736 L335.801083,399.079545 L0.112328846,399.079545 L15.6890875,374.873173 C32.7258645,348.397924 45.9707715,314.664805 55.2995864,273.642075 L55.2995864,92.2125987 L40.6139546,92.2125987 L36.7795582,89.8000217 C21.3930815,80.1189516 13.2103481,65.3100147 13.2103481,47.1384305 C13.2103481,29.1658787 21.1854796,14.2302961 36.2048077,3.83415519 L40.238483,1.04210902 L331.938344,1.04210902 C343.64492,1.04210902 354.465494,4.6205277 360.981894,12.1562761 C368.076423,20.3605888 370.705984,31.92728 370.705984,46.305594 C370.705984,49.1714538 370.731298,150.384302 370.781927,349.944138 Z" id="background" fill="#000000"></path>
            <path d="M71.0063927,98.1471039 L336.270479,98.1471039 C344.021661,98.1471039 350.289875,95.8972947 355.075121,91.3976762 L355.075121,348.330506 C351.105914,367.4444 343.693417,379.125144 332.83763,383.372739 L28.8974615,383.372739 C47.2429208,354.86379 61.2792312,318.870012 71.0063927,275.391405 L71.0063927,98.1471039 Z M141.806544,333.182975 L86.8193005,333.182975 L86.8193005,319.229144 L106.273726,294.369082 L93.9042296,284.689241 L71.1124943,313.813923 L71.1124943,348.889781 L141.806544,348.889781 L141.806544,333.182975 Z M196.346414,339.972664 L215.42673,328.640496 L300.144495,328.640496 L300.144495,284.870109 L339.393694,243.822589 L339.393694,181.741905 L322.281655,165.044424 L322.281655,118.169735 L285.346392,118.169735 L272.849112,128.990833 L258.134393,118.169735 L180.119663,118.169735 L183.797087,128.628211 C196.628828,165.121277 234.462853,199.224229 296.935209,231.55413 L304.154202,217.604581 C251.37616,190.291559 217.794384,162.23689 203.151734,133.876541 L252.980812,133.876541 L273.648419,149.07535 L291.201515,133.876541 L306.574849,133.876541 L306.574849,171.663496 L323.686887,188.360977 L323.686887,237.521701 L284.437688,278.569221 L284.437688,312.933689 L211.114081,312.933689 L195.757281,322.05439 L179.487917,313.785967 L172.371687,327.788218 L196.346414,339.972664 Z M185.162869,248.762165 L185.162869,277.750999 L200.869676,277.750999 L200.869676,248.762165 L185.162869,248.762165 Z M106.738975,173.91494 L106.738975,134.265531 L146.353242,134.265531 L146.353242,118.558724 L91.0321685,118.558724 L91.0321685,173.91494 L106.738975,173.91494 Z M303.766358,76.5057924 L45.1442,76.5057924 C34.3261696,69.6991588 28.9171544,59.9100381 28.9171544,47.1384305 C28.9171544,34.3668229 34.3261696,24.2369845 45.1442,16.7489153 L303.766358,16.7489153 C298.037367,25.6481159 295.172872,35.6075954 295.172872,46.6273539 C295.172872,57.6471123 298.037367,67.6065919 303.766358,76.5057924 Z M336.799479,16.3282793 C343.941273,16.3282793 356.046298,22.6071189 356.046298,46.305594 C356.046298,70.0040692 344.070959,76.2829088 336.799479,76.2829088 C329.527999,76.2829088 317.372376,68.5141399 317.372376,45.8035977 C317.372376,23.0930555 329.657685,16.3282793 336.799479,16.3282793 Z" id="foreground" fill="#FFFFFF"></path>
            <path d="M104.455203,173.755479 L104.455203,130.136452 L143.743949,130.136452 L198.040249,189.647157 L198.040249,222.117809 L167.163605,231.849647 L104.455203,173.755479 Z M199.95693,133.802024 L199.95693,127.945497 L253.452999,127.945497 L273.829841,141.058955 L289.079399,127.945497 L313.909138,127.945497 L313.909138,166.214595 L333.314733,185.291063 L333.314733,235.073157 L289.079399,280.247472 L289.079399,320.633309 L223.086179,320.633309 L199.95693,329.706892 C206.647031,338.556756 201.785414,338.556756 185.37208,329.706892 C168.958746,320.857029 158.996734,300.439315 155.486044,268.453749 L232.227524,268.453749 L264.498119,200 L228.713608,175.965794 L199.95693,133.802024 Z M103.835669,295.154995 L137.79062,337.315538 L82.0229289,337.315538 L82.0229289,316.235267 L103.835669,295.154995 Z" id="alpha" fill-opacity="0.15" fill="#000000"></path>
        </g>
    </g>
</svg>