<svg width="512" height="512" viewBox="0 0 512 512" fill="none" xmlns="http://www.w3.org/2000/svg">
<rect width="512" height="512" fill="white"/>
<path d="M407.3 124.05L433.25 157.1L407.16 190.34L432.23 223.62L405.34 256.25L432.57 289.3L405.34 322.35L432.57 355.4L404.51 389.46L435.35 436.5H67V76H445.02L407.3 124.05Z" fill="black"/>
<path d="M82 91V421.5H407.58L385.9 388.45L413.13 355.4L385.9 322.35L413.13 289.3L385.9 256.25L413.13 223.2L388.23 190.15L414.18 157.1L388.23 124.05L414.18 91H82Z" fill="#A57EC2"/>
<path d="M355.5 123L335 104H376L355.5 123Z" fill="black"/>
<path d="M121.5 390L142 409H101L121.5 390Z" fill="black"/>
<path d="M277.5 390L298 409H257L277.5 390Z" fill="black"/>
<path d="M199.5 390L220 409H179L199.5 390Z" fill="black"/>
<path d="M355.5 390L376 409H335L355.5 390Z" fill="black"/>
<path d="M121.5 123L101 104H142L121.5 123Z" fill="black"/>
<path d="M277.5 123L257 104H298L277.5 123Z" fill="black"/>
<path d="M199.5 123L179 104H220L199.5 123Z" fill="black"/>
<path d="M200.3 226.8C196.17 223.27 186.97 216.52 174.51 213.8H158V176H196.13L196.15 191.5C199.78 208.97 211.66 220.17 211.66 220.17L240 248.27L268.34 220.17C268.34 220.17 280.23 208.97 283.87 191.54V176H322V213.8H305.49C293.04 216.52 283.84 223.27 279.7 226.8L249.03 257.21L279.27 287.2C283.4 290.72 292.6 297.48 305.05 300.2H321.56V338H283.44L283.42 322.5C279.79 305.03 267.91 293.83 267.91 293.83L240 266.17L212.09 293.83C212.09 293.83 200.21 305.03 196.55 322.46V338H158.44V300.2H174.95C187.41 297.48 196.6 290.72 200.74 287.2L230.97 257.21L200.3 226.81V226.8ZM240.5 302L281 342.5L240.5 383L200 342.5L240.5 302ZM153.5 217L194 257.5L153.5 298L113 257.5L153.5 217ZM325.5 217L366 257.5L325.5 298L285 257.5L325.5 217ZM240.5 130L281 170.5L240.5 211L200 170.5L240.5 130Z" fill="black"/>
</svg>
