<?xml version="1.0" encoding="UTF-8"?>
<svg width="512px" height="512px" viewBox="0 0 512 512" version="1.1" xmlns="http://www.w3.org/2000/svg" xmlns:xlink="http://www.w3.org/1999/xlink">
    <!-- Generator: Sketch 53.2 (72643) - https://sketchapp.com -->
    <title>ic_ui_research_points</title>
    <desc>Created with Sketch.</desc>
    <g id="ic_ui_research_points" stroke="none" stroke-width="1" fill="none" fill-rule="evenodd">
        <g id="researchpoints" transform="translate(79.000000, 56.000000)">
            <path d="M162.978597,388.696905 C162.504448,387.454751 161.941249,386.06454 161.287055,384.547392 C159.467326,380.327237 157.272268,375.876455 154.70023,371.386 C148.578739,360.698646 141.306889,351.468327 133.010205,344.625718 C108.049597,346.279989 88.7376872,344.748963 72.4196213,338.224755 C48.3373439,328.596299 34.4981519,308.609347 33.8175877,278.779204 C33.5583714,267.415293 31.2183017,260.492277 27.1685386,255.932049 C23.8346979,252.177984 19.0665891,249.464824 9.82050124,245.86814 C-4.47101721,240.308806 -0.638682685,219.114267 14.6947,218.911621 L23.8527672,218.790588 C38.5545594,219.176513 49.6331397,223.270662 58.0122354,231.270227 L58.0122354,160.123146 C58.0122354,159.678423 58.0334966,159.233954 58.0759462,158.791262 C58.1330828,157.633874 58.1059213,156.123157 57.9191446,154.406741 C57.6562593,151.990912 57.1195956,149.669351 56.2925977,147.626644 C54.9170831,144.229088 52.9026564,141.901719 49.854817,140.457992 C41.8779843,136.679457 39.3694609,126.536902 44.6653322,119.475675 L68.8716774,87.2002471 C71.2826924,83.9855306 74.8285274,82.0966768 78.5521946,81.697611 C78.1889752,81.2577933 77.8178431,80.8132123 77.4387137,80.3638696 C68.8136087,70.1414278 78.1215921,54.8140926 91.1696443,57.7533246 C91.3569993,57.7955286 91.8139769,57.8936356 92.5313498,58.0398034 C93.7844758,58.2951332 95.2797265,58.5828895 97.0078635,58.8952408 C102.014001,59.800073 107.842107,60.7096644 114.418128,61.5615397 C122.887954,62.6587434 131.865059,63.5661813 141.286534,64.2313331 C141.362445,61.9741445 141.543411,59.6480612 141.819305,57.2500341 C142.570329,50.7222629 143.831912,44.6665608 145.977317,36.2296006 C145.61631,35.0781692 144.938633,33.674498 144.042406,32.2818356 C143.126332,30.8583325 142.081583,29.6003645 141.136679,28.7449634 C123.54428,23.2611499 129.933867,-2.66593696 147.611723,1.26251211 C158.538106,4.01567861 167.84595,8.98860451 174.311192,16.3294026 C175.230115,17.3727708 176.080157,18.4513269 176.859887,19.5624936 C177.639617,18.4513269 178.489658,17.3727708 179.408581,16.3294026 C185.873823,8.98860451 195.181667,4.01567861 205.417374,1.4222085 C223.785906,-2.66593696 230.175493,23.2611499 213.204077,28.2345944 C211.63819,29.6003645 210.593441,30.8583325 209.677367,32.2818356 C208.78114,33.674498 208.103463,35.0781692 207.761433,36.168342 C209.887861,44.6665608 211.149444,50.7222629 211.900468,57.2500341 C212.176362,59.6480612 212.357329,61.9741445 212.433239,64.2313331 C221.854714,63.5661813 230.831819,62.6587434 239.301646,61.5615397 C245.877667,60.7096644 251.705772,59.800073 256.71191,58.8952408 C258.440047,58.5828895 259.935297,58.2951332 261.188423,58.0398034 C261.905796,57.8936356 262.362774,57.7955286 262.550129,57.7533246 C275.598181,54.8140926 284.906164,70.1414278 276.28106,80.3638696 C275.90193,80.8132123 275.530798,81.2577933 275.167579,81.697611 C278.891246,82.0966768 282.437081,83.9855306 284.848096,87.2002471 L309.054441,119.475675 C314.350312,126.536902 311.841789,136.679457 303.864956,140.457992 C300.817117,141.901719 298.80269,144.229088 297.427176,147.626644 C296.600178,149.669351 296.063514,151.990912 295.800629,154.406741 C295.613852,156.123157 295.58669,157.633874 295.644692,158.746425 C295.686277,159.233954 295.707538,159.678423 295.707538,160.123146 L295.707538,230.959074 C304.304317,222.947654 315.461939,219.168496 329.305752,218.79446 C329.430445,218.791091 332.670219,218.830144 339.025073,218.911621 C354.358456,219.114267 358.19079,240.308806 343.899272,245.86814 C329.243544,251.569149 320.291621,262.893661 319.904103,278.697875 C319.592274,307.157645 305.728891,326.888047 281.795787,336.953635 C265.159818,343.950255 244.580984,346.065624 220.727765,344.612411 C215.513325,348.914261 210.661917,354.200177 206.206918,360.281984 C201.342389,366.922866 197.229353,374.113788 193.886046,381.304441 C192.719759,383.812843 191.738656,386.127921 190.940998,388.181062 C190.670713,388.876766 190.445011,389.482369 190.26355,389.989345 C185.850318,403.287905 167.659503,403.143443 163.569926,390.303159 C163.43106,389.905989 163.239948,389.381582 162.978597,388.696905 Z" id="Shape" fill="#000000" fill-rule="nonzero"></path>
            <path d="M176.827611,385.946245 C176.093352,383.807997 164.030524,349.305565 137.266375,330.319545 C96.2931008,333.651983 48.961627,330.803676 47.7674473,278.461001 C47.0654633,247.686381 32.3237991,239.6498 14.8790929,232.863891 L24.0371602,232.742858 C48.2273679,233.396435 60.2740591,247.500797 64.0583177,285.4567 C66.4628147,306.338902 91.0564614,311.866069 108.541512,313.55246 C94.2032863,301.989788 71.9657238,276.927919 71.9657238,232.742858 L71.9657238,160.123146 C71.9657238,160.123146 74.2249827,136.562083 55.8281603,127.847718 L80.0345056,95.5722902 L104.240851,111.710004 C104.240851,111.710004 114.24614,102.35013 88.1032873,71.3657194 C88.1032873,71.3657194 115.254738,77.481913 157.212403,79.0634089 C152.72616,67.4119795 156.736345,50.3866914 159.850895,38.2995437 C161.529201,31.3603268 152.39534,16.8605909 144.58476,14.8837209 L144.875236,14.9482718 C158.632509,18.434018 174.092294,28.6733974 167.669544,48.1435492 C167.354862,49.1521563 167.354862,49.1440874 167.056317,50.1526946 C164.700233,58.5362369 164.199968,72.1645363 168.791105,79.4345764 L184.928668,79.4345764 C189.519805,72.1645363 189.019541,58.5362369 186.663456,50.1526946 C186.364912,49.1440874 186.364912,49.1521563 186.050229,48.1435492 C179.627479,28.6733974 195.087265,18.434018 208.844537,14.9482718 L209.135014,14.8837209 C201.324433,16.8605909 192.190572,31.3603268 193.868879,38.2995437 C196.983428,50.3866914 200.993613,67.4119795 196.50737,79.0634089 C238.465035,77.481913 265.616486,71.3657194 265.616486,71.3657194 C239.473633,102.35013 249.478922,111.710004 249.478922,111.710004 L273.685268,95.5722902 L297.891613,127.847718 C279.494791,136.562083 281.754049,160.123146 281.754049,160.123146 L281.754049,232.742858 C281.754049,276.927919 259.516487,301.989788 245.178262,313.55246 C262.663312,311.866069 287.256959,306.338902 289.661456,285.4567 C293.582883,246.112954 305.492405,233.396435 329.682613,232.742858 L338.84068,232.863891 C321.395974,239.6498 306.492934,254.625598 305.952326,278.461001 C305.468199,327.664891 257.426672,333.651983 216.453399,330.319545 C188.82589,349.918798 176.859887,386.05114 176.859887,386.05114 L176.827611,385.946245 Z" id="Shape" fill="#3A603B" fill-rule="nonzero"></path>
            <path d="M120.39801,120.402638 L136.480389,289.788268 L160.603957,265.590321 L160.603957,209.128444 L249.05704,217.194427 L249.05704,152.666567 L120.39801,120.402638 Z M160.199005,144.468356 L160.199005,192.86425 L216.660882,200.930233 L216.660882,168.666303 L160.199005,144.468356 Z" id="Shape" fill="#080808"></path>
        </g>
    </g>
</svg>