<?xml version="1.0" encoding="UTF-8"?>
<svg width="512px" height="512px" viewBox="0 0 512 512" version="1.1" xmlns="http://www.w3.org/2000/svg" xmlns:xlink="http://www.w3.org/1999/xlink">
    <!-- Generator: Sketch 53.2 (72643) - https://sketchapp.com -->
    <title>ic_ui_zenny</title>
    <desc>Created with Sketch.</desc>
    <g id="ic_ui_zenny" stroke="none" stroke-width="1" fill="none" fill-rule="evenodd">
        <g id="Group" transform="translate(56.000000, 56.000000)">
            <path d="M200,400 C89.54305,400 0,310.45695 0,200 C0,89.54305 89.54305,0 200,0 C310.45695,0 400,89.54305 400,200 C400,310.45695 310.45695,400 200,400 Z" id="background" fill="#000000" fill-rule="nonzero"></path>
            <path d="M106.052288,307.711963 C128.873199,328.516819 158.893773,341.635582 191.753775,343.39989 L191.753775,385.760743 C147.052569,383.751878 106.483037,366.038927 75.6097561,337.949751 L106.052288,307.711963 Z" id="Shape" fill="#D4C472"></path>
            <path d="M295.109152,307.711963 L325.551684,337.949751 C294.65203,366.126269 254.170407,383.882891 209.407666,385.760743 L209.407666,343.39989 C242.241295,341.487101 272.094844,328.551756 295.109152,307.711963 Z" id="Shape" fill="#D4C472"></path>
            <path d="M385.017422,209.221835 C383.017291,253.926425 365.30434,294.490235 337.215164,325.365854 L306.968641,294.921017 C327.773497,272.10717 340.900995,242.084324 342.656568,209.221835 L385.017422,209.221835 Z" id="Shape" fill="#D4C472"></path>
            <path d="M57.5757198,209.221835 C59.4797746,242.049158 72.4238539,271.913758 93.2636469,294.921017 L63.0171242,325.365854 C34.8406061,294.463861 17.0927187,253.987965 15.2148664,209.221835 L57.5757198,209.221835 Z" id="Shape" fill="#D4C472"></path>
            <path d="M337.215164,75.4239257 C365.391682,106.323579 383.139569,146.805203 385.017422,191.567944 L342.656568,191.567944 C340.752513,158.734315 327.808434,128.880766 306.968641,105.866458 L337.215164,75.4239257 Z" id="Shape" fill="#D4C472"></path>
            <path d="M63.0171242,75.4239257 L93.2636469,105.866458 C72.4587907,128.678578 59.3312933,158.699152 57.5757198,191.567944 L15.2148664,191.567944 C17.2149974,146.866738 34.9279481,106.297207 63.0171242,75.4239257 Z" id="Shape" fill="#D4C472"></path>
            <path d="M190.824623,15.029036 L190.824623,57.3851494 C158.253662,59.2977244 128.638942,72.2316221 105.808748,93.0778165 L75.6097561,62.8346782 C106.262213,34.6613129 146.419983,16.9154114 190.824623,15.029036 Z" id="Shape" fill="#D4C472"></path>
            <path d="M209.407666,15.029036 C254.108872,17.0376764 294.678403,34.7486451 325.551684,62.8346782 L295.109152,93.0778165 C272.288241,72.2752882 242.267667,59.1492597 209.407666,57.3851494 L209.407666,15.029036 Z" id="Shape" fill="#D4C472"></path>
            <polygon id="Shape" fill="#404040" points="209.407666 343.019744 209.407666 385.324611 200.58072 385.760743 191.753775 385.324611 191.753775 343.019744 200.58072 343.455877"></polygon>
            <polygon id="Shape" fill="#404040" points="209.407666 14.5310884 209.407666 57.746806 199.628339 57.2923727 190.801394 57.746806 190.801394 14.5310884 199.628339 14.0766551"></polygon>
            <polygon id="Shape" fill="#404040" transform="translate(363.646922, 200.859466) rotate(90.000000) translate(-363.646922, -200.859466) " points="363.646922 179.02439 372.473868 179.478824 372.473868 222.694541 363.646922 222.240108 354.819977 222.694541 354.819977 179.478824"></polygon>
            <polygon id="Shape" fill="#404040" transform="translate(37.049942, 199.930314) rotate(90.000000) translate(-37.049942, -199.930314) " points="37.0499419 178.995947 45.8768873 178.559814 45.8768873 220.86468 37.0499419 221.300813 28.2229965 220.86468 28.2229965 178.559814"></polygon>
            <polygon id="Shape" fill="#404040" transform="translate(315.546790, 316.641963) rotate(135.000000) translate(-315.546790, -316.641963) " points="306.719845 338.477039 306.719845 295.230784 315.54679 294.806888 324.373736 295.230784 324.373736 338.477039 315.54679 337.629246"></polygon>
            <polygon id="Shape" fill="#404040" transform="translate(84.413355, 84.579376) rotate(135.000000) translate(-84.413355, -84.579376) " points="75.58641 105.990555 75.58641 62.7443005 84.4133554 63.5920931 93.2403008 62.7443005 93.2403008 105.990555 84.4133554 106.414451"></polygon>
            <polygon id="Shape" fill="#404040" transform="translate(84.561695, 316.919418) rotate(45.000000) translate(-84.561695, -316.919418) " points="84.5616946 295.932135 93.38864 295.084343 93.38864 338.330597 84.5616946 338.754494 75.7347492 338.330597 75.7347492 295.084343"></polygon>
            <polygon id="Shape" fill="#404040" points="331.429996 69.0987358 337.371849 75.6400687 306.792129 106.219789 301.150016 99.3787158 294.308943 93.7366028 324.888663 63.1568828"></polygon>
            <ellipse id="Oval" fill="#404040" cx="200.58072" cy="199.465738" rx="126.829268" ry="123.11266"></ellipse>
            <path d="M200.116144,68.9198606 C272.932779,68.9198606 332.055749,128.042831 332.055749,200.859466 C332.055749,273.676101 272.932779,332.799071 200.116144,332.799071 C127.299509,332.799071 68.1765389,273.676101 68.1765389,200.859466 C68.1765389,128.042831 127.299509,68.9198606 200.116144,68.9198606 Z M112.51037,115.377468 L122.147005,159.200881 L257.059897,148.683262 L108.130081,260.8712 L272.828936,285.412311 L210.628837,234.577152 L292.102207,134.65977 L112.51037,115.377468 Z" id="Shape" fill="#837A47"></path>
        </g>
    </g>
</svg>