<svg width="512" height="512" viewBox="0 0 512 512" fill="none" xmlns="http://www.w3.org/2000/svg">
<rect width="512" height="512" fill="white"/>
<path d="M255.998 82.29L299.13 215.036H438.707L325.786 297.077L368.918 429.823L255.998 347.781L143.078 429.823L186.209 297.077L73.2891 215.036H212.866L255.998 82.29Z" fill="#FEFEFE"/>
<path fill-rule="evenodd" clip-rule="evenodd" d="M256 65C263.49 65 270.129 69.8232 272.444 76.9471L311.694 197.746H438.709C446.199 197.746 452.838 202.569 455.153 209.693C457.467 216.817 454.932 224.621 448.872 229.024L346.114 303.681L385.364 424.48C387.679 431.604 385.143 439.408 379.083 443.811C373.023 448.214 364.817 448.214 358.757 443.811L256 369.153L153.243 443.811C147.183 448.214 138.977 448.214 132.917 443.811C126.857 439.408 124.321 431.604 126.636 424.48L165.886 303.681L63.1284 229.024C57.0684 224.621 54.5327 216.817 56.8474 209.693C59.1621 202.569 65.8007 197.746 73.2912 197.746H200.306L239.556 76.9471C241.871 69.8232 248.51 65 256 65ZM212.868 215.036H73.2912L186.211 297.077L143.08 429.823L256 347.781L368.92 429.823L325.789 297.077L438.709 215.036H299.132L256 82.29L212.868 215.036Z" fill="black"/>
</svg>
