<?xml version="1.0" encoding="UTF-8"?>
<svg width="512px" height="512px" viewBox="0 0 512 512" version="1.1" xmlns="http://www.w3.org/2000/svg" xmlns:xlink="http://www.w3.org/1999/xlink">
    <!-- Generator: Sketch 53.2 (72643) - https://sketchapp.com -->
    <title>ic_ui_decoration_2_base</title>
    <desc>Created with Sketch.</desc>
    <g id="ic_ui_decoration_2_base" stroke="none" stroke-width="1" fill="none" fill-rule="evenodd">
        <g id="ic_ui_decoration_3_flat" transform="translate(56.000000, 68.000000)" fill-rule="nonzero">
            <path d="M73.6350242,0.155150177 L325.82237,0.155150177 C330.39371,0.155150177 334.752715,2.08459743 337.826231,5.46847725 L394.973822,68.3868211 C397.684424,71.3711393 399.186177,75.258145 399.186177,79.2897103 L399.186177,124.278832 C399.186177,127.62983 398.148049,130.898537 396.21455,133.635463 L303.044795,265.520017 C300.005859,269.821722 295.067065,272.379603 289.800207,272.379603 L110.194595,272.379603 C105.187912,272.379603 100.461958,270.066923 97.3898963,266.113531 L4.22232874,146.217521 C2.01116111,143.372001 0.810810811,139.87102 0.810810811,136.267376 L0.810810811,79.2897103 C0.810810811,75.2845364 2.29300887,71.4210512 4.97184492,68.4435933 L61.5798421,5.52524946 C64.6551842,2.10708515 69.0370272,0.155150177 73.6350242,0.155150177 Z M80.8648649,266.594595 L140.324324,350.918919 L21.4054054,350.918919 L80.8648649,266.594595 Z M322.216216,267.675676 L381.675676,352 L262.756757,352 L322.216216,267.675676 Z" id="Path-11" fill="#CFCFCF"></path>
            <path d="M73.6350242,16.3713664 L325.82237,16.3713664 L382.969961,79.2897103 L382.969961,124.278832 L289.800207,256.163386 L110.194595,256.163386 L17.027027,136.267376 L17.027027,79.2897103 L73.6350242,16.3713664 Z M258.638409,92.3925332 L205.142972,29.3443394 L194.334167,29.3443394 L140.847298,92.3824355 L140.847298,92.3925332 L258.638409,92.3925332 Z M259.15,74.4476928 L259.15,29.3443394 L220.880488,29.3443394 L259.15,74.4476928 Z M140.847298,73.8346483 L178.596651,29.3443394 L140.847298,29.3443394 L140.847298,73.8346483 Z M271.15,41.5241789 L271.15,92.3925332 L318.878152,92.3925332 L271.15,41.5241789 Z M128.847298,92.3925332 L128.847298,40.2417367 L79.915871,92.3925332 L128.847298,92.3925332 Z M198.575906,243.190413 L201.425805,243.190413 L257.215353,108.608749 L142.784951,108.608749 L198.575906,243.190413 L198.575906,243.190413 Z M185.433937,242.824444 L129.794695,108.608749 L79.6462008,108.608749 L185.433937,242.824444 Z M214.416013,243.190413 L214.558206,243.190413 L319.923204,108.608749 L270.205561,108.608749 L214.416013,243.190413 Z" id="Path" fill="#000000"></path>
        </g>
    </g>
</svg>