<?xml version="1.0" encoding="UTF-8"?>
<svg width="512px" height="512px" viewBox="0 0 512 512" version="1.1" xmlns="http://www.w3.org/2000/svg" xmlns:xlink="http://www.w3.org/1999/xlink">
    <!-- Generator: Sketch 53.2 (72643) - https://sketchapp.com -->
    <title>ic_ui_crafting_base</title>
    <desc>Created with Sketch.</desc>
    <g id="ic_ui_crafting_base" stroke="none" stroke-width="1" fill="none" fill-rule="evenodd">
        <g id="Group" transform="translate(56.000000, 64.000000)" fill-rule="nonzero">
            <path d="M83.9780524,192.939394 L172.451791,100.748272 L240.665909,171.828529 L326.954318,85.5401197 C340.654197,71.2359576 372.450439,69.9477164 387.88664,85.3839175 C403.37772,100.874997 402.219827,131.215154 388.130251,145.91124 L341.104388,192.939394 L342.963207,192.939394 L342.963207,265.848789 L321.6159,265.848789 L320.978269,268.972492 C315.832538,294.181004 304.253964,317.285143 286.43004,338.090208 C268.611092,358.889465 247.026029,374.15756 221.87113,383.72936 L219.031296,384.809957 L123.784511,384.809957 L120.304002,383.07651 C91.9905211,368.975154 70.9117794,354.129615 57.0564869,338.173752 C43.1417045,322.14938 31.8271505,299.618491 22.7858528,270.580444 L21.3126027,265.848789 L0,265.848789 L0,192.939394 L83.9780524,192.939394 Z" id="Path" fill="#000000"></path>
            <path d="M242.930475,192.939394 L338.798236,97.0716329 C345.316802,90.0774336 366.645583,87.5182905 376.198925,97.0716329 C385.752267,106.624975 383.55498,126.799614 376.198925,134.472322 L317.732113,192.939394 L242.930475,192.939394 Z M16.5289256,209.46832 L326.434281,209.46832 L326.434281,249.319863 L16.5289256,249.319863 L16.5289256,209.46832 Z M38.5674931,265.666667 L304.783304,265.666667 C300.210717,288.067389 289.908837,308.623985 273.877664,327.336453 C257.846491,346.048921 238.551543,359.697114 215.992819,368.281031 L127.6728,368.281031 C101.146154,355.069597 81.7674891,341.421404 69.5368047,327.336453 C57.3061203,313.251502 46.9830164,292.694906 38.5674931,265.666667 Z M172.451791,124.619835 L238.016529,192.939394 L106.887052,192.939394 L172.451791,124.619835 Z" id="base" fill="#FFFFFF"></path>
            <polygon id="Path-61" fill="#000000" points="73.0441238 151.709185 23.0803022 122.777798 48.062213 93.4590427 87.5182383 133.176121"></polygon>
            <polygon id="Path-62" fill="#000000" points="117.547731 93.6005165 70.0125429 45.1726959 117.547731 16.7768882 140.897641 76.8931373"></polygon>
            <polygon id="Path-63" fill="#000000" points="194.573465 69.1491324 194.573465 0.00887736549 241.677495 15.4497294 210.085054 75.6468208"></polygon>
            <polygon id="Path-64" fill="#000000" points="243.67497 108.118421 280.609731 59.2628102 312.097751 90.484725 261.716245 126.459485"></polygon>
            <polygon id="Path-59" fill-opacity="0.2" fill="#000000" points="240.993124 198.739058 240.993124 185.365283 339.054442 86.5007257 379.237441 86.5007257 389.617874 130.391559 327.654167 198.739058"></polygon>
            <polygon id="Path-60" fill-opacity="0.35" fill="#000000" points="171.900826 116.778617 95.2413819 198.618723 240.030441 198.618723 240.030441 186.931147"></polygon>
            <polygon id="Path-65" fill-opacity="0.1" fill="#000000" points="31.7150004 260.263138 311.862014 260.263138 288.551593 325.550293 219.798835 375.404531 122.252615 375.404531 56.0840778 321.16336"></polygon>
        </g>
    </g>
</svg>