<?xml version="1.0" encoding="UTF-8"?>
<svg width="512px" height="512px" viewBox="0 0 512 512" version="1.1" xmlns="http://www.w3.org/2000/svg" xmlns:xlink="http://www.w3.org/1999/xlink">
    <!-- Generator: Sketch 53.2 (72643) - https://sketchapp.com -->
    <title>ic_ui_decoration_1_base</title>
    <desc>Created with Sketch.</desc>
    <g id="ic_ui_decoration_1_base" stroke="none" stroke-width="1" fill="none" fill-rule="evenodd">
        <g id="ic_ui_decoration_1_flat" transform="translate(56.000000, 68.000000)" fill-rule="nonzero">
            <path d="M73.6350242,0.155150177 L325.82237,0.155150177 C330.39371,0.155150177 334.752715,2.08459743 337.826231,5.46847725 L394.973822,68.3868211 C397.684424,71.3711393 399.186177,75.258145 399.186177,79.2897103 L399.186177,124.278832 C399.186177,127.62983 398.148049,130.898537 396.21455,133.635463 L303.044795,265.520017 C300.005859,269.821722 295.067065,272.379603 289.800207,272.379603 L110.194595,272.379603 C105.187912,272.379603 100.461958,270.066923 97.3898963,266.113531 L4.22232874,146.217521 C2.01116111,143.372001 0.810810811,139.87102 0.810810811,136.267376 L0.810810811,79.2897103 C0.810810811,75.2845364 2.29300887,71.4210512 4.97184492,68.4435933 L61.5798421,5.52524946 C64.6551842,2.10708515 69.0370272,0.155150177 73.6350242,0.155150177 Z M200.27027,283.15515 L259.72973,367.479475 L140.810811,367.479475 L200.27027,283.15515 Z" id="Path-11" fill="#CFCFCF"></path>
            <path d="M73.6350242,16.3713664 L325.82237,16.3713664 L382.969961,79.2897103 L382.969961,124.278832 L289.800207,256.163386 L110.194595,256.163386 L17.027027,136.267376 L17.027027,79.2897103 L73.6350242,16.3713664 Z M217.82099,29.4343635 L245.050509,92.3925332 L284.562178,92.3925332 L217.82099,29.4343635 Z M287.088613,108.608749 L246.489592,108.608749 L213.110314,243.190413 L213.156319,243.190413 L287.088613,108.608749 Z M200.746731,243.190413 L234.126009,108.608749 L166.088803,108.608749 L199.261941,243.190413 L200.746731,243.190413 L200.746731,243.190413 Z M186.90277,243.190413 L153.729632,108.608749 L112.715999,108.608749 L186.648293,243.190413 L186.90277,243.190413 Z M115.164191,92.3925332 L154.061632,92.3925332 L182.061493,29.3443394 L182.000812,29.3443394 L115.164191,92.3925332 Z M195.191638,29.3443394 L167.191777,92.3925332 L231.976247,92.3925332 L204.707793,29.3443394 L195.191638,29.3443394 Z" id="Path-12" fill="#000000"></path>
        </g>
    </g>
</svg>