<?xml version="1.0" encoding="UTF-8"?>
<svg width="100px" height="100px" viewBox="0 0 100 100" version="1.1" xmlns="http://www.w3.org/2000/svg" xmlns:xlink="http://www.w3.org/1999/xlink">
    <!-- Generator: Sketch 50.2 (55047) - http://www.bohemiancoding.com/sketch -->
    <title>mdpi/*/icons/svg/affinity</title>
    <desc>Created with Sketch.</desc>
    <defs></defs>
    <g id="*/icons/svg/affinity" stroke="none" stroke-width="1" fill="none" fill-rule="evenodd">
        <g id="Group-5" transform="translate(1.000000, 2.000000)">
            <polygon id="Path-28" fill="#000000" fill-rule="nonzero" points="98.622865 0 73.1114995 50.2777001 99 97 49.4116936 73.5965992 0 96.9166469 25.3859607 50.3578956 0.00878051379 2.63099678 48.127837 26.4853765"></polygon>
            <polygon id="Path" fill="#996ECF" points="13 15.2907773 31.726779 50.5832461 13 85 49.5 67.7379783 86 85 66.9693558 50.5832461 86 13 48.2888801 32.821023"></polygon>
            <polygon id="Path-29" fill="#D7BF76" points="22 24 48.1539085 36.8468106 74 24 59.5981454 50.4495229 73.3012672 73 48.9544667 61.0157375 25.8939431 72.6964674 36.6862635 50.4495229"></polygon>
            <path d="M21.9310244,54.1500172 L63.5,10.2332314 L63.5,27.2767689 L29.570833,62.162438 L21.9310244,54.1500172 Z" id="Path-30" stroke="#000000" stroke-width="3" fill="#FFFFFF"></path>
            <path d="M15.8989688,49.1662981 L33.4007883,66.2576482 L27.826531,72.4914501 L10.2402753,55.3928354 L15.8989688,49.1662981 Z" id="Path-31" stroke="#000000" stroke-width="3" fill="#C6A582" transform="translate(21.825758, 60.825758) rotate(2.000000) translate(-21.825758, -60.825758) "></path>
            <rect id="Rectangle-4" stroke="#000000" stroke-width="1.5" fill="#000000" transform="translate(12.642008, 70.567964) rotate(46.000000) translate(-12.642008, -70.567964) " x="5.89200843" y="60.8179641" width="13.5" height="19.5"></rect>
            <path d="M10.0558923,65 L17.9877683,65 L18,73.2357132 L14.034062,73.2357132 L14.034062,77 L6,77 L6,69.0054757 L10.0681241,69.0054757 L10.0558923,65 Z M10.1181087,69.1073626 L10.1181087,73.2147252 L14.0292373,73.2147252 L14.0292373,69.1073626 L10.1181087,69.1073626 Z" id="Path-32" fill="#C6A582"></path>
        </g>
    </g>
</svg>