<?xml version="1.0" encoding="UTF-8"?>
<svg width="100px" height="100px" viewBox="0 0 100 100" version="1.1" xmlns="http://www.w3.org/2000/svg" xmlns:xlink="http://www.w3.org/1999/xlink">
    <!-- Generator: Sketch 50.2 (55047) - http://www.bohemiancoding.com/sketch -->
    <title>mdpi/*/icons/svg/attack</title>
    <desc>Created with Sketch.</desc>
    <defs></defs>
    <g id="*/icons/svg/attack" stroke="none" stroke-width="1" fill="none" fill-rule="evenodd">
        <g id="Group" transform="translate(15.000000, 0.000000)">
            <path d="M53.5692537,17.755827 C55.9583694,27.4415051 57.5915701,39.2983743 56.7968874,64.0303306 L56.6372029,69 L15.0715281,69 L15.5438641,63.4232565 C19.2487082,35.281537 15.0674202,14.1404515 3,0 C33.7544312,2.12900151 50.6108491,8.0476105 53.5692537,17.755827 Z" id="Path-51" fill="#000000" fill-rule="nonzero"></path>
            <polygon id="Rectangle" fill="#000000" fill-rule="nonzero" points="0 63 70 63 70 81 0 81"></polygon>
            <path d="M11,5 C20.1667881,11.4220984 23.3439246,31.088765 20.5314096,64 L51.6911981,64 C52.4072573,41.9131713 52.0223448,29.2213559 48.9888815,20.5495362 C45.5762295,13.6462366 32.913269,8.46305782 11,5 Z" id="Path" fill="#D7D7D7"></path>
            <polygon id="Rectangle-2" fill="#000000" fill-rule="nonzero" points="27 77 44 77 44 100 27 100"></polygon>
            <polygon id="Path" fill="#C6A582" points="32 81 32 95 39 95 39 81"></polygon>
            <polygon id="Path" fill="#C6A582" points="5 68 5 76 65 76 65 68"></polygon>
        </g>
    </g>
</svg>