<?xml version="1.0" encoding="UTF-8"?>
<svg width="100px" height="100px" viewBox="0 0 100 100" version="1.1" xmlns="http://www.w3.org/2000/svg" xmlns:xlink="http://www.w3.org/1999/xlink">
    <!-- Generator: Sketch 50.2 (55047) - http://www.bohemiancoding.com/sketch -->
    <title>mdpi/*/icons/svg/defense</title>
    <desc>Created with Sketch.</desc>
    <defs></defs>
    <g id="*/icons/svg/defense" stroke="none" stroke-width="1" fill="none" fill-rule="evenodd">
        <g id="Group" transform="translate(7.000000, 0.000000)">
            <polygon id="Path-12" fill="#000000" points="0.408998843 0 86.66284 0.103621021 87 73.0743909 63.9872699 100 25.9778667 100 0 73.3401563"></polygon>
            <polygon id="Path-12" fill="#AD987D" points="7 7 81 7 81 69.8835289 61.6392598 92 29.6617334 92 7 69.8835289"></polygon>
            <polygon id="Path-13" fill="#CAAD8A" points="15 16 71 16 71 65.6884153 57.0004739 82 33.319759 82 15 65.6884153"></polygon>
            <polygon id="Path-14" fill="#96826C" points="39.5021489 21 49.2527223 21 49.2527223 41.5369981 66 41.5369981 66 52.6914625 49.2527223 52.6914625 49.2527223 79 39.5021489 79 39.5021489 52.6914625 23 52.6914625 23 41.5369981 39.5021489 41.5369981"></polygon>
        </g>
    </g>
</svg>