<?xml version="1.0" encoding="UTF-8"?>
<svg width="100px" height="100px" viewBox="0 0 100 100" version="1.1" xmlns="http://www.w3.org/2000/svg" xmlns:xlink="http://www.w3.org/1999/xlink">
    <!-- Generator: Sketch 50.2 (55047) - http://www.bohemiancoding.com/sketch -->
    <title>mdpi/*/icons/svg/dragon</title>
    <desc>Created with Sketch.</desc>
    <defs>
        <path d="M32.6508836,39.674921 L50.2739502,39.8382507 C51.2978094,47.2006392 52.0990293,54.2623411 52.3668346,58.1129132 C55.0646021,57.9094264 56.9468571,56.7333737 58.4600156,53.1747961 C59.4825176,50.7701221 60.3371742,47.2533662 61.0031392,42.4663346 L76.4688543,42.494797 C76.7050155,44.4352583 76.8222144,46.4173557 76.8106238,48.4305119 C76.7322928,62.0356559 68.2108785,73.6309517 50.9145224,83.3039694 C50.2216148,83.6914792 49.7931214,84.4183665 49.7931214,85.2062906 L49.7931214,95.0365312 L33.2770529,94.9401787 L33.0726271,85.1411987 C33.0571987,84.40165 32.6648735,83.7200538 32.0300928,83.3299785 C13.5379239,71.9664645 4.58567394,59.8354876 4.82365551,46.946617 C4.85142425,45.4426862 4.94750226,43.9569305 5.10785528,42.4946644 L21.3650963,42.4634987 C22.3423273,48.0686807 23.6864148,52.1178592 25.4802565,54.5770914 C26.8615057,56.4706879 28.3868754,57.8320376 31.1635442,58.2142185 C31.5858745,50.7985738 32.0858021,44.7912148 32.6508836,39.674921 Z" id="path-1"></path>
        <path d="M5.71616664,38.4934909 C6.84460955,32.7123573 8.98473261,27.4061084 11.8609175,22.9378425 C14.3051668,19.1406053 17.1120913,16.3322787 19.2757935,15.0534216 C19.4803735,24.3720676 19.9487414,32.1870016 20.7629041,38.4646458 L5.71616664,38.4934909 Z M33.1591211,35.4322296 C34.0079145,28.8848427 34.9791097,23.8111128 36.0378026,18.760258 C37.0019248,14.1605849 38.1120342,10.5002075 39.2706937,8.06130378 C40.2047596,6.09515489 40.9948671,5.28198619 41.1705696,5.28747196 C41.3624111,5.29346162 42.3089807,6.37356848 43.361863,8.64978562 C44.6244759,11.3794174 45.861423,15.3583684 46.9425148,20.189044 C47.8500319,24.2441306 48.8059253,29.8386865 49.6625488,35.5899894 C42.0580279,35.4651597 36.5568854,35.4125731 33.1591211,35.4322296 Z M61.5074255,38.2440911 C62.1117081,32.325948 62.490472,24.8839356 62.6176707,15.7203952 C62.9914203,15.9778646 63.3980682,16.2861009 63.8241702,16.6447771 C65.7391678,18.256748 67.7708369,20.6069529 69.6027395,23.4199539 C72.4365465,27.7714417 74.566871,32.8024957 75.7515709,38.2524939 L61.5074255,38.2440911 Z" id="path-3"></path>
    </defs>
    <g id="*/icons/svg/dragon" stroke="none" stroke-width="1" fill="none" fill-rule="evenodd">
        <g id="Group" transform="translate(9.000000, 0.000000)">
            <path d="M54.2064442,97.2342557 C54.2064442,98.4459252 53.2105458,99.4261703 51.9867809,99.4190311 L31.1022361,99.2971935 C29.906364,99.2902169 28.9337436,98.3413366 28.9090472,97.1575367 L28.6848429,86.41049 C9.6796878,74.4816122 0.144510252,61.303391 0.411070066,46.8667479 C0.593215992,37.001886 3.47759821,27.8313395 8.13917725,20.5893937 C12.2566464,14.1927441 17.4169404,9.94759237 21.4107387,9.91766379 C22.6225298,9.90858292 23.6149807,10.8687412 23.6338341,12.0684235 C23.8417413,25.2980011 24.6097522,35.6813032 25.9680393,42.8340306 C26.660131,46.4785787 27.4889715,49.1290588 28.3203077,50.8149259 C28.634878,38.411809 29.8458464,26.7971965 31.7165554,17.8723428 C34.007839,6.94099488 36.933164,0.783373527 41.3096708,0.92001645 C45.5680145,1.05297009 48.6915072,7.8056217 51.2513272,19.2437442 C53.2699925,28.2638083 54.591587,39.2689517 54.9091744,50.0951629 C56.8511458,44.2128882 58.0920508,32.2295644 58.2376417,12.5524859 C58.24606,11.4147193 59.1350115,10.4738128 60.2810393,10.3896614 C63.8131682,10.1303016 69.0943968,14.5758354 73.3118851,21.0520524 C78.2916062,28.6987256 81.282838,38.2142305 81.2238748,48.4554204 C81.1372404,63.5027659 72.0274249,76.2024115 54.2064442,86.4720231 L54.2064442,97.2342557 Z" id="Path-10" fill="#000000" fill-rule="nonzero"></path>
            <mask id="mask-2" fill="white">
                <use xlink:href="#path-1"></use>
            </mask>
            <use id="Combined-Shape" fill="#7077B9" xlink:href="#path-1"></use>
            <mask id="mask-4" fill="white">
                <use xlink:href="#path-3"></use>
            </mask>
            <use id="Path" fill="#534079" xlink:href="#path-3"></use>
        </g>
    </g>
</svg>