<?xml version="1.0" encoding="UTF-8"?>
<svg width="100px" height="100px" viewBox="0 0 100 100" version="1.1" xmlns="http://www.w3.org/2000/svg" xmlns:xlink="http://www.w3.org/1999/xlink">
    <!-- Generator: Sketch 50.2 (55047) - http://www.bohemiancoding.com/sketch -->
    <title>mdpi/*/icons/svg/element</title>
    <desc>Created with Sketch.</desc>
    <defs></defs>
    <g id="*/icons/svg/element" stroke="none" stroke-width="1" fill="none" fill-rule="evenodd">
        <g id="Group-4" transform="translate(2.000000, 1.000000)">
            <path d="M49.3510819,36.6726301 C51.0397975,30.3717447 57.3190722,9.58004075 58.2972871,0 C64.1051196,7.64288894 66.2815373,28.4282413 67.5344741,36.2735657 C68.164864,35.3953961 68.5495927,34.8583343 69.1857744,33.7516766 L76.0867586,25.4176835 L78.6997537,35.2055478 C79.4504476,33.4865501 80.272296,31.3614795 81.1535506,28.844914 L88.0725538,15.9183685 L91.5418253,37.8188957 L95.7249923,36.9712274 L96,45.6712814 C95.3845354,61.7301636 93.577321,72.9622829 90.3526562,79.6866807 C85.9671662,88.8317488 79.1301543,93.3181992 68.36078,96.526642 C55.1143121,100.473068 37.2824543,100.201824 27.8684421,91.9951243 L26.1268339,90.4768709 L26,59.8057385 L40.9092931,7.92237512 L46.3075894,25.8872592 C46.5033868,28.1016039 47.5178843,31.6967276 49.3510819,36.6726301 Z" id="Path-24" fill="#000000" fill-rule="nonzero"></path>
            <path d="M31,61.327208 L31.114655,89.3079509 C40.588316,97.6425242 59.8637001,94.9582213 66.916456,92.8377401 C73.9692119,90.7172589 81.5493756,87.5092451 85.8299973,78.5008504 C88.6837451,72.4952539 90.4070793,61.6860598 91,46.073268 L87.1760274,49.7213449 L86.0813637,30.9302275 C84.4484639,35.6360782 82.9804582,39.1326419 81.6773466,41.4199185 C80.3742349,43.7071951 78.9177774,45.4828129 77.3079738,46.7467718 C75.1377937,45.6375785 73.9259416,42.3118955 73.6724175,36.7697229 C70.8363742,41.7484318 67.8078238,45.0313154 64.5867661,46.6183735 C62.8484282,44.0287057 61.2500847,33.8225812 59.7917354,16 C58.4965685,27.9506765 56.1434401,38.5048469 52.7323503,47.6625113 C52.3346976,48.8758423 51.1910851,47.7423864 49.3015127,44.2621434 C48.0432207,47.8120124 46.6508818,50.9670465 45.1244959,53.7272457 C44.4476214,51.9443076 43.3320557,42.1832663 41.777799,24.4441215 L31,61.327208 Z" id="Path" fill="#D66B72"></path>
            <path d="M31.4485091,62.6051224 C45.5322864,64.2101214 56.0389966,63.615029 63.8632497,62.6722697 C70.2423617,61.9036382 75.1588778,59.1694693 75.8856701,57.691243 L82.574301,51 C83.2951053,59.5880127 83.1005465,66.1112076 81.9906246,70.5695848 C80.3257416,77.2571507 75.8446862,84.8704511 63.2412778,87.9969177 C57.9996471,89.2971837 47.80277,89.3148525 30.9724623,88.1572953 L26,88.7087883 L26,62.3184126 L31.4485091,62.6051224 Z" id="Path-25" fill="#000000" fill-rule="nonzero"></path>
            <path d="M31,67.8244121 L31,84.1620192 C47.4042114,85.2793269 57.8804194,85.2793269 62.4286239,84.1620192 C69.2509307,82.4860576 78.9931825,78.420629 80,60 C76.651688,66.7440925 60.3183546,69.3522298 31,67.8244121 Z" id="Path" fill="#DBDBDB"></path>
            <path d="M27,61 L27,88 L18,88 L18,61 L27,61 Z" id="Path-26" stroke="#000000" stroke-width="4" fill="#C6A582"></path>
            <polygon id="Path-27" fill="#000000" fill-rule="nonzero" points="0 67 20 67 20 82 0 82"></polygon>
            <polygon id="Path" fill="#C6A582" points="17 72 5 72 5 77 17 77"></polygon>
        </g>
    </g>
</svg>