<?xml version="1.0" encoding="UTF-8"?>
<svg width="100px" height="100px" viewBox="0 0 100 100" version="1.1" xmlns="http://www.w3.org/2000/svg" xmlns:xlink="http://www.w3.org/1999/xlink">
    <!-- Generator: Sketch 50.2 (55047) - http://www.bohemiancoding.com/sketch -->
    <title>mdpi/*/icons/svg/fire</title>
    <desc>Created with Sketch.</desc>
    <defs></defs>
    <g id="*/icons/svg/fire" stroke="none" stroke-width="1" fill="none" fill-rule="evenodd">
        <g id="Group-2" transform="translate(8.000000, 0.000000)">
            <path d="M80.4279592,62.6872618 C80.3078933,70.872049 79.1233381,77.057797 74.9693546,83.4098415 C68.8693404,92.7376497 57.7958285,98.3040657 40.9354682,98.9634099 C18.8572553,99.8268043 -0.864569144,85.3496761 0.0292535289,61.9810841 C0.882813056,39.665154 11.5241271,23.5458664 25.8305187,14.1253395 C40.3897691,4.5383092 63.8704516,-1.46870305 84,1.97381738 C68.850695,15.6380388 64.6163301,25.1153387 63.6848345,33.0877957 C75.0175792,37.4965853 80.6491107,47.6115688 80.4279592,62.6872618 Z" id="Path-3" fill="#000000" fill-rule="nonzero"></path>
            <path d="M26.2884437,21.5601462 C14.2729698,30.727963 7.79344818,42.3726167 7.02549966,62.5673394 C6.30587371,81.4913249 22.2976365,93.2987795 40.7101446,92.5745389 C55.3916558,91.9970539 64.3634024,87.4608571 69.1683672,80.0705312 C72.43371,75.0482369 73.4070662,69.9357371 73.5093534,62.9222588 C73.7039948,49.5763732 68.9690837,41.9050465 59.1192486,38.990621 L56.695756,38.2735442 L56.7429352,35.7440523 C56.9115562,26.7035001 64.8751933,14.2115858 72.5200378,6.64368175 C55.6602896,5.58543384 34.8392481,15.0358751 26.2884437,21.5601462 Z" id="Mask" fill="#EF4E25"></path>
            <path d="M14.5150619,82.9014078 C13.3806679,81.7212249 12.3536267,80.4434859 11.4488302,79.0738336 C22.9720407,83.158364 30.6057034,85.2344918 34.3498183,85.3022172 C54.0531786,85.6586214 55.8578476,73.1233987 55.6943113,68.6462385 C55.4034956,60.6845319 48.4384513,59.3886117 44.4457302,59.2787156 C37.005381,59.0739266 34.3383855,64.8730233 34.3737919,66.9396044 C34.4915933,73.8153482 43.2725471,74.5433097 45.4881488,67.1159956 C45.7795322,66.1391971 49.1913724,66.1722396 48.5482245,70.2858432 C48.4264151,75.9859745 44.2491461,79.8109536 38.2984211,79.5584771 C28.2706034,79.1330183 24.2319718,71.7429705 24.3201455,66.2977765 C24.4933477,55.6016092 33.1821659,49.5809864 41.664224,49.4992594 C51.9142249,49.4004979 63.9360683,52.854175 64.1660393,67.286978 C64.2918279,75.1813743 60.1308342,89.4061661 37.3585139,89.3714644 C26.9197371,89.3555572 19.941338,85.3257617 14.5150619,82.9014078 Z" id="Mask" fill="#AA391C"></path>
        </g>
    </g>
</svg>