<?xml version="1.0" encoding="UTF-8" standalone="no"?>
<!DOCTYPE svg PUBLIC "-//W3C//DTD SVG 1.1//EN" "http://www.w3.org/Graphics/SVG/1.1/DTD/svg11.dtd">
<svg width="100%" height="100%" viewBox="0 0 512 512" version="1.1" xmlns="http://www.w3.org/2000/svg" xmlns:xlink="http://www.w3.org/1999/xlink" xml:space="preserve" xmlns:serif="http://www.serif.com/" style="fill-rule:evenodd;clip-rule:evenodd;stroke-linejoin:round;stroke-miterlimit:1.41421;">
    <g id="hunter_rank" transform="matrix(8.54943,0,0,8.54943,-1875.48,-3069.04)">
        <g>
            <g transform="matrix(1,0,0,1,0,-0.0795364)">
                <g transform="matrix(0.623773,0.623773,-0.623773,0.623773,331.418,1.63615)">
                    <rect x="226" y="383" width="12" height="12" style="fill:rgb(137,17,9);"/>
                </g>
                <g transform="matrix(0.623773,0.623773,-0.623773,0.623773,363.073,1.63615)">
                    <rect x="226" y="383" width="12" height="12" style="fill:rgb(137,17,9);"/>
                </g>
            </g>
            <g transform="matrix(6.12323e-17,-1,1,6.12323e-17,-139.686,638.233)">
                <g transform="matrix(0.623773,0.623773,-0.623773,0.623773,331.418,1.63615)">
                    <rect x="226" y="383" width="12" height="12" style="fill:rgb(137,17,9);"/>
                </g>
                <g transform="matrix(0.623773,0.623773,-0.623773,0.623773,363.073,1.63615)">
                    <rect x="226" y="383" width="12" height="12" style="fill:rgb(137,17,9);"/>
                </g>
            </g>
        </g>
        <g transform="matrix(1,0,0,1,-0.689316,0)">
            <path d="M242.767,383.408C242.008,382.754 240.319,381.504 238.032,381L235,381L235,374L242,374L242,376.878L242.005,376.87C242.671,380.105 244.853,382.179 244.853,382.179L250.056,387.382L255.259,382.179C255.259,382.179 257.441,380.105 258.107,376.87L258.111,376.878L258.111,374L265.111,374L265.111,381L262.079,381C259.793,381.504 258.104,382.754 257.345,383.408L251.713,389.039L257.265,394.591C258.024,395.244 259.713,396.495 261.999,396.999L265.031,396.999L265.031,403.999L258.031,403.999L258.031,401.121L258.027,401.129C257.361,397.894 255.179,395.82 255.179,395.82L250.056,390.697L244.933,395.82C244.933,395.82 242.751,397.894 242.085,401.129L242.08,401.121L242.08,403.999L235.08,403.999L235.08,396.999L238.112,396.999C240.399,396.495 242.088,395.244 242.847,394.591L248.398,389.039L242.767,383.408Z" style="fill:rgb(137,17,9);"/>
        </g>
    </g>
</svg>
