<?xml version="1.0" encoding="UTF-8"?>
<svg width="100px" height="100px" viewBox="0 0 100 100" version="1.1" xmlns="http://www.w3.org/2000/svg" xmlns:xlink="http://www.w3.org/1999/xlink">
    <!-- Generator: Sketch 50.2 (55047) - http://www.bohemiancoding.com/sketch -->
    <title>mdpi/*/icons/svg/paralysis</title>
    <desc>Created with Sketch.</desc>
    <defs></defs>
    <g id="*/icons/svg/paralysis" stroke="none" stroke-width="1" fill="none" fill-rule="evenodd">
        <g id="Group-13" transform="translate(0.000000, 4.000000)">
            <polygon id="Path-44" fill="#000000" fill-rule="nonzero" points="61.4889884 66.6056418 18.4606961 87.5297658 31.181429 65.5800351 13.1169639 50.6047749 32.4039135 32.6108774 0 0.448581634 31.2663359 0 65 32.4303447 47.1772451 50.4912251"></polygon>
            <polygon id="Path" fill="#E8C530" points="9 4 39.5593696 33.0215449 20.4042576 50.9382119 38.039616 65.5951886 26.6966642 80 55.8392721 65.5951886 41.4410222 50.9382119 60 33.0215449 29.8391633 4"></polygon>
            <polygon id="Path-45" fill="#000000" fill-rule="nonzero" points="100 68.0213306 46.2921494 93 67.2761748 69.0240187 50.8340655 52.097591 67.2890951 33.9585118 42 8 76.9572143 8 99.5785446 32.8964402 81.3236122 49.6983849"></polygon>
            <polygon id="Path" fill="#E8C530" points="52 12 73.7406125 33.7825627 56.0150313 52.0494559 73.7406125 68.2810537 59.7863659 83 93 66.5299294 74.7828879 49.4026382 93 32.5641863 74.7828879 12"></polygon>
        </g>
    </g>
</svg>