<?xml version="1.0" encoding="UTF-8" standalone="no"?>
<!DOCTYPE svg PUBLIC "-//W3C//DTD SVG 1.1//EN" "http://www.w3.org/Graphics/SVG/1.1/DTD/svg11.dtd">
<svg width="100%" height="100%" viewBox="0 0 512 512" version="1.1" xmlns="http://www.w3.org/2000/svg" xmlns:xlink="http://www.w3.org/1999/xlink" xml:space="preserve" xmlns:serif="http://www.serif.com/" style="fill-rule:evenodd;clip-rule:evenodd;stroke-linejoin:round;stroke-miterlimit:1.41421;">
    <g id="research_points" transform="matrix(8.71739,0,0,8.71739,-1914.63,-1984.37)">
        <path d="M248.996,279.987C248.905,279.722 247.41,275.446 244.093,273.093C239.015,273.506 233.149,273.153 233.001,266.666C232.914,262.852 231.087,261.856 228.925,261.015L230.06,261C233.058,261.081 234.551,262.829 235.02,267.533C235.318,270.121 238.366,270.806 240.533,271.015C238.756,269.582 236,266.476 236,261L236,252C236,252 236.28,249.08 234,248L237,244L240,246C240,246 241.24,244.84 238,241C238,241 241.365,241.758 246.565,241.954C246.009,240.51 246.506,238.4 246.892,236.902C247.1,236.042 245.968,234.245 245,234L245.036,234.008C246.741,234.44 248.657,235.709 247.861,238.122C247.822,238.247 247.822,238.246 247.785,238.371C247.493,239.41 247.431,241.099 248,242L250,242C250.569,241.099 250.507,239.41 250.215,238.371C250.178,238.246 250.178,238.247 250.139,238.122C249.343,235.709 251.259,234.44 252.964,234.008L253,234C252.032,234.245 250.9,236.042 251.108,236.902C251.494,238.4 251.991,240.51 251.435,241.954C256.635,241.758 260,241 260,241C256.76,244.84 258,246 258,246L261,244L264,248C261.72,249.08 262,252 262,252L262,261C262,266.476 259.244,269.582 257.467,271.015C259.634,270.806 262.682,270.121 262.98,267.533C263.466,262.657 264.942,261.081 267.94,261L269.075,261.015C266.913,261.856 265.066,263.712 264.999,266.666C264.939,272.764 258.985,273.506 253.907,273.093C250.483,275.522 249,280 249,280L248.996,279.987Z" style="fill:rgb(58,96,59);fill-rule:nonzero;"/>
        <path d="M242,247L244,268L247,265L247,258L258,259L258,251L242,247ZM247,250L247,256L254,257L254,253L247,250Z" style="fill:rgb(8,8,8);"/>
    </g>
</svg>
