<?xml version="1.0" encoding="UTF-8"?>
<svg width="399px" height="56px" viewBox="0 0 399 56" version="1.1" xmlns="http://www.w3.org/2000/svg" xmlns:xlink="http://www.w3.org/1999/xlink">
    <!-- Generator: Sketch 50.2 (55047) - http://www.bohemiancoding.com/sketch -->
    <title>mdpi/*/icons/svg/sharpness_decorator</title>
    <desc>Created with Sketch.</desc>
    <defs></defs>
    <g id="*/icons/svg/sharpness_decorator" stroke="none" stroke-width="1" fill="none" fill-rule="evenodd">
        <path d="M29.9361079,18.6772061 L46.2996783,18.6772061 L46.2996783,1.5 L69.0933391,1.5 L69.0604207,16.2012147 L84.0967415,27.2327672 L69.0797227,39.3604112 L69.0894565,53.5 L46.2464587,53.5 L46.5911385,37.1380655 L30.2034983,37.1380655 L21.600314,46.0354205 L3.443743,26.2975439 L22.0639491,9.64300387 L29.9361079,18.6772061 Z" id="Path-39" stroke="#000000" stroke-width="5" fill="#6C6D6C"></path>
        <path d="M85.5154647,41.2843556 L352.650983,41.2843556 L352.650983,14.9271869 L85.5154647,14.9271869 L85.5154647,27.1170804 L70.5,15.6191761 L70.5,4.5 L388.110398,4.5 L395.220326,14.6195502 L360.305507,51.5 L70.5,51.5 L70.5,40.9263832 L85.5154647,28.5779391 L85.5154647,41.2843556 Z" id="Path-40" stroke="#000000" stroke-width="5" fill="#6C6D6C"></path>
    </g>
</svg>