<?xml version="1.0" encoding="UTF-8"?>
<svg width="100px" height="100px" viewBox="0 0 100 100" version="1.1" xmlns="http://www.w3.org/2000/svg" xmlns:xlink="http://www.w3.org/1999/xlink">
    <!-- Generator: Sketch 50.2 (55047) - http://www.bohemiancoding.com/sketch -->
    <title>mdpi/*/icons/svg/sleep</title>
    <desc>Created with Sketch.</desc>
    <defs></defs>
    <g id="*/icons/svg/sleep" stroke="none" stroke-width="1" fill="none" fill-rule="evenodd">
        <g id="Group-17" transform="translate(7.000000, 0.000000)">
            <g id="Group-16" transform="translate(9.000000, 64.000000)">
                <polygon id="Path-48" fill="#000000" fill-rule="nonzero" points="39.156329 23.0720611 39.156329 35.0736762 0.217382618 35.0736762 0.217382618 25.3299214 13.8103051 12.6851581 0.217382618 12.6851581 0.217382618 0.135821259 39.156329 0.135821259 39.156329 10.4215016 25.6234656 23.0720611"></polygon>
                <polygon id="Path" fill="#5B88D9" points="4.21738262 4.13582126 4.21738262 8.68515809 23.9830154 8.68515809 4.21738262 27.0720611 4.21738262 31.0736762 35.156329 31.0736762 35.156329 27.0720611 15.487045 27.0720611 35.156329 8.68515809 35.156329 4.13582126"></polygon>
            </g>
            <g id="Group-14">
                <polygon id="Path-46" fill="#000000" fill-rule="nonzero" points="53.1808203 33.9522581 53.1808203 53.2168537 0.216471714 53.2168537 0.216471714 36.1610177 20.4930516 18.6704446 0.216471714 18.6704446 0.216471714 0.488691147 53.1808203 0.488691147 53.1808203 16.3190742 35.0095893 33.9522581"></polygon>
                <polygon id="Path" fill="#5B88D9" points="4.29194341 4.56416285 4.29194341 14.5949729 31.4572148 14.5949729 4.29194341 38.0277297 4.29194341 49.141382 49.1053486 49.141382 49.1053486 38.0277297 24.9575803 38.0277297 49.1053486 14.5949729 49.1053486 4.56416285"></polygon>
            </g>
            <g id="Group-15" transform="translate(41.000000, 23.000000)">
                <polygon id="Path-47" fill="#000000" fill-rule="nonzero" points="45.8831471 30.6794098 45.8831471 48.8543959 6.79134369 48.756303 4.52436578 46.2400165 4.23497185 43.2824808 0.401661899 41.1340173 0.401661899 32.8098699 18.0665061 18.3615536 10.5290438 18.3615536 8.52756067 14.3897652 4.60553676 12.1885926 4.60553676 0.23927058 45.8831471 0.23927058 45.8831471 16.2336915 28.1831755 30.6794098"></polygon>
                <polygon id="Path" fill="#5B88D9" points="8.69442565 4.23927058 8.69442565 14.3615536 29.3316295 14.3615536 4.49055079 34.6794098 4.49055079 44.8543959 41.7942582 44.8543959 41.7942582 34.6794098 16.8993052 34.6794098 41.7942582 14.3615536 41.7942582 4.23927058"></polygon>
            </g>
        </g>
    </g>
</svg>