<?xml version="1.0" encoding="UTF-8"?>
<svg width="100px" height="100px" viewBox="0 0 100 100" version="1.1" xmlns="http://www.w3.org/2000/svg" xmlns:xlink="http://www.w3.org/1999/xlink">
    <!-- Generator: Sketch 50.2 (55047) - http://www.bohemiancoding.com/sketch -->
    <title>mdpi/*/icons/svg/slots</title>
    <desc>Created with Sketch.</desc>
    <defs></defs>
    <g id="*/icons/svg/slots" stroke="none" stroke-width="1" fill="none" fill-rule="evenodd">
        <g id="Group">
            <g id="Group-6">
                <polygon id="Path-33" fill="#000000" fill-rule="nonzero" points="0.00551624162 0 29.9546008 0 30 7.64217437 14.9314435 21 0 7.76372092"></polygon>
                <polygon id="Path" fill="#5CACC5" points="4.09562175 4.68617129 15.0923254 14.41513 26.0890291 4.68617129"></polygon>
            </g>
            <g id="Group-7" transform="translate(35.000000, 0.000000)">
                <polygon id="Path-33" fill="#000000" fill-rule="nonzero" points="0.00551624162 0 29.9546008 0 30 7.64217437 14.9314435 21 0 7.76372092"></polygon>
                <polygon id="Path" fill="#5CACC5" points="3.86806597 4.64705882 15.0053924 14.3760175 26.1427189 4.64705882"></polygon>
            </g>
            <g id="Group-8" transform="translate(70.000000, 0.000000)">
                <polygon id="Path-33" fill="#000000" fill-rule="nonzero" points="0.00551624162 0 29.9546008 0 30 7.64217437 14.9314435 21 0 7.76372092"></polygon>
                <polygon id="Path" fill="#5CACC5" points="3.86806597 4.64705882 15.0053924 14.3760175 26.1427189 4.64705882"></polygon>
            </g>
            <g id="Group-9" transform="translate(3.000000, 24.000000)">
                <polygon id="Path-34" fill="#000000" fill-rule="nonzero" points="19.6270093 0.0822698145 73.0131435 0.0822698145 93.321615 18.4787687 93.321615 37.8912014 56.5340418 75.3805224 36.8009509 75.3702308 0.471717446 37.813722 0.471717446 18.590238"></polygon>
                <polygon id="Path" fill="#63C7E9" points="22.6951019 5.90515539 6.23557916 21.0784928 6.23557916 35.4409943 39.2286999 69.5486897 55.1400924 69.5563345 87.5577533 35.4409943 87.5577533 21.0784928 70.8074308 5.90515539"></polygon>
            </g>
        </g>
        <polygon id="Path-2" fill="#000000" fill-rule="nonzero" points="7.53792607 54.635819 7.53792607 50.635819 92.3431671 50.635819 92.3431671 54.635819"></polygon>
        <polygon id="Path-15" fill="#000000" fill-rule="nonzero" points="30 52.2393443 47.6016112 95.4711097 43.8969026 96.9794645 26 53.0224264 26 28 30 28"></polygon>
        <polygon id="Path-15-Copy" fill="#000000" fill-rule="nonzero" points="69.6016112 53.2393443 69.6016112 29 73.6016112 29 73.6016112 54.0224264 55.7047086 97.9794645 52 96.4711097"></polygon>
        <polygon id="Path-16" fill="#000000" fill-rule="nonzero" points="48.1668098 25.7018225 51.2096605 28.2981775 29.5214254 53.7161437 26.4785746 51.1197887"></polygon>
        <polygon id="Path-16-Copy" fill="#000000" fill-rule="nonzero" points="52.5214254 26.7018225 74.2096605 52.1197887 71.1668098 54.7161437 49.4785746 29.2981775"></polygon>
        <polygon id="Path-35" fill-opacity="0.106346241" fill="#000000" points="7.01692 53.119106 7.01692 60.8390597 41.2369611 96.1811871 58.652638 96.1811871 93.3098439 60.8390597 93.3098439 53.119106"></polygon>
        <polygon id="Path-36" fill-opacity="0.14563519" fill="#000000" points="6.78262839 53.5499872 6.78262839 61.2546805 41.6454005 96.8346902 58.9802872 96.8346902 93.1832726 61.2546805 93.1832726 53.5499872 72.0081578 53.5499872 54.8133075 94.5662805 44.9102228 94.5662805 28.3383548 53.5499872"></polygon>
        <polygon id="Path-37" fill-opacity="0.298460145" fill="#000000" points="28.4756982 28.0014289 28.4756982 50.9916304 50 28.0014289 71.2541158 50.9916304 71.2541158 28.0014289"></polygon>
    </g>
</svg>