<?xml version="1.0" encoding="UTF-8"?>
<svg width="100px" height="100px" viewBox="0 0 100 100" version="1.1" xmlns="http://www.w3.org/2000/svg" xmlns:xlink="http://www.w3.org/1999/xlink">
    <!-- Generator: Sketch 50.2 (55047) - http://www.bohemiancoding.com/sketch -->
    <title>mdpi/*/icons/svg/stun</title>
    <desc>Created with Sketch.</desc>
    <defs></defs>
    <g id="*/icons/svg/stun" stroke="none" stroke-width="1" fill="none" fill-rule="evenodd">
        <g id="Group-18" transform="translate(2.000000, 2.000000)">
            <path d="M60.6200741,20.7272762 C64.5858431,20.7272762 66.5703321,25.5393682 63.7639528,28.3507168 L49.5399604,42.5998961 L53.9236807,51.9597704 L54.99958,51.9597704 L60.2046847,35.3243482 C61.4988825,31.188115 67.3172938,31.1434993 68.6743519,35.2594025 L74.180645,51.9597704 L92.0392513,51.9597704 C96.027558,51.9597704 98.0016628,56.8186238 95.1499463,59.6161068 L80.9586891,73.5374773 L86.0712837,91.456364 C87.1745503,95.32315 83.0185287,98.5668722 79.5543407,96.5427555 L64.4782571,87.7338362 L49.8165839,96.5179027 C46.3755954,98.5794595 42.1850612,95.3837173 43.2439145,91.505521 L48.153437,73.5237183 L30.8545682,58.0012851 L17.7024501,65.3527136 C14.2223214,67.3192893 10.1221755,64.0457957 11.2506244,60.2016748 L16.3699659,42.7623667 L2.15297638,28.3296906 C-0.624713828,25.50986 1.36617744,20.7272762 5.31770516,20.7272762 L23.1949533,20.7272762 L28.4613267,4.01094139 C29.7576159,-0.1036936 35.5401199,-0.16212263 36.9187417,3.92548385 L42.5854607,20.7272762 L60.6200741,20.7272762 Z" id="Path-49" fill="#000000" fill-rule="nonzero"></path>
            <polygon id="Path" fill="#EAD75A" points="32.7039689 4.3564314 26.455039 25.1915619 5.31770516 25.1915619 21.379826 41.4973618 15.5188902 61.4629499 32.7039689 52.0085795 37.4544629 56.4240561 53.1265037 72.2066305 47.5353559 92.6849796 64.4499512 82.5511478 81.7935651 92.6849796 75.9507079 72.2066305 92.0392513 56.4240561 70.9658878 56.4240561 64.4499512 36.6614795 58.2663823 56.4240561 50.8750254 56.4240561 44.3430963 41.4973618 60.6200741 25.1915619 39.393738 25.1915619"></polygon>
            <polygon id="Path-50" fill="#000000" points="32.7002869 52.0077552 52.9031161 52.0077552 51.5319467 56.4284107 35.6187945 56.4284107"></polygon>
        </g>
    </g>
</svg>