<?xml version="1.0" encoding="UTF-8"?>
<svg width="100px" height="100px" viewBox="0 0 100 100" version="1.1" xmlns="http://www.w3.org/2000/svg" xmlns:xlink="http://www.w3.org/1999/xlink">
    <!-- Generator: Sketch 50.2 (55047) - http://www.bohemiancoding.com/sketch -->
    <title>mdpi/*/icons/svg/thunder</title>
    <desc>Created with Sketch.</desc>
    <defs></defs>
    <g id="*/icons/svg/thunder" stroke="none" stroke-width="1" fill="none" fill-rule="evenodd">
        <g id="Group" transform="translate(5.000000, 0.000000)">
            <path d="M38.8003231,34.5593559 L0.17886879,0.57120715 L37.4871893,0.634173123 L83.4441706,47.2325306 L89.5145426,43.3159947 L89.3018255,99.5811081 L12.1079101,99.5003647 L27.0215051,81.9237398 L55.0463539,81.7619869 L5.95081087,34.5476053 L38.8003231,34.5593559 Z M54.5313326,52.2605374 L70.3103579,68.5244423 L70.3103579,55.7063192 L75.6510922,52.2605374 L54.5313326,52.2605374 Z" id="Path-6" fill="#000000" fill-rule="nonzero"></path>
            <polygon id="Path" fill="#F4ED1F" points="14.7025992 6.00849806 53.302086 39.7283515 19.5406262 39.7163631 68.5501646 86.5025994 29.6112864 86.7256983 23.9280918 93.3746154 83.8006732 93.4367821 83.9545659 53.0294557 75.8321089 58.2315652 75.8321089 81.5003979 41.593927 46.4687468 75.3172476 46.4687468 35.1533128 6.04276015"></polygon>
        </g>
    </g>
</svg>