<?xml version="1.0" encoding="UTF-8"?>
<svg width="100px" height="100px" viewBox="0 0 100 100" version="1.1" xmlns="http://www.w3.org/2000/svg" xmlns:xlink="http://www.w3.org/1999/xlink">
    <!-- Generator: Sketch 50.2 (55047) - http://www.bohemiancoding.com/sketch -->
    <title>mdpi/*/icons/svg/water</title>
    <desc>Created with Sketch.</desc>
    <defs></defs>
    <g id="*/icons/svg/water" stroke="none" stroke-width="1" fill="none" fill-rule="evenodd">
        <path d="M50.2680423,0.00139318596 C53.1429518,0.0540144189 55.3000059,1.65295788 56.7663479,4.24212508 C57.6987694,5.88853175 58.2990346,7.70866742 59.0244533,10.6157653 C59.0862783,10.8635274 59.147789,11.1134694 59.2304184,11.4517282 C59.3303488,11.8613778 59.3815989,12.0713564 59.4280822,12.26069 C59.7387658,13.5261514 59.9438573,14.2918011 60.163623,14.9709517 L60.2595736,15.3388152 C60.9946556,19.015304 62.2164103,22.8433666 63.8836122,27.0049276 C64.7168844,29.0848875 65.1738043,30.1304746 66.806743,33.7786498 C67.4946255,35.3154593 68.2334251,36.7226847 69.0289207,38.0366451 C70.7670478,40.9075973 76.0061971,47.1123505 76.2738983,47.5179953 C76.5531057,47.9410756 80.0012451,51.6135973 81.1649824,53.0650558 C85.2362717,58.1429266 87.5050961,63.6895085 87.4198836,70.6480211 C87.1898295,89.4343984 71.1946595,99.38902 50.3025062,99.2924392 C29.463427,99.1961037 13.2980685,88.9843137 13.0028721,70.2592425 C12.8797134,62.4469689 16.7271412,54.7226189 22.671022,48.4876055 C28.4845161,42.3893652 32.2838968,37.0163941 34.3024575,32.1790784 C34.5738221,31.5287754 35.69046,28.9075385 35.8911453,28.4318728 C36.5969332,26.7590089 37.1769751,25.3399601 37.7331199,23.9074774 C38.9820495,20.6905626 39.9763333,17.7345869 40.7205607,14.903713 C40.6694001,15.0983167 41.5066853,10.7046306 42.0240253,8.83461008 C43.5382562,3.36114432 45.8529356,-0.0794192203 50.2680423,0.00139318596 Z" id="Path-5" fill="#000000" fill-rule="nonzero"></path>
        <path d="M53.4576019,14.249195 C53.4098741,14.0547923 53.3573431,13.8395659 53.2581195,13.4328071 C53.1778477,13.1041994 53.1186645,12.8637154 53.0599669,12.6284862 C52.4726295,10.2747454 52.012058,8.8781918 51.4605544,7.90438427 C51.0435142,7.16800295 50.823192,7.00468636 50.5674708,7.00000573 C50.3972461,6.99689001 49.5452867,8.26325134 48.785759,11.0087037 C48.3604507,12.5460586 47.5337462,16.8842226 47.5042644,16.9963647 C46.6898861,20.0940766 45.6192939,23.2769149 44.2869984,26.7085581 C43.7048488,28.2080227 43.1020773,29.6826784 42.3735982,31.409325 C42.1643788,31.9052185 41.0549929,34.5094316 40.7949001,35.1327227 C38.4289879,40.8024382 34.180004,46.8112245 27.853567,53.4475319 C22.9960145,58.5430083 19.9099923,64.7387102 20.0020022,70.5751365 C20.2286066,84.9492417 33.0524979,93.0501993 50.7527725,93.1320247 C68.4816735,93.2139824 81.0839836,85.3709129 81.2601252,70.9870635 C81.3248429,65.7021712 79.6357204,61.5727832 76.4510737,57.6007677 C75.6025299,56.5424308 71.8533199,52.5492468 71.2017808,51.561976 C71.2466397,51.6299502 65.8956439,45.2927366 63.8198798,41.8640923 C62.8849362,40.3197988 62.0200485,38.6724075 61.220684,36.8865342 C59.5496462,33.1532412 59.0732689,32.0631289 58.1952964,29.8715911 C56.4166777,25.4319188 55.0909994,21.2950384 54.2640274,17.2319223 C54.0072173,16.4181415 53.7794449,15.5601107 53.4576019,14.249195 Z" id="Path" fill="#9FDCF3"></path>
        <path d="M25,69 C26.6878742,80.6782018 35.5302735,86.3802819 51.5271979,86.1062403 C67.5241222,85.8321987 75.7381015,80.1497132 76.1691356,69.0587838 C70.0384321,77.2657116 61.8308871,81.2738262 51.5465007,81.0831273 C41.2621143,80.8924285 32.4132807,76.8647194 25,69 Z" id="Path-4" fill="#4B92A5"></path>
    </g>
</svg>