<?xml version="1.0" encoding="UTF-8"?>
<svg width="100px" height="100px" viewBox="0 0 100 100" version="1.1" xmlns="http://www.w3.org/2000/svg" xmlns:xlink="http://www.w3.org/1999/xlink">
    <!-- Generator: Sketch 50.2 (55047) - http://www.bohemiancoding.com/sketch -->
    <title>mdpi/*/icons/svg/whetstone</title>
    <desc>Created with Sketch.</desc>
    <defs></defs>
    <g id="*/icons/svg/whetstone" stroke="none" stroke-width="1" fill="none" fill-rule="evenodd">
        <polygon id="Path-18" fill="#000000" fill-rule="nonzero" points="24.0629226 96.0218004 9.93497283 96.0218004 9.93497283 3.22210376 37.1797066 22.0700514 37.1797066 78.0868327 24.0629226 78.0868327"></polygon>
        <polygon id="Path" fill="#F8D058" points="14.9349728 12.7609742 14.9349728 91.0218004 19.0629226 91.0218004 19.0629226 73.0868327 32.1797066 73.0868327 32.1797066 24.6909068"></polygon>
        <polygon id="Path-17" fill="#000000" fill-rule="nonzero" points="24.6362587 36.0004648 30.8651924 43.1235384 24.7089011 50.4052629 30.6247295 58.095144 25.0297271 65.4617545 33.4868588 76.986212 10.9604729 76.986212 10.9604729 5.12681689 34.7260337 21.601254 34.8894747 27.8336633"></polygon>
        <polygon id="Path" fill="#917933" points="32.2971902 24.7846538 14.9604729 12.7667317 14.9604729 72.986212 25.5900002 72.986212 20.0380536 65.4206242 25.5900002 58.1107029 19.5710726 50.2868051 25.5900002 43.1675559 18.8682661 35.4809423"></polygon>
        <path d="M61.5173933,29.1898561 L62.2551483,28.9558461 L76.6667775,28.9558461 L77.1040422,29.0341614 C82.5545335,30.0103593 86.6749736,34.0431115 89.539454,40.4865927 L89.9705833,41.4563931 L89.9705833,78.2006192 L82.2977167,96.0969683 L49.0125382,96.0969683 L49.0125382,39.2934096 L50.0567122,37.9426726 C53.4908755,33.5002601 57.2925378,30.5299463 61.5173933,29.1898561 Z" id="Path-19" fill="#000000" fill-rule="nonzero"></path>
        <path d="M63.029127,33.9558461 C59.8753951,34.9561845 56.8698655,37.3044642 54.0125382,41.0006851 L54.0125382,91.0969683 L79.0012443,91.0969683 L84.9705833,77.1739614 L84.9705833,42.517706 C82.7181133,37.4509064 79.8021039,34.5969531 76.222555,33.9558461 L63.029127,33.9558461 Z" id="Path" fill="#F8D058"></path>
        <path d="M53.4317279,75.2340495 C54.5024675,74.919374 55.8319233,74.919374 57.4783962,75.1769307 C58.2384614,75.2958273 58.9872604,75.5705803 59.9697109,76.0370321 C60.3659216,76.2251467 61.9745682,77.0396893 62.3826144,77.2362019 C64.0022015,78.0161851 65.3380444,78.5006362 66.7756767,78.761456 C67.8791409,78.96165 69.146316,79.0606746 70.8771121,79.1064999 C71.353381,79.1191098 71.7219557,79.1256295 72.607524,79.1388055 C76.6006148,79.198217 78.1600069,79.3261587 79.8095242,79.9659377 C82.4516372,80.9907032 83.9814387,82.2540618 83.9674678,84.2241781 L83.964685,84.616593 L80.4199202,93.12877 L51.9956515,93.12877 L51.9956515,75.6560923 L53.4317279,75.2340495 Z" id="Path-20" stroke="#000000" stroke-width="4" fill="#C4A445"></path>
        <path d="M74.5156014,79.6988338 C74.4897179,75.2307849 74.4897179,72.3961788 74.5156014,71.1950155 C74.5544268,69.3932706 77.9141266,66.8296382 77.8559636,65.3273171 L77.8559636,46.3259995 C77.9273916,44.474419 74.5053462,42.1696205 74.5156014,40.8776993 L74.5156014,32.208083" id="Path-23" stroke="#000000" stroke-width="4"></path>
        <path d="M52.4387726,27.9860463 L52.4387726,8.84983066" id="Path-21" stroke="#F8D058" stroke-width="4"></path>
        <path d="M42.8174168,18.7143684 L61.9435143,18.7143684" id="Path-22" stroke="#F8D058" stroke-width="4"></path>
    </g>
</svg>