<?xml version="1.0" encoding="UTF-8" standalone="no"?>
<!DOCTYPE svg PUBLIC "-//W3C//DTD SVG 1.1//EN" "http://www.w3.org/Graphics/SVG/1.1/DTD/svg11.dtd">
<svg width="100%" height="100%" viewBox="0 0 512 512" version="1.1" xmlns="http://www.w3.org/2000/svg" xmlns:xlink="http://www.w3.org/1999/xlink" xml:space="preserve" xmlns:serif="http://www.serif.com/" style="fill-rule:evenodd;clip-rule:evenodd;stroke-linecap:round;stroke-linejoin:round;stroke-miterlimit:1.5;">
    <g transform="matrix(1,0,0,1,-3.5,11.5)">
        <rect x="59" y="44" width="401" height="401" style="fill:none;stroke:black;stroke-width:0.11px;"/>
    </g>
    <g id="zenny" transform="matrix(9.43184,0,0,9.43184,-2256.67,-1560)">
        <g transform="matrix(1,0,0,1,34.2033,10.7728)">
            <path d="M221.451,193.93C224.047,196.312 227.462,197.814 231.2,198.016L231.2,202.866C226.115,202.636 221.5,200.608 217.988,197.392L221.451,193.93Z" style="fill:rgb(212,196,114);"/>
        </g>
        <g transform="matrix(1,0,0,1,34.2033,10.7728)">
            <path d="M242.949,193.93L246.412,197.392C242.897,200.618 238.292,202.651 233.2,202.866L233.2,198.016C236.935,197.797 240.331,196.316 242.949,193.93Z" style="fill:rgb(212,196,114);"/>
        </g>
        <g transform="matrix(1,0,0,1,34.2033,10.7728)">
            <path d="M253.299,182.767C253.07,187.852 251.042,192.466 247.826,195.978L244.363,192.515C246.745,189.92 248.248,186.505 248.449,182.767L253.299,182.767Z" style="fill:rgb(212,196,114);"/>
        </g>
        <g transform="matrix(1,0,0,1,34.2033,10.7728)">
            <path d="M215.951,182.767C216.169,186.501 217.651,189.898 220.037,192.515L216.574,195.978C213.348,192.463 211.316,187.859 211.101,182.767L215.951,182.767Z" style="fill:rgb(212,196,114);"/>
        </g>
        <g transform="matrix(1,0,0,1,34.2033,10.7728)">
            <path d="M247.826,167.555C251.052,171.07 253.084,175.675 253.299,180.767L248.449,180.767C248.231,177.032 246.749,173.636 244.363,171.018L247.826,167.555Z" style="fill:rgb(212,196,114);"/>
        </g>
        <g transform="matrix(1,0,0,1,34.2033,10.7728)">
            <path d="M216.574,167.555L220.037,171.018C217.655,173.613 216.152,177.028 215.951,180.767L211.101,180.767C211.33,175.682 213.358,171.067 216.574,167.555Z" style="fill:rgb(212,196,114);"/>
        </g>
        <g transform="matrix(1,0,0,1,34.2033,10.7728)">
            <path d="M231.2,160.667L231.2,165.517C227.465,165.736 224.069,167.217 221.451,169.604L217.988,166.141C221.503,162.915 226.108,160.883 231.2,160.667Z" style="fill:rgb(212,196,114);"/>
        </g>
        <g transform="matrix(1,0,0,1,34.2033,10.7728)">
            <path d="M233.2,160.667C238.285,160.897 242.9,162.925 246.412,166.141L242.949,169.604C240.353,167.222 236.938,165.719 233.2,165.517L233.2,160.667Z" style="fill:rgb(212,196,114);"/>
        </g>
        <g transform="matrix(1,0,0,1,6.05326,0.453263)">
            <path d="M261.35,208.336L261.35,213.186L260.35,213.236L259.35,213.186L259.35,208.336L260.35,208.386L261.35,208.336Z" style="fill-opacity:0.65;"/>
        </g>
        <g transform="matrix(1,0,0,1,6.05326,0.453263)">
            <path d="M261.35,170.987L261.35,175.837L260.35,175.786L259.35,175.837L259.35,170.987L260.35,170.936L261.35,170.987Z" style="fill-opacity:0.65;"/>
        </g>
        <g transform="matrix(6.12323e-17,1,-1,6.12323e-17,458.489,-67.8106)">
            <path d="M260.35,170.936L261.35,170.987L261.35,175.837L260.35,175.786L259.35,175.837L259.35,170.987L260.35,170.936Z" style="fill-opacity:0.65;"/>
        </g>
        <g transform="matrix(6.12323e-17,1,-1,6.12323e-17,458.489,-67.8106)">
            <path d="M260.35,208.386L261.35,208.336L261.35,213.186L260.35,213.236L259.35,213.186L259.35,208.336L260.35,208.386Z" style="fill-opacity:0.65;"/>
        </g>
        <g transform="matrix(-0.707107,0.707107,-0.707107,-0.707107,586.324,144.27)">
            <path d="M259.35,175.885L259.35,170.988L260.35,170.94L261.35,170.988L261.35,175.885L260.35,175.789L259.35,175.885Z" style="fill-opacity:0.65;"/>
        </g>
        <g transform="matrix(-0.707107,0.707107,-0.707107,-0.707107,586.324,144.27)">
            <path d="M259.35,213.184L259.35,208.287L260.35,208.383L261.35,208.287L261.35,213.184L260.35,213.232L259.35,213.184Z" style="fill-opacity:0.65;"/>
        </g>
        <g transform="matrix(0.707107,0.707107,-0.707107,0.707107,218.133,-127.381)">
            <path d="M260.35,208.383L261.35,208.287L261.35,213.184L260.35,213.232L259.35,213.184L259.35,208.287L260.35,208.383Z" style="fill-opacity:0.65;"/>
        </g>
        <g transform="matrix(0.707107,0.707107,-0.707107,0.707107,218.133,-127.381)">
            <path d="M260.35,170.94L261.35,170.988L261.35,175.885L260.35,175.789L259.35,175.885L259.35,170.988L260.35,170.94Z" style="fill-opacity:0.65;"/>
        </g>
        <g transform="matrix(1.26594,0,0,1.23189,-145.671,-79.0374)">
            <circle cx="325.508" cy="220.455" r="11.418" style="fill-opacity:0.75;"/>
        </g>
        <g transform="matrix(1,0,0,1,19.6033,13.7394)">
            <path d="M246.8,163.75C255.106,163.75 261.85,170.494 261.85,178.8C261.85,187.106 255.106,193.85 246.8,193.85C238.494,193.85 231.75,187.106 231.75,178.8C231.75,170.494 238.494,163.75 246.8,163.75ZM236.8,169.1L237.9,174.1L253.3,172.9L236.3,185.7L255.1,188.5L248,182.7L257.3,171.3L236.8,169.1Z" style="fill:rgb(131,122,71);"/>
        </g>
    </g>
</svg>
