<?xml version="1.0" encoding="UTF-8"?>
<svg width="512px" height="512px" viewBox="0 0 512 512" version="1.1" xmlns="http://www.w3.org/2000/svg" xmlns:xlink="http://www.w3.org/1999/xlink">
    <!-- Generator: Sketch 53.2 (72643) - https://sketchapp.com -->
    <title>ic_items_husk_base</title>
    <desc>Created with Sketch.</desc>
    <g id="ic_items_husk_base" stroke="none" stroke-width="1" fill="none" fill-rule="evenodd">
        <g id="ammo" transform="translate(120.000000, 199.000000)" fill-rule="nonzero">
            <path d="M178.563591,203.17207 L178.563591,243.034913 C178.563591,251.319184 171.847862,258.034913 163.563591,258.034913 L108.700748,258.034913 C100.366151,258.034913 93.6297615,251.240452 93.7013007,242.906162 L94.0423669,203.17207 L85.7955112,203.17207 L85.7955112,243.034913 C85.7955112,251.319184 79.0797825,258.034913 70.7955112,258.034913 L15.9326683,258.034913 C7.64839708,258.034913 0.932668329,251.319184 0.932668329,243.034913 L0.932668329,221.22962 C0.932668329,217.219266 2.53855961,213.375908 5.39176518,210.557724 L24.3300068,191.851941 C24.1319643,191.066703 23.9803993,132.31722 23.8753117,15.6034913 C23.8753117,7.31922002 30.5910405,0.603491272 38.8753117,0.603491272 L234.391521,0.603491272 C242.675792,0.603491272 249.391521,7.31922002 249.391521,15.6034913 C249.231486,132.679134 249.005994,191.685749 248.715044,192.623337 L266.872198,210.556356 C269.725633,213.374568 271.331671,217.218086 271.331671,221.228623 L271.331671,243.034913 C271.331671,251.319184 264.615942,258.034913 256.331671,258.034913 L201.468828,258.034913 C193.184557,258.034913 186.468828,251.319184 186.468828,243.034913 L186.468828,203.17207 L178.563591,203.17207 Z" id="Path" fill="#000000"></path>
            <path d="M109.051803,202.137157 L108.700748,243.034913 L163.563591,243.034913 L163.563591,202.137157 L109.051803,202.137157 Z M35.2623948,202.137157 L15.9326683,221.22962 L15.9326683,243.034913 L70.7955112,243.034913 L70.7955112,202.137157 L35.2623948,202.137157 Z M237.001591,202.137157 L201.468828,202.137157 L201.468828,243.034913 L256.331671,243.034913 L256.331671,221.228623 L237.001591,202.137157 Z M234.386534,68.4713217 L39.1340956,68.4713217 L39.1340956,110.12837 C39.1211564,110.876586 39.0345633,111.611852 38.882279,112.328187 L38.8753117,188.17207 L234.386534,188.17207 L234.386534,68.4713217 Z M38.8753117,15.6034913 L38.8753117,54.5062344 L234.391521,54.5062344 L234.391521,15.6034913 L38.8753117,15.6034913 Z" id="Shape" fill="#FFFFFF"></path>
            <path d="M34.7081354,11.6561295 L237.027638,11.6561295 L237.027638,61.5505571 L34.7081354,61.5505571 L34.7081354,11.6561295 Z M11,215.706347 L34.2066675,196.093742 L238.764866,196.093742 L261.060649,215.706347 L261.060649,250.894428 L194.69756,250.894428 L194.69756,201 L169.542758,201 L169.542758,250.894428 L102.575628,250.894428 L102.575628,201 L76.6132676,201 L76.6132676,250.894428 L11,250.894428 L11,215.706347 Z" id="alpha" fill-opacity="0.15" fill="#000000"></path>
        </g>
    </g>
</svg>