<?xml version="1.0" encoding="UTF-8"?>
<svg width="512px" height="512px" viewBox="0 0 512 512" version="1.1" xmlns="http://www.w3.org/2000/svg" xmlns:xlink="http://www.w3.org/1999/xlink">
    <!-- Generator: Sketch 53.2 (72643) - https://sketchapp.com -->
    <title>ic_items_wing_base</title>
    <desc>Created with Sketch.</desc>
    <g id="ic_items_wing_base" stroke="none" stroke-width="1" fill="none" fill-rule="evenodd">
        <g id="Group" transform="translate(71.000000, 56.000000)" fill-rule="nonzero">
            <path d="M9.54150826,399.352522 L9.54150826,343.327651 L17.4437665,343.327651 C7.05365105,338.637854 0.815068945,329.097201 0.815068945,317.100867 C0.815068945,299.816781 16.1809334,278.581978 33.3291118,278.581978 L129.70689,278.581978 C138.333728,279.358035 144.917432,281.260839 150.331101,284.980761 C157.606067,289.979646 161.738339,297.754468 161.738339,306.586843 L161.738339,342.518029 L202.289856,342.518029 L202.289856,308.319839 C201.400285,306.721255 199.883798,304.578144 197.861442,302.166556 C192.795935,296.12612 185.579029,289.550894 177.096453,283.560193 C155.375145,268.219823 129.156381,258.943968 101.033827,258.943968 L36.1936161,258.943968 C26.5607426,258.943968 18.7517556,251.134981 18.7517556,241.502108 C18.7517556,195.52632 33.1601645,155.268813 60.0862734,121.121369 C83.4362435,91.5091502 115.628632,67.180329 154.615777,47.8786485 C187.406068,31.6448948 224.200806,19.3978743 261.938881,11.2542011 C293.402741,4.46446969 324.21042,0.896243941 347.281783,0.896243941 C364.147661,0.896243941 371.192894,22.4533327 357.582207,32.4136063 C318.637914,60.9129633 299.979834,86.0289556 299.593914,106.337603 C299.584537,106.831045 299.721903,107.649317 300.082333,108.739662 C300.569632,110.213799 301.382637,111.912785 302.51451,113.741657 C305.110695,117.936553 309.085788,122.348097 313.98712,126.33406 C324.977547,135.271925 338.710112,140.694615 351.628308,140.694615 C366.464304,140.694615 374.526255,158.040005 364.961524,169.3812 C325.301233,216.407628 303.9541,258.25612 300.199073,294.623869 C314.786829,304.778684 324.517566,326.452865 324.517566,348.190243 C324.517566,359.378085 323.254755,369.304157 320.456076,377.244213 C318.571761,382.590153 315.960105,387.19158 312.289484,390.89947 C307.379167,395.859644 300.948407,398.725449 293.819205,398.725449 L9.54150826,399.352522 Z" id="background" fill="#000000"></path>
            <path d="M187.813467,381.910661 L26.9833687,381.910661 L26.9833687,360.769511 L107.398418,360.769511 C94.0705589,331.657081 83.0627523,317.100867 74.3749979,317.100867 C65.6872435,317.100867 59.0579866,322.433861 54.4872271,333.099849 C51.4482952,322.433861 47.5944412,317.100867 42.9256651,317.100867 C38.2568891,317.100867 32.9427903,320.825799 26.9833687,328.275665 C21.1657425,326.669922 18.2569294,322.94499 18.2569294,317.100867 C18.2569294,308.334682 27.3447783,296.023838 33.3291118,296.023838 L128.923949,296.023838 C139.172302,296.945764 144.296479,300.466766 144.296479,306.586843 L144.296479,359.959889 L187.813467,359.959889 L187.813467,381.910661 Z M299.468543,319.595758 C303.981949,327.252584 307.075705,337.437924 307.075705,348.190243 C307.075705,366.081177 303.309112,381.283588 293.819205,381.283588 L229.972674,381.283588 C222.782575,381.283588 219.731716,378.776285 219.731716,371.203744 L219.731716,306.104993 C219.731716,294.130532 172.435085,241.502108 101.033827,241.502108 L36.1936161,241.502108 C36.1936161,64.4078928 268.926332,18.3381044 347.281783,18.3381044 C343.418492,21.1652527 339.727054,23.9747724 336.207468,26.7666637 C280.338675,28.8116296 214.876156,51.3847374 160.50432,86.1953916 C101.908045,123.710672 65.0191922,169.596417 65.0191922,210.59416 C65.0191922,215.504491 68.0980705,219.102976 72.9622987,220.856479 C76.5473463,222.148851 81.3321345,222.584575 87.489962,222.315796 C98.8915603,221.818135 115.621435,218.834178 137.83362,213.376261 C180.611924,202.864894 244.045303,183.082706 328.199907,154.017351 C335.623716,156.613895 343.54039,158.136475 351.628308,158.136475 C349.831477,160.267032 348.069501,162.389169 346.34238,164.502885 C345.923007,164.550053 345.502298,164.643905 345.086767,164.787609 L142.060067,235.000661 L157.229541,240.652498 C206.378733,258.964487 230.824656,275.585174 230.824656,287.81423 L230.824656,351.631321 C230.824656,358.324679 234.937246,363.30248 241.766457,366.140503 C247.174398,368.387888 254.489237,369.435083 263.480825,369.435083 C280.834502,369.435083 288.94675,362.312027 288.94675,349.644031 C288.94675,338.362461 277.414702,332.047773 263.480825,332.047773 C260.269867,332.047773 257.666872,334.650768 257.666872,337.861726 C257.666872,341.072684 260.269867,343.67568 263.480825,343.67568 C271.846595,343.67568 277.318843,346.672159 277.318843,349.644031 C277.318843,352.426257 276.752534,354.056843 275.532862,355.12779 C273.677868,356.756589 269.850293,357.807176 263.480825,357.807176 C249.219883,357.807176 242.452563,354.994872 242.452563,351.631321 L242.452563,322.574704 L242.660998,322.779202 C250.236417,315.057914 258.42178,311.329875 267.474621,311.329875 C282.655267,311.329875 293.21358,313.543016 299.468543,319.595758 L299.468543,319.595758 Z M282.279228,300.532212 C277.830219,299.939664 272.966849,299.701968 267.474621,299.701968 C258.465355,299.701968 250.091008,302.416101 242.452563,307.740376 L242.452563,287.81423 C242.452563,270.210375 220.282695,253.44377 176.132957,235.520798 L333.323957,181.15918 C300.890909,224.67512 283.875999,264.46613 282.279228,300.532212 L282.279228,300.532212 Z M321.289226,39.4304057 C295.59693,62.9197286 282.552255,85.1116667 282.155202,106.00622 C281.909815,118.919428 294.619481,135.907779 313.081132,146.924004 C234.852529,173.758672 175.49264,192.148998 135.058977,202.084247 C113.529061,207.374519 97.4523586,210.241975 86.9829059,210.698949 C82.2052079,210.907488 78.788352,210.596335 76.6523454,209.819721 C77.6083729,139.140191 209.04793,50.6497942 321.289226,39.4304057 L321.289226,39.4304057 Z" id="foreground" fill="#FFFFFF"></path>
            <path d="M187.813467,381.910661 L26.9833687,381.910661 L26.9833687,360.769511 L107.398418,360.769511 C94.0705589,331.657081 83.0627523,317.100867 74.3749979,317.100867 C65.6872435,317.100867 59.0579866,322.433861 54.4872271,333.099849 C51.4482952,322.433861 47.5944412,317.100867 42.9256651,317.100867 C38.2568891,317.100867 32.9427903,320.825799 26.9833687,328.275665 C21.1657425,326.669922 18.2569294,322.94499 18.2569294,317.100867 C18.2569294,308.334682 27.3447783,296.023838 33.3291118,296.023838 L128.923949,296.023838 C139.172302,296.945764 144.296479,300.466766 144.296479,306.586843 L144.296479,359.959889 L187.813467,359.959889 L187.813467,381.910661 Z M299.468543,319.595758 C303.981949,327.252584 307.075705,337.437924 307.075705,348.190243 C307.075705,366.081177 303.309112,381.283588 293.819205,381.283588 L229.972674,381.283588 C222.782575,381.283588 219.731716,378.776285 219.731716,371.203744 L219.731716,306.104993 C219.731716,294.130532 172.435085,241.502108 101.033827,241.502108 L36.1936161,241.502108 C36.1936161,64.4078928 268.926332,18.3381044 347.281783,18.3381044 C343.418492,21.1652527 339.727054,23.9747724 336.207468,26.7666637 C280.338675,28.8116296 214.876156,51.3847374 160.50432,86.1953916 C101.908045,123.710672 65.0191922,169.596417 65.0191922,210.59416 C65.0191922,215.504491 68.0980705,219.102976 72.9622987,220.856479 C76.5473463,222.148851 81.3321345,222.584575 87.489962,222.315796 C98.8915603,221.818135 115.621435,218.834178 137.83362,213.376261 C180.611924,202.864894 244.045303,183.082706 328.199907,154.017351 C335.623716,156.613895 343.54039,158.136475 351.628308,158.136475 C349.831477,160.267032 348.069501,162.389169 346.34238,164.502885 C345.923007,164.550053 345.502298,164.643905 345.086767,164.787609 L142.060067,235.000661 L157.229541,240.652498 C206.378733,258.964487 230.824656,275.585174 230.824656,287.81423 L230.824656,351.631321 C230.824656,358.324679 234.937246,363.30248 241.766457,366.140503 C247.174398,368.387888 254.489237,369.435083 263.480825,369.435083 C280.834502,369.435083 288.94675,362.312027 288.94675,349.644031 C288.94675,338.362461 277.414702,332.047773 263.480825,332.047773 C260.269867,332.047773 257.666872,334.650768 257.666872,337.861726 C257.666872,341.072684 260.269867,343.67568 263.480825,343.67568 C271.846595,343.67568 277.318843,346.672159 277.318843,349.644031 C277.318843,352.426257 276.752534,354.056843 275.532862,355.12779 C273.677868,356.756589 269.850293,357.807176 263.480825,357.807176 C249.219883,357.807176 242.452563,354.994872 242.452563,351.631321 L242.452563,322.574704 L242.660998,322.779202 C250.236417,315.057914 258.42178,311.329875 267.474621,311.329875 C282.655267,311.329875 293.21358,313.543016 299.468543,319.595758 Z" id="alpha" fill-opacity="0.15" fill="#000000"></path>
        </g>
    </g>
</svg>