<?xml version="1.0" encoding="UTF-8"?>
<svg width="512px" height="512px" viewBox="0 0 512 512" version="1.1" xmlns="http://www.w3.org/2000/svg" xmlns:xlink="http://www.w3.org/1999/xlink">
    <!-- Generator: Sketch 53.2 (72643) - https://sketchapp.com -->
    <title>ic_items_charm_ore_base</title>
    <desc>Created with Sketch.</desc>
    <g id="ic_items_charm_ore_base" stroke="none" stroke-width="1" fill="none" fill-rule="evenodd">
        <g id="charm-ore" transform="translate(68.000000, 56.000000)" fill-rule="nonzero">
            <path d="M91.414209,154.110096 C111.374281,122.890239 144.882876,104.476256 191.931957,104.476256 C239.199032,104.476256 274.137204,122.437171 296.086931,153.446988 C308.137896,170.472177 315.484789,190.608611 318.352417,209.568932 C329.686663,211.61334 339.910736,215.608772 348.380694,221.307647 C362.067979,230.516917 370.686903,243.934526 370.686903,258.624869 L370.686903,385.874372 L272.312054,385.874372 L272.312054,399.454342 L72.4232044,399.454342 L72.4232044,378.503831 L15.3856487,378.503831 L15.3856487,276.845082 C15.3856487,262.042377 21.1604199,243.612229 31.4815293,229.067931 C41.9035456,214.381438 56.3010685,204.122668 73.9419734,200.013003 C76.4300881,185.132951 82.0563512,168.746865 91.414209,154.110096 Z M147.233931,23.0635645 C139.463455,14.801175 145.32154,1.25011138 156.663823,1.25011138 L222.108332,1.25011138 C233.641081,1.25011138 239.416703,15.1936961 231.261818,23.348581 L197.535593,57.0748057 C192.370269,62.2401297 183.956704,62.1110893 178.952215,56.7897892 L147.233931,23.0635645 Z M61.9889367,98.0088195 L14.2037183,98.0088195 C2.67096947,98.0088195 -3.10465244,84.0652347 5.0502325,75.9103498 L52.8354508,28.1251315 C60.9903358,19.9702465 74.9339205,25.7458684 74.9339205,37.2786173 L74.9339205,85.0638356 C74.9339205,92.2131528 69.1382538,98.0088195 61.9889367,98.0088195 Z M301.618123,85.3256714 L301.618123,37.5404531 C301.618123,26.0077042 315.561708,20.2320823 323.716593,28.3869672 L371.501811,76.1721856 C379.656696,84.3270705 373.881074,98.2706552 362.348325,98.2706552 L314.563107,98.2706552 C307.41379,98.2706552 301.618123,92.4749886 301.618123,85.3256714 Z" id="background" fill="#000000"></path>
            <path d="M351.168501,256.758718 L253.115442,352.091963 L253.115442,292.39964 C270.185476,284.094612 289.461169,262.746332 311.682709,228.358649 L311.307626,228.116268 C334.988512,231.232724 349.817892,244.207499 351.168501,256.758718 Z M351.269427,271.104476 L351.269427,366.456896 L253.196645,366.456896 L351.269427,271.104476 Z M208.364915,380.036866 L97.2314027,380.036866 L97.2314027,291.23669 C97.2314027,283.878724 99.9686053,276.425678 104.56857,269.635646 L208.364915,380.036866 Z M222.579151,380.036866 L111.201856,261.572297 C122.044554,250.527171 137.790001,242.679224 153.268746,242.510097 C174.732035,245.085325 204.54364,261.934486 240.170458,293.321622 L240.170458,380.036866 L222.579151,380.036866 Z M84.2864188,359.086355 L34.8031244,359.086355 L34.8031244,276.845082 C34.8031244,260.604262 46.2107074,226.109929 78.9156901,218.806868 L78.9156901,242.593872 L85.4741663,242.506738 C94.2296582,242.390414 103.855187,242.303473 114.350448,242.245926 C96.8511671,253.967648 84.2864188,272.37476 84.2864188,291.23669 L84.2864188,359.086355 Z M300.160655,222.335522 C278.585255,255.553981 260.306054,275.229557 246.16179,281.366611 C206.228773,246.707091 172.844934,229.216462 147.661454,229.216462 C126.444242,229.216462 107.844515,229.305294 91.8606739,229.483031 L91.8606739,216.034218 C92.3735052,197.196512 103.342795,123.893732 191.931957,123.893732 C278.024815,123.893732 298.241525,190.371865 300.160656,222.335537 L300.160655,222.335522 Z M156.663823,14.1950952 L222.108332,14.1950952 L188.382107,47.9213199 L156.663823,14.1950952 Z M61.9889367,85.0638356 L14.2037183,85.0638356 L61.9889367,37.2786173 L61.9889367,85.0638356 Z M314.563107,85.3256714 L314.563107,37.5404531 L362.348325,85.3256714 L314.563107,85.3256714 Z" id="foreground" fill="#FFFFFF"></path>
            <g id="alpha" transform="translate(33.656958, 122.977346)" fill="#000000">
                <path d="M266.503697,99.3581754 C244.928297,132.576635 226.649097,152.252211 212.504832,158.389265 C172.571815,123.729745 139.187976,106.239116 114.004497,106.239116 C92.7872842,106.239116 74.1875574,106.327948 58.2037159,106.505685 L58.2037159,93.0568716 C58.7165473,74.2191655 69.6858371,0.916385389 158.274999,0.916385389 C244.367857,0.916385389 264.584567,67.394519 266.503698,99.3581908 L266.503697,99.3581754 Z M126.67572,28.4286773 C126.67572,44.9355724 113.740813,57.795533 98.1065055,57.795533 C113.831819,57.795533 126.67572,70.1576369 126.67572,85.4368932 C126.67572,70.2593496 138.770159,57.795533 155.314527,57.795533 C138.80897,57.795533 126.67572,45.5123903 126.67572,28.4286773 Z" id="Path" fill-opacity="0.1"></path>
                <path d="M317.511543,133.781371 L219.458484,229.114617 L219.458484,169.422293 C236.528518,161.117266 255.804211,139.768986 278.025751,105.381303 L277.650668,105.138922 C301.331555,108.255378 316.160934,121.230152 317.511543,133.781371 Z M317.612469,148.127129 L317.612469,243.47955 L219.539687,243.47955 L317.612469,148.127129 Z M174.707957,257.05952 L63.5744447,257.05952 L63.5744447,168.259344 C63.5744447,160.901378 66.3116473,153.448332 70.9116121,146.6583 L174.707957,257.05952 Z M188.922193,257.05952 L77.5448977,138.59495 C88.3875966,127.549825 104.133043,119.701878 119.611788,119.53275 C141.075077,122.107979 170.886682,138.957139 206.5135,170.344275 L206.5135,257.05952 L188.922193,257.05952 Z M50.6294609,236.109009 L1.14616646,236.109009 L1.14616646,153.867736 C1.14616646,137.626916 12.5537495,103.132583 45.2587321,95.8295215 L45.2587321,119.616526 L51.8172084,119.529391 C60.5727002,119.413068 70.1982294,119.326126 80.6934898,119.26858 C63.1942092,130.990302 50.6294609,149.397414 50.6294609,168.259344 L50.6294609,236.109009 Z" id="Path" fill-opacity="0.2"></path>
            </g>
        </g>
    </g>
</svg>