<?xml version="1.0" encoding="UTF-8"?>
<svg width="512px" height="512px" viewBox="0 0 512 512" version="1.1" xmlns="http://www.w3.org/2000/svg" xmlns:xlink="http://www.w3.org/1999/xlink">
    <!-- Generator: Sketch 53.2 (72643) - https://sketchapp.com -->
    <title>ic_items_knife_base</title>
    <desc>Created with Sketch.</desc>
    <g id="ic_items_knife_base" stroke="none" stroke-width="1" fill="none" fill-rule="evenodd">
        <g id="knife_base" transform="translate(57.000000, 81.000000)" fill-rule="nonzero">
            <path d="M160,148 L160,59.1144165 L160.581521,57.7248284 C161.431745,55.694508 181.95843,8 230.480333,8 L238,8 L238,148 L160,148 Z M198.459809,243.999899 C177.279167,244.025812 160.074224,227.06983 160,206.096614 C160,192.515665 168.289402,180.990264 177.525302,174.434596 L177.525302,148 L219.097907,148 L219.097907,174.252522 C228.527729,180.842018 237,192.440049 237,206.096614 C236.903653,227.091811 219.662699,244.047845 198.459809,243.999899 L198.459809,243.999899 Z M199.00107,201 C196.978697,200.999597 195.155237,202.217534 194.381029,204.085847 C193.606821,205.95416 194.034348,208.104881 195.464238,209.535057 C196.894129,210.965232 199.044765,211.393188 200.913232,210.619352 C202.781699,209.845517 204,208.022299 204,205.999927 C203.997253,203.239682 201.760318,201.002747 199.000073,201 L199.00107,201 Z M310,342 L310,272 L380,342 L310,342 Z M17,342 L86,272 L86,342 L17,342 Z M149,342 L198.5,292 L248,342 L149,342 Z" id="Shape" fill="#FFFFFF"></path>
            <path d="M230.44693,0 C208.195216,0 187.860189,9.6990839 171.640608,27.6836362 C164.421607,35.6507762 158.550626,44.7518644 154.260847,54.6254247 L153.302005,57.5017117 L153.302005,155.177333 L170.2462,155.177333 L170.2462,170.82021 C167.256048,173.827646 163.575171,177.36569 160.958788,181.218092 C155.841663,188.597388 153.067174,197.359177 153,206.351814 C153.089001,231.60523 173.507754,252.023318 198.649654,251.99998 C223.851652,251.99998 244.588356,231.522579 244.588356,206.351814 C244.588356,191.508852 236.029544,178.750272 227.059088,170.631994 L227.059088,155.177333 L245,155.177333 L245,0 L230.44693,0 Z M230,206.296139 C230,223.25369 215.905448,236.999963 198.97696,236.999963 C181.985676,237.026026 168.154612,223.316916 168,206.296139 C168,193.938743 176.308473,183.357585 185.324178,178.487482 L185.324178,155 L212.371292,155 L212.371292,178.33595 C220.385252,183.14283 230,193.825345 230,206.296139 L230,206.296139 Z M230,140 L168,140 L168,60.1995763 C168,60.1995763 186,15 230,15 L230,140 Z" id="Shape" fill="#000000"></path>
            <circle id="Oval" fill="#000000" cx="198.5" cy="206.5" r="12.5"></circle>
            <path d="M318,290 L363,335 L318,335 L318,290 L318,290 Z M303,254 L303,350 L399,350 L373.288003,324.287327 L328.623895,279.623351 L303,254 L303,254 Z" id="Shape" fill="#000000"></path>
            <path d="M80,290.000989 L80,334 L36,334 L80,290 L80,290.000989 Z M95,253 L69.2905712,278.980528 L25.2667672,323.468308 L0,349 L94.9989985,349 L94.9989985,253 L95,253 Z" id="Shape" fill="#000000"></path>
            <path d="M198.5,303.001017 L230,335 L167,335 L198.5,303 L198.5,303.001017 Z M198.5,282 L187.921523,292.656836 L156.537144,324.273692 L131,350 L266,350 L240.462856,324.273692 L209.07748,292.655832 L198.5,282.002009 L198.5,282 Z" id="Shape" fill="#000000"></path>
        </g>
    </g>
</svg>