<?xml version="1.0" encoding="UTF-8"?>
<svg width="512px" height="512px" viewBox="0 0 512 512" version="1.1" xmlns="http://www.w3.org/2000/svg" xmlns:xlink="http://www.w3.org/1999/xlink">
    <!-- Generator: Sketch 53.2 (72643) - https://sketchapp.com -->
    <title>ic_items_bottle_base</title>
    <desc>Created with Sketch.</desc>
    <g id="ic_items_bottle_base" stroke="none" stroke-width="1" fill="none" fill-rule="evenodd">
        <g id="Group" transform="translate(144.000000, 56.000000)" fill-rule="nonzero">
            <path d="M75.4742942,33.1810273 L75.4742942,0.648152496 L148.951455,0.648152496 L148.951455,33.1810273 L223.675973,33.1810273 L223.675973,79.2191542 L208.392755,79.2191542 C202.866884,79.2191542 199.716108,79.7163084 197.261704,80.4393263 L196.342164,117.543683 C197.27056,118.226275 198.779848,119.145616 201.408627,120.628813 C201.543155,120.704715 202.094783,121.015698 202.235956,121.09535 C208.280278,124.505648 211.353096,126.507879 214.76706,129.821933 C220.388803,135.279155 223.675973,142.159741 223.675973,150.295255 L223.675973,360.762174 C223.675973,382.18531 204.337102,399.454836 181.058947,399.454836 L43.3668022,399.454836 C19.1182571,399.454836 0.428457444,383.157304 0.428457444,360.762174 L0.428457444,150.295255 C0.428457444,143.089127 3.43466956,136.993265 8.44168001,132.179538 C11.4195883,129.316584 14.406835,127.362137 19.3173627,124.623734 C19.8051354,124.351723 21.6601141,123.326712 22.0956006,123.083859 C25.48696,121.192635 27.1888523,120.048801 28.0821984,119.128981 C28.0825071,119.128663 28.0829693,106.244889 28.0835851,80.4776572 C25.5683264,79.7301263 21.3882365,79.2191542 15.7116746,79.2191542 L0.428457444,79.2191542 L0.428457444,33.1810273 L75.4742942,33.1810273 Z" id="background" fill="#000000"></path>
            <path d="M70.876593,48.4642445 L70.876593,119.45096 C70.876593,131.029548 66.4011524,141.096176 58.7799707,148.943211 C54.2330908,153.624837 49.8858617,156.569222 43.2214654,160.299754 L43.2214654,356.661828 C43.253345,356.661651 49.2937681,356.661651 180.882965,356.661828 L180.882965,158.18224 C173.733572,154.148603 170.29054,151.92247 166.072656,147.914006 C158.317545,140.54394 153.549156,130.882477 153.549156,119.45096 L153.549156,48.4642445 L208.392755,48.4642445 L208.392755,63.9359371 C190.170216,63.9359371 181.058947,68.5413433 181.058947,77.7521556 L181.058947,119.45096 C181.058947,134.25038 208.392755,134.25038 208.392755,150.295255 L208.392755,360.762174 C208.392755,372.835227 196.817258,384.171619 181.058947,384.171619 L43.3668022,384.171619 C26.7242334,384.171619 15.7116746,373.862785 15.7116746,360.762174 L15.7116746,150.295255 C15.7116746,136.951437 43.3668022,136.951437 43.3668022,119.45096 L43.3668022,77.7521556 C43.3668022,68.5413433 34.1484263,63.9359371 15.7116746,63.9359371 L15.7116746,48.4642445 L70.876593,48.4642445 Z M89.2673976,97.4712644 L135.158352,97.4712644 L135.158352,119.45096 C135.158352,135.638333 141.748966,150.169074 153.40355,161.245002 C156.408538,164.10079 159.09147,166.280528 162.49216,168.557314 L162.49216,338.270999 C99.3190242,338.270914 77.4648264,338.27089 62.7182212,338.27089 C62.3427538,338.27089 61.9741403,338.27089 61.61227,338.270999 L61.61227,170.562022 C65.4444899,167.90188 68.6723971,165.154342 71.9727038,161.756231 C83.1039621,150.295099 89.2673976,135.582471 89.2673976,119.45096 L89.2673976,97.4712644 Z M89.2673976,62.5287356 L135.158352,62.5287356 L135.158352,14.4412559 L89.2673976,14.4412559 L89.2673976,62.5287356 Z" id="foreground" fill="#FFFFFF"></path>
            <path d="M89.2673976,97.4712644 L135.158352,97.4712644 L135.158352,119.45096 C135.158352,135.638333 141.748966,150.169074 153.40355,161.245002 C156.408538,164.10079 159.09147,166.280528 162.49216,168.557314 L162.49216,338.270999 C99.3190242,338.270914 77.4648264,338.27089 62.7182212,338.27089 C62.3427538,338.27089 61.9741403,338.27089 61.61227,338.270999 L61.61227,170.562022 C65.4444899,167.90188 68.6723971,165.154342 71.9727038,161.756231 C83.1039621,150.295099 89.2673976,135.582471 89.2673976,119.45096 L89.2673976,97.4712644 Z" id="Path" fill-opacity="0.1" fill="#000000"></path>
        </g>
    </g>
</svg>