<?xml version="1.0" encoding="UTF-8"?>
<svg width="512px" height="512px" viewBox="0 0 512 512" version="1.1" xmlns="http://www.w3.org/2000/svg" xmlns:xlink="http://www.w3.org/1999/xlink">
    <!-- Generator: Sketch 53.2 (72643) - https://sketchapp.com -->
    <title>ic_items_feystone_base</title>
    <desc>Created with Sketch.</desc>
    <g id="ic_items_feystone_base" stroke="none" stroke-width="1" fill="none" fill-rule="evenodd">
        <g id="Group-2" transform="translate(56.000000, 56.000000)">
            <path d="M90.5080371,96.3290793 L304.052574,96.3290793 L385.28646,169.915075 L385.28646,247.564806 L238.136167,397.52209 L159.203803,397.480923 L13.8868698,247.254888 L13.8868698,170.360952 L90.5080371,96.3290793 Z M0.0220649665,0 L119.818403,0 L120,30.5686975 L59.7257741,84 L0,31.0548837 L0.0220649665,0 Z M140.022065,0 L259.818403,0 L260,30.5686975 L199.725774,84 L140,31.0548837 L140.022065,0 Z M280.022065,0 L399.818403,0 L400,30.5686975 L339.725774,84 L280,31.0548837 L280.022065,0 Z" id="background" fill="#000000" fill-rule="nonzero"></path>
            <path d="M199.985948,119.620622 L270.740863,202.543276 L128.599022,202.543276 L199.353937,119.620622 L199.985948,119.620622 Z M221.018856,119.620622 L278.406445,119.620622 L278.406445,186.877168 L221.018856,119.620622 Z M178.321029,119.620622 L120,187.971132 L120,119.620622 L178.321029,119.620622 Z M294.406445,119.620622 L295.229723,119.620622 L362.231013,180.313971 L362.231013,202.543276 L294.406445,202.543276 L294.406445,119.620622 Z M212.750824,374.21582 L187.27922,374.203582 L123.902854,218.543276 L276.132172,218.543276 L212.750824,374.21582 Z M230.022758,374.224119 L293.407485,218.543276 L362.231013,218.543276 L362.231013,237.763977 L232.56037,374.225338 L230.022758,374.224119 Z M104,119.620622 L104,202.543276 L36.9423166,202.543276 L36.9423166,180.313971 L102.780408,119.620622 L104,119.620622 Z M170.000527,374.195281 L168.9148,374.194759 L36.9423166,237.763977 L36.9423166,218.543276 L106.627541,218.543276 L170.000527,374.195281 Z M16.382487,18.7446851 L104.356116,18.7446851 L60.3693017,57.6605199 L16.382487,18.7446851 Z M155.472264,18.5882353 L244.570876,18.5882353 L200.02157,57.50407 L155.472264,18.5882353 Z M295.472264,18.5882353 L384.570876,18.5882353 L340.02157,57.50407 L295.472264,18.5882353 Z" id="foreground" fill="#FFFFFF"></path>
            <polygon id="Path" fill-opacity="0.1" fill="#000000" points="28.06768 212.476424 28.06768 243.356239 164.947844 384.724748 234.610552 384.724748 373.239376 243.356239 373.239376 212.476424"></polygon>
            <polygon id="alpha" fill-opacity="0.14846" fill="#000000" points="27.1305135 214.199949 27.1305135 245.018722 166.581602 387.338761 235.921149 387.338761 372.73309 245.018722 372.73309 214.199949 288.032631 214.199949 219.25323 378.265122 179.640891 378.265122 113.353419 214.199949"></polygon>
            <polygon id="Path-37" fill-opacity="0.3" fill="#000000" points="113.902793 112.005716 113.902793 203.966522 200 112.005716 285.016463 203.966522 285.016463 112.005716"></polygon>
        </g>
    </g>
</svg>