<?xml version="1.0" encoding="UTF-8"?>
<svg width="512px" height="512px" viewBox="0 0 512 512" version="1.1" xmlns="http://www.w3.org/2000/svg" xmlns:xlink="http://www.w3.org/1999/xlink">
    <!-- Generator: Sketch 53.2 (72643) - https://sketchapp.com -->
    <title>ic_items_trap_base</title>
    <desc>Created with Sketch.</desc>
    <g id="ic_items_trap_base" stroke="none" stroke-width="1" fill="none" fill-rule="evenodd">
        <g id="Group" transform="translate(56.000000, 62.000000)" fill-rule="nonzero">
            <path d="M127.592883,311.452675 L127.592883,286.996618 L69.51373,226.391408 L69.51373,256.347189 L124.172657,311.452675 L127.592883,311.452675 L127.592883,311.452675 Z M196.702015,311.452675 L216.559918,311.452675 L206.388464,300.803659 L196.702015,311.452675 L196.702015,311.452675 Z M295.052738,293.553294 L332.201544,256.315395 L332.201544,227.826848 L291.314715,270.437198 L295.052738,270.437198 L295.052738,293.553294 L295.052738,293.553294 Z M348.498674,109.349337 L398.996258,109.349337 L398.996258,387.771306 L0.556581347,387.771306 L0.556581347,109.349337 L39.1338093,109.349337 L39.1338093,22.6222871 L72.5646931,22.6222871 L72.5646931,0.181020582 L196.643065,0.181020582 L196.643065,109.855101 L243.285918,109.855101 C240.907302,108.624846 238.600469,107.134805 236.369436,105.351267 C225.059985,96.3102361 219.264568,81.925446 219.264568,63.1323725 C219.264568,47.6841587 225.314663,34.4591317 237.001293,25.1177695 C247.301223,16.8848246 261.245964,12.1837683 278.704637,10.3327937 L279.699604,10.227307 L280.700147,10.227307 C309.519773,10.227307 331.116717,22.6484757 341.950536,46.6789352 L343.031899,49.0775041 L343.418066,51.680071 C346.165951,70.199401 347.858279,89.422538 348.498674,109.349337 Z" id="background" fill="#000000"></path>
            <path d="M50.5862852,128.276782 L50.5862852,264.142124 L116.287507,330.38012 L285.049469,330.38012 L351.128989,264.142124 L351.128989,128.276782 L380.068813,128.276782 L380.068813,368.843861 L19.4840261,368.843861 L19.4840261,128.276782 L50.5862852,128.276782 Z M69.7166281,310.822236 L36.1144449,310.822236 L69.7166281,343.768211 L69.7166281,310.822236 Z M329.337539,310.410095 L329.337539,343.356069 L362.939723,310.410095 L329.337539,310.410095 Z M146.520328,301.40484 L146.520328,289.364643 L164.655783,289.364643 L180.255317,269.613672 L137.150012,269.613672 L72.6678079,202.326921 L72.6678079,136.722356 L58.0612541,117.229765 L58.0612541,41.5497319 L79.7946005,41.5497319 L79.7946005,95.8989615 C79.7946005,107.858251 94.4626263,112.633242 102.428215,112.633242 C110.393804,112.633242 115.936204,95.8989615 115.936204,78.6134159 C115.936204,67.0897188 107.788182,56.8688327 91.4921379,47.9507576 L91.4921379,19.1084654 L177.71562,19.1084654 L177.71562,117.229765 C171.433573,117.229765 155.89304,138.158026 155.89304,154.495712 C155.89304,165.387503 164.013799,176.139195 180.255317,186.750789 L210.176832,186.750789 C192.724056,172.436793 183.997668,161.685101 183.997668,154.495712 C183.997668,147.306323 190.051471,138.735267 202.159078,128.782546 L270.564204,128.782546 C245.61261,153.114046 233.136814,167.855441 233.136814,173.006733 C233.136814,178.158024 236.594726,182.739376 243.51055,186.750789 L265.873245,186.750789 L300.354355,149.845648 C305.8062,133.556214 308.532122,117.518618 308.532122,101.732858 C308.532122,49.031476 291.505023,45.4270983 281.961977,45.4270983 C272.418931,45.4270983 257.441572,50.6726086 257.441572,63.7351952 C257.441572,72.4435863 262.757268,78.8538022 273.388658,82.9658429 C282.446393,82.5878841 286.97526,84.6489142 286.97526,89.1489331 C286.97526,95.8989615 276.125294,95.8989615 265.873245,95.8989615 C255.621197,95.8989615 238.192013,92.6032661 238.192013,63.1323725 C238.192013,43.4851102 252.361391,32.1592366 280.700147,29.1547518 C302.425327,29.1547518 317.090478,37.5892004 324.6956,54.4580975 C331.586398,100.898521 331.586398,152.183073 324.6956,208.311752 L265.873245,269.613672 L248.364822,269.613672 L248.364822,289.364643 L276.125294,289.364643 L276.125294,301.40484 L233.136814,301.40484 L221.636568,289.364643 L221.636568,277.324447 L202.159078,277.324447 L180.255317,301.40484 L146.520328,301.40484 Z M135.289594,84.5237037 L135.289594,105.123725 L155.816421,105.123725 L155.816421,84.5237037 L135.289594,84.5237037 Z" id="foreground" fill="#FFFFFF"></path>
        </g>
    </g>
</svg>