<?xml version="1.0" encoding="UTF-8"?>
<svg width="512px" height="512px" viewBox="0 0 512 512" version="1.1" xmlns="http://www.w3.org/2000/svg" xmlns:xlink="http://www.w3.org/1999/xlink">
    <!-- Generator: Sketch 53.2 (72643) - https://sketchapp.com -->
    <title>ic_items_pellets_base</title>
    <desc>Created with Sketch.</desc>
    <g id="ic_items_pellets_base" stroke="none" stroke-width="1" fill="none" fill-rule="evenodd">
        <g id="items_pellets_base" transform="translate(56.000000, 60.000000)">
            <path d="M46.7978077,194.808316 L14.9625935,167.803266 L176.850205,46.4295806 L184.886849,12.6487541 C201.8073,4.77034177 212.905571,3.46471921 218.181661,8.73188648 C221.892663,12.4366122 237.014201,19.0251472 246.04516,39.0150497 C248.584322,44.6354488 253.66094,53.2591628 253.851804,70.9024097 L386.034913,167.815229 L353.294602,195.585193 L386.033916,218.688507 L200.49626,376.05985 L14.9625935,218.676544 L46.7978077,194.808316 Z" id="base" fill-opacity="0.65" fill="#FFFFFF"></path>
            <path d="M24.656325,194.197041 L5.89811203,178.290835 C4.29411275,176.531233 2.67016323,174.726768 1.85020837,172.511563 C0.599328336,169.134922 0.741972551,165.307662 2.16442465,162.078568 C3.45620268,159.145565 4.31107046,158.733828 6.55347741,156.552519 C78.0626494,102.951099 131.694528,62.7500338 167.449114,35.9493237 C171.113523,33.2025784 180.175804,73.387029 209.51026,106.915086 C212.579094,110.422635 219.977455,107.86599 231.705344,99.2451521 L253.042956,56.7832103 C284.395583,78.9018837 331.424524,112.079894 394.129779,156.317241 C396.210589,158.173547 396.95174,158.514501 398.316337,161.008849 C400.337296,164.703515 400.563731,169.345276 398.860978,173.245313 C397.723815,175.851318 397.015581,176.256077 395.108338,178.290835 L375.841394,194.628717 L394.129779,207.531138 C396.210589,209.386447 396.95174,209.728398 398.316337,212.222746 C400.328319,215.901461 400.555751,220.577118 398.860978,224.45921 C397.723815,227.065216 397.015581,227.469974 395.108338,229.503735 L209.51026,386.893928 C204.94365,389.925628 199.153093,391.197725 194.211418,388.695401 C193.242834,388.203909 192.402929,387.494086 191.498186,386.893928 L5.89811203,229.504732 C5.10010244,228.627423 4.18239141,227.845821 3.50109072,226.8748 C0.739977527,222.932892 0.269151867,217.598256 2.16442465,213.292465 C3.45620268,210.358465 4.31107046,209.946728 6.55347741,207.766416 L24.656325,194.197041 Z M170.219043,51.4012304 L14.9625935,167.803266 L200.49626,325.187032 L386.034913,167.815229 L250.104434,71.8933208 C241.459786,88.3012083 234.790875,98.5640123 230.097701,102.681733 C218.861737,112.539998 206.004208,111.1407 200.498753,109.728449 C191.54392,107.431367 181.450684,87.9889612 170.219043,51.4012304 Z M14.9625935,218.855153 L200.498255,376.05985 L386.034913,218.855153 C378.958699,213.863001 371.863776,208.897346 364.750294,203.958292 L209.500716,335.501753 C204.936663,338.529919 199.148085,339.801529 194.208099,337.301127 C193.239846,336.811203 192.400228,336.101213 191.495793,335.501753 L35.6957763,203.491272 C28.7562733,208.574841 21.8451057,213.695882 14.9625935,218.855153 Z" id="Shape" fill="#000000"></path>
            <path d="M112.219451,246.38404 C81.0931787,246.38404 55.8603491,221.15121 55.8603491,190.024938 C55.8603491,158.898665 81.0931787,133.665835 112.219451,133.665835 C143.345724,133.665835 168.578554,158.898665 168.578554,190.024938 C168.578554,221.15121 143.345724,246.38404 112.219451,246.38404 Z M108.38953,178.036537 C121.664694,186.650838 142.109724,178.036537 142.109724,178.036537 C154.969229,207.488148 130.869991,234.413965 130.869991,234.413965 C155.508489,220.489094 166.085361,175.826716 142.109724,155.485365 C123.429001,139.631651 103.814293,146.036132 99.9816596,153.117557 C93.0918911,165.892521 103.993714,175.183768 108.38953,178.036537 Z" id="Oval" fill="#000000"></path>
            <path d="M288.778055,246.38404 C257.651782,246.38404 232.418953,221.15121 232.418953,190.024938 C232.418953,158.898665 257.651782,133.665835 288.778055,133.665835 C319.904328,133.665835 345.137157,158.898665 345.137157,190.024938 C345.137157,221.15121 319.904328,246.38404 288.778055,246.38404 Z M284.948466,178.036537 L284.947469,178.036537 C298.22254,186.650838 318.668422,178.036537 318.668422,178.036537 C331.526841,207.488148 307.428769,234.413965 307.428769,234.413965 C332.067094,220.489094 342.64389,175.826716 318.668422,155.485365 C299.986835,139.631651 280.373261,146.036132 276.540655,153.117557 C269.649938,165.892521 280.552681,175.183768 284.948466,178.036537 Z" id="Oval" fill="#000000"></path>
            <path d="M200.997506,113.715711 C232.123779,113.715711 257.356608,88.4828812 257.356608,57.3566085 C257.356608,26.2303358 232.123779,0.997506234 200.997506,0.997506234 C169.871234,0.997506234 144.638404,26.2303358 144.638404,57.3566085 C144.638404,88.4828812 169.871234,113.715711 200.997506,113.715711 Z M196.169859,45.3673089 C191.77508,42.5155453 180.872361,33.2243154 187.762066,20.4493743 C191.595661,13.3679612 211.209191,6.96349208 229.890737,22.8161781 C253.866153,43.1574921 243.288383,87.8207901 218.650112,101.745636 C218.650112,101.745636 242.749128,74.8198677 229.890737,45.3673089 C229.890737,45.3673089 209.4449,53.9825948 196.169859,45.3673089 Z" id="Oval" fill="#000000"></path>
            <polygon id="alpha" fill-opacity="0.154353487" fill="#000000" points="7.78357871 219.465259 36.6925262 196.147257 200.364298 332.856608 363.384241 196.147257 392.855419 219.465259 200.364298 383.114631"></polygon>
        </g>
    </g>
</svg>