<?xml version="1.0" encoding="UTF-8"?>
<svg width="512px" height="512px" viewBox="0 0 512 512" version="1.1" xmlns="http://www.w3.org/2000/svg" xmlns:xlink="http://www.w3.org/1999/xlink">
    <!-- Generator: Sketch 53.2 (72643) - https://sketchapp.com -->
    <title>ic_items_bug_base</title>
    <desc>Created with Sketch.</desc>
    <g id="ic_items_bug_base" stroke="none" stroke-width="1" fill="none" fill-rule="evenodd">
        <g id="Group" transform="translate(56.000000, 63.000000)" fill-rule="nonzero">
            <path d="M108.016038,25.0446011 C110.227165,19.3580684 114.328613,14.3639151 120.037786,11.0994503 C152.84037,-7.65683428 183.836619,-0.74369472 202.853582,28.1360607 C221.870544,-0.74369472 252.866794,-7.65683428 285.669377,11.0994503 C291.160203,14.2390658 295.163928,18.9785963 297.429154,24.3952542 C302.105958,20.7557315 307.984767,18.588106 314.369852,18.588106 C319.548984,18.588106 324.395021,20.0142548 328.536676,22.4952647 L357.821886,4.42476906 C370.79756,-3.58189694 387.807107,0.446280081 395.813773,13.4219543 C403.820439,26.3976284 399.792262,43.4071759 386.816588,51.4138419 L377.430132,57.2057735 L377.430132,137.864893 L321.767377,194.23813 L300.240816,194.23813 L300.240816,194.478528 L349.90801,194.478528 L380.420026,227.625295 L380.420026,333.508746 L386.036709,339.88807 C396.112295,351.331732 395.003249,368.776529 383.559587,378.852114 C372.115925,388.9277 354.671128,387.818654 344.595543,376.374992 L325.205302,354.351918 L325.205302,249.693252 L300.240816,249.693252 L300.240816,296.370988 C300.240816,300.514243 298.842816,304.536298 296.273029,307.786337 L247.649491,369.281076 C244.158872,373.695702 238.840279,376.270635 233.212371,376.270635 L164.495138,376.270635 C158.395224,376.270635 152.691591,373.248375 149.266166,368.201058 L107.531998,306.706319 C105.462461,303.656883 104.356062,300.056372 104.356062,296.370988 L104.356062,247.517779 L79.5765249,247.517779 L79.5765249,352.176445 L60.1862844,374.199519 C50.1106992,385.643181 32.6659024,386.752227 21.2222403,376.676642 C9.77857817,366.601056 8.66953271,349.15626 18.7451179,337.712597 L24.361801,331.333273 L24.361801,225.449822 L54.8738172,192.303055 L76.5655599,192.303055 L23.1112454,138.166447 L23.1112454,57.5073269 L13.7247896,51.7153953 C0.749115439,43.7087293 -3.27906158,26.6991818 4.72760442,13.7235077 C12.7342704,0.747833491 29.7438179,-3.28034353 42.7194921,4.72632247 L74.5024774,24.3380778 C79.0695453,20.9933083 84.702914,19.0184049 90.797546,19.0184049 C97.3097052,19.0184049 103.295236,21.2731679 108.01604,25.0445947 L108.016038,25.0446011 Z M118.404908,58.0284208 L118.404908,95.7181849 L124.39902,101.305467 L125.614792,101.305467 L125.614792,96.3433744 C125.614792,91.85913 127.251919,87.5291461 130.218712,84.1666189 L155.055506,56.0168965 C155.000656,55.9589085 154.947858,55.9051547 154.897169,55.8555309 C154.670197,55.8975913 154.342609,55.9713817 153.901409,56.0964346 C152.250944,56.5642388 150.087213,57.521004 147.445125,59.0317312 C138.052956,64.4021066 126.833436,63.6482745 118.404908,58.0284208 L118.404908,58.0284208 Z M286.762496,58.3792618 C278.398853,63.6774839 267.455099,64.2882575 258.262039,59.0317312 C255.619606,57.5208068 253.455671,56.5639977 251.805161,56.0962663 C251.364222,55.9713104 251.036838,55.8975702 250.810012,55.8555275 C250.520233,56.1392087 250.161622,56.5577486 249.744972,57.1305112 L274.936863,83.6732813 C278.182712,87.0931834 279.992263,91.6283706 279.992263,96.3433744 L279.992263,100.875168 L280.768378,100.875168 L286.76249,95.287886 L286.76249,58.3792652 L286.762496,58.3792618 Z" id="background" fill="#000000"></path>
            <path d="M261.587355,160.736196 L144.0197,160.736196 L144.0197,147.239264 L261.587355,147.239264 L261.587355,160.736196 L261.587355,160.736196 Z M268.642444,176.687117 L281.835908,192.166118 L281.835908,296.370988 L233.212371,357.865727 L164.495138,357.865727 L122.76097,296.370988 L122.76097,192.166118 L136.612641,176.687117 L268.642444,176.687117 L268.642444,176.687117 Z M261.587355,131.288344 L144.0197,131.288344 L144.0197,96.3433744 L170.39774,66.4468224 L233.212371,66.4468224 L261.587355,96.3433744 L261.587355,131.288344 L261.587355,131.288344 Z M159.509202,82.208589 L159.509202,105.521472 L182.822086,105.521472 L182.822086,82.208589 L159.509202,82.208589 Z M219.631902,82.208589 L219.631902,105.521472 L242.944785,105.521472 L242.944785,82.208589 L219.631902,82.208589 Z M245.398773,203.680982 L245.398773,212.269939 L255.214724,212.269939 L255.214724,190.184049 L148.466258,190.184049 L148.466258,213.496933 L158.282209,213.496933 L158.282209,203.680982 L190.184049,203.680982 L190.184049,341.104294 L214.723926,341.104294 L214.723926,203.680982 L245.398773,203.680982 Z M292.097963,175.833222 L279.992263,161.630421 L279.992263,157.428315 L306.383333,157.428315 L340.620316,122.754328 L340.620316,36.6658031 L367.486787,20.0877933 C371.812011,17.4189047 377.48186,18.7616304 380.150749,23.0868551 C382.819638,27.4120798 381.476912,33.081929 377.151687,35.7508176 L359.025224,46.9357883 L359.025224,130.309611 L314.075355,175.833222 L292.097963,175.833222 Z M125.614792,158.05488 L125.614792,161.377222 L112.408722,176.134776 L86.4660227,176.134776 L41.5161534,130.611164 L41.5161534,47.2373417 L23.3896904,36.052371 C19.0644657,33.3834824 17.72174,27.7136332 20.3906287,23.3884085 C23.0595174,19.0631838 28.7293665,17.7204581 33.0545913,20.3893468 L59.9210614,36.9673565 L59.9210614,123.055882 L94.1580449,157.729868 L123.181937,157.729868 C124.0241,157.729868 124.83984,157.842994 125.614792,158.05488 Z M279.992263,137.684984 L279.992263,119.280076 L288.016066,119.280076 L305.167398,103.292831 L305.167398,46.195468 C305.167398,41.113093 309.287477,36.993014 314.369852,36.993014 C319.452227,36.993014 323.572306,41.113093 323.572306,46.195468 L323.572306,111.297776 L295.263753,137.684984 L279.992263,137.684984 Z M125.614792,119.710375 L125.614792,138.115283 L109.903645,138.115283 L81.595092,111.728075 L81.595092,46.6257669 C81.595092,41.5433919 85.715171,37.4233129 90.797546,37.4233129 C95.879921,37.4233129 100,41.5433919 100,46.6257669 L100,103.72313 L117.151332,119.710375 L125.614792,119.710375 Z M104.356062,210.707963 L104.356062,229.112871 L71.0207205,229.112871 L61.1716169,239.812457 L61.1716169,345.228721 L46.3725623,362.037212 C43.0140338,365.851766 37.1991016,366.221448 33.3845475,362.862919 C29.5699935,359.504391 29.2003117,353.689459 32.5588401,349.874905 L42.7667089,338.280997 L42.7667089,232.631139 L62.9472688,210.707963 L104.356062,210.707963 Z M300.240816,231.288344 L300.240816,212.883436 L341.834558,212.883436 L362.015118,234.806612 L362.015118,340.45647 L372.222987,352.050378 C375.581516,355.864932 375.211834,361.679864 371.39728,365.038392 C367.582726,368.396921 361.767793,368.027239 358.409265,364.212685 L343.61021,347.404194 L343.61021,241.98793 L333.761107,231.288344 L300.240816,231.288344 Z M212.857866,48.0419144 C226.131058,19.0006707 248.862195,11.2545655 276.533598,27.0768773 C280.945642,29.5996531 282.477197,35.2214359 279.954421,39.6334805 C277.431646,44.0455251 271.809863,45.5770801 267.397818,43.0543042 C252.120463,34.318821 241.780982,35.5280211 233.665556,48.047487 C233.514713,48.0437763 233.363641,48.0419144 233.212371,48.0419144 L212.857866,48.0419144 Z M172.037995,48.0419144 C163.923113,35.5276625 153.584433,34.3201173 138.309345,43.0543042 C133.897301,45.5770801 128.275518,44.0455251 125.752742,39.6334805 C123.229966,35.2214359 124.761521,29.5996531 129.173566,27.0768773 C156.844968,11.2545655 179.576106,19.0006707 192.849298,48.0419144 L172.037995,48.0419144 Z" id="foreground" fill="#FFFFFF"></path>
            <g id="alpha" transform="translate(8.588957, 8.588957)" fill="#000000">
                <path d="M106.168132,229.657657 L64.8724229,229.657657 L64.8724229,335.935135 L35.2559956,364.737243 L16.8718595,364.737243 L16.8718595,335.935135 L25.0548801,322.233333 L25.0548801,220.208901 L49.7322857,192.827425 L86.6687325,192.827425 L25.0548801,124.778683 L25.0548801,44.2407653 L1.12540873,22.2984093 L16.8718595,0.387032803 L64.8724229,22.2984093 L100.30415,22.2984093 L100.30415,93.4805098 L124.15396,105.504992 L124.15396,155.948512 L106.168132,182.562138 L106.168132,229.657657 Z M281.789509,229.270624 L281.789509,182.175105 L263.803681,155.561479 L263.803681,105.117959 L287.653491,93.093477 L287.653491,21.9113765 L323.085218,21.9113765 L371.085781,0 L386.832232,21.9113765 L362.90276,43.8537325 L362.90276,124.39165 L301.288908,192.440393 L338.225355,192.440393 L362.90276,219.821868 L362.90276,321.8463 L371.085781,335.548102 L371.085781,364.350211 L352.701645,364.350211 L323.085218,335.548102 L323.085218,229.270624 L281.789509,229.270624 Z" id="Path-93" fill-opacity="0.2"></path>
                <polygon id="Path-94" fill-opacity="0.4" points="155.864446 50.6250183 231.032234 50.6250183 240.913341 36.4204625 262.567761 43.5227404 279.605049 36.4204625 279.605049 11.3459457 240.913341 1.34959648 195.092025 25.9873074 144.563256 1.34959648 106.997949 19.6657039 106.997949 36.4204625 124.49249 43.5227404 149.697119 36.4204625"></polygon>
            </g>
        </g>
    </g>
</svg>