<?xml version="1.0" encoding="UTF-8"?>
<svg width="512px" height="524px" viewBox="0 0 512 524" version="1.1" xmlns="http://www.w3.org/2000/svg" xmlns:xlink="http://www.w3.org/1999/xlink">
    <!-- Generator: Sketch 53.2 (72643) - https://sketchapp.com -->
    <title>ic_items_scale_base</title>
    <desc>Created with Sketch.</desc>
    <g id="ic_items_scale_base" stroke="none" stroke-width="1" fill="none" fill-rule="evenodd">
        <g id="Group" transform="translate(81.000000, 62.000000)" fill-rule="nonzero">
            <g id="scale">
                <path d="M175.301205,400 C77.8516658,400 0,309.918762 0,200 C0,90.0812379 77.8516658,0 175.301205,0 C272.750744,0 350.60241,90.0812379 350.60241,200 C350.60241,309.918762 272.750744,400 175.301205,400 Z" id="Path" fill="#000000"></path>
                <path d="M90.9235991,46.4618484 C65.2133935,77.5688431 49.3975904,122.750896 49.3975904,172.289157 C49.3975904,264.109489 103.733566,340.963855 174.698795,340.963855 C245.664025,340.963855 300,264.109489 300,172.289157 C300,121.570979 283.421813,75.4189943 256.620111,44.2631866 C302.120502,76.1403488 332.53012,133.961038 332.53012,200 C332.53012,300.4759 262.136337,381.927711 175.301205,381.927711 C88.4660725,381.927711 18.0722892,300.4759 18.0722892,200 C18.0722892,135.452081 47.124219,78.7555158 90.9235991,46.4618484 L90.9235991,46.4618484 Z M175.301205,300 C119.074625,300 73.4939759,239.045996 73.4939759,163.855422 C73.4939759,88.6648473 119.074625,27.7108434 175.301205,27.7108434 C231.527785,27.7108434 277.108434,88.6648473 277.108434,163.855422 C277.108434,239.045996 231.527785,300 175.301205,300 Z M174.096386,224.096386 C215.518975,224.096386 245.783133,182.026893 245.783133,133.13253 C245.783133,84.238167 215.518975,42.1686747 174.096386,42.1686747 C132.673796,42.1686747 102.409639,84.238167 102.409639,133.13253 C102.409639,182.026893 132.673796,224.096386 174.096386,224.096386 Z M174.698795,192.771084 C148.748066,192.771084 127.710843,164.451746 127.710843,129.518072 C127.710843,94.5843984 148.748066,66.2650602 174.698795,66.2650602 C200.649524,66.2650602 221.686747,94.5843984 221.686747,129.518072 C221.686747,164.451746 200.649524,192.771084 174.698795,192.771084 Z" id="Oval" fill="#FFFFFF"></path>
            </g>
            <g id="alpha" transform="translate(59.036145, 13.253012)" fill="#000000" fill-opacity="0.08">
                <ellipse id="Oval-6" cx="114.457831" cy="150.60241" rx="114.457831" ry="150.60241"></ellipse>
                <ellipse id="Oval-6" cx="115.060241" cy="118.674699" rx="62.0481928" ry="81.3253012"></ellipse>
            </g>
        </g>
    </g>
</svg>