<?xml version="1.0" encoding="UTF-8"?>
<svg width="512px" height="512px" viewBox="0 0 512 512" version="1.1" xmlns="http://www.w3.org/2000/svg" xmlns:xlink="http://www.w3.org/1999/xlink">
    <!-- Generator: Sketch 53.2 (72643) - https://sketchapp.com -->
    <title>ic_items_ore_base</title>
    <desc>Created with Sketch.</desc>
    <g id="ic_items_ore_base" stroke="none" stroke-width="1" fill="none" fill-rule="evenodd">
        <g id="Group" transform="translate(72.000000, 56.000000)" fill-rule="nonzero">
            <path d="M366.740303,156.764928 L195.894428,156.764928 L195.894428,139.16962 C195.894428,120.632909 198.65081,95.7725569 203.036251,75.6864622 C205.508385,64.3636504 208.422242,54.7849912 211.824892,47.4503448 C214.015067,42.7292727 216.464345,38.7736461 219.453536,35.5462128 C224.143306,30.4826624 230.13835,27.2263765 237.374328,27.2263765 L322.238393,27.2263765 C332.001057,27.2263765 340.2534,32.1182317 346.281877,40.1875483 C350.725944,46.1360794 354.103544,53.9222138 356.816038,63.7092463 C361.603128,80.9816921 364.588468,105.754867 365.96677,138.42803 L366.740303,156.764928 Z M43.8102556,219.917391 C45.3885196,214.27645 47.2758726,209.417476 49.4605386,205.557757 C50.8853835,203.040438 52.4855021,200.833362 54.4514583,198.915825 C58.0604379,195.39573 62.6079726,192.992047 68.4873126,192.992047 L226.840416,192.992047 C241.228978,192.992047 250.887807,200.061697 258.114161,211.412052 C258.439663,211.923314 258.904965,212.695906 259.405806,213.540749 L285.727977,213.540749 C294.899698,213.540749 302.142376,218.20326 308.015427,225.407332 C311.801908,230.05195 315.076882,235.909071 317.897941,242.627568 C321.729233,251.751988 324.590278,262.230729 325.694016,271.044069 C330.328452,271.891772 334.312184,274.276307 337.484847,277.594974 C339.969798,280.194281 341.869179,283.253526 343.499292,286.849657 C345.907169,292.161582 347.898445,299.130741 349.704079,308.07208 C353.00691,324.427412 355.829417,348.315097 358.244402,379.980793 L359.688353,398.914122 L12.7988179,398.914122 L12.7988179,381.318814 C12.7988179,370.897638 13.7478795,363.819328 15.9944028,353.327803 C16.0784234,352.935417 16.3759223,351.551951 16.3585664,351.632759 C16.4986328,350.980614 16.6021484,350.495378 16.7007431,350.027428 C17.9392448,344.14925 18.4099564,340.578214 18.4099564,335.877683 C18.4099564,304.696069 22.6565296,285.986396 31.433524,272.710633 C32.7603808,270.703677 34.0887781,268.950066 35.6867032,267.014618 C35.9100456,266.7441 37.9415881,264.33231 38.3210117,263.85305 C38.6216467,246.610671 40.5174407,231.686382 43.8102556,219.917391 Z M0.425017355,0.438964412 L128.487557,0.438964412 L128.487557,115.046676 L0.425017355,115.046676 L0.425017355,0.438964412 Z" id="background" fill="#000000"></path>
            <path d="M223.986829,381.318814 L30.3941258,381.318814 C30.3941258,359.967258 36.0052643,352.999051 36.0052643,335.877683 C36.0052643,306.950373 40.0091259,293.215533 44.4527706,285.156377 L196.807212,285.156377 L223.986829,381.318814 Z M242.271452,381.318814 L215.091836,285.156377 L312.541022,285.156377 C314.959499,287.033329 318.283018,288.300404 321.915703,288.300404 C329.709228,288.300404 335.970674,319.306541 340.700042,381.318814 L242.271452,381.318814 Z M56.1246256,265.215039 C56.1853449,264.533074 56.2169546,263.808918 56.2169546,263.035895 C56.2169546,230.626951 64.227861,210.587355 68.4873126,210.587355 L226.840416,210.587355 C243.912568,210.587355 245.33861,231.136057 251.579579,231.136057 L285.727977,231.136057 C294.795714,231.136057 303.183056,249.920354 306.766446,265.215039 L56.1246256,265.215039 L56.1246256,265.215039 Z M282.711162,44.8216845 L293.35228,139.16962 L213.489736,139.16962 C213.489736,105.687 223.49319,44.8216845 237.374328,44.8216845 L282.711162,44.8216845 Z M300.418029,44.8216845 L322.238393,44.8216845 C337.017514,44.8216845 345.733748,76.2709965 348.387097,139.16962 L311.059146,139.16962 L300.418029,44.8216845 Z M110.892249,56.3051717 L18.0203253,56.3051717 L18.0203253,18.0342723 L110.892249,18.0342723 L110.892249,56.3051717 Z M110.892249,73.9004796 L110.892249,97.4513682 L18.0203253,97.4513682 L18.0203253,73.9004796 L110.892249,73.9004796 Z" id="base" fill="#FFFFFF"></path>
            <path d="M205.144026,273.850816 L321.554091,273.850816 L337.208158,296.990623 L348.158042,389.783068 L233.079028,389.783068 L205.144026,273.850816 Z M292.720344,34.1990965 L302.390372,149.556835 L206.480765,149.556835 L206.480765,91.8779658 L229.239459,34.1990965 L292.720344,34.1990965 Z M117.943132,70.5811525 L117.943132,105.188474 L10.0881966,105.188474 L10.0881966,70.5811525 L117.943132,70.5811525 Z" id="Path-79" fill-opacity="0.15" fill="#000000"></path>
        </g>
    </g>
</svg>