<?xml version="1.0" encoding="UTF-8"?>
<svg width="512px" height="512px" viewBox="0 0 512 512" version="1.1" xmlns="http://www.w3.org/2000/svg" xmlns:xlink="http://www.w3.org/1999/xlink">
    <!-- Generator: Sketch 53.2 (72643) - https://sketchapp.com -->
    <title>ic_items_book_base</title>
    <desc>Created with Sketch.</desc>
    <g id="ic_items_book_base" stroke="none" stroke-width="1" fill="none" fill-rule="evenodd">
        <g id="Group" transform="translate(69.000000, 56.000000)" fill-rule="nonzero">
            <polygon id="main" fill="#FFFFFF" points="15.920398 16.9101611 15.920398 383.768175 357.84255 383.768175 357.84255 372.217808 343.1656 372.217808 343.1656 298.359406 357.84255 298.359406 357.84255 16.9101611"></polygon>
            <path d="M64.5586353,356.29741 L373.762948,356.29741 L373.762948,399.688573 L0,399.688573 L0,0.989763107 L373.762948,0.989763107 L373.762948,314.279804 L64.5586353,314.279804 L64.5586353,356.29741 Z M15.920398,16.9101611 L15.920398,383.768175 L357.84255,383.768175 L357.84255,372.217808 L48.6382373,372.217808 L48.6382373,298.359406 L357.84255,298.359406 L357.84255,16.9101611 L15.920398,16.9101611 Z" id="Path-129" fill="#000000"></path>
            <path d="M226.496155,43.7810945 L265.300582,82.5855214 L226.496155,121.389948 L187.691728,82.5855214 L226.496155,43.7810945 Z M226.496155,246.762614 L187.691728,207.958187 L226.496155,169.15376 L265.300582,207.958187 L226.496155,246.762614 Z M288.558757,183.940752 L249.75433,145.136325 L288.558757,106.331898 L327.363184,145.136325 L288.558757,183.940752 Z M163.182536,183.940752 L124.378109,145.136325 L163.182536,106.331898 L201.986963,145.136325 L163.182536,183.940752 Z M225.870647,150.667546 L161.813796,214.724397 L156.419881,209.330483 L220.47851,145.271854 L156.419881,81.2132255 L161.813796,75.8193111 L225.870647,139.876162 L289.927498,75.8193111 L295.321412,81.2132255 L231.262783,145.271854 L295.321412,209.330483 L289.927498,214.724397 L225.870647,150.667546 Z" id="Rectangle-3" fill-opacity="0.3" fill="#000000"></path>
            <path d="M68.7408838,10.9452736 L88.6413814,10.9452736 L88.6413814,34.8258706 L68.7408838,34.8258706 L68.7408838,10.9452736 Z M68.7408838,58.7064677 L88.6413814,58.7064677 L88.6413814,82.5870647 L68.7408838,82.5870647 L68.7408838,58.7064677 Z M68.7408838,106.467662 L88.6413814,106.467662 L88.6413814,130.348259 L68.7408838,130.348259 L68.7408838,106.467662 Z M68.7408838,154.228856 L88.6413814,154.228856 L88.6413814,178.109453 L68.7408838,178.109453 L68.7408838,154.228856 Z M68.7408838,201.99005 L88.6413814,201.99005 L88.6413814,225.870647 L68.7408838,225.870647 L68.7408838,201.99005 Z M68.7408838,249.751244 L88.6413814,249.751244 L88.6413814,271.641791 L68.7408838,271.641791 L68.7408838,249.751244 Z" id="Path-131" fill="#000000"></path>
            <polygon id="Path-132" fill-opacity="0.3" fill="#000000" points="362.018033 271.720793 11.2993382 271.720793 11.2993382 389.204704 362.018033 389.204704 362.018033 362.690221 338.704559 362.690221 338.704559 336.432898 59.0827488 336.432898 59.0827488 306.828744 362.018033 306.828744"></polygon>
            <polygon id="Path-133" fill="#000000" points="333.612076 306.363813 349.532474 306.363813 349.532474 364.051803 333.612076 364.051803"></polygon>
        </g>
    </g>
</svg>