<?xml version="1.0" encoding="UTF-8"?>
<svg width="512px" height="512px" viewBox="0 0 512 512" version="1.1" xmlns="http://www.w3.org/2000/svg" xmlns:xlink="http://www.w3.org/1999/xlink">
    <!-- Generator: Sketch 53.2 (72643) - https://sketchapp.com -->
    <title>ic_items_sphere_base</title>
    <desc>Created with Sketch.</desc>
    <g id="ic_items_sphere_base" stroke="none" stroke-width="1" fill="none" fill-rule="evenodd">
        <g id="Group" transform="translate(56.000000, 114.000000)" fill-rule="nonzero">
            <path d="M245.303585,34.132874 L308.160573,98.0966101 L307.377984,187.772404 L243.414248,250.629393 L153.738454,249.846804 L90.8814656,185.883068 L91.6640544,96.2072736 L155.62779,33.3502852 L245.303585,34.132874 Z M335.505062,107.297651 C335.505062,96.3703234 348.390352,90.5458975 356.593109,97.7654044 L394.73326,131.333764 C400.478298,136.390155 400.478298,145.341867 394.73326,150.398258 L356.593109,183.966617 C348.390352,191.186124 335.505062,185.361698 335.505062,174.43437 L335.505062,107.297651 Z M276.066847,22.3500434 C267.568543,14.510962 273.114984,0.317779534 284.676661,0.317779534 L333.397397,0.317779534 C340.410536,0.317779534 346.095809,6.00305255 346.095809,13.0161922 L346.095809,57.9576092 C346.095809,69.0254147 332.922871,74.7956859 324.787582,67.2914604 L276.066847,22.3500434 Z M276.62549,261.639312 L325.346226,216.697895 C333.481515,209.193669 346.654453,214.963941 346.654453,226.031746 L346.654453,270.973163 C346.654453,277.986303 340.96918,283.671576 333.956041,283.671576 L285.235305,283.671576 C273.673628,283.671576 268.127187,269.478393 276.62549,261.639312 Z M63.5369762,107.936508 L63.5369762,175.073227 C63.5369762,186.000555 50.6516865,191.824981 42.4489299,184.605474 L4.30877904,151.037114 C-1.43625968,145.980723 -1.43625968,137.029012 4.30877904,131.972621 L42.4489299,98.404261 C50.6516865,91.1847541 63.5369762,97.00918 63.5369762,107.936508 Z M121.613474,22.0322639 L72.8927386,66.9736809 C64.7574502,74.4779064 51.5845114,68.7076351 51.5845114,57.6398297 L51.5845114,12.6984127 C51.5845114,5.68527302 57.2697844,0 64.2829241,0 L113.00366,0 C124.565336,0 130.111778,14.1931824 121.613474,22.0322639 Z M114.273501,283.671576 L65.5527654,283.671576 C58.5396257,283.671576 52.8543527,277.986303 52.8543527,270.973163 L52.8543527,226.031746 C52.8543527,214.963941 66.0272915,209.193669 74.1625799,216.697895 L122.883316,261.639312 C131.381619,269.478393 125.835178,283.671576 114.273501,283.671576 Z" id="background" fill="#000000"></path>
            <path d="M237.247883,53.1109173 L289.044829,105.819872 L288.399941,179.716703 L235.690986,231.513648 L161.794155,230.868761 L109.99721,178.159806 L110.642098,104.262975 L163.351052,52.4660294 L237.247883,53.1109173 Z M348.203475,107.297651 L386.343626,140.866011 L348.203475,174.43437 L348.203475,107.297651 Z M284.676661,13.0161922 L333.397397,13.0161922 L333.397397,57.9576092 L284.676661,13.0161922 Z M285.235305,270.973163 L333.956041,226.031746 L333.956041,270.973163 L285.235305,270.973163 Z M50.8385635,107.936508 L50.8385635,175.073227 L12.6984127,141.504867 L50.8385635,107.936508 Z M113.00366,12.6984127 L64.2829241,57.6398297 L64.2829241,12.6984127 L113.00366,12.6984127 Z M114.273501,270.973163 L65.5527654,270.973163 L65.5527654,226.031746 L114.273501,270.973163 Z" id="foreground" fill="#FFFFFF"></path>
            <path d="M180.952381,99.1018862 L180.952381,48.8888889 L217.777778,48.8888889 L217.777778,98.0873894 L218.462082,98.0933612 L243.10935,123.174603 L292.063492,123.174603 L292.063492,160 L243.494371,160 L243.49394,160.049384 L217.777778,185.320587 L217.777778,234.285714 L180.952381,234.285714 L180.952381,184.485395 L156.89065,160 L106.666667,160 L106.666667,123.174603 L156.505629,123.174603 L156.50606,123.125219 L180.952381,99.1018862 Z M214.716153,107.553139 L185.891148,107.301587 L165.330917,127.50607 L165.079365,156.331075 L185.283847,176.891305 L214.108852,177.142857 L234.669083,156.938375 L234.920635,128.11337 L214.716153,107.553139 Z" id="alpha" fill-opacity="0.2" fill="#000000"></path>
        </g>
    </g>
</svg>