<?xml version="1.0" encoding="UTF-8"?>
<svg width="512px" height="512px" viewBox="0 0 512 512" version="1.1" xmlns="http://www.w3.org/2000/svg" xmlns:xlink="http://www.w3.org/1999/xlink">
    <!-- Generator: Sketch 53.2 (72643) - https://sketchapp.com -->
    <title>ic_items_barrel_base</title>
    <desc>Created with Sketch.</desc>
    <g id="ic_items_barrel_base" stroke="none" stroke-width="1" fill="none" fill-rule="evenodd">
        <g id="barrel_base" transform="translate(106.000000, 176.000000)" fill-rule="nonzero">
            <path d="M294.045549,83.9552 C288.630795,64.7424 280.109251,50.2186667 269.443988,40.4650667 L269.443988,0.533333333 L29.4755855,0.533333333 L29.4755855,40.4650667 C18.8103232,50.2186667 10.8423057,64.7424 5.42861853,83.9552 C2.70598415,93.8011808 0.888885608,103.875445 0,114.052267 L0.08212252,166.151467 C0.953917869,176.134477 2.73893086,186.016539 5.41475369,195.6736 C10.8113764,214.676267 18.8103232,228.896 29.4755855,237.9936 L29.4755855,280 L269.443988,280 L269.443988,237.994667 C280.109251,228.896 288.630795,214.677333 294.027418,195.6736 C296.771302,186.014494 298.680294,176.137458 299.733333,166.151467 L299.676807,114.052267 C298.687043,103.873993 296.802673,93.8027083 294.045549,83.9552 Z" id="Shape" fill="#000000"></path>
            <path d="M16,127.466667 L61.8666667,127.466667 L61.8666667,150.933333 L16,150.933333 L16,127.466667 Z M84.2666667,127.466667 L140.8,127.466667 L140.8,150.933333 L84.2666667,150.933333 L84.2666667,127.466667 Z M282.666667,150.933333 L236.8,150.933333 L236.8,127.466667 L282.666667,127.466667 L282.666667,150.933333 Z M217.6,150.933333 L161.066667,150.933333 L161.066667,127.466667 L217.6,127.466667 L217.6,150.933333 Z M70.1463607,50.6666667 L48.5920021,50.6666667 C20.2192002,66.6666667 17.0666667,117.866667 17.0666667,117.866667 L86.8741331,117.866667 C86.8741331,73.0666667 98.1333333,50.6666667 98.1333333,50.6666667 L70.1463607,50.6666667 Z M70.1463607,225.6 L48.5920021,225.6 C20.2192002,210.666667 17.0666667,161.6 17.0666667,161.6 L86.8741331,161.6 C86.8741331,203.2 98.1333333,225.6 98.1333333,225.6 L70.1463607,225.6 Z M184.569602,50.6666667 L116.232521,50.6666667 C99.0270861,66.6666667 101.450387,117.866667 101.450387,117.866667 L199.349602,117.866667 C199.349602,117.866667 201.772903,66.6666667 184.568535,50.6666667 L184.569602,50.6666667 Z M230.654335,50.6666667 L252.207348,50.6666667 C280.580841,66.6666667 283.733333,117.866667 283.733333,117.866667 L213.926782,117.866667 C213.926782,73.0666667 202.666667,50.6666667 202.666667,50.6666667 L230.654335,50.6666667 Z M199.349602,161.6 L101.450387,161.6 C101.450387,161.6 99.0270861,209.6 116.232521,225.6 L184.568535,225.6 C201.772903,209.6 199.349602,161.6 199.349602,161.6 Z M230.654335,225.6 L252.207348,225.6 C280.580841,210.666667 283.733333,161.6 283.733333,161.6 L213.926782,161.6 C213.926782,203.2 202.666667,225.6 202.666667,225.6 L230.654335,225.6 Z M46.9333333,14.4 L80,14.4 L80,35.7333333 L46.9333333,35.7333333 L46.9333333,14.4 Z M218.666667,14.4 L252.8,14.4 L252.8,35.7333333 L218.666667,35.7333333 L218.666667,14.4 Z M164.266667,14.4 L195.2,14.4 L195.2,35.7333333 L164.266667,35.7333333 L164.266667,14.4 Z M104.533333,14.4 L138.666667,14.4 L138.666667,35.7333333 L104.533333,35.7333333 L104.533333,14.4 Z M46.9333333,241.6 L80,241.6 L80,264 L46.9333333,264 L46.9333333,241.6 Z M218.666667,241.6 L252.8,241.6 L252.8,264 L218.666667,264 L218.666667,241.6 Z M164.266667,241.6 L195.2,241.6 L195.2,264 L164.266667,264 L164.266667,241.6 Z M104.533333,241.6 L138.666667,241.6 L138.666667,264 L104.533333,264 L104.533333,241.6 Z" id="base" fill="#FFFFFF"></path>
        </g>
        <path d="M146.135896,219.003599 L146.135896,183.351655 L364.045439,183.351655 L364.045439,219.003599 L146.135896,219.003599 Z M116.336177,300.7251 L394.972949,300.7251 L394.972949,330.839299 L116.336177,330.839299 L116.336177,300.7251 Z M146.521738,409.354296 L362.671177,409.354296 L362.671177,448.265803 L146.521738,448.265803 L146.521738,409.354296 Z" id="Path-92" fill-opacity="0.25" fill="#000000" fill-rule="nonzero"></path>
    </g>
</svg>