<?xml version="1.0" encoding="UTF-8"?>
<svg width="512px" height="512px" viewBox="0 0 512 512" version="1.1" xmlns="http://www.w3.org/2000/svg" xmlns:xlink="http://www.w3.org/1999/xlink">
    <!-- Generator: Sketch 53.2 (72643) - https://sketchapp.com -->
    <title>ic_items_liquid_base</title>
    <desc>Created with Sketch.</desc>
    <g id="ic_items_liquid_base" stroke="none" stroke-width="1" fill="none" fill-rule="evenodd">
        <g id="Group" transform="translate(101.000000, 56.000000)" fill-rule="nonzero">
            <path d="M278.522104,52.4777674 L278.522104,92.8287552 C279.531734,93.5710742 281.173085,94.5708573 284.031882,96.1838339 C284.178181,96.266378 284.778076,96.6045716 284.931602,96.6911934 C291.504802,100.399892 294.846492,102.577318 298.559178,106.181352 C304.672824,112.116081 308.24762,119.598719 308.24762,128.44609 L308.24762,357.328864 C308.24762,380.626525 287.216598,399.407134 261.901605,399.407134 L47.1613974,399.407134 C20.7911046,399.407134 0.46594747,381.683568 0.46594747,357.328864 L0.46594747,128.44609 C0.46594747,120.609426 3.73520315,113.980176 9.18032701,108.745247 C12.4188023,105.631785 15.6674331,103.506324 21.0076319,100.528311 C21.5380847,100.232499 23.5553741,99.1177995 24.0289656,98.8536967 C27.717069,96.7969904 29.5678768,95.5530715 30.5393908,94.5527668 C30.5397265,94.5524212 30.5402291,80.5413163 30.5408988,52.5194522 C27.8055549,51.7065123 23.2597072,51.1508302 17.0864461,51.1508302 L0.46594747,51.1508302 L0.46594747,1.08436722 L308.24762,1.08436722 L308.24762,51.1508302 L291.627122,51.1508302 C285.617737,51.1508302 281.191268,51.6914854 278.522104,52.4777674 Z" id="background" fill="#000000"></path>
            <path d="M77.0782949,17.7048658 L77.0782949,94.9029188 C77.0782949,107.494633 72.2112532,118.442091 63.9232181,126.975742 C58.9784862,132.067011 54.2508746,135.269029 47.0033436,139.325982 L47.0033436,352.869738 C47.0380127,352.869545 118.606973,352.869545 261.710224,352.869738 L261.710224,137.023186 C253.93526,132.636605 250.190962,130.215686 245.604013,125.856481 C237.17033,117.841535 231.984707,107.334693 231.984707,94.9029188 L231.984707,17.7048658 L291.627122,17.7048658 L291.627122,34.5303316 C271.81011,34.5303316 261.901605,39.5387108 261.901605,49.5554692 L261.901605,94.9029188 C261.901605,110.997289 291.627122,110.997289 291.627122,128.44609 L291.627122,357.328864 C291.627122,370.458309 279.038768,382.786635 261.901605,382.786635 L47.1613974,382.786635 C29.0626038,382.786635 17.0864461,371.575779 17.0864461,357.328864 L17.0864461,128.44609 C17.0864461,113.934688 47.1613974,113.934688 47.1613974,94.9029188 L47.1613974,49.5554692 C47.1613974,39.5387108 37.1364136,34.5303316 17.0864461,34.5303316 L17.0864461,17.7048658 L77.0782949,17.7048658 Z M62.515809,337.357252 L62.515809,201.284884 L246.197759,200.16508 L246.197759,337.357252 C138.772976,337.35711 85.7517154,337.357069 62.515809,337.357252 Z M143.483074,142.605609 C142.209196,141.505412 130.13035,131.735232 126.083091,128.169641 C117.938057,120.993956 111.64084,114.170971 106.778728,106.633614 C100.544061,96.9684891 97.1378229,86.6783891 97.1378229,75.6199711 C97.1378229,55.0860204 103.817166,38.8499722 115.967501,27.9356655 C126.379593,18.5827738 140.129126,13.8640242 154.052418,13.9090065 C164.709705,13.942532 171.37627,14.4527272 179.5591,16.66051 C201.35968,22.5424532 215.109991,38.3148857 215.109991,64.9477515 C215.109991,81.9485708 210.425393,94.4541952 201.821171,102.403079 C195.332428,108.39761 187.49576,111.004721 180.572005,111.004721 C163.587905,111.004721 147.516913,97.3964647 147.516913,77.2188687 C147.516913,71.0993701 152.477747,66.1385363 158.597245,66.1385363 C164.716744,66.1385363 169.677578,71.0993701 169.677578,77.2188687 C169.677578,84.2646555 175.085729,88.8440561 180.572005,88.8440561 C181.11551,88.8440561 182.019487,88.7043419 182.991146,88.3810895 C184.340465,87.9321965 185.618006,87.2021041 186.783369,86.1255009 C190.492177,82.6991728 192.949326,76.1397658 192.949326,64.9477515 C192.949326,48.9533568 186.421022,41.4649997 173.786426,38.0561005 C167.997588,36.494233 162.811455,36.0973359 154.133297,36.0700406 C145.308809,36.0415388 136.88869,38.9312688 130.776459,44.421715 C123.490961,50.9660745 119.298488,61.1570761 119.298488,75.6199711 C119.298488,87.8917755 126.421187,98.9335467 140.73231,111.54149 C144.337025,114.717204 156.301787,124.395104 157.967951,125.834103 C161.03334,128.481556 163.303463,130.705584 165.099628,132.960689 C167.955425,136.54617 169.677578,140.253871 169.677578,144.635173 L169.677578,172.768255 C169.677578,178.887753 164.716744,183.848587 158.597245,183.848587 C152.477747,183.848587 147.516913,178.887753 147.516913,172.768255 L147.516913,146.466807 C146.711863,145.525967 145.386313,144.24936 143.483074,142.605609 Z" id="foreground" fill="#FFFFFF"></path>
            <polygon id="alpha" fill-opacity="0.1" fill="#000000" points="56.8882916 195.06855 56.8882916 344.595228 250.154378 344.595228 250.154378 195.06855"></polygon>
        </g>
    </g>
</svg>