<?xml version="1.0" encoding="UTF-8"?>
<svg width="512px" height="512px" viewBox="0 0 512 512" version="1.1" xmlns="http://www.w3.org/2000/svg" xmlns:xlink="http://www.w3.org/1999/xlink">
    <!-- Generator: Sketch 53.2 (72643) - https://sketchapp.com -->
    <title>ic_items_plate_base</title>
    <desc>Created with Sketch.</desc>
    <g id="ic_items_plate_base" stroke="none" stroke-width="1" fill="none" fill-rule="evenodd">
        <g id="Group" transform="translate(62.000000, 56.000000)" fill-rule="nonzero">
            <path d="M129.925153,69.3040699 C133.082629,67.2694105 136.103286,64.6118624 139.618748,60.8627092 C147.830814,52.1047439 157.713013,38.533378 168.583363,20.7989916 L175.887068,8.88339474 C182.788092,-2.37525201 198.965014,-2.87687251 206.550335,7.93257582 L214.578265,19.3727632 C228.149791,38.7128433 239.574976,53.0454586 248.511725,62.0704897 C251.66129,65.2511682 254.356255,67.6175877 256.394807,69.0888255 C265.018809,67.9741729 281.032647,63.0228189 302.321467,54.3624377 L324.838368,45.2024677 C340.507427,38.828229 355.722295,55.2509784 348.171906,70.3884134 L337.321774,92.1413561 C329.414956,107.993381 324.683171,120.456905 323.132197,128.050951 C323.999647,128.82392 325.030139,129.668028 326.214525,130.567828 C334.059596,136.527876 347.010441,143.754047 364.613018,151.832842 L376.110624,157.109728 C387.452164,162.314987 390.401361,177.078743 381.930026,186.241806 L373.342121,195.530959 C365.877751,203.604834 360.269614,210.678004 356.723226,216.333948 C355.341836,218.537053 354.351835,220.40338 353.753688,221.842536 C354.214634,222.703522 354.892694,223.774482 355.79388,225.013442 C358.975984,229.388234 364.165695,234.814311 371.189385,240.919978 L378.003352,246.843333 C385.564878,253.416538 386.455547,264.840074 380.004203,272.505833 L374.190662,279.413729 C307.106174,359.126356 247.38749,399.65909 192.04893,399.65909 C136.55119,399.65909 77.6730434,358.966755 12.5627601,279.079985 L6.70655297,271.894738 C0.257605826,263.982231 1.50608888,252.327688 9.48471239,245.960722 L16.7299992,240.178962 C22.6905811,235.4224 26.8856278,231.079781 29.3608902,227.356059 C30.3152663,225.92032 30.9464163,224.676398 31.3025379,223.643249 C31.5329123,222.974906 31.6162217,222.501201 31.6162217,222.166605 C31.6162217,221.641897 31.4741237,220.808037 31.1079699,219.665315 C30.5953268,218.065416 29.7307835,216.162711 28.4859346,213.999625 C25.5297578,208.862887 20.7495185,202.800323 14.1728761,196.042437 L5.51756299,187.148595 C-3.08757358,178.306312 -0.688060959,163.661378 10.2889277,158.027546 L21.3299231,152.360864 C40.0921684,142.731326 53.9940307,134.57885 62.643921,128.222747 C63.0557495,127.920128 63.4514443,127.624486 63.8304937,127.336629 C63.2900184,126.19881 62.6788619,124.969759 61.9987543,123.656829 C58.0953188,116.121351 52.2360869,106.4139 44.709723,95.1121099 L27.9556994,69.953819 C17.9002376,54.8542683 33.5184419,35.8772008 50.2703191,42.8401999 L78.1816526,54.4416811 C101.15126,63.9891098 118.835628,68.8996074 129.925153,69.3040699 Z" id="background" fill="#000000"></path>
            <path d="M192.04893,310.703364 C208.262794,310.703364 221.406728,297.55943 221.406728,281.345566 C221.406728,265.131702 208.262794,251.987768 192.04893,251.987768 C175.835065,251.987768 162.691131,265.131702 162.691131,281.345566 C162.691131,297.55943 175.835065,310.703364 192.04893,310.703364 Z M192.66055,344.342508 C156.025709,344.342508 126.605505,313.807773 126.605505,276.452599 C126.605505,239.097426 156.025709,208.562691 192.66055,208.562691 C229.295392,208.562691 258.715596,239.097426 258.715596,276.452599 C258.715596,313.807773 229.295392,344.342508 192.66055,344.342508 Z M192.66055,327.217125 C217.503277,327.217125 237.920489,305.453724 237.920489,278.287462 C237.920489,251.1212 217.503277,229.357798 192.66055,229.357798 C167.817824,229.357798 147.400612,251.1212 147.400612,278.287462 C147.400612,305.453724 167.817824,327.217125 192.66055,327.217125 Z M192.04893,362.691131 C132.974827,362.691131 86.2385321,308.539772 86.2385321,242.813456 C86.2385321,177.087139 132.974827,122.93578 192.04893,122.93578 C251.123032,122.93578 297.859327,177.087139 297.859327,242.813456 C297.859327,308.539772 251.123032,362.691131 192.04893,362.691131 Z M192.04893,350.458716 C235.662634,350.458716 272.171254,305.783694 272.171254,249.541284 C272.171254,193.298875 235.662634,148.623853 192.04893,148.623853 C148.435225,148.623853 111.926606,193.298875 111.926606,249.541284 C111.926606,305.783694 148.435225,350.458716 192.04893,350.458716 Z M59.9817898,84.9417621 L43.2277661,59.7834712 L71.1390996,71.3849525 C97.3831049,82.2934007 117.588995,87.6799341 131.379203,87.6799341 C142.084228,87.6799341 160.723354,68.7328995 184.227074,30.3878554 L191.530778,18.4722585 L199.558708,29.9124459 C213.713403,50.0835694 225.718052,65.1290046 235.473677,74.9810008 C240.120497,79.6737249 244.17984,83.106448 247.563907,85.2657655 C249.050521,86.2143491 250.350919,86.8805906 251.436079,87.2793787 C252.22203,87.56821 252.783895,87.6799341 253.117618,87.6799341 C263.448903,87.6799341 282.42024,82.2671194 309.235552,71.358538 L331.752453,62.1985681 L320.902321,83.9515108 C309.722373,106.365686 304.216462,122.854329 304.216462,132.714667 C304.216462,133.470064 304.719205,134.759248 306.066471,136.593209 C307.905107,139.096044 310.922385,141.993319 315.114684,145.178288 C324.172015,152.059313 338.153841,159.878086 356.959408,168.509 L368.457014,173.785886 L359.869109,183.075039 C343.156387,201.152443 335.020936,214.664686 335.020936,222.166605 C335.020936,229.283595 342.802619,240.55575 359.151531,254.767796 L365.965497,260.691151 L360.151956,267.599046 C296.603619,343.10987 240.887896,381.310466 192.04893,381.310466 C143.155529,381.310466 88.3755575,343.055146 26.7857416,267.487798 L20.9295345,260.302551 L28.1748213,254.52079 C43.0326677,242.664184 49.9648456,231.809425 49.9648456,222.166605 C49.9648456,212.133575 42.6435407,198.988854 27.3224469,183.245531 L18.6671338,174.351689 L29.7081293,168.685007 C49.3309248,158.6138 63.9622509,150.023752 73.5089095,143.008687 C77.9855569,139.719162 81.2325983,136.853524 83.2084288,134.526042 C83.9897598,133.605653 84.501499,132.851649 84.7611687,132.315615 C84.4234153,125.673131 76.1055401,109.153618 59.9817898,84.9417621 Z M192.04893,362.961842 C232.723792,362.961842 282.459036,329.747302 340.387009,262.510014 C324.756431,247.637143 316.672312,234.466602 316.672312,222.166605 C316.672312,210.635736 323.930392,196.846506 338.175599,179.91265 C303.282176,162.805104 285.867838,148.156099 285.867838,132.714667 C285.867838,123.303922 288.939833,111.285322 295.026042,96.4173343 C276.849634,102.813749 262.986378,106.028558 253.117618,106.028558 C238.208413,106.028558 219.190757,88.1547911 192.521831,51.616386 C168.947662,87.7788748 149.331068,106.028558 131.379203,106.028558 C120.100567,106.028558 106.26692,103.316826 89.7619531,97.9350671 C98.6938102,113.468067 103.130439,124.800244 103.130439,132.714667 C103.130439,145.83329 85.6987899,159.737322 48.6865333,179.469637 C61.6380801,194.78707 68.3134694,208.918756 68.3134694,222.166605 C68.3134694,236.192758 60.8951195,249.690786 46.7032569,262.797052 C102.736141,329.858225 151.463305,362.961842 192.04893,362.961842 Z" id="foreground" fill="#FFFFFF"></path>
            <circle id="alpha" fill-opacity="0.505944293" fill="#000000" cx="192.04893" cy="278.899083" r="37.9204893"></circle>
        </g>
    </g>
</svg>