<?xml version="1.0" encoding="UTF-8"?>
<svg width="512px" height="512px" viewBox="0 0 512 512" version="1.1" xmlns="http://www.w3.org/2000/svg" xmlns:xlink="http://www.w3.org/1999/xlink">
    <!-- Generator: Sketch 53.2 (72643) - https://sketchapp.com -->
    <title>ic_items_claw_base</title>
    <desc>Created with Sketch.</desc>
    <g id="ic_items_claw_base" stroke="none" stroke-width="1" fill="none" fill-rule="evenodd">
        <g id="Group" transform="translate(56.000000, 71.000000)" fill-rule="nonzero">
            <path d="M264.516129,6.4516129 L200,70.9677419 L135.483871,6.4516129 L70.9677419,70.9677419 L0.846017811,0.846017811 L399.153982,0.846017811 L329.032258,70.9677419 L264.516129,6.4516129 Z M399.153982,370.967742 L0.846017811,370.967742 L70.9677419,300.846018 L135.483871,365.362147 L200,300.846018 L264.516129,365.362147 L329.032258,300.846018 L399.153982,370.967742 Z M202.737652,149.465881 C206.309327,137.196756 208.332524,122.735953 208.858531,105.978811 L209.348938,90.3558201 L307.677327,90.3558201 L307.677327,106.484852 C307.677327,140.294373 300.973922,173.465659 287.031727,201.884834 C310.723647,195.969062 330.077956,174.303209 342.469303,138.614097 L361.855317,82.7791963 L373.517982,140.721719 C380.362912,174.728741 376.139073,210.22509 360.260055,237.545297 C341.444632,269.917655 308.167415,288.399103 263.470415,288.399103 C240.011794,288.399103 218.865215,285.123075 200.066676,278.835477 C181.268137,285.123075 160.121558,288.399103 136.662936,288.399103 C91.9659369,288.399103 58.6887202,269.917655 39.8732971,237.545297 C23.994279,210.22509 19.7704404,174.728741 26.61537,140.721719 L38.2780346,82.7791963 L57.6640489,138.614097 C70.0553959,174.303209 89.4097052,195.969063 113.101622,201.884828 C99.1594286,173.465654 92.4560245,140.294371 92.4560245,106.484852 L92.4560245,90.3558201 L201.017036,90.3558201 L200.211726,107.252696 C199.438705,123.472092 200.311626,137.52905 202.737652,149.465877 L202.737652,149.465881 Z" id="background" fill="#000000"></path>
            <path d="M192.77361,172.316156 C180.203245,192.293226 160.177275,202.30965 132.172417,203.43329 C114.758516,172.965198 108.585057,137.161701 108.585057,106.484852 L184.100981,106.484852 C182.830837,133.134793 185.721713,155.078561 192.77361,172.316156 L192.77361,172.316156 Z M276.984421,219.584928 C314.039036,217.84216 341.999923,189.140616 357.706068,143.90434 C369.167294,200.846074 347.2814,272.270071 263.470415,272.270071 C249.110524,272.270071 235.992814,270.960952 224.022934,268.537531 C243.830163,257.9133 260.302438,243.208935 273.379453,224.86749 C274.615523,223.133815 275.817122,221.372524 276.984421,219.584928 L276.984421,219.584928 Z M224.979623,106.484852 L291.548295,106.484852 C291.548295,176.155811 259.705538,272.270071 136.662936,272.270071 C52.8519518,272.270071 30.9660575,200.846074 42.4272835,143.90434 C58.6379628,190.593755 87.9033552,219.669076 126.74793,219.669076 C189.867154,219.669076 222.611052,181.941001 224.979623,106.484852 Z M70.9677419,323.655914 L102.150538,354.83871 L39.7849462,354.83871 L70.9677419,323.655914 Z M200,323.655914 L231.182796,354.83871 L168.817204,354.83871 L200,323.655914 Z M329.032258,323.655914 L360.215054,354.83871 L297.849462,354.83871 L329.032258,323.655914 Z M70.9677419,48.1578458 L39.7849462,16.9750501 L102.150538,16.9750501 L70.9677419,48.1578458 Z M200,48.1578458 L168.817204,16.9750501 L231.182796,16.9750501 L200,48.1578458 Z M329.032258,48.1578458 L297.849462,16.9750501 L360.215054,16.9750501 L329.032258,48.1578458 Z" id="base" fill="#FFFFFF"></path>
            <path d="M209.736715,269.97644 L274.638517,212.189383 L322.347252,188.172043 L359.074377,130.495777 L368.719049,200.236108 L328.952772,264.414559 L256.898439,284.646777 L209.736715,269.97644 Z M101.343923,102.519032 L190.807248,102.519032 L200,173.13926 L168.646096,202.373771 L123.418705,208.425082 L101.343923,102.519032 Z" id="Path-80" fill-opacity="0.1" fill="#000000"></path>
        </g>
    </g>
</svg>