<?xml version="1.0" encoding="UTF-8"?>
<svg width="512px" height="512px" viewBox="0 0 512 512" version="1.1" xmlns="http://www.w3.org/2000/svg" xmlns:xlink="http://www.w3.org/1999/xlink">
    <!-- Generator: Sketch 53.2 (72643) - https://sketchapp.com -->
    <title>ic_items_tail_base</title>
    <desc>Created with Sketch.</desc>
    <g id="ic_items_tail_base" stroke="none" stroke-width="1" fill="none" fill-rule="evenodd">
        <g id="tail_base" transform="translate(56.000000, 64.000000)" fill-rule="nonzero">
            <path d="M133.939887,379.746835 C133.038452,379.746627 132.14946,379.534977 131.3434,379.128668 L84.2232699,355.408137 C82.3114108,354.445953 81.0790907,352.504104 81.0152594,350.35306 C80.9514281,348.202015 82.0664057,346.189556 83.9178007,345.114168 L131.037931,317.743698 C132.834776,316.700655 135.0477,316.701523 136.843738,317.745974 C138.639777,318.790425 139.746312,320.719925 139.746835,322.808192 L139.746835,373.899193 C139.747104,375.449991 139.13542,376.937364 138.046377,378.034039 C136.957334,379.130714 135.480161,379.746835 133.939887,379.746835 L133.939887,379.746835 Z M248.842873,374.683544 C247.08801,374.683416 245.427383,373.882011 244.325391,372.503443 C243.223399,371.124874 242.798324,369.317112 243.16904,367.585701 L255.397302,310.445766 C255.88602,308.160282 257.67413,306.38691 259.946565,305.933998 C262.219001,305.481087 264.540652,306.435357 265.853251,308.361827 L304.799686,365.501762 C306.022196,367.294624 306.159376,369.623797 305.155921,371.550242 C304.152466,373.476687 302.17377,374.682878 300.017571,374.682524 L248.842873,374.683544 Z M355.799294,324.050632 C352.745239,324.050295 350.221987,321.625259 350.047531,318.522752 L347.351266,270.500439 C347.236564,268.467264 348.167368,266.51926 349.809722,265.355335 C351.452076,264.19141 353.570499,263.978448 355.404939,264.792856 L390.465412,280.343211 C392.218517,281.120662 393.478079,282.732793 393.82718,284.645984 C394.176281,286.559174 393.569393,288.52392 392.207398,289.889883 L359.845197,322.362862 C358.76715,323.444918 357.313574,324.051285 355.799294,324.050632 L355.799294,324.050632 Z M355.443038,94.463484 L353.180137,103.952378 C352.846316,105.208261 345.931164,131.014534 317.341929,160.266901 C317.501759,160.947424 318.105671,161.654237 318.105671,162.377229 L318.105671,227.6518 C317.960169,230.47223 316.499178,233.060989 314.159503,234.644096 C312.849307,235.453671 311.339904,235.883558 309.799599,235.885822 C308.67224,235.882816 307.56456,235.590337 306.582779,235.036433 L258.163568,208.037981 C256.754447,207.226137 255.635157,205.993426 254.962934,204.513015 C240.81729,211.541004 226.160618,217.490521 211.118082,222.310758 C209.710976,222.7668 208.272511,223.190483 206.848208,223.631357 C206.910934,224.659542 206.787569,225.690605 206.48404,226.675002 L186.814905,289.690602 C186.135738,292.140042 184.175996,294.025377 181.701375,294.609983 C181.310869,294.672717 180.914973,294.695418 180.519852,294.677731 C178.460233,294.600458 176.559581,293.550504 175.398229,291.848456 L136.202592,238.271191 C111.316747,241.524151 84.7628079,242.755766 56.663177,242.755766 L51.0489157,242.755766 L51.0489157,243.389774 C38.9099723,241.162149 29.1189028,231.096884 21.6574989,214.48323 C13.912853,197.239612 9.11392405,174.458784 9.11392405,150.340167 C9.11392405,126.22155 13.3797511,103.440722 21.124397,86.196093 C29.6337963,67.2516739 41.5926788,56.8163174 54.7998492,56.8163174 C55.2065038,56.8163174 55.6111353,56.825418 56.0157667,56.8456415 C61.3799583,56.3076548 66.7697122,56.0652795 72.1605615,56.1196157 C89.8236527,56.2388488 107.444295,57.8656778 124.830425,60.9823706 C125.050779,59.5093135 125.650739,58.1189057 126.571352,56.9477705 L164.931425,9.52352412 C166.079246,8.02253371 167.848781,7.12620549 169.738447,7.08860759 C170.305113,7.08939727 170.868445,7.17529514 171.409575,7.34342444 C173.896191,8.24335641 175.716622,10.3969688 176.189284,12.9979316 L190.867289,78.297782 C212.2023,84.7952619 234.019824,89.5888206 256.11411,92.6332519 L281.492595,41.3867529 C282.513851,39.0915218 284.757083,37.5811798 287.268709,37.4977624 C287.439665,37.4977624 287.611634,37.5260754 287.783602,37.5412431 C290.510922,37.9283668 292.751618,39.8900833 293.494975,42.5415181 L311.583012,96.9530042 C313.187376,96.9701942 314.768473,97.1461391 316.298992,97.1461391 L316.305061,97.1461391 C326.118858,97.2331666 335.92979,96.7686401 345.69142,95.7547583 L355.443038,94.463484 Z" id="base" fill="#FFFFFF"></path>
            <path d="M364.556962,86.5402367 L359.702879,105.596048 C359.356231,106.896505 351.587062,133.084055 324.220128,162.828351 L324.220128,229.346308 C324.137789,234.003722 321.675401,238.294322 317.695648,240.714924 C315.497597,242.03766 312.980375,242.735751 310.41503,242.734029 C308.362971,242.7344 306.338325,242.262738 304.49769,241.355524 L251.804178,213.809741 L251.802151,213.808727 C239.213386,219.75202 226.252039,224.871705 212.999892,229.135478 L212.80731,229.195281 C213.604205,232.019057 213.495732,235.021623 212.497151,237.780532 L193.010881,292.539634 C191.659732,296.498221 188.580958,299.627029 184.644707,301.04177 C179.397584,302.848328 173.579851,301.232735 170.01556,296.979233 L129.781099,248.932236 C129.281507,248.378246 128.909252,247.721599 128.690476,247.00841 C104.619959,249.794592 80.4063502,251.161946 56.1751943,251.103382 L51.4772038,250.713143 C41.9808776,250.399939 25.2181234,245.386638 12.6212248,217.329998 C4.48209572,199.200624 0,175.393023 0,150.291047 C0,125.18907 4.48209572,101.380456 12.6212248,83.2510821 C25.669171,54.1889433 43.189077,49.8496919 52.4705222,49.8496919 C53.0818017,49.8497861 53.6929383,49.8683774 54.3030932,49.9054403 L54.5210151,49.875032 C60.1495827,49.2160104 65.8148577,48.9214505 71.4814194,48.993194 C85.4966435,49.0678407 99.489532,50.121516 113.357897,52.1465252 L159.844183,4.08939188 C163.194872,0.618703351 168.153689,-0.780822174 172.824459,0.425972499 C177.495229,1.63276717 181.155518,5.25922563 182.405687,9.91864553 L199.601244,73.7961564 C215.552236,78.3515106 231.76147,81.9484701 248.142077,84.5677576 L275.66105,37.1329789 C278.05532,33.0046964 282.465995,30.4629751 287.238277,30.4614179 C287.581546,30.4614179 287.925491,30.4749326 288.270112,30.5019621 C293.397792,30.89692 297.845949,34.1943862 299.714558,38.9858524 L319.554572,90.0310991 C335.396986,89.897303 344.908517,88.8208524 344.997713,88.8107163 L364.556962,86.5402367 Z M286.950243,43.5443038 L262.278481,85.8755044 C276.393471,87.6511755 290.58798,88.7319654 304.810127,89.1139241 L286.950243,43.5443038 Z M130.632911,52.9485717 L151.912153,59.4576887 C159.085389,61.2070265 166.569398,63.2177015 174.369273,65.5403603 L174.878736,65.6416537 L175.210906,65.760167 C178.253417,66.8359035 181.284381,67.8694343 184.303797,68.8607595 L169.271588,13.164557 L130.632911,52.9485717 Z M52.1518987,236.962025 C73.683912,236.962025 91.1392405,197.969911 91.1392405,149.872911 C91.1392405,101.77591 73.683912,62.7848101 52.1518987,62.7848101 C30.6198855,62.7848101 13.164557,101.774896 13.164557,149.872911 C13.164557,197.970925 30.6198855,236.962025 52.1518987,236.962025 Z M92.0440396,217.403194 C88.9942601,224.503868 84.880599,231.09905 79.8444665,236.962025 C115.287843,235.702847 146.106802,231.700241 172.900826,225.824076 C180.937512,210.92684 185.316456,186.377931 185.316456,154.278007 C185.316456,118.422853 176.575812,90.3671019 166.006297,77.3657305 C128.135585,66.4731281 98.0804294,63.3961503 78.9873418,62.7848101 C84.4321584,68.8619852 88.8429279,75.7905382 92.0440396,83.2946154 C100.189261,101.428 104.675725,125.240868 104.675725,150.348398 C104.675725,175.455927 100.189261,199.269809 92.0440396,217.403194 Z M179.923264,288.607595 L199.493671,232.911392 C181.319297,238.085265 162.834923,242.068934 144.155199,244.837691 L143.797468,244.915254 L179.923264,288.607595 Z M190.350007,221.772152 L190.350007,221.77114 C219.003049,214.183584 242.557758,204.392015 261.87568,193.681601 C266.049624,184.255343 269.367089,169.717757 269.367089,151.839744 C269.367089,123.967773 261.309086,104.203496 254.500833,99.3066994 C231.400191,96.0751702 208.601108,90.972991 186.329114,84.0506329 C186.78812,85.0317082 187.231115,86.0201708 187.657924,87.0156286 C195.394621,105.133472 199.65472,129.072018 199.65472,154.423237 C199.65472,182.5148 196.492334,205.087221 190.350007,221.772152 Z M309.873418,228.860759 L309.873418,176.202532 L306.771022,178.460664 C306.150747,178.979682 305.717878,179.4987 305.083343,180.017718 C294.405878,188.690746 283.003572,196.454833 270.998749,203.226688 L265.316456,207.081102 L309.873418,228.860759 Z M280.196244,182.278481 L280.196244,182.277464 C335.0471,144.779345 346.329114,102.055128 346.329114,102.055128 C336.343458,103.052534 326.311258,103.504473 316.276819,103.40895 C304.612089,103.40895 290.029406,102.89936 273.417722,101.265823 C274.149632,102.729456 274.827108,104.219927 275.448747,105.734147 C280.544536,118.14435 283.349093,134.488875 283.349093,151.756969 C283.395574,162.015198 282.338488,172.248437 280.196244,182.278481 Z M54.1772152,182.278481 C45.5084419,182.278481 38.4810127,166.863475 38.4810127,147.848101 C38.4810127,128.832728 45.5084419,113.417722 54.1772152,113.417722 C62.8459885,113.417722 69.8734177,128.832728 69.8734177,147.848101 C69.8734177,166.863475 62.8459885,182.278481 54.1772152,182.278481 Z M133.670886,322.025316 L133.670886,372.658228 L86.0759494,349.150379 L133.669864,322.025316 L133.670886,322.025316 Z M134.119135,310.886076 C132.066,310.88583 130.048984,311.421654 128.270877,312.439677 L80.7907286,339.605965 C77.0601695,341.740966 74.8135182,345.735561 74.941934,350.005249 C75.0703498,354.274937 77.5530776,358.129629 81.4053155,360.040318 L128.885464,383.584906 C132.513315,385.383702 136.821618,385.191428 140.271896,383.076744 C143.722173,380.96206 145.822472,377.226486 145.822785,373.20398 L145.822785,322.493104 C145.822785,316.083114 140.583503,310.886634 134.120154,310.886076 L134.119135,310.886076 Z M261.453682,311.898734 L300.759494,368.607595 L249.113924,368.607595 L261.454702,311.898734 L261.453682,311.898734 Z M260.975091,299.746835 C255.467596,299.74773 250.706747,303.570686 249.543489,308.926399 L237.225874,365.655293 C236.479333,369.092958 237.335874,372.682102 239.555962,375.419011 C241.77605,378.15592 245.121394,379.746829 248.656458,379.746835 L300.205089,379.746835 C304.548332,379.746564 308.533668,377.351572 310.55502,373.52703 C312.576373,369.702489 312.300742,365.07846 309.839205,361.51841 L270.608188,304.78749 C268.426423,301.632684 264.82418,299.74776 260.975091,299.746835 L260.975091,299.746835 Z M353.417722,269.367089 L388.860759,284.779052 L356.144421,316.962025 L353.417722,269.367089 L353.417722,269.367089 Z M352.913951,258.227848 C349.709407,258.227654 346.646346,259.545632 344.445895,261.871494 C342.245444,264.197356 341.102017,267.325607 341.284807,270.519776 L344.011291,318.149221 C344.272257,322.709637 347.183522,326.695045 351.45306,328.33671 C355.722598,329.978375 360.559386,328.972144 363.816844,325.764585 L396.530596,293.559291 C399.283821,290.848674 400.510183,286.950613 399.80384,283.155095 C399.097497,279.359578 396.550544,276.161465 393.005844,274.61911 L357.567637,259.195972 C356.099635,258.557072 354.51537,258.227492 352.913951,258.227848 L352.913951,258.227848 Z" id="outline" fill="#000000"></path>
            <g id="alpha" transform="translate(68.860759, 5.063291)" fill="#000000">
                <polygon id="Path-89" fill-opacity="0.15" points="0.496765658 53.5740281 24.0693792 95.9542182 29.5402642 155.861085 15.0185149 214.101429 0.496765658 238.506177 70.7880175 238.506177 166.767645 207.37666 238.26836 166.210739 277.438068 116.071412 286.573846 89.1129876 186.352499 89.1129876 110.864134 71.2903408 40.8677428 53.5740281"></polygon>
                <path d="M102.147543,0.761910608 L120.726809,70.4982453 L51.5146321,50.134124 L102.147543,0.761910608 Z M219.006455,30.177285 L239.317869,88.7109572 L187.748727,81.8614251 L219.006455,30.177285 Z M69.0249851,235.490006 L134.825452,221.807106 L113.188624,287.88016 L69.0249851,235.490006 Z M190.556535,202.623555 L243.990438,161.584174 L243.990438,228.805818 L190.556535,202.623555 Z" id="Path-91" fill-opacity="0.3"></path>
                <path d="M280.99911,258.067616 L324.76066,277.999183 L284.28518,317.04034 L280.99911,258.067616 Z M66.6506334,311.847357 L66.6506334,370.5608 L9.82019832,343.959633 L66.6506334,311.847357 Z M191.301898,300.109102 L237.452147,366.574681 L176.227362,367.587339 L191.301898,300.109102 Z" id="Path-97" fill-opacity="0.5"></path>
            </g>
        </g>
    </g>
</svg>