<?xml version="1.0" encoding="UTF-8"?>
<svg width="512px" height="512px" viewBox="0 0 512 512" version="1.1" xmlns="http://www.w3.org/2000/svg" xmlns:xlink="http://www.w3.org/1999/xlink">
    <!-- Generator: Sketch 53.2 (72643) - https://sketchapp.com -->
    <title>ic_items_sac_base</title>
    <desc>Created with Sketch.</desc>
    <g id="ic_items_sac_base" stroke="none" stroke-width="1" fill="none" fill-rule="evenodd">
        <g id="Group" transform="translate(90.000000, 56.000000)" fill-rule="nonzero">
            <path d="M188.495161,113.073521 L204.756455,128.395401 L243.657564,115.258545 C260.222454,109.664602 273.799754,129.208936 262.776633,142.780176 C248.687836,160.125758 238.199833,174.178606 231.374232,184.80859 C228.181668,189.780593 225.868082,193.886842 224.452898,197.014097 C223.956956,198.110024 223.605215,199.012093 223.391617,199.686512 C223.533909,199.868542 223.788232,200.141309 224.203213,200.512535 C226.313268,202.400114 230.209988,204.59763 236.790622,207.518359 C239.597957,208.764358 250.902469,213.521971 251.048264,213.584314 C257.594491,216.383527 262.780305,218.769728 267.914622,221.429837 C286.345359,230.978873 300.639193,242.531337 311.508148,258.661786 C324.578824,278.059775 331.372979,302.66152 331.372979,333.397953 C331.372979,358.81781 321.757871,379.907996 302.926285,395.182908 C299.819012,397.703319 295.939689,399.078836 291.938738,399.078836 L41.4506341,399.078836 C38.941392,399.078836 36.4616906,398.537426 34.1807985,397.491564 C11.7868172,387.223208 1.10394076,364.724397 1.10394076,333.397953 C1.10394076,302.570734 8.13865416,277.884763 21.6515126,258.449804 C32.8492347,242.344605 47.5396709,230.838154 66.4834317,221.326402 C71.7623913,218.675812 77.0973949,216.296831 83.8363609,213.504308 C83.9791341,213.445145 95.6550977,208.683163 98.5611489,207.433212 C105.409636,204.487538 109.486021,202.259741 111.712174,200.329877 C112.69703,199.4761 112.632146,199.603279 112.632146,199.35376 C112.632146,198.24404 112.213643,196.274123 111.206891,193.570498 C109.927113,190.133662 107.866022,185.987489 105.011893,181.20764 C98.8592387,170.90371 89.3316996,158.157899 76.4710977,143.119705 C64.9334545,129.628477 78.5760435,109.534711 95.3723013,115.280682 L132.468098,127.97109 L145.465506,113.042828 C141.985354,108.88739 139.682655,103.779206 139.253862,98.3500858 C138.540358,97.6797724 137.356613,96.7349892 135.543985,95.4309396 C134.744835,94.856011 131.414636,92.518782 130.626481,91.9557066 C124.164071,87.3388208 119.824556,83.5578778 115.934181,78.3954565 C110.449637,71.1176176 107.466262,62.5962292 107.466262,52.8856906 C107.466262,36.8715336 115.609508,23.0957261 128.770043,13.5959849 C139.780034,5.64858317 153.849287,1.11598704 167.055984,1.11598704 C184.677135,1.11598704 198.545843,6.74814755 207.620125,17.4033281 C214.97196,26.0359809 218.194438,36.7434676 218.194438,47.6215103 C218.194438,62.4111926 206.424191,78.5587881 191.847416,83.2945789 C193.601073,87.3772472 194.546584,91.7732305 194.546584,96.5134392 C194.546584,102.953298 192.24818,108.630497 188.495161,113.073521 L188.495161,113.073521 Z" id="background" fill="#000000"></path>
            <path d="M89.7266893,131.783578 L137.920548,148.270613 L166.084773,115.922397 L200.41632,148.270613 L249.238047,131.783578 C220.313132,167.394813 205.850674,189.918208 205.850674,199.35376 C205.850674,238.121988 313.931118,216.071578 313.931118,333.397953 C313.931118,353.664811 306.600325,369.744485 291.938738,381.636975 L41.4506341,381.636975 C26.1807455,374.635243 18.5458012,358.555569 18.5458012,333.397953 C18.5458012,216.069767 130.074006,238.116279 130.074006,199.35376 C130.074006,185.759662 116.6249,163.236267 89.7266893,131.783578 Z M167.44186,303.488372 L136.046512,347.674419 L198.837209,347.674419 L167.44186,303.488372 Z M82.5581395,303.488372 L51.1627907,347.674419 L113.953488,347.674419 L82.5581395,303.488372 Z M252.325581,303.488372 L220.930233,347.674419 L283.72093,347.674419 L252.325581,303.488372 Z M135.6882,202.410795 L157.500134,224.189035 L157.500134,202.410795 L135.6882,202.410795 Z M198.55612,202.325581 L176.744186,202.325581 L176.744186,224.103821 L198.55612,202.325581 Z M166.186401,105.743156 C161.665394,105.743156 156.623145,100.908252 156.623145,96.5134392 C156.623145,79.6289631 124.908122,77.9409105 124.908122,52.8856906 C124.908122,31.5965319 148.379824,18.5578475 167.055984,18.5578475 C194.887713,18.5578475 200.752578,35.94794 200.752578,47.6215103 C200.752578,55.7418265 191.603934,67.2288396 183.398708,67.2288396 C174.03731,67.2288396 167.055984,66.7923676 167.055984,60.0549036 C167.055984,49.1167693 188.257831,61.4782949 188.257831,47.6215103 C188.257831,32.6972186 175.641208,32.2118816 166.186401,32.2118816 C156.731593,32.2118816 143.553624,43.7979445 143.553624,52.8856906 C143.553624,71.956898 177.104724,77.1314606 177.104724,96.5134392 C177.104724,101.733676 172.025799,105.743156 166.186401,105.743156 Z" id="base" fill="#FFFFFF"></path>
            <polygon id="alpha" fill-opacity="0.1" fill="#000000" points="150.846525 113.466663 181.792599 110.092697 181.792599 82.3426045 199.232493 65.1322849 207.889242 30.0100259 167.44186 3.52388053 125.123907 30.0100259 120.10939 72.4657589 147.52157 93.1970747"></polygon>
        </g>
    </g>
</svg>