<?xml version="1.0" encoding="UTF-8"?>
<svg width="512px" height="512px" viewBox="0 0 512 512" version="1.1" xmlns="http://www.w3.org/2000/svg" xmlns:xlink="http://www.w3.org/1999/xlink">
    <!-- Generator: Sketch 53.2 (72643) - https://sketchapp.com -->
    <title>ic_items_dung_base</title>
    <desc>Created with Sketch.</desc>
    <g id="ic_items_dung_base" stroke="none" stroke-width="1" fill="none" fill-rule="evenodd">
        <g id="Group" transform="translate(81.000000, 56.000000)" fill-rule="nonzero">
            <path d="M27.8000071,289.789797 C27.8000071,265.442016 42.263462,246.578843 67.9305026,234.599544 L71.6652253,232.856477 L74.2226889,232.856477 L74.2226889,226.306678 C74.2226889,205.526788 86.3496155,187.687951 108.186759,173.01028 L112.886481,169.851397 L115.368935,169.851397 L115.368935,164.027436 C115.368935,154.058252 120.758514,146.105557 131.196765,135.523482 C138.833981,127.781037 149.860807,118.299638 164.400451,106.916793 L194.427245,83.4093164 L194.427245,158.530649 L202.032747,158.530649 C214.625416,158.530649 225.427091,164.946867 233.856353,175.956032 C240.581088,184.738972 246.113366,196.77317 250.854062,212.228252 L253.827375,221.921513 L265.635586,221.921513 C280.001414,221.921513 291.810872,229.141043 298.759055,241.884035 C304.242766,251.94118 306.630697,265.079603 306.630697,281.614367 L306.630697,287.898176 C319.326505,292.295327 329.368998,301.473534 335.843634,314.86516 C343.795626,331.312434 346.321471,353.776335 344.209493,382.675183 L342.950887,399.89709 L0.601894773,399.89709 L0.601894773,338.438938 C0.601894773,328.624212 4.69036191,319.75308 11.9453271,312.527961 C16.1794692,308.311238 21.4642281,304.653034 27.8000071,301.419361 L27.8000071,289.789797 Z M49.2707042,111.194779 L1.23839009,111.194779 L1.23839009,0 L71.7305348,0 L71.7305348,79.1077333 L49.2707042,79.1077333 L49.2707042,111.194779 Z M145.865131,111.194779 L97.8328173,111.194779 L97.8328173,0 L168.324962,0 L168.324962,79.1077333 L145.865131,79.1077333 L145.865131,111.194779 Z M242.459559,111.194779 L194.427245,111.194779 L194.427245,0 L264.919389,0 L264.919389,79.1077333 L242.459559,79.1077333 L242.459559,111.194779 Z M326.670085,111.194779 L278.637771,111.194779 L278.637771,0 L349.129916,0 L349.129916,79.1077333 L326.670085,79.1077333 L326.670085,111.194779 Z" id="background" fill="#000000"></path>
            <path d="M19.1777462,381.321239 L19.1777462,338.438938 C19.1777462,329.242401 27.0118648,321.440512 42.6801021,315.03327 L86.3182288,315.03327 C86.3182288,301.840403 73.0041053,293.425912 46.3758585,289.789797 C46.3758585,273.369215 56.1794675,260.583393 75.7866856,251.432329 L133.944786,251.432329 C133.944786,238.809457 120.229371,230.434241 92.7985403,226.306678 C92.7985403,212.592448 101.38208,199.965971 118.549159,188.427249 L160.582908,188.427249 C160.582908,179.217547 151.703534,171.335834 133.944786,164.782111 C133.944786,158.331422 147.913655,143.415408 175.851393,121.543419 L175.851393,177.1065 L202.032747,177.1065 C214.444716,177.1065 224.798769,190.629567 233.094907,217.6757 C216.389579,217.6757 206.035526,225.282921 202.032747,240.497365 L265.635586,240.497365 C280.581759,240.497365 288.054846,254.203032 288.054846,281.614367 C272.478659,281.614367 258.594222,288.907587 246.401534,303.494027 L288.054846,303.494027 C316.932146,303.494027 329.474881,329.436431 325.68305,381.321239 L19.1777462,381.321239 Z M19.8142415,92.6189279 L19.8142415,18.5758514 L53.1546834,18.5758514 L53.1546834,60.5318819 L30.6948528,60.5318819 L30.6948528,92.6189279 L19.8142415,92.6189279 Z M116.408669,92.6189279 L116.408669,18.5758514 L149.749111,18.5758514 L149.749111,60.5318819 L127.28928,60.5318819 L127.28928,92.6189279 L116.408669,92.6189279 Z M213.003096,92.6189279 L213.003096,18.5758514 L246.343538,18.5758514 L246.343538,60.5318819 L223.883707,60.5318819 L223.883707,92.6189279 L213.003096,92.6189279 Z M297.213622,92.6189279 L297.213622,18.5758514 L330.554064,18.5758514 L330.554064,60.5318819 L308.094234,60.5318819 L308.094234,92.6189279 L297.213622,92.6189279 Z" id="foreground" fill="#FFFFFF"></path>
        </g>
    </g>
</svg>