<?xml version="1.0" encoding="UTF-8"?>
<svg width="512px" height="512px" viewBox="0 0 512 512" version="1.1" xmlns="http://www.w3.org/2000/svg" xmlns:xlink="http://www.w3.org/1999/xlink">
    <!-- Generator: Sketch 53.2 (72643) - https://sketchapp.com -->
    <title>ic_items_seed_base</title>
    <desc>Created with Sketch.</desc>
    <g id="ic_items_seed_base" stroke="none" stroke-width="1" fill="none" fill-rule="evenodd">
        <path d="M354.481278,82.0691084 C364.508001,82.0691084 371.73448,88.7035787 374.161948,98.0328931 L374.645311,99.8905653 L374.645311,109 L425.837917,109 L424.977867,124.814548 C423.371431,154.353605 406.668806,170.725634 374.645338,171.265194 L374.645311,206.248829 C375.834308,207.240341 377.325668,208.342752 379.49272,209.846195 C380.592205,210.608988 385.316263,213.82146 386.510643,214.645867 C389.662325,216.821279 392.273239,218.704879 394.830691,220.683304 C403.776686,227.603855 410.802608,234.779179 416.226007,243.39276 C423.01897,254.181521 426.659799,266.454606 426.659799,280.313691 C426.659799,305.430303 420.082316,323.111703 407.595709,333.662963 C402.381849,338.068706 396.516258,340.893872 390.277448,342.426273 C385.953445,343.488352 382.14276,343.825798 377.894094,343.825798 C371.422385,343.825798 363.648235,342.374707 354.265546,339.562177 C352.544318,346.814744 347.921375,352.905363 341.157139,356.990243 C337.855673,358.983978 334.11972,360.47137 330.007249,361.484452 L330.007249,380.241377 C330.007249,406.007636 305.794045,426.56446 281.249954,426.56446 L154.092448,426.56446 C127.624894,426.56446 104.891961,406.61022 104.891961,380.241377 L104.891961,360.356025 C100.349376,359.065587 96.4070405,357.460257 93.02672,355.478185 C84.4687067,350.460142 79.1879455,342.684763 79.1879455,333.076927 L79.1879455,280.102326 L82.1868735,276.102763 C88.5318835,267.64065 96.1909438,261.682664 104.891961,258.541721 L104.891961,246.169974 C104.891961,218.238848 128.596196,197.531007 154.092448,197.531007 L275.186123,197.531007 C257.351894,189.659753 247.56488,172.496394 247.56488,148 L247.56488,133 L281.145493,133 C275.60799,126.7908 272.2346,119.402199 271.739835,110.868176 L270.819868,95 L335.585423,95 C338.856139,87.2719596 345.593537,82.0691084 354.481278,82.0691084 Z M302.371708,202.380051 C318.708448,210.306165 330.007249,227.079864 330.007249,246.169974 L330.007249,257.703156 C334.530622,258.851427 338.590743,260.5686 342.108845,262.852631 C342.907289,263.370999 343.674841,263.917757 344.409719,264.491021 L354.648615,265.36847 C357.260655,265.592316 359.337611,265.542222 360.839091,265.286157 C360.967049,265.264335 361.087189,265.241627 361.19959,265.218288 C361.208893,262.996029 358.943596,259.869758 353.0838,255.037969 C352.4094,254.481881 345.316345,248.905653 343.36856,247.188307 C341.25386,245.323794 339.55714,243.575722 338.11024,241.600279 C335.615468,238.194181 334.04422,234.374487 334.04422,229.832306 L334.04422,198.679986 C321.817603,201.004246 311.28774,202.246707 302.371708,202.380051 Z" id="background" fill="#000000" fill-rule="nonzero"></path>
        <path d="M340.012524,317.431411 L340.012524,333.076927 C340.012524,342.509405 330.722142,348.148633 315.007249,348.148633 L315.007249,380.241377 C315.007249,398.46094 296.435916,411.56446 281.249954,411.56446 L154.092448,411.56446 C136.247819,411.56446 119.891961,398.510803 119.891961,380.241377 L119.891961,348.148633 C102.755951,345.692435 94.1879455,340.668533 94.1879455,333.076927 L94.1879455,317.431411 L340.012524,317.431411 Z M229,338 L229,361.076258 L251.196521,338 L229,338 Z M275,338 L275,361.076258 L297.196521,338 L275,338 Z M137,338 L137,361.076258 L159.196521,338 L137,338 Z M183,338 L183,361.076258 L205.196521,338 L183,338 Z M340.012524,302.431411 L94.1879455,302.431411 L94.1879455,285.101333 C101.253357,275.678446 109.821362,270.967003 119.891961,270.967003 L119.891961,246.169974 C119.891961,225.126976 138.616537,212.531007 154.092448,212.531007 L281.249954,212.531007 C300.0318,212.531007 315.007249,228.077637 315.007249,246.169974 L315.007249,270.967003 C332.156612,270.967003 340.012524,278.166894 340.012524,285.101333 L340.012524,302.431411 Z M297.196521,281.076258 L297.196521,258 L275,281.076258 L297.196521,281.076258 Z M159.196521,281.076258 L159.196521,258 L137,281.076258 L159.196521,281.076258 Z M205.196521,281.076258 L205.196521,258 L183,281.076258 L205.196521,281.076258 Z M251.196521,281.076258 L251.196521,258 L229,281.076258 L251.196521,281.076258 Z M353.367844,280.313691 C368.59521,281.618641 376.208893,276.418347 376.208893,264.71281 C376.208893,247.154504 349.04422,237.23687 349.04422,229.832306 L349.04422,101.810093 C350.048634,98.6494365 351.860987,97.0691084 354.481278,97.0691084 C357.10157,97.0691084 358.822915,98.6494365 359.645311,101.810093 L359.645311,209.576473 C359.645311,223.545732 411.659799,233.284512 411.659799,280.313691 C411.659799,327.34287 386.260211,328.825798 377.894094,328.825798 C372.316683,328.825798 364.512412,327.187352 354.481278,323.91046 L353.367844,280.313691 Z M339,148 L339,182.369121 C323.432335,185.717753 310.693148,187.392069 300.78244,187.392069 C275.304067,187.392069 262.56488,174.261379 262.56488,148 L339,148 Z M370,124 L410,124 C408.829705,145.519314 395.496372,156.278972 370,156.278972 L370,124 Z M339,110 L339,140.278972 C319.433553,140.278972 287.884984,130.185981 286.71469,110 L339,110 Z" id="foreground" fill="#FFFFFF" fill-rule="nonzero"></path>
        <polygon id="alpha" fill-opacity="0.25" fill="#000000" fill-rule="nonzero" points="281.805919 105.287047 287.169126 136.712897 256 136.712897 256 170.550459 284.434122 191.879163 345.445648 187.418003 345.445648 94.945988 361.536711 94.945988 361.536711 164.064385 404.553495 153.29756 418.73222 117.316737 370.128521 117.316737 370.128521 94.945988 352.86119 87.2865323 339.894816 94.945988 339.894816 105.287047"></polygon>
    </g>
</svg>