<?xml version="1.0" encoding="UTF-8"?>
<svg width="512px" height="512px" viewBox="0 0 512 512" version="1.1" xmlns="http://www.w3.org/2000/svg" xmlns:xlink="http://www.w3.org/1999/xlink">
    <!-- Generator: Sketch 53.2 (72643) - https://sketchapp.com -->
    <title>ic_items_meat_base</title>
    <desc>Created with Sketch.</desc>
    <g id="ic_items_meat_base" stroke="none" stroke-width="1" fill="none" fill-rule="evenodd">
        <g id="items_meat_base" transform="translate(56.000000, 138.000000)">
            <path d="M248.94989,13.9211137 C275.977602,13.9211137 297.911833,35.9245903 297.911833,63.0264674 L297.911833,172.704391 C297.911833,199.805338 275.977602,221.809745 248.94989,221.809745 L151.038984,221.809745 C124.022398,221.809745 102.088167,199.805338 102.088167,172.704391 L102.088167,63.0264674 C102.088167,35.9245903 124.022398,13.9211137 151.038984,13.9211137 L248.94989,13.9211137 Z M198.607889,180.046404 L171.229698,147.563805 L143.851508,180.045483 L198.607889,180.045483 L198.607889,180.046404 Z M282.134571,167.052444 L254.755915,134.570766 L227.37819,167.053364 L282.134571,167.053364 L282.134571,167.052444 Z M266.357309,112.296984 L238.979584,79.8143852 L211.600928,112.296984 L266.357309,112.296984 Z M343.027096,90.4448843 C342.738231,88.6315057 342.592997,86.7977949 342.592771,84.9611482 C342.592771,69.8244704 352.332744,57.5406032 364.335829,57.5406032 C376.337989,57.5406032 386.078886,69.8244704 386.078886,84.9611482 C386.078886,100.096894 376.337989,112.380761 364.334904,112.380761 L364.334904,123.349165 C376.337989,123.349165 386.078886,135.633032 386.078886,150.76971 C386.078886,165.905456 376.337989,178.190255 364.334904,178.190255 C352.332744,178.190255 342.591847,165.905456 342.591847,150.76971 C342.591847,148.893941 342.744323,147.061989 343.026172,145.285042 L309.976798,145.285042 L309.976798,90.4448843 L343.027096,90.4448843 L343.027096,90.4448843 Z M57.9019023,90.4448843 C58.1837516,88.6679375 58.3362275,86.8369178 58.3362275,84.9611482 C58.3362275,69.8244704 48.5953302,57.5406032 36.5922457,57.5406032 C24.5900852,57.5406032 14.8491879,69.8244704 14.8491879,84.9611482 C14.8491879,100.096894 24.5900852,112.380761 36.5931698,112.380761 L36.5931698,123.349165 C24.5900852,123.349165 14.8491879,135.633032 14.8491879,150.76971 C14.8491879,165.905456 24.5900852,178.190255 36.5931698,178.190255 C48.5953302,178.190255 58.3362275,165.905456 58.3362275,150.76971 C58.3362275,148.893941 58.1837516,147.061989 57.9019023,145.285042 L90.9512761,145.285042 L90.9512761,90.4448843 L57.9019023,90.4448843 L57.9019023,90.4448843 Z" id="Shape" fill="#FFFFFF"></path>
            <path d="M312.165979,159.154354 C312.162267,163.66897 312.161339,168.182655 312.161339,172.694482 C312.15268,175.364096 311.983792,178.030774 311.655589,180.680091 L311.809634,180.989553 C311.809634,180.989553 311.064464,185.052521 310.078946,188.786511 C303.11815,215.169781 277.673797,235.41585 249.643157,235.685351 C216.832479,235.786647 184.021802,235.68721 151.212052,235.68721 C125.281436,235.607289 100.557198,218.274624 91.8749939,193.6078 C89.5587496,187.028246 88.3774278,180.045369 88.3115411,173.079219 C88.2966934,168.437917 88.2855576,163.796604 88.2781337,159.155284 L71.7303495,159.155284 L71.6004319,159.855058 C68.3562051,176.251903 55.3449622,190.968544 38.480736,191.906224 C25.0778845,192.649676 12.1371684,184.015405 5.84359097,171.568152 C-2.95275528,154.171364 0.0631878884,131.219128 14.8394535,117.97824 C14.8394535,117.97824 8.48462921,111.421918 5.53550078,105.347911 C-3.24878171,87.259713 0.880740484,63.0315264 16.8012085,50.7524796 C22.401583,46.4311621 29.352172,43.8959892 36.4744378,43.8104922 L36.9764763,43.8104922 C53.9399967,44.0121537 68.4592111,58.6358637 71.7303495,76.6097564 L88.3059732,76.6097564 C88.3087571,72.0960706 88.3106131,67.5823848 88.3106131,63.068699 C88.3922755,37.1203493 105.78638,12.3113405 130.327805,3.64733133 C136.897922,1.32775964 143.872638,0.145670218 150.827867,0.0787594957 C183.765678,-0.0262531652 216.705346,-0.0262531652 249.643157,0.0787594957 C275.29909,0.32409881 299.945377,17.5796306 308.596958,42.1563105 C310.913203,48.7358648 312.093596,55.7196714 312.159483,62.6848917 C312.174331,67.326823 312.185467,71.9687544 312.192891,76.6097564 L329.243641,76.6097564 L329.374487,75.9099818 C332.641913,59.3979025 345.619749,44.1738546 363.746031,43.8142095 C363.997514,43.8114215 364.248998,43.8104922 364.499553,43.8114215 C374.178411,43.9257273 383.516699,48.724713 389.826052,56.1666722 C404.36661,73.3171913 403.482242,102.245856 386.134537,117.78773 C386.134537,117.78773 388.600187,120.203021 390.555446,122.650838 C405.831894,141.776153 402.787184,175.082824 379.877151,187.847902 C368.919534,193.953506 354.624891,192.957279 344.324285,185.01349 C336.268469,178.800086 331.081047,169.256944 329.243641,159.155284 L312.165979,159.155284 L312.165979,159.154354 Z M297.901404,172.967608 C297.915309,168.354616 297.915309,67.3446759 297.901404,62.7316836 C297.6678,38.1646875 277.057758,15.1694364 251.155461,14.015956 C250.526344,13.9891642 249.896819,13.973051 249.267157,13.9676232 C216.528219,13.8635218 183.788353,13.9666937 151.048487,13.9666937 C126.373541,14.0456992 103.296746,34.8669045 102.146336,60.8383397 C102.118526,61.4694543 102.104621,62.1005689 102.099986,62.7316836 C102.084227,67.3446759 102.084227,168.354616 102.099986,172.967608 C102.331737,197.533675 122.941778,220.528926 148.844075,221.683336 C149.474437,221.71122 150.102944,221.725162 150.732379,221.731669 C183.576996,221.83577 216.42254,221.83577 249.267157,221.731669 C273.768754,221.497441 296.70279,200.832387 297.8532,174.860952 C297.88101,174.228908 297.894915,173.599652 297.901404,172.967608 L297.901404,172.967608 Z M198.607889,180.046404 L143.851508,180.046404 L171.229698,147.563805 L198.607889,180.046404 Z M88.1670534,90.4523858 L58.0457437,90.4523858 C58.0809484,90.2304458 58.1152266,90.0075733 58.147652,89.7847008 C60.0709393,75.9013275 53.548809,59.4367361 38.7739606,57.6649461 C38.0335403,57.5779351 37.2885322,57.5365163 36.5430956,57.5409208 C29.0880414,57.6295103 22.234246,62.890794 18.6109433,69.6357187 C10.0043254,85.6610927 16.8414449,111.013542 35.4239574,112.348912 C35.8436342,112.379686 36.2633111,112.392741 36.6839144,112.394606 L36.6839144,123.364783 C36.5449485,123.364783 36.4032034,123.367581 36.2623846,123.370379 C28.7739786,123.579263 21.862744,129.068082 18.3218943,136.013499 C10.5638945,151.232242 15.9390933,174.268309 33.0967427,177.84919 C39.4261737,179.16964 46.2243827,176.555784 50.7481841,171.741177 C57.0942909,164.988793 59.475239,154.89705 58.0976243,145.639913 L58.0457437,145.307003 L88.1364809,145.307003 C88.1244372,127.022131 88.149451,108.737258 88.1670534,90.4523858 L88.1670534,90.4523858 Z M342.654751,145.311715 C340.479368,158.899277 346.732311,175.103633 360.678816,177.882696 C368.361189,179.413977 376.518174,175.069128 380.997616,168.366739 C391.811123,152.186629 384.310575,123.448516 364.154952,123.368315 L364.154952,112.397547 L364.579213,112.391952 C371.871826,112.189584 378.647867,107.052049 382.271329,100.436389 C390.591491,85.2429398 384.983797,62.0303106 368.305243,58.0314454 C366.899281,57.6971414 365.458346,57.5324578 364.013222,57.540913 C353.091552,57.6705404 344.444103,68.8968322 342.688319,79.2763494 C342.073841,82.9124445 342.063584,86.6436618 342.62771,90.2881499 L311.86465,90.4420242 C311.874906,108.73161 311.850663,127.021196 311.832947,145.311715 L342.654751,145.311715 L342.654751,145.311715 Z M282.134571,167.053364 L227.37819,167.053364 L254.756381,134.570766 L282.134571,167.053364 L282.134571,167.053364 Z M266.357309,112.296063 L211.600928,112.296063 L238.978653,79.8143852 L266.357309,112.296984 L266.357309,112.296063 Z" id="Shape" fill="#000000"></path>
        </g>
    </g>
</svg>