<?xml version="1.0" encoding="UTF-8"?>
<svg width="512px" height="512px" viewBox="0 0 512 512" version="1.1" xmlns="http://www.w3.org/2000/svg" xmlns:xlink="http://www.w3.org/1999/xlink">
    <!-- Generator: Sketch 53.2 (72643) - https://sketchapp.com -->
    <title>ic_items_smoke_base</title>
    <desc>Created with Sketch.</desc>
    <g id="ic_items_smoke_base" stroke="none" stroke-width="1" fill="none" fill-rule="evenodd">
        <g id="smoke_base" transform="translate(69.000000, 56.000000)" fill-rule="nonzero">
            <path d="M334.218085,123.404255 L307.446809,123.404255 L307.446809,59.5882979 C307.446809,30.7255319 285.565957,8.5106383 256.468085,8.5106383 L109.102128,8.5106383 C94.9670213,8.5106383 80.9787234,13.4989362 70.9393617,22.9148936 C60.6159574,32.5968085 54.2553191,45.4946809 54.2553191,59.5882979 L54.2553191,130.520213 C54.3356499,133.414423 54.5643188,136.302612 54.9404255,139.173404 C27.546211,147.205994 8.67055308,172.26455 8.5106383,200.811702 L8.5106383,220.506383 C8.5106383,255.582979 39.5702128,285.106383 75.4851064,285.106383 L157.467021,285.106383 C173.935106,285.106383 188.415957,298.734043 189.743617,315.418085 C189.820508,316.36723 190.050428,317.297687 190.424468,318.173404 L190.414894,322.540426 C190.273404,329.517021 188.071277,352.12766 165.689362,352.12766 L155.319149,352.12766 L155.319149,390.425532 L246.808511,390.425532 L246.808511,352.842553 L239.248936,352.115957 C222.592553,350.584043 211.807447,339.053191 211.510638,322.740426 L211.574468,311.02766 C214.015957,296.357447 223.244681,286.635106 236.47234,285.230851 L333.52766,285.217021 C350.593617,285.217021 363.829787,270.843617 363.829787,253.174468 L363.829787,153.811702 C363.829787,136.476596 351.574468,123.404255 334.218085,123.404255 Z" id="Shape" fill="#FFFFFF"></path>
            <path d="M334.797872,114.893617 L317.021277,114.893617 L317.021277,59.587234 C317.021277,43.137234 311.06383,28.1882979 299.691489,16.9702128 C288.409574,5.83829787 273.462766,0 257.047872,0 L109.681915,0 C93.3287234,0 77.562766,5.73191489 65.9053191,16.6648936 C53.8085106,28.0085106 46.8085106,43.0648936 46.8085106,59.587234 L46.8085106,130.520213 C46.8085106,131.37766 46.5989362,132.243617 46.6148936,133.118085 C19.2638298,144.081915 0,170.734043 0,200.811702 L0,220.506383 C0,260.296809 35.4361702,294.680851 76.0648936,294.680851 L158.046809,294.680851 C169.882979,294.680851 180.695745,304.776596 181.656383,316.837234 C181.690426,317.273404 181.755319,317.653191 181.821277,318.079787 L181.721277,322.858511 C181.581915,329.739362 179.86383,335.882979 176.884043,339.611702 C175.248936,341.659574 172.308511,344.680851 165.689362,344.680851 L145.744681,344.680851 L145.744681,400 L255.319149,400 L255.319149,344.910638 L239.953191,343.457447 C227.824468,342.342553 220.373404,334.632979 220.158511,322.87234 L220.148936,318.265957 C220.278444,317.618139 220.371498,316.963564 220.42766,316.305319 C220.861702,310.204255 223.429787,295.847872 237.725532,294.071277 L334.276596,293.98617 C356.135106,293.98617 373.404255,275.638298 373.404255,253.175532 L373.404255,153.811702 C373.404255,131.601064 357.029787,114.893617 334.797872,114.893617 Z M237.234043,360.851921 L237.234043,382.978723 L163.829787,382.978723 L163.829787,361.774313 L165.689362,361.774313 C184.297872,361.774313 195.067021,349.445008 198.173404,332.978723 C198.446809,332.991446 198.715957,333.148359 198.992553,333.148359 L203.098936,333.148359 C203.390426,333.148359 203.18617,333.007349 203.475532,332.992506 C205.560638,344.000776 212.765957,360.851921 237.234043,360.851921 Z M356.382979,253.175532 C356.382979,265.78617 347.074468,276.521277 334.46383,276.521277 L236.639362,276.973404 C219.973404,278.534043 208.579787,290.425532 204.554255,306.382979 L197.119149,306.382979 C191.712766,289.361702 175.968085,276.595745 158.046809,276.595745 L76.0638298,276.595745 C45.4861702,276.595745 17.0212766,251.085106 17.0212766,220.506383 L17.0212766,200.811702 C17.0212766,174.340426 36.893617,152.056383 61.8351064,146.542553 C67.062766,146.55 77.2446809,146.557447 94.6904255,146.557447 C94.8180851,146.557447 95.0585106,146.555319 95.1851064,146.548936 C95.4159574,146.540426 118.260638,145.857447 129.747872,156.848936 C134.170213,161.081915 136.348936,166.569149 136.348936,173.623404 C136.348936,183.126596 134.017021,190.1 129.390426,194.351064 C122.83617,200.37234 113.190426,199.62766 113.160638,199.62766 C112.828608,199.591437 112.494545,199.577221 112.160638,199.585106 C112.069149,199.585106 105.47234,199.479787 100.88617,194.960638 C97.5882979,191.710638 95.9170213,186.641489 95.9170213,179.891489 C95.9170213,175.088962 92.0238038,171.195745 87.2212766,171.195745 C82.4187494,171.195745 78.5255319,175.088962 78.5255319,179.891489 C78.5255319,191.471277 81.9425532,200.708511 88.6808511,207.348936 C97.6808511,216.217021 109.215957,216.932979 111.948936,216.973404 C112.666522,217.017434 113.385322,217.038722 114.104255,217.037234 C119.394681,217.037234 131.406383,215.956383 140.962766,207.318085 C149.460638,199.637234 153.768085,188.26383 153.768085,173.568085 C153.768085,161.680851 149.751064,151.754255 141.82766,144.17234 C125.426596,128.47766 97.5,128.841489 94.5191489,128.942553 C79.1702128,128.942553 69.1489362,128.875532 63.8297872,128.810638 L63.8297872,59.587234 C63.8297872,35.2159574 85.3117021,17.0212766 109.681915,17.0212766 L257.047872,17.0212766 C281.419149,17.0212766 298.93617,35.2159574 298.93617,59.587234 L298.93617,72.1606383 C287.234043,59.0106383 270.015957,52.2978723 247.685106,52.206383 C242.740426,51.7202128 207.774468,49.0404255 186.174468,68.2989362 C175.192553,78.0882979 169.717021,91.5829787 169.717021,108.405319 C169.717021,128.296809 175.17766,143.175532 185.856383,152.628723 C197.543617,162.973404 211.689362,163.021277 215.881915,162.774468 C219.862766,163.144681 232.51383,163.454255 243.15,154.27234 C252.490426,146.210638 257.232979,133.498936 257.232979,116.492553 C257.232979,111.691201 253.340714,107.798936 248.539362,107.798936 C243.73801,107.798936 239.845745,111.691201 239.845745,116.492553 C239.845745,128.120213 237.180851,136.362766 231.926596,140.994681 C225.757447,146.430851 217.341489,145.439362 217.328723,145.439362 C216.586318,145.306308 215.827358,145.293378 215.080851,145.401064 C214.97766,145.409574 204.919149,146.362766 197.275532,139.469149 C190.588298,133.437234 187.198936,122.98617 187.198936,108.405319 C187.198936,96.612766 190.694681,87.7510638 197.888298,81.3159574 C214.797872,66.1882979 246.292553,69.506383 246.593617,69.5393617 C246.923452,69.5774879 247.255203,69.5966683 247.587234,69.5968085 C264.976596,69.5968085 278.140426,74.362766 286.706383,83.7617021 C300.642553,99.0489362 298.665957,122.255319 298.647872,122.459574 C298.619504,122.746099 298.605319,123.033333 298.605319,123.321277 C298.605319,145.212766 292.823404,161.467021 281.42234,171.632979 C264.776596,186.473404 240.896809,183.975532 240.494681,183.930851 C235.744297,183.387861 231.446671,186.781932 230.874002,191.52883 C230.301333,196.275727 233.668477,200.594482 238.411702,201.196809 C240.610887,201.42984 242.821557,201.537461 245.032979,201.519149 C255.484043,201.519149 276.253191,199.306383 292.83617,184.625532 C306.485106,172.543617 314.140426,155.319149 315.687234,131.914894 L334.798936,131.914894 C347.409574,131.914894 356.382979,141.2 356.382979,153.811702 L356.382979,253.175532 Z" id="Shape" fill="#000000"></path>
        </g>
    </g>
</svg>