<?xml version="1.0" encoding="UTF-8"?>
<svg width="512px" height="512px" viewBox="0 0 512 512" version="1.1" xmlns="http://www.w3.org/2000/svg" xmlns:xlink="http://www.w3.org/1999/xlink">
    <!-- Generator: Sketch 53.2 (72643) - https://sketchapp.com -->
    <title>ic_items_bone_base</title>
    <desc>Created with Sketch.</desc>
    <g id="ic_items_bone_base" stroke="none" stroke-width="1" fill="none" fill-rule="evenodd">
        <g id="Group" transform="translate(73.000000, 56.000000)" fill-rule="nonzero">
            <path d="M205.801783,93.9947781 L328.639039,93.9947781 C348.869463,93.9947781 365.269461,110.360349 365.269461,130.548303 L365.269461,317.493473 C365.269461,326.99583 361.806352,335.464101 355.85021,341.964684 L355.85021,400 L21.990078,400 L21.990078,341.964684 C16.1350869,335.485581 12.5708267,326.904892 12.5708267,317.493473 L12.5708267,130.548303 C12.5708267,110.360349 28.9708252,93.9947781 49.2012487,93.9947781 L57.1474881,93.9947781 L57.1474881,0.452959781 L151.76643,0.452959781 L247.920079,0 L247.920079,42.2237663 L238.013865,42.2237663 L238.013865,76.3616595 L205.801783,76.3616595 L205.801783,93.9947781 Z M151.76643,93.9947781 L151.76643,42.676726 L143.394923,42.676726 L143.394923,76.8146193 L111.182841,76.8146193 L111.182841,93.9947781 L151.76643,93.9947781 Z M162.920082,231.417331 C185.942845,235.112424 200.955854,250.566722 200.955854,278.3235 L200.955854,327.898909 C200.955854,344.341784 191.254089,355.325389 175.30474,355.325389 L85.3413278,355.325389 C64.4485812,355.325389 45.8453899,352.653282 31.688246,347.097781 C12.9240716,339.734404 0.107539375,326.855414 0.107539375,308.95104 C0.0358464582,295.902553 0,285.693373 0,278.3235 C0,252.013286 8.79429816,231.360298 25.0975084,217.43913 C38.8504427,205.69562 56.9406179,199.610007 76.8334317,198.587913 C105.191339,197.130881 125.759807,204.811147 139.897557,219.218596 C143.459239,222.848222 146.132099,226.318016 148.797369,230.462709 C154.214468,230.428148 158.233515,230.665149 162.920082,231.417331 Z" id="background" fill="#000000"></path>
            <path d="M293.364099,236 L255.25,236 L255.25,109.613068 L294,109.613068 L293.364099,236 Z M237.25,236 L200.208333,236 L200.208333,109.613068 L237.25,109.613068 L237.25,236 L237.25,236 Z M104,167 L104,200.533865 C95.3984419,199.362564 86.5107024,198.776914 77.3367815,198.776914 C65.7845679,198.776914 56.4368341,201.50019 51.9095968,202.979141 L28.1043783,203.25 L28.1043783,167 L104,167 Z M137.208333,149 L133.071942,149 L100.654519,109.613068 L137.208333,109.613068 L137.208333,149 L137.208333,149 Z M28.1043783,149 L28.1043783,130.511781 C28.1043783,118.969741 37.4494823,109.613068 48.9772523,109.613068 L77.3418324,109.613068 L109.759255,149 L28.1043783,149 Z M155.208333,230.635827 L155.208333,109.613068 L182.208333,109.613068 L182.208333,238.932436 C176.630035,235.144282 169.936364,232.651223 162.376657,231.433852 C159.902529,231.035433 157.614962,230.78148 155.208333,230.635827 L155.208333,230.635827 Z M327.63012,109.613068 C339.15789,109.613068 348.502994,118.969741 348.502994,130.511781 L348.502994,154.207964 L312,154.257365 L312,109.613068 L327.63012,109.613068 Z M316.530381,172.381447 L348.502994,172.214067 L348.502994,201.25 L316.530381,201.25 L316.530381,172.381447 Z M316.530381,219.25 L348.502994,219.25 L348.502994,251.5 L316.530381,251.5 L316.530381,219.25 Z M316.260111,269.5 L348.502994,269.5 L348.502994,317.555258 C348.502994,322.099947 347.054131,326.305817 344.59365,329.735081 L299.731791,283.113933 L316.260111,269.5 L316.260111,269.5 Z M285.796565,294.592005 L328.000263,338.45075 C327.877139,338.452894 327.753755,338.45397 327.63012,338.45397 L198.790061,338.45397 C199.786125,335.297168 200.305589,331.778309 200.305589,327.966165 L200.305589,315.642474 L260.239742,315.642474 L285.796565,294.592005 L285.796565,294.592005 Z M184.650933,278.364687 L184.650933,327.966165 C184.650933,336.417356 181.297405,339.733034 174.726527,339.733034 L85.0158163,339.733034 C48.7435807,339.733034 15.6732906,330.922287 15.6732906,309.008333 L15.5688623,278.364687 C15.5688623,231.619683 47.1136574,215.798529 77.3367815,214.24047 C130.384032,211.505783 136.444465,246.302578 140.413219,246.302578 C153.177207,246.226008 184.650933,242.396993 184.650933,278.364687 Z M33.0014844,246.636337 L33.0014844,280.473003 L67.3880001,280.473003 L67.3880001,246.636337 L33.0014844,246.636337 Z M72.5558268,81.0493137 L72.5558268,16.0220602 L137.130075,16.0220602 L137.130075,26.9199616 L95.1300864,26.9199616 L95.1300864,48.535687 L127.251687,48.535687 L127.251687,61.0758066 L95.1300864,61.0758066 L95.1300864,81.0493137 L72.5558268,81.0493137 Z M166.90899,80.5961158 L166.90899,15.5688623 L231.483239,15.5688623 L231.483239,26.4667636 L189.48325,26.4667636 L189.48325,48.082489 L221.604851,48.082489 L221.604851,60.6226087 L189.48325,60.6226087 L189.48325,80.5961158 L166.90899,80.5961158 Z M314.062752,361.442554 L339.110201,361.442554 L339.110201,384.431138 L314.062752,384.431138 L314.062752,361.442554 Z M258.749636,361.442554 L283.797085,361.442554 L283.797085,384.431138 L258.749636,384.431138 L258.749636,361.442554 Z M203.43652,361.442554 L228.483969,361.442554 L228.483969,384.431138 L203.43652,384.431138 L203.43652,361.442554 Z M148.123404,361.442554 L173.170853,361.442554 L173.170853,384.431138 L148.123404,384.431138 L148.123404,361.442554 Z M92.8102877,361.442554 L117.857736,361.442554 L117.857736,384.431138 L92.8102877,384.431138 L92.8102877,361.442554 Z M62.5446204,352.161237 L62.5446204,384.431138 L37.4971716,384.431138 L37.4971716,348.245973 C44.6565113,350.766994 53.0056609,352.072082 62.5446204,352.161237 Z" id="base" fill="#FFFFFF"></path>
            <polygon id="alpha" fill-opacity="0.15" fill="#000000" points="32.3353293 342.51497 32.3353293 389.221557 346.107784 389.221557 346.107784 353.935786"></polygon>
            <polygon id="Path-3" fill="#000000" points="54.3744534 296.756149 88.0854905 296.756149 101.908469 286.724269 118.47622 296.756149 135.986677 286.724269 153.271876 296.756149 186.607858 296.756149 186.607858 310.065538 153.271876 310.065538 135.986677 300.744348 118.47622 310.065538 101.908469 300.744348 88.0854905 310.065538 54.3744534 310.065538"></polygon>
        </g>
    </g>
</svg>