<?xml version="1.0" encoding="UTF-8"?>
<svg width="512px" height="512px" viewBox="0 0 512 512" version="1.1" xmlns="http://www.w3.org/2000/svg" xmlns:xlink="http://www.w3.org/1999/xlink">
    <!-- Generator: Sketch 53.2 (72643) - https://sketchapp.com -->
    <title>ic_items_coin_base</title>
    <desc>Created with Sketch.</desc>
    <g id="ic_items_coin_base" stroke="none" stroke-width="1" fill="none" fill-rule="evenodd">
        <g id="Group" transform="translate(57.000000, 56.000000)" fill-rule="nonzero">
            <polygon id="background" fill="#000000" points="282.693495 2.64796794 397.706506 119.686059 396.274559 283.770968 279.236468 398.783979 115.151559 397.352032 0.138547667 280.313941 1.57049497 116.229032 118.608586 1.21602064"></polygon>
            <path d="M23.0726528,143.478261 L44.812611,143.478261 L43.8260955,256.521739 L22.0861373,256.521739 L23.0726528,143.478261 Z M26.9789915,121.73913 L115.942029,34.3153969 L115.942029,64.7943549 L57.9946044,121.73913 L26.9789915,121.73913 Z M375.758917,143.478261 L374.772401,256.521739 L353.032443,256.521739 L354.018959,143.478261 L375.758917,143.478261 Z M369.245096,121.73913 L338.766138,121.73913 L279.710145,61.6433151 L279.710145,30.6277022 L369.245096,121.73913 Z M28.599958,278.26087 L59.0789159,278.26087 L116.046873,336.231884 L115.942029,336.231884 L115.942029,367.140807 L28.599958,278.26087 Z M370.866063,278.26087 L279.710145,367.83954 L279.710145,337.360582 L339.85045,278.26087 L370.866063,278.26087 Z M257.971014,376.85844 L137.681159,375.808687 L137.681159,354.068728 L257.971014,355.118482 L257.971014,376.85844 Z M257.971014,24.1721764 L257.971014,45.9121346 L137.681159,44.8623809 L137.681159,23.1224227 L257.971014,24.1721764 Z M255.111473,67.627138 L332.25586,146.129837 L331.295389,256.188946 L252.79269,333.333333 L142.733581,332.372862 L65.5891937,253.870163 L66.549665,143.811054 L145.052364,66.6666667 L255.111473,67.627138 Z M295.801867,171.116043 L135.259706,114.099512 C116.198666,124.864023 106.668146,134.366778 106.668146,142.607777 L106.668146,210.39396 C122.238362,184.208682 131.768882,171.116043 135.259706,171.116043 C140.495941,171.116043 194.660922,201.2686 194.660922,229.548577 C194.660922,248.401895 178.908006,266.707115 147.402172,284.464238 C161.135053,295.767591 170.787944,301.419268 176.360844,301.419268 C181.933743,301.419268 198.823988,285.485365 227.031578,253.617561 L250.619306,275.940449 L305.590497,221.873156 L273.765882,196.921868 L295.801867,171.116043 Z M257.831269,172.205121 L236.602826,188.892046 L220.041891,167.565169 L257.831269,172.205121 Z" id="foreground" fill="#FFFFFF"></path>
            <polygon id="alpha" fill-opacity="0.1953125" fill="#000000" points="143.960931 53.1582714 55.1519709 139.566892 55.1519709 261.124357 135.541831 342.900682 260.137337 342.900682 342.099957 261.124357 342.099957 139.566892 260.137337 53.1582714"></polygon>
        </g>
    </g>
</svg>