<?xml version="1.0" encoding="UTF-8"?>
<svg width="512px" height="512px" viewBox="0 0 512 512" version="1.1" xmlns="http://www.w3.org/2000/svg" xmlns:xlink="http://www.w3.org/1999/xlink">
    <!-- Generator: Sketch 53.2 (72643) - https://sketchapp.com -->
    <title>ic_items_barrel_bomb_base</title>
    <desc>Created with Sketch.</desc>
    <g id="ic_items_barrel_bomb_base" stroke="none" stroke-width="1" fill="none" fill-rule="evenodd">
        <g id="barrel_base" transform="translate(106.000000, 56.000000)" fill-rule="nonzero">
            <path d="M294.045549,203.9552 C288.630795,184.7424 280.109251,170.218667 269.443988,160.465067 L269.443988,120.533333 L29.4755855,120.533333 L29.4755855,160.465067 C18.8103232,170.218667 10.8423057,184.7424 5.42861853,203.9552 C2.70598415,213.801181 0.888885608,223.875445 0,234.052267 L0.08212252,286.151467 C0.953917869,296.134477 2.73893086,306.016539 5.41475369,315.6736 C10.8113764,334.676267 18.8103232,348.896 29.4755855,357.9936 L29.4755855,400 L269.443988,400 L269.443988,357.994667 C280.109251,348.896 288.630795,334.677333 294.027418,315.6736 C296.771302,306.014494 298.680294,296.137458 299.733333,286.151467 L299.676807,234.052267 C298.687043,223.873993 296.802673,213.802708 294.045549,203.9552 Z" id="Shape" fill="#000000"></path>
            <path d="M16,247.466667 L61.8666667,247.466667 L61.8666667,270.933333 L16,270.933333 L16,247.466667 Z M84.2666667,247.466667 L140.8,247.466667 L140.8,270.933333 L84.2666667,270.933333 L84.2666667,247.466667 Z M282.666667,270.933333 L236.8,270.933333 L236.8,247.466667 L282.666667,247.466667 L282.666667,270.933333 Z M217.6,270.933333 L161.066667,270.933333 L161.066667,247.466667 L217.6,247.466667 L217.6,270.933333 Z M70.1463607,170.666667 L48.5920021,170.666667 C20.2192002,186.666667 17.0666667,237.866667 17.0666667,237.866667 L86.8741331,237.866667 C86.8741331,193.066667 98.1333333,170.666667 98.1333333,170.666667 L70.1463607,170.666667 Z M70.1463607,345.6 L48.5920021,345.6 C20.2192002,330.666667 17.0666667,281.6 17.0666667,281.6 L86.8741331,281.6 C86.8741331,323.2 98.1333333,345.6 98.1333333,345.6 L70.1463607,345.6 Z M184.569602,170.666667 L116.232521,170.666667 C99.0270861,186.666667 101.450387,237.866667 101.450387,237.866667 L199.349602,237.866667 C199.349602,237.866667 201.772903,186.666667 184.568535,170.666667 L184.569602,170.666667 Z M230.654335,170.666667 L252.207348,170.666667 C280.580841,186.666667 283.733333,237.866667 283.733333,237.866667 L213.926782,237.866667 C213.926782,193.066667 202.666667,170.666667 202.666667,170.666667 L230.654335,170.666667 Z M199.349602,281.6 L101.450387,281.6 C101.450387,281.6 99.0270861,329.6 116.232521,345.6 L184.568535,345.6 C201.772903,329.6 199.349602,281.6 199.349602,281.6 Z M230.654335,345.6 L252.207348,345.6 C280.580841,330.666667 283.733333,281.6 283.733333,281.6 L213.926782,281.6 C213.926782,323.2 202.666667,345.6 202.666667,345.6 L230.654335,345.6 Z M46.9333333,134.4 L80,134.4 L80,155.733333 L46.9333333,155.733333 L46.9333333,134.4 Z M218.666667,134.4 L252.8,134.4 L252.8,155.733333 L218.666667,155.733333 L218.666667,134.4 Z M164.266667,134.4 L195.2,134.4 L195.2,155.733333 L164.266667,155.733333 L164.266667,134.4 Z M104.533333,134.4 L138.666667,134.4 L138.666667,155.733333 L104.533333,155.733333 L104.533333,134.4 Z M46.9333333,361.6 L80,361.6 L80,384 L46.9333333,384 L46.9333333,361.6 Z M218.666667,361.6 L252.8,361.6 L252.8,384 L218.666667,384 L218.666667,361.6 Z M164.266667,361.6 L195.2,361.6 L195.2,384 L164.266667,384 L164.266667,361.6 Z M104.533333,361.6 L138.666667,361.6 L138.666667,384 L104.533333,384 L104.533333,361.6 Z M185.6,69.3333333 L238.933333,69.3333333 L238.933333,102.4 L185.6,102.4 L185.6,69.3333333 Z M134.4,82.1333333 L167.466667,82.1333333 L167.466667,118.4 L134.4,118.4 L134.4,82.1333333 Z M62.9333333,69.3333333 L116.266667,69.3333333 L116.266667,102.4 L62.9333333,102.4 L62.9333333,69.3333333 Z M134.4,6.4 L167.466667,6.4 L167.466667,58.6666667 L134.4,58.6666667 L134.4,6.4 Z M166.4,52.9097226 L204.377876,14.9333333 L228.266667,38.8225378 L190.28879,76.8 L166.4,52.9097226 Z M74.6666667,38.8225378 L98.5569441,14.9333333 L136.533333,52.9107955 L112.644129,76.8 L74.6666667,38.8225378 Z" id="base" fill="#FFFFFF"></path>
            <path d="M213.794133,62.9333333 L237.591467,39.0954667 L204.706133,6.19946667 L173.866667,36.4522667 L173.866667,0 L126.933333,0 L126.933333,35.68 L98.208,6.19733333 L65.5434667,39.0826667 L89.3728,62.9333333 L56.5333333,62.9333333 L56.5333333,109.866667 L126.933333,109.688533 L126.933333,130.133333 L173.866667,130.133333 L173.866667,109.866667 L244.266667,109.866667 L244.266667,62.9333333 L213.794133,62.9333333 Z M139.733333,48.5984 L139.733333,12.8 L161.066667,12.8 L161.066667,53.3333333 L139.733333,53.3333333 L139.733333,48.5984 Z M109.866667,83.3642667 L109.866667,97.0666667 L69.3333333,97.0666667 L69.3333333,75.7333333 L109.866667,75.7333333 L109.866667,83.3642667 Z M118.096749,63.3858299 L113.216871,68.2666667 L108.336993,63.3858299 L84.2666667,39.3160976 L99.0497956,24.5333333 L128,53.4839024 L118.096749,63.3858299 Z M161.066667,115.2 L139.733333,115.2 L139.733333,82.1333333 L161.066667,82.1333333 L161.066667,115.2 Z M185.903006,63.3869088 L176,53.4828235 L204.94949,24.5333333 L219.733333,39.3160976 L195.663601,63.3858299 L190.782764,68.2666667 L185.903006,63.3869088 Z M231.466667,97.0666667 L190.933333,97.0666667 L190.933333,75.7333333 L231.466667,75.7333333 L231.466667,97.0666667 Z" id="Shape" fill="#000000"></path>
        </g>
        <path d="M146.135896,219.003599 L146.135896,183.351655 L240.212496,183.351655 L240.212496,132.514288 L272.62204,132.514288 L272.62204,183.351655 L364.045439,183.351655 L364.045439,219.003599 L146.135896,219.003599 Z M116.336177,300.7251 L394.972949,300.7251 L394.972949,330.839299 L116.336177,330.839299 L116.336177,300.7251 Z M146.521738,409.354296 L362.671177,409.354296 L362.671177,448.265803 L146.521738,448.265803 L146.521738,409.354296 Z" id="Path-92" fill-opacity="0.25" fill="#000000" fill-rule="nonzero"></path>
    </g>
</svg>