<?xml version="1.0" encoding="UTF-8"?>
<svg width="512px" height="512px" viewBox="0 0 512 512" version="1.1" xmlns="http://www.w3.org/2000/svg" xmlns:xlink="http://www.w3.org/1999/xlink">
    <!-- Generator: Sketch 53.2 (72643) - https://sketchapp.com -->
    <title>ic_items_carapace_base</title>
    <desc>Created with Sketch.</desc>
    <g id="ic_items_carapace_base" stroke="none" stroke-width="1" fill="none" fill-rule="evenodd">
        <g id="carapace" transform="translate(56.000000, 74.000000)">
            <polygon id="Shape" fill="#FFFFFF" points="393.069307 147.04488 353.993608 188.937137 354.946915 203.219667 292.99778 267.963774 200.550732 358.415842 144.320451 303.192432 54.731345 207.98051 55.6856422 191.794236 10.8910891 142.284036 111.915923 43.2636372 137.64829 68.9706089 198.645107 10.8910891 255.828696 60.4012887 284.419995 35.6466834"></polygon>
            <path d="M205.068804,0.736962593 C207.941678,2.12539452 207.964471,2.1362803 210.457797,4.12145097 L255.004688,48.7788845 L269.954732,31.7070105 C271.632475,30.3759763 273.343911,29.0211914 275.343725,28.3225221 C278.40711,27.2669674 281.736347,27.2669674 284.799732,28.3225221 C287.522967,29.2745332 287.982785,29.9514309 290.188724,31.7070105 L395.818132,137.177367 C397.150019,138.852787 398.505691,140.561855 399.20731,142.570776 C400.275595,145.610878 400.252803,149.007242 399.20731,152.013697 C398.252989,154.721288 397.575153,155.192345 395.818132,157.395231 L366.172727,186.986744 C363.679401,188.98379 363.667509,188.98379 360.783734,190.371232 L360.485447,190.440505 L361.922379,192.241607 L363.311744,195.121391 C363.794356,197.210471 364.265075,199.333199 364.024265,201.44504 C363.667509,204.622699 361.956073,207.411438 359.921575,209.946836 L267.243389,302.509624 C264.324929,304.827306 260.980345,306.605647 256.718106,306.605647 L256.718106,308.601703 C256.097747,311.355806 256.143333,312.17026 254.615229,314.602737 C254.052348,315.509226 253.282351,316.278158 252.616407,317.104488 L210.459779,359.202773 C208.252848,360.970228 207.782129,361.647126 205.069795,362.588251 C201.060258,363.988558 196.360993,363.482864 192.730013,361.199819 C191.822268,360.637717 191.05227,359.868785 190.224795,359.203763 L155.260758,324.299 C152.927972,321.372704 151.158068,318.044624 151.158068,313.789273 L149.147353,313.789273 C148.113753,313.547806 147.033576,313.433011 146.033669,313.076749 C143.310434,312.124738 142.839715,311.44784 140.632785,309.69226 L48.6671194,217.840017 C46.8972149,215.63713 46.2193791,215.177948 45.2779405,212.458482 C43.8519089,208.385221 44.4038892,203.737982 46.6673057,200.135778 C47.6900053,198.517755 48.6790112,197.611266 49.9534218,196.33763 L49.770089,196.292107 C46.886314,194.914561 46.8744222,194.903675 44.3810964,192.917515 L4.16581381,152.758878 C2.40780116,150.555002 1.72996539,150.084934 0.776634964,147.377344 C-0.625613007,143.372366 -0.109308277,138.679604 2.16600009,135.05365 C2.74077311,134.147161 3.49887891,133.378229 4.16581381,132.552889 L98.3037246,38.5442708 C100.509664,36.7886911 100.981374,36.1117935 103.692717,35.1597824 C107.714146,33.7594751 112.390619,34.2641795 116.03349,36.5472247 C116.941235,37.1212023 134.624425,55.1243054 136.014781,58.0040894 L190.224795,4.12145097 L192.730013,2.12539452 C193.683343,1.66621247 194.60298,1.09223491 195.613788,0.736962593 C198.337023,-0.204162684 199.117921,0.0244387241 201.944219,0.0244387241 C202.97881,0.265905146 204.025294,0.507371569 205.069795,0.736962593 L205.068804,0.736962593 Z M165.346535,314.492827 L200.347743,349.50495 L242.574257,307.290344 L207.562134,272.277228 L165.347527,314.492827 L165.346535,314.492827 Z M58.4168311,207.348437 L150.255538,299.009901 L229.70297,219.705544 L218.459494,208.482316 L194.964261,231.936225 L114.380904,151.485149 L58.4158416,207.348437 L58.4168311,207.348437 Z M233.314545,193.857701 L259.220471,219.734245 L221.782178,257.130075 L256.759096,292.079208 L349.50495,199.439538 L288.621115,138.613861 L233.314545,193.857701 Z M199.971762,13.8613861 L102.970297,110.804503 L195.169896,202.970297 L292.079208,106.106422 L199.971762,13.8613861 Z M13.8613861,142.166862 L53.9524633,182.178218 L99.5309881,136.702522 L73.4880932,110.716832 L121.782178,62.5306578 L107.723126,48.5148515 L13.8613861,142.166862 L13.8613861,142.166862 Z M268.316832,53.045665 L321.329775,105.96018 L303.257518,123.987044 L355.594419,176.237624 L385.148515,146.726563 L279.811519,41.5841584 L268.316832,53.045665 L268.316832,53.045665 Z" id="Shape" fill="#000000"></path>
        </g>
        <polygon id="Path" fill-opacity="0.08" fill="#000000" points="179.557149 135.128134 127.398559 187.120042 155.526241 215.157837 106.299202 264.227563 63 221.054439 164.373298 120.005096"></polygon>
        <polygon id="Path" fill-opacity="0.15" fill="#000000" points="317.83953 122.012649 330.252126 109.653036 444 223.037411 412.084833 254.861854 355.570532 198.515863 375.085434 179.075615"></polygon>
    </g>
</svg>