<?xml version="1.0" encoding="UTF-8"?>
<svg width="512px" height="512px" viewBox="0 0 512 512" version="1.1" xmlns="http://www.w3.org/2000/svg" xmlns:xlink="http://www.w3.org/1999/xlink">
    <!-- Generator: Sketch 53.2 (72643) - https://sketchapp.com -->
    <title>ic_items_mushroom_base</title>
    <desc>Created with Sketch.</desc>
    <g id="ic_items_mushroom_base" stroke="none" stroke-width="1" fill="none" fill-rule="evenodd">
        <g id="Group" transform="translate(70.000000, 56.000000)" fill-rule="nonzero">
            <path d="M129.224411,262.603878 L17.7285319,262.603878 C4.10988151,262.603878 -3.72861633,247.123293 4.33185393,236.146205 L172.752907,6.78332449 C179.394229,-2.26110816 192.90494,-2.26110816 199.546262,6.78332449 L367.967315,236.146205 C376.027785,247.123293 368.189287,262.603878 354.570637,262.603878 L239.614635,262.603878 L239.614635,301.663801 L303.8127,301.663801 C313.508321,301.663801 322.413618,307.379247 328.188459,316.620224 C333.598656,325.277692 336.358368,336.941893 336.358368,351.319254 C336.358368,365.803277 333.789052,377.214644 328.466536,385.60894 C322.650259,394.781961 313.632403,399.971734 303.8127,399.971734 L177.000229,399.971734 C148.279582,399.971734 129.224411,380.043735 129.224411,351.319254 L129.224411,262.603878 Z" id="background" fill="#000000"></path>
            <path d="M145.84491,262.85162 L222.994136,262.85162 L222.994136,318.2843 L303.8127,318.2843 C309.995348,318.2843 319.73787,326.323121 319.73787,351.319254 C319.73787,376.315387 310.891557,383.351235 303.8127,383.351235 L177.000229,383.351235 C157.366318,383.351235 145.84491,370.751668 145.84491,351.319254 L145.84491,262.85162 Z M209.418283,350.138504 L232.686981,374.515235 L232.686981,325.761773 L209.418283,350.138504 Z M237.147218,86.0712232 L270.766925,131.855956 L101.532244,131.855956 L135.151951,86.0712232 L156.232687,106.371191 L186.149584,77.5623269 L141.400029,77.5623269 L186.149584,16.6204986 L230.89914,77.5623269 L186.149584,77.5623269 L216.066482,106.371191 L237.147218,86.0712232 Z M95.2571443,140.401651 L120.775623,165.096953 L152.908587,134.000536 L185.041551,165.096953 L217.174515,134.000536 L249.307479,165.096953 L276.12144,139.147959 L312.261967,188.365651 L60.0372021,188.365651 L95.2571443,140.401651 L95.2571443,140.401651 Z M313.723104,190.355489 L354.570637,245.98338 L17.7285319,245.98338 L57.1991821,192.230586 L98.0609418,231.578947 L141.274238,189.966143 L184.487535,231.578947 L227.700831,189.966143 L270.914127,231.578947 L313.723104,190.355489 L313.723104,190.355489 Z" id="foreground" fill="#FFFFFF"></path>
        </g>
    </g>
</svg>