<?xml version="1.0" encoding="UTF-8"?>
<svg width="512px" height="512px" viewBox="0 0 512 512" version="1.1" xmlns="http://www.w3.org/2000/svg" xmlns:xlink="http://www.w3.org/1999/xlink">
    <!-- Generator: Sketch 53.2 (72643) - https://sketchapp.com -->
    <title>ic_items_bait_base</title>
    <desc>Created with Sketch.</desc>
    <g id="ic_items_bait_base" stroke="none" stroke-width="1" fill="none" fill-rule="evenodd">
        <g id="Group" transform="translate(75.000000, 56.000000)" fill-rule="nonzero">
            <path d="M0.725501154,0.704545566 L249.648107,0.704545566 L310.115508,56.8685099 L310.115508,185.45923 L257.018163,185.45923 L257.018163,80.018249 L228.793035,53.8018907 L53.8228463,53.8018907 L53.8228463,399.541526 L0.725501154,399.541526 L0.725501154,0.704545566 Z M178.055952,266.859353 L185.388488,254.997869 C195.424339,238.763364 212.613018,232.959233 233.190043,236.785054 L233.213294,206.469379 L234.589814,203.186141 C242.446634,184.446259 258.22224,174.185272 278.809346,174.185272 C298.909168,174.185272 314.572384,183.205676 322.702661,200.375559 L324.405398,203.971475 L324.405398,254.304651 L360.657015,254.304651 L360.657015,330.705446 C360.657015,348.837648 355.095189,364.478121 343.905277,376.717878 L333.101419,388.535361 L291.96912,357.872482 L274.462125,376.811536 L219.443724,376.811536 L219.443724,398.20758 L157.235021,398.20758 L157.235021,380.508465 C157.235021,368.245365 163.735511,357.179309 175.929453,346.169808 L155.154978,334.174022 L155.154978,323.95613 C155.154978,313.087558 161.490413,304.903911 171.251908,299.25883 C177.928717,295.397626 186.766972,292.388267 198.058231,289.886257 L200.370736,289.373833 L178.055952,266.859353 Z" id="background" fill="#000000"></path>
            <path d="M323.695114,315.044248 L323.695114,304.424779 L342.9579,304.424779 L342.9579,315.044248 L323.695114,315.044248 L323.695114,315.044248 Z M319.634408,326.843658 L342.9579,326.843658 L342.9579,330.705446 C342.9579,344.58404 338.919412,355.940718 330.842436,364.775481 L304.432328,345.087549 L319.634408,326.843658 L319.634408,326.843658 Z M323.695114,293.80531 L323.695114,272.003766 L342.9579,272.003766 L342.9579,293.80531 L323.695114,293.80531 L323.695114,293.80531 Z M306.706283,250.147493 L250.912409,250.147493 L250.912409,210.029499 C255.984049,197.932757 265.283028,191.884387 278.809346,191.884387 C292.335665,191.884387 301.634644,197.239644 306.706283,207.950159 L306.706283,250.147493 Z M306.706283,272.566372 L306.706283,315.855666 L266.720348,359.112421 L219.999028,359.112421 L219.999028,315.855666 L241.4133,315.855666 L250.912409,304.498534 L250.912409,272.566372 L306.706283,272.566372 Z M18.4246162,287.905605 L18.4246162,260.766962 L36.1237312,260.766962 L36.1237312,287.905605 L18.4246162,287.905605 Z M18.4246162,310.324484 L36.1237312,310.324484 L36.1237312,381.842411 L18.4246162,381.842411 L18.4246162,310.324484 Z M18.4246162,239.528024 L18.4246162,30.9621419 L36.1237312,30.9621419 L36.1237312,239.528024 L18.4246162,239.528024 Z M60.6092567,36.1027757 L60.6092567,18.4036606 L242.696416,18.4036606 L292.416393,64.5850896 L292.416393,167.760115 L274.717278,167.760115 L274.717278,72.3016693 L235.744726,36.1027757 L60.6092567,36.1027757 Z M201.887267,307.166221 L201.887267,340.720729 L172.854093,323.95613 C172.854093,317.051797 182.531818,311.455161 201.887267,307.166221 Z M232.582703,296.731489 L200.443269,264.304439 C206.587052,254.365941 217.300197,251.176848 232.582703,254.737159 L232.582703,296.731489 Z M201.744609,348.530096 L201.744609,380.508465 L174.934136,380.508465 C174.934136,371.3891 183.870961,360.729644 201.744609,348.530096 Z M279.056047,232.448378 C285.24685,232.448378 290.265487,227.429741 290.265487,221.238938 C290.265487,215.048136 285.24685,210.029499 279.056047,210.029499 C272.865245,210.029499 267.846608,215.048136 267.846608,221.238938 C267.846608,227.429741 272.865245,232.448378 279.056047,232.448378 Z" id="foreground" fill="#FFFFFF"></path>
        </g>
    </g>
</svg>