<?xml version="1.0" encoding="UTF-8"?>
<svg width="512px" height="512px" viewBox="0 0 512 512" version="1.1" xmlns="http://www.w3.org/2000/svg" xmlns:xlink="http://www.w3.org/1999/xlink">
    <!-- Generator: Sketch 53.2 (72643) - https://sketchapp.com -->
    <title>ic_items_empty_bottle_base</title>
    <desc>Created with Sketch.</desc>
    <g id="ic_items_empty_bottle_base" stroke="none" stroke-width="1" fill="none" fill-rule="evenodd">
        <g id="Group" transform="translate(144.000000, 89.000000)" fill-rule="nonzero">
            <path d="M223.675973,0.181027333 L223.675973,46.2191542 L208.392755,46.2191542 C202.866884,46.2191542 199.716108,46.7163084 197.261704,47.4393263 L196.342164,84.5436829 C197.27056,85.2262751 198.779848,86.1456159 201.408627,87.6288128 C201.543155,87.7047154 202.094783,88.015698 202.235956,88.0953502 C208.280278,91.5056478 211.353096,93.5078789 214.76706,96.8219331 C220.388803,102.279155 223.675973,109.159741 223.675973,117.295255 L223.675973,327.762174 C223.675973,349.18531 204.337102,366.454836 181.058947,366.454836 L43.3668022,366.454836 C19.1182571,366.454836 0.428457444,350.157304 0.428457444,327.762174 L0.428457444,117.295255 C0.428457444,110.089127 3.43466956,103.993265 8.44168001,99.1795376 C11.4195883,96.3165839 14.406835,94.3621368 19.3173627,91.6237339 C19.8051354,91.3517228 21.6601141,90.3267122 22.0956006,90.083859 C25.48696,88.1926349 27.1888523,87.0488014 28.0821984,86.128981 C28.0825071,86.1286632 28.0829693,73.2448886 28.0835851,47.4776572 C25.5683264,46.7301263 21.3882365,46.2191542 15.7116746,46.2191542 L0.428457444,46.2191542 L0.428457444,0.181027333 L223.675973,0.181027333 Z" id="background" fill="#000000"></path>
            <path d="M70.876593,15.4642445 L70.876593,86.4509598 C70.876593,98.0295479 66.4011524,108.096176 58.7799707,115.943211 C54.2330908,120.624837 49.8858617,123.569222 43.2214654,127.299754 L43.2214654,323.661828 C43.253345,323.661651 49.2937681,323.661651 180.882965,323.661828 L180.882965,125.18224 C173.733572,121.148603 170.29054,118.92247 166.072656,114.914006 C158.317545,107.54394 153.549156,97.8824765 153.549156,86.4509598 L153.549156,15.4642445 L208.392755,15.4642445 L208.392755,30.9359371 C190.170216,30.9359371 181.058947,35.5413433 181.058947,44.7521556 L181.058947,86.4509598 C181.058947,101.25038 208.392755,101.25038 208.392755,117.295255 L208.392755,327.762174 C208.392755,339.835227 196.817258,351.171619 181.058947,351.171619 L43.3668022,351.171619 C26.7242334,351.171619 15.7116746,340.862785 15.7116746,327.762174 L15.7116746,117.295255 C15.7116746,103.951437 43.3668022,103.951437 43.3668022,86.4509598 L43.3668022,44.7521556 C43.3668022,35.5413433 34.1484263,30.9359371 15.7116746,30.9359371 L15.7116746,15.4642445 L70.876593,15.4642445 Z" id="foreground" fill="#FFFFFF"></path>
            <path d="M89.2673976,64.4712644 L135.158352,64.4712644 L135.158352,86.4509598 C135.158352,102.638333 141.748966,117.169074 153.40355,128.245002 C156.408538,131.10079 159.09147,133.280528 162.49216,135.557314 L162.49216,305.270999 C99.3190242,305.270914 77.4648264,305.27089 62.7182212,305.27089 C62.3427538,305.27089 61.9741403,305.27089 61.61227,305.270999 L61.61227,137.562022 C65.4444899,134.90188 68.6723971,132.154342 71.9727038,128.756231 C83.1039621,117.295099 89.2673976,102.582471 89.2673976,86.4509598 L89.2673976,64.4712644 Z" id="Path" fill-opacity="0.1" fill="#000000"></path>
        </g>
    </g>
</svg>