<?xml version="1.0" encoding="UTF-8"?>
<svg width="512px" height="512px" viewBox="0 0 512 512" version="1.1" xmlns="http://www.w3.org/2000/svg" xmlns:xlink="http://www.w3.org/1999/xlink">
    <!-- Generator: Sketch 53.2 (72643) - https://sketchapp.com -->
    <title>ic_items_streamstone_base</title>
    <desc>Created with Sketch.</desc>
    <g id="ic_items_streamstone_base" stroke="none" stroke-width="1" fill="none" fill-rule="evenodd">
        <g id="Group" transform="translate(58.000000, 51.000000)" fill-rule="nonzero">
            <path d="M67.0208321,121.285858 L208.289811,14.793951 L340.292525,121.781696 L275.910364,331.965553 L345.960254,243.430221 L397.899833,314.215828 L397.899833,336.374313 L284.585087,385.299388 L238.384449,379.39417 L273.065681,335.560918 L190.535071,375.232254 L173.831896,365.697754 L176.301032,399.347925 L28.3190955,377.87572 L28.3190955,300.286476 L81.4007326,260.933196 L109.109716,260.933196 L67.0208321,121.285858 Z M87.1625727,183.477313 L87.1625727,215.822992 L61.3064705,215.822992 L61.3064705,244.872367 L28.9607914,244.872367 L28.9607914,215.822992 L0.866950527,215.822992 L0.866950527,183.477313 L28.9607914,183.477313 L28.9607914,158.624381 L61.3064705,158.624381 L61.3064705,183.477313 L87.1625727,183.477313 Z M384.29083,46.2379225 L384.29083,82.2873052 L361.08642,82.2873052 L361.08642,118.765432 L325.037037,118.765432 L325.037037,82.2873052 L286.765432,82.2873052 L286.765432,46.2379225 L325.037037,46.2379225 L325.037037,0 L361.08642,0 L361.08642,46.2379225 L384.29083,46.2379225 Z" id="Background" fill="#000000"></path>
            <path d="M212.814815,258.604049 L212.814815,311.506127 L191.800328,352.074911 L143.693435,311.506127 L88.4769263,128.302449 L207.876543,38.2961854 L318.927309,128.302449 L259.778624,321.400952 L212.814815,343.975813 L256.45108,238.177206 L224.865044,238.177206 L224.865044,188.762551 L300.147988,139.093118 L222.190447,174.719077 L204.555068,174.719077 L207.876543,56.6372434 L116.117151,134.69136 L162.364646,281.393549 L212.814815,258.604049 Z M264.049383,203.82716 C266.435798,203.82716 268.37037,201.892588 268.37037,199.506173 C268.37037,197.119757 266.435798,195.185185 264.049383,195.185185 C261.662967,195.185185 259.728395,197.119757 259.728395,199.506173 C259.728395,201.892588 261.662967,203.82716 264.049383,203.82716 Z M161.580247,192.716049 C159.193831,192.716049 157.259259,190.781477 157.259259,188.395062 C157.259259,186.008646 159.193831,184.074074 161.580247,184.074074 C163.966662,184.074074 165.901235,186.008646 165.901235,188.395062 C165.901235,190.781477 163.966662,192.716049 161.580247,192.716049 Z M156.547945,376.521804 L48.0721819,360.781952 L48.0721819,310.231563 L87.9243077,280.686282 L105.176938,280.686282 L156.547945,349.097337 L156.547945,376.521804 Z M273.244209,365.180658 L345.405288,273.977016 L379.381315,320.281082 L379.381315,324.199017 L281.90142,366.287195 L273.244209,365.180658 Z M351.08642,56.2379225 L374.29083,56.2379225 L374.29083,72.2873052 L351.08642,72.2873052 L351.08642,108.765432 L335.037037,108.765432 L335.037037,72.2873052 L296.765432,72.2873052 L296.765432,56.2379225 L335.037037,56.2379225 L335.037037,10 L351.08642,10 L351.08642,56.2379225 Z M51.3064705,193.477313 L77.1625727,193.477313 L77.1625727,205.822992 L51.3064705,205.822992 L51.3064705,234.872367 L38.9607914,234.872367 L38.9607914,205.822992 L10.8669505,205.822992 L10.8669505,193.477313 L38.9607914,193.477313 L38.9607914,168.624381 L51.3064705,168.624381 L51.3064705,193.477313 Z" id="Foreground" fill="#FFFFFF"></path>
            <path d="M207.876543,31.9476397 L322.041675,126.677562 L227.166868,180.571894 L199.413523,180.571894 L207.876543,56.6293656 L207.876543,31.9476397 Z M131.188203,295.727186 L214.649193,255.675498 L156.398325,335.778874 L131.188203,295.727186 Z M345.358276,262.809886 L388.962758,326.89072 L283.475728,371.615484 L263.906362,367.672403 L345.358276,262.809886 Z" id="Alpha" fill-opacity="0.2" fill="#000000"></path>
        </g>
    </g>
</svg>