<?xml version="1.0" encoding="UTF-8"?>
<svg width="512px" height="512px" viewBox="0 0 512 512" version="1.1" xmlns="http://www.w3.org/2000/svg" xmlns:xlink="http://www.w3.org/1999/xlink">
    <!-- Generator: Sketch 53.2 (72643) - https://sketchapp.com -->
    <title>ic_items_web_base</title>
    <desc>Created with Sketch.</desc>
    <g id="ic_items_web_base" stroke="none" stroke-width="1" fill="none" fill-rule="evenodd">
        <g id="web_base" transform="translate(64.000000, 64.000000)" fill-rule="nonzero">
            <path d="M188.832292,392.0375 C184.686704,392.0375 181.326042,388.676837 181.326042,384.53125 L181.326042,355.441667 C152.462668,352.099522 125.130716,340.671037 102.479167,322.472917 L82.66875,342.855208 C81.2688291,344.295545 79.3501771,345.11493 77.3416667,345.130208 L77.2854167,345.130208 C75.2962536,345.129982 73.3885152,344.340211 71.98125,342.934375 L57.309375,328.280208 C55.8996477,326.872075 55.107537,324.961279 55.107537,322.96875 C55.107537,320.976221 55.8996477,319.065425 57.309375,317.657292 L77.825,297.167708 C59.6481191,274.225 48.2085236,246.680024 44.784375,217.610417 L15.46875,217.610417 C11.3231626,217.610417 7.9625,214.249754 7.9625,210.104167 L7.9625,190.959375 C7.9625,186.813788 11.3231626,183.453125 15.46875,183.453125 L44.7375,183.453125 C47.706615,153.95597 59.1923483,125.959518 77.7947917,102.876042 L57.0510417,81.4989583 C54.2067451,78.5681536 54.2275738,73.9011338 57.0979167,70.9958333 L71.59375,56.3239583 C73.0036965,54.8969652 74.9262362,54.0938126 76.9322917,54.09375 L76.9364583,54.09375 C78.9439442,54.0948636 80.8673587,54.8999441 82.2770833,56.3291667 L102.439583,76.775 C125.097506,58.556137 152.444076,47.1134051 181.325,43.7666667 L181.325,15.46875 C181.325,13.4777882 182.115978,11.5683863 183.523898,10.1606614 C184.931818,8.75293652 186.84133,7.96222371 188.832292,7.9625 L210.104167,7.9625 C214.249754,7.9625 217.610417,11.3231626 217.610417,15.46875 L217.610417,43.76875 C246.883937,47.1779603 274.629171,58.6739085 297.735417,76.9677083 L318.7,56.4510417 C321.655567,53.5583457 326.394108,53.6011989 329.296875,56.546875 L343.96875,71.434375 C346.846172,74.3541533 346.848954,79.0424334 343.975,81.965625 L323.38125,102.910417 C341.996977,125.978448 353.502671,153.96221 356.496875,183.453125 L384.53125,183.453125 C388.676837,183.453125 392.0375,186.813788 392.0375,190.959375 L392.0375,210.105208 C392.036925,214.250389 388.676431,217.610417 384.53125,217.610417 L356.45,217.610417 C353.008541,246.686281 341.549782,274.232457 323.354167,297.170833 L343.819792,317.629167 C345.230851,319.040433 346.021827,320.955519 346.017918,322.951201 C346.014008,324.946883 345.215536,326.858856 343.798958,328.264583 L329.016667,342.935417 C326.091082,345.839419 321.371051,345.840814 318.44375,342.938542 L297.7,322.373958 C274.590431,340.616945 246.858828,352.066881 217.610417,355.441667 L217.610417,384.53125 C217.610417,386.522031 216.819582,388.431275 215.411887,389.83897 C214.004192,391.246665 212.094948,392.0375 210.104167,392.0375 L188.832292,392.0375 Z M124.094792,300.56875 C140.758342,313.426117 160.482418,321.723282 181.326042,324.64375 L181.326042,318.585417 C162.043751,315.683149 143.773048,308.076497 128.128125,296.4375 L124.094792,300.56875 Z M217.610417,324.613542 C238.679747,321.562996 258.653386,313.297906 275.717708,300.56875 L271.620833,296.409375 C255.672561,308.055099 237.1407,315.66442 217.610417,318.586458 L217.610417,324.613542 Z M150.101042,274.515625 C159.486269,281.007722 170.120167,285.475051 181.326042,287.633333 L181.326042,284.25 C171.078959,282.02069 161.341529,277.887282 152.619792,272.064583 L150.101042,274.515625 Z M217.611458,287.569792 C229.007583,285.282892 239.848639,280.79645 249.528125,274.361458 L247.31875,272.1125 C238.229724,277.92073 228.164858,282.036667 217.610417,284.261458 L217.611458,287.569792 Z M75.6114583,217.611458 C78.6827392,238.571875 86.9307138,258.43604 99.609375,275.407292 L103.838542,271.16875 C92.1415602,255.415647 84.5141994,237.018669 81.6333333,217.610417 L75.6114583,217.611458 Z M301.616667,275.390625 C314.297802,258.425785 322.548755,238.566717 325.622917,217.610417 L319.603125,217.610417 C316.72618,237.024537 309.101334,255.42829 297.405208,271.188542 L301.616667,275.390625 Z M174.371875,249.726042 C176.623494,250.840744 178.946663,251.804671 181.326042,252.611458 L181.326042,242.771875 L174.371875,249.726042 Z M217.611458,252.611458 C219.990475,251.804608 222.313293,250.840682 224.564583,249.726042 L217.610417,242.771875 L217.611458,252.611458 Z M112.6625,217.611458 C114.959555,228.8939 119.424005,239.623439 125.808333,249.205208 L128.130208,246.879167 C122.309243,237.954137 118.18467,228.031855 115.963542,217.610417 L112.6625,217.611458 Z M275.428125,249.205208 C281.81236,239.623389 286.276802,228.893869 288.573958,217.611458 L285.271875,217.611458 C283.051494,228.032462 278.927618,237.954413 273.107292,246.879167 L275.428125,249.205208 Z M250.740625,224.564583 C251.855308,222.312955 252.819234,219.989788 253.626042,217.610417 L243.786458,217.610417 L250.740625,224.564583 Z M147.610417,217.610417 C148.417256,219.989438 149.381182,222.312257 150.495833,224.563542 L157.45,217.610417 L147.610417,217.610417 Z M325.6625,183.454167 C322.750227,162.254461 314.449699,142.155879 301.554167,125.079167 L297.448958,129.064583 C309.119459,145.138128 316.721745,163.800006 319.605208,183.453125 L325.6625,183.454167 Z M288.658333,183.454167 C286.494092,171.914156 281.966252,160.946549 275.359375,151.240625 L273.19375,153.334375 C279.272441,162.438481 283.429789,172.687057 285.411458,183.453125 L288.658333,183.454167 Z M253.777083,183.454167 C252.97492,181.036192 251.985823,178.684302 250.81875,176.419792 L243.786458,183.453125 L253.777083,183.454167 Z M157.451042,183.454167 L150.417708,176.419792 C149.250482,178.683871 148.26138,181.035427 147.459375,183.453125 L157.451042,183.454167 Z M115.826042,183.454167 C117.807745,172.687786 121.965084,162.438876 128.04375,153.334375 L125.877083,151.240625 C119.270334,160.946122 114.742823,171.913437 112.579167,183.453125 L115.826042,183.454167 Z M81.6364583,183.454167 C84.5669585,163.878688 92.2074146,145.307668 103.901042,129.3375 L99.5364583,124.844792 C86.679962,142.017433 78.4289548,162.192777 75.5677083,183.453125 L81.6364583,183.454167 Z M217.610417,156.436458 L224.564583,149.482292 C222.312866,148.367804 219.989713,147.403883 217.610417,146.596875 L217.610417,156.436458 Z M181.326042,156.436458 L181.326042,146.596875 C178.94658,147.403444 176.623398,148.367377 174.371875,149.482292 L181.326042,156.436458 Z M152.619792,127.14375 C161.341718,121.321401 171.079079,117.188022 181.326042,114.958333 L181.326042,111.575 C170.120167,113.733282 159.486269,118.200612 150.101042,124.692708 L152.619792,127.14375 Z M217.610417,114.946875 C228.164653,117.171785 238.229438,121.287336 247.31875,127.094792 L249.528125,124.846875 C239.848941,118.411317 229.00777,113.924827 217.611458,111.638542 L217.610417,114.946875 Z M128.344792,102.858333 C143.862227,91.1219898 162.080851,83.4744808 181.326042,80.61875 L181.326042,74.5583333 C160.431928,77.4339809 140.644023,85.691086 123.903125,98.5197917 L128.344792,102.858333 Z M217.610417,80.615625 C237.127509,83.4734051 255.63531,91.1121983 271.486458,102.852083 L275.836458,98.565625 C258.723371,85.8565293 238.710768,77.6161931 217.610417,74.590625 L217.610417,80.615625 Z" id="Shape" fill="#FFFDFD"></path>
            <path d="M210.104167,15.46875 L210.104167,50.609375 C242.612979,52.9592208 273.493019,65.7476255 298.144792,87.0697917 L323.951042,61.815625 L338.622917,76.7041667 L313.260417,102.498958 C334.912432,127.101307 347.709217,158.241447 349.6125,190.959375 L384.53125,190.959375 L384.53125,210.104167 L349.6125,210.104167 C347.277512,242.455201 334.500731,273.173283 313.204167,297.6375 L338.511458,322.936458 L323.729167,337.608333 L298.144792,312.245833 C273.483315,333.537002 242.601738,346.288624 210.103125,348.6 L210.103125,384.53125 L188.832292,384.53125 L188.832292,348.598958 C156.680765,346.282561 126.167705,333.51986 101.941667,312.255208 L77.2854167,337.623958 L62.6145833,322.967708 L87.9760417,297.6375 C66.6956508,273.168384 53.9379922,242.449694 51.6229167,210.104167 L15.46875,210.104167 L15.46875,190.958333 L51.6229167,190.958333 C53.9270833,155.860417 67.15625,126.302083 87.8875,102.496875 L62.4375,76.2708333 L76.9322917,61.6 L101.941667,86.9614583 C126.166967,65.6943753 156.679931,52.9287884 188.832292,50.609375 L188.832292,15.46875 L210.103125,15.46875 L210.104167,15.46875 Z M272.05,112.834375 L287.120833,97.9854167 C265.417627,79.576774 238.473996,68.460923 210.104167,66.2114583 L210.104167,87.2770833 C232.863814,89.3291239 254.46457,98.2410522 272.05,112.834375 L272.05,112.834375 Z M127.814583,112.834375 C145.050422,98.257486 166.352857,89.3349525 188.832292,87.2770833 L188.832292,66.2114583 C159.052083,68.45625 133.555208,80.040625 112.613542,97.9854167 L127.814583,112.834375 L127.814583,112.834375 Z M248.2125,136.89375 L260.954167,123.930208 C246.38333,112.169769 228.725627,104.868459 210.104167,102.904167 L210.104167,121.2625 C223.940004,123.108298 237.065701,128.492188 248.2125,136.89375 L248.2125,136.89375 Z M151.873958,136.89375 C162.596138,128.50978 175.348254,123.116368 188.832292,121.2625 L188.832292,102.904167 C168.623958,104.934375 152.719792,112.491667 138.557292,123.930208 L151.873958,136.89375 L151.873958,136.89375 Z M67.225,190.959375 L88.2916667,190.959375 C90.3425305,168.136123 99.252097,146.467737 113.848958,128.803125 L99,113.521875 C80.4064046,135.276258 69.2706054,162.41484 67.225,190.959375 L67.225,190.959375 Z M312.945833,190.959375 L334.010417,190.959375 C331.96281,162.545298 320.82191,135.545333 302.236458,113.955208 L287.3875,128.371875 C301.991709,146.198601 310.896843,168.00558 312.945833,190.959375 L312.945833,190.959375 Z M210.104167,174.558333 L236.651042,148.011458 C228.748268,142.378152 219.672295,138.607803 210.104167,136.983333 L210.104167,174.558333 L210.104167,174.558333 Z M188.833333,174.558333 L188.833333,136.983333 C179.264852,138.607688 170.188514,142.378039 162.285417,148.011458 L188.832292,174.558333 L188.833333,174.558333 Z M278.960417,190.959375 L297.31875,190.959375 C295.556995,172.223547 288.234474,154.442149 276.291667,139.898958 L263.329167,152.430208 C272.093406,163.527875 277.515352,176.892325 278.960417,190.959375 L278.960417,190.959375 Z M103.91875,190.959375 L122.277083,190.959375 C123.722204,176.892339 129.144144,163.527905 137.908333,152.430208 L124.944792,139.898958 C113.002304,154.442241 105.680144,172.223645 103.91875,190.959375 L103.91875,190.959375 Z M225.664583,190.959375 L263.239583,190.959375 C261.814847,181.334753 258.025736,172.213615 252.211458,164.4125 L225.664583,190.959375 L225.664583,190.959375 Z M137.997917,190.959375 L175.572917,190.959375 L149.026042,164.4125 C143.211764,172.213615 139.422653,181.334753 137.997917,190.959375 L137.997917,190.959375 Z M302.236458,286.613542 C320.635145,265.10147 331.756732,238.320256 334.009375,210.103125 L312.945833,210.103125 C310.892023,232.786415 301.976863,254.305829 287.3875,271.795833 L302.236458,286.613542 L302.236458,286.613542 Z M276.291667,260.7 C288.048386,246.224395 295.352673,228.648658 297.31875,210.104167 L278.960417,210.104167 C277.111372,223.784995 271.723356,236.746249 263.329167,247.70625 L276.291667,260.7 L276.291667,260.7 Z M252.211458,236.651042 C257.844765,228.748268 261.615113,219.672295 263.239583,210.104167 L225.664583,210.104167 L252.211458,236.651042 L252.211458,236.651042 Z M149.026042,236.651042 L175.572917,210.104167 L137.997917,210.104167 C139.622492,219.672264 143.392831,228.748215 149.026042,236.651042 L149.026042,236.651042 Z M124.944792,260.701042 L137.908333,247.705208 C129.514352,236.745481 124.12635,223.784618 122.277083,210.104167 L103.91875,210.104167 C105.884331,228.648911 113.188262,246.225025 124.944792,260.701042 L124.944792,260.701042 Z M99,286.644792 L113.848958,271.764583 C99.2606826,254.28652 90.3455444,232.777545 88.2916667,210.104167 L67.225,210.104167 C69.4780349,238.330947 80.5999799,265.122205 99,286.645833 L99,286.644792 Z M210.104167,262.225 C219.672295,260.60053 228.748268,256.830181 236.651042,251.196875 L210.104167,224.65 L210.104167,262.225 L210.104167,262.225 Z M188.833333,262.225 L188.833333,224.65 L162.285417,251.196875 C170.188208,256.83015 179.264174,260.600495 188.832292,262.225 L188.833333,262.225 Z M188.832292,296.304167 L188.832292,277.945833 C175.348268,276.091917 162.596163,270.69851 151.873958,262.314583 L138.557292,275.278125 C152.719792,286.715625 168.623958,294.273958 188.832292,296.304167 L188.832292,296.304167 Z M210.103125,296.304167 C228.724964,294.340127 246.38307,287.0388 260.954167,275.278125 L248.2125,262.314583 C237.065725,270.716187 223.940016,276.100081 210.104167,277.945833 L210.104167,296.304167 L210.103125,296.304167 Z M210.104167,332.996875 C238.40722,330.74559 265.279677,319.626706 286.898958,301.221875 L272.270833,286.375 C254.601885,300.972011 232.929831,309.881444 210.103125,311.932292 L210.103125,332.997917 L210.104167,332.996875 Z M188.832292,332.997917 L188.832292,311.932292 C166.245946,309.876973 144.829612,300.958498 127.460417,286.375 L112.964583,301.223958 C133.907292,319.16875 159.051042,330.753125 188.83125,332.997917 L188.832292,332.997917 Z M210.102083,0.45625 L188.83125,0.45625 C184.849507,0.45624999 181.030861,2.03806255 178.215441,4.85367773 C175.400021,7.66929291 173.818474,11.4880486 173.81875,15.4697917 L173.81875,37.215625 C148.224589,41.2567967 123.979801,51.4013989 103.134375,66.7916667 L87.621875,51.059375 C84.802224,48.1998365 80.9544337,46.5892122 76.9385417,46.5875 L76.93125,46.5875 C72.9181382,46.5877348 69.0722056,48.1948334 66.2520833,51.05 L51.7572917,65.7208333 C46.0166059,71.5314343 45.9749485,80.8654739 51.6635417,86.7270833 L67.8864583,103.445833 C52.0837376,124.758584 41.852128,149.679514 38.1197917,175.947917 L15.46875,175.947917 C7.17757519,175.947917 0.45625,182.669242 0.45625,190.960417 L0.45625,210.104167 C0.45625,218.395341 7.17757519,225.116667 15.46875,225.116667 L38.2395833,225.116667 C42.3530538,250.912528 52.5097545,275.369635 67.8802083,296.490625 L52.0052083,312.345833 C49.1857421,315.161606 47.6013851,318.982776 47.6011897,322.967492 C47.6009943,326.952209 49.1849766,330.773534 52.0041667,333.589583 L66.6760417,348.245833 C69.4909978,351.057378 73.306879,352.636557 77.2854167,352.636458 L77.396875,352.636458 C81.4141792,352.606803 85.2520167,350.96834 88.0520833,348.0875 L103.215625,332.483333 C124.044103,347.838315 148.259532,357.959635 173.819792,361.99375 L173.819792,384.53125 C173.819515,388.512993 175.401063,392.331749 178.216483,395.147364 C181.031903,397.962979 184.850549,399.544792 188.832292,399.544792 L210.103125,399.544792 C214.085049,399.545068 217.903962,397.963377 220.719607,395.147732 C223.535252,392.332087 225.116943,388.513174 225.116667,384.53125 L225.116667,361.994792 C251.104121,357.921507 275.755255,347.743762 297.046875,332.296875 L313.159375,348.269792 C319.013977,354.074336 328.454039,354.071546 334.305208,348.263542 L349.086458,333.592708 C351.919976,330.780893 353.516952,326.956347 353.52438,322.964471 C353.531808,318.972595 351.949076,315.142132 349.126042,312.319792 L333.297917,296.496875 C348.68789,275.378679 358.8636,250.919212 362.99375,225.116667 L384.53125,225.116667 C388.512993,225.116943 392.331749,223.535395 395.147364,220.719976 C397.962979,217.904556 399.544792,214.08591 399.544792,210.104167 L399.544792,190.958333 C399.544792,186.97659 397.962979,183.157944 395.147364,180.342524 C392.331749,177.527105 388.512993,175.945557 384.53125,175.945833 L363.110417,175.945833 C359.35636,149.699632 349.115344,124.804196 333.314583,103.513542 L349.328125,87.228125 C355.076034,81.3817419 355.070469,72.0051816 349.315625,66.165625 L334.64375,51.2770833 C328.838332,45.3864216 319.362051,45.3007182 313.451042,51.0854167 L297.120833,67.065625 C275.820732,51.5563254 251.142524,41.3261004 225.116667,37.2166667 L225.116667,15.46875 C225.116667,7.17757519 218.395341,0.45625 210.104167,0.45625 L210.102083,0.45625 Z" id="Shape" fill="#000000"></path>
        </g>
    </g>
</svg>