<?xml version="1.0" encoding="UTF-8"?>
<svg width="512px" height="520px" viewBox="0 0 512 520" version="1.1" xmlns="http://www.w3.org/2000/svg" xmlns:xlink="http://www.w3.org/1999/xlink">
    <!-- Generator: Sketch 53.2 (72643) - https://sketchapp.com -->
    <title>ic_items_herb_base</title>
    <desc>Created with Sketch.</desc>
    <g id="ic_items_herb_base" stroke="none" stroke-width="1" fill="none" fill-rule="evenodd">
        <g id="Group" transform="translate(89.000000, 60.000000)" fill-rule="nonzero">
            <path d="M139.575396,295.328623 C126.114578,298.206325 106.681909,299.212456 79.3797164,299.212456 C50.2354835,299.212456 28.9709024,293.956512 15.4397329,281.768765 C-0.167810098,267.710795 -2.8613993,247.258001 5.48821581,223.906803 L9.73617136,212.026632 L26.7051181,212.026632 C15.8316565,199.980161 12.6417895,183.602612 16.6572606,164.878938 L19.692888,150.724161 L53.3298103,150.724161 C52.3219045,149.870784 51.3527059,148.975274 50.4225065,148.036857 C38.0766568,135.581938 34.9663505,118.075389 39.6672136,97.5586684 L42.8544125,83.6482718 L69.8016216,83.6482718 C62.7459014,73.9042424 59.5971409,60.493504 60.8602568,44.2741969 L62.1467775,27.7543561 L139.698464,27.7543561 C141.076665,12.5472497 153.85999,0.632548428 169.426142,0.632548428 C185.912254,0.632548428 199.276889,13.9971828 199.276889,30.4832947 L199.276889,71.8877668 L265.790484,71.8877668 L269.126171,85.5501345 C273.519354,103.543816 271.413674,118.424094 263.727187,128.955224 L297.638019,128.955224 L300.881403,142.77282 C305.788516,163.678303 302.731142,181.491433 290.245277,194.175616 C289.267573,195.168849 288.246678,196.114994 287.182924,197.014925 L325.80985,197.014925 L329.895015,209.255294 C337.115676,230.890542 334.6787,249.837109 320.711897,263.096381 C308.43021,274.755901 289.335127,279.744722 263.493753,279.744722 C262.823349,279.744722 262.119334,279.739686 261.381617,279.729614 C266.183424,283.998012 270.201907,289.310084 273.255523,295.524433 C278.250031,305.688652 280.415231,317.404293 280.415231,331.084965 C280.415231,372.000829 252.418832,399.673212 209.995314,399.673212 C169.506138,399.673212 139.575396,374.786321 139.575396,339.067932 L139.575396,295.328623 Z" id="background" fill="#000000"></path>
            <path d="M157.485844,30.4832947 C157.485844,23.8888499 162.831698,18.5429962 169.426142,18.5429962 C176.020587,18.5429962 181.366441,23.8888499 181.366441,30.4832947 L181.366441,339.067932 C181.366441,349.676573 190.710111,357.882167 209.995314,357.882167 C229.726495,357.882167 238.624187,348.523539 238.624187,331.084965 C238.624187,323.82957 237.651298,317.828129 235.748066,313.9549 C234.133936,310.670019 232.306856,309.438801 228.465421,309.438801 C225.205166,309.438801 224.301379,310.104517 223.355098,312.487729 C222.23053,315.319957 221.891225,318.902445 221.935285,324.85428 C221.984101,331.448544 216.677967,336.833824 210.083702,336.88264 C203.489438,336.931456 198.104158,331.625321 198.055342,325.031057 C197.9892,316.096202 198.54087,310.271494 201.1601,303.674954 C205.592099,292.512953 215.033981,285.558204 228.465421,285.558204 C241.763349,285.558204 251.689046,292.246851 257.180898,303.423205 C260.993649,311.182454 262.504784,320.504166 262.504784,331.084965 C262.504784,361.450214 243.192678,381.762764 209.995314,381.762764 C178.161517,381.762764 157.485844,363.605425 157.485844,339.067932 L157.485844,30.4832947 Z M147.13082,45.6648038 L147.13082,78.8018721 C140.160338,81.9385601 127.699919,83.5069042 109.749565,83.5069042 C87.096253,83.5069042 76.7519442,70.8928707 78.7166381,45.6648038 L147.13082,45.6648038 Z M146.652628,101.55872 L146.652628,141.541388 C134.839848,144.99237 119.918621,146.717862 101.888949,146.717862 C65.148482,146.717862 50.2272557,131.664814 57.1252699,101.55872 L146.652628,101.55872 Z M146.754213,168.634608 L146.754213,207.337769 C121.061273,212.226044 102.297157,214.670181 90.4618642,214.670181 C46.3517859,214.670181 27.5876698,199.32499 34.1695157,168.634608 L146.754213,168.634608 Z M146.874958,229.93708 L146.874958,273.71818 C140.712525,278.774065 118.214111,281.302008 79.3797164,281.302008 C29.11762,281.302008 10.1087042,264.180365 22.3529689,229.93708 L146.874958,229.93708 Z M192.164011,89.7982146 L251.726804,89.7982146 C258.010359,115.534515 248.083226,128.402665 221.945408,128.402665 C210.233335,128.402665 200.306202,126.779387 192.164011,123.532832 L192.164011,89.7982146 Z M192.238806,146.865672 L283.444869,146.865672 C290.694438,177.75058 275.493428,193.193034 237.841838,193.193034 C226.129299,193.193034 210.928288,191.669051 192.238806,188.621084 L192.238806,146.865672 Z M192.238806,214.925373 L312.905773,214.925373 C323.342854,246.197974 306.872181,261.834274 263.493753,261.834274 C251.781277,261.834274 228.029628,260.116444 192.238806,256.680785 L192.238806,214.925373 Z" id="foreground" fill="#FFFFFF"></path>
        </g>
    </g>
</svg>