<?xml version="1.0" encoding="UTF-8"?>
<svg width="512px" height="512px" viewBox="0 0 512 512" version="1.1" xmlns="http://www.w3.org/2000/svg" xmlns:xlink="http://www.w3.org/1999/xlink">
    <!-- Generator: Sketch 53.2 (72643) - https://sketchapp.com -->
    <title>ic_items_body_base</title>
    <desc>Created with Sketch.</desc>
    <g id="ic_items_body_base" stroke="none" stroke-width="1" fill="none" fill-rule="evenodd">
        <g id="Group" transform="translate(74.000000, 56.000000)" fill-rule="nonzero">
            <path d="M205.402335,93.9947781 L327.981723,93.9947781 C348.169678,93.9947781 364.535248,110.360349 364.535248,130.548303 L364.535248,317.493473 C364.535248,326.99583 361.079409,335.464101 355.13577,341.964684 L355.13577,400 L21.9765013,400 L21.9765013,341.964684 C16.1338014,335.485581 12.5770235,326.904892 12.5770235,317.493473 L12.5770235,130.548303 C12.5770235,110.360349 28.942594,93.9947781 49.1305483,93.9947781 L57.0601064,93.9947781 L57.0601064,0.452959781 L151.480418,0.452959781 L247.432214,0 L247.432214,42.2237663 L237.546796,42.2237663 L237.546796,76.3616595 L205.402335,76.3616595 L205.402335,93.9947781 Z M151.480418,93.9947781 L151.480418,42.676726 L143.126485,42.676726 L143.126485,76.8146193 L110.982024,76.8146193 L110.982024,93.9947781 L151.480418,93.9947781 Z M162.610655,231.417331 C185.585087,235.112424 200.56658,250.566722 200.56658,278.3235 L200.56658,327.898909 C200.56658,344.341784 190.885182,355.325389 174.969314,355.325389 L85.1947597,355.325389 C64.3458726,355.325389 45.7817344,352.653282 31.6543101,347.097781 C12.9295269,339.734404 0.137800728,326.855414 0.137800728,308.95104 C0.0676578283,295.902553 0.0325863784,285.693373 0.0325863784,278.3235 C0.0325863784,252.013286 8.80842293,231.360298 25.0774083,217.43913 C38.8014715,205.69562 56.8536705,199.610007 76.7047239,198.587913 C105.0031,197.130881 125.52839,204.811147 139.636461,219.218596 C143.190666,222.848222 145.857914,226.318016 148.517589,230.462709 C153.923316,230.428148 157.933926,230.665149 162.610655,231.417331 Z" id="background" fill="#000000"></path>
            <path d="M260.543386,315.581695 L316.874085,269.240975 L316.874085,158.980522 L293.691317,158.980522 L293.691317,264.27623 L256.458057,293.53891 L200.56658,293.53891 L200.56658,278.3235 C200.56658,250.566722 185.585087,235.112424 162.610655,231.417331 C157.933926,230.665149 153.923316,230.428148 148.517589,230.462709 C145.857914,226.318016 143.190666,222.848222 139.636461,219.218596 C130.85938,210.255263 117.598528,203.895673 103.527417,200.72017 L103.527415,143.08094 L83.5065274,143.08094 L83.5065274,198.42679 C81.9314238,198.450628 78.3309084,198.504184 76.7047239,198.587913 C75.5136335,198.64924 72.3290193,198.728796 71.1514277,198.826711 L71.151436,143.08094 L51.1305483,143.08094 L51.1305483,203.80281 C43.5233864,206.467672 34.4913502,210.146369 28.2428198,214.887872 L28.2428198,130.548303 C28.2428198,119.012329 37.5945744,109.660574 49.1305483,109.660574 L327.981723,109.660574 C339.517697,109.660574 348.869452,119.012329 348.869452,130.548303 L348.869452,317.493473 C348.869452,329.029446 339.517697,338.381201 327.981723,338.381201 L199.049974,338.381201 C200.046746,335.226058 200.56658,331.709049 200.56658,327.898909 L200.56658,315.581695 L260.543386,315.581695 Z M95.0022611,293.53891 L72.4957283,315.581695 L184.900783,315.581695 L184.900783,327.898909 C184.900783,336.345658 181.544868,339.659592 174.969314,339.659592 L85.1947597,339.659592 C48.8967104,339.659592 15.8035971,330.853477 15.8035971,308.95104 L15.6983827,278.3235 C15.6983827,231.603064 47.2656271,215.790226 77.51026,214.232985 C130.595262,211.499736 136.660008,246.278242 140.631587,246.278242 C153.404658,246.201712 184.900783,242.37471 184.900783,278.3235 L184.900783,293.53891 L95.0022611,293.53891 Z M39.2454318,259.978414 L95.127892,259.978414 L91.9947327,237.917018 L42.3785911,237.917018 L39.2454318,259.978414 Z M72.7259028,81.1118323 L72.7259028,16.1187561 L137.346107,16.1187561 L137.346107,27.0109297 L95.3162277,27.0109297 L95.3162277,48.6152942 L127.460688,48.6152942 L127.460688,61.148823 L95.3162277,61.148823 L95.3162277,81.1118323 L72.7259028,81.1118323 Z M167.146214,80.6588725 L167.146214,15.6657963 L231.766418,15.6657963 L231.766418,26.5579699 L189.736539,26.5579699 L189.736539,48.1623344 L221.881,48.1623344 L221.881,60.6958632 L189.736539,60.6958632 L189.736539,80.6588725 L167.146214,80.6588725 Z M314.4047,361.357702 L339.469974,361.357702 L339.469974,384.334204 L314.4047,384.334204 L314.4047,361.357702 Z M259.052219,361.357702 L284.117493,361.357702 L284.117493,384.334204 L259.052219,384.334204 L259.052219,361.357702 Z M203.699739,361.357702 L228.765013,361.357702 L228.765013,384.334204 L203.699739,384.334204 L203.699739,361.357702 Z M148.347258,361.357702 L173.412533,361.357702 L173.412533,384.334204 L148.347258,384.334204 L148.347258,361.357702 Z M92.9947781,361.357702 L118.060052,361.357702 L118.060052,384.334204 L92.9947781,384.334204 L92.9947781,361.357702 Z M62.7075718,352.081263 L62.7075718,384.334204 L37.6422977,384.334204 L37.6422977,348.168057 C44.8067324,350.687753 53.1618237,351.992155 62.7075718,352.081263 Z" id="base" fill="#FFFFFF"></path>
            <polygon id="alpha" fill-opacity="0.15" fill="#000000" points="32.3942315 343.373692 32.3942315 390.987025 346.138754 390.987025 346.138754 355.016228"></polygon>
        </g>
    </g>
</svg>