<?xml version="1.0" encoding="UTF-8"?>
<svg width="512px" height="512px" viewBox="0 0 512 512" version="1.1" xmlns="http://www.w3.org/2000/svg" xmlns:xlink="http://www.w3.org/1999/xlink">
    <!-- Generator: Sketch 53.2 (72643) - https://sketchapp.com -->
    <title>ic_items_slinger_base</title>
    <desc>Created with Sketch.</desc>
    <g id="ic_items_slinger_base" stroke="none" stroke-width="1" fill="none" fill-rule="evenodd">
        <g id="items_slinger_base" transform="translate(56.000000, 59.000000)">
            <path d="M375.196291,392.964824 L24.0931833,392.964824 C14.8543955,392.725571 7.15976491,383.394708 9.45437237,374.226697 C9.83462735,372.708748 10.4522902,371.251114 11.2791939,369.922155 C11.6916398,369.25868 12.1734973,368.639437 12.6694383,368.033263 L65.6305075,306.712138 C68.8308597,303.170872 73.4626504,301.266602 78.2302262,301.532011 C82.1678625,301.938035 85.8168084,303.782715 88.4769914,306.712138 L138.349746,364.457538 L188.221495,306.712138 C191.422417,303.171077 196.054399,301.26688 200.82222,301.532011 C204.759802,301.93822 208.408685,303.782869 211.068985,306.712138 L260.940734,364.457538 L310.813489,306.712138 C314.013841,303.170872 318.645632,301.266602 323.413208,301.532011 C327.350301,301.939883 330.998622,303.784247 333.659973,306.712138 L386.620036,368.033263 C392.497893,375.207835 390.372288,387.127254 381.989577,391.35037 C380.588349,392.055573 379.085945,392.538842 377.536167,392.782871 C376.762579,392.903503 375.979938,392.944719 375.196291,392.964824 L375.196291,392.964824 Z M24.120603,377.889447 L129.648241,377.889447 L76.8849232,316.582915 L24.120603,377.889447 Z M269.346734,377.889447 L374.874372,377.889447 L322.110553,316.582915 L269.346734,377.889447 Z M146.733668,377.889447 L252.261307,377.889447 L199.497487,316.582915 L146.733668,377.889447 Z M105.028923,111.446356 C100.863365,107.519851 98.7062365,101.300709 100.646346,95.5706222 C101.174977,94.0116356 101.955231,92.5495943 102.956191,91.2424285 C103.488691,90.5465032 103.655474,90.3988826 104.252276,89.7601979 L188.469696,5.40561062 C191.597381,2.47127605 195.678543,0.86853889 200.124418,1.01415097 C203.097377,1.30738359 205.980915,2.30357109 208.322912,4.10313562 C209.019181,4.63838556 209.165869,4.80609052 209.805874,5.40561062 L294.021285,89.7601979 C294.620096,90.3988826 294.78688,90.5465032 295.31938,91.2424285 C299.828551,97.1271652 298.75049,106.290684 293.483761,111.447361 L309.43164,111.447361 C309.691862,111.453386 309.951079,111.459411 310.211301,111.467445 C329.738988,112.984823 346.953815,128.800304 355.081979,146.068893 C364.579572,166.249724 364.946294,189.461295 362.360151,211.176576 C361.385576,219.360979 359.935768,227.481112 358.167466,235.528942 C362.035628,234.050728 366.582979,232.377695 368.270904,229.285698 C368.546196,228.783587 368.778286,227.076411 369.419296,225.676527 C373.239231,217.345507 385.488745,214.224387 392.854328,220.454576 C398.866557,225.537944 399.26744,235.012772 398.895694,243.767573 C398.293868,257.965253 392.457465,272.337668 380.717343,280.672705 C372.790122,286.300361 362.937864,288.801876 353.219233,289.156366 C353.219233,289.156366 347.916334,289.780992 343.368984,289.510856 C327.994798,288.599023 313.456538,279.562036 307.51263,263.970497 C303.472661,253.370941 303.447543,241.671763 304.940553,230.531937 C305.094275,229.39315 305.827719,224.712474 306.00254,220.827142 C306.545087,208.814647 305.269096,195.301846 295.51329,188.310457 C288.568684,183.334541 279.294138,183.490195 271.576903,184.14093 C262.934325,184.867987 253.677863,185.587009 246.645846,189.848924 C245.05136,190.814985 244.941846,191.187551 244.304855,191.626396 C240.938047,193.951168 236.66197,194.5296 232.680275,193.650906 L213.917178,287.62292 C211.630441,297.43115 199.115682,302.999557 190.540419,297.046533 C187.887333,295.194458 185.895059,292.544212 184.853718,289.481734 C184.58144,288.670323 184.552303,288.45542 184.358393,287.623925 L165.679692,194.075692 C164.703107,194.252434 163.688342,194.326747 162.644441,194.280553 C159.202279,194.130924 155.919867,192.707942 153.260381,190.467524 C149.712723,187.475949 144.780566,186.784041 140.015191,185.848107 C133.76384,184.619944 127.469285,183.832634 121.014981,183.750288 C112.192558,183.639824 102.785389,186.451644 98.0370947,194.381979 C91.9816631,204.4975 91.7274696,217.791381 93.9579421,229.510644 C96.1321505,245.190555 95.679023,261.671834 85.5986936,274.597166 C76.7069448,285.997086 61.1991321,291.160792 46.2770696,289.182476 C46.2770696,289.182476 41.1228695,288.973598 37.118066,288.268635 C23.0409709,285.785195 10.2468998,276.890808 4.34418521,263.183187 C-0.240340174,252.533421 -0.966750837,240.339162 1.09291978,229.253563 C1.09291978,229.253563 2.28451459,224.507613 4.85056277,221.731946 C9.64205994,216.547151 18.308752,215.439495 24.2817968,219.420228 C27.626501,221.649599 29.8881198,225.281868 30.737106,229.197326 C30.9380494,230.126231 31.3720873,230.091083 31.7900498,230.48273 C34.3008385,232.828591 37.5852596,234.272661 40.8726949,235.528942 C40.7450957,234.949506 40.6195061,234.369066 40.4949211,233.788626 C32.9223663,198.205049 30.0890633,158.696976 53.4758696,131.160224 C62.2671467,120.807707 74.7417176,113.091271 87.9065294,111.541757 C87.9065294,111.541757 87.9025105,111.491546 89.6095253,111.446356 L105.028923,111.446356 L105.028923,111.446356 Z M353.509367,288.498489 C352.090511,288.779896 352.998964,288.624117 353.752531,288.446227 C353.833585,288.427132 353.590422,288.481403 353.509367,288.498489 Z M46.4348679,288.621106 C46.4398959,288.611055 45.9370934,288.562814 45.2261307,288.442211 L46.1844723,288.617085 C46.7999025,288.637186 46.2126292,288.609045 45.2261307,288.442211 L46.3996717,288.623116 C46.4144306,288.62738 46.4295988,288.630075 46.444924,288.631156 C46.444924,288.631156 48.0961274,288.665327 46.6279441,288.631156 C46.6279441,288.631156 46.5012378,288.622111 46.4358735,288.621106 L46.4348679,288.621106 Z M46.2672923,289.447739 C46.255675,289.449749 46.2438297,289.450088 46.2321164,289.448744 C46.2270913,289.446734 46.2421667,289.446734 46.2682974,289.448744 L46.2672923,289.447739 Z M231.155779,126.633166 L167.839196,126.633166 L199.497487,284.422111 L231.155779,126.633166 Z M162.81407,178.619056 L162.350311,176.306324 L142.436816,126.633166 L89.7352165,126.633166 C78.1663764,127.831099 67.3339181,136.595242 61.0615948,146.405072 C51.1043444,161.980206 49.6587424,181.306393 50.8095905,199.410608 C51.7019002,213.453268 54.314446,227.325654 57.7861041,241.034777 C57.9390139,241.639753 61.2718459,247.950938 58.2448337,251.146094 C55.3214381,254.231072 50.2512682,253.381701 46.8610951,252.698599 C33.7963536,249.999243 19.080789,244.510386 16.1503515,232.72637 C16.0598128,232.358776 16.0326512,231.337128 15.8666635,232.269633 C13.6776377,245.171452 15.6383046,259.739962 26.7313133,267.883103 C32.6012422,272.192056 40.2537784,273.755579 47.5743392,273.870765 C52.0902108,274.688084 54.8637144,274.36957 58.0305587,273.876775 C65.1197427,272.774997 71.7672988,268.945817 75.5578544,262.548494 C81.0223709,253.325611 80.6471381,241.735908 79.1955001,231.802879 C79.0345424,230.703105 78.9973209,230.652022 78.9339437,230.243363 C75.9109555,209.882506 78.4581123,186.368562 96.4873951,174.982187 C110.259345,166.284151 128.286616,168.173199 143.114851,171.075884 C150.172849,172.456111 157.462224,174.252009 162.81407,178.619056 L162.81407,178.619056 Z M309.624325,126.633166 L257.164596,126.633166 L236.180905,179.232805 C243.113383,173.039072 253.156115,171.372916 262.973539,170.008331 C280.757855,167.536649 300.695116,167.881302 312.26794,183.831516 C322.261604,197.605608 322.971575,216.28399 320.124682,231.786356 C318.939061,238.032187 318.915028,244.848099 319.836288,250.942643 C321.112032,259.388643 325.604175,267.864699 333.662193,271.662893 C339.157707,274.254803 345.594508,274.929081 351.480556,273.932192 C351.480556,273.932192 354.448614,273.863061 356.90297,273.572511 C365.742056,272.526529 374.376862,268.40372 379.133366,260.355474 C384.143216,251.87541 384.736027,241.226238 383.116813,232.097946 C383.116813,232.097946 383.144851,231.453726 382.994646,232.205149 C381.102058,241.082966 371.704208,246.24775 364.158891,249.207356 C360.118367,250.791357 355.93765,252.042727 351.672819,252.85727 C351.672819,252.85727 346.786137,253.468428 344.207611,252.870295 C340.483519,252.008663 338.537859,247.365868 341.079334,242.390443 L341.099362,242.352371 C347.438028,217.522336 351.894121,191.435921 346.307483,166.72411 C342.291992,148.96046 330.876383,131.28097 311.846363,127.023906 C311.109912,126.868896 310.368484,126.738577 309.623324,126.633166 L309.624325,126.633166 Z M114.572864,100.502513 L283.417085,100.502513 L198.994975,16.080402 L114.572864,100.502513 Z" id="Shape" fill="#000000"></path>
            <path d="M76.8844221,316.582915 L129.648241,377.889447 L24.120603,377.889447 L76.8844221,316.582915 Z M199.497487,316.582915 L252.261307,377.889447 L146.733668,377.889447 L199.497487,316.582915 Z M322.111054,316.582915 L374.874372,377.889447 L269.346734,377.889447 L322.111054,316.582915 Z M236.180905,179.252369 L257.177183,126.633166 L309.669383,126.633166 C309.669383,126.633166 369.403821,132.252897 341.1633,242.395413 C341.1633,242.395413 334.077369,255.456 351.66194,252.919253 C351.66194,252.919253 380.291225,247.847764 383.156859,231.871572 C383.156859,231.871572 391.691638,273.420697 351.66194,273.966934 C351.66194,273.966934 313.227378,281.470934 320.167021,231.871572 C320.167021,231.871572 332.44015,168.728528 278.174464,168.728528 C278.174464,168.728528 247.162494,169.339913 236.181906,179.252369 L236.180905,179.252369 Z M162.81407,179.252369 L141.81679,126.633166 L89.3255921,126.633166 C89.3255921,126.633166 29.5911544,132.252897 57.8306732,242.395413 C57.8306732,242.395413 64.9176061,255.456 47.3330349,252.919253 C47.3330349,252.919253 18.7037497,247.847764 15.8381159,231.871572 C15.8381159,231.871572 7.30333656,273.420697 47.3330349,273.966934 C47.3330349,273.966934 85.7665952,281.470934 78.8279538,231.871572 C78.8279538,231.871572 66.5548249,168.728528 120.820511,168.728528 C120.820511,168.728528 151.832481,169.339913 162.813068,179.252369 L162.81407,179.252369 Z M167.839196,126.633166 L231.155779,126.633166 L199.497487,284.422111 L167.839196,126.633166 L167.839196,126.633166 Z M198.994471,16.080402 L283.417085,100.502513 L114.572864,100.502513 L198.994471,16.080402 Z" id="Shape" fill="#FFFFFF"></path>
        </g>
    </g>
</svg>