<?xml version="1.0" encoding="UTF-8"?>
<svg width="512px" height="512px" viewBox="0 0 512 512" version="1.1" xmlns="http://www.w3.org/2000/svg" xmlns:xlink="http://www.w3.org/1999/xlink">
    <!-- Generator: Sketch 53.2 (72643) - https://sketchapp.com -->
    <title>ic_items_honey_base</title>
    <desc>Created with Sketch.</desc>
    <g id="ic_items_honey_base" stroke="none" stroke-width="1" fill="none" fill-rule="evenodd">
        <g id="honey_base" transform="translate(56.000000, 56.000000)" fill-rule="nonzero">
            <path d="M290.92666,28.9579232 C290.92666,60.0930403 323.173479,84.4812521 364.339954,84.4812521 C373.804991,84.5099098 383.222578,83.1434819 392.289157,80.4260124 L392.289157,108.298689 C382.771098,105.275585 372.836016,103.771561 362.849627,103.841981 C320.63891,103.841981 287.910523,127.036938 287.910523,155.649696 C287.910523,184.26144 320.63891,207.455384 362.849627,207.455384 C372.835622,207.526025 382.770353,206.022344 392.288143,202.999689 L392.288143,237.479365 C387.255522,236.864741 382.191243,236.545182 377.12128,236.522329 C325.025742,236.522329 284.219176,266.713589 284.219176,305.256615 C284.219176,343.799641 325.026756,373.990901 377.12128,373.990901 C382.191581,373.968082 387.2562,373.648524 392.289157,373.033864 L392.289157,392.289157 L270.887342,392.288143 C276.547542,385.055623 279.782666,376.816389 279.782666,368.058085 C279.782666,339.446341 245.563953,316.251384 203.353235,316.251384 C161.142518,316.251384 126.923804,339.446341 126.923804,368.059099 C126.923804,376.816389 130.159942,385.055623 135.819129,392.289157 L46.2494768,392.289157 C36.02822,392.289157 26.2256142,388.22878 18.9981893,381.001292 C11.7707644,373.773804 7.71057449,363.971263 7.71084337,353.750186 L7.71084337,346.566328 C25.1337298,367.644651 53.9083847,375.526123 79.6407676,366.268168 C105.373151,357.010214 122.530741,332.603315 122.530741,305.256615 C122.530741,277.909915 105.373151,253.503016 79.6407676,244.245061 C53.9083847,234.987107 25.1337298,242.868578 7.71084337,263.946901 L7.71084337,209.250841 C20.5747126,215.572193 34.7426379,218.786311 49.0750146,218.634666 C90.2404757,218.634666 122.488308,194.24544 122.488308,163.110323 C122.488308,131.975206 90.2404757,107.585981 49.0750146,107.585981 C38.8890756,107.549215 28.7626989,109.140343 19.0788937,112.299183 L29.5517341,97.4164531 C33.3758923,91.6803165 40.8924111,88.2343765 47.7864396,88.1218436 L82.2363058,87.6494082 L149.576771,14.3762949 C153.725198,9.99633811 159.533697,7.57684758 165.564834,7.7165774 L296.338473,7.7165774 C292.804443,14.2400655 290.94491,21.5387256 290.92666,28.9579232 Z M57.8313253,352.771084 C31.7475154,352.771084 10.6024096,331.625979 10.6024096,305.542169 C10.6024096,279.458359 31.7475154,258.313253 57.8313253,258.313253 C83.9151352,258.313253 105.060241,279.458359 105.060241,305.542169 C105.060241,331.625979 83.9151352,352.771084 57.8313253,352.771084 Z M105.060241,163.855422 C105.060241,184.615427 80.4941255,201.445783 49.7742935,201.445783 C33.2875334,201.445783 17.81539,196.570427 8.6746988,188.870099 L8.6746988,138.840745 C17.81539,131.141429 33.2875334,126.26506 49.7742935,126.26506 C80.4941255,126.26506 105.060241,143.095417 105.060241,163.855422 Z M377.887685,255.421687 C383.027071,255.425007 388.16042,255.771511 393.253012,256.458857 L393.253012,355.590345 C388.174696,356.277339 383.055536,356.623511 377.930344,356.626506 C336.425273,356.626506 302.650602,333.970186 302.650602,306.024096 C302.650602,278.078006 336.382614,255.421687 377.887685,255.421687 Z M357.338304,8.6746988 C378.634355,8.6746988 393.253012,24.6223859 393.253012,46.0619511 L393.253012,62.1086921 C384.292942,65.6580252 374.749046,67.4767782 365.120314,67.4698599 C334.439597,67.4698599 309.39759,50.6664283 309.39759,29.7292811 C309.39759,21.7886257 312.988351,14.8017477 319.102788,8.6746988 L357.338304,8.6746988 Z" id="base" fill="#FFFFFF"></path>
            <path d="M356.2452,0.0057371542 C380.410285,0.0057371542 400,19.5951602 400,43.7599921 L400,372.554036 C400.00037,379.577423 397.210561,386.313269 392.244349,391.279668 C387.278158,396.246046 380.542416,399.036145 373.518999,399.036145 L46.7303032,399.036145 C34.5922114,399.036464 22.9511659,394.214836 14.3682231,385.632022 C5.78525952,377.049186 0.963536104,365.408256 0.963855422,353.270462 L0.963855422,131.946465 C0.963881292,126.390344 2.77757676,120.986089 6.12942688,116.554737 L24.1510774,92.7296884 C29.2543522,85.2386571 38.7763484,80.5661129 48.1680055,80.4128346 L79.5042241,79.9830977 L144.738094,9.00198302 C150.34479,3.08116666 158.08319,-0.155327238 166.124484,0.0057371542 L356.2452,0.0057371542 Z M85.9339138,94.3517752 L82.8199559,94.3944792 L48.3895629,94.8666242 C43.4851114,94.946681 38.3564499,97.4841191 36.0495734,100.944382 L17.6611931,125.275513 C16.2080224,127.196695 15.421698,129.5397 15.4216867,131.948507 L15.4216867,353.266072 C15.4214683,361.570639 18.7203998,369.535142 24.5927187,375.407373 C30.4650584,381.279625 38.4297376,384.578532 46.7346924,384.578313 L373.513845,384.578313 C376.704087,384.578313 379.76365,383.310973 382.019416,381.055121 C384.275162,378.79929 385.542337,375.739764 385.542169,372.549263 L385.542169,43.7646257 C385.542169,27.5821193 372.423416,14.4635622 356.240561,14.4635622 L166.047892,14.4635622 C161.907906,14.3695855 158.081344,15.9564086 155.339971,18.830893 L85.9339138,94.3517752 Z M49.5161482,107.952425 C90.8358824,107.952425 123.373494,132.295411 123.373494,163.373803 C123.373494,194.452195 91.1747522,218.795181 49.8550181,218.795181 C34.3392564,218.795181 19.8685978,215.361703 8.6746988,209.428757 L8.6746988,188.373532 C17.8333435,196.069259 33.4213567,200.941701 49.9394811,200.941701 C80.7196506,200.941701 105.419498,184.121402 105.419498,163.373803 C105.419498,142.625192 80.6351875,125.806917 49.8550181,125.806917 C33.335876,125.806917 17.8333435,130.679359 8.6746988,138.375086 L8.6746988,128.781991 L9.86328735,126.624556 L19.4086303,112.656888 C29.1284025,109.504011 39.2923771,107.915835 49.5161482,107.952425 Z M364.427299,104.098904 L364.427299,104.097886 C374.529387,104.041912 384.578935,105.552354 394.216867,108.575242 L394.216867,203.713967 C384.464684,206.736255 374.305737,208.246283 364.094763,208.191323 C321.624941,208.191323 288.192771,184.889923 288.192771,156.144605 C288.192771,127.400304 321.957478,104.098904 364.427299,104.098904 Z M203.855422,316.144578 C246.17498,316.144578 280.481928,339.437229 280.481928,367.963524 C280.367606,376.842818 277.223017,385.420061 271.563666,392.289157 L136.147177,392.289157 C130.487826,385.420061 127.343238,376.842818 127.228916,367.963524 C127.228916,339.437229 161.535863,316.144578 203.855422,316.144578 Z M378.79583,237.108434 C383.950295,237.135349 389.099009,237.453483 394.216867,238.061286 L394.216867,255.95451 C389.120162,255.26687 383.982441,254.920205 378.838644,254.91687 C337.183087,254.91687 303.285959,277.582429 303.285959,305.542169 C303.285959,333.501909 337.140273,356.167467 378.79583,356.167467 C383.953827,356.164477 389.105788,355.818153 394.216867,355.130837 L394.216867,373.023052 C389.113342,373.630844 383.978876,373.948981 378.838644,373.975904 C326.459309,373.975904 285.301205,343.91666 285.301205,305.542169 C285.301205,267.167678 326.417515,237.108434 378.79583,237.108434 Z M58.4767168,370.120482 L58.4767168,370.119465 C38.3256406,370.119465 19.8725688,360.921565 8.6746988,346.509283 L8.6746988,263.610182 C19.8725688,249.198917 38.4101337,240 58.5612098,240 C94.4201269,240.163019 123.396748,269.269304 123.37348,305.102292 C123.350212,340.93528 94.3358154,370.003965 58.4767168,370.120482 Z M58.7951807,258.313253 C32.7113709,258.313253 11.5662651,279.458359 11.5662651,305.542169 C11.5662651,331.625979 32.7113709,352.771084 58.7951807,352.771084 C84.8789906,352.771084 106.024096,331.625979 106.024096,305.542169 C106.024096,279.458359 84.8789906,258.313253 58.7951807,258.313253 Z M365.969964,65.8272799 L365.969964,65.8262676 C375.626916,65.8866322 385.209131,64.141105 394.216867,60.6807207 L394.216867,79.6371463 C385.049892,82.3679684 375.53857,83.7882985 365.968945,83.8554217 C324.614027,83.8554217 292.04871,59.6714525 292.04871,28.5825502 C292.012415,21.2748244 293.885776,14.0829417 297.48543,7.71084337 L319.762942,7.71084337 C313.623462,13.7846741 310.103548,20.7108656 310.103548,28.5825502 C310.103548,49.3378419 335.162567,65.8272799 365.969964,65.8272799 Z M204.337349,31.8072289 C245.413947,31.8072289 277.590361,56.1513627 277.590361,87.2289157 C277.590361,118.306469 245.412935,142.650602 204.337349,142.650602 C163.261764,142.650602 131.084337,118.306469 131.084337,87.2289157 C131.084337,56.1513627 163.261764,31.8072289 204.337349,31.8072289 Z M203.854916,50.1204819 C173.24718,50.1204819 148.433735,66.9508385 148.433735,87.7108434 C148.433735,108.471861 173.24718,125.301205 203.854916,125.301205 C234.462651,125.301205 259.277108,108.471861 259.277108,87.7108434 C259.277108,66.9508385 234.462651,50.1204819 203.854916,50.1204819 Z M204.337349,177.349398 C245.413947,177.349398 277.590361,201.693531 277.590361,232.771084 C277.590361,263.848637 245.412935,288.192771 204.337349,288.192771 C163.261764,288.192771 131.084337,263.847625 131.084337,232.771084 C131.084337,201.693531 163.261764,177.349398 204.337349,177.349398 Z M203.854916,195.663663 L203.854916,195.662651 C173.24718,195.662651 148.433735,212.492221 148.433735,233.253518 C148.433735,254.014815 173.24718,270.843373 203.854916,270.843373 C234.462651,270.843373 259.277108,254.013803 259.277108,233.253518 C259.277108,212.492221 234.462651,195.663663 203.854916,195.663663 Z" id="outline" fill="#000000"></path>
            <path d="M51.4739255,213.012048 C85.8597342,213.012048 113.73494,191.219643 113.73494,164.337349 C113.73494,137.455056 85.8597342,115.662651 51.4739255,115.662651 C17.0881168,115.662651 6.74698795,137.455056 6.74698795,164.337349 C6.74698795,191.219643 17.0881168,213.012048 51.4739255,213.012048 Z" id="alpha" fill-opacity="0.2" fill="#000000"></path>
        </g>
    </g>
</svg>