<?xml version="1.0" encoding="UTF-8"?>
<svg width="512px" height="512px" viewBox="0 0 512 512" version="1.1" xmlns="http://www.w3.org/2000/svg" xmlns:xlink="http://www.w3.org/1999/xlink">
    <!-- Generator: Sketch 53.2 (72643) - https://sketchapp.com -->
    <title>ic_items_ammo_base</title>
    <desc>Created with Sketch.</desc>
    <g id="ic_items_ammo_base" stroke="none" stroke-width="1" fill="none" fill-rule="evenodd">
        <g id="ammo" transform="translate(108.000000, 56.000000)">
            <path d="M45.4199989,121.758464 C48.3789305,112.484572 76.9869171,28.3910443 147.089685,10.9725686 L147.526053,11.0803117 C211.344329,27.2268197 240.633766,98.6595298 247.433331,117.836813 L289.276808,155.106964 L249.020394,190.963484 L249.020394,196.732731 L289.275812,232.588254 L249.020394,268.444775 L249.020394,273.881814 L289.275812,309.737337 L249.169835,345.461174 L271.937668,367.726096 L271.937668,390.024938 L206.586128,390.024938 L206.586128,334.17907 L175.442626,334.17907 L175.442626,390.024938 L118.776595,390.024938 L119.080459,334.17907 L86.0380596,334.17907 L86.0380596,390.024938 L22.6053413,390.024938 L22.6053413,367.726096 L45.1609679,345.152909 L45.1609679,342.855386 L7.98004988,309.737337 L45.1609679,276.619288 L45.1609679,265.705306 L7.98004988,232.588254 L45.1609679,199.471203 L45.1609679,188.225013 L7.98004988,155.106964 L45.4199989,121.758464 L45.4199989,121.758464 Z" id="Shape" fill="#FFFFFF"></path>
            <path d="M36.7388011,120.034808 C44.3212639,95.4111819 56.8277407,71.9017787 72.1581963,52.0791861 C90.1550783,28.8091861 114.153912,9.61901728 143.591299,1.95412189 L147.333669,0.997506234 L151.076039,1.9551194 C188.19062,11.6170373 218.083712,41.4087819 237.071778,73.6873282 C245.674344,88.3088843 252.983583,103.852143 257.929534,119.9979 L258.080107,120.504637 C258.317432,120.482692 258.55775,120.466731 258.798067,120.458751 C259.114169,120.446781 259.431269,120.452766 259.747371,120.458751 C262.770783,120.621346 265.710433,121.725594 267.990956,123.702666 C268.31005,123.979975 268.382843,124.056783 268.685982,124.35105 L290.50401,146.175652 C295.282438,151.130303 295.631446,159.510416 290.833076,164.665567 C290.725381,164.781278 290.613699,164.893 290.50401,165.007714 L268.685982,186.832316 C265.980666,189.443807 262.244279,190.493192 258.581682,190.193938 L258.581682,196.817429 C258.654475,196.813439 258.725274,196.809449 258.798067,196.807454 C259.114169,196.795483 259.431269,196.801469 259.747371,196.807454 C261.292981,196.890247 261.721763,196.996981 262.565367,197.212444 C264.865832,197.798982 266.958887,199.031909 268.685982,200.698755 L290.50401,222.524355 C295.279446,227.475015 295.631446,235.859118 290.833076,241.014269 C290.725381,241.129981 290.613699,241.2427 290.50401,241.356416 L268.685982,263.182016 C265.988643,265.785527 262.248267,266.867829 258.581682,266.602491 L258.581682,274.644446 C258.654475,274.639459 258.725274,274.637464 258.798067,274.634471 C259.114169,274.622501 259.431269,274.628486 259.747371,274.634471 C261.292981,274.717265 261.721763,274.823999 262.565367,275.039462 C264.865832,275.627995 266.958887,276.858927 268.685982,278.52677 L290.50401,300.351372 C295.279446,305.302033 295.631446,313.686136 290.833076,318.842284 C290.725381,318.956998 290.613699,319.069717 290.50401,319.183434 L268.685982,341.009034 C267.962038,341.707293 267.163307,342.295827 266.309731,342.778623 L277.384275,353.790177 C278.597828,355.042057 278.865069,355.461013 279.388582,356.291942 C280.818521,358.556298 281.541467,361.204697 281.592323,363.908956 L281.592323,385.733559 C281.450725,393.117155 275.305181,399.705733 267.875284,399.990025 C267.6938,399.998005 267.511318,399.998005 267.328837,400 L212.78576,400 C205.405722,399.860348 198.818433,393.712671 198.533243,386.280196 C198.52726,386.098649 198.52726,385.916104 198.523271,385.733559 L198.523271,344.799586 L188.711141,344.799586 L188.711141,385.733559 C188.57054,393.085235 182.57856,399.700746 174.9951,399.990025 C174.812618,399.998005 174.631134,399.998005 174.448652,400 L119.905575,400 C112.483657,399.858353 105.872435,393.635862 105.648072,386.161492 C105.644084,385.978947 105.644084,385.795405 105.643086,385.61286 L105.991098,344.799586 L96.1440672,344.799586 L96.1440672,385.733559 C96.0024694,393.117155 89.8579223,399.705733 82.4280261,399.990025 C82.2455444,399.998005 82.0640599,399.998005 81.8815782,400 L27.3375044,400 C19.9883787,399.860348 13.3751628,393.867286 13.0859842,386.280196 C13.0780068,386.098649 13.0780068,385.916104 13.0760125,385.733559 L13.0760125,363.907959 C13.1079218,362.165302 13.215616,361.678516 13.4349928,360.7219 C14.0332934,358.112404 15.4014075,355.732336 17.2830628,353.78918 L28.5560432,342.580118 C27.9763552,342.188351 27.4282312,341.751768 26.9166996,341.274373 C26.8020253,341.165644 26.6893454,341.053922 26.5756683,340.945193 L4.75763986,319.119593 C-0.0187932328,314.167935 -0.370793417,305.783832 4.42757736,300.628681 C4.53527147,300.51297 4.64695425,300.400251 4.75664269,300.286534 L26.5746711,278.460934 C27.6885074,277.386612 28.0574594,277.146211 28.7903776,276.675384 C30.6673837,275.472194 32.8151899,274.757267 35.0386302,274.595568 C35.5771007,274.555668 35.8732595,274.552675 36.0846591,274.557663 L36.0846591,266.459846 C33.0432977,266.561593 29.9331318,265.567072 27.2726885,263.090245 L26.9316571,262.760068 L5.11362871,240.934468 C0.338192789,235.98281 -0.0138073945,227.599705 4.78456339,222.444554 C4.89225749,222.327845 5.00394027,222.215125 5.11362871,222.102406 L26.9316571,200.276806 C27.983669,199.262335 28.2030459,199.136648 28.7524853,198.755598 C30.7179768,197.395004 33.0117584,196.585599 35.3956162,196.411441 C35.6877863,196.389495 35.9101547,196.37952 36.0846591,196.374533 L36.0846591,190.241818 C34.9229587,190.261769 33.7502896,190.112142 32.5945723,189.772987 C30.4656193,189.147546 28.5360999,187.961502 26.9316571,186.411366 L5.11362871,164.585766 C0.338192789,159.635105 -0.0138073945,151.252 4.78456339,146.096849 C4.89225749,145.98014 5.00394027,145.867421 5.11362871,145.753704 L26.9316571,123.929102 C27.983669,122.91463 28.2030459,122.787946 28.7524853,122.406896 C30.7181549,121.046651 33.0118385,120.23728 35.3956162,120.062738 C36.2292484,120.002888 36.4815318,120.026828 36.7378039,120.034808 L36.7388011,120.034808 Z M174.562588,345.137157 L120.051803,345.137157 L119.700748,386.034913 L174.563591,386.034913 L174.563591,345.137157 L174.562588,345.137157 Z M81.7945082,345.137157 L46.2623948,345.137157 L26.9326683,364.22962 L26.9326683,386.034913 L81.7955112,386.034913 L81.7955112,345.137157 L81.7945082,345.137157 Z M248.001591,345.137157 L212.468828,345.137157 L212.468828,386.034913 L267.331671,386.034913 L267.331671,364.228623 L248.001591,345.137157 Z M259.352624,332.169576 L281.296758,310.224439 L259.351621,288.279302 L259.351621,332.169576 L259.352624,332.169576 Z M13.9650873,310.224439 L35.9102244,332.169576 L35.9102244,288.279302 L13.9650873,310.224439 Z M245.386534,331.17207 L245.386534,211.471322 L50.1340956,211.471322 L50.1340956,253.12837 C50.1211564,253.876586 50.0345633,254.611852 49.882279,255.328187 L49.8753117,331.17207 L245.386534,331.17207 L245.386534,331.17207 Z M259.352624,254.36409 L281.296758,232.41795 L259.351621,210.473815 L259.351621,254.36409 L259.352624,254.36409 Z M14.9625935,230.923189 L36.9077307,252.369077 L36.9077307,209.476309 L14.9625935,230.923189 L14.9625935,230.923189 Z M49.8753117,158.603491 L49.8753117,197.506234 L243.391521,197.506234 L243.391521,158.603491 L49.8753117,158.603491 Z M259.352624,177.55611 L281.296758,155.610973 L259.351621,133.665835 L259.351621,177.55611 L259.352624,177.55611 Z M14.9625935,155.111227 L36.9077307,176.558603 L36.9077307,133.665835 L14.9625935,155.111227 Z M245.386534,144.638404 L245.386534,124.61536 C238.348922,100.683502 225.694162,77.531607 210.454298,58.3865209 C194.384255,38.1994844 173.171879,21.5242803 147.621466,14.9625935 L147.204386,15.0695884 C114.226157,23.6931768 87.461334,50.6338909 70.2624863,79.5185122 C61.8173523,93.6998353 54.5985744,108.765116 49.8763071,124.548363 L49.8753117,131.378037 C50.0047162,132.030006 50.0833543,132.697974 50.1062489,133.378941 C50.1122214,133.537934 50.1122214,133.696926 50.1152077,133.854919 L50.1152077,144.638404 L245.386534,144.638404 L245.386534,144.638404 Z" id="Shape" fill="#000000"></path>
        </g>
        <polygon id="Path" fill-opacity="0.15" fill="#000000" points="190 399.9419 155.140334 399.9419 131.665989 423.47095 131.665989 447 190 447"></polygon>
        <polygon id="Path" fill-opacity="0.15" fill="#000000" points="317 399.9419 351.859666 399.9419 375.334011 423.47095 375.334011 447 317 447 317 399.9419"></polygon>
        <polygon id="Path" fill-opacity="0.15" fill="#000000" points="283.999216 399.9419 226.062816 399.9419 225.666221 447 283.999216 447"></polygon>
        <polygon id="Path" fill-opacity="0.15" fill="#000000" points="155.762828 214.365198 155.762828 254.165131 355.392382 254.212302 355.392382 214.365198"></polygon>
    </g>
</svg>