<?xml version="1.0" encoding="UTF-8"?>
<svg width="512px" height="512px" viewBox="0 0 512 512" version="1.1" xmlns="http://www.w3.org/2000/svg" xmlns:xlink="http://www.w3.org/1999/xlink">
    <!-- Generator: Sketch 53.2 (72643) - https://sketchapp.com -->
    <title>ic_items_binoculars_base</title>
    <desc>Created with Sketch.</desc>
    <g id="ic_items_binoculars_base" stroke="none" stroke-width="1" fill="none" fill-rule="evenodd">
        <g id="binoculars" transform="translate(56.000000, 61.000000)" fill-rule="nonzero">
            <path d="M150.512236,235.121405 L195.975961,235.121405 C199.95344,235.041946 203.795878,236.564787 206.638991,239.347394 C209.482104,242.130001 211.087168,245.938731 211.093154,249.916881 L211.093154,281.594052 L227.295415,281.594052 C231.272894,281.514593 235.115333,283.037434 237.958446,285.820041 C240.801559,288.602648 242.406623,292.411378 242.412609,296.389528 L242.412609,326.697776 C242.412609,335.066894 235.664782,342.210548 227.295415,342.210548 L150.512236,342.210548 C142.066306,342.044781 135.309291,335.145074 135.32028,326.697776 L135.32028,249.916881 C135.342965,245.930858 136.963656,242.120512 139.819305,239.339389 C142.674955,236.558266 146.526885,235.038815 150.512236,235.121405 Z M56.2294728,65.8232115 L6.61516936,26.4893493 C-4.41157042,17.7474294 1.76997613,0 15.8415842,0 L256.435644,0 C270.507252,0 276.688798,17.7474294 265.662058,26.4893493 L218.335114,64.0098099 C262.910269,64.1738916 305.589945,64.2961689 346.37414,64.3766417 C375.430795,64.409507 398.977488,87.8797563 399.009901,116.841523 L399.009901,327.91191 C398.971957,361.460032 371.731944,388.646713 338.118012,388.684583 L289.930412,388.684583 C281.542289,388.684583 274.742372,381.897979 274.742372,373.526279 L274.742372,204.809052 C246.074825,204.851151 76.6195606,204.809052 74.581936,204.809052 C35.6081071,204.765165 4.02453265,173.212452 3.98060214,134.276707 C3.98060214,101.749402 26.1872194,74.023662 56.2294728,65.8232115 Z M88.3606994,63.4400727 C121.284392,63.6058161 153.320715,63.7519887 184.469668,63.8785905 L137.308239,26.4893493 C136.894275,26.1611618 136.504564,25.8202821 136.138614,25.4681257 C135.772663,25.8202821 135.382953,26.1611618 134.968989,26.4893493 L88.360689,63.4400736 L88.3606994,63.4400727 Z" id="background" fill="#000000"></path>
            <path d="M309.704306,190.664786 C326.857905,170.353284 334.734039,149.265033 333.138333,127.738392 C331.737402,108.841232 322.742022,90.110698 314.447456,79.5312184 L346.384091,79.5312184 C367.054504,79.5917341 383.795104,96.259872 383.855324,116.839245 L383.855324,153.357765 C383.794547,173.936743 367.054109,190.604268 346.385107,190.664781 L309.704306,190.664786 Z M195.938573,250.272782 L195.938573,296.746818 L227.258032,296.746818 L227.258032,327.055971 L150.474843,327.055971 L150.474843,250.272782 L195.938573,250.272782 Z M374.934787,227.851102 C380.64677,233.548244 383.855593,241.275189 383.855324,249.33203 L383.855324,327.913437 C383.855324,353.106773 363.378208,373.530006 338.118404,373.530006 L289.896949,373.530006 L289.896949,249.33102 C289.896949,232.553882 303.533389,218.953324 320.354791,218.953324 L353.397482,218.953324 C361.47558,218.953324 369.222804,222.153961 374.934787,227.851102 Z M157.546979,78.5209133 C149.299157,85.0211773 142.570587,93.302495 137.84603,102.768236 C133.121472,93.302495 126.392902,85.0211773 118.14508,78.5209133 L157.546979,78.5209133 Z M62.1850467,188.220524 C34.6576832,181.845005 16.2934959,155.846789 19.4973782,127.787508 C22.7012605,99.7282277 46.4540285,78.5337936 74.7108363,78.5209133 C75.686885,78.5209133 76.6558535,78.5482076 77.6197648,78.5977416 C106.552698,80.1177457 129.465735,103.5933 130.268741,132.539255 C130.257615,133.054813 130.229295,133.568349 130.229295,134.087951 C130.229295,134.607552 130.257615,135.119067 130.268741,135.636646 C129.494988,163.441958 108.267723,186.390742 80.5934261,189.340599 C74.4378055,189.998779 68.2153206,189.620166 62.1850467,188.220524 Z M74.1968074,157.324712 C86.7512698,157.324712 96.9286725,147.147309 96.9286725,134.592847 C96.9286725,122.038385 86.7512698,111.860982 74.1968074,111.860982 C61.642345,111.860982 51.4649424,122.038385 51.4649424,134.592847 C51.4649424,147.147309 61.642345,157.324712 74.1968074,157.324712 Z M118.14508,189.654476 C126.151862,183.346819 132.69692,175.423854 137.340877,166.417458 C141.984834,175.423854 148.529892,183.346819 156.536674,189.654476 L118.14508,189.654476 Z M195.08856,189.340372 C167.420438,186.390137 146.19791,163.438415 145.424329,135.629543 C145.435453,135.112908 145.463767,134.600317 145.463767,134.080649 C145.463767,133.560981 145.435453,133.04839 145.423318,132.531755 C146.255446,102.821053 170.325065,79.0258491 200.049029,78.528826 C229.772994,78.0318029 254.625011,101.008974 256.450385,130.675239 C258.275758,160.341505 236.428058,186.191006 206.867294,189.340372 C202.952222,189.759177 199.003632,189.759177 195.08856,189.340372 Z M200.484946,157.324712 C213.039409,157.324712 223.216811,147.147309 223.216811,134.592847 C223.216811,122.038385 213.039409,111.860982 200.484946,111.860982 C187.930484,111.860982 177.753081,122.038385 177.753081,134.592847 C177.753081,147.147309 187.930484,157.324712 200.484946,157.324712 Z M290.075855,189.654476 L244.305813,189.654476 C261.323678,176.144071 271.165917,155.572298 270.993528,133.8731 C270.821139,112.173902 260.653293,91.7604113 243.422914,78.5209133 L289.382292,78.5209133 C289.382292,78.5209133 353.724613,126.005254 290.075855,189.654476 Z M70.7920792,58.4158416 L15.8415842,14.8514851 L125.742574,14.8514851 L70.7920792,58.4158416 Z M201.485149,58.4158416 L146.534653,14.8514851 L256.435644,14.8514851 L201.485149,58.4158416 Z" id="foreground" fill="#FFFFFF"></path>
            <polygon id="Path-95" fill-opacity="0.403023098" fill="#000000" points="7.78644299 11.5577209 68.2343133 63.3903026 137.129236 11.5577209 195.734326 68.5313059 263.338129 11.5577209"></polygon>
            <path d="M140.823533,243.086239 L200.990099,243.086239 L200.990099,288.869196 L233.664548,292.945454 L233.664548,334.652152 L140.823533,334.652152 L140.823533,243.086239 Z M292.807668,202.079481 L327.367632,139.655373 L310.08765,75.4907942 L363.50178,75.4907942 L389.952485,98.9871356 L389.952485,350.706728 L351.224262,380.970947 L284.875782,380.970947 L284.875782,215.687294 L292.807668,202.079481 Z" id="Path-96" fill-opacity="0.15" fill="#000000"></path>
        </g>
    </g>
</svg>