<?xml version="1.0" encoding="UTF-8"?>
<svg width="512px" height="512px" viewBox="0 0 512 512" version="1.1" xmlns="http://www.w3.org/2000/svg" xmlns:xlink="http://www.w3.org/1999/xlink">
    <!-- Generator: Sketch 53.2 (72643) - https://sketchapp.com -->
    <title>ic_items_gem_base</title>
    <desc>Created with Sketch.</desc>
    <g id="ic_items_gem_base" stroke="none" stroke-width="1" fill="none" fill-rule="evenodd">
        <g id="Group" transform="translate(56.000000, 56.000000)" fill-rule="nonzero">
            <path d="M238.36682,268.076249 L216.76787,385.544225 C213.223874,404.818592 185.599656,404.818592 182.055659,385.544225 L160.581942,268.757339 L48.5613786,308.604969 C30.0972893,315.172961 16.2851804,291.249687 31.2052732,278.543313 L122.83609,200.507911 L31.2052732,122.472509 C16.2851804,109.766134 30.0972893,85.8428599 48.5613786,92.4108523 L160.406628,132.19612 L182.055659,14.4557749 C185.599656,-4.81859165 213.223874,-4.81859165 216.76787,14.4557749 L238.542134,132.87721 L352.302077,92.4108523 C370.766167,85.8428599 384.578276,109.766134 369.658183,122.472509 L278.027366,200.507911 L369.658183,278.543313 C384.578276,291.249687 370.766167,315.172961 352.302077,308.604969 L238.36682,268.076249 Z M347.686073,211.768566 C340.913073,206.124399 340.913073,195.721778 347.686073,190.077612 L375.921367,166.5482 C385.11657,158.88553 399.076911,165.424204 399.076911,177.393677 L399.076911,224.452501 C399.076911,236.421973 385.11657,242.960647 375.921367,235.297977 L347.686073,211.768566 Z M271.278127,331.886693 L305.675669,331.886693 C318.345723,331.886693 324.601802,347.284865 315.521981,356.121558 L281.124439,389.598049 C272.177003,398.305903 257.16048,391.966156 257.16048,379.480831 L257.16048,346.00434 C257.16048,338.207379 263.481166,331.886693 271.278127,331.886693 Z M128.543564,331.764706 C136.340525,331.764706 142.661211,338.085392 142.661211,345.882353 L142.661211,379.358844 C142.661211,391.844169 127.644688,398.183915 118.697252,389.476061 L84.2997098,355.999571 C75.2198896,347.162878 81.4759678,331.764706 94.1460221,331.764706 L128.543564,331.764706 Z M270.588235,71.151746 C262.791274,71.151746 256.470588,64.8310601 256.470588,57.0340989 L256.470588,23.5576082 C256.470588,11.0722832 271.487111,4.73253662 280.434548,13.4403906 L314.83209,46.9168813 C323.91191,55.7535742 317.655832,71.151746 304.985778,71.151746 L270.588235,71.151746 Z M128.543564,71.151746 L94.1460221,71.151746 C81.4759678,71.151746 75.2198896,55.7535742 84.2997098,46.9168813 L118.697252,13.4403906 C127.644688,4.73253662 142.661211,11.0722832 142.661211,23.5576082 L142.661211,57.0340989 C142.661211,64.8310601 136.340525,71.151746 128.543564,71.151746 Z M51.3908386,210.845477 L23.1555445,234.374889 C13.9603408,242.037558 2.27373675e-13,235.498884 2.27373675e-13,223.529412 L2.27373675e-13,176.470588 C2.27373675e-13,164.501116 13.9603408,157.962442 23.1555445,165.625111 L51.3908386,189.154523 C58.1638381,194.798689 58.1638381,205.201311 51.3908386,210.845477 Z" id="Triangle" fill="#000000"></path>
            <path d="M224.757988,244.50506 L199.411765,382.352941 L174.190774,245.18615 L42.6470588,291.978499 L150.053755,200.507911 L42.6470588,109.037322 L174.015461,155.76731 L199.411765,17.6470588 L224.933301,156.448399 L358.216397,109.037322 L250.809701,200.507911 L358.216397,291.978499 L224.757988,244.50506 Z M356.72397,200.923089 L384.959264,177.393677 L384.959264,224.452501 L356.72397,200.923089 Z M271.278127,346.00434 L305.675669,346.00434 L271.278127,379.480831 L271.278127,346.00434 Z M128.543564,345.882353 L128.543564,379.358844 L94.1460221,345.882353 L128.543564,345.882353 Z M270.588235,57.0340989 L270.588235,23.5576082 L304.985778,57.0340989 L270.588235,57.0340989 Z M128.543564,57.0340989 L94.1460221,57.0340989 L128.543564,23.5576082 L128.543564,57.0340989 Z M42.3529412,200 L14.1176471,223.529412 L14.1176471,176.470588 L42.3529412,200 Z" id="Path" fill="#FFFFFF"></path>
        </g>
    </g>
</svg>