<?xml version="1.0" encoding="UTF-8"?>
<svg width="512px" height="512px" viewBox="0 0 512 512" version="1.1" xmlns="http://www.w3.org/2000/svg" xmlns:xlink="http://www.w3.org/1999/xlink">
    <!-- Generator: Sketch 53.2 (72643) - https://sketchapp.com -->
    <title>ic_items_hide_base</title>
    <desc>Created with Sketch.</desc>
    <g id="ic_items_hide_base" stroke="none" stroke-width="1" fill="none" fill-rule="evenodd">
        <g id="Group" transform="translate(66.000000, 57.000000)" fill-rule="nonzero">
            <path d="M119.916056,74.0300654 C119.774992,72.7413419 119.703336,71.4255002 119.703336,70.0835991 C119.703336,52.3342226 127.557314,38.6042347 141.659889,30.9421919 C146.299487,11.4968266 162.048793,0.172986903 185.024205,0.172986903 C207.862224,0.172986903 223.792376,11.2723134 229.159915,30.595737 C244.545897,38.3050806 253.318422,52.0421532 253.318422,70.0835991 C253.318422,71.449399 253.242224,72.7873014 253.092383,74.0963315 C253.603277,74.0523305 254.117741,74.0300654 254.634489,74.0300654 L272.510543,74.0300654 L293.590357,33.3625399 C296.678323,27.4051864 302.829062,23.6654594 309.539173,23.6654594 L361.245094,23.6654594 C378.22775,23.6654594 385.727771,45.0525434 372.464634,55.6591357 L338.217831,83.0464632 L338.217831,105.079328 C338.217831,115.000611 330.175042,123.0434 320.253759,123.0434 L306.545283,123.0434 L326.531612,138.955878 L357.309924,138.955878 C373.534276,138.955878 381.445933,158.761298 369.687028,169.939749 L325.113275,212.313213 C324.111721,213.265327 323.00365,214.098696 321.811045,214.796785 L314.531469,219.057874 L331.787408,233.508656 C340.754065,241.017676 340.268365,254.956464 330.800784,261.823139 L282.063829,297.171221 L291.070697,306.345835 L314.466498,298.384237 C322.987399,295.484572 332.33892,299.338453 336.342691,307.399696 L346.108687,327.06267 C350.362535,335.62742 347.160978,346.023348 338.825837,350.71116 L292.239007,376.912313 C285.603978,380.643956 277.337341,379.788469 271.607089,374.777183 L231.331511,339.554919 L193.658164,374.436272 C182.157535,385.084582 163.489416,376.927958 163.489416,361.254702 L163.489416,344.955181 L136.073125,344.955181 L122.403351,356.648985 L122.403351,380.526151 C122.403351,395.499561 105.160512,403.901153 93.3684805,394.673423 L29.1357315,344.408765 C19.9683841,337.234954 19.9402335,323.370271 29.0783742,316.159293 L47.9236055,301.288374 C54.1309247,296.390131 62.8111735,296.126662 69.3041413,300.639419 L75.3053997,304.810427 L89.2537812,294.277108 L37.174448,251.476697 C28.7906524,244.586633 28.3831724,231.893267 36.3077947,224.479674 L61.4150869,200.991457 L29.6023899,177.726755 C19.7041377,170.488139 19.8075061,155.679177 29.8058417,148.579442 L65.767453,123.0434 L52.6217724,123.0434 C42.7004894,123.0434 34.6577005,115.000611 34.6577005,105.079328 L34.6577005,82.0225764 L6.26568211,54.5362358 C-5.33409195,43.3064832 2.61564201,23.6654594 18.7606753,23.6654594 L75.7426451,23.6654594 C85.6639281,23.6654594 93.706717,31.7082483 93.706717,41.6295312 L93.706717,65.4458179 L105.115569,74.0300654 L119.916056,74.0300654 Z" id="background" fill="#000000"></path>
            <path d="M18.7606753,41.6295312 L52.6217724,74.4104922 L52.6217724,105.079328 L92.0740674,105.079328 L99.1121027,121.398048 L40.2065296,163.226406 L89.5253972,199.293414 L48.5802874,237.598127 L118.272966,294.873732 L75.7426451,326.991109 L59.0517609,315.390574 L40.2065296,330.261493 L104.439279,380.526151 L104.439279,348.376048 L129.437756,326.991109 L181.453488,326.991109 L181.453488,361.254702 L230.988701,315.390574 L283.432925,361.254702 L330.019755,335.053549 L320.253759,315.390574 L286.164643,326.991109 L254.634489,294.873732 L320.253759,247.281194 L283.432925,216.446023 L312.736171,199.293414 L357.309924,156.91995 L320.253759,156.91995 L271.402165,118.025868 L278.620794,105.079328 L320.253759,105.079328 L320.253759,74.4104922 L361.245094,41.6295312 L309.539173,41.6295312 L283.432925,91.9941373 L254.634489,91.9941373 L218.020746,128.368929 L187.313884,110.259591 L162.418322,133.817023 L122.022773,91.9941373 L99.1121027,91.9941373 L75.7426451,74.4104922 L75.7426451,41.6295312 L18.7606753,41.6295312 Z M137.667408,70.0835991 C137.667408,55.9826697 144.513049,47.179261 158.204333,43.6733731 C158.204333,26.6491635 167.14429,18.1370588 185.024205,18.1370588 C202.90412,18.1370588 212.270792,26.6491635 213.124221,43.6733731 C227.944307,47.6583194 235.35435,56.4617281 235.35435,70.0835991 C235.35435,83.7054701 219.073193,92.143611 186.510879,95.3980218 C153.948565,92.6226694 137.667408,84.1845285 137.667408,70.0835991 Z M170.465546,62.7346799 L149.328673,62.7346799 L149.328673,72.4974568 L170.465546,72.4974568 L170.465546,62.7346799 Z M222.334477,62.4730539 L201.197605,62.4730539 L201.197605,72.2358308 L222.334477,72.2358308 L222.334477,62.4730539 Z" id="base" fill="#FFFFFF"></path>
            <path d="M85.4036832,199 L128.025967,218.499321 L111.126615,237.994928 L170.319112,287.357995 L209.631567,252.171636 L177.60495,223.518044 L229.524774,169.7998 L296.463905,214.947244 L327.532067,248.253556 L275.319966,294.272563 L290.513058,314.597602 L327.532067,307.719898 L337.759098,334.319658 L285.112533,373.076524 L229.524774,330.533234 L183.748015,367.981441 L170.319112,367.981441 L170.319112,334.319658 L131.772895,334.319658 L111.126615,373.076524 L104.154118,387.20057 L33.8314302,330.533234 L62.1664151,307.719898 L93.5874145,307.719898 L93.5874145,278.500185 L40.2825698,237.994928 L85.4036832,199 Z M149.561879,72.0102524 L159.265842,67.8035016 L170.071761,72.0102524 L182.97364,97.6544851 L190.955786,97.6544851 L201.531506,72.0102524 L211.695814,67.8035016 L222.409531,72.0102524 L226.087626,88.9966024 L205.545972,105.982952 L172.660578,105.982952 L148.158691,89.2618677 L149.561879,72.0102524 Z" id="Path-2" fill-opacity="0.1" fill="#000000"></path>
        </g>
    </g>
</svg>