<?xml version="1.0" encoding="UTF-8"?>
<svg width="512px" height="512px" viewBox="0 0 512 512" version="1.1" xmlns="http://www.w3.org/2000/svg" xmlns:xlink="http://www.w3.org/1999/xlink">
    <!-- Generator: Sketch 53.2 (72643) - https://sketchapp.com -->
    <title>ic_items_boomerang_base</title>
    <desc>Created with Sketch.</desc>
    <g id="ic_items_boomerang_base" stroke="none" stroke-width="1" fill="none" fill-rule="evenodd">
        <g id="boomerang_base" transform="translate(60.000000, 60.000000)" fill-rule="nonzero">
            <path d="M15.7387146,390.877156 C11.532024,390.877156 8.12182741,387.465206 8.12182741,383.256351 L8.12182741,83.1002451 C8.16939975,41.1582548 42.1407534,7.16942422 84.0611773,7.12182741 L382.230829,7.12182741 C386.437519,7.12182741 389.847716,10.5337784 389.847716,14.7426332 L389.847716,40.1392226 C389.800145,81.8552223 356.012195,115.661009 314.317647,115.709165 L169.428202,115.71323 C138.841833,115.748507 114.055632,140.547914 114.020934,171.150019 L114.020934,315.264537 C113.973921,357.0049 80.1660933,390.830575 38.4471944,390.878173 L15.7387146,390.877156 Z M183.210878,253.822335 C179.026474,253.820661 175.635075,250.42833 175.634518,246.243892 L175.634518,185.258646 C175.634518,181.073188 179.027474,177.680203 183.212899,177.680203 L244.197645,177.680203 C247.262809,177.68004 250.026256,179.526316 251.199399,182.358117 C252.372542,185.189918 251.724351,188.449571 249.557076,190.61711 L188.571319,251.602356 C187.1501,253.024063 185.222132,253.822664 183.211888,253.822335 L183.210878,253.822335 Z M244.124583,314.73604 C239.940179,314.734366 236.548781,311.342035 236.548223,307.157597 L236.548223,246.172352 C236.548223,241.986893 239.94118,238.593909 244.126604,238.593909 L305.112361,238.593909 C308.177341,238.594155 310.940414,240.44058 312.113298,243.272289 C313.286182,246.103999 312.637927,249.363407 310.470782,251.530816 L249.486035,312.517072 C248.063966,313.938621 246.135316,314.73684 244.124583,314.73604 L244.124583,314.73604 Z M290.82489,361.436548 C286.640597,361.434874 283.249288,358.042588 283.248731,353.858206 L283.248731,292.872759 C283.248731,288.687356 286.641598,285.294416 290.826911,285.294416 L351.811048,285.294416 C354.876575,285.293845 357.640504,287.140255 358.813707,289.972461 C359.986911,292.804667 359.338278,296.064747 357.170337,298.232162 L296.186199,359.216599 C294.764334,360.6385 292.835715,361.43708 290.82489,361.436548 L290.82489,361.436548 Z" id="Shape" fill="#FFFFFF"></path>
            <path d="M381.725888,15.2436548 L381.725888,40.6411528 C381.725327,78.1687414 351.320228,108.591037 313.812731,108.592721 L168.920157,108.595769 C152.204598,108.596039 136.173772,115.240084 124.354278,127.066291 C112.534783,138.892497 105.894812,154.932124 105.895081,171.656637 L105.895081,315.776312 C105.895351,333.809683 98.7356459,351.104546 85.9910487,363.856161 C73.2464516,376.607775 55.9609543,383.771574 37.9372375,383.771574 L15.2284264,383.771574 L15.2284264,83.6037125 C15.2284264,45.8494952 45.8178812,15.2436548 83.5518861,15.2436548 L381.725888,15.2436548 L381.725888,15.2436548 Z M381.71973,0.0152284264 L83.5551114,0.0152284264 C37.4304745,0.067304118 0.0520496682,37.4644171 0,83.6121151 L0,383.758814 C-7.21606795e-15,392.176289 6.82030124,399 15.2335692,399 L37.941743,399 C83.8644616,398.947925 121.0792,361.71458 121.131249,315.768902 L121.131249,171.658412 C121.16091,145.263645 142.539411,123.873546 168.920986,123.842749 L313.809494,123.8397 C359.707631,123.785947 396.901709,86.5723631 396.954315,40.6512774 L396.954315,15.2574301 C396.954315,6.83995571 390.134013,0.0162445054 381.720746,0.0162445054 L381.71973,0.0152284264 Z" id="Shape" fill="#000000"></path>
            <path d="M243.654822,184.786802 L182.741117,245.700508 L182.741117,184.786802 L243.654822,184.786802 L243.654822,184.786802 Z M243.713444,169.558376 L182.681246,169.558376 C174.303884,169.558376 167.51269,176.349569 167.51269,184.726931 L167.51269,245.75913 C167.512365,251.894488 171.208068,257.425864 176.876382,259.773808 C182.544695,262.121752 189.069246,260.823837 193.407437,256.485321 L254.439635,195.453122 C258.778152,191.114931 260.076067,184.590381 257.728123,178.922067 C255.380179,173.253753 249.848803,169.55805 243.713444,169.558376 L243.713444,169.558376 Z M365.32778,286.400613 C362.952938,280.746184 357.388513,277.090406 351.250912,277.152234 L296.558437,277.152234 L316.286773,257.293689 C320.642313,252.967448 321.943907,246.438059 319.579701,240.774852 C317.215496,235.111644 311.655773,231.44113 305.514043,231.488742 L244.210245,231.488742 C240.252527,231.4333 236.442679,232.989489 233.657512,235.799162 C230.872345,238.608834 229.351769,242.429969 229.445735,246.383158 L229.445735,307.627034 C229.347988,313.743727 232.975888,319.307611 238.615657,321.690375 C240.421538,322.454736 242.362736,322.848813 244.324005,322.849213 C248.414418,322.852578 252.342655,321.251456 255.263313,318.390426 L275.153148,298.681048 L275.153148,353.320968 C275.061596,359.440304 278.694994,365.003378 284.338306,367.384309 C286.147002,368.148783 288.090875,368.542842 290.05478,368.543147 C294.080703,368.543675 297.940278,366.938647 300.776724,364.084361 L362.052082,302.914561 C366.401111,298.586138 367.695855,292.058879 365.32778,286.400613 Z M244.670051,307.629442 L244.670051,246.715736 L305.583756,246.715736 L244.670051,307.629442 Z M290.35533,353.314721 L290.35533,292.401015 L351.269036,292.401015 L290.35533,353.314721 Z" id="Shape" fill="#000000"></path>
        </g>
    </g>
</svg>