<?xml version="1.0" encoding="UTF-8"?>
<svg width="512px" height="512px" viewBox="0 0 512 512" version="1.1" xmlns="http://www.w3.org/2000/svg" xmlns:xlink="http://www.w3.org/1999/xlink">
    <!-- Generator: Sketch 53.2 (72643) - https://sketchapp.com -->
    <title>ic_items_voucher_base</title>
    <desc>Created with Sketch.</desc>
    <g id="ic_items_voucher_base" stroke="none" stroke-width="1" fill="none" fill-rule="evenodd">
        <g id="Group" transform="translate(68.000000, 56.000000)" fill-rule="nonzero">
            <path d="M303.575447,10.1310582 C311.378442,4.43883507 320.242052,1.1961407 329.971795,1.1961407 L375.507006,1.1961407 L375.507006,20.4269099 C375.507006,48.4606149 373.658436,69.8159914 369.719994,84.9821156 C367.393324,93.9416382 364.249486,101.205399 359.814978,106.897523 C358.297682,108.84512 356.629916,110.595952 354.828474,112.125991 L354.828474,300.801193 C355.242544,301.655059 355.5455,302.10307 355.97364,302.684844 C356.465263,303.352881 360.142914,307.999639 361.425617,309.742626 C370.744606,322.40564 375.507006,336.367975 375.507006,356.998816 L375.507006,399.994304 L137.32515,399.994304 C127.610435,399.994304 120.757653,396.094087 115.334447,389.418274 C114.967994,388.967182 114.028962,387.768905 113.915075,387.628015 C110.333991,386.335202 105.984029,385.797342 99.5561535,385.797342 C94.6824631,385.797342 91.4269946,385.585005 87.7520775,385.084367 C87.0432345,384.987801 84.7390843,384.649715 84.2862334,384.586458 C83.009235,384.408079 81.8253652,384.26395 80.416387,384.12276 C71.026294,383.181805 53.8519632,382.639841 22.30244,382.639841 L7.08769788,382.639841 L3.58748207,367.833192 C1.3134385,358.213509 0.258918083,348.22647 0.318836179,337.905806 C0.474938011,311.017859 7.77291435,283.854144 20.6330798,253.4056 C22.8250603,248.215728 25.101416,243.104099 27.7864121,237.277071 C29.0409046,234.554548 33.0857392,225.893875 33.8101482,224.32248 C35.523965,220.604854 36.6498039,218.042927 37.3955114,216.145501 C36.0863591,214.163363 33.000427,209.37456 31.5073362,206.568788 C24.235447,192.903669 20.5873032,174.874701 20.5873032,146.75482 C20.5873032,142.86875 20.4157411,142.314006 19.0970295,140.263338 C18.7787153,139.768343 17.2743508,137.517373 16.9534305,137.027651 C15.7697321,135.221335 14.7799223,133.602712 13.7947441,131.806037 C3.96793873,113.884835 0.429610288,86.0991407 3.09420201,31.10212 L3.98083891,12.8019851 L98.3222083,12.8019851 L100.030504,13.1130106 C112.640411,15.4088675 119.569252,19.8845392 127.790927,28.4949465 C130.696672,31.5293075 131.433448,32.1104174 132.826962,32.704708 C135.68505,33.9235936 140.62994,34.7343615 148.637611,34.7343615 C160.42705,34.7343615 168.443943,31.4190215 185.399374,20.8683004 C185.725225,20.6655355 186.861383,19.9580369 187.056311,19.8367076 C187.718414,19.4245941 188.238688,19.1012849 188.745511,18.7872171 C197.77521,13.1916961 203.640915,9.95365383 210.618034,7.10764328 C220.093305,3.24262127 229.651586,1.1961407 239.910965,1.1961407 L299.718958,1.1961407 L301.074347,12.0660454 C301.89029,11.3976148 302.723354,10.7526532 303.575447,10.1310582 Z" id="background" fill="#000000"></path>
            <path d="M22.30244,32.0327543 C16.9700853,142.092249 39.8180724,116.612722 39.8180724,146.75482 C39.8180724,205.109552 57.1499242,200.595223 57.1499242,216.408157 C57.1499242,229.106645 7.50225903,300.801193 22.30244,363.409072 C96.5858295,363.409072 82.3515601,366.566573 99.5561535,366.566573 C134.779237,366.566573 125.470101,380.763535 137.32515,380.763535 L356.276236,380.763535 L356.276236,356.998816 C356.276236,318.554747 335.597704,318.554747 335.597704,300.801193 L335.597704,100.055649 C349.383392,100.055649 356.276236,73.5127358 356.276236,20.4269099 L329.971795,20.4269099 C306.924287,20.4269099 296.213964,53.9651308 292.05496,53.9651308 C288.631073,53.9651308 285.525148,42.7857238 282.737186,20.4269099 L239.910965,20.4269099 C204.248481,20.4269099 187.727311,53.9651308 148.637611,53.9651308 C109.284449,53.9651308 120.056518,36.3060091 96.5858295,32.0327543 L22.30244,32.0327543 Z" id="base" fill="#FFFFFF"></path>
            <path d="M93.5897436,124.358974 L62.8205128,92.3076923 L124.358974,92.3076923 L93.5897436,124.358974 Z M185.897436,124.358974 L155.128205,92.3076923 L216.666667,92.3076923 L185.897436,124.358974 Z M278.205128,124.358974 L247.435897,92.3076923 L308.974359,92.3076923 L278.205128,124.358974 Z M85.2564103,176.602564 L85.2564103,157.371795 L119.871795,157.371795 L119.871795,176.602564 L85.2564103,176.602564 Z M142.948718,175.267094 L142.948718,156.036325 L299.358974,156.036325 L299.358974,175.267094 L142.948718,175.267094 Z M85.2564103,218.847934 L85.2564103,199.617165 L171.439877,199.617165 L220.423472,213.461538 L299.806925,213.461538 L299.806925,232.692308 L217.758056,232.692308 L168.77446,218.847934 L85.2564103,218.847934 Z M85.8974359,264.74359 L85.8974359,245.512821 L175.21567,245.512821 L208.81465,259.357194 L300.44795,259.357194 L300.44795,278.587963 L205.007904,278.587963 L171.408924,264.74359 L85.8974359,264.74359 Z M85.8974359,310.897436 L85.8974359,291.666667 L132.782235,291.666667 L168.945318,305.51104 L300.44795,305.51104 L300.44795,324.741809 L165.390057,324.741809 L129.226974,310.897436 L85.8974359,310.897436 Z" id="alpha" fill-opacity="0.249490489" fill="#000000"></path>
        </g>
    </g>
</svg>