<?xml version="1.0" encoding="UTF-8"?>
<svg width="512px" height="512px" viewBox="0 0 512 512" version="1.1" xmlns="http://www.w3.org/2000/svg" xmlns:xlink="http://www.w3.org/1999/xlink">
    <!-- Generator: Sketch 53.2 (72643) - https://sketchapp.com -->
    <title>ic_items_monster_jaw_base</title>
    <desc>Created with Sketch.</desc>
    <g id="ic_items_monster_jaw_base" stroke="none" stroke-width="1" fill="none" fill-rule="evenodd">
        <g id="items_monster_jaw_base" transform="translate(56.000000, 114.000000)">
            <polygon id="base" fill="#FFFFFF" points="38.5135734 188.636634 15.1515152 188.636634 15.1515152 106.897846 26.8330498 95.221165 120.27926 95.221165 120.27926 25.818095 131.960795 14.1414141 307.173704 14.1414141 341.410419 19.2631023 392.929293 59.3946174 341.41143 103.536959 392.928282 147.949183 338.6005 193.429814 392.928282 236.503748 340.474116 276.767677 328.29713 265.531702 307.173704 270.376433 38.5135734 270.376433 15.4427193 248.676728 15.1515152 220.584769 38.5135734 220.584769 50.1940969 239.71908 97.8717049 239.312742 97.8717049 211.221793 116.605841 211.221793 143.769732 239.312742 186.772906 239.312742 196.613181 229.914388 196.613181 173.523257 187.179378 164.654559 131.960795 164.654559 120.27926 188.636634 96.9182134 188.636634 96.9182134 164.654559 50.1940969 164.654559"></polygon>
            <path d="M15.0460876,202.239049 C11.8946571,201.88487 8.72605535,201.115969 6.2958176,199.1806 C4.64722443,197.867204 3.31598835,196.199662 2.40097274,194.301814 C1.17575313,191.760002 1.32019369,190.966884 1.01010101,188.217206 L1.01010101,106.61888 C1.28282096,103.847003 1.8494724,101.110443 3.37569403,98.8289671 C3.88578134,98.0671298 4.54030921,97.4122524 5.12211176,96.7038951 L16.7904852,85.0472797 C18.9449728,83.2814316 21.2822837,81.7456483 23.9771608,81.2098395 C24.8761266,81.0312366 25.8023643,81.0302275 26.7154711,80.9404216 L106.028492,80.9404216 L106.028492,25.6784582 L106.299192,22.9429073 C106.564841,22.0660376 106.746655,21.1578871 107.09715,20.3122982 C108.040559,18.0358677 108.59812,17.6403178 110.140503,15.7624645 L121.808876,4.10584905 C123.963364,2.34000097 126.300675,0.804217668 128.994542,0.269417964 C129.894518,0.090815044 130.820755,0.089805988 131.733862,0 L306.764514,0 L309.501814,0.269417964 C310.380578,0.534799704 311.287624,0.715420736 312.135076,1.06657224 C314.412793,2.01003964 314.809752,2.56703858 316.688489,4.10584905 L328.356863,15.7624645 C328.644734,16.113616 328.926545,16.4677946 329.198254,16.8280277 C331.498193,14.6535119 334.489021,13.197444 337.712167,12.9613249 C338.876782,12.8765642 339.143442,12.9320623 339.512119,12.94518 C342.115773,13.1450699 344.623947,14.0117942 346.794751,15.4617658 L393.289462,48.0058413 C400.443815,53.2458694 401.140766,64.979173 393.772277,70.6197963 C393.66723,70.7005208 378.008391,81.6662692 346.795762,103.517042 C346.677246,103.670418 362.175146,114.634148 393.289462,136.408232 C400.406443,141.620007 401.140766,153.381564 393.772277,159.021178 C393.66723,159.101903 378.008391,170.067988 346.795762,191.919433 C346.677246,192.072809 362.175146,203.036539 393.289462,224.810623 C400.454926,230.057715 401.140766,241.782946 393.772277,247.423569 C393.66723,247.504294 378.008391,258.470379 346.795762,280.321824 C339.061626,285.491218 326.858923,281.165394 324.957964,271.470384 L316.688489,279.730517 C314.532992,281.497374 312.195681,283.033157 309.501814,283.567957 C308.602848,283.747569 307.67661,283.748578 306.764514,283.838384 L38.3838445,283.838384 C37.2192293,283.690053 36.0263321,283.688034 34.8889889,283.395408 C31.8163442,282.607335 31.2709043,281.848525 28.765921,280.028188 L5.71906542,258.366782 C3.84436831,256.20942 2.20703855,253.852265 1.61513526,251.10057 C1.41716078,250.182329 1.40604997,249.232807 1.30201236,248.298421 L1.01111108,220.255744 C1.22827697,218.151863 1.45857381,216.017709 2.35551941,214.120684 C3.73173293,211.235449 6.04510291,208.900581 8.91897946,207.496231 C11.4764865,206.256101 12.276465,206.403423 15.0460876,206.089607 L38.3838445,206.089607 C39.5676511,206.240965 40.7797397,206.242983 41.9342542,206.5457 C44.2618806,207.153439 46.3940333,208.348744 48.126007,210.016853 C48.9845698,210.844279 49.6178861,211.876543 50.3643307,212.806893 L57.8893811,225.122422 L83.6442448,224.903456 L83.6442448,210.763554 C84.001811,207.592091 84.7502757,204.471081 86.7067888,202.021093 C87.4986867,201.02919 88.9471327,199.79007 88.9471327,199.79007 L87.9754416,199.1806 L85.7532791,196.960677 C85.1977384,196.073716 84.53614,195.244272 84.0816068,194.301814 C82.8563872,191.760002 83.0008277,190.966884 82.6917451,188.217206 L82.6917451,178.298185 L58.8297599,178.298185 L51.0026974,194.356303 C48.7350816,197.930379 45.582641,200.961584 41.494872,201.889915 C40.4777276,202.121998 39.4211904,202.121998 38.3838445,202.239049 L15.0460876,202.239049 Z M186.393938,238.715651 L143.484966,238.715651 L116.381217,210.699191 L97.6885592,210.699191 L97.6885592,238.715651 L50.1165113,239.119904 L38.4618489,220.037339 L15.1515152,220.037339 L15.4420746,248.054807 L38.4618489,269.69697 L306.527156,269.69697 L318.181818,258.050244 L318.181818,185.362296 L240.295743,185.378425 C240.295743,185.378425 238.87523,185.438912 237.661539,185.70707 C231.740381,187.007535 226.978435,192.182178 226.813986,198.830681 C226.597076,206.610286 225.283505,214.295129 227.08235,222.177562 C228.325299,227.625403 232.834015,232.237519 239.362523,232.575237 C250.408826,232.754681 261.489432,233.856548 272.336985,232.687137 C279.13991,231.954239 287.212014,229.2777 285.344565,221.947713 C284.174256,217.350719 277.549904,216.900093 271.918297,216.853719 L240.100019,216.853719 L240.100019,201.120105 L272.001025,201.120105 C286.279803,201.276362 302.835638,208.990441 301.317263,225.379328 C301.212339,226.417684 306.461578,247.802779 267.532665,248.317924 C249.116442,248.561887 228.83176,253.045973 216.838112,237.645035 C203.604541,220.650272 206.4607,194.110697 216.841139,180.323748 C221.993524,173.479671 231.536586,170.744662 240.032424,169.651868 L318.180809,169.651868 L318.180809,25.7871318 L306.527156,14.1414141 L131.701166,14.1414141 L120.045495,25.7871318 L120.045495,95.0061644 L26.8071865,95.0061644 L15.1515152,106.651882 L15.1515152,188.173922 L38.4618489,188.173922 L50.1165113,164.25544 L96.7371788,164.25544 L96.7371788,188.173922 L120.046504,188.173922 L131.702175,164.25544 L186.798502,164.25544 L196.211418,173.100621 L196.211418,229.342219 L186.393938,238.715651 Z M336.363636,268.686869 L384.848485,236.363636 L336.363636,204.040404 L336.363636,268.686869 Z M132.713919,194.046539 L131.038259,196.668089 C128.864947,198.81099 128.861919,198.829014 126.262626,200.442199 L126.520032,200.65749 L149.502827,224.242424 L182.828283,224.242424 L182.28117,178.997162 L140.748005,178.787879 L132.713919,194.046539 Z M336.363636,179.79798 L384.848485,147.474747 L336.363636,115.151515 L336.363636,179.79798 Z M384.848485,59.5959596 L336.363636,27.2727273 L336.363636,91.9191919 L384.848485,59.5959596 Z" id="Shape" fill="#000000"></path>
            <path d="M279.796974,95.3126256 L279.796974,89.7257557 C279.659213,82.7024632 273.979822,76.3566716 266.919801,75.8007991 C266.434116,75.7626017 266.311438,75.7666225 265.823743,75.7575758 L209.932828,75.7575758 L209.383793,75.7686329 C202.533933,76.1717158 196.540808,81.7937675 196.002835,88.6290888 C195.964624,89.1156028 195.969652,89.2382365 195.959596,89.7247505 L195.959596,121.386361 C196.097357,128.408648 201.777754,134.755445 208.836769,135.311317 C209.322454,135.349515 209.446138,135.344489 209.932828,135.353535 L265.824748,135.353535 C268.07217,135.310312 268.809244,135.103242 270.142614,134.670003 C275.687259,132.8697 279.677313,127.478843 279.79798,121.386361 L279.79798,114.867676 L265.824748,114.867676 L265.824748,121.386361 L209.932828,121.386361 L209.932828,89.7257557 L265.824748,89.7257557 L265.824748,95.3126256 L279.79798,95.3126256 L279.796974,95.3126256 Z" id="Shape" fill="#000000"></path>
        </g>
        <polygon id="Path" fill-opacity="0.3" fill="#000000" points="391 209.057839 391 139 440.864531 174.03395"></polygon>
        <polygon id="Path" fill-opacity="0.3" fill="#000000" points="441.864531 261.03395 392 296.057839 392 226"></polygon>
        <polygon id="Path" fill-opacity="0.3" fill="#000000" points="441.864531 351.03395 392 386.057839 392 316 441.864531 351.03395"></polygon>
    </g>
</svg>